G04 #@! TF.GenerationSoftware,KiCad,Pcbnew,9.0.0*
G04 #@! TF.CreationDate,2025-03-02T09:41:02+01:00*
G04 #@! TF.ProjectId,eeprom_i2c_panel,65657072-6f6d-45f6-9932-635f70616e65,rev?*
G04 #@! TF.SameCoordinates,PX5a1f681PY8a483b1*
G04 #@! TF.FileFunction,Copper,L2,Bot*
G04 #@! TF.FilePolarity,Positive*
%FSLAX46Y46*%
G04 Gerber Fmt 4.6, Leading zero omitted, Abs format (unit mm)*
G04 Created by KiCad (PCBNEW 9.0.0) date 2025-03-02 09:41:02*
%MOMM*%
%LPD*%
G01*
G04 APERTURE LIST*
G04 #@! TA.AperFunction,ComponentPad*
%ADD10C,1.600000*%
G04 #@! TD*
G04 #@! TA.AperFunction,ComponentPad*
%ADD11O,1.600000X1.600000*%
G04 #@! TD*
G04 #@! TA.AperFunction,ComponentPad*
%ADD12R,1.700000X1.700000*%
G04 #@! TD*
G04 #@! TA.AperFunction,ComponentPad*
%ADD13O,1.700000X1.700000*%
G04 #@! TD*
G04 #@! TA.AperFunction,ComponentPad*
%ADD14R,1.600000X1.600000*%
G04 #@! TD*
G04 #@! TA.AperFunction,Conductor*
%ADD15C,0.250000*%
G04 #@! TD*
G04 #@! TA.AperFunction,Profile*
%ADD16C,0.100000*%
G04 #@! TD*
G04 APERTURE END LIST*
D10*
G04 #@! TO.P,R2,1*
G04 #@! TO.N,Board_0-VCC*
X28499519Y57499345D03*
D11*
G04 #@! TO.P,R2,2*
G04 #@! TO.N,Board_0-Net-(J4-SCL)*
X20879519Y57499345D03*
G04 #@! TD*
D12*
G04 #@! TO.P,J3,1,Pin_1*
G04 #@! TO.N,Board_3-VCC*
X40999519Y15524345D03*
D13*
G04 #@! TO.P,J3,2,Pin_2*
G04 #@! TO.N,Board_3-Net-(J3-Pin_2)*
X40999519Y12984345D03*
G04 #@! TO.P,J3,3,Pin_3*
G04 #@! TO.N,Board_3-GND*
X40999519Y10444345D03*
G04 #@! TD*
D12*
G04 #@! TO.P,J1,1,Pin_1*
G04 #@! TO.N,Board_1-VCC*
X40999519Y79024345D03*
D13*
G04 #@! TO.P,J1,2,Pin_2*
G04 #@! TO.N,Board_1-Net-(J1-Pin_2)*
X40999519Y76484345D03*
G04 #@! TO.P,J1,3,Pin_3*
G04 #@! TO.N,Board_1-GND*
X40999519Y73944345D03*
G04 #@! TD*
D12*
G04 #@! TO.P,J3,1,Pin_1*
G04 #@! TO.N,Board_0-VCC*
X10999519Y56524345D03*
D13*
G04 #@! TO.P,J3,2,Pin_2*
G04 #@! TO.N,Board_0-Net-(J3-Pin_2)*
X10999519Y53984345D03*
G04 #@! TO.P,J3,3,Pin_3*
G04 #@! TO.N,Board_0-GND*
X10999519Y51444345D03*
G04 #@! TD*
D12*
G04 #@! TO.P,J4,1,VCC*
G04 #@! TO.N,Board_1-VCC*
X58499519Y50999345D03*
D13*
G04 #@! TO.P,J4,2,SDA*
G04 #@! TO.N,Board_1-Net-(J4-SDA)*
X55959519Y50999345D03*
G04 #@! TO.P,J4,3,SCL*
G04 #@! TO.N,Board_1-Net-(J4-SCL)*
X53419519Y50999345D03*
G04 #@! TO.P,J4,4,GND*
G04 #@! TO.N,Board_1-GND*
X50879519Y50999345D03*
G04 #@! TD*
D10*
G04 #@! TO.P,R1,1*
G04 #@! TO.N,Board_1-VCC*
X58499519Y63499345D03*
D11*
G04 #@! TO.P,R1,2*
G04 #@! TO.N,Board_1-Net-(J4-SDA)*
X50879519Y63499345D03*
G04 #@! TD*
D10*
G04 #@! TO.P,R2,1*
G04 #@! TO.N,Board_1-VCC*
X58499519Y57499345D03*
D11*
G04 #@! TO.P,R2,2*
G04 #@! TO.N,Board_1-Net-(J4-SCL)*
X50879519Y57499345D03*
G04 #@! TD*
D12*
G04 #@! TO.P,J3,1,Pin_1*
G04 #@! TO.N,Board_2-VCC*
X10999519Y15524345D03*
D13*
G04 #@! TO.P,J3,2,Pin_2*
G04 #@! TO.N,Board_2-Net-(J3-Pin_2)*
X10999519Y12984345D03*
G04 #@! TO.P,J3,3,Pin_3*
G04 #@! TO.N,Board_2-GND*
X10999519Y10444345D03*
G04 #@! TD*
D12*
G04 #@! TO.P,J1,1,Pin_1*
G04 #@! TO.N,Board_0-VCC*
X10999519Y79024345D03*
D13*
G04 #@! TO.P,J1,2,Pin_2*
G04 #@! TO.N,Board_0-Net-(J1-Pin_2)*
X10999519Y76484345D03*
G04 #@! TO.P,J1,3,Pin_3*
G04 #@! TO.N,Board_0-GND*
X10999519Y73944345D03*
G04 #@! TD*
D12*
G04 #@! TO.P,J4,1,VCC*
G04 #@! TO.N,Board_0-VCC*
X28499519Y50999345D03*
D13*
G04 #@! TO.P,J4,2,SDA*
G04 #@! TO.N,Board_0-Net-(J4-SDA)*
X25959519Y50999345D03*
G04 #@! TO.P,J4,3,SCL*
G04 #@! TO.N,Board_0-Net-(J4-SCL)*
X23419519Y50999345D03*
G04 #@! TO.P,J4,4,GND*
G04 #@! TO.N,Board_0-GND*
X20879519Y50999345D03*
G04 #@! TD*
D10*
G04 #@! TO.P,R1,1*
G04 #@! TO.N,Board_3-VCC*
X58499519Y22499345D03*
D11*
G04 #@! TO.P,R1,2*
G04 #@! TO.N,Board_3-Net-(J4-SDA)*
X50879519Y22499345D03*
G04 #@! TD*
D12*
G04 #@! TO.P,J1,1,Pin_1*
G04 #@! TO.N,Board_2-VCC*
X10999519Y38024345D03*
D13*
G04 #@! TO.P,J1,2,Pin_2*
G04 #@! TO.N,Board_2-Net-(J1-Pin_2)*
X10999519Y35484345D03*
G04 #@! TO.P,J1,3,Pin_3*
G04 #@! TO.N,Board_2-GND*
X10999519Y32944345D03*
G04 #@! TD*
D14*
G04 #@! TO.P,U1,1,A0*
G04 #@! TO.N,Board_0-Net-(J1-Pin_2)*
X19879519Y79039345D03*
D11*
G04 #@! TO.P,U1,2,A1*
G04 #@! TO.N,Board_0-Net-(J2-Pin_2)*
X19879519Y76499345D03*
G04 #@! TO.P,U1,3,A2*
G04 #@! TO.N,Board_0-Net-(J3-Pin_2)*
X19879519Y73959345D03*
G04 #@! TO.P,U1,4,GND*
G04 #@! TO.N,Board_0-GND*
X19879519Y71419345D03*
G04 #@! TO.P,U1,5,SDA*
G04 #@! TO.N,Board_0-Net-(J4-SDA)*
X27499519Y71419345D03*
G04 #@! TO.P,U1,6,SCL*
G04 #@! TO.N,Board_0-Net-(J4-SCL)*
X27499519Y73959345D03*
G04 #@! TO.P,U1,7,WP*
G04 #@! TO.N,Board_0-GND*
X27499519Y76499345D03*
G04 #@! TO.P,U1,8,VCC*
G04 #@! TO.N,Board_0-VCC*
X27499519Y79039345D03*
G04 #@! TD*
D12*
G04 #@! TO.P,J2,1,Pin_1*
G04 #@! TO.N,Board_0-VCC*
X10999519Y67539345D03*
D13*
G04 #@! TO.P,J2,2,Pin_2*
G04 #@! TO.N,Board_0-Net-(J2-Pin_2)*
X10999519Y64999345D03*
G04 #@! TO.P,J2,3,Pin_3*
G04 #@! TO.N,Board_0-GND*
X10999519Y62459345D03*
G04 #@! TD*
D12*
G04 #@! TO.P,J2,1,Pin_1*
G04 #@! TO.N,Board_1-VCC*
X40999519Y67539345D03*
D13*
G04 #@! TO.P,J2,2,Pin_2*
G04 #@! TO.N,Board_1-Net-(J2-Pin_2)*
X40999519Y64999345D03*
G04 #@! TO.P,J2,3,Pin_3*
G04 #@! TO.N,Board_1-GND*
X40999519Y62459345D03*
G04 #@! TD*
D12*
G04 #@! TO.P,J2,1,Pin_1*
G04 #@! TO.N,Board_2-VCC*
X10999519Y26539345D03*
D13*
G04 #@! TO.P,J2,2,Pin_2*
G04 #@! TO.N,Board_2-Net-(J2-Pin_2)*
X10999519Y23999345D03*
G04 #@! TO.P,J2,3,Pin_3*
G04 #@! TO.N,Board_2-GND*
X10999519Y21459345D03*
G04 #@! TD*
D12*
G04 #@! TO.P,J2,1,Pin_1*
G04 #@! TO.N,Board_3-VCC*
X40999519Y26539345D03*
D13*
G04 #@! TO.P,J2,2,Pin_2*
G04 #@! TO.N,Board_3-Net-(J2-Pin_2)*
X40999519Y23999345D03*
G04 #@! TO.P,J2,3,Pin_3*
G04 #@! TO.N,Board_3-GND*
X40999519Y21459345D03*
G04 #@! TD*
D12*
G04 #@! TO.P,J4,1,VCC*
G04 #@! TO.N,Board_2-VCC*
X28499519Y9999345D03*
D13*
G04 #@! TO.P,J4,2,SDA*
G04 #@! TO.N,Board_2-Net-(J4-SDA)*
X25959519Y9999345D03*
G04 #@! TO.P,J4,3,SCL*
G04 #@! TO.N,Board_2-Net-(J4-SCL)*
X23419519Y9999345D03*
G04 #@! TO.P,J4,4,GND*
G04 #@! TO.N,Board_2-GND*
X20879519Y9999345D03*
G04 #@! TD*
D12*
G04 #@! TO.P,J4,1,VCC*
G04 #@! TO.N,Board_3-VCC*
X58499519Y9999345D03*
D13*
G04 #@! TO.P,J4,2,SDA*
G04 #@! TO.N,Board_3-Net-(J4-SDA)*
X55959519Y9999345D03*
G04 #@! TO.P,J4,3,SCL*
G04 #@! TO.N,Board_3-Net-(J4-SCL)*
X53419519Y9999345D03*
G04 #@! TO.P,J4,4,GND*
G04 #@! TO.N,Board_3-GND*
X50879519Y9999345D03*
G04 #@! TD*
D10*
G04 #@! TO.P,R2,1*
G04 #@! TO.N,Board_2-VCC*
X28499519Y16499345D03*
D11*
G04 #@! TO.P,R2,2*
G04 #@! TO.N,Board_2-Net-(J4-SCL)*
X20879519Y16499345D03*
G04 #@! TD*
D10*
G04 #@! TO.P,R1,1*
G04 #@! TO.N,Board_0-VCC*
X28499519Y63499345D03*
D11*
G04 #@! TO.P,R1,2*
G04 #@! TO.N,Board_0-Net-(J4-SDA)*
X20879519Y63499345D03*
G04 #@! TD*
D14*
G04 #@! TO.P,U1,1,A0*
G04 #@! TO.N,Board_3-Net-(J1-Pin_2)*
X49879519Y38039345D03*
D11*
G04 #@! TO.P,U1,2,A1*
G04 #@! TO.N,Board_3-Net-(J2-Pin_2)*
X49879519Y35499345D03*
G04 #@! TO.P,U1,3,A2*
G04 #@! TO.N,Board_3-Net-(J3-Pin_2)*
X49879519Y32959345D03*
G04 #@! TO.P,U1,4,GND*
G04 #@! TO.N,Board_3-GND*
X49879519Y30419345D03*
G04 #@! TO.P,U1,5,SDA*
G04 #@! TO.N,Board_3-Net-(J4-SDA)*
X57499519Y30419345D03*
G04 #@! TO.P,U1,6,SCL*
G04 #@! TO.N,Board_3-Net-(J4-SCL)*
X57499519Y32959345D03*
G04 #@! TO.P,U1,7,WP*
G04 #@! TO.N,Board_3-GND*
X57499519Y35499345D03*
G04 #@! TO.P,U1,8,VCC*
G04 #@! TO.N,Board_3-VCC*
X57499519Y38039345D03*
G04 #@! TD*
D14*
G04 #@! TO.P,U1,1,A0*
G04 #@! TO.N,Board_1-Net-(J1-Pin_2)*
X49879519Y79039345D03*
D11*
G04 #@! TO.P,U1,2,A1*
G04 #@! TO.N,Board_1-Net-(J2-Pin_2)*
X49879519Y76499345D03*
G04 #@! TO.P,U1,3,A2*
G04 #@! TO.N,Board_1-Net-(J3-Pin_2)*
X49879519Y73959345D03*
G04 #@! TO.P,U1,4,GND*
G04 #@! TO.N,Board_1-GND*
X49879519Y71419345D03*
G04 #@! TO.P,U1,5,SDA*
G04 #@! TO.N,Board_1-Net-(J4-SDA)*
X57499519Y71419345D03*
G04 #@! TO.P,U1,6,SCL*
G04 #@! TO.N,Board_1-Net-(J4-SCL)*
X57499519Y73959345D03*
G04 #@! TO.P,U1,7,WP*
G04 #@! TO.N,Board_1-GND*
X57499519Y76499345D03*
G04 #@! TO.P,U1,8,VCC*
G04 #@! TO.N,Board_1-VCC*
X57499519Y79039345D03*
G04 #@! TD*
D14*
G04 #@! TO.P,U1,1,A0*
G04 #@! TO.N,Board_2-Net-(J1-Pin_2)*
X19879519Y38039345D03*
D11*
G04 #@! TO.P,U1,2,A1*
G04 #@! TO.N,Board_2-Net-(J2-Pin_2)*
X19879519Y35499345D03*
G04 #@! TO.P,U1,3,A2*
G04 #@! TO.N,Board_2-Net-(J3-Pin_2)*
X19879519Y32959345D03*
G04 #@! TO.P,U1,4,GND*
G04 #@! TO.N,Board_2-GND*
X19879519Y30419345D03*
G04 #@! TO.P,U1,5,SDA*
G04 #@! TO.N,Board_2-Net-(J4-SDA)*
X27499519Y30419345D03*
G04 #@! TO.P,U1,6,SCL*
G04 #@! TO.N,Board_2-Net-(J4-SCL)*
X27499519Y32959345D03*
G04 #@! TO.P,U1,7,WP*
G04 #@! TO.N,Board_2-GND*
X27499519Y35499345D03*
G04 #@! TO.P,U1,8,VCC*
G04 #@! TO.N,Board_2-VCC*
X27499519Y38039345D03*
G04 #@! TD*
D12*
G04 #@! TO.P,J1,1,Pin_1*
G04 #@! TO.N,Board_3-VCC*
X40999519Y38024345D03*
D13*
G04 #@! TO.P,J1,2,Pin_2*
G04 #@! TO.N,Board_3-Net-(J1-Pin_2)*
X40999519Y35484345D03*
G04 #@! TO.P,J1,3,Pin_3*
G04 #@! TO.N,Board_3-GND*
X40999519Y32944345D03*
G04 #@! TD*
D10*
G04 #@! TO.P,R1,1*
G04 #@! TO.N,Board_2-VCC*
X28499519Y22499345D03*
D11*
G04 #@! TO.P,R1,2*
G04 #@! TO.N,Board_2-Net-(J4-SDA)*
X20879519Y22499345D03*
G04 #@! TD*
D10*
G04 #@! TO.P,R2,1*
G04 #@! TO.N,Board_3-VCC*
X58499519Y16499345D03*
D11*
G04 #@! TO.P,R2,2*
G04 #@! TO.N,Board_3-Net-(J4-SCL)*
X50879519Y16499345D03*
G04 #@! TD*
D12*
G04 #@! TO.P,J3,1,Pin_1*
G04 #@! TO.N,Board_1-VCC*
X40999519Y56524345D03*
D13*
G04 #@! TO.P,J3,2,Pin_2*
G04 #@! TO.N,Board_1-Net-(J3-Pin_2)*
X40999519Y53984345D03*
G04 #@! TO.P,J3,3,Pin_3*
G04 #@! TO.N,Board_1-GND*
X40999519Y51444345D03*
G04 #@! TD*
D15*
G04 #@! TO.N,Board_0-GND*
X15499519Y69499345D02*
X15499519Y72999345D01*
X21999519Y73499345D02*
X21959519Y73499345D01*
X10999519Y51444345D02*
X15444519Y51444345D01*
X15499519Y69499345D02*
X17419519Y71419345D01*
X16499519Y52499345D02*
X16499519Y61499345D01*
X27499519Y76499345D02*
X24999519Y76499345D01*
X16499519Y61499345D02*
X15499519Y62499345D01*
X15444519Y51444345D02*
X16499519Y52499345D01*
X14499519Y73999345D02*
X14444519Y73944345D01*
X15499519Y72999345D02*
X14499519Y73999345D01*
X17419519Y71419345D02*
X19879519Y71419345D01*
X15459519Y62459345D02*
X10999519Y62459345D01*
X14444519Y73944345D02*
X10999519Y73944345D01*
X15499519Y62499345D02*
X15499519Y69499345D01*
X21959519Y73499345D02*
X19879519Y71419345D01*
X16499519Y52499345D02*
X17999519Y50999345D01*
X15499519Y62499345D02*
X15459519Y62459345D01*
X24999519Y76499345D02*
X21999519Y73499345D01*
X17999519Y50999345D02*
X20879519Y50999345D01*
G04 #@! TO.N,Board_1-GND*
X45459519Y62459345D02*
X40999519Y62459345D01*
X45499519Y62499345D02*
X45499519Y69499345D01*
X44499519Y73999345D02*
X44444519Y73944345D01*
X45499519Y69499345D02*
X47419519Y71419345D01*
X44444519Y73944345D02*
X40999519Y73944345D01*
X46499519Y61499345D02*
X45499519Y62499345D01*
X45499519Y72999345D02*
X44499519Y73999345D01*
X54999519Y76499345D02*
X51999519Y73499345D01*
X45444519Y51444345D02*
X46499519Y52499345D01*
X46499519Y52499345D02*
X47999519Y50999345D01*
X45499519Y62499345D02*
X45459519Y62459345D01*
X47999519Y50999345D02*
X50879519Y50999345D01*
X51959519Y73499345D02*
X49879519Y71419345D01*
X51999519Y73499345D02*
X51959519Y73499345D01*
X46499519Y52499345D02*
X46499519Y61499345D01*
X47419519Y71419345D02*
X49879519Y71419345D01*
X57499519Y76499345D02*
X54999519Y76499345D01*
X45499519Y69499345D02*
X45499519Y72999345D01*
X40999519Y51444345D02*
X45444519Y51444345D01*
G04 #@! TO.N,Board_2-GND*
X27499519Y35499345D02*
X24999519Y35499345D01*
X15499519Y28499345D02*
X17419519Y30419345D01*
X14444519Y32944345D02*
X10999519Y32944345D01*
X15459519Y21459345D02*
X10999519Y21459345D01*
X16499519Y11499345D02*
X16499519Y20499345D01*
X24999519Y35499345D02*
X21999519Y32499345D01*
X17999519Y9999345D02*
X20879519Y9999345D01*
X15444519Y10444345D02*
X16499519Y11499345D01*
X15499519Y31999345D02*
X14499519Y32999345D01*
X10999519Y10444345D02*
X15444519Y10444345D01*
X21959519Y32499345D02*
X19879519Y30419345D01*
X15499519Y21499345D02*
X15459519Y21459345D01*
X17419519Y30419345D02*
X19879519Y30419345D01*
X15499519Y28499345D02*
X15499519Y31999345D01*
X16499519Y11499345D02*
X17999519Y9999345D01*
X14499519Y32999345D02*
X14444519Y32944345D01*
X15499519Y21499345D02*
X15499519Y28499345D01*
X16499519Y20499345D02*
X15499519Y21499345D01*
X21999519Y32499345D02*
X21959519Y32499345D01*
G04 #@! TO.N,Board_3-GND*
X45499519Y28499345D02*
X45499519Y31999345D01*
X51999519Y32499345D02*
X51959519Y32499345D01*
X45459519Y21459345D02*
X40999519Y21459345D01*
X47419519Y30419345D02*
X49879519Y30419345D01*
X46499519Y20499345D02*
X45499519Y21499345D01*
X44499519Y32999345D02*
X44444519Y32944345D01*
X40999519Y10444345D02*
X45444519Y10444345D01*
X46499519Y11499345D02*
X47999519Y9999345D01*
X45499519Y21499345D02*
X45459519Y21459345D01*
X45499519Y28499345D02*
X47419519Y30419345D01*
X46499519Y11499345D02*
X46499519Y20499345D01*
X44444519Y32944345D02*
X40999519Y32944345D01*
X45499519Y21499345D02*
X45499519Y28499345D01*
X45444519Y10444345D02*
X46499519Y11499345D01*
X45499519Y31999345D02*
X44499519Y32999345D01*
X57499519Y35499345D02*
X54999519Y35499345D01*
X54999519Y35499345D02*
X51999519Y32499345D01*
X51959519Y32499345D02*
X49879519Y30419345D01*
X47999519Y9999345D02*
X50879519Y9999345D01*
G04 #@! TD*
G04 #@! TA.AperFunction,Conductor*
G04 #@! TO.N,Board_1-GND*
G36*
X61442058Y83479160D02*
G01*
X61487813Y83426356D01*
X61499019Y83374845D01*
X61499019Y48623845D01*
X61479334Y48556806D01*
X61426530Y48511051D01*
X61375019Y48499845D01*
X37624019Y48499845D01*
X37556980Y48519530D01*
X37511225Y48572334D01*
X37500019Y48623845D01*
X37500019Y57422210D01*
X39649019Y57422210D01*
X39649019Y55626475D01*
X39649020Y55626469D01*
X39655427Y55566862D01*
X39705721Y55432017D01*
X39705725Y55432010D01*
X39791971Y55316801D01*
X39791974Y55316798D01*
X39907183Y55230552D01*
X39907190Y55230548D01*
X40038601Y55181535D01*
X40094535Y55139664D01*
X40118952Y55074200D01*
X40104101Y55005927D01*
X40082950Y54977672D01*
X39969408Y54864130D01*
X39844470Y54692166D01*
X39747963Y54502760D01*
X39682272Y54300585D01*
X39649019Y54090632D01*
X39649019Y53878059D01*
X39682272Y53668106D01*
X39747963Y53465931D01*
X39844470Y53276525D01*
X39969409Y53104559D01*
X40119732Y52954236D01*
X40291698Y52829297D01*
X40291700Y52829296D01*
X40291703Y52829294D01*
X40301012Y52824551D01*
X40351809Y52776579D01*
X40368606Y52708758D01*
X40346071Y52642623D01*
X40301021Y52603583D01*
X40291962Y52598967D01*
X40120059Y52474073D01*
X40120054Y52474069D01*
X39969795Y52323810D01*
X39969791Y52323805D01*
X39844898Y52151903D01*
X39748423Y51962563D01*
X39682761Y51760475D01*
X39682761Y51760472D01*
X39672288Y51694345D01*
X40566507Y51694345D01*
X40533594Y51637338D01*
X40499519Y51510171D01*
X40499519Y51378519D01*
X40533594Y51251352D01*
X40566507Y51194345D01*
X39672288Y51194345D01*
X39682761Y51128219D01*
X39682761Y51128216D01*
X39748423Y50926128D01*
X39844898Y50736788D01*
X39969791Y50564886D01*
X39969795Y50564881D01*
X40120054Y50414622D01*
X40120059Y50414618D01*
X40291961Y50289725D01*
X40481301Y50193250D01*
X40683390Y50127588D01*
X40749519Y50117114D01*
X40749519Y51011333D01*
X40806526Y50978420D01*
X40933693Y50944345D01*
X41065345Y50944345D01*
X41192512Y50978420D01*
X41249519Y51011333D01*
X41249519Y50117115D01*
X41315645Y50127588D01*
X41315648Y50127588D01*
X41517736Y50193250D01*
X41707076Y50289725D01*
X41878978Y50414618D01*
X41878983Y50414622D01*
X42029242Y50564881D01*
X42029246Y50564886D01*
X42154142Y50736792D01*
X42154143Y50736793D01*
X42208106Y50842699D01*
X42208108Y50842704D01*
X42250614Y50926128D01*
X42316276Y51128216D01*
X42316277Y51128221D01*
X42326750Y51194345D01*
X41432531Y51194345D01*
X41464285Y51249345D01*
X49552288Y51249345D01*
X50446507Y51249345D01*
X50413594Y51192338D01*
X50379519Y51065171D01*
X50379519Y50933519D01*
X50413594Y50806352D01*
X50446507Y50749345D01*
X49552288Y50749345D01*
X49562761Y50683219D01*
X49562761Y50683216D01*
X49628423Y50481128D01*
X49724898Y50291788D01*
X49849791Y50119886D01*
X49849795Y50119881D01*
X50000054Y49969622D01*
X50000059Y49969618D01*
X50171961Y49844725D01*
X50361301Y49748250D01*
X50563390Y49682588D01*
X50629519Y49672114D01*
X50629519Y50566333D01*
X50686526Y50533420D01*
X50813693Y50499345D01*
X50945345Y50499345D01*
X51072512Y50533420D01*
X51129519Y50566333D01*
X51129519Y49672115D01*
X51195645Y49682588D01*
X51195648Y49682588D01*
X51397736Y49748250D01*
X51587076Y49844725D01*
X51758978Y49969618D01*
X51758983Y49969622D01*
X51909242Y50119881D01*
X51909246Y50119886D01*
X52034139Y50291787D01*
X52038751Y50300838D01*
X52086724Y50351636D01*
X52154544Y50368433D01*
X52220680Y50345898D01*
X52259723Y50300841D01*
X52264468Y50291528D01*
X52389409Y50119559D01*
X52539732Y49969236D01*
X52711698Y49844297D01*
X52711700Y49844296D01*
X52711703Y49844294D01*
X52901107Y49747788D01*
X53103276Y49682099D01*
X53313232Y49648845D01*
X53313233Y49648845D01*
X53525805Y49648845D01*
X53525806Y49648845D01*
X53735762Y49682099D01*
X53937931Y49747788D01*
X54127335Y49844294D01*
X54213657Y49907010D01*
X54299305Y49969236D01*
X54299307Y49969239D01*
X54299311Y49969241D01*
X54449623Y50119553D01*
X54449625Y50119557D01*
X54449628Y50119559D01*
X54574567Y50291525D01*
X54574569Y50291528D01*
X54574570Y50291529D01*
X54579033Y50300291D01*
X54627007Y50351086D01*
X54694827Y50367882D01*
X54760963Y50345346D01*
X54800005Y50300289D01*
X54804470Y50291525D01*
X54929409Y50119559D01*
X55079732Y49969236D01*
X55251698Y49844297D01*
X55251700Y49844296D01*
X55251703Y49844294D01*
X55441107Y49747788D01*
X55643276Y49682099D01*
X55853232Y49648845D01*
X55853233Y49648845D01*
X56065805Y49648845D01*
X56065806Y49648845D01*
X56275762Y49682099D01*
X56477931Y49747788D01*
X56667335Y49844294D01*
X56839311Y49969241D01*
X56952848Y50082779D01*
X57014167Y50116261D01*
X57083859Y50111277D01*
X57139793Y50069406D01*
X57156708Y50038428D01*
X57205721Y49907017D01*
X57205725Y49907010D01*
X57291971Y49791801D01*
X57291974Y49791798D01*
X57407183Y49705552D01*
X57407190Y49705548D01*
X57542036Y49655254D01*
X57542035Y49655254D01*
X57548963Y49654510D01*
X57601646Y49648845D01*
X59397391Y49648846D01*
X59457002Y49655254D01*
X59591850Y49705549D01*
X59707065Y49791799D01*
X59793315Y49907014D01*
X59843610Y50041862D01*
X59850019Y50101472D01*
X59850018Y51897217D01*
X59843610Y51956828D01*
X59842329Y51960262D01*
X59793316Y52091674D01*
X59793312Y52091681D01*
X59707066Y52206890D01*
X59707063Y52206893D01*
X59591854Y52293139D01*
X59591847Y52293143D01*
X59457001Y52343437D01*
X59457002Y52343437D01*
X59397402Y52349844D01*
X59397400Y52349845D01*
X59397392Y52349845D01*
X59397383Y52349845D01*
X57601648Y52349845D01*
X57601642Y52349844D01*
X57542035Y52343437D01*
X57407190Y52293143D01*
X57407183Y52293139D01*
X57291974Y52206893D01*
X57291971Y52206890D01*
X57205725Y52091681D01*
X57205722Y52091676D01*
X57156708Y51960262D01*
X57114836Y51904329D01*
X57049372Y51879912D01*
X56981099Y51894764D01*
X56952845Y51915915D01*
X56839305Y52029455D01*
X56667339Y52154394D01*
X56477933Y52250901D01*
X56477932Y52250902D01*
X56477931Y52250902D01*
X56275762Y52316591D01*
X56275760Y52316592D01*
X56275759Y52316592D01*
X56114476Y52342137D01*
X56065806Y52349845D01*
X55853232Y52349845D01*
X55804561Y52342137D01*
X55643279Y52316592D01*
X55441104Y52250901D01*
X55251698Y52154394D01*
X55079732Y52029455D01*
X54929409Y51879132D01*
X54804468Y51707163D01*
X54800003Y51698399D01*
X54752028Y51647603D01*
X54684207Y51630809D01*
X54618072Y51653347D01*
X54579035Y51698399D01*
X54574569Y51707163D01*
X54449628Y51879132D01*
X54299305Y52029455D01*
X54127339Y52154394D01*
X53937933Y52250901D01*
X53937932Y52250902D01*
X53937931Y52250902D01*
X53735762Y52316591D01*
X53735760Y52316592D01*
X53735759Y52316592D01*
X53574476Y52342137D01*
X53525806Y52349845D01*
X53313232Y52349845D01*
X53264561Y52342137D01*
X53103279Y52316592D01*
X52901104Y52250901D01*
X52711698Y52154394D01*
X52539732Y52029455D01*
X52389409Y51879132D01*
X52264468Y51707163D01*
X52259721Y51697846D01*
X52211746Y51647052D01*
X52143924Y51630258D01*
X52077790Y51652797D01*
X52038753Y51697850D01*
X52034141Y51706901D01*
X51909246Y51878805D01*
X51909242Y51878810D01*
X51758983Y52029069D01*
X51758978Y52029073D01*
X51587076Y52153966D01*
X51397734Y52250442D01*
X51195643Y52316104D01*
X51129519Y52326577D01*
X51129519Y51432357D01*
X51072512Y51465270D01*
X50945345Y51499345D01*
X50813693Y51499345D01*
X50686526Y51465270D01*
X50629519Y51432357D01*
X50629519Y52326577D01*
X50629518Y52326577D01*
X50563394Y52316104D01*
X50361303Y52250442D01*
X50171961Y52153966D01*
X50000059Y52029073D01*
X50000054Y52029069D01*
X49849795Y51878810D01*
X49849791Y51878805D01*
X49724898Y51706903D01*
X49628423Y51517563D01*
X49562761Y51315475D01*
X49562761Y51315472D01*
X49552288Y51249345D01*
X41464285Y51249345D01*
X41465444Y51251352D01*
X41499519Y51378519D01*
X41499519Y51510171D01*
X41465444Y51637338D01*
X41432531Y51694345D01*
X42326750Y51694345D01*
X42316276Y51760472D01*
X42316276Y51760475D01*
X42250614Y51962563D01*
X42154139Y52151903D01*
X42029246Y52323805D01*
X42029242Y52323810D01*
X41878983Y52474069D01*
X41878978Y52474073D01*
X41707074Y52598968D01*
X41698019Y52603582D01*
X41647225Y52651557D01*
X41630431Y52719379D01*
X41652970Y52785513D01*
X41698027Y52824552D01*
X41707335Y52829294D01*
X41786526Y52886830D01*
X41879305Y52954236D01*
X41879307Y52954239D01*
X41879311Y52954241D01*
X42029623Y53104553D01*
X42029625Y53104557D01*
X42029628Y53104559D01*
X42154567Y53276525D01*
X42154566Y53276525D01*
X42154570Y53276529D01*
X42251076Y53465933D01*
X42316765Y53668102D01*
X42350019Y53878058D01*
X42350019Y54090632D01*
X42316765Y54300588D01*
X42251076Y54502757D01*
X42154570Y54692161D01*
X42154568Y54692164D01*
X42154567Y54692166D01*
X42029628Y54864132D01*
X41916088Y54977672D01*
X41882603Y55038995D01*
X41887587Y55108687D01*
X41929459Y55164620D01*
X41960434Y55181535D01*
X42091850Y55230549D01*
X42207065Y55316799D01*
X42293315Y55432014D01*
X42343610Y55566862D01*
X42350019Y55626472D01*
X42350018Y57422217D01*
X42343610Y57481828D01*
X42298902Y57601697D01*
X49579019Y57601697D01*
X49579019Y57396994D01*
X49611041Y57194811D01*
X49674300Y57000122D01*
X49767234Y56817732D01*
X49887547Y56652132D01*
X50032305Y56507374D01*
X50187268Y56394789D01*
X50197909Y56387058D01*
X50314126Y56327842D01*
X50380295Y56294127D01*
X50380297Y56294127D01*
X50380300Y56294125D01*
X50484656Y56260218D01*
X50574984Y56230868D01*
X50676076Y56214857D01*
X50777167Y56198845D01*
X50777168Y56198845D01*
X50981870Y56198845D01*
X50981871Y56198845D01*
X51184053Y56230868D01*
X51378738Y56294125D01*
X51561129Y56387058D01*
X51654109Y56454613D01*
X51726732Y56507374D01*
X51726734Y56507377D01*
X51726738Y56507379D01*
X51871485Y56652126D01*
X51871487Y56652130D01*
X51871490Y56652132D01*
X51924251Y56724755D01*
X51991806Y56817735D01*
X52084739Y57000126D01*
X52147996Y57194811D01*
X52180019Y57396993D01*
X52180019Y57601697D01*
X57199019Y57601697D01*
X57199019Y57396994D01*
X57231041Y57194811D01*
X57294300Y57000122D01*
X57387234Y56817732D01*
X57507547Y56652132D01*
X57652305Y56507374D01*
X57807268Y56394789D01*
X57817909Y56387058D01*
X57934126Y56327842D01*
X58000295Y56294127D01*
X58000297Y56294127D01*
X58000300Y56294125D01*
X58104656Y56260218D01*
X58194984Y56230868D01*
X58296076Y56214857D01*
X58397167Y56198845D01*
X58397168Y56198845D01*
X58601870Y56198845D01*
X58601871Y56198845D01*
X58804053Y56230868D01*
X58998738Y56294125D01*
X59181129Y56387058D01*
X59274109Y56454613D01*
X59346732Y56507374D01*
X59346734Y56507377D01*
X59346738Y56507379D01*
X59491485Y56652126D01*
X59491487Y56652130D01*
X59491490Y56652132D01*
X59544251Y56724755D01*
X59611806Y56817735D01*
X59704739Y57000126D01*
X59767996Y57194811D01*
X59800019Y57396993D01*
X59800019Y57601697D01*
X59767996Y57803879D01*
X59763361Y57818143D01*
X59704737Y57998569D01*
X59671022Y58064738D01*
X59611806Y58180955D01*
X59604075Y58191596D01*
X59491490Y58346559D01*
X59346732Y58491317D01*
X59181132Y58611630D01*
X59181131Y58611631D01*
X59181129Y58611632D01*
X59124172Y58640654D01*
X58998742Y58704564D01*
X58804053Y58767823D01*
X58629514Y58795467D01*
X58601871Y58799845D01*
X58397167Y58799845D01*
X58372848Y58795994D01*
X58194984Y58767823D01*
X58000295Y58704564D01*
X57817905Y58611630D01*
X57652305Y58491317D01*
X57507547Y58346559D01*
X57387234Y58180959D01*
X57294300Y57998569D01*
X57231041Y57803880D01*
X57199019Y57601697D01*
X52180019Y57601697D01*
X52147996Y57803879D01*
X52143361Y57818143D01*
X52084737Y57998569D01*
X52051022Y58064738D01*
X51991806Y58180955D01*
X51984075Y58191596D01*
X51871490Y58346559D01*
X51726732Y58491317D01*
X51561132Y58611630D01*
X51561131Y58611631D01*
X51561129Y58611632D01*
X51504172Y58640654D01*
X51378742Y58704564D01*
X51184053Y58767823D01*
X51009514Y58795467D01*
X50981871Y58799845D01*
X50777167Y58799845D01*
X50752848Y58795994D01*
X50574984Y58767823D01*
X50380295Y58704564D01*
X50197905Y58611630D01*
X50032305Y58491317D01*
X49887547Y58346559D01*
X49767234Y58180959D01*
X49674300Y57998569D01*
X49611041Y57803880D01*
X49579019Y57601697D01*
X42298902Y57601697D01*
X42293315Y57616676D01*
X42293314Y57616677D01*
X42293312Y57616681D01*
X42207066Y57731890D01*
X42207063Y57731893D01*
X42091854Y57818139D01*
X42091847Y57818143D01*
X41957001Y57868437D01*
X41957002Y57868437D01*
X41897402Y57874844D01*
X41897400Y57874845D01*
X41897392Y57874845D01*
X41897383Y57874845D01*
X40101648Y57874845D01*
X40101642Y57874844D01*
X40042035Y57868437D01*
X39907190Y57818143D01*
X39907183Y57818139D01*
X39791974Y57731893D01*
X39791971Y57731890D01*
X39705725Y57616681D01*
X39705721Y57616674D01*
X39655427Y57481828D01*
X39649020Y57422229D01*
X39649020Y57422222D01*
X39649019Y57422210D01*
X37500019Y57422210D01*
X37500019Y68437210D01*
X39649019Y68437210D01*
X39649019Y66641475D01*
X39649020Y66641469D01*
X39655427Y66581862D01*
X39705721Y66447017D01*
X39705725Y66447010D01*
X39791971Y66331801D01*
X39791974Y66331798D01*
X39907183Y66245552D01*
X39907190Y66245548D01*
X40038601Y66196535D01*
X40094535Y66154664D01*
X40118952Y66089200D01*
X40104101Y66020927D01*
X40082950Y65992672D01*
X39969408Y65879130D01*
X39844470Y65707166D01*
X39747963Y65517760D01*
X39682272Y65315585D01*
X39649019Y65105632D01*
X39649019Y64893059D01*
X39682272Y64683106D01*
X39747963Y64480931D01*
X39844470Y64291525D01*
X39969409Y64119559D01*
X40119732Y63969236D01*
X40291698Y63844297D01*
X40291700Y63844296D01*
X40291703Y63844294D01*
X40301012Y63839551D01*
X40351809Y63791579D01*
X40368606Y63723758D01*
X40346071Y63657623D01*
X40301021Y63618583D01*
X40291962Y63613967D01*
X40120059Y63489073D01*
X40120054Y63489069D01*
X39969795Y63338810D01*
X39969791Y63338805D01*
X39844898Y63166903D01*
X39748423Y62977563D01*
X39682761Y62775475D01*
X39682761Y62775472D01*
X39672288Y62709345D01*
X40566507Y62709345D01*
X40533594Y62652338D01*
X40499519Y62525171D01*
X40499519Y62393519D01*
X40533594Y62266352D01*
X40566507Y62209345D01*
X39672288Y62209345D01*
X39682761Y62143219D01*
X39682761Y62143216D01*
X39748423Y61941128D01*
X39844898Y61751788D01*
X39969791Y61579886D01*
X39969795Y61579881D01*
X40120054Y61429622D01*
X40120059Y61429618D01*
X40291961Y61304725D01*
X40481301Y61208250D01*
X40683390Y61142588D01*
X40749519Y61132114D01*
X40749519Y62026333D01*
X40806526Y61993420D01*
X40933693Y61959345D01*
X41065345Y61959345D01*
X41192512Y61993420D01*
X41249519Y62026333D01*
X41249519Y61132115D01*
X41315645Y61142588D01*
X41315648Y61142588D01*
X41517736Y61208250D01*
X41707076Y61304725D01*
X41878978Y61429618D01*
X41878983Y61429622D01*
X42029242Y61579881D01*
X42029246Y61579886D01*
X42154139Y61751788D01*
X42250614Y61941128D01*
X42316276Y62143216D01*
X42316276Y62143219D01*
X42326750Y62209345D01*
X41432531Y62209345D01*
X41465444Y62266352D01*
X41499519Y62393519D01*
X41499519Y62525171D01*
X41465444Y62652338D01*
X41432531Y62709345D01*
X42326750Y62709345D01*
X42316276Y62775472D01*
X42316276Y62775475D01*
X42250614Y62977563D01*
X42154139Y63166903D01*
X42029246Y63338805D01*
X42029242Y63338810D01*
X41878983Y63489069D01*
X41856051Y63505730D01*
X41719810Y63601697D01*
X49579019Y63601697D01*
X49579019Y63396994D01*
X49611041Y63194811D01*
X49674300Y63000122D01*
X49767234Y62817732D01*
X49887547Y62652132D01*
X50032305Y62507374D01*
X50187268Y62394789D01*
X50197909Y62387058D01*
X50314126Y62327842D01*
X50380295Y62294127D01*
X50380297Y62294127D01*
X50380300Y62294125D01*
X50484656Y62260218D01*
X50574984Y62230868D01*
X50676076Y62214857D01*
X50777167Y62198845D01*
X50777168Y62198845D01*
X50981870Y62198845D01*
X50981871Y62198845D01*
X51184053Y62230868D01*
X51378738Y62294125D01*
X51561129Y62387058D01*
X51654109Y62454613D01*
X51726732Y62507374D01*
X51726734Y62507377D01*
X51726738Y62507379D01*
X51871485Y62652126D01*
X51871487Y62652130D01*
X51871490Y62652132D01*
X51961100Y62775472D01*
X51991806Y62817735D01*
X52084739Y63000126D01*
X52147996Y63194811D01*
X52180019Y63396993D01*
X52180019Y63601697D01*
X57199019Y63601697D01*
X57199019Y63396994D01*
X57231041Y63194811D01*
X57294300Y63000122D01*
X57387234Y62817732D01*
X57507547Y62652132D01*
X57652305Y62507374D01*
X57807268Y62394789D01*
X57817909Y62387058D01*
X57934126Y62327842D01*
X58000295Y62294127D01*
X58000297Y62294127D01*
X58000300Y62294125D01*
X58104656Y62260218D01*
X58194984Y62230868D01*
X58296076Y62214857D01*
X58397167Y62198845D01*
X58397168Y62198845D01*
X58601870Y62198845D01*
X58601871Y62198845D01*
X58804053Y62230868D01*
X58998738Y62294125D01*
X59181129Y62387058D01*
X59274109Y62454613D01*
X59346732Y62507374D01*
X59346734Y62507377D01*
X59346738Y62507379D01*
X59491485Y62652126D01*
X59491487Y62652130D01*
X59491490Y62652132D01*
X59581100Y62775472D01*
X59611806Y62817735D01*
X59704739Y63000126D01*
X59767996Y63194811D01*
X59800019Y63396993D01*
X59800019Y63601697D01*
X59767996Y63803879D01*
X59764651Y63814173D01*
X59714268Y63969236D01*
X59704739Y63998564D01*
X59704737Y63998567D01*
X59704737Y63998569D01*
X59671022Y64064738D01*
X59611806Y64180955D01*
X59604075Y64191596D01*
X59491490Y64346559D01*
X59346732Y64491317D01*
X59181132Y64611630D01*
X59181131Y64611631D01*
X59181129Y64611632D01*
X59124172Y64640654D01*
X58998742Y64704564D01*
X58804053Y64767823D01*
X58629514Y64795467D01*
X58601871Y64799845D01*
X58397167Y64799845D01*
X58372848Y64795994D01*
X58194984Y64767823D01*
X58000295Y64704564D01*
X57817905Y64611630D01*
X57652305Y64491317D01*
X57507547Y64346559D01*
X57387234Y64180959D01*
X57294300Y63998569D01*
X57231041Y63803880D01*
X57199019Y63601697D01*
X52180019Y63601697D01*
X52147996Y63803879D01*
X52144651Y63814173D01*
X52094268Y63969236D01*
X52084739Y63998564D01*
X52084737Y63998567D01*
X52084737Y63998569D01*
X52051022Y64064738D01*
X51991806Y64180955D01*
X51984075Y64191596D01*
X51871490Y64346559D01*
X51726732Y64491317D01*
X51561132Y64611630D01*
X51561131Y64611631D01*
X51561129Y64611632D01*
X51504172Y64640654D01*
X51378742Y64704564D01*
X51184053Y64767823D01*
X51009514Y64795467D01*
X50981871Y64799845D01*
X50777167Y64799845D01*
X50752848Y64795994D01*
X50574984Y64767823D01*
X50380295Y64704564D01*
X50197905Y64611630D01*
X50032305Y64491317D01*
X49887547Y64346559D01*
X49767234Y64180959D01*
X49674300Y63998569D01*
X49611041Y63803880D01*
X49579019Y63601697D01*
X41719810Y63601697D01*
X41682909Y63627690D01*
X41666452Y63648397D01*
X41647225Y63666557D01*
X41645055Y63675320D01*
X41639437Y63682389D01*
X41636787Y63708709D01*
X41630431Y63734379D01*
X41633343Y63742925D01*
X41632439Y63751907D01*
X41644437Y63775478D01*
X41652970Y63800513D01*
X41660506Y63807043D01*
X41664136Y63814173D01*
X41678258Y63822424D01*
X41698027Y63839552D01*
X41707335Y63844294D01*
X41786526Y63901830D01*
X41879305Y63969236D01*
X41879307Y63969239D01*
X41879311Y63969241D01*
X42029623Y64119553D01*
X42029625Y64119557D01*
X42029628Y64119559D01*
X42154567Y64291525D01*
X42154566Y64291525D01*
X42154570Y64291529D01*
X42251076Y64480933D01*
X42316765Y64683102D01*
X42350019Y64893058D01*
X42350019Y65105632D01*
X42316765Y65315588D01*
X42251076Y65517757D01*
X42154570Y65707161D01*
X42154568Y65707164D01*
X42154567Y65707166D01*
X42029628Y65879132D01*
X41916088Y65992672D01*
X41882603Y66053995D01*
X41887587Y66123687D01*
X41929459Y66179620D01*
X41960434Y66196535D01*
X42091850Y66245549D01*
X42207065Y66331799D01*
X42293315Y66447014D01*
X42343610Y66581862D01*
X42350019Y66641472D01*
X42350018Y68437217D01*
X42343610Y68496828D01*
X42293315Y68631676D01*
X42293314Y68631677D01*
X42293312Y68631681D01*
X42207066Y68746890D01*
X42207063Y68746893D01*
X42091854Y68833139D01*
X42091847Y68833143D01*
X41957001Y68883437D01*
X41957002Y68883437D01*
X41897402Y68889844D01*
X41897400Y68889845D01*
X41897392Y68889845D01*
X41897383Y68889845D01*
X40101648Y68889845D01*
X40101642Y68889844D01*
X40042035Y68883437D01*
X39907190Y68833143D01*
X39907183Y68833139D01*
X39791974Y68746893D01*
X39791971Y68746890D01*
X39705725Y68631681D01*
X39705721Y68631674D01*
X39655427Y68496828D01*
X39649020Y68437229D01*
X39649020Y68437222D01*
X39649019Y68437210D01*
X37500019Y68437210D01*
X37500019Y79922210D01*
X39649019Y79922210D01*
X39649019Y78126475D01*
X39649020Y78126469D01*
X39655427Y78066862D01*
X39705721Y77932017D01*
X39705725Y77932010D01*
X39791971Y77816801D01*
X39791974Y77816798D01*
X39907183Y77730552D01*
X39907190Y77730548D01*
X40038601Y77681535D01*
X40094535Y77639664D01*
X40118952Y77574200D01*
X40104101Y77505927D01*
X40082950Y77477672D01*
X39969408Y77364130D01*
X39844470Y77192166D01*
X39747963Y77002760D01*
X39682272Y76800585D01*
X39649019Y76590632D01*
X39649019Y76378059D01*
X39678042Y76194811D01*
X39682273Y76168102D01*
X39736853Y76000122D01*
X39747963Y75965931D01*
X39844470Y75776525D01*
X39969409Y75604559D01*
X40119732Y75454236D01*
X40291698Y75329297D01*
X40291700Y75329296D01*
X40291703Y75329294D01*
X40301012Y75324551D01*
X40351809Y75276579D01*
X40368606Y75208758D01*
X40346071Y75142623D01*
X40301021Y75103583D01*
X40291962Y75098967D01*
X40120059Y74974073D01*
X40120054Y74974069D01*
X39969795Y74823810D01*
X39969791Y74823805D01*
X39844898Y74651903D01*
X39748423Y74462563D01*
X39682761Y74260475D01*
X39682761Y74260472D01*
X39672288Y74194345D01*
X40566507Y74194345D01*
X40533594Y74137338D01*
X40499519Y74010171D01*
X40499519Y73878519D01*
X40533594Y73751352D01*
X40566507Y73694345D01*
X39672288Y73694345D01*
X39682761Y73628219D01*
X39682761Y73628216D01*
X39748423Y73426128D01*
X39844898Y73236788D01*
X39969791Y73064886D01*
X39969795Y73064881D01*
X40120054Y72914622D01*
X40120059Y72914618D01*
X40291961Y72789725D01*
X40481301Y72693250D01*
X40683390Y72627588D01*
X40749519Y72617114D01*
X40749519Y73511333D01*
X40806526Y73478420D01*
X40933693Y73444345D01*
X41065345Y73444345D01*
X41192512Y73478420D01*
X41249519Y73511333D01*
X41249519Y72617115D01*
X41315645Y72627588D01*
X41315648Y72627588D01*
X41517736Y72693250D01*
X41707076Y72789725D01*
X41878978Y72914618D01*
X41878983Y72914622D01*
X42029242Y73064881D01*
X42029246Y73064886D01*
X42154139Y73236788D01*
X42250614Y73426128D01*
X42316276Y73628216D01*
X42316276Y73628219D01*
X42326750Y73694345D01*
X41432531Y73694345D01*
X41465444Y73751352D01*
X41499519Y73878519D01*
X41499519Y74010171D01*
X41465444Y74137338D01*
X41432531Y74194345D01*
X42326750Y74194345D01*
X42316276Y74260472D01*
X42316276Y74260475D01*
X42250614Y74462563D01*
X42154139Y74651903D01*
X42029246Y74823805D01*
X42029242Y74823810D01*
X41878983Y74974069D01*
X41878978Y74974073D01*
X41707074Y75098968D01*
X41698019Y75103582D01*
X41647225Y75151557D01*
X41630431Y75219379D01*
X41652970Y75285513D01*
X41698027Y75324552D01*
X41707335Y75329294D01*
X41787427Y75387484D01*
X41879305Y75454236D01*
X41879307Y75454239D01*
X41879311Y75454241D01*
X42029623Y75604553D01*
X42029625Y75604557D01*
X42029628Y75604559D01*
X42154567Y75776525D01*
X42154566Y75776525D01*
X42154570Y75776529D01*
X42251076Y75965933D01*
X42316765Y76168102D01*
X42350019Y76378058D01*
X42350019Y76590632D01*
X42316765Y76800588D01*
X42251076Y77002757D01*
X42154570Y77192161D01*
X42154568Y77192164D01*
X42154567Y77192166D01*
X42029628Y77364132D01*
X41916088Y77477672D01*
X41882603Y77538995D01*
X41887587Y77608687D01*
X41929459Y77664620D01*
X41960434Y77681535D01*
X42091850Y77730549D01*
X42207065Y77816799D01*
X42293315Y77932014D01*
X42343610Y78066862D01*
X42350019Y78126472D01*
X42350018Y79887210D01*
X48579019Y79887210D01*
X48579019Y78191475D01*
X48579020Y78191469D01*
X48585427Y78131862D01*
X48635721Y77997017D01*
X48635725Y77997010D01*
X48721971Y77881801D01*
X48721974Y77881798D01*
X48837183Y77795552D01*
X48837190Y77795548D01*
X48882137Y77778784D01*
X48972036Y77745254D01*
X49008960Y77741285D01*
X49073508Y77714549D01*
X49113357Y77657157D01*
X49115852Y77587332D01*
X49080200Y77527243D01*
X49068590Y77517679D01*
X49032303Y77491315D01*
X48887547Y77346559D01*
X48767234Y77180959D01*
X48674300Y76998569D01*
X48611041Y76803880D01*
X48579019Y76601697D01*
X48579019Y76396994D01*
X48611041Y76194811D01*
X48674300Y76000122D01*
X48767234Y75817732D01*
X48887547Y75652132D01*
X49032305Y75507374D01*
X49187268Y75394789D01*
X49197909Y75387058D01*
X49289359Y75340462D01*
X49290599Y75339830D01*
X49341395Y75291855D01*
X49358190Y75224034D01*
X49335653Y75157899D01*
X49290599Y75118860D01*
X49197905Y75071630D01*
X49032305Y74951317D01*
X48887547Y74806559D01*
X48767234Y74640959D01*
X48674300Y74458569D01*
X48611041Y74263880D01*
X48579019Y74061697D01*
X48579019Y73856994D01*
X48611041Y73654811D01*
X48674300Y73460122D01*
X48767234Y73277732D01*
X48887547Y73112132D01*
X49032305Y72967374D01*
X49187268Y72854789D01*
X49197909Y72847058D01*
X49269943Y72810355D01*
X49291148Y72799550D01*
X49341944Y72751575D01*
X49358739Y72683754D01*
X49336201Y72617619D01*
X49291148Y72578580D01*
X49198169Y72531205D01*
X49032624Y72410928D01*
X49032623Y72410928D01*
X48887936Y72266241D01*
X48887936Y72266240D01*
X48767659Y72100695D01*
X48674763Y71918375D01*
X48611528Y71723759D01*
X48602910Y71669345D01*
X49563833Y71669345D01*
X49559439Y71664951D01*
X49506778Y71573739D01*
X49479519Y71472006D01*
X49479519Y71366684D01*
X49506778Y71264951D01*
X49559439Y71173739D01*
X49563833Y71169345D01*
X48602910Y71169345D01*
X48611528Y71114932D01*
X48674763Y70920316D01*
X48767659Y70737996D01*
X48887936Y70572451D01*
X48887936Y70572450D01*
X49032623Y70427763D01*
X49198169Y70307486D01*
X49380487Y70214591D01*
X49575097Y70151357D01*
X49629519Y70142738D01*
X49629519Y71103659D01*
X49633913Y71099265D01*
X49725125Y71046604D01*
X49826858Y71019345D01*
X49932180Y71019345D01*
X50033913Y71046604D01*
X50125125Y71099265D01*
X50129519Y71103659D01*
X50129519Y70142739D01*
X50183940Y70151357D01*
X50378550Y70214591D01*
X50560868Y70307486D01*
X50726413Y70427763D01*
X50726414Y70427763D01*
X50871101Y70572450D01*
X50871101Y70572451D01*
X50991378Y70737996D01*
X51084274Y70920316D01*
X51147509Y71114932D01*
X51156128Y71169345D01*
X50195205Y71169345D01*
X50199599Y71173739D01*
X50252260Y71264951D01*
X50279519Y71366684D01*
X50279519Y71472006D01*
X50252260Y71573739D01*
X50199599Y71664951D01*
X50195205Y71669345D01*
X51156128Y71669345D01*
X51147509Y71723759D01*
X51084274Y71918375D01*
X50991378Y72100695D01*
X50871101Y72266240D01*
X50871101Y72266241D01*
X50726414Y72410928D01*
X50560868Y72531205D01*
X50467889Y72578580D01*
X50417093Y72626555D01*
X50400298Y72694376D01*
X50422835Y72760510D01*
X50467889Y72799550D01*
X50468439Y72799830D01*
X50561129Y72847058D01*
X50582289Y72862432D01*
X50726732Y72967374D01*
X50726734Y72967377D01*
X50726738Y72967379D01*
X50871485Y73112126D01*
X50871487Y73112130D01*
X50871490Y73112132D01*
X50924251Y73184755D01*
X50991806Y73277735D01*
X51084739Y73460126D01*
X51147996Y73654811D01*
X51180019Y73856993D01*
X51180019Y74061697D01*
X51147996Y74263880D01*
X51118646Y74354208D01*
X51084739Y74458564D01*
X51084737Y74458567D01*
X51084737Y74458569D01*
X51051022Y74524738D01*
X50991806Y74640955D01*
X50983852Y74651903D01*
X50871490Y74806559D01*
X50726732Y74951317D01*
X50561133Y75071630D01*
X50507479Y75098968D01*
X50468436Y75118862D01*
X50417642Y75166834D01*
X50400847Y75234655D01*
X50423384Y75300790D01*
X50468436Y75339829D01*
X50561129Y75387058D01*
X50582289Y75402432D01*
X50726732Y75507374D01*
X50726734Y75507377D01*
X50726738Y75507379D01*
X50871485Y75652126D01*
X50871487Y75652130D01*
X50871490Y75652132D01*
X50961868Y75776529D01*
X50991806Y75817735D01*
X51084739Y76000126D01*
X51147996Y76194811D01*
X51180019Y76396993D01*
X51180019Y76601697D01*
X51171776Y76653739D01*
X51147996Y76803880D01*
X51084737Y76998569D01*
X50991938Y77180695D01*
X50991806Y77180955D01*
X50983661Y77192166D01*
X50871490Y77346559D01*
X50726738Y77491311D01*
X50726732Y77491315D01*
X50690448Y77517677D01*
X50647783Y77573006D01*
X50641804Y77642619D01*
X50674409Y77704414D01*
X50735247Y77738772D01*
X50750081Y77741285D01*
X50787002Y77745254D01*
X50921847Y77795548D01*
X50921846Y77795548D01*
X50921850Y77795549D01*
X51037065Y77881799D01*
X51123315Y77997014D01*
X51173610Y78131862D01*
X51180019Y78191472D01*
X51180018Y79141697D01*
X56199019Y79141697D01*
X56199019Y78936994D01*
X56231041Y78734811D01*
X56294300Y78540122D01*
X56387234Y78357732D01*
X56507547Y78192132D01*
X56652305Y78047374D01*
X56807268Y77934789D01*
X56817909Y77927058D01*
X56889943Y77890355D01*
X56911148Y77879550D01*
X56961944Y77831575D01*
X56978739Y77763754D01*
X56956201Y77697619D01*
X56911148Y77658580D01*
X56818169Y77611205D01*
X56652624Y77490928D01*
X56652623Y77490928D01*
X56507936Y77346241D01*
X56507936Y77346240D01*
X56387659Y77180695D01*
X56294763Y76998375D01*
X56231528Y76803759D01*
X56222910Y76749345D01*
X57183833Y76749345D01*
X57179439Y76744951D01*
X57126778Y76653739D01*
X57099519Y76552006D01*
X57099519Y76446684D01*
X57126778Y76344951D01*
X57179439Y76253739D01*
X57183833Y76249345D01*
X56222910Y76249345D01*
X56231528Y76194932D01*
X56294763Y76000316D01*
X56387659Y75817996D01*
X56507936Y75652451D01*
X56507936Y75652450D01*
X56652623Y75507763D01*
X56818171Y75387484D01*
X56911147Y75340111D01*
X56961944Y75292137D01*
X56978739Y75224316D01*
X56956202Y75158181D01*
X56911149Y75119142D01*
X56817907Y75071632D01*
X56652305Y74951317D01*
X56507547Y74806559D01*
X56387234Y74640959D01*
X56294300Y74458569D01*
X56231041Y74263880D01*
X56199019Y74061697D01*
X56199019Y73856994D01*
X56231041Y73654811D01*
X56294300Y73460122D01*
X56387234Y73277732D01*
X56507547Y73112132D01*
X56652305Y72967374D01*
X56807268Y72854789D01*
X56817909Y72847058D01*
X56909359Y72800462D01*
X56910599Y72799830D01*
X56961395Y72751855D01*
X56978190Y72684034D01*
X56955653Y72617899D01*
X56910599Y72578860D01*
X56817905Y72531630D01*
X56652305Y72411317D01*
X56507547Y72266559D01*
X56387234Y72100959D01*
X56294300Y71918569D01*
X56231041Y71723880D01*
X56199019Y71521697D01*
X56199019Y71316994D01*
X56231041Y71114811D01*
X56294300Y70920122D01*
X56387234Y70737732D01*
X56507547Y70572132D01*
X56652305Y70427374D01*
X56807268Y70314789D01*
X56817909Y70307058D01*
X56934126Y70247842D01*
X57000295Y70214127D01*
X57000297Y70214127D01*
X57000300Y70214125D01*
X57104656Y70180218D01*
X57194984Y70150868D01*
X57296076Y70134857D01*
X57397167Y70118845D01*
X57397168Y70118845D01*
X57601870Y70118845D01*
X57601871Y70118845D01*
X57804053Y70150868D01*
X57998738Y70214125D01*
X58181129Y70307058D01*
X58308122Y70399323D01*
X58346732Y70427374D01*
X58346734Y70427377D01*
X58346738Y70427379D01*
X58491485Y70572126D01*
X58491487Y70572130D01*
X58491490Y70572132D01*
X58570228Y70680508D01*
X58611806Y70737735D01*
X58704739Y70920126D01*
X58767996Y71114811D01*
X58800019Y71316993D01*
X58800019Y71521697D01*
X58791776Y71573739D01*
X58767996Y71723880D01*
X58704737Y71918569D01*
X58611938Y72100695D01*
X58611806Y72100955D01*
X58604075Y72111596D01*
X58491490Y72266559D01*
X58346732Y72411317D01*
X58181133Y72531630D01*
X58174525Y72534997D01*
X58088436Y72578862D01*
X58037642Y72626834D01*
X58020847Y72694655D01*
X58043384Y72760790D01*
X58088436Y72799829D01*
X58181129Y72847058D01*
X58202289Y72862432D01*
X58346732Y72967374D01*
X58346734Y72967377D01*
X58346738Y72967379D01*
X58491485Y73112126D01*
X58491487Y73112130D01*
X58491490Y73112132D01*
X58544251Y73184755D01*
X58611806Y73277735D01*
X58704739Y73460126D01*
X58767996Y73654811D01*
X58800019Y73856993D01*
X58800019Y74061697D01*
X58767996Y74263880D01*
X58738646Y74354208D01*
X58704739Y74458564D01*
X58704737Y74458567D01*
X58704737Y74458569D01*
X58671022Y74524738D01*
X58611806Y74640955D01*
X58603852Y74651903D01*
X58491490Y74806559D01*
X58346732Y74951317D01*
X58181130Y75071632D01*
X58087888Y75119142D01*
X58037093Y75167116D01*
X58020298Y75234938D01*
X58042836Y75301072D01*
X58087890Y75340111D01*
X58180866Y75387484D01*
X58346413Y75507763D01*
X58346414Y75507763D01*
X58491101Y75652450D01*
X58491101Y75652451D01*
X58611378Y75817996D01*
X58704274Y76000316D01*
X58767509Y76194932D01*
X58776128Y76249345D01*
X57815205Y76249345D01*
X57819599Y76253739D01*
X57872260Y76344951D01*
X57899519Y76446684D01*
X57899519Y76552006D01*
X57872260Y76653739D01*
X57819599Y76744951D01*
X57815205Y76749345D01*
X58776128Y76749345D01*
X58767509Y76803759D01*
X58704274Y76998375D01*
X58611378Y77180695D01*
X58491101Y77346240D01*
X58491101Y77346241D01*
X58346414Y77490928D01*
X58180868Y77611205D01*
X58087889Y77658580D01*
X58037093Y77706555D01*
X58020298Y77774376D01*
X58042835Y77840510D01*
X58087889Y77879550D01*
X58092307Y77881801D01*
X58181129Y77927058D01*
X58202289Y77942432D01*
X58346732Y78047374D01*
X58346734Y78047377D01*
X58346738Y78047379D01*
X58491485Y78192126D01*
X58491487Y78192130D01*
X58491490Y78192132D01*
X58544251Y78264755D01*
X58611806Y78357735D01*
X58704739Y78540126D01*
X58767996Y78734811D01*
X58800019Y78936993D01*
X58800019Y79141697D01*
X58767996Y79343879D01*
X58704739Y79538564D01*
X58704737Y79538567D01*
X58704737Y79538569D01*
X58671022Y79604738D01*
X58611806Y79720955D01*
X58604075Y79731596D01*
X58491490Y79886559D01*
X58346732Y80031317D01*
X58181132Y80151630D01*
X58181131Y80151631D01*
X58181129Y80151632D01*
X58124172Y80180654D01*
X57998742Y80244564D01*
X57804053Y80307823D01*
X57629514Y80335467D01*
X57601871Y80339845D01*
X57397167Y80339845D01*
X57372848Y80335994D01*
X57194984Y80307823D01*
X57000295Y80244564D01*
X56817905Y80151630D01*
X56652305Y80031317D01*
X56507547Y79886559D01*
X56387234Y79720959D01*
X56294300Y79538569D01*
X56231041Y79343880D01*
X56199019Y79141697D01*
X51180018Y79141697D01*
X51180018Y79887217D01*
X51173610Y79946828D01*
X51160555Y79981829D01*
X51123316Y80081674D01*
X51123312Y80081681D01*
X51037066Y80196890D01*
X51037063Y80196893D01*
X50921854Y80283139D01*
X50921847Y80283143D01*
X50787001Y80333437D01*
X50787002Y80333437D01*
X50727402Y80339844D01*
X50727400Y80339845D01*
X50727392Y80339845D01*
X50727383Y80339845D01*
X49031648Y80339845D01*
X49031642Y80339844D01*
X48972035Y80333437D01*
X48837190Y80283143D01*
X48837183Y80283139D01*
X48721974Y80196893D01*
X48721971Y80196890D01*
X48635725Y80081681D01*
X48635721Y80081674D01*
X48585427Y79946828D01*
X48582781Y79922210D01*
X48579020Y79887222D01*
X48579019Y79887210D01*
X42350018Y79887210D01*
X42350018Y79922217D01*
X42343610Y79981828D01*
X42306367Y80081681D01*
X42293316Y80116674D01*
X42293312Y80116681D01*
X42207066Y80231890D01*
X42207063Y80231893D01*
X42091854Y80318139D01*
X42091847Y80318143D01*
X41957001Y80368437D01*
X41957002Y80368437D01*
X41897402Y80374844D01*
X41897400Y80374845D01*
X41897392Y80374845D01*
X41897383Y80374845D01*
X40101648Y80374845D01*
X40101642Y80374844D01*
X40042035Y80368437D01*
X39907190Y80318143D01*
X39907183Y80318139D01*
X39791974Y80231893D01*
X39791971Y80231890D01*
X39705725Y80116681D01*
X39705721Y80116674D01*
X39655427Y79981828D01*
X39649020Y79922229D01*
X39649020Y79922222D01*
X39649019Y79922210D01*
X37500019Y79922210D01*
X37500019Y83374845D01*
X37519704Y83441884D01*
X37572508Y83487639D01*
X37624019Y83498845D01*
X61375019Y83498845D01*
X61442058Y83479160D01*
G37*
G04 #@! TD.AperFunction*
G04 #@! TD*
G04 #@! TA.AperFunction,Conductor*
G04 #@! TO.N,Board_2-GND*
G36*
X31442058Y42479160D02*
G01*
X31487813Y42426356D01*
X31499019Y42374845D01*
X31499019Y7623845D01*
X31479334Y7556806D01*
X31426530Y7511051D01*
X31375019Y7499845D01*
X7624019Y7499845D01*
X7556980Y7519530D01*
X7511225Y7572334D01*
X7500019Y7623845D01*
X7500019Y16422210D01*
X9649019Y16422210D01*
X9649019Y14626475D01*
X9649020Y14626469D01*
X9655427Y14566862D01*
X9705721Y14432017D01*
X9705725Y14432010D01*
X9791971Y14316801D01*
X9791974Y14316798D01*
X9907183Y14230552D01*
X9907190Y14230548D01*
X10038601Y14181535D01*
X10094535Y14139664D01*
X10118952Y14074200D01*
X10104101Y14005927D01*
X10082950Y13977672D01*
X9969408Y13864130D01*
X9844470Y13692166D01*
X9747963Y13502760D01*
X9682272Y13300585D01*
X9649019Y13090632D01*
X9649019Y12878059D01*
X9682272Y12668106D01*
X9747963Y12465931D01*
X9844470Y12276525D01*
X9969409Y12104559D01*
X10119732Y11954236D01*
X10291698Y11829297D01*
X10291700Y11829296D01*
X10291703Y11829294D01*
X10301012Y11824551D01*
X10351809Y11776579D01*
X10368606Y11708758D01*
X10346071Y11642623D01*
X10301021Y11603583D01*
X10291962Y11598967D01*
X10120059Y11474073D01*
X10120054Y11474069D01*
X9969795Y11323810D01*
X9969791Y11323805D01*
X9844898Y11151903D01*
X9748423Y10962563D01*
X9682761Y10760475D01*
X9682761Y10760472D01*
X9672288Y10694345D01*
X10566507Y10694345D01*
X10533594Y10637338D01*
X10499519Y10510171D01*
X10499519Y10378519D01*
X10533594Y10251352D01*
X10566507Y10194345D01*
X9672288Y10194345D01*
X9682761Y10128219D01*
X9682761Y10128216D01*
X9748423Y9926128D01*
X9844898Y9736788D01*
X9969791Y9564886D01*
X9969795Y9564881D01*
X10120054Y9414622D01*
X10120059Y9414618D01*
X10291961Y9289725D01*
X10481301Y9193250D01*
X10683390Y9127588D01*
X10749519Y9117114D01*
X10749519Y10011333D01*
X10806526Y9978420D01*
X10933693Y9944345D01*
X11065345Y9944345D01*
X11192512Y9978420D01*
X11249519Y10011333D01*
X11249519Y9117115D01*
X11315645Y9127588D01*
X11315648Y9127588D01*
X11517736Y9193250D01*
X11707076Y9289725D01*
X11878978Y9414618D01*
X11878983Y9414622D01*
X12029242Y9564881D01*
X12029246Y9564886D01*
X12154142Y9736792D01*
X12154143Y9736793D01*
X12208106Y9842699D01*
X12208108Y9842704D01*
X12250614Y9926128D01*
X12316276Y10128216D01*
X12316277Y10128221D01*
X12326750Y10194345D01*
X11432531Y10194345D01*
X11464285Y10249345D01*
X19552288Y10249345D01*
X20446507Y10249345D01*
X20413594Y10192338D01*
X20379519Y10065171D01*
X20379519Y9933519D01*
X20413594Y9806352D01*
X20446507Y9749345D01*
X19552288Y9749345D01*
X19562761Y9683219D01*
X19562761Y9683216D01*
X19628423Y9481128D01*
X19724898Y9291788D01*
X19849791Y9119886D01*
X19849795Y9119881D01*
X20000054Y8969622D01*
X20000059Y8969618D01*
X20171961Y8844725D01*
X20361301Y8748250D01*
X20563390Y8682588D01*
X20629519Y8672114D01*
X20629519Y9566333D01*
X20686526Y9533420D01*
X20813693Y9499345D01*
X20945345Y9499345D01*
X21072512Y9533420D01*
X21129519Y9566333D01*
X21129519Y8672115D01*
X21195645Y8682588D01*
X21195648Y8682588D01*
X21397736Y8748250D01*
X21587076Y8844725D01*
X21758978Y8969618D01*
X21758983Y8969622D01*
X21909242Y9119881D01*
X21909246Y9119886D01*
X22034139Y9291787D01*
X22038751Y9300838D01*
X22086724Y9351636D01*
X22154544Y9368433D01*
X22220680Y9345898D01*
X22259723Y9300841D01*
X22264468Y9291528D01*
X22389409Y9119559D01*
X22539732Y8969236D01*
X22711698Y8844297D01*
X22711700Y8844296D01*
X22711703Y8844294D01*
X22901107Y8747788D01*
X23103276Y8682099D01*
X23313232Y8648845D01*
X23313233Y8648845D01*
X23525805Y8648845D01*
X23525806Y8648845D01*
X23735762Y8682099D01*
X23937931Y8747788D01*
X24127335Y8844294D01*
X24213657Y8907010D01*
X24299305Y8969236D01*
X24299307Y8969239D01*
X24299311Y8969241D01*
X24449623Y9119553D01*
X24449625Y9119557D01*
X24449628Y9119559D01*
X24574567Y9291525D01*
X24574569Y9291528D01*
X24574570Y9291529D01*
X24579033Y9300291D01*
X24627007Y9351086D01*
X24694827Y9367882D01*
X24760963Y9345346D01*
X24800005Y9300289D01*
X24804470Y9291525D01*
X24929409Y9119559D01*
X25079732Y8969236D01*
X25251698Y8844297D01*
X25251700Y8844296D01*
X25251703Y8844294D01*
X25441107Y8747788D01*
X25643276Y8682099D01*
X25853232Y8648845D01*
X25853233Y8648845D01*
X26065805Y8648845D01*
X26065806Y8648845D01*
X26275762Y8682099D01*
X26477931Y8747788D01*
X26667335Y8844294D01*
X26839311Y8969241D01*
X26952848Y9082779D01*
X27014167Y9116261D01*
X27083859Y9111277D01*
X27139793Y9069406D01*
X27156708Y9038428D01*
X27205721Y8907017D01*
X27205725Y8907010D01*
X27291971Y8791801D01*
X27291974Y8791798D01*
X27407183Y8705552D01*
X27407190Y8705548D01*
X27542036Y8655254D01*
X27542035Y8655254D01*
X27548963Y8654510D01*
X27601646Y8648845D01*
X29397391Y8648846D01*
X29457002Y8655254D01*
X29591850Y8705549D01*
X29707065Y8791799D01*
X29793315Y8907014D01*
X29843610Y9041862D01*
X29850019Y9101472D01*
X29850018Y10897217D01*
X29843610Y10956828D01*
X29842329Y10960262D01*
X29793316Y11091674D01*
X29793312Y11091681D01*
X29707066Y11206890D01*
X29707063Y11206893D01*
X29591854Y11293139D01*
X29591847Y11293143D01*
X29457001Y11343437D01*
X29457002Y11343437D01*
X29397402Y11349844D01*
X29397400Y11349845D01*
X29397392Y11349845D01*
X29397383Y11349845D01*
X27601648Y11349845D01*
X27601642Y11349844D01*
X27542035Y11343437D01*
X27407190Y11293143D01*
X27407183Y11293139D01*
X27291974Y11206893D01*
X27291971Y11206890D01*
X27205725Y11091681D01*
X27205722Y11091676D01*
X27156708Y10960262D01*
X27114836Y10904329D01*
X27049372Y10879912D01*
X26981099Y10894764D01*
X26952845Y10915915D01*
X26839305Y11029455D01*
X26667339Y11154394D01*
X26477933Y11250901D01*
X26477932Y11250902D01*
X26477931Y11250902D01*
X26275762Y11316591D01*
X26275760Y11316592D01*
X26275759Y11316592D01*
X26114476Y11342137D01*
X26065806Y11349845D01*
X25853232Y11349845D01*
X25804561Y11342137D01*
X25643279Y11316592D01*
X25441104Y11250901D01*
X25251698Y11154394D01*
X25079732Y11029455D01*
X24929409Y10879132D01*
X24804468Y10707163D01*
X24800003Y10698399D01*
X24752028Y10647603D01*
X24684207Y10630809D01*
X24618072Y10653347D01*
X24579035Y10698399D01*
X24574569Y10707163D01*
X24449628Y10879132D01*
X24299305Y11029455D01*
X24127339Y11154394D01*
X23937933Y11250901D01*
X23937932Y11250902D01*
X23937931Y11250902D01*
X23735762Y11316591D01*
X23735760Y11316592D01*
X23735759Y11316592D01*
X23574476Y11342137D01*
X23525806Y11349845D01*
X23313232Y11349845D01*
X23264561Y11342137D01*
X23103279Y11316592D01*
X22901104Y11250901D01*
X22711698Y11154394D01*
X22539732Y11029455D01*
X22389409Y10879132D01*
X22264468Y10707163D01*
X22259721Y10697846D01*
X22211746Y10647052D01*
X22143924Y10630258D01*
X22077790Y10652797D01*
X22038753Y10697850D01*
X22034141Y10706901D01*
X21909246Y10878805D01*
X21909242Y10878810D01*
X21758983Y11029069D01*
X21758978Y11029073D01*
X21587076Y11153966D01*
X21397734Y11250442D01*
X21195643Y11316104D01*
X21129519Y11326577D01*
X21129519Y10432357D01*
X21072512Y10465270D01*
X20945345Y10499345D01*
X20813693Y10499345D01*
X20686526Y10465270D01*
X20629519Y10432357D01*
X20629519Y11326577D01*
X20629518Y11326577D01*
X20563394Y11316104D01*
X20361303Y11250442D01*
X20171961Y11153966D01*
X20000059Y11029073D01*
X20000054Y11029069D01*
X19849795Y10878810D01*
X19849791Y10878805D01*
X19724898Y10706903D01*
X19628423Y10517563D01*
X19562761Y10315475D01*
X19562761Y10315472D01*
X19552288Y10249345D01*
X11464285Y10249345D01*
X11465444Y10251352D01*
X11499519Y10378519D01*
X11499519Y10510171D01*
X11465444Y10637338D01*
X11432531Y10694345D01*
X12326750Y10694345D01*
X12316276Y10760472D01*
X12316276Y10760475D01*
X12250614Y10962563D01*
X12154139Y11151903D01*
X12029246Y11323805D01*
X12029242Y11323810D01*
X11878983Y11474069D01*
X11878978Y11474073D01*
X11707074Y11598968D01*
X11698019Y11603582D01*
X11647225Y11651557D01*
X11630431Y11719379D01*
X11652970Y11785513D01*
X11698027Y11824552D01*
X11707335Y11829294D01*
X11786526Y11886830D01*
X11879305Y11954236D01*
X11879307Y11954239D01*
X11879311Y11954241D01*
X12029623Y12104553D01*
X12029625Y12104557D01*
X12029628Y12104559D01*
X12154567Y12276525D01*
X12154566Y12276525D01*
X12154570Y12276529D01*
X12251076Y12465933D01*
X12316765Y12668102D01*
X12350019Y12878058D01*
X12350019Y13090632D01*
X12316765Y13300588D01*
X12251076Y13502757D01*
X12154570Y13692161D01*
X12154568Y13692164D01*
X12154567Y13692166D01*
X12029628Y13864132D01*
X11916088Y13977672D01*
X11882603Y14038995D01*
X11887587Y14108687D01*
X11929459Y14164620D01*
X11960434Y14181535D01*
X12091850Y14230549D01*
X12207065Y14316799D01*
X12293315Y14432014D01*
X12343610Y14566862D01*
X12350019Y14626472D01*
X12350018Y16422217D01*
X12343610Y16481828D01*
X12298902Y16601697D01*
X19579019Y16601697D01*
X19579019Y16396994D01*
X19611041Y16194811D01*
X19674300Y16000122D01*
X19767234Y15817732D01*
X19887547Y15652132D01*
X20032305Y15507374D01*
X20187268Y15394789D01*
X20197909Y15387058D01*
X20314126Y15327842D01*
X20380295Y15294127D01*
X20380297Y15294127D01*
X20380300Y15294125D01*
X20484656Y15260218D01*
X20574984Y15230868D01*
X20676076Y15214857D01*
X20777167Y15198845D01*
X20777168Y15198845D01*
X20981870Y15198845D01*
X20981871Y15198845D01*
X21184053Y15230868D01*
X21378738Y15294125D01*
X21561129Y15387058D01*
X21654109Y15454613D01*
X21726732Y15507374D01*
X21726734Y15507377D01*
X21726738Y15507379D01*
X21871485Y15652126D01*
X21871487Y15652130D01*
X21871490Y15652132D01*
X21924251Y15724755D01*
X21991806Y15817735D01*
X22084739Y16000126D01*
X22147996Y16194811D01*
X22180019Y16396993D01*
X22180019Y16601697D01*
X27199019Y16601697D01*
X27199019Y16396994D01*
X27231041Y16194811D01*
X27294300Y16000122D01*
X27387234Y15817732D01*
X27507547Y15652132D01*
X27652305Y15507374D01*
X27807268Y15394789D01*
X27817909Y15387058D01*
X27934126Y15327842D01*
X28000295Y15294127D01*
X28000297Y15294127D01*
X28000300Y15294125D01*
X28104656Y15260218D01*
X28194984Y15230868D01*
X28296076Y15214857D01*
X28397167Y15198845D01*
X28397168Y15198845D01*
X28601870Y15198845D01*
X28601871Y15198845D01*
X28804053Y15230868D01*
X28998738Y15294125D01*
X29181129Y15387058D01*
X29274109Y15454613D01*
X29346732Y15507374D01*
X29346734Y15507377D01*
X29346738Y15507379D01*
X29491485Y15652126D01*
X29491487Y15652130D01*
X29491490Y15652132D01*
X29544251Y15724755D01*
X29611806Y15817735D01*
X29704739Y16000126D01*
X29767996Y16194811D01*
X29800019Y16396993D01*
X29800019Y16601697D01*
X29767996Y16803879D01*
X29763361Y16818143D01*
X29704737Y16998569D01*
X29671022Y17064738D01*
X29611806Y17180955D01*
X29604075Y17191596D01*
X29491490Y17346559D01*
X29346732Y17491317D01*
X29181132Y17611630D01*
X29181131Y17611631D01*
X29181129Y17611632D01*
X29124172Y17640654D01*
X28998742Y17704564D01*
X28804053Y17767823D01*
X28629514Y17795467D01*
X28601871Y17799845D01*
X28397167Y17799845D01*
X28372848Y17795994D01*
X28194984Y17767823D01*
X28000295Y17704564D01*
X27817905Y17611630D01*
X27652305Y17491317D01*
X27507547Y17346559D01*
X27387234Y17180959D01*
X27294300Y16998569D01*
X27231041Y16803880D01*
X27199019Y16601697D01*
X22180019Y16601697D01*
X22147996Y16803879D01*
X22143361Y16818143D01*
X22084737Y16998569D01*
X22051022Y17064738D01*
X21991806Y17180955D01*
X21984075Y17191596D01*
X21871490Y17346559D01*
X21726732Y17491317D01*
X21561132Y17611630D01*
X21561131Y17611631D01*
X21561129Y17611632D01*
X21504172Y17640654D01*
X21378742Y17704564D01*
X21184053Y17767823D01*
X21009514Y17795467D01*
X20981871Y17799845D01*
X20777167Y17799845D01*
X20752848Y17795994D01*
X20574984Y17767823D01*
X20380295Y17704564D01*
X20197905Y17611630D01*
X20032305Y17491317D01*
X19887547Y17346559D01*
X19767234Y17180959D01*
X19674300Y16998569D01*
X19611041Y16803880D01*
X19579019Y16601697D01*
X12298902Y16601697D01*
X12293315Y16616676D01*
X12293314Y16616677D01*
X12293312Y16616681D01*
X12207066Y16731890D01*
X12207063Y16731893D01*
X12091854Y16818139D01*
X12091847Y16818143D01*
X11957001Y16868437D01*
X11957002Y16868437D01*
X11897402Y16874844D01*
X11897400Y16874845D01*
X11897392Y16874845D01*
X11897383Y16874845D01*
X10101648Y16874845D01*
X10101642Y16874844D01*
X10042035Y16868437D01*
X9907190Y16818143D01*
X9907183Y16818139D01*
X9791974Y16731893D01*
X9791971Y16731890D01*
X9705725Y16616681D01*
X9705721Y16616674D01*
X9655427Y16481828D01*
X9649020Y16422229D01*
X9649020Y16422222D01*
X9649019Y16422210D01*
X7500019Y16422210D01*
X7500019Y27437210D01*
X9649019Y27437210D01*
X9649019Y25641475D01*
X9649020Y25641469D01*
X9655427Y25581862D01*
X9705721Y25447017D01*
X9705725Y25447010D01*
X9791971Y25331801D01*
X9791974Y25331798D01*
X9907183Y25245552D01*
X9907190Y25245548D01*
X10038601Y25196535D01*
X10094535Y25154664D01*
X10118952Y25089200D01*
X10104101Y25020927D01*
X10082950Y24992672D01*
X9969408Y24879130D01*
X9844470Y24707166D01*
X9747963Y24517760D01*
X9682272Y24315585D01*
X9649019Y24105632D01*
X9649019Y23893059D01*
X9682272Y23683106D01*
X9747963Y23480931D01*
X9844470Y23291525D01*
X9969409Y23119559D01*
X10119732Y22969236D01*
X10291698Y22844297D01*
X10291700Y22844296D01*
X10291703Y22844294D01*
X10301012Y22839551D01*
X10351809Y22791579D01*
X10368606Y22723758D01*
X10346071Y22657623D01*
X10301021Y22618583D01*
X10291962Y22613967D01*
X10120059Y22489073D01*
X10120054Y22489069D01*
X9969795Y22338810D01*
X9969791Y22338805D01*
X9844898Y22166903D01*
X9748423Y21977563D01*
X9682761Y21775475D01*
X9682761Y21775472D01*
X9672288Y21709345D01*
X10566507Y21709345D01*
X10533594Y21652338D01*
X10499519Y21525171D01*
X10499519Y21393519D01*
X10533594Y21266352D01*
X10566507Y21209345D01*
X9672288Y21209345D01*
X9682761Y21143219D01*
X9682761Y21143216D01*
X9748423Y20941128D01*
X9844898Y20751788D01*
X9969791Y20579886D01*
X9969795Y20579881D01*
X10120054Y20429622D01*
X10120059Y20429618D01*
X10291961Y20304725D01*
X10481301Y20208250D01*
X10683390Y20142588D01*
X10749519Y20132114D01*
X10749519Y21026333D01*
X10806526Y20993420D01*
X10933693Y20959345D01*
X11065345Y20959345D01*
X11192512Y20993420D01*
X11249519Y21026333D01*
X11249519Y20132115D01*
X11315645Y20142588D01*
X11315648Y20142588D01*
X11517736Y20208250D01*
X11707076Y20304725D01*
X11878978Y20429618D01*
X11878983Y20429622D01*
X12029242Y20579881D01*
X12029246Y20579886D01*
X12154139Y20751788D01*
X12250614Y20941128D01*
X12316276Y21143216D01*
X12316276Y21143219D01*
X12326750Y21209345D01*
X11432531Y21209345D01*
X11465444Y21266352D01*
X11499519Y21393519D01*
X11499519Y21525171D01*
X11465444Y21652338D01*
X11432531Y21709345D01*
X12326750Y21709345D01*
X12316276Y21775472D01*
X12316276Y21775475D01*
X12250614Y21977563D01*
X12154139Y22166903D01*
X12029246Y22338805D01*
X12029242Y22338810D01*
X11878983Y22489069D01*
X11856051Y22505730D01*
X11719810Y22601697D01*
X19579019Y22601697D01*
X19579019Y22396994D01*
X19611041Y22194811D01*
X19674300Y22000122D01*
X19767234Y21817732D01*
X19887547Y21652132D01*
X20032305Y21507374D01*
X20119607Y21443947D01*
X20197909Y21387058D01*
X20314126Y21327842D01*
X20380295Y21294127D01*
X20380297Y21294127D01*
X20380300Y21294125D01*
X20484656Y21260218D01*
X20574984Y21230868D01*
X20676076Y21214857D01*
X20777167Y21198845D01*
X20777168Y21198845D01*
X20981870Y21198845D01*
X20981871Y21198845D01*
X21184053Y21230868D01*
X21378738Y21294125D01*
X21561129Y21387058D01*
X21663106Y21461148D01*
X21726732Y21507374D01*
X21726734Y21507377D01*
X21726738Y21507379D01*
X21871485Y21652126D01*
X21871487Y21652130D01*
X21871490Y21652132D01*
X21961100Y21775472D01*
X21991806Y21817735D01*
X22084739Y22000126D01*
X22147996Y22194811D01*
X22180019Y22396993D01*
X22180019Y22601697D01*
X27199019Y22601697D01*
X27199019Y22396994D01*
X27231041Y22194811D01*
X27294300Y22000122D01*
X27387234Y21817732D01*
X27507547Y21652132D01*
X27652305Y21507374D01*
X27739607Y21443947D01*
X27817909Y21387058D01*
X27934126Y21327842D01*
X28000295Y21294127D01*
X28000297Y21294127D01*
X28000300Y21294125D01*
X28104656Y21260218D01*
X28194984Y21230868D01*
X28296076Y21214857D01*
X28397167Y21198845D01*
X28397168Y21198845D01*
X28601870Y21198845D01*
X28601871Y21198845D01*
X28804053Y21230868D01*
X28998738Y21294125D01*
X29181129Y21387058D01*
X29283106Y21461148D01*
X29346732Y21507374D01*
X29346734Y21507377D01*
X29346738Y21507379D01*
X29491485Y21652126D01*
X29491487Y21652130D01*
X29491490Y21652132D01*
X29581100Y21775472D01*
X29611806Y21817735D01*
X29704739Y22000126D01*
X29767996Y22194811D01*
X29800019Y22396993D01*
X29800019Y22601697D01*
X29767996Y22803879D01*
X29764651Y22814173D01*
X29714268Y22969236D01*
X29704739Y22998564D01*
X29704737Y22998567D01*
X29704737Y22998569D01*
X29671022Y23064738D01*
X29611806Y23180955D01*
X29604075Y23191596D01*
X29491490Y23346559D01*
X29346732Y23491317D01*
X29181132Y23611630D01*
X29181131Y23611631D01*
X29181129Y23611632D01*
X29124172Y23640654D01*
X28998742Y23704564D01*
X28804053Y23767823D01*
X28629514Y23795467D01*
X28601871Y23799845D01*
X28397167Y23799845D01*
X28372848Y23795994D01*
X28194984Y23767823D01*
X28000295Y23704564D01*
X27817905Y23611630D01*
X27652305Y23491317D01*
X27507547Y23346559D01*
X27387234Y23180959D01*
X27294300Y22998569D01*
X27231041Y22803880D01*
X27199019Y22601697D01*
X22180019Y22601697D01*
X22147996Y22803879D01*
X22144651Y22814173D01*
X22094268Y22969236D01*
X22084739Y22998564D01*
X22084737Y22998567D01*
X22084737Y22998569D01*
X22051022Y23064738D01*
X21991806Y23180955D01*
X21984075Y23191596D01*
X21871490Y23346559D01*
X21726732Y23491317D01*
X21561132Y23611630D01*
X21561131Y23611631D01*
X21561129Y23611632D01*
X21504172Y23640654D01*
X21378742Y23704564D01*
X21184053Y23767823D01*
X21009514Y23795467D01*
X20981871Y23799845D01*
X20777167Y23799845D01*
X20752848Y23795994D01*
X20574984Y23767823D01*
X20380295Y23704564D01*
X20197905Y23611630D01*
X20032305Y23491317D01*
X19887547Y23346559D01*
X19767234Y23180959D01*
X19674300Y22998569D01*
X19611041Y22803880D01*
X19579019Y22601697D01*
X11719810Y22601697D01*
X11682909Y22627690D01*
X11666452Y22648397D01*
X11647225Y22666557D01*
X11645055Y22675320D01*
X11639437Y22682389D01*
X11636787Y22708709D01*
X11630431Y22734379D01*
X11633343Y22742925D01*
X11632439Y22751907D01*
X11644437Y22775478D01*
X11652970Y22800513D01*
X11660506Y22807043D01*
X11664136Y22814173D01*
X11678258Y22822424D01*
X11698027Y22839552D01*
X11707335Y22844294D01*
X11786526Y22901830D01*
X11879305Y22969236D01*
X11879307Y22969239D01*
X11879311Y22969241D01*
X12029623Y23119553D01*
X12029625Y23119557D01*
X12029628Y23119559D01*
X12154567Y23291525D01*
X12154566Y23291525D01*
X12154570Y23291529D01*
X12251076Y23480933D01*
X12316765Y23683102D01*
X12350019Y23893058D01*
X12350019Y24105632D01*
X12316765Y24315588D01*
X12251076Y24517757D01*
X12154570Y24707161D01*
X12154568Y24707164D01*
X12154567Y24707166D01*
X12029628Y24879132D01*
X11916088Y24992672D01*
X11882603Y25053995D01*
X11887587Y25123687D01*
X11929459Y25179620D01*
X11960434Y25196535D01*
X12091850Y25245549D01*
X12207065Y25331799D01*
X12293315Y25447014D01*
X12343610Y25581862D01*
X12350019Y25641472D01*
X12350018Y27437217D01*
X12343610Y27496828D01*
X12293315Y27631676D01*
X12293314Y27631677D01*
X12293312Y27631681D01*
X12207066Y27746890D01*
X12207063Y27746893D01*
X12091854Y27833139D01*
X12091847Y27833143D01*
X11957001Y27883437D01*
X11957002Y27883437D01*
X11897402Y27889844D01*
X11897400Y27889845D01*
X11897392Y27889845D01*
X11897383Y27889845D01*
X10101648Y27889845D01*
X10101642Y27889844D01*
X10042035Y27883437D01*
X9907190Y27833143D01*
X9907183Y27833139D01*
X9791974Y27746893D01*
X9791971Y27746890D01*
X9705725Y27631681D01*
X9705721Y27631674D01*
X9655427Y27496828D01*
X9649020Y27437229D01*
X9649020Y27437222D01*
X9649019Y27437210D01*
X7500019Y27437210D01*
X7500019Y38922210D01*
X9649019Y38922210D01*
X9649019Y37126475D01*
X9649020Y37126469D01*
X9655427Y37066862D01*
X9705721Y36932017D01*
X9705725Y36932010D01*
X9791971Y36816801D01*
X9791974Y36816798D01*
X9907183Y36730552D01*
X9907190Y36730548D01*
X10038601Y36681535D01*
X10094535Y36639664D01*
X10118952Y36574200D01*
X10104101Y36505927D01*
X10082950Y36477672D01*
X9969408Y36364130D01*
X9844470Y36192166D01*
X9747963Y36002760D01*
X9682272Y35800585D01*
X9649019Y35590632D01*
X9649019Y35378059D01*
X9678042Y35194811D01*
X9682273Y35168102D01*
X9736853Y35000122D01*
X9747963Y34965931D01*
X9844470Y34776525D01*
X9969409Y34604559D01*
X10119732Y34454236D01*
X10291698Y34329297D01*
X10291700Y34329296D01*
X10291703Y34329294D01*
X10301012Y34324551D01*
X10351809Y34276579D01*
X10368606Y34208758D01*
X10346071Y34142623D01*
X10301021Y34103583D01*
X10291962Y34098967D01*
X10120059Y33974073D01*
X10120054Y33974069D01*
X9969795Y33823810D01*
X9969791Y33823805D01*
X9844898Y33651903D01*
X9748423Y33462563D01*
X9682761Y33260475D01*
X9682761Y33260472D01*
X9672288Y33194345D01*
X10566507Y33194345D01*
X10533594Y33137338D01*
X10499519Y33010171D01*
X10499519Y32878519D01*
X10533594Y32751352D01*
X10566507Y32694345D01*
X9672288Y32694345D01*
X9682761Y32628219D01*
X9682761Y32628216D01*
X9748423Y32426128D01*
X9844898Y32236788D01*
X9969791Y32064886D01*
X9969795Y32064881D01*
X10120054Y31914622D01*
X10120059Y31914618D01*
X10291961Y31789725D01*
X10481301Y31693250D01*
X10683390Y31627588D01*
X10749519Y31617114D01*
X10749519Y32511333D01*
X10806526Y32478420D01*
X10933693Y32444345D01*
X11065345Y32444345D01*
X11192512Y32478420D01*
X11249519Y32511333D01*
X11249519Y31617115D01*
X11315645Y31627588D01*
X11315648Y31627588D01*
X11517736Y31693250D01*
X11707076Y31789725D01*
X11878978Y31914618D01*
X11878983Y31914622D01*
X12029242Y32064881D01*
X12029246Y32064886D01*
X12154139Y32236788D01*
X12250614Y32426128D01*
X12316276Y32628216D01*
X12316276Y32628219D01*
X12326750Y32694345D01*
X11432531Y32694345D01*
X11465444Y32751352D01*
X11499519Y32878519D01*
X11499519Y33010171D01*
X11465444Y33137338D01*
X11432531Y33194345D01*
X12326750Y33194345D01*
X12316276Y33260472D01*
X12316276Y33260475D01*
X12250614Y33462563D01*
X12154139Y33651903D01*
X12029246Y33823805D01*
X12029242Y33823810D01*
X11878983Y33974069D01*
X11878978Y33974073D01*
X11707074Y34098968D01*
X11698019Y34103582D01*
X11647225Y34151557D01*
X11630431Y34219379D01*
X11652970Y34285513D01*
X11698027Y34324552D01*
X11707335Y34329294D01*
X11787427Y34387484D01*
X11879305Y34454236D01*
X11879307Y34454239D01*
X11879311Y34454241D01*
X12029623Y34604553D01*
X12029625Y34604557D01*
X12029628Y34604559D01*
X12154567Y34776525D01*
X12154566Y34776525D01*
X12154570Y34776529D01*
X12251076Y34965933D01*
X12316765Y35168102D01*
X12350019Y35378058D01*
X12350019Y35590632D01*
X12316765Y35800588D01*
X12251076Y36002757D01*
X12154570Y36192161D01*
X12154568Y36192164D01*
X12154567Y36192166D01*
X12029628Y36364132D01*
X11916088Y36477672D01*
X11882603Y36538995D01*
X11887587Y36608687D01*
X11929459Y36664620D01*
X11960434Y36681535D01*
X12091850Y36730549D01*
X12207065Y36816799D01*
X12293315Y36932014D01*
X12343610Y37066862D01*
X12350019Y37126472D01*
X12350018Y38887210D01*
X18579019Y38887210D01*
X18579019Y37191475D01*
X18579020Y37191469D01*
X18585427Y37131862D01*
X18635721Y36997017D01*
X18635725Y36997010D01*
X18721971Y36881801D01*
X18721974Y36881798D01*
X18837183Y36795552D01*
X18837190Y36795548D01*
X18882137Y36778784D01*
X18972036Y36745254D01*
X19008960Y36741285D01*
X19073508Y36714549D01*
X19113357Y36657157D01*
X19115852Y36587332D01*
X19080200Y36527243D01*
X19068590Y36517679D01*
X19032303Y36491315D01*
X18887547Y36346559D01*
X18767234Y36180959D01*
X18674300Y35998569D01*
X18611041Y35803880D01*
X18579019Y35601697D01*
X18579019Y35396994D01*
X18611041Y35194811D01*
X18674300Y35000122D01*
X18767234Y34817732D01*
X18887547Y34652132D01*
X19032305Y34507374D01*
X19187268Y34394789D01*
X19197909Y34387058D01*
X19289359Y34340462D01*
X19290599Y34339830D01*
X19341395Y34291855D01*
X19358190Y34224034D01*
X19335653Y34157899D01*
X19290599Y34118860D01*
X19197905Y34071630D01*
X19032305Y33951317D01*
X18887547Y33806559D01*
X18767234Y33640959D01*
X18674300Y33458569D01*
X18611041Y33263880D01*
X18579019Y33061697D01*
X18579019Y32856994D01*
X18611041Y32654811D01*
X18674300Y32460122D01*
X18767234Y32277732D01*
X18887547Y32112132D01*
X19032305Y31967374D01*
X19187268Y31854789D01*
X19197909Y31847058D01*
X19269943Y31810355D01*
X19291148Y31799550D01*
X19341944Y31751575D01*
X19358739Y31683754D01*
X19336201Y31617619D01*
X19291148Y31578580D01*
X19198169Y31531205D01*
X19032624Y31410928D01*
X19032623Y31410928D01*
X18887936Y31266241D01*
X18887936Y31266240D01*
X18767659Y31100695D01*
X18674763Y30918375D01*
X18611528Y30723759D01*
X18602910Y30669345D01*
X19563833Y30669345D01*
X19559439Y30664951D01*
X19506778Y30573739D01*
X19479519Y30472006D01*
X19479519Y30366684D01*
X19506778Y30264951D01*
X19559439Y30173739D01*
X19563833Y30169345D01*
X18602910Y30169345D01*
X18611528Y30114932D01*
X18674763Y29920316D01*
X18767659Y29737996D01*
X18887936Y29572451D01*
X18887936Y29572450D01*
X19032623Y29427763D01*
X19198169Y29307486D01*
X19380487Y29214591D01*
X19575097Y29151357D01*
X19629519Y29142738D01*
X19629519Y30103659D01*
X19633913Y30099265D01*
X19725125Y30046604D01*
X19826858Y30019345D01*
X19932180Y30019345D01*
X20033913Y30046604D01*
X20125125Y30099265D01*
X20129519Y30103659D01*
X20129519Y29142739D01*
X20183940Y29151357D01*
X20378550Y29214591D01*
X20560868Y29307486D01*
X20726413Y29427763D01*
X20726414Y29427763D01*
X20871101Y29572450D01*
X20871101Y29572451D01*
X20991378Y29737996D01*
X21084274Y29920316D01*
X21147509Y30114932D01*
X21156128Y30169345D01*
X20195205Y30169345D01*
X20199599Y30173739D01*
X20252260Y30264951D01*
X20279519Y30366684D01*
X20279519Y30472006D01*
X20252260Y30573739D01*
X20199599Y30664951D01*
X20195205Y30669345D01*
X21156128Y30669345D01*
X21147509Y30723759D01*
X21084274Y30918375D01*
X20991378Y31100695D01*
X20871101Y31266240D01*
X20871101Y31266241D01*
X20726414Y31410928D01*
X20560868Y31531205D01*
X20467889Y31578580D01*
X20417093Y31626555D01*
X20400298Y31694376D01*
X20422835Y31760510D01*
X20467889Y31799550D01*
X20468439Y31799830D01*
X20561129Y31847058D01*
X20582289Y31862432D01*
X20726732Y31967374D01*
X20726734Y31967377D01*
X20726738Y31967379D01*
X20871485Y32112126D01*
X20871487Y32112130D01*
X20871490Y32112132D01*
X20924251Y32184755D01*
X20991806Y32277735D01*
X21084739Y32460126D01*
X21147996Y32654811D01*
X21180019Y32856993D01*
X21180019Y33061697D01*
X21147996Y33263880D01*
X21118646Y33354208D01*
X21084739Y33458564D01*
X21084737Y33458567D01*
X21084737Y33458569D01*
X21051022Y33524738D01*
X20991806Y33640955D01*
X20983852Y33651903D01*
X20871490Y33806559D01*
X20726732Y33951317D01*
X20561133Y34071630D01*
X20507479Y34098968D01*
X20468436Y34118862D01*
X20417642Y34166834D01*
X20400847Y34234655D01*
X20423384Y34300790D01*
X20468436Y34339829D01*
X20561129Y34387058D01*
X20582289Y34402432D01*
X20726732Y34507374D01*
X20726734Y34507377D01*
X20726738Y34507379D01*
X20871485Y34652126D01*
X20871487Y34652130D01*
X20871490Y34652132D01*
X20961868Y34776529D01*
X20991806Y34817735D01*
X21084739Y35000126D01*
X21147996Y35194811D01*
X21180019Y35396993D01*
X21180019Y35601697D01*
X21171776Y35653739D01*
X21147996Y35803880D01*
X21084737Y35998569D01*
X20991938Y36180695D01*
X20991806Y36180955D01*
X20983661Y36192166D01*
X20871490Y36346559D01*
X20726738Y36491311D01*
X20726732Y36491315D01*
X20690448Y36517677D01*
X20647783Y36573006D01*
X20641804Y36642619D01*
X20674409Y36704414D01*
X20735247Y36738772D01*
X20750081Y36741285D01*
X20787002Y36745254D01*
X20921847Y36795548D01*
X20921846Y36795548D01*
X20921850Y36795549D01*
X21037065Y36881799D01*
X21123315Y36997014D01*
X21173610Y37131862D01*
X21180019Y37191472D01*
X21180018Y38141697D01*
X26199019Y38141697D01*
X26199019Y37936994D01*
X26231041Y37734811D01*
X26294300Y37540122D01*
X26387234Y37357732D01*
X26507547Y37192132D01*
X26652305Y37047374D01*
X26807268Y36934789D01*
X26817909Y36927058D01*
X26889943Y36890355D01*
X26911148Y36879550D01*
X26961944Y36831575D01*
X26978739Y36763754D01*
X26956201Y36697619D01*
X26911148Y36658580D01*
X26818169Y36611205D01*
X26652624Y36490928D01*
X26652623Y36490928D01*
X26507936Y36346241D01*
X26507936Y36346240D01*
X26387659Y36180695D01*
X26294763Y35998375D01*
X26231528Y35803759D01*
X26222910Y35749345D01*
X27183833Y35749345D01*
X27179439Y35744951D01*
X27126778Y35653739D01*
X27099519Y35552006D01*
X27099519Y35446684D01*
X27126778Y35344951D01*
X27179439Y35253739D01*
X27183833Y35249345D01*
X26222910Y35249345D01*
X26231528Y35194932D01*
X26294763Y35000316D01*
X26387659Y34817996D01*
X26507936Y34652451D01*
X26507936Y34652450D01*
X26652623Y34507763D01*
X26818171Y34387484D01*
X26911147Y34340111D01*
X26961944Y34292137D01*
X26978739Y34224316D01*
X26956202Y34158181D01*
X26911149Y34119142D01*
X26817907Y34071632D01*
X26652305Y33951317D01*
X26507547Y33806559D01*
X26387234Y33640959D01*
X26294300Y33458569D01*
X26231041Y33263880D01*
X26199019Y33061697D01*
X26199019Y32856994D01*
X26231041Y32654811D01*
X26294300Y32460122D01*
X26387234Y32277732D01*
X26507547Y32112132D01*
X26652305Y31967374D01*
X26807268Y31854789D01*
X26817909Y31847058D01*
X26909359Y31800462D01*
X26910599Y31799830D01*
X26961395Y31751855D01*
X26978190Y31684034D01*
X26955653Y31617899D01*
X26910599Y31578860D01*
X26817905Y31531630D01*
X26652305Y31411317D01*
X26507547Y31266559D01*
X26387234Y31100959D01*
X26294300Y30918569D01*
X26231041Y30723880D01*
X26199019Y30521697D01*
X26199019Y30316994D01*
X26231041Y30114811D01*
X26294300Y29920122D01*
X26387234Y29737732D01*
X26507547Y29572132D01*
X26652305Y29427374D01*
X26807268Y29314789D01*
X26817909Y29307058D01*
X26934126Y29247842D01*
X27000295Y29214127D01*
X27000297Y29214127D01*
X27000300Y29214125D01*
X27104656Y29180218D01*
X27194984Y29150868D01*
X27296076Y29134857D01*
X27397167Y29118845D01*
X27397168Y29118845D01*
X27601870Y29118845D01*
X27601871Y29118845D01*
X27804053Y29150868D01*
X27998738Y29214125D01*
X28181129Y29307058D01*
X28308122Y29399323D01*
X28346732Y29427374D01*
X28346734Y29427377D01*
X28346738Y29427379D01*
X28491485Y29572126D01*
X28491487Y29572130D01*
X28491490Y29572132D01*
X28570228Y29680508D01*
X28611806Y29737735D01*
X28704739Y29920126D01*
X28767996Y30114811D01*
X28800019Y30316993D01*
X28800019Y30521697D01*
X28791776Y30573739D01*
X28767996Y30723880D01*
X28704737Y30918569D01*
X28611938Y31100695D01*
X28611806Y31100955D01*
X28604075Y31111596D01*
X28491490Y31266559D01*
X28346732Y31411317D01*
X28181133Y31531630D01*
X28174525Y31534997D01*
X28088436Y31578862D01*
X28037642Y31626834D01*
X28020847Y31694655D01*
X28043384Y31760790D01*
X28088436Y31799829D01*
X28181129Y31847058D01*
X28202289Y31862432D01*
X28346732Y31967374D01*
X28346734Y31967377D01*
X28346738Y31967379D01*
X28491485Y32112126D01*
X28491487Y32112130D01*
X28491490Y32112132D01*
X28544251Y32184755D01*
X28611806Y32277735D01*
X28704739Y32460126D01*
X28767996Y32654811D01*
X28800019Y32856993D01*
X28800019Y33061697D01*
X28767996Y33263880D01*
X28738646Y33354208D01*
X28704739Y33458564D01*
X28704737Y33458567D01*
X28704737Y33458569D01*
X28671022Y33524738D01*
X28611806Y33640955D01*
X28603852Y33651903D01*
X28491490Y33806559D01*
X28346732Y33951317D01*
X28181130Y34071632D01*
X28087888Y34119142D01*
X28037093Y34167116D01*
X28020298Y34234938D01*
X28042836Y34301072D01*
X28087890Y34340111D01*
X28180866Y34387484D01*
X28346413Y34507763D01*
X28346414Y34507763D01*
X28491101Y34652450D01*
X28491101Y34652451D01*
X28611378Y34817996D01*
X28704274Y35000316D01*
X28767509Y35194932D01*
X28776128Y35249345D01*
X27815205Y35249345D01*
X27819599Y35253739D01*
X27872260Y35344951D01*
X27899519Y35446684D01*
X27899519Y35552006D01*
X27872260Y35653739D01*
X27819599Y35744951D01*
X27815205Y35749345D01*
X28776128Y35749345D01*
X28767509Y35803759D01*
X28704274Y35998375D01*
X28611378Y36180695D01*
X28491101Y36346240D01*
X28491101Y36346241D01*
X28346414Y36490928D01*
X28180868Y36611205D01*
X28087889Y36658580D01*
X28037093Y36706555D01*
X28020298Y36774376D01*
X28042835Y36840510D01*
X28087889Y36879550D01*
X28092307Y36881801D01*
X28181129Y36927058D01*
X28202289Y36942432D01*
X28346732Y37047374D01*
X28346734Y37047377D01*
X28346738Y37047379D01*
X28491485Y37192126D01*
X28491487Y37192130D01*
X28491490Y37192132D01*
X28544251Y37264755D01*
X28611806Y37357735D01*
X28704739Y37540126D01*
X28767996Y37734811D01*
X28800019Y37936993D01*
X28800019Y38141697D01*
X28767996Y38343879D01*
X28704739Y38538564D01*
X28704737Y38538567D01*
X28704737Y38538569D01*
X28671022Y38604738D01*
X28611806Y38720955D01*
X28604075Y38731596D01*
X28491490Y38886559D01*
X28346732Y39031317D01*
X28181132Y39151630D01*
X28181131Y39151631D01*
X28181129Y39151632D01*
X28124172Y39180654D01*
X27998742Y39244564D01*
X27804053Y39307823D01*
X27629514Y39335467D01*
X27601871Y39339845D01*
X27397167Y39339845D01*
X27372848Y39335994D01*
X27194984Y39307823D01*
X27000295Y39244564D01*
X26817905Y39151630D01*
X26652305Y39031317D01*
X26507547Y38886559D01*
X26387234Y38720959D01*
X26294300Y38538569D01*
X26231041Y38343880D01*
X26199019Y38141697D01*
X21180018Y38141697D01*
X21180018Y38887217D01*
X21173610Y38946828D01*
X21160555Y38981829D01*
X21123316Y39081674D01*
X21123312Y39081681D01*
X21037066Y39196890D01*
X21037063Y39196893D01*
X20921854Y39283139D01*
X20921847Y39283143D01*
X20787001Y39333437D01*
X20787002Y39333437D01*
X20727402Y39339844D01*
X20727400Y39339845D01*
X20727392Y39339845D01*
X20727383Y39339845D01*
X19031648Y39339845D01*
X19031642Y39339844D01*
X18972035Y39333437D01*
X18837190Y39283143D01*
X18837183Y39283139D01*
X18721974Y39196893D01*
X18721971Y39196890D01*
X18635725Y39081681D01*
X18635721Y39081674D01*
X18585427Y38946828D01*
X18582781Y38922210D01*
X18579020Y38887222D01*
X18579019Y38887210D01*
X12350018Y38887210D01*
X12350018Y38922217D01*
X12343610Y38981828D01*
X12306367Y39081681D01*
X12293316Y39116674D01*
X12293312Y39116681D01*
X12207066Y39231890D01*
X12207063Y39231893D01*
X12091854Y39318139D01*
X12091847Y39318143D01*
X11957001Y39368437D01*
X11957002Y39368437D01*
X11897402Y39374844D01*
X11897400Y39374845D01*
X11897392Y39374845D01*
X11897383Y39374845D01*
X10101648Y39374845D01*
X10101642Y39374844D01*
X10042035Y39368437D01*
X9907190Y39318143D01*
X9907183Y39318139D01*
X9791974Y39231893D01*
X9791971Y39231890D01*
X9705725Y39116681D01*
X9705721Y39116674D01*
X9655427Y38981828D01*
X9649020Y38922229D01*
X9649020Y38922222D01*
X9649019Y38922210D01*
X7500019Y38922210D01*
X7500019Y42374845D01*
X7519704Y42441884D01*
X7572508Y42487639D01*
X7624019Y42498845D01*
X31375019Y42498845D01*
X31442058Y42479160D01*
G37*
G04 #@! TD.AperFunction*
G04 #@! TD*
G04 #@! TA.AperFunction,Conductor*
G04 #@! TO.N,Board_0-GND*
G36*
X31442058Y83479160D02*
G01*
X31487813Y83426356D01*
X31499019Y83374845D01*
X31499019Y48623845D01*
X31479334Y48556806D01*
X31426530Y48511051D01*
X31375019Y48499845D01*
X7624019Y48499845D01*
X7556980Y48519530D01*
X7511225Y48572334D01*
X7500019Y48623845D01*
X7500019Y57422210D01*
X9649019Y57422210D01*
X9649019Y55626475D01*
X9649020Y55626469D01*
X9655427Y55566862D01*
X9705721Y55432017D01*
X9705725Y55432010D01*
X9791971Y55316801D01*
X9791974Y55316798D01*
X9907183Y55230552D01*
X9907190Y55230548D01*
X10038601Y55181535D01*
X10094535Y55139664D01*
X10118952Y55074200D01*
X10104101Y55005927D01*
X10082950Y54977672D01*
X9969408Y54864130D01*
X9844470Y54692166D01*
X9747963Y54502760D01*
X9682272Y54300585D01*
X9649019Y54090632D01*
X9649019Y53878059D01*
X9682272Y53668106D01*
X9747963Y53465931D01*
X9844470Y53276525D01*
X9969409Y53104559D01*
X10119732Y52954236D01*
X10291698Y52829297D01*
X10291700Y52829296D01*
X10291703Y52829294D01*
X10301012Y52824551D01*
X10351809Y52776579D01*
X10368606Y52708758D01*
X10346071Y52642623D01*
X10301021Y52603583D01*
X10291962Y52598967D01*
X10120059Y52474073D01*
X10120054Y52474069D01*
X9969795Y52323810D01*
X9969791Y52323805D01*
X9844898Y52151903D01*
X9748423Y51962563D01*
X9682761Y51760475D01*
X9682761Y51760472D01*
X9672288Y51694345D01*
X10566507Y51694345D01*
X10533594Y51637338D01*
X10499519Y51510171D01*
X10499519Y51378519D01*
X10533594Y51251352D01*
X10566507Y51194345D01*
X9672288Y51194345D01*
X9682761Y51128219D01*
X9682761Y51128216D01*
X9748423Y50926128D01*
X9844898Y50736788D01*
X9969791Y50564886D01*
X9969795Y50564881D01*
X10120054Y50414622D01*
X10120059Y50414618D01*
X10291961Y50289725D01*
X10481301Y50193250D01*
X10683390Y50127588D01*
X10749519Y50117114D01*
X10749519Y51011333D01*
X10806526Y50978420D01*
X10933693Y50944345D01*
X11065345Y50944345D01*
X11192512Y50978420D01*
X11249519Y51011333D01*
X11249519Y50117115D01*
X11315645Y50127588D01*
X11315648Y50127588D01*
X11517736Y50193250D01*
X11707076Y50289725D01*
X11878978Y50414618D01*
X11878983Y50414622D01*
X12029242Y50564881D01*
X12029246Y50564886D01*
X12154142Y50736792D01*
X12154143Y50736793D01*
X12208106Y50842699D01*
X12208108Y50842704D01*
X12250614Y50926128D01*
X12316276Y51128216D01*
X12316277Y51128221D01*
X12326750Y51194345D01*
X11432531Y51194345D01*
X11464285Y51249345D01*
X19552288Y51249345D01*
X20446507Y51249345D01*
X20413594Y51192338D01*
X20379519Y51065171D01*
X20379519Y50933519D01*
X20413594Y50806352D01*
X20446507Y50749345D01*
X19552288Y50749345D01*
X19562761Y50683219D01*
X19562761Y50683216D01*
X19628423Y50481128D01*
X19724898Y50291788D01*
X19849791Y50119886D01*
X19849795Y50119881D01*
X20000054Y49969622D01*
X20000059Y49969618D01*
X20171961Y49844725D01*
X20361301Y49748250D01*
X20563390Y49682588D01*
X20629519Y49672114D01*
X20629519Y50566333D01*
X20686526Y50533420D01*
X20813693Y50499345D01*
X20945345Y50499345D01*
X21072512Y50533420D01*
X21129519Y50566333D01*
X21129519Y49672115D01*
X21195645Y49682588D01*
X21195648Y49682588D01*
X21397736Y49748250D01*
X21587076Y49844725D01*
X21758978Y49969618D01*
X21758983Y49969622D01*
X21909242Y50119881D01*
X21909246Y50119886D01*
X22034139Y50291787D01*
X22038751Y50300838D01*
X22086724Y50351636D01*
X22154544Y50368433D01*
X22220680Y50345898D01*
X22259723Y50300841D01*
X22264468Y50291528D01*
X22389409Y50119559D01*
X22539732Y49969236D01*
X22711698Y49844297D01*
X22711700Y49844296D01*
X22711703Y49844294D01*
X22901107Y49747788D01*
X23103276Y49682099D01*
X23313232Y49648845D01*
X23313233Y49648845D01*
X23525805Y49648845D01*
X23525806Y49648845D01*
X23735762Y49682099D01*
X23937931Y49747788D01*
X24127335Y49844294D01*
X24213657Y49907010D01*
X24299305Y49969236D01*
X24299307Y49969239D01*
X24299311Y49969241D01*
X24449623Y50119553D01*
X24449625Y50119557D01*
X24449628Y50119559D01*
X24574567Y50291525D01*
X24574569Y50291528D01*
X24574570Y50291529D01*
X24579033Y50300291D01*
X24627007Y50351086D01*
X24694827Y50367882D01*
X24760963Y50345346D01*
X24800005Y50300289D01*
X24804470Y50291525D01*
X24929409Y50119559D01*
X25079732Y49969236D01*
X25251698Y49844297D01*
X25251700Y49844296D01*
X25251703Y49844294D01*
X25441107Y49747788D01*
X25643276Y49682099D01*
X25853232Y49648845D01*
X25853233Y49648845D01*
X26065805Y49648845D01*
X26065806Y49648845D01*
X26275762Y49682099D01*
X26477931Y49747788D01*
X26667335Y49844294D01*
X26839311Y49969241D01*
X26952848Y50082779D01*
X27014167Y50116261D01*
X27083859Y50111277D01*
X27139793Y50069406D01*
X27156708Y50038428D01*
X27205721Y49907017D01*
X27205725Y49907010D01*
X27291971Y49791801D01*
X27291974Y49791798D01*
X27407183Y49705552D01*
X27407190Y49705548D01*
X27542036Y49655254D01*
X27542035Y49655254D01*
X27548963Y49654510D01*
X27601646Y49648845D01*
X29397391Y49648846D01*
X29457002Y49655254D01*
X29591850Y49705549D01*
X29707065Y49791799D01*
X29793315Y49907014D01*
X29843610Y50041862D01*
X29850019Y50101472D01*
X29850018Y51897217D01*
X29843610Y51956828D01*
X29842329Y51960262D01*
X29793316Y52091674D01*
X29793312Y52091681D01*
X29707066Y52206890D01*
X29707063Y52206893D01*
X29591854Y52293139D01*
X29591847Y52293143D01*
X29457001Y52343437D01*
X29457002Y52343437D01*
X29397402Y52349844D01*
X29397400Y52349845D01*
X29397392Y52349845D01*
X29397383Y52349845D01*
X27601648Y52349845D01*
X27601642Y52349844D01*
X27542035Y52343437D01*
X27407190Y52293143D01*
X27407183Y52293139D01*
X27291974Y52206893D01*
X27291971Y52206890D01*
X27205725Y52091681D01*
X27205722Y52091676D01*
X27156708Y51960262D01*
X27114836Y51904329D01*
X27049372Y51879912D01*
X26981099Y51894764D01*
X26952845Y51915915D01*
X26839305Y52029455D01*
X26667339Y52154394D01*
X26477933Y52250901D01*
X26477932Y52250902D01*
X26477931Y52250902D01*
X26275762Y52316591D01*
X26275760Y52316592D01*
X26275759Y52316592D01*
X26114476Y52342137D01*
X26065806Y52349845D01*
X25853232Y52349845D01*
X25804561Y52342137D01*
X25643279Y52316592D01*
X25441104Y52250901D01*
X25251698Y52154394D01*
X25079732Y52029455D01*
X24929409Y51879132D01*
X24804468Y51707163D01*
X24800003Y51698399D01*
X24752028Y51647603D01*
X24684207Y51630809D01*
X24618072Y51653347D01*
X24579035Y51698399D01*
X24574569Y51707163D01*
X24449628Y51879132D01*
X24299305Y52029455D01*
X24127339Y52154394D01*
X23937933Y52250901D01*
X23937932Y52250902D01*
X23937931Y52250902D01*
X23735762Y52316591D01*
X23735760Y52316592D01*
X23735759Y52316592D01*
X23574476Y52342137D01*
X23525806Y52349845D01*
X23313232Y52349845D01*
X23264561Y52342137D01*
X23103279Y52316592D01*
X22901104Y52250901D01*
X22711698Y52154394D01*
X22539732Y52029455D01*
X22389409Y51879132D01*
X22264468Y51707163D01*
X22259721Y51697846D01*
X22211746Y51647052D01*
X22143924Y51630258D01*
X22077790Y51652797D01*
X22038753Y51697850D01*
X22034141Y51706901D01*
X21909246Y51878805D01*
X21909242Y51878810D01*
X21758983Y52029069D01*
X21758978Y52029073D01*
X21587076Y52153966D01*
X21397734Y52250442D01*
X21195643Y52316104D01*
X21129519Y52326577D01*
X21129519Y51432357D01*
X21072512Y51465270D01*
X20945345Y51499345D01*
X20813693Y51499345D01*
X20686526Y51465270D01*
X20629519Y51432357D01*
X20629519Y52326577D01*
X20629518Y52326577D01*
X20563394Y52316104D01*
X20361303Y52250442D01*
X20171961Y52153966D01*
X20000059Y52029073D01*
X20000054Y52029069D01*
X19849795Y51878810D01*
X19849791Y51878805D01*
X19724898Y51706903D01*
X19628423Y51517563D01*
X19562761Y51315475D01*
X19562761Y51315472D01*
X19552288Y51249345D01*
X11464285Y51249345D01*
X11465444Y51251352D01*
X11499519Y51378519D01*
X11499519Y51510171D01*
X11465444Y51637338D01*
X11432531Y51694345D01*
X12326750Y51694345D01*
X12316276Y51760472D01*
X12316276Y51760475D01*
X12250614Y51962563D01*
X12154139Y52151903D01*
X12029246Y52323805D01*
X12029242Y52323810D01*
X11878983Y52474069D01*
X11878978Y52474073D01*
X11707074Y52598968D01*
X11698019Y52603582D01*
X11647225Y52651557D01*
X11630431Y52719379D01*
X11652970Y52785513D01*
X11698027Y52824552D01*
X11707335Y52829294D01*
X11786526Y52886830D01*
X11879305Y52954236D01*
X11879307Y52954239D01*
X11879311Y52954241D01*
X12029623Y53104553D01*
X12029625Y53104557D01*
X12029628Y53104559D01*
X12154567Y53276525D01*
X12154566Y53276525D01*
X12154570Y53276529D01*
X12251076Y53465933D01*
X12316765Y53668102D01*
X12350019Y53878058D01*
X12350019Y54090632D01*
X12316765Y54300588D01*
X12251076Y54502757D01*
X12154570Y54692161D01*
X12154568Y54692164D01*
X12154567Y54692166D01*
X12029628Y54864132D01*
X11916088Y54977672D01*
X11882603Y55038995D01*
X11887587Y55108687D01*
X11929459Y55164620D01*
X11960434Y55181535D01*
X12091850Y55230549D01*
X12207065Y55316799D01*
X12293315Y55432014D01*
X12343610Y55566862D01*
X12350019Y55626472D01*
X12350018Y57422217D01*
X12343610Y57481828D01*
X12298902Y57601697D01*
X19579019Y57601697D01*
X19579019Y57396994D01*
X19611041Y57194811D01*
X19674300Y57000122D01*
X19767234Y56817732D01*
X19887547Y56652132D01*
X20032305Y56507374D01*
X20187268Y56394789D01*
X20197909Y56387058D01*
X20314126Y56327842D01*
X20380295Y56294127D01*
X20380297Y56294127D01*
X20380300Y56294125D01*
X20484656Y56260218D01*
X20574984Y56230868D01*
X20676076Y56214857D01*
X20777167Y56198845D01*
X20777168Y56198845D01*
X20981870Y56198845D01*
X20981871Y56198845D01*
X21184053Y56230868D01*
X21378738Y56294125D01*
X21561129Y56387058D01*
X21654109Y56454613D01*
X21726732Y56507374D01*
X21726734Y56507377D01*
X21726738Y56507379D01*
X21871485Y56652126D01*
X21871487Y56652130D01*
X21871490Y56652132D01*
X21924251Y56724755D01*
X21991806Y56817735D01*
X22084739Y57000126D01*
X22147996Y57194811D01*
X22180019Y57396993D01*
X22180019Y57601697D01*
X27199019Y57601697D01*
X27199019Y57396994D01*
X27231041Y57194811D01*
X27294300Y57000122D01*
X27387234Y56817732D01*
X27507547Y56652132D01*
X27652305Y56507374D01*
X27807268Y56394789D01*
X27817909Y56387058D01*
X27934126Y56327842D01*
X28000295Y56294127D01*
X28000297Y56294127D01*
X28000300Y56294125D01*
X28104656Y56260218D01*
X28194984Y56230868D01*
X28296076Y56214857D01*
X28397167Y56198845D01*
X28397168Y56198845D01*
X28601870Y56198845D01*
X28601871Y56198845D01*
X28804053Y56230868D01*
X28998738Y56294125D01*
X29181129Y56387058D01*
X29274109Y56454613D01*
X29346732Y56507374D01*
X29346734Y56507377D01*
X29346738Y56507379D01*
X29491485Y56652126D01*
X29491487Y56652130D01*
X29491490Y56652132D01*
X29544251Y56724755D01*
X29611806Y56817735D01*
X29704739Y57000126D01*
X29767996Y57194811D01*
X29800019Y57396993D01*
X29800019Y57601697D01*
X29767996Y57803879D01*
X29763361Y57818143D01*
X29704737Y57998569D01*
X29671022Y58064738D01*
X29611806Y58180955D01*
X29604075Y58191596D01*
X29491490Y58346559D01*
X29346732Y58491317D01*
X29181132Y58611630D01*
X29181131Y58611631D01*
X29181129Y58611632D01*
X29124172Y58640654D01*
X28998742Y58704564D01*
X28804053Y58767823D01*
X28629514Y58795467D01*
X28601871Y58799845D01*
X28397167Y58799845D01*
X28372848Y58795994D01*
X28194984Y58767823D01*
X28000295Y58704564D01*
X27817905Y58611630D01*
X27652305Y58491317D01*
X27507547Y58346559D01*
X27387234Y58180959D01*
X27294300Y57998569D01*
X27231041Y57803880D01*
X27199019Y57601697D01*
X22180019Y57601697D01*
X22147996Y57803879D01*
X22143361Y57818143D01*
X22084737Y57998569D01*
X22051022Y58064738D01*
X21991806Y58180955D01*
X21984075Y58191596D01*
X21871490Y58346559D01*
X21726732Y58491317D01*
X21561132Y58611630D01*
X21561131Y58611631D01*
X21561129Y58611632D01*
X21504172Y58640654D01*
X21378742Y58704564D01*
X21184053Y58767823D01*
X21009514Y58795467D01*
X20981871Y58799845D01*
X20777167Y58799845D01*
X20752848Y58795994D01*
X20574984Y58767823D01*
X20380295Y58704564D01*
X20197905Y58611630D01*
X20032305Y58491317D01*
X19887547Y58346559D01*
X19767234Y58180959D01*
X19674300Y57998569D01*
X19611041Y57803880D01*
X19579019Y57601697D01*
X12298902Y57601697D01*
X12293315Y57616676D01*
X12293314Y57616677D01*
X12293312Y57616681D01*
X12207066Y57731890D01*
X12207063Y57731893D01*
X12091854Y57818139D01*
X12091847Y57818143D01*
X11957001Y57868437D01*
X11957002Y57868437D01*
X11897402Y57874844D01*
X11897400Y57874845D01*
X11897392Y57874845D01*
X11897383Y57874845D01*
X10101648Y57874845D01*
X10101642Y57874844D01*
X10042035Y57868437D01*
X9907190Y57818143D01*
X9907183Y57818139D01*
X9791974Y57731893D01*
X9791971Y57731890D01*
X9705725Y57616681D01*
X9705721Y57616674D01*
X9655427Y57481828D01*
X9649020Y57422229D01*
X9649020Y57422222D01*
X9649019Y57422210D01*
X7500019Y57422210D01*
X7500019Y68437210D01*
X9649019Y68437210D01*
X9649019Y66641475D01*
X9649020Y66641469D01*
X9655427Y66581862D01*
X9705721Y66447017D01*
X9705725Y66447010D01*
X9791971Y66331801D01*
X9791974Y66331798D01*
X9907183Y66245552D01*
X9907190Y66245548D01*
X10038601Y66196535D01*
X10094535Y66154664D01*
X10118952Y66089200D01*
X10104101Y66020927D01*
X10082950Y65992672D01*
X9969408Y65879130D01*
X9844470Y65707166D01*
X9747963Y65517760D01*
X9682272Y65315585D01*
X9649019Y65105632D01*
X9649019Y64893059D01*
X9682272Y64683106D01*
X9747963Y64480931D01*
X9844470Y64291525D01*
X9969409Y64119559D01*
X10119732Y63969236D01*
X10291698Y63844297D01*
X10291700Y63844296D01*
X10291703Y63844294D01*
X10301012Y63839551D01*
X10351809Y63791579D01*
X10368606Y63723758D01*
X10346071Y63657623D01*
X10301021Y63618583D01*
X10291962Y63613967D01*
X10120059Y63489073D01*
X10120054Y63489069D01*
X9969795Y63338810D01*
X9969791Y63338805D01*
X9844898Y63166903D01*
X9748423Y62977563D01*
X9682761Y62775475D01*
X9682761Y62775472D01*
X9672288Y62709345D01*
X10566507Y62709345D01*
X10533594Y62652338D01*
X10499519Y62525171D01*
X10499519Y62393519D01*
X10533594Y62266352D01*
X10566507Y62209345D01*
X9672288Y62209345D01*
X9682761Y62143219D01*
X9682761Y62143216D01*
X9748423Y61941128D01*
X9844898Y61751788D01*
X9969791Y61579886D01*
X9969795Y61579881D01*
X10120054Y61429622D01*
X10120059Y61429618D01*
X10291961Y61304725D01*
X10481301Y61208250D01*
X10683390Y61142588D01*
X10749519Y61132114D01*
X10749519Y62026333D01*
X10806526Y61993420D01*
X10933693Y61959345D01*
X11065345Y61959345D01*
X11192512Y61993420D01*
X11249519Y62026333D01*
X11249519Y61132115D01*
X11315645Y61142588D01*
X11315648Y61142588D01*
X11517736Y61208250D01*
X11707076Y61304725D01*
X11878978Y61429618D01*
X11878983Y61429622D01*
X12029242Y61579881D01*
X12029246Y61579886D01*
X12154139Y61751788D01*
X12250614Y61941128D01*
X12316276Y62143216D01*
X12316276Y62143219D01*
X12326750Y62209345D01*
X11432531Y62209345D01*
X11465444Y62266352D01*
X11499519Y62393519D01*
X11499519Y62525171D01*
X11465444Y62652338D01*
X11432531Y62709345D01*
X12326750Y62709345D01*
X12316276Y62775472D01*
X12316276Y62775475D01*
X12250614Y62977563D01*
X12154139Y63166903D01*
X12029246Y63338805D01*
X12029242Y63338810D01*
X11878983Y63489069D01*
X11856051Y63505730D01*
X11719810Y63601697D01*
X19579019Y63601697D01*
X19579019Y63396994D01*
X19611041Y63194811D01*
X19674300Y63000122D01*
X19767234Y62817732D01*
X19887547Y62652132D01*
X20032305Y62507374D01*
X20187268Y62394789D01*
X20197909Y62387058D01*
X20314126Y62327842D01*
X20380295Y62294127D01*
X20380297Y62294127D01*
X20380300Y62294125D01*
X20484656Y62260218D01*
X20574984Y62230868D01*
X20676076Y62214857D01*
X20777167Y62198845D01*
X20777168Y62198845D01*
X20981870Y62198845D01*
X20981871Y62198845D01*
X21184053Y62230868D01*
X21378738Y62294125D01*
X21561129Y62387058D01*
X21654109Y62454613D01*
X21726732Y62507374D01*
X21726734Y62507377D01*
X21726738Y62507379D01*
X21871485Y62652126D01*
X21871487Y62652130D01*
X21871490Y62652132D01*
X21961100Y62775472D01*
X21991806Y62817735D01*
X22084739Y63000126D01*
X22147996Y63194811D01*
X22180019Y63396993D01*
X22180019Y63601697D01*
X27199019Y63601697D01*
X27199019Y63396994D01*
X27231041Y63194811D01*
X27294300Y63000122D01*
X27387234Y62817732D01*
X27507547Y62652132D01*
X27652305Y62507374D01*
X27807268Y62394789D01*
X27817909Y62387058D01*
X27934126Y62327842D01*
X28000295Y62294127D01*
X28000297Y62294127D01*
X28000300Y62294125D01*
X28104656Y62260218D01*
X28194984Y62230868D01*
X28296076Y62214857D01*
X28397167Y62198845D01*
X28397168Y62198845D01*
X28601870Y62198845D01*
X28601871Y62198845D01*
X28804053Y62230868D01*
X28998738Y62294125D01*
X29181129Y62387058D01*
X29274109Y62454613D01*
X29346732Y62507374D01*
X29346734Y62507377D01*
X29346738Y62507379D01*
X29491485Y62652126D01*
X29491487Y62652130D01*
X29491490Y62652132D01*
X29581100Y62775472D01*
X29611806Y62817735D01*
X29704739Y63000126D01*
X29767996Y63194811D01*
X29800019Y63396993D01*
X29800019Y63601697D01*
X29767996Y63803879D01*
X29764651Y63814173D01*
X29714268Y63969236D01*
X29704739Y63998564D01*
X29704737Y63998567D01*
X29704737Y63998569D01*
X29671022Y64064738D01*
X29611806Y64180955D01*
X29604075Y64191596D01*
X29491490Y64346559D01*
X29346732Y64491317D01*
X29181132Y64611630D01*
X29181131Y64611631D01*
X29181129Y64611632D01*
X29124172Y64640654D01*
X28998742Y64704564D01*
X28804053Y64767823D01*
X28629514Y64795467D01*
X28601871Y64799845D01*
X28397167Y64799845D01*
X28372848Y64795994D01*
X28194984Y64767823D01*
X28000295Y64704564D01*
X27817905Y64611630D01*
X27652305Y64491317D01*
X27507547Y64346559D01*
X27387234Y64180959D01*
X27294300Y63998569D01*
X27231041Y63803880D01*
X27199019Y63601697D01*
X22180019Y63601697D01*
X22147996Y63803879D01*
X22144651Y63814173D01*
X22094268Y63969236D01*
X22084739Y63998564D01*
X22084737Y63998567D01*
X22084737Y63998569D01*
X22051022Y64064738D01*
X21991806Y64180955D01*
X21984075Y64191596D01*
X21871490Y64346559D01*
X21726732Y64491317D01*
X21561132Y64611630D01*
X21561131Y64611631D01*
X21561129Y64611632D01*
X21504172Y64640654D01*
X21378742Y64704564D01*
X21184053Y64767823D01*
X21009514Y64795467D01*
X20981871Y64799845D01*
X20777167Y64799845D01*
X20752848Y64795994D01*
X20574984Y64767823D01*
X20380295Y64704564D01*
X20197905Y64611630D01*
X20032305Y64491317D01*
X19887547Y64346559D01*
X19767234Y64180959D01*
X19674300Y63998569D01*
X19611041Y63803880D01*
X19579019Y63601697D01*
X11719810Y63601697D01*
X11682909Y63627690D01*
X11666452Y63648397D01*
X11647225Y63666557D01*
X11645055Y63675320D01*
X11639437Y63682389D01*
X11636787Y63708709D01*
X11630431Y63734379D01*
X11633343Y63742925D01*
X11632439Y63751907D01*
X11644437Y63775478D01*
X11652970Y63800513D01*
X11660506Y63807043D01*
X11664136Y63814173D01*
X11678258Y63822424D01*
X11698027Y63839552D01*
X11707335Y63844294D01*
X11786526Y63901830D01*
X11879305Y63969236D01*
X11879307Y63969239D01*
X11879311Y63969241D01*
X12029623Y64119553D01*
X12029625Y64119557D01*
X12029628Y64119559D01*
X12154567Y64291525D01*
X12154566Y64291525D01*
X12154570Y64291529D01*
X12251076Y64480933D01*
X12316765Y64683102D01*
X12350019Y64893058D01*
X12350019Y65105632D01*
X12316765Y65315588D01*
X12251076Y65517757D01*
X12154570Y65707161D01*
X12154568Y65707164D01*
X12154567Y65707166D01*
X12029628Y65879132D01*
X11916088Y65992672D01*
X11882603Y66053995D01*
X11887587Y66123687D01*
X11929459Y66179620D01*
X11960434Y66196535D01*
X12091850Y66245549D01*
X12207065Y66331799D01*
X12293315Y66447014D01*
X12343610Y66581862D01*
X12350019Y66641472D01*
X12350018Y68437217D01*
X12343610Y68496828D01*
X12293315Y68631676D01*
X12293314Y68631677D01*
X12293312Y68631681D01*
X12207066Y68746890D01*
X12207063Y68746893D01*
X12091854Y68833139D01*
X12091847Y68833143D01*
X11957001Y68883437D01*
X11957002Y68883437D01*
X11897402Y68889844D01*
X11897400Y68889845D01*
X11897392Y68889845D01*
X11897383Y68889845D01*
X10101648Y68889845D01*
X10101642Y68889844D01*
X10042035Y68883437D01*
X9907190Y68833143D01*
X9907183Y68833139D01*
X9791974Y68746893D01*
X9791971Y68746890D01*
X9705725Y68631681D01*
X9705721Y68631674D01*
X9655427Y68496828D01*
X9649020Y68437229D01*
X9649020Y68437222D01*
X9649019Y68437210D01*
X7500019Y68437210D01*
X7500019Y79922210D01*
X9649019Y79922210D01*
X9649019Y78126475D01*
X9649020Y78126469D01*
X9655427Y78066862D01*
X9705721Y77932017D01*
X9705725Y77932010D01*
X9791971Y77816801D01*
X9791974Y77816798D01*
X9907183Y77730552D01*
X9907190Y77730548D01*
X10038601Y77681535D01*
X10094535Y77639664D01*
X10118952Y77574200D01*
X10104101Y77505927D01*
X10082950Y77477672D01*
X9969408Y77364130D01*
X9844470Y77192166D01*
X9747963Y77002760D01*
X9682272Y76800585D01*
X9649019Y76590632D01*
X9649019Y76378059D01*
X9678042Y76194811D01*
X9682273Y76168102D01*
X9736853Y76000122D01*
X9747963Y75965931D01*
X9844470Y75776525D01*
X9969409Y75604559D01*
X10119732Y75454236D01*
X10291698Y75329297D01*
X10291700Y75329296D01*
X10291703Y75329294D01*
X10301012Y75324551D01*
X10351809Y75276579D01*
X10368606Y75208758D01*
X10346071Y75142623D01*
X10301021Y75103583D01*
X10291962Y75098967D01*
X10120059Y74974073D01*
X10120054Y74974069D01*
X9969795Y74823810D01*
X9969791Y74823805D01*
X9844898Y74651903D01*
X9748423Y74462563D01*
X9682761Y74260475D01*
X9682761Y74260472D01*
X9672288Y74194345D01*
X10566507Y74194345D01*
X10533594Y74137338D01*
X10499519Y74010171D01*
X10499519Y73878519D01*
X10533594Y73751352D01*
X10566507Y73694345D01*
X9672288Y73694345D01*
X9682761Y73628219D01*
X9682761Y73628216D01*
X9748423Y73426128D01*
X9844898Y73236788D01*
X9969791Y73064886D01*
X9969795Y73064881D01*
X10120054Y72914622D01*
X10120059Y72914618D01*
X10291961Y72789725D01*
X10481301Y72693250D01*
X10683390Y72627588D01*
X10749519Y72617114D01*
X10749519Y73511333D01*
X10806526Y73478420D01*
X10933693Y73444345D01*
X11065345Y73444345D01*
X11192512Y73478420D01*
X11249519Y73511333D01*
X11249519Y72617115D01*
X11315645Y72627588D01*
X11315648Y72627588D01*
X11517736Y72693250D01*
X11707076Y72789725D01*
X11878978Y72914618D01*
X11878983Y72914622D01*
X12029242Y73064881D01*
X12029246Y73064886D01*
X12154139Y73236788D01*
X12250614Y73426128D01*
X12316276Y73628216D01*
X12316276Y73628219D01*
X12326750Y73694345D01*
X11432531Y73694345D01*
X11465444Y73751352D01*
X11499519Y73878519D01*
X11499519Y74010171D01*
X11465444Y74137338D01*
X11432531Y74194345D01*
X12326750Y74194345D01*
X12316276Y74260472D01*
X12316276Y74260475D01*
X12250614Y74462563D01*
X12154139Y74651903D01*
X12029246Y74823805D01*
X12029242Y74823810D01*
X11878983Y74974069D01*
X11878978Y74974073D01*
X11707074Y75098968D01*
X11698019Y75103582D01*
X11647225Y75151557D01*
X11630431Y75219379D01*
X11652970Y75285513D01*
X11698027Y75324552D01*
X11707335Y75329294D01*
X11787427Y75387484D01*
X11879305Y75454236D01*
X11879307Y75454239D01*
X11879311Y75454241D01*
X12029623Y75604553D01*
X12029625Y75604557D01*
X12029628Y75604559D01*
X12154567Y75776525D01*
X12154566Y75776525D01*
X12154570Y75776529D01*
X12251076Y75965933D01*
X12316765Y76168102D01*
X12350019Y76378058D01*
X12350019Y76590632D01*
X12316765Y76800588D01*
X12251076Y77002757D01*
X12154570Y77192161D01*
X12154568Y77192164D01*
X12154567Y77192166D01*
X12029628Y77364132D01*
X11916088Y77477672D01*
X11882603Y77538995D01*
X11887587Y77608687D01*
X11929459Y77664620D01*
X11960434Y77681535D01*
X12091850Y77730549D01*
X12207065Y77816799D01*
X12293315Y77932014D01*
X12343610Y78066862D01*
X12350019Y78126472D01*
X12350018Y79887210D01*
X18579019Y79887210D01*
X18579019Y78191475D01*
X18579020Y78191469D01*
X18585427Y78131862D01*
X18635721Y77997017D01*
X18635725Y77997010D01*
X18721971Y77881801D01*
X18721974Y77881798D01*
X18837183Y77795552D01*
X18837190Y77795548D01*
X18882137Y77778784D01*
X18972036Y77745254D01*
X19008960Y77741285D01*
X19073508Y77714549D01*
X19113357Y77657157D01*
X19115852Y77587332D01*
X19080200Y77527243D01*
X19068590Y77517679D01*
X19032303Y77491315D01*
X18887547Y77346559D01*
X18767234Y77180959D01*
X18674300Y76998569D01*
X18611041Y76803880D01*
X18579019Y76601697D01*
X18579019Y76396994D01*
X18611041Y76194811D01*
X18674300Y76000122D01*
X18767234Y75817732D01*
X18887547Y75652132D01*
X19032305Y75507374D01*
X19187268Y75394789D01*
X19197909Y75387058D01*
X19289359Y75340462D01*
X19290599Y75339830D01*
X19341395Y75291855D01*
X19358190Y75224034D01*
X19335653Y75157899D01*
X19290599Y75118860D01*
X19197905Y75071630D01*
X19032305Y74951317D01*
X18887547Y74806559D01*
X18767234Y74640959D01*
X18674300Y74458569D01*
X18611041Y74263880D01*
X18579019Y74061697D01*
X18579019Y73856994D01*
X18611041Y73654811D01*
X18674300Y73460122D01*
X18767234Y73277732D01*
X18887547Y73112132D01*
X19032305Y72967374D01*
X19187268Y72854789D01*
X19197909Y72847058D01*
X19269943Y72810355D01*
X19291148Y72799550D01*
X19341944Y72751575D01*
X19358739Y72683754D01*
X19336201Y72617619D01*
X19291148Y72578580D01*
X19198169Y72531205D01*
X19032624Y72410928D01*
X19032623Y72410928D01*
X18887936Y72266241D01*
X18887936Y72266240D01*
X18767659Y72100695D01*
X18674763Y71918375D01*
X18611528Y71723759D01*
X18602910Y71669345D01*
X19563833Y71669345D01*
X19559439Y71664951D01*
X19506778Y71573739D01*
X19479519Y71472006D01*
X19479519Y71366684D01*
X19506778Y71264951D01*
X19559439Y71173739D01*
X19563833Y71169345D01*
X18602910Y71169345D01*
X18611528Y71114932D01*
X18674763Y70920316D01*
X18767659Y70737996D01*
X18887936Y70572451D01*
X18887936Y70572450D01*
X19032623Y70427763D01*
X19198169Y70307486D01*
X19380487Y70214591D01*
X19575097Y70151357D01*
X19629519Y70142738D01*
X19629519Y71103659D01*
X19633913Y71099265D01*
X19725125Y71046604D01*
X19826858Y71019345D01*
X19932180Y71019345D01*
X20033913Y71046604D01*
X20125125Y71099265D01*
X20129519Y71103659D01*
X20129519Y70142739D01*
X20183940Y70151357D01*
X20378550Y70214591D01*
X20560868Y70307486D01*
X20726413Y70427763D01*
X20726414Y70427763D01*
X20871101Y70572450D01*
X20871101Y70572451D01*
X20991378Y70737996D01*
X21084274Y70920316D01*
X21147509Y71114932D01*
X21156128Y71169345D01*
X20195205Y71169345D01*
X20199599Y71173739D01*
X20252260Y71264951D01*
X20279519Y71366684D01*
X20279519Y71472006D01*
X20252260Y71573739D01*
X20199599Y71664951D01*
X20195205Y71669345D01*
X21156128Y71669345D01*
X21147509Y71723759D01*
X21084274Y71918375D01*
X20991378Y72100695D01*
X20871101Y72266240D01*
X20871101Y72266241D01*
X20726414Y72410928D01*
X20560868Y72531205D01*
X20467889Y72578580D01*
X20417093Y72626555D01*
X20400298Y72694376D01*
X20422835Y72760510D01*
X20467889Y72799550D01*
X20468439Y72799830D01*
X20561129Y72847058D01*
X20582289Y72862432D01*
X20726732Y72967374D01*
X20726734Y72967377D01*
X20726738Y72967379D01*
X20871485Y73112126D01*
X20871487Y73112130D01*
X20871490Y73112132D01*
X20924251Y73184755D01*
X20991806Y73277735D01*
X21084739Y73460126D01*
X21147996Y73654811D01*
X21180019Y73856993D01*
X21180019Y74061697D01*
X21147996Y74263880D01*
X21118646Y74354208D01*
X21084739Y74458564D01*
X21084737Y74458567D01*
X21084737Y74458569D01*
X21051022Y74524738D01*
X20991806Y74640955D01*
X20983852Y74651903D01*
X20871490Y74806559D01*
X20726732Y74951317D01*
X20561133Y75071630D01*
X20507479Y75098968D01*
X20468436Y75118862D01*
X20417642Y75166834D01*
X20400847Y75234655D01*
X20423384Y75300790D01*
X20468436Y75339829D01*
X20561129Y75387058D01*
X20582289Y75402432D01*
X20726732Y75507374D01*
X20726734Y75507377D01*
X20726738Y75507379D01*
X20871485Y75652126D01*
X20871487Y75652130D01*
X20871490Y75652132D01*
X20961868Y75776529D01*
X20991806Y75817735D01*
X21084739Y76000126D01*
X21147996Y76194811D01*
X21180019Y76396993D01*
X21180019Y76601697D01*
X21171776Y76653739D01*
X21147996Y76803880D01*
X21084737Y76998569D01*
X20991938Y77180695D01*
X20991806Y77180955D01*
X20983661Y77192166D01*
X20871490Y77346559D01*
X20726738Y77491311D01*
X20726732Y77491315D01*
X20690448Y77517677D01*
X20647783Y77573006D01*
X20641804Y77642619D01*
X20674409Y77704414D01*
X20735247Y77738772D01*
X20750081Y77741285D01*
X20787002Y77745254D01*
X20921847Y77795548D01*
X20921846Y77795548D01*
X20921850Y77795549D01*
X21037065Y77881799D01*
X21123315Y77997014D01*
X21173610Y78131862D01*
X21180019Y78191472D01*
X21180018Y79141697D01*
X26199019Y79141697D01*
X26199019Y78936994D01*
X26231041Y78734811D01*
X26294300Y78540122D01*
X26387234Y78357732D01*
X26507547Y78192132D01*
X26652305Y78047374D01*
X26807268Y77934789D01*
X26817909Y77927058D01*
X26889943Y77890355D01*
X26911148Y77879550D01*
X26961944Y77831575D01*
X26978739Y77763754D01*
X26956201Y77697619D01*
X26911148Y77658580D01*
X26818169Y77611205D01*
X26652624Y77490928D01*
X26652623Y77490928D01*
X26507936Y77346241D01*
X26507936Y77346240D01*
X26387659Y77180695D01*
X26294763Y76998375D01*
X26231528Y76803759D01*
X26222910Y76749345D01*
X27183833Y76749345D01*
X27179439Y76744951D01*
X27126778Y76653739D01*
X27099519Y76552006D01*
X27099519Y76446684D01*
X27126778Y76344951D01*
X27179439Y76253739D01*
X27183833Y76249345D01*
X26222910Y76249345D01*
X26231528Y76194932D01*
X26294763Y76000316D01*
X26387659Y75817996D01*
X26507936Y75652451D01*
X26507936Y75652450D01*
X26652623Y75507763D01*
X26818171Y75387484D01*
X26911147Y75340111D01*
X26961944Y75292137D01*
X26978739Y75224316D01*
X26956202Y75158181D01*
X26911149Y75119142D01*
X26817907Y75071632D01*
X26652305Y74951317D01*
X26507547Y74806559D01*
X26387234Y74640959D01*
X26294300Y74458569D01*
X26231041Y74263880D01*
X26199019Y74061697D01*
X26199019Y73856994D01*
X26231041Y73654811D01*
X26294300Y73460122D01*
X26387234Y73277732D01*
X26507547Y73112132D01*
X26652305Y72967374D01*
X26807268Y72854789D01*
X26817909Y72847058D01*
X26909359Y72800462D01*
X26910599Y72799830D01*
X26961395Y72751855D01*
X26978190Y72684034D01*
X26955653Y72617899D01*
X26910599Y72578860D01*
X26817905Y72531630D01*
X26652305Y72411317D01*
X26507547Y72266559D01*
X26387234Y72100959D01*
X26294300Y71918569D01*
X26231041Y71723880D01*
X26199019Y71521697D01*
X26199019Y71316994D01*
X26231041Y71114811D01*
X26294300Y70920122D01*
X26387234Y70737732D01*
X26507547Y70572132D01*
X26652305Y70427374D01*
X26807268Y70314789D01*
X26817909Y70307058D01*
X26934126Y70247842D01*
X27000295Y70214127D01*
X27000297Y70214127D01*
X27000300Y70214125D01*
X27104656Y70180218D01*
X27194984Y70150868D01*
X27296076Y70134857D01*
X27397167Y70118845D01*
X27397168Y70118845D01*
X27601870Y70118845D01*
X27601871Y70118845D01*
X27804053Y70150868D01*
X27998738Y70214125D01*
X28181129Y70307058D01*
X28308122Y70399323D01*
X28346732Y70427374D01*
X28346734Y70427377D01*
X28346738Y70427379D01*
X28491485Y70572126D01*
X28491487Y70572130D01*
X28491490Y70572132D01*
X28570228Y70680508D01*
X28611806Y70737735D01*
X28704739Y70920126D01*
X28767996Y71114811D01*
X28800019Y71316993D01*
X28800019Y71521697D01*
X28791776Y71573739D01*
X28767996Y71723880D01*
X28704737Y71918569D01*
X28611938Y72100695D01*
X28611806Y72100955D01*
X28604075Y72111596D01*
X28491490Y72266559D01*
X28346732Y72411317D01*
X28181133Y72531630D01*
X28174525Y72534997D01*
X28088436Y72578862D01*
X28037642Y72626834D01*
X28020847Y72694655D01*
X28043384Y72760790D01*
X28088436Y72799829D01*
X28181129Y72847058D01*
X28202289Y72862432D01*
X28346732Y72967374D01*
X28346734Y72967377D01*
X28346738Y72967379D01*
X28491485Y73112126D01*
X28491487Y73112130D01*
X28491490Y73112132D01*
X28544251Y73184755D01*
X28611806Y73277735D01*
X28704739Y73460126D01*
X28767996Y73654811D01*
X28800019Y73856993D01*
X28800019Y74061697D01*
X28767996Y74263880D01*
X28738646Y74354208D01*
X28704739Y74458564D01*
X28704737Y74458567D01*
X28704737Y74458569D01*
X28671022Y74524738D01*
X28611806Y74640955D01*
X28603852Y74651903D01*
X28491490Y74806559D01*
X28346732Y74951317D01*
X28181130Y75071632D01*
X28087888Y75119142D01*
X28037093Y75167116D01*
X28020298Y75234938D01*
X28042836Y75301072D01*
X28087890Y75340111D01*
X28180866Y75387484D01*
X28346413Y75507763D01*
X28346414Y75507763D01*
X28491101Y75652450D01*
X28491101Y75652451D01*
X28611378Y75817996D01*
X28704274Y76000316D01*
X28767509Y76194932D01*
X28776128Y76249345D01*
X27815205Y76249345D01*
X27819599Y76253739D01*
X27872260Y76344951D01*
X27899519Y76446684D01*
X27899519Y76552006D01*
X27872260Y76653739D01*
X27819599Y76744951D01*
X27815205Y76749345D01*
X28776128Y76749345D01*
X28767509Y76803759D01*
X28704274Y76998375D01*
X28611378Y77180695D01*
X28491101Y77346240D01*
X28491101Y77346241D01*
X28346414Y77490928D01*
X28180868Y77611205D01*
X28087889Y77658580D01*
X28037093Y77706555D01*
X28020298Y77774376D01*
X28042835Y77840510D01*
X28087889Y77879550D01*
X28092307Y77881801D01*
X28181129Y77927058D01*
X28202289Y77942432D01*
X28346732Y78047374D01*
X28346734Y78047377D01*
X28346738Y78047379D01*
X28491485Y78192126D01*
X28491487Y78192130D01*
X28491490Y78192132D01*
X28544251Y78264755D01*
X28611806Y78357735D01*
X28704739Y78540126D01*
X28767996Y78734811D01*
X28800019Y78936993D01*
X28800019Y79141697D01*
X28767996Y79343879D01*
X28704739Y79538564D01*
X28704737Y79538567D01*
X28704737Y79538569D01*
X28671022Y79604738D01*
X28611806Y79720955D01*
X28604075Y79731596D01*
X28491490Y79886559D01*
X28346732Y80031317D01*
X28181132Y80151630D01*
X28181131Y80151631D01*
X28181129Y80151632D01*
X28124172Y80180654D01*
X27998742Y80244564D01*
X27804053Y80307823D01*
X27629514Y80335467D01*
X27601871Y80339845D01*
X27397167Y80339845D01*
X27372848Y80335994D01*
X27194984Y80307823D01*
X27000295Y80244564D01*
X26817905Y80151630D01*
X26652305Y80031317D01*
X26507547Y79886559D01*
X26387234Y79720959D01*
X26294300Y79538569D01*
X26231041Y79343880D01*
X26199019Y79141697D01*
X21180018Y79141697D01*
X21180018Y79887217D01*
X21173610Y79946828D01*
X21160555Y79981829D01*
X21123316Y80081674D01*
X21123312Y80081681D01*
X21037066Y80196890D01*
X21037063Y80196893D01*
X20921854Y80283139D01*
X20921847Y80283143D01*
X20787001Y80333437D01*
X20787002Y80333437D01*
X20727402Y80339844D01*
X20727400Y80339845D01*
X20727392Y80339845D01*
X20727383Y80339845D01*
X19031648Y80339845D01*
X19031642Y80339844D01*
X18972035Y80333437D01*
X18837190Y80283143D01*
X18837183Y80283139D01*
X18721974Y80196893D01*
X18721971Y80196890D01*
X18635725Y80081681D01*
X18635721Y80081674D01*
X18585427Y79946828D01*
X18582781Y79922210D01*
X18579020Y79887222D01*
X18579019Y79887210D01*
X12350018Y79887210D01*
X12350018Y79922217D01*
X12343610Y79981828D01*
X12306367Y80081681D01*
X12293316Y80116674D01*
X12293312Y80116681D01*
X12207066Y80231890D01*
X12207063Y80231893D01*
X12091854Y80318139D01*
X12091847Y80318143D01*
X11957001Y80368437D01*
X11957002Y80368437D01*
X11897402Y80374844D01*
X11897400Y80374845D01*
X11897392Y80374845D01*
X11897383Y80374845D01*
X10101648Y80374845D01*
X10101642Y80374844D01*
X10042035Y80368437D01*
X9907190Y80318143D01*
X9907183Y80318139D01*
X9791974Y80231893D01*
X9791971Y80231890D01*
X9705725Y80116681D01*
X9705721Y80116674D01*
X9655427Y79981828D01*
X9649020Y79922229D01*
X9649020Y79922222D01*
X9649019Y79922210D01*
X7500019Y79922210D01*
X7500019Y83374845D01*
X7519704Y83441884D01*
X7572508Y83487639D01*
X7624019Y83498845D01*
X31375019Y83498845D01*
X31442058Y83479160D01*
G37*
G04 #@! TD.AperFunction*
G04 #@! TD*
G04 #@! TA.AperFunction,Conductor*
G04 #@! TO.N,Board_3-GND*
G36*
X61442058Y42479160D02*
G01*
X61487813Y42426356D01*
X61499019Y42374845D01*
X61499019Y7623845D01*
X61479334Y7556806D01*
X61426530Y7511051D01*
X61375019Y7499845D01*
X37624019Y7499845D01*
X37556980Y7519530D01*
X37511225Y7572334D01*
X37500019Y7623845D01*
X37500019Y16422210D01*
X39649019Y16422210D01*
X39649019Y14626475D01*
X39649020Y14626469D01*
X39655427Y14566862D01*
X39705721Y14432017D01*
X39705725Y14432010D01*
X39791971Y14316801D01*
X39791974Y14316798D01*
X39907183Y14230552D01*
X39907190Y14230548D01*
X40038601Y14181535D01*
X40094535Y14139664D01*
X40118952Y14074200D01*
X40104101Y14005927D01*
X40082950Y13977672D01*
X39969408Y13864130D01*
X39844470Y13692166D01*
X39747963Y13502760D01*
X39682272Y13300585D01*
X39649019Y13090632D01*
X39649019Y12878059D01*
X39682272Y12668106D01*
X39747963Y12465931D01*
X39844470Y12276525D01*
X39969409Y12104559D01*
X40119732Y11954236D01*
X40291698Y11829297D01*
X40291700Y11829296D01*
X40291703Y11829294D01*
X40301012Y11824551D01*
X40351809Y11776579D01*
X40368606Y11708758D01*
X40346071Y11642623D01*
X40301021Y11603583D01*
X40291962Y11598967D01*
X40120059Y11474073D01*
X40120054Y11474069D01*
X39969795Y11323810D01*
X39969791Y11323805D01*
X39844898Y11151903D01*
X39748423Y10962563D01*
X39682761Y10760475D01*
X39682761Y10760472D01*
X39672288Y10694345D01*
X40566507Y10694345D01*
X40533594Y10637338D01*
X40499519Y10510171D01*
X40499519Y10378519D01*
X40533594Y10251352D01*
X40566507Y10194345D01*
X39672288Y10194345D01*
X39682761Y10128219D01*
X39682761Y10128216D01*
X39748423Y9926128D01*
X39844898Y9736788D01*
X39969791Y9564886D01*
X39969795Y9564881D01*
X40120054Y9414622D01*
X40120059Y9414618D01*
X40291961Y9289725D01*
X40481301Y9193250D01*
X40683390Y9127588D01*
X40749519Y9117114D01*
X40749519Y10011333D01*
X40806526Y9978420D01*
X40933693Y9944345D01*
X41065345Y9944345D01*
X41192512Y9978420D01*
X41249519Y10011333D01*
X41249519Y9117115D01*
X41315645Y9127588D01*
X41315648Y9127588D01*
X41517736Y9193250D01*
X41707076Y9289725D01*
X41878978Y9414618D01*
X41878983Y9414622D01*
X42029242Y9564881D01*
X42029246Y9564886D01*
X42154142Y9736792D01*
X42154143Y9736793D01*
X42208106Y9842699D01*
X42208108Y9842704D01*
X42250614Y9926128D01*
X42316276Y10128216D01*
X42316277Y10128221D01*
X42326750Y10194345D01*
X41432531Y10194345D01*
X41464285Y10249345D01*
X49552288Y10249345D01*
X50446507Y10249345D01*
X50413594Y10192338D01*
X50379519Y10065171D01*
X50379519Y9933519D01*
X50413594Y9806352D01*
X50446507Y9749345D01*
X49552288Y9749345D01*
X49562761Y9683219D01*
X49562761Y9683216D01*
X49628423Y9481128D01*
X49724898Y9291788D01*
X49849791Y9119886D01*
X49849795Y9119881D01*
X50000054Y8969622D01*
X50000059Y8969618D01*
X50171961Y8844725D01*
X50361301Y8748250D01*
X50563390Y8682588D01*
X50629519Y8672114D01*
X50629519Y9566333D01*
X50686526Y9533420D01*
X50813693Y9499345D01*
X50945345Y9499345D01*
X51072512Y9533420D01*
X51129519Y9566333D01*
X51129519Y8672115D01*
X51195645Y8682588D01*
X51195648Y8682588D01*
X51397736Y8748250D01*
X51587076Y8844725D01*
X51758978Y8969618D01*
X51758983Y8969622D01*
X51909242Y9119881D01*
X51909246Y9119886D01*
X52034139Y9291787D01*
X52038751Y9300838D01*
X52086724Y9351636D01*
X52154544Y9368433D01*
X52220680Y9345898D01*
X52259723Y9300841D01*
X52264468Y9291528D01*
X52389409Y9119559D01*
X52539732Y8969236D01*
X52711698Y8844297D01*
X52711700Y8844296D01*
X52711703Y8844294D01*
X52901107Y8747788D01*
X53103276Y8682099D01*
X53313232Y8648845D01*
X53313233Y8648845D01*
X53525805Y8648845D01*
X53525806Y8648845D01*
X53735762Y8682099D01*
X53937931Y8747788D01*
X54127335Y8844294D01*
X54213657Y8907010D01*
X54299305Y8969236D01*
X54299307Y8969239D01*
X54299311Y8969241D01*
X54449623Y9119553D01*
X54449625Y9119557D01*
X54449628Y9119559D01*
X54574567Y9291525D01*
X54574569Y9291528D01*
X54574570Y9291529D01*
X54579033Y9300291D01*
X54627007Y9351086D01*
X54694827Y9367882D01*
X54760963Y9345346D01*
X54800005Y9300289D01*
X54804470Y9291525D01*
X54929409Y9119559D01*
X55079732Y8969236D01*
X55251698Y8844297D01*
X55251700Y8844296D01*
X55251703Y8844294D01*
X55441107Y8747788D01*
X55643276Y8682099D01*
X55853232Y8648845D01*
X55853233Y8648845D01*
X56065805Y8648845D01*
X56065806Y8648845D01*
X56275762Y8682099D01*
X56477931Y8747788D01*
X56667335Y8844294D01*
X56839311Y8969241D01*
X56952848Y9082779D01*
X57014167Y9116261D01*
X57083859Y9111277D01*
X57139793Y9069406D01*
X57156708Y9038428D01*
X57205721Y8907017D01*
X57205725Y8907010D01*
X57291971Y8791801D01*
X57291974Y8791798D01*
X57407183Y8705552D01*
X57407190Y8705548D01*
X57542036Y8655254D01*
X57542035Y8655254D01*
X57548963Y8654510D01*
X57601646Y8648845D01*
X59397391Y8648846D01*
X59457002Y8655254D01*
X59591850Y8705549D01*
X59707065Y8791799D01*
X59793315Y8907014D01*
X59843610Y9041862D01*
X59850019Y9101472D01*
X59850018Y10897217D01*
X59843610Y10956828D01*
X59842329Y10960262D01*
X59793316Y11091674D01*
X59793312Y11091681D01*
X59707066Y11206890D01*
X59707063Y11206893D01*
X59591854Y11293139D01*
X59591847Y11293143D01*
X59457001Y11343437D01*
X59457002Y11343437D01*
X59397402Y11349844D01*
X59397400Y11349845D01*
X59397392Y11349845D01*
X59397383Y11349845D01*
X57601648Y11349845D01*
X57601642Y11349844D01*
X57542035Y11343437D01*
X57407190Y11293143D01*
X57407183Y11293139D01*
X57291974Y11206893D01*
X57291971Y11206890D01*
X57205725Y11091681D01*
X57205722Y11091676D01*
X57156708Y10960262D01*
X57114836Y10904329D01*
X57049372Y10879912D01*
X56981099Y10894764D01*
X56952845Y10915915D01*
X56839305Y11029455D01*
X56667339Y11154394D01*
X56477933Y11250901D01*
X56477932Y11250902D01*
X56477931Y11250902D01*
X56275762Y11316591D01*
X56275760Y11316592D01*
X56275759Y11316592D01*
X56114476Y11342137D01*
X56065806Y11349845D01*
X55853232Y11349845D01*
X55804561Y11342137D01*
X55643279Y11316592D01*
X55441104Y11250901D01*
X55251698Y11154394D01*
X55079732Y11029455D01*
X54929409Y10879132D01*
X54804468Y10707163D01*
X54800003Y10698399D01*
X54752028Y10647603D01*
X54684207Y10630809D01*
X54618072Y10653347D01*
X54579035Y10698399D01*
X54574569Y10707163D01*
X54449628Y10879132D01*
X54299305Y11029455D01*
X54127339Y11154394D01*
X53937933Y11250901D01*
X53937932Y11250902D01*
X53937931Y11250902D01*
X53735762Y11316591D01*
X53735760Y11316592D01*
X53735759Y11316592D01*
X53574476Y11342137D01*
X53525806Y11349845D01*
X53313232Y11349845D01*
X53264561Y11342137D01*
X53103279Y11316592D01*
X52901104Y11250901D01*
X52711698Y11154394D01*
X52539732Y11029455D01*
X52389409Y10879132D01*
X52264468Y10707163D01*
X52259721Y10697846D01*
X52211746Y10647052D01*
X52143924Y10630258D01*
X52077790Y10652797D01*
X52038753Y10697850D01*
X52034141Y10706901D01*
X51909246Y10878805D01*
X51909242Y10878810D01*
X51758983Y11029069D01*
X51758978Y11029073D01*
X51587076Y11153966D01*
X51397734Y11250442D01*
X51195643Y11316104D01*
X51129519Y11326577D01*
X51129519Y10432357D01*
X51072512Y10465270D01*
X50945345Y10499345D01*
X50813693Y10499345D01*
X50686526Y10465270D01*
X50629519Y10432357D01*
X50629519Y11326577D01*
X50629518Y11326577D01*
X50563394Y11316104D01*
X50361303Y11250442D01*
X50171961Y11153966D01*
X50000059Y11029073D01*
X50000054Y11029069D01*
X49849795Y10878810D01*
X49849791Y10878805D01*
X49724898Y10706903D01*
X49628423Y10517563D01*
X49562761Y10315475D01*
X49562761Y10315472D01*
X49552288Y10249345D01*
X41464285Y10249345D01*
X41465444Y10251352D01*
X41499519Y10378519D01*
X41499519Y10510171D01*
X41465444Y10637338D01*
X41432531Y10694345D01*
X42326750Y10694345D01*
X42316276Y10760472D01*
X42316276Y10760475D01*
X42250614Y10962563D01*
X42154139Y11151903D01*
X42029246Y11323805D01*
X42029242Y11323810D01*
X41878983Y11474069D01*
X41878978Y11474073D01*
X41707074Y11598968D01*
X41698019Y11603582D01*
X41647225Y11651557D01*
X41630431Y11719379D01*
X41652970Y11785513D01*
X41698027Y11824552D01*
X41707335Y11829294D01*
X41786526Y11886830D01*
X41879305Y11954236D01*
X41879307Y11954239D01*
X41879311Y11954241D01*
X42029623Y12104553D01*
X42029625Y12104557D01*
X42029628Y12104559D01*
X42154567Y12276525D01*
X42154566Y12276525D01*
X42154570Y12276529D01*
X42251076Y12465933D01*
X42316765Y12668102D01*
X42350019Y12878058D01*
X42350019Y13090632D01*
X42316765Y13300588D01*
X42251076Y13502757D01*
X42154570Y13692161D01*
X42154568Y13692164D01*
X42154567Y13692166D01*
X42029628Y13864132D01*
X41916088Y13977672D01*
X41882603Y14038995D01*
X41887587Y14108687D01*
X41929459Y14164620D01*
X41960434Y14181535D01*
X42091850Y14230549D01*
X42207065Y14316799D01*
X42293315Y14432014D01*
X42343610Y14566862D01*
X42350019Y14626472D01*
X42350018Y16422217D01*
X42343610Y16481828D01*
X42298902Y16601697D01*
X49579019Y16601697D01*
X49579019Y16396994D01*
X49611041Y16194811D01*
X49674300Y16000122D01*
X49767234Y15817732D01*
X49887547Y15652132D01*
X50032305Y15507374D01*
X50187268Y15394789D01*
X50197909Y15387058D01*
X50314126Y15327842D01*
X50380295Y15294127D01*
X50380297Y15294127D01*
X50380300Y15294125D01*
X50484656Y15260218D01*
X50574984Y15230868D01*
X50676076Y15214857D01*
X50777167Y15198845D01*
X50777168Y15198845D01*
X50981870Y15198845D01*
X50981871Y15198845D01*
X51184053Y15230868D01*
X51378738Y15294125D01*
X51561129Y15387058D01*
X51654109Y15454613D01*
X51726732Y15507374D01*
X51726734Y15507377D01*
X51726738Y15507379D01*
X51871485Y15652126D01*
X51871487Y15652130D01*
X51871490Y15652132D01*
X51924251Y15724755D01*
X51991806Y15817735D01*
X52084739Y16000126D01*
X52147996Y16194811D01*
X52180019Y16396993D01*
X52180019Y16601697D01*
X57199019Y16601697D01*
X57199019Y16396994D01*
X57231041Y16194811D01*
X57294300Y16000122D01*
X57387234Y15817732D01*
X57507547Y15652132D01*
X57652305Y15507374D01*
X57807268Y15394789D01*
X57817909Y15387058D01*
X57934126Y15327842D01*
X58000295Y15294127D01*
X58000297Y15294127D01*
X58000300Y15294125D01*
X58104656Y15260218D01*
X58194984Y15230868D01*
X58296076Y15214857D01*
X58397167Y15198845D01*
X58397168Y15198845D01*
X58601870Y15198845D01*
X58601871Y15198845D01*
X58804053Y15230868D01*
X58998738Y15294125D01*
X59181129Y15387058D01*
X59274109Y15454613D01*
X59346732Y15507374D01*
X59346734Y15507377D01*
X59346738Y15507379D01*
X59491485Y15652126D01*
X59491487Y15652130D01*
X59491490Y15652132D01*
X59544251Y15724755D01*
X59611806Y15817735D01*
X59704739Y16000126D01*
X59767996Y16194811D01*
X59800019Y16396993D01*
X59800019Y16601697D01*
X59767996Y16803879D01*
X59763361Y16818143D01*
X59704737Y16998569D01*
X59671022Y17064738D01*
X59611806Y17180955D01*
X59604075Y17191596D01*
X59491490Y17346559D01*
X59346732Y17491317D01*
X59181132Y17611630D01*
X59181131Y17611631D01*
X59181129Y17611632D01*
X59124172Y17640654D01*
X58998742Y17704564D01*
X58804053Y17767823D01*
X58629514Y17795467D01*
X58601871Y17799845D01*
X58397167Y17799845D01*
X58372848Y17795994D01*
X58194984Y17767823D01*
X58000295Y17704564D01*
X57817905Y17611630D01*
X57652305Y17491317D01*
X57507547Y17346559D01*
X57387234Y17180959D01*
X57294300Y16998569D01*
X57231041Y16803880D01*
X57199019Y16601697D01*
X52180019Y16601697D01*
X52147996Y16803879D01*
X52143361Y16818143D01*
X52084737Y16998569D01*
X52051022Y17064738D01*
X51991806Y17180955D01*
X51984075Y17191596D01*
X51871490Y17346559D01*
X51726732Y17491317D01*
X51561132Y17611630D01*
X51561131Y17611631D01*
X51561129Y17611632D01*
X51504172Y17640654D01*
X51378742Y17704564D01*
X51184053Y17767823D01*
X51009514Y17795467D01*
X50981871Y17799845D01*
X50777167Y17799845D01*
X50752848Y17795994D01*
X50574984Y17767823D01*
X50380295Y17704564D01*
X50197905Y17611630D01*
X50032305Y17491317D01*
X49887547Y17346559D01*
X49767234Y17180959D01*
X49674300Y16998569D01*
X49611041Y16803880D01*
X49579019Y16601697D01*
X42298902Y16601697D01*
X42293315Y16616676D01*
X42293314Y16616677D01*
X42293312Y16616681D01*
X42207066Y16731890D01*
X42207063Y16731893D01*
X42091854Y16818139D01*
X42091847Y16818143D01*
X41957001Y16868437D01*
X41957002Y16868437D01*
X41897402Y16874844D01*
X41897400Y16874845D01*
X41897392Y16874845D01*
X41897383Y16874845D01*
X40101648Y16874845D01*
X40101642Y16874844D01*
X40042035Y16868437D01*
X39907190Y16818143D01*
X39907183Y16818139D01*
X39791974Y16731893D01*
X39791971Y16731890D01*
X39705725Y16616681D01*
X39705721Y16616674D01*
X39655427Y16481828D01*
X39649020Y16422229D01*
X39649020Y16422222D01*
X39649019Y16422210D01*
X37500019Y16422210D01*
X37500019Y27437210D01*
X39649019Y27437210D01*
X39649019Y25641475D01*
X39649020Y25641469D01*
X39655427Y25581862D01*
X39705721Y25447017D01*
X39705725Y25447010D01*
X39791971Y25331801D01*
X39791974Y25331798D01*
X39907183Y25245552D01*
X39907190Y25245548D01*
X40038601Y25196535D01*
X40094535Y25154664D01*
X40118952Y25089200D01*
X40104101Y25020927D01*
X40082950Y24992672D01*
X39969408Y24879130D01*
X39844470Y24707166D01*
X39747963Y24517760D01*
X39682272Y24315585D01*
X39649019Y24105632D01*
X39649019Y23893059D01*
X39682272Y23683106D01*
X39747963Y23480931D01*
X39844470Y23291525D01*
X39969409Y23119559D01*
X40119732Y22969236D01*
X40291698Y22844297D01*
X40291700Y22844296D01*
X40291703Y22844294D01*
X40301012Y22839551D01*
X40351809Y22791579D01*
X40368606Y22723758D01*
X40346071Y22657623D01*
X40301021Y22618583D01*
X40291962Y22613967D01*
X40120059Y22489073D01*
X40120054Y22489069D01*
X39969795Y22338810D01*
X39969791Y22338805D01*
X39844898Y22166903D01*
X39748423Y21977563D01*
X39682761Y21775475D01*
X39682761Y21775472D01*
X39672288Y21709345D01*
X40566507Y21709345D01*
X40533594Y21652338D01*
X40499519Y21525171D01*
X40499519Y21393519D01*
X40533594Y21266352D01*
X40566507Y21209345D01*
X39672288Y21209345D01*
X39682761Y21143219D01*
X39682761Y21143216D01*
X39748423Y20941128D01*
X39844898Y20751788D01*
X39969791Y20579886D01*
X39969795Y20579881D01*
X40120054Y20429622D01*
X40120059Y20429618D01*
X40291961Y20304725D01*
X40481301Y20208250D01*
X40683390Y20142588D01*
X40749519Y20132114D01*
X40749519Y21026333D01*
X40806526Y20993420D01*
X40933693Y20959345D01*
X41065345Y20959345D01*
X41192512Y20993420D01*
X41249519Y21026333D01*
X41249519Y20132115D01*
X41315645Y20142588D01*
X41315648Y20142588D01*
X41517736Y20208250D01*
X41707076Y20304725D01*
X41878978Y20429618D01*
X41878983Y20429622D01*
X42029242Y20579881D01*
X42029246Y20579886D01*
X42154139Y20751788D01*
X42250614Y20941128D01*
X42316276Y21143216D01*
X42316276Y21143219D01*
X42326750Y21209345D01*
X41432531Y21209345D01*
X41465444Y21266352D01*
X41499519Y21393519D01*
X41499519Y21525171D01*
X41465444Y21652338D01*
X41432531Y21709345D01*
X42326750Y21709345D01*
X42316276Y21775472D01*
X42316276Y21775475D01*
X42250614Y21977563D01*
X42154139Y22166903D01*
X42029246Y22338805D01*
X42029242Y22338810D01*
X41878983Y22489069D01*
X41856051Y22505730D01*
X41719810Y22601697D01*
X49579019Y22601697D01*
X49579019Y22396994D01*
X49611041Y22194811D01*
X49674300Y22000122D01*
X49767234Y21817732D01*
X49887547Y21652132D01*
X50032305Y21507374D01*
X50187268Y21394789D01*
X50197909Y21387058D01*
X50314126Y21327842D01*
X50380295Y21294127D01*
X50380297Y21294127D01*
X50380300Y21294125D01*
X50484656Y21260218D01*
X50574984Y21230868D01*
X50676076Y21214857D01*
X50777167Y21198845D01*
X50777168Y21198845D01*
X50981870Y21198845D01*
X50981871Y21198845D01*
X51184053Y21230868D01*
X51378738Y21294125D01*
X51561129Y21387058D01*
X51654109Y21454613D01*
X51726732Y21507374D01*
X51726734Y21507377D01*
X51726738Y21507379D01*
X51871485Y21652126D01*
X51871487Y21652130D01*
X51871490Y21652132D01*
X51961100Y21775472D01*
X51991806Y21817735D01*
X52084739Y22000126D01*
X52147996Y22194811D01*
X52180019Y22396993D01*
X52180019Y22601697D01*
X57199019Y22601697D01*
X57199019Y22396994D01*
X57231041Y22194811D01*
X57294300Y22000122D01*
X57387234Y21817732D01*
X57507547Y21652132D01*
X57652305Y21507374D01*
X57807268Y21394789D01*
X57817909Y21387058D01*
X57934126Y21327842D01*
X58000295Y21294127D01*
X58000297Y21294127D01*
X58000300Y21294125D01*
X58104656Y21260218D01*
X58194984Y21230868D01*
X58296076Y21214857D01*
X58397167Y21198845D01*
X58397168Y21198845D01*
X58601870Y21198845D01*
X58601871Y21198845D01*
X58804053Y21230868D01*
X58998738Y21294125D01*
X59181129Y21387058D01*
X59274109Y21454613D01*
X59346732Y21507374D01*
X59346734Y21507377D01*
X59346738Y21507379D01*
X59491485Y21652126D01*
X59491487Y21652130D01*
X59491490Y21652132D01*
X59581100Y21775472D01*
X59611806Y21817735D01*
X59704739Y22000126D01*
X59767996Y22194811D01*
X59800019Y22396993D01*
X59800019Y22601697D01*
X59767996Y22803879D01*
X59764651Y22814173D01*
X59714268Y22969236D01*
X59704739Y22998564D01*
X59704737Y22998567D01*
X59704737Y22998569D01*
X59671022Y23064738D01*
X59611806Y23180955D01*
X59604075Y23191596D01*
X59491490Y23346559D01*
X59346732Y23491317D01*
X59181132Y23611630D01*
X59181131Y23611631D01*
X59181129Y23611632D01*
X59124172Y23640654D01*
X58998742Y23704564D01*
X58804053Y23767823D01*
X58629514Y23795467D01*
X58601871Y23799845D01*
X58397167Y23799845D01*
X58372848Y23795994D01*
X58194984Y23767823D01*
X58000295Y23704564D01*
X57817905Y23611630D01*
X57652305Y23491317D01*
X57507547Y23346559D01*
X57387234Y23180959D01*
X57294300Y22998569D01*
X57231041Y22803880D01*
X57199019Y22601697D01*
X52180019Y22601697D01*
X52147996Y22803879D01*
X52144651Y22814173D01*
X52094268Y22969236D01*
X52084739Y22998564D01*
X52084737Y22998567D01*
X52084737Y22998569D01*
X52051022Y23064738D01*
X51991806Y23180955D01*
X51984075Y23191596D01*
X51871490Y23346559D01*
X51726732Y23491317D01*
X51561132Y23611630D01*
X51561131Y23611631D01*
X51561129Y23611632D01*
X51504172Y23640654D01*
X51378742Y23704564D01*
X51184053Y23767823D01*
X51009514Y23795467D01*
X50981871Y23799845D01*
X50777167Y23799845D01*
X50752848Y23795994D01*
X50574984Y23767823D01*
X50380295Y23704564D01*
X50197905Y23611630D01*
X50032305Y23491317D01*
X49887547Y23346559D01*
X49767234Y23180959D01*
X49674300Y22998569D01*
X49611041Y22803880D01*
X49579019Y22601697D01*
X41719810Y22601697D01*
X41682909Y22627690D01*
X41666452Y22648397D01*
X41647225Y22666557D01*
X41645055Y22675320D01*
X41639437Y22682389D01*
X41636787Y22708709D01*
X41630431Y22734379D01*
X41633343Y22742925D01*
X41632439Y22751907D01*
X41644437Y22775478D01*
X41652970Y22800513D01*
X41660506Y22807043D01*
X41664136Y22814173D01*
X41678258Y22822424D01*
X41698027Y22839552D01*
X41707335Y22844294D01*
X41786526Y22901830D01*
X41879305Y22969236D01*
X41879307Y22969239D01*
X41879311Y22969241D01*
X42029623Y23119553D01*
X42029625Y23119557D01*
X42029628Y23119559D01*
X42154567Y23291525D01*
X42154566Y23291525D01*
X42154570Y23291529D01*
X42251076Y23480933D01*
X42316765Y23683102D01*
X42350019Y23893058D01*
X42350019Y24105632D01*
X42316765Y24315588D01*
X42251076Y24517757D01*
X42154570Y24707161D01*
X42154568Y24707164D01*
X42154567Y24707166D01*
X42029628Y24879132D01*
X41916088Y24992672D01*
X41882603Y25053995D01*
X41887587Y25123687D01*
X41929459Y25179620D01*
X41960434Y25196535D01*
X42091850Y25245549D01*
X42207065Y25331799D01*
X42293315Y25447014D01*
X42343610Y25581862D01*
X42350019Y25641472D01*
X42350018Y27437217D01*
X42343610Y27496828D01*
X42293315Y27631676D01*
X42293314Y27631677D01*
X42293312Y27631681D01*
X42207066Y27746890D01*
X42207063Y27746893D01*
X42091854Y27833139D01*
X42091847Y27833143D01*
X41957001Y27883437D01*
X41957002Y27883437D01*
X41897402Y27889844D01*
X41897400Y27889845D01*
X41897392Y27889845D01*
X41897383Y27889845D01*
X40101648Y27889845D01*
X40101642Y27889844D01*
X40042035Y27883437D01*
X39907190Y27833143D01*
X39907183Y27833139D01*
X39791974Y27746893D01*
X39791971Y27746890D01*
X39705725Y27631681D01*
X39705721Y27631674D01*
X39655427Y27496828D01*
X39649020Y27437229D01*
X39649020Y27437222D01*
X39649019Y27437210D01*
X37500019Y27437210D01*
X37500019Y38922210D01*
X39649019Y38922210D01*
X39649019Y37126475D01*
X39649020Y37126469D01*
X39655427Y37066862D01*
X39705721Y36932017D01*
X39705725Y36932010D01*
X39791971Y36816801D01*
X39791974Y36816798D01*
X39907183Y36730552D01*
X39907190Y36730548D01*
X40038601Y36681535D01*
X40094535Y36639664D01*
X40118952Y36574200D01*
X40104101Y36505927D01*
X40082950Y36477672D01*
X39969408Y36364130D01*
X39844470Y36192166D01*
X39747963Y36002760D01*
X39682272Y35800585D01*
X39649019Y35590632D01*
X39649019Y35378059D01*
X39678042Y35194811D01*
X39682273Y35168102D01*
X39736853Y35000122D01*
X39747963Y34965931D01*
X39844470Y34776525D01*
X39969409Y34604559D01*
X40119732Y34454236D01*
X40291698Y34329297D01*
X40291700Y34329296D01*
X40291703Y34329294D01*
X40301012Y34324551D01*
X40351809Y34276579D01*
X40368606Y34208758D01*
X40346071Y34142623D01*
X40301021Y34103583D01*
X40291962Y34098967D01*
X40120059Y33974073D01*
X40120054Y33974069D01*
X39969795Y33823810D01*
X39969791Y33823805D01*
X39844898Y33651903D01*
X39748423Y33462563D01*
X39682761Y33260475D01*
X39682761Y33260472D01*
X39672288Y33194345D01*
X40566507Y33194345D01*
X40533594Y33137338D01*
X40499519Y33010171D01*
X40499519Y32878519D01*
X40533594Y32751352D01*
X40566507Y32694345D01*
X39672288Y32694345D01*
X39682761Y32628219D01*
X39682761Y32628216D01*
X39748423Y32426128D01*
X39844898Y32236788D01*
X39969791Y32064886D01*
X39969795Y32064881D01*
X40120054Y31914622D01*
X40120059Y31914618D01*
X40291961Y31789725D01*
X40481301Y31693250D01*
X40683390Y31627588D01*
X40749519Y31617114D01*
X40749519Y32511333D01*
X40806526Y32478420D01*
X40933693Y32444345D01*
X41065345Y32444345D01*
X41192512Y32478420D01*
X41249519Y32511333D01*
X41249519Y31617115D01*
X41315645Y31627588D01*
X41315648Y31627588D01*
X41517736Y31693250D01*
X41707076Y31789725D01*
X41878978Y31914618D01*
X41878983Y31914622D01*
X42029242Y32064881D01*
X42029246Y32064886D01*
X42154139Y32236788D01*
X42250614Y32426128D01*
X42316276Y32628216D01*
X42316276Y32628219D01*
X42326750Y32694345D01*
X41432531Y32694345D01*
X41465444Y32751352D01*
X41499519Y32878519D01*
X41499519Y33010171D01*
X41465444Y33137338D01*
X41432531Y33194345D01*
X42326750Y33194345D01*
X42316276Y33260472D01*
X42316276Y33260475D01*
X42250614Y33462563D01*
X42154139Y33651903D01*
X42029246Y33823805D01*
X42029242Y33823810D01*
X41878983Y33974069D01*
X41878978Y33974073D01*
X41707074Y34098968D01*
X41698019Y34103582D01*
X41647225Y34151557D01*
X41630431Y34219379D01*
X41652970Y34285513D01*
X41698027Y34324552D01*
X41707335Y34329294D01*
X41787427Y34387484D01*
X41879305Y34454236D01*
X41879307Y34454239D01*
X41879311Y34454241D01*
X42029623Y34604553D01*
X42029625Y34604557D01*
X42029628Y34604559D01*
X42154567Y34776525D01*
X42154566Y34776525D01*
X42154570Y34776529D01*
X42251076Y34965933D01*
X42316765Y35168102D01*
X42350019Y35378058D01*
X42350019Y35590632D01*
X42316765Y35800588D01*
X42251076Y36002757D01*
X42154570Y36192161D01*
X42154568Y36192164D01*
X42154567Y36192166D01*
X42029628Y36364132D01*
X41916088Y36477672D01*
X41882603Y36538995D01*
X41887587Y36608687D01*
X41929459Y36664620D01*
X41960434Y36681535D01*
X42091850Y36730549D01*
X42207065Y36816799D01*
X42293315Y36932014D01*
X42343610Y37066862D01*
X42350019Y37126472D01*
X42350018Y38887210D01*
X48579019Y38887210D01*
X48579019Y37191475D01*
X48579020Y37191469D01*
X48585427Y37131862D01*
X48635721Y36997017D01*
X48635725Y36997010D01*
X48721971Y36881801D01*
X48721974Y36881798D01*
X48837183Y36795552D01*
X48837190Y36795548D01*
X48882137Y36778784D01*
X48972036Y36745254D01*
X49008960Y36741285D01*
X49073508Y36714549D01*
X49113357Y36657157D01*
X49115852Y36587332D01*
X49080200Y36527243D01*
X49068590Y36517679D01*
X49032303Y36491315D01*
X48887547Y36346559D01*
X48767234Y36180959D01*
X48674300Y35998569D01*
X48611041Y35803880D01*
X48579019Y35601697D01*
X48579019Y35396994D01*
X48611041Y35194811D01*
X48674300Y35000122D01*
X48767234Y34817732D01*
X48887547Y34652132D01*
X49032305Y34507374D01*
X49187268Y34394789D01*
X49197909Y34387058D01*
X49289359Y34340462D01*
X49290599Y34339830D01*
X49341395Y34291855D01*
X49358190Y34224034D01*
X49335653Y34157899D01*
X49290599Y34118860D01*
X49197905Y34071630D01*
X49032305Y33951317D01*
X48887547Y33806559D01*
X48767234Y33640959D01*
X48674300Y33458569D01*
X48611041Y33263880D01*
X48579019Y33061697D01*
X48579019Y32856994D01*
X48611041Y32654811D01*
X48674300Y32460122D01*
X48767234Y32277732D01*
X48887547Y32112132D01*
X49032305Y31967374D01*
X49187268Y31854789D01*
X49197909Y31847058D01*
X49269943Y31810355D01*
X49291148Y31799550D01*
X49341944Y31751575D01*
X49358739Y31683754D01*
X49336201Y31617619D01*
X49291148Y31578580D01*
X49198169Y31531205D01*
X49032624Y31410928D01*
X49032623Y31410928D01*
X48887936Y31266241D01*
X48887936Y31266240D01*
X48767659Y31100695D01*
X48674763Y30918375D01*
X48611528Y30723759D01*
X48602910Y30669345D01*
X49563833Y30669345D01*
X49559439Y30664951D01*
X49506778Y30573739D01*
X49479519Y30472006D01*
X49479519Y30366684D01*
X49506778Y30264951D01*
X49559439Y30173739D01*
X49563833Y30169345D01*
X48602910Y30169345D01*
X48611528Y30114932D01*
X48674763Y29920316D01*
X48767659Y29737996D01*
X48887936Y29572451D01*
X48887936Y29572450D01*
X49032623Y29427763D01*
X49198169Y29307486D01*
X49380487Y29214591D01*
X49575097Y29151357D01*
X49629519Y29142738D01*
X49629519Y30103659D01*
X49633913Y30099265D01*
X49725125Y30046604D01*
X49826858Y30019345D01*
X49932180Y30019345D01*
X50033913Y30046604D01*
X50125125Y30099265D01*
X50129519Y30103659D01*
X50129519Y29142739D01*
X50183940Y29151357D01*
X50378550Y29214591D01*
X50560868Y29307486D01*
X50726413Y29427763D01*
X50726414Y29427763D01*
X50871101Y29572450D01*
X50871101Y29572451D01*
X50991378Y29737996D01*
X51084274Y29920316D01*
X51147509Y30114932D01*
X51156128Y30169345D01*
X50195205Y30169345D01*
X50199599Y30173739D01*
X50252260Y30264951D01*
X50279519Y30366684D01*
X50279519Y30472006D01*
X50252260Y30573739D01*
X50199599Y30664951D01*
X50195205Y30669345D01*
X51156128Y30669345D01*
X51147509Y30723759D01*
X51084274Y30918375D01*
X50991378Y31100695D01*
X50871101Y31266240D01*
X50871101Y31266241D01*
X50726414Y31410928D01*
X50560868Y31531205D01*
X50467889Y31578580D01*
X50417093Y31626555D01*
X50400298Y31694376D01*
X50422835Y31760510D01*
X50467889Y31799550D01*
X50468439Y31799830D01*
X50561129Y31847058D01*
X50582289Y31862432D01*
X50726732Y31967374D01*
X50726734Y31967377D01*
X50726738Y31967379D01*
X50871485Y32112126D01*
X50871487Y32112130D01*
X50871490Y32112132D01*
X50924251Y32184755D01*
X50991806Y32277735D01*
X51084739Y32460126D01*
X51147996Y32654811D01*
X51180019Y32856993D01*
X51180019Y33061697D01*
X51147996Y33263880D01*
X51118646Y33354208D01*
X51084739Y33458564D01*
X51084737Y33458567D01*
X51084737Y33458569D01*
X51051022Y33524738D01*
X50991806Y33640955D01*
X50983852Y33651903D01*
X50871490Y33806559D01*
X50726732Y33951317D01*
X50561133Y34071630D01*
X50507479Y34098968D01*
X50468436Y34118862D01*
X50417642Y34166834D01*
X50400847Y34234655D01*
X50423384Y34300790D01*
X50468436Y34339829D01*
X50561129Y34387058D01*
X50582289Y34402432D01*
X50726732Y34507374D01*
X50726734Y34507377D01*
X50726738Y34507379D01*
X50871485Y34652126D01*
X50871487Y34652130D01*
X50871490Y34652132D01*
X50961868Y34776529D01*
X50991806Y34817735D01*
X51084739Y35000126D01*
X51147996Y35194811D01*
X51180019Y35396993D01*
X51180019Y35601697D01*
X51171776Y35653739D01*
X51147996Y35803880D01*
X51084737Y35998569D01*
X50991938Y36180695D01*
X50991806Y36180955D01*
X50983661Y36192166D01*
X50871490Y36346559D01*
X50726738Y36491311D01*
X50726732Y36491315D01*
X50690448Y36517677D01*
X50647783Y36573006D01*
X50641804Y36642619D01*
X50674409Y36704414D01*
X50735247Y36738772D01*
X50750081Y36741285D01*
X50787002Y36745254D01*
X50921847Y36795548D01*
X50921846Y36795548D01*
X50921850Y36795549D01*
X51037065Y36881799D01*
X51123315Y36997014D01*
X51173610Y37131862D01*
X51180019Y37191472D01*
X51180018Y38141697D01*
X56199019Y38141697D01*
X56199019Y37936994D01*
X56231041Y37734811D01*
X56294300Y37540122D01*
X56387234Y37357732D01*
X56507547Y37192132D01*
X56652305Y37047374D01*
X56807268Y36934789D01*
X56817909Y36927058D01*
X56889943Y36890355D01*
X56911148Y36879550D01*
X56961944Y36831575D01*
X56978739Y36763754D01*
X56956201Y36697619D01*
X56911148Y36658580D01*
X56818169Y36611205D01*
X56652624Y36490928D01*
X56652623Y36490928D01*
X56507936Y36346241D01*
X56507936Y36346240D01*
X56387659Y36180695D01*
X56294763Y35998375D01*
X56231528Y35803759D01*
X56222910Y35749345D01*
X57183833Y35749345D01*
X57179439Y35744951D01*
X57126778Y35653739D01*
X57099519Y35552006D01*
X57099519Y35446684D01*
X57126778Y35344951D01*
X57179439Y35253739D01*
X57183833Y35249345D01*
X56222910Y35249345D01*
X56231528Y35194932D01*
X56294763Y35000316D01*
X56387659Y34817996D01*
X56507936Y34652451D01*
X56507936Y34652450D01*
X56652623Y34507763D01*
X56818171Y34387484D01*
X56911147Y34340111D01*
X56961944Y34292137D01*
X56978739Y34224316D01*
X56956202Y34158181D01*
X56911149Y34119142D01*
X56817907Y34071632D01*
X56652305Y33951317D01*
X56507547Y33806559D01*
X56387234Y33640959D01*
X56294300Y33458569D01*
X56231041Y33263880D01*
X56199019Y33061697D01*
X56199019Y32856994D01*
X56231041Y32654811D01*
X56294300Y32460122D01*
X56387234Y32277732D01*
X56507547Y32112132D01*
X56652305Y31967374D01*
X56807268Y31854789D01*
X56817909Y31847058D01*
X56909359Y31800462D01*
X56910599Y31799830D01*
X56961395Y31751855D01*
X56978190Y31684034D01*
X56955653Y31617899D01*
X56910599Y31578860D01*
X56817905Y31531630D01*
X56652305Y31411317D01*
X56507547Y31266559D01*
X56387234Y31100959D01*
X56294300Y30918569D01*
X56231041Y30723880D01*
X56199019Y30521697D01*
X56199019Y30316994D01*
X56231041Y30114811D01*
X56294300Y29920122D01*
X56387234Y29737732D01*
X56507547Y29572132D01*
X56652305Y29427374D01*
X56807268Y29314789D01*
X56817909Y29307058D01*
X56934126Y29247842D01*
X57000295Y29214127D01*
X57000297Y29214127D01*
X57000300Y29214125D01*
X57104656Y29180218D01*
X57194984Y29150868D01*
X57296076Y29134857D01*
X57397167Y29118845D01*
X57397168Y29118845D01*
X57601870Y29118845D01*
X57601871Y29118845D01*
X57804053Y29150868D01*
X57998738Y29214125D01*
X58181129Y29307058D01*
X58308122Y29399323D01*
X58346732Y29427374D01*
X58346734Y29427377D01*
X58346738Y29427379D01*
X58491485Y29572126D01*
X58491487Y29572130D01*
X58491490Y29572132D01*
X58570228Y29680508D01*
X58611806Y29737735D01*
X58704739Y29920126D01*
X58767996Y30114811D01*
X58800019Y30316993D01*
X58800019Y30521697D01*
X58791776Y30573739D01*
X58767996Y30723880D01*
X58704737Y30918569D01*
X58611938Y31100695D01*
X58611806Y31100955D01*
X58604075Y31111596D01*
X58491490Y31266559D01*
X58346732Y31411317D01*
X58181133Y31531630D01*
X58174525Y31534997D01*
X58088436Y31578862D01*
X58037642Y31626834D01*
X58020847Y31694655D01*
X58043384Y31760790D01*
X58088436Y31799829D01*
X58181129Y31847058D01*
X58202289Y31862432D01*
X58346732Y31967374D01*
X58346734Y31967377D01*
X58346738Y31967379D01*
X58491485Y32112126D01*
X58491487Y32112130D01*
X58491490Y32112132D01*
X58544251Y32184755D01*
X58611806Y32277735D01*
X58704739Y32460126D01*
X58767996Y32654811D01*
X58800019Y32856993D01*
X58800019Y33061697D01*
X58767996Y33263880D01*
X58738646Y33354208D01*
X58704739Y33458564D01*
X58704737Y33458567D01*
X58704737Y33458569D01*
X58671022Y33524738D01*
X58611806Y33640955D01*
X58603852Y33651903D01*
X58491490Y33806559D01*
X58346732Y33951317D01*
X58181130Y34071632D01*
X58087888Y34119142D01*
X58037093Y34167116D01*
X58020298Y34234938D01*
X58042836Y34301072D01*
X58087890Y34340111D01*
X58180866Y34387484D01*
X58346413Y34507763D01*
X58346414Y34507763D01*
X58491101Y34652450D01*
X58491101Y34652451D01*
X58611378Y34817996D01*
X58704274Y35000316D01*
X58767509Y35194932D01*
X58776128Y35249345D01*
X57815205Y35249345D01*
X57819599Y35253739D01*
X57872260Y35344951D01*
X57899519Y35446684D01*
X57899519Y35552006D01*
X57872260Y35653739D01*
X57819599Y35744951D01*
X57815205Y35749345D01*
X58776128Y35749345D01*
X58767509Y35803759D01*
X58704274Y35998375D01*
X58611378Y36180695D01*
X58491101Y36346240D01*
X58491101Y36346241D01*
X58346414Y36490928D01*
X58180868Y36611205D01*
X58087889Y36658580D01*
X58037093Y36706555D01*
X58020298Y36774376D01*
X58042835Y36840510D01*
X58087889Y36879550D01*
X58092307Y36881801D01*
X58181129Y36927058D01*
X58202289Y36942432D01*
X58346732Y37047374D01*
X58346734Y37047377D01*
X58346738Y37047379D01*
X58491485Y37192126D01*
X58491487Y37192130D01*
X58491490Y37192132D01*
X58544251Y37264755D01*
X58611806Y37357735D01*
X58704739Y37540126D01*
X58767996Y37734811D01*
X58800019Y37936993D01*
X58800019Y38141697D01*
X58767996Y38343879D01*
X58704739Y38538564D01*
X58704737Y38538567D01*
X58704737Y38538569D01*
X58671022Y38604738D01*
X58611806Y38720955D01*
X58604075Y38731596D01*
X58491490Y38886559D01*
X58346732Y39031317D01*
X58181132Y39151630D01*
X58181131Y39151631D01*
X58181129Y39151632D01*
X58124172Y39180654D01*
X57998742Y39244564D01*
X57804053Y39307823D01*
X57629514Y39335467D01*
X57601871Y39339845D01*
X57397167Y39339845D01*
X57372848Y39335994D01*
X57194984Y39307823D01*
X57000295Y39244564D01*
X56817905Y39151630D01*
X56652305Y39031317D01*
X56507547Y38886559D01*
X56387234Y38720959D01*
X56294300Y38538569D01*
X56231041Y38343880D01*
X56199019Y38141697D01*
X51180018Y38141697D01*
X51180018Y38887217D01*
X51173610Y38946828D01*
X51160555Y38981829D01*
X51123316Y39081674D01*
X51123312Y39081681D01*
X51037066Y39196890D01*
X51037063Y39196893D01*
X50921854Y39283139D01*
X50921847Y39283143D01*
X50787001Y39333437D01*
X50787002Y39333437D01*
X50727402Y39339844D01*
X50727400Y39339845D01*
X50727392Y39339845D01*
X50727383Y39339845D01*
X49031648Y39339845D01*
X49031642Y39339844D01*
X48972035Y39333437D01*
X48837190Y39283143D01*
X48837183Y39283139D01*
X48721974Y39196893D01*
X48721971Y39196890D01*
X48635725Y39081681D01*
X48635721Y39081674D01*
X48585427Y38946828D01*
X48582781Y38922210D01*
X48579020Y38887222D01*
X48579019Y38887210D01*
X42350018Y38887210D01*
X42350018Y38922217D01*
X42343610Y38981828D01*
X42306367Y39081681D01*
X42293316Y39116674D01*
X42293312Y39116681D01*
X42207066Y39231890D01*
X42207063Y39231893D01*
X42091854Y39318139D01*
X42091847Y39318143D01*
X41957001Y39368437D01*
X41957002Y39368437D01*
X41897402Y39374844D01*
X41897400Y39374845D01*
X41897392Y39374845D01*
X41897383Y39374845D01*
X40101648Y39374845D01*
X40101642Y39374844D01*
X40042035Y39368437D01*
X39907190Y39318143D01*
X39907183Y39318139D01*
X39791974Y39231893D01*
X39791971Y39231890D01*
X39705725Y39116681D01*
X39705721Y39116674D01*
X39655427Y38981828D01*
X39649020Y38922229D01*
X39649020Y38922222D01*
X39649019Y38922210D01*
X37500019Y38922210D01*
X37500019Y42374845D01*
X37519704Y42441884D01*
X37572508Y42487639D01*
X37624019Y42498845D01*
X61375019Y42498845D01*
X61442058Y42479160D01*
G37*
G04 #@! TD.AperFunction*
G04 #@! TD*
D16*
X33831156Y29443331D02*
X33706918Y29291946D01*
X36147102Y61988533D02*
X36337071Y61940948D01*
X44549537Y44998142D02*
X44743256Y44969406D01*
X53696114Y5403242D02*
X53595433Y5571218D01*
X5075563Y46616045D02*
X5029458Y46755608D01*
X15469579Y5755608D02*
X15423474Y5616045D01*
X14882819Y44923301D02*
X15055533Y44830983D01*
X53943504Y44830983D02*
X54116218Y44923301D01*
X35708524Y44956329D02*
X35949500Y44998142D01*
X45403604Y6427473D02*
X45456502Y6290340D01*
X63555533Y70167708D02*
X63427646Y70095260D01*
X35029458Y44243083D02*
X35075563Y44382646D01*
X35327631Y61740555D02*
X35484930Y61857216D01*
X53595433Y6427473D02*
X53667881Y6555360D01*
X35075563Y5616045D02*
X35029458Y5755608D01*
X5167881Y5443331D02*
X5095433Y5571218D01*
X15441121Y85336898D02*
X15488706Y85146929D01*
X15456502Y47290340D02*
X15488706Y47146929D01*
X6471444Y29117306D02*
X6290513Y29042362D01*
X61999519Y6999345D02*
X36999519Y6999345D01*
X15096277Y47799345D02*
X15134277Y47772583D01*
X14790513Y5042362D02*
X14647102Y5010158D01*
X5949500Y20998142D02*
X6098438Y20994535D01*
X63999519Y61000333D02*
X63999519Y46998358D01*
X32443504Y20830983D02*
X32571391Y20903431D01*
X45331156Y47555360D02*
X45403604Y47427473D01*
X15357389Y5484757D02*
X15272756Y5364587D01*
X6634277Y20772583D02*
X6772756Y20634104D01*
X5571391Y20903431D02*
X5755781Y20969406D01*
X5527593Y70117306D02*
X5364760Y70226108D01*
X5292119Y85706745D02*
X5484930Y85857216D01*
X33903604Y46571218D02*
X33831156Y46443331D01*
X63049537Y61998142D02*
X63195414Y61980150D01*
X45171406Y85740555D02*
X45272756Y85634104D01*
X53899469Y6799345D02*
X45096277Y6799345D01*
X5141648Y44513934D02*
X5292119Y44706745D01*
X34999519Y46998358D02*
X35000722Y61049364D01*
X53906901Y84199345D02*
X53827631Y84258136D01*
X15171406Y84258136D02*
X15092136Y84199345D01*
X45092136Y84199345D02*
X53906901Y84199345D01*
X36471444Y70117306D02*
X36290513Y70042362D01*
X61999519Y42999345D02*
X61999519Y6999345D01*
X35851935Y20988533D02*
X36000506Y20999345D01*
X36671406Y20740555D02*
X36800117Y20598544D01*
X63595622Y29195941D02*
X63427646Y29095260D01*
X15331156Y6555360D02*
X15403604Y6427473D01*
X35141648Y5484757D02*
X35075563Y5616045D01*
X24255781Y44969406D02*
X24449500Y44998142D01*
X32199519Y29404640D02*
X32199519Y20592037D01*
X45134277Y6772583D02*
X45240728Y6671233D01*
X33514107Y44857216D02*
X33706918Y44706745D01*
X32199519Y61595900D02*
X32258309Y61671233D01*
X45272756Y85634104D02*
X45381558Y85471271D01*
X35949500Y44998142D02*
X44549537Y44998142D01*
X44549537Y85998142D02*
X44743256Y85969406D01*
X63514107Y85857216D02*
X63706918Y85706745D01*
X23758309Y46327458D02*
X23641648Y46484757D01*
X63049537Y20998142D02*
X63290513Y20956329D01*
X6772756Y70364587D02*
X6634277Y70226108D01*
X15456502Y46708351D02*
X15403604Y46571218D01*
X44743256Y46029285D02*
X44500506Y45999345D01*
X6290513Y20956329D02*
X6471444Y20881385D01*
X45134277Y5226108D02*
X45014107Y5141475D01*
X54449500Y46000549D02*
X54255781Y46029285D01*
X35029458Y85243083D02*
X35075563Y85382646D01*
X23529458Y84755608D02*
X23500722Y84949327D01*
X54303623Y85980150D02*
X54449500Y85998142D01*
X63290513Y29042362D02*
X63098438Y29004156D01*
X33555533Y61830983D02*
X33740728Y61671233D01*
X15096277Y6799345D02*
X15134277Y6772583D01*
X24449500Y5000549D02*
X24255781Y5029285D01*
X6514107Y61857216D02*
X6671406Y61740555D01*
X45171406Y43258136D02*
X45092136Y43199345D01*
X33857389Y85513934D02*
X33923474Y85382646D01*
X53500722Y84949327D02*
X53510331Y85146929D01*
X63831156Y46443331D02*
X63671406Y46258136D01*
X5708524Y44956329D02*
X5949500Y44998142D01*
X33098438Y70004156D02*
X32900599Y70004156D01*
X32226281Y70364587D02*
X32199519Y70404640D01*
X15134277Y6772583D02*
X15240728Y6671233D01*
X24449500Y46000549D02*
X24255781Y46029285D01*
X24071391Y46095260D02*
X23903415Y46195941D01*
X62199519Y29404640D02*
X62199519Y20599024D01*
X53529458Y5755608D02*
X53504329Y5900426D01*
X14882819Y46075390D02*
X14743256Y46029285D01*
X63923474Y5616045D02*
X63857389Y5484757D01*
X62199519Y61599024D02*
X62364760Y61772583D01*
X15469579Y43755608D02*
X15403604Y43571218D01*
X23827631Y44740555D02*
X23943504Y44830983D01*
X15494708Y5900426D02*
X15469579Y5755608D01*
X33706918Y85706745D02*
X33857389Y85513934D01*
X62364760Y70226108D02*
X62226281Y70364587D01*
X63857389Y5484757D02*
X63706918Y5291946D01*
X33831156Y5443331D02*
X33706918Y5291946D01*
X36337071Y20940948D02*
X36514107Y20857216D01*
X35571391Y29095260D02*
X35403415Y29195941D01*
X35196114Y20595449D02*
X35327631Y20740555D01*
X31999519Y83999345D02*
X31999519Y47999345D01*
X35095433Y20427473D02*
X35196114Y20595449D01*
X45403604Y47427473D02*
X45456502Y47290340D01*
X62803623Y20980150D02*
X63049537Y20998142D01*
X33337071Y20940948D02*
X33555533Y20830983D01*
X44500506Y4999345D02*
X35949500Y5000549D01*
X24449500Y44998142D02*
X33049537Y44998142D01*
X53529458Y6243083D02*
X53595433Y6427473D01*
X15302923Y43403242D02*
X15171406Y43258136D01*
X63956502Y46708351D02*
X63903604Y46571218D01*
X33903604Y29571218D02*
X33831156Y29443331D01*
X5403415Y20802750D02*
X5571391Y20903431D01*
X35018714Y70803450D02*
X35000722Y70949327D01*
X6634277Y70226108D02*
X6471444Y70117306D01*
X5095433Y5571218D02*
X5042535Y5708351D01*
X63998315Y70949327D02*
X63969579Y70755608D01*
X63098438Y70004156D02*
X62900599Y70004156D01*
X35484930Y85857216D02*
X35708524Y85956329D01*
X33514107Y5141475D02*
X33290513Y5042362D01*
X33049537Y85998142D02*
X33290513Y85956329D01*
X45456502Y5708351D02*
X45403604Y5571218D01*
X6772756Y20634104D02*
X6800118Y20593154D01*
X15381558Y85471271D02*
X15441121Y85336898D01*
X5075563Y44382646D02*
X5141648Y44513934D01*
X14647102Y5010158D02*
X14500506Y4999345D01*
X45240728Y47671233D02*
X45331156Y47555360D01*
X45441121Y85336898D02*
X45488706Y85146929D01*
X62527593Y70117306D02*
X62364760Y70226108D01*
X23758309Y5327458D02*
X23641648Y5484757D01*
X63243256Y46029285D02*
X63049537Y46000549D01*
X63195414Y61980150D02*
X63337071Y61940948D01*
X15403604Y46571218D02*
X15331156Y46443331D01*
X15092136Y84199345D02*
X23906901Y84199345D01*
X33980323Y70803450D02*
X33923474Y70616045D01*
X35708524Y85956329D02*
X35949500Y85998142D01*
X23529458Y43755608D02*
X23500722Y43949327D01*
X36772756Y29364587D02*
X36634277Y29226108D01*
X35029458Y46755608D02*
X34999519Y46998358D01*
X53617479Y85471271D02*
X53696114Y85595449D01*
X63881558Y61471271D02*
X63969579Y61243083D01*
X68999037Y90998691D02*
X764Y90999075D01*
X45488706Y85146929D02*
X45498315Y84949327D01*
X5327631Y5258136D02*
X5167881Y5443331D01*
X45134277Y47772583D02*
X45240728Y47671233D01*
X23943504Y44830983D02*
X24116218Y44923301D01*
X45014107Y5141475D02*
X44882819Y5075390D01*
X4999519Y85000333D02*
X5029458Y85243083D01*
X5258309Y20671233D02*
X5403415Y20802750D01*
X5484930Y5141475D02*
X5327631Y5258136D01*
X63049537Y44998142D02*
X63290513Y44956329D01*
X32571391Y61903431D02*
X32803623Y61980150D01*
X5949500Y44998142D02*
X14549537Y44998142D01*
X5661966Y61940948D02*
X5851935Y61988533D01*
X53696114Y44595449D02*
X53827631Y44740555D01*
X5708524Y46042362D02*
X5484930Y46141475D01*
X5141648Y46484757D02*
X5075563Y46616045D01*
X62199519Y20599024D02*
X62364760Y20772583D01*
X33595622Y29195941D02*
X33427646Y29095260D01*
X45240728Y6671233D02*
X45331156Y6555360D01*
X5900599Y70004156D02*
X5708524Y70042362D01*
X45240728Y5327458D02*
X45134277Y5226108D01*
X5029458Y85243083D02*
X5075563Y85382646D01*
X5018714Y29803450D02*
X5000722Y29949327D01*
X32900599Y29004156D02*
X32708524Y29042362D01*
X4999519Y44000333D02*
X5029458Y44243083D01*
X32327631Y20740555D02*
X32443504Y20830983D01*
X63999519Y44000333D02*
X63998315Y29949327D01*
X63514107Y5141475D02*
X63290513Y5042362D01*
X45403604Y46571218D02*
X45331156Y46443331D01*
X5141648Y70484757D02*
X5075563Y70616045D01*
X33831156Y46443331D02*
X33671406Y46258136D01*
X5010331Y5851762D02*
X4999519Y5998358D01*
X45014107Y46141475D02*
X44882819Y46075390D01*
X36098438Y70004156D02*
X35900599Y70004156D01*
X53827631Y5258136D02*
X53696114Y5403242D01*
X15381558Y44471271D02*
X15441121Y44336898D01*
X36290513Y29042362D02*
X36098438Y29004156D01*
X23726281Y85634104D02*
X23827631Y85740555D01*
X23595433Y84571218D02*
X23529458Y84755608D01*
X36999519Y83999345D02*
X61999519Y83999345D01*
X62900599Y29004156D02*
X62708524Y29042362D01*
X32571391Y20903431D02*
X32803623Y20980150D01*
X15240728Y46327458D02*
X15134277Y46226108D01*
X5571391Y29095260D02*
X5403415Y29195941D01*
X35949500Y85998142D02*
X44549537Y85998142D01*
X5364760Y70226108D02*
X5258309Y70327458D01*
X53827631Y43258136D02*
X53696114Y43403242D01*
X54351935Y5010158D02*
X54161966Y5057743D01*
X14500506Y45999345D02*
X5949500Y46000549D01*
X33999519Y5998358D02*
X33988706Y5851762D01*
X35141648Y44513934D02*
X35292119Y44706745D01*
X23641648Y6513934D02*
X23758309Y6671233D01*
X53500722Y6049364D02*
X53529458Y6243083D01*
X44882819Y85923301D02*
X45014107Y85857216D01*
X63988706Y46851762D02*
X63956502Y46708351D01*
X45488706Y5851762D02*
X45456502Y5708351D01*
X5075563Y85382646D02*
X5141648Y85513934D01*
X4999519Y46998358D02*
X5000722Y61049364D01*
X24071391Y5095260D02*
X23903415Y5195941D01*
X45488706Y46851762D02*
X45456502Y46708351D01*
X36290513Y70042362D02*
X36098438Y70004156D01*
X23510331Y47146929D02*
X23557916Y47336898D01*
X45469579Y84755608D02*
X45403604Y84571218D01*
X33049537Y20998142D02*
X33195414Y20980150D01*
X33049537Y5000549D02*
X24449500Y5000549D01*
X32803623Y61980150D02*
X33049537Y61998142D01*
X63337071Y61940948D02*
X63555533Y61830983D01*
X5258309Y29327458D02*
X5167881Y29443331D01*
X35708524Y5042362D02*
X35484930Y5141475D01*
X61999519Y47999345D02*
X36999519Y47999345D01*
X45381558Y85471271D02*
X45441121Y85336898D01*
X33956502Y46708351D02*
X33903604Y46571218D01*
X54449500Y44998142D02*
X63049537Y44998142D01*
X23899659Y47799345D02*
X15096277Y47799345D01*
X53903415Y46195941D02*
X53758309Y46327458D01*
X5292119Y46291946D02*
X5141648Y46484757D01*
X36337071Y61940948D02*
X36514107Y61857216D01*
X36147102Y20988533D02*
X36337071Y20940948D01*
X24255781Y5029285D02*
X24071391Y5095260D01*
X15171406Y85740555D02*
X15272756Y85634104D01*
X63923474Y85382646D02*
X63969579Y85243083D01*
X5949500Y85998142D02*
X14549537Y85998142D01*
X35095433Y61427473D02*
X35196114Y61595449D01*
X36514107Y20857216D02*
X36671406Y20740555D01*
X33740728Y70327458D02*
X33595622Y70195941D01*
X63999519Y46998358D02*
X63988706Y46851762D01*
X15055533Y85830983D02*
X15171406Y85740555D01*
X35292119Y85706745D02*
X35484930Y85857216D01*
X36471444Y29117306D02*
X36290513Y29042362D01*
X23510331Y44146929D02*
X23542535Y44290340D01*
X15134277Y46226108D02*
X15014107Y46141475D01*
X33988706Y46851762D02*
X33956502Y46708351D01*
X33998315Y70949327D02*
X33980323Y70803450D01*
X5141648Y20513934D02*
X5258309Y20671233D01*
X5484930Y46141475D02*
X5292119Y46291946D01*
X14549537Y85998142D02*
X14695414Y85980150D01*
X6000506Y61999345D02*
X6147102Y61988533D01*
X15171406Y43258136D02*
X15092136Y43199345D01*
X23510331Y5851762D02*
X23499519Y6000333D01*
X35000722Y70949327D02*
X34999519Y85000333D01*
X33988706Y5851762D02*
X33956502Y5708351D01*
X63969579Y85243083D02*
X63999519Y85000333D01*
X5708524Y5042362D02*
X5484930Y5141475D01*
X15302923Y44595449D02*
X15381558Y44471271D01*
X33049537Y61998142D02*
X33290513Y61956329D01*
X5000722Y70949327D02*
X4999519Y85000333D01*
X6147102Y61988533D02*
X6337071Y61940948D01*
X53696114Y85595449D02*
X53827631Y85740555D01*
X44882819Y5075390D02*
X44743256Y5029285D01*
X24116218Y85923301D02*
X24255781Y85969406D01*
X45403604Y84571218D02*
X45302923Y84403242D01*
X54498531Y4999345D02*
X54351935Y5010158D01*
X45498315Y43949327D02*
X45469579Y43755608D01*
X45498315Y84949327D02*
X45469579Y84755608D01*
X36999519Y42999345D02*
X61999519Y42999345D01*
X63290513Y85956329D02*
X63514107Y85857216D01*
X15014107Y46141475D02*
X14882819Y46075390D01*
X54116218Y85923301D02*
X54303623Y85980150D01*
X44743256Y85969406D02*
X44882819Y85923301D01*
X6999519Y47999345D02*
X6999519Y83999345D01*
X36634277Y70226108D02*
X36471444Y70117306D01*
X15272756Y5364587D02*
X15171406Y5258136D01*
X35571391Y70095260D02*
X35403415Y70195941D01*
X63555533Y61830983D02*
X63740728Y61671233D01*
X45014107Y44857216D02*
X45171406Y44740555D01*
X45456502Y47290340D02*
X45488706Y47146929D01*
X35292119Y29291946D02*
X35167881Y29443331D01*
X5949500Y46000549D02*
X5708524Y46042362D01*
X33999519Y44000333D02*
X33998315Y29949327D01*
X33290513Y5042362D02*
X33049537Y5000549D01*
X63999519Y85000333D02*
X63998315Y70949327D01*
X36772756Y70364587D02*
X36634277Y70226108D01*
X23617479Y85471271D02*
X23726281Y85634104D01*
X63706918Y44706745D02*
X63857389Y44513934D01*
X33903604Y5571218D02*
X33831156Y5443331D01*
X35900599Y70004156D02*
X35708524Y70042362D01*
X14743256Y44969406D02*
X14882819Y44923301D01*
X63706918Y29291946D02*
X63595622Y29195941D01*
X36799882Y29405184D02*
X36772756Y29364587D01*
X53557916Y44336898D02*
X53617479Y44471271D01*
X33706918Y5291946D02*
X33514107Y5141475D01*
X53510331Y85146929D02*
X53557916Y85336898D01*
X23557916Y6336898D02*
X23641648Y6513934D01*
X14882819Y85923301D02*
X15055533Y85830983D01*
X15456502Y6290340D02*
X15488706Y6146929D01*
X53595433Y43571218D02*
X53529458Y43755608D01*
X32900599Y70004156D02*
X32708524Y70042362D01*
X5484930Y61857216D02*
X5661966Y61940948D01*
X53758309Y47671233D02*
X53899659Y47799345D01*
X33831156Y70443331D02*
X33740728Y70327458D01*
X23758309Y6671233D02*
X23899659Y6799345D01*
X53595433Y5571218D02*
X53529458Y5755608D01*
X35851935Y61988533D02*
X36000506Y61999345D01*
X63671406Y46258136D02*
X63471444Y46117306D01*
X23641648Y46484757D02*
X23557916Y46661793D01*
X63969579Y29755608D02*
X63903604Y29571218D01*
X35484930Y20857216D02*
X35661966Y20940948D01*
X33427646Y70095260D02*
X33290513Y70042362D01*
X35661966Y20940948D02*
X35851935Y20988533D01*
X36514107Y61857216D02*
X36671406Y61740555D01*
X33956502Y5708351D02*
X33903604Y5571218D01*
X23827631Y85740555D02*
X23943504Y85830983D01*
X32803623Y20980150D02*
X33049537Y20998142D01*
X5851935Y61988533D02*
X6000506Y61999345D01*
X15498315Y43949327D02*
X15469579Y43755608D01*
X6337071Y61940948D02*
X6514107Y61857216D01*
X44743256Y44969406D02*
X44882819Y44923301D01*
X23510331Y46851762D02*
X23499519Y47000333D01*
X5075563Y29616045D02*
X5018714Y29803450D01*
X15092136Y43199345D02*
X23906901Y43199345D01*
X4999519Y5998358D02*
X4999519Y20000333D01*
X68998864Y-173D02*
X68999037Y90998691D01*
X53827631Y85740555D02*
X53943504Y85830983D01*
X23903415Y5195941D02*
X23758309Y5327458D01*
X23499519Y47000333D02*
X23510331Y47146929D01*
X35484930Y46141475D02*
X35292119Y46291946D01*
X23542535Y44290340D02*
X23617479Y44471271D01*
X33706918Y44706745D02*
X33857389Y44513934D01*
X63427646Y29095260D02*
X63290513Y29042362D01*
X15488706Y6146929D02*
X15494708Y5900426D01*
X15272756Y85634104D02*
X15381558Y85471271D01*
X0Y0D02*
X68998864Y-173D01*
X63706918Y5291946D02*
X63514107Y5141475D01*
X63969579Y61243083D02*
X63999519Y61000333D01*
X23500722Y84949327D02*
X23510331Y85146929D01*
X23696114Y43403242D02*
X23595433Y43571218D01*
X23641648Y5484757D02*
X23557916Y5661793D01*
X5949500Y5000549D02*
X5708524Y5042362D01*
X15423474Y5616045D02*
X15357389Y5484757D01*
X31999519Y47999345D02*
X6999519Y47999345D01*
X62708524Y70042362D02*
X62527593Y70117306D01*
X23696114Y84403242D02*
X23595433Y84571218D01*
X62571391Y61903431D02*
X62803623Y61980150D01*
X63706918Y85706745D02*
X63857389Y85513934D01*
X5258309Y70327458D02*
X5141648Y70484757D01*
X63802923Y20595449D02*
X63881558Y20471271D01*
X33969579Y44243083D02*
X33999519Y44000333D01*
X45456502Y46708351D02*
X45403604Y46571218D01*
X33998315Y29949327D02*
X33969579Y29755608D01*
X15171406Y5258136D02*
X15055533Y5167708D01*
X35949500Y46000549D02*
X35708524Y46042362D01*
X45331156Y6555360D02*
X45403604Y6427473D01*
X53899659Y47799345D02*
X45096277Y47799345D01*
X63969579Y44243083D02*
X63999519Y44000333D01*
X36999519Y47999345D02*
X36999519Y83999345D01*
X33881558Y61471271D02*
X33969579Y61243083D01*
X32199519Y20592037D02*
X32327631Y20740555D01*
X63049537Y46000549D02*
X54449500Y46000549D01*
X35167881Y70443331D02*
X35075563Y70616045D01*
X33999519Y85000333D02*
X33998315Y70949327D01*
X53557916Y85336898D02*
X53617479Y85471271D01*
X23827631Y84258136D02*
X23696114Y84403242D01*
X15403604Y6427473D02*
X15456502Y6290340D01*
X36000506Y20999345D02*
X36147102Y20988533D01*
X15055533Y44830983D02*
X15171406Y44740555D01*
X24116218Y44923301D02*
X24255781Y44969406D01*
X5010331Y20146929D02*
X5057916Y20336898D01*
X35708524Y46042362D02*
X35484930Y46141475D01*
X32527593Y29117306D02*
X32364760Y29226108D01*
X62226281Y29364587D02*
X62199519Y29404640D01*
X35949500Y5000549D02*
X35708524Y5042362D01*
X5029458Y70755608D02*
X5000722Y70949327D01*
X32364760Y70226108D02*
X32226281Y70364587D01*
X33969579Y85243083D02*
X33999519Y85000333D01*
X54161966Y5057743D02*
X53984930Y5141475D01*
X33857389Y44513934D02*
X33923474Y44382646D01*
X35196114Y61595449D02*
X35327631Y61740555D01*
X36800117Y61598544D02*
X36799882Y70405184D01*
X62364760Y29226108D02*
X62226281Y29364587D01*
X61999519Y83999345D02*
X61999519Y47999345D01*
X6471444Y70117306D02*
X6290513Y70042362D01*
X36999519Y6999345D02*
X36999519Y42999345D01*
X63740728Y61671233D02*
X63881558Y61471271D01*
X23906901Y84199345D02*
X23827631Y84258136D01*
X35075563Y46616045D02*
X35029458Y46755608D01*
X33881558Y20471271D02*
X33969579Y20243083D01*
X33290513Y44956329D02*
X33514107Y44857216D01*
X63427646Y70095260D02*
X63290513Y70042362D01*
X5000722Y29949327D02*
X4999519Y44000333D01*
X33923474Y85382646D02*
X33969579Y85243083D01*
X53510331Y47146929D02*
X53557916Y47336898D01*
X45403604Y5571218D02*
X45331156Y5443331D01*
X63706918Y70291946D02*
X63555533Y70167708D01*
X33514107Y85857216D02*
X33706918Y85706745D01*
X63903604Y46571218D02*
X63831156Y46443331D01*
X35029458Y5755608D02*
X34999519Y5998358D01*
X23726281Y44634104D02*
X23827631Y44740555D01*
X23827631Y43258136D02*
X23696114Y43403242D01*
X33999519Y46998358D02*
X33988706Y46851762D01*
X33290513Y70042362D02*
X33098438Y70004156D01*
X5484930Y44857216D02*
X5708524Y44956329D01*
X5755781Y20969406D02*
X5949500Y20998142D01*
X33706918Y29291946D02*
X33595622Y29195941D01*
X63999519Y5998358D02*
X63969579Y5755608D01*
X36800117Y20598544D02*
X36799882Y29405184D01*
X32199519Y70404640D02*
X32199519Y61595900D01*
X23899659Y6799345D02*
X15096277Y6799345D01*
X54449500Y85998142D02*
X63049537Y85998142D01*
X23906901Y43199345D02*
X23827631Y43258136D01*
X14695414Y85980150D02*
X14882819Y85923301D01*
X35141648Y46484757D02*
X35075563Y46616045D01*
X53510331Y44146929D02*
X53557916Y44336898D01*
X35661966Y61940948D02*
X35851935Y61988533D01*
X5900599Y29004156D02*
X5708524Y29042362D01*
X63290513Y5042362D02*
X63049537Y5000549D01*
X6999519Y42999345D02*
X31999519Y42999345D01*
X15055533Y5167708D02*
X14927646Y5095260D01*
X45240728Y46327458D02*
X45134277Y46226108D01*
X63969579Y5755608D02*
X63923474Y5616045D01*
X63049537Y85998142D02*
X63290513Y85956329D01*
X5075563Y70616045D02*
X5029458Y70755608D01*
X45488706Y44146929D02*
X45498315Y43949327D01*
X23557916Y5661793D02*
X23510331Y5851762D01*
X63290513Y70042362D02*
X63098438Y70004156D01*
X15488706Y44146929D02*
X15498315Y43949327D01*
X33243256Y29029285D02*
X33098438Y29004156D01*
X15134277Y47772583D02*
X15240728Y47671233D01*
X24255781Y85969406D02*
X24449500Y85998142D01*
X45469579Y43755608D02*
X45403604Y43571218D01*
X53617479Y44471271D02*
X53696114Y44595449D01*
X63098438Y29004156D02*
X62900599Y29004156D01*
X63881558Y20471271D02*
X63969579Y20243083D01*
X15499519Y47000333D02*
X15488706Y46851762D01*
X33923474Y70616045D02*
X33831156Y70443331D01*
X32708524Y29042362D02*
X32527593Y29117306D01*
X36098438Y29004156D02*
X35900599Y29004156D01*
X15403604Y84571218D02*
X15302923Y84403242D01*
X62199519Y70404640D02*
X62199519Y61599024D01*
X14500506Y4999345D02*
X5949500Y5000549D01*
X35095433Y29571218D02*
X35029458Y29755608D01*
X45499519Y6000333D02*
X45488706Y5851762D01*
X33923474Y44382646D02*
X33969579Y44243083D01*
X45302923Y43403242D02*
X45171406Y43258136D01*
X35403415Y70195941D02*
X35258309Y70327458D01*
X45096277Y47799345D02*
X45134277Y47772583D01*
X53504329Y5900426D02*
X53500722Y6049364D01*
X53696114Y43403242D02*
X53595433Y43571218D01*
X54255781Y46029285D02*
X54071391Y46095260D01*
X33243256Y46029285D02*
X33049537Y46000549D01*
X62364760Y61772583D02*
X62571391Y61903431D01*
X35029458Y29755608D02*
X35000722Y29949327D01*
X63514107Y44857216D02*
X63706918Y44706745D01*
X14549537Y44998142D02*
X14743256Y44969406D01*
X764Y90999075D02*
X0Y0D01*
X15240728Y47671233D02*
X15331156Y47555360D01*
X62708524Y29042362D02*
X62527593Y29117306D01*
X6290513Y70042362D02*
X6098438Y70004156D01*
X6799882Y70405184D02*
X6772756Y70364587D01*
X35484930Y44857216D02*
X35708524Y44956329D01*
X33427646Y29095260D02*
X33243256Y29029285D01*
X53499519Y47000333D02*
X53510331Y47146929D01*
X45441121Y44336898D02*
X45488706Y44146929D01*
X62364760Y20772583D02*
X62571391Y20903431D01*
X33049537Y46000549D02*
X24449500Y46000549D01*
X5327631Y61740555D02*
X5484930Y61857216D01*
X35484930Y5141475D02*
X35292119Y5291946D01*
X33427646Y61903431D02*
X33555533Y61830983D01*
X6799882Y29405184D02*
X6772756Y29364587D01*
X35075563Y85382646D02*
X35141648Y85513934D01*
X35075563Y70616045D02*
X35018714Y70803450D01*
X45403604Y43571218D02*
X45302923Y43403242D01*
X6999519Y6999345D02*
X6999519Y42999345D01*
X35029458Y61243083D02*
X35095433Y61427473D01*
X35327631Y20740555D02*
X35484930Y20857216D01*
X14927646Y5095260D02*
X14790513Y5042362D01*
X34999519Y85000333D02*
X35029458Y85243083D01*
X45499519Y47000333D02*
X45488706Y46851762D01*
X5292119Y44706745D02*
X5484930Y44857216D01*
X15403604Y43571218D02*
X15302923Y43403242D01*
X45331156Y46443331D02*
X45240728Y46327458D01*
X32527593Y70117306D02*
X32364760Y70226108D01*
X32364760Y61772583D02*
X32571391Y61903431D01*
X6634277Y29226108D02*
X6471444Y29117306D01*
X33969579Y20243083D02*
X33999519Y20000333D01*
X33471444Y46117306D02*
X33243256Y46029285D01*
X36000506Y61999345D02*
X36147102Y61988533D01*
X5029458Y46755608D02*
X4999519Y46998358D01*
X35755781Y29029285D02*
X35571391Y29095260D01*
X53906901Y43199345D02*
X53827631Y43258136D01*
X63514107Y20857216D02*
X63706918Y20706745D01*
X15498315Y84949327D02*
X15469579Y84755608D01*
X35000722Y29949327D02*
X34999519Y44000333D01*
X35292119Y5291946D02*
X35141648Y5484757D01*
X45381558Y44471271D02*
X45441121Y44336898D01*
X62803623Y61980150D02*
X63049537Y61998142D01*
X53667881Y6555360D02*
X53792119Y6706745D01*
X15469579Y84755608D02*
X15403604Y84571218D01*
X63802923Y70403242D02*
X63706918Y70291946D01*
X53943504Y85830983D02*
X54116218Y85923301D01*
X5057916Y20336898D02*
X5141648Y20513934D01*
X6290513Y29042362D02*
X6098438Y29004156D01*
X33290513Y85956329D02*
X33514107Y85857216D01*
X35292119Y46291946D02*
X35141648Y46484757D01*
X63049537Y5000549D02*
X54498531Y4999345D01*
X53510331Y46851762D02*
X53499519Y47000333D01*
X35403415Y29195941D02*
X35292119Y29291946D01*
X23510331Y6146929D02*
X23557916Y6336898D01*
X33595622Y70195941D02*
X33427646Y70095260D01*
X32708524Y70042362D02*
X32527593Y70117306D01*
X6772756Y29364587D02*
X6634277Y29226108D01*
X5095433Y61427473D02*
X5196114Y61595449D01*
X32226281Y29364587D02*
X32199519Y29404640D01*
X14743256Y46029285D02*
X14500506Y45999345D01*
X15488706Y46851762D02*
X15456502Y46708351D01*
X53529458Y84755608D02*
X53500722Y84949327D01*
X53696114Y84403242D02*
X53595433Y84571218D01*
X5708524Y70042362D02*
X5527593Y70117306D01*
X62226281Y70364587D02*
X62199519Y70404640D01*
X24449500Y85998142D02*
X33049537Y85998142D01*
X35708524Y70042362D02*
X35571391Y70095260D01*
X33195414Y20980150D02*
X33337071Y20940948D01*
X15171406Y44740555D02*
X15302923Y44595449D01*
X5708524Y29042362D02*
X5571391Y29095260D01*
X23542535Y85290340D02*
X23617479Y85471271D01*
X23499519Y6000333D02*
X23510331Y6146929D01*
X23758309Y47671233D02*
X23899659Y47799345D01*
X36634277Y29226108D02*
X36471444Y29117306D01*
X15441121Y44336898D02*
X15488706Y44146929D01*
X5042535Y5708351D02*
X5010331Y5851762D01*
X63802923Y29403242D02*
X63706918Y29291946D01*
X53827631Y84258136D02*
X53696114Y84403242D01*
X53792119Y6706745D02*
X53899469Y6799345D01*
X63857389Y44513934D02*
X63923474Y44382646D01*
X5029458Y44243083D02*
X5075563Y44382646D01*
X4999519Y20000333D02*
X5010331Y20146929D01*
X5403415Y29195941D02*
X5258309Y29327458D01*
X62900599Y70004156D02*
X62708524Y70042362D01*
X63903604Y70571218D02*
X63802923Y70403242D01*
X33049537Y44998142D02*
X33290513Y44956329D01*
X53641648Y47513934D02*
X53758309Y47671233D01*
X23500722Y43949327D02*
X23510331Y44146929D01*
X62571391Y20903431D02*
X62803623Y20980150D01*
X54255781Y44969406D02*
X54449500Y44998142D01*
X63903604Y29571218D02*
X63802923Y29403242D01*
X23641648Y47513934D02*
X23758309Y47671233D01*
X63290513Y44956329D02*
X63514107Y44857216D01*
X53529458Y43755608D02*
X53500722Y43949327D01*
X6098438Y29004156D02*
X5900599Y29004156D01*
X53641648Y46484757D02*
X53557916Y46661793D01*
X63706918Y20706745D02*
X63802923Y20595449D01*
X5484930Y85857216D02*
X5708524Y85956329D01*
X23943504Y85830983D02*
X24116218Y85923301D01*
X23903415Y46195941D02*
X23758309Y46327458D01*
X62527593Y29117306D02*
X62364760Y29226108D01*
X15331156Y47555360D02*
X15403604Y47427473D01*
X36799882Y70405184D02*
X36772756Y70364587D01*
X35900599Y29004156D02*
X35755781Y29029285D01*
X45456502Y6290340D02*
X45488706Y6146929D01*
X33999519Y20000333D02*
X33999519Y5998358D01*
X6800118Y20593154D02*
X6799882Y29405184D01*
X32364760Y29226108D02*
X32226281Y29364587D01*
X35000722Y61049364D02*
X35029458Y61243083D01*
X6671406Y61740555D02*
X6800117Y61598544D01*
X63290513Y20956329D02*
X63514107Y20857216D01*
X34999519Y5998358D02*
X35000722Y20049364D01*
X44882819Y46075390D02*
X44743256Y46029285D01*
X45134277Y46226108D02*
X45014107Y46141475D01*
X23617479Y44471271D02*
X23726281Y44634104D01*
X45488706Y6146929D02*
X45499519Y6000333D01*
X15302923Y84403242D02*
X15171406Y84258136D01*
X15403604Y47427473D02*
X15456502Y47290340D01*
X33671406Y46258136D02*
X33471444Y46117306D01*
X44743256Y5029285D02*
X44500506Y4999345D01*
X54071391Y46095260D02*
X53903415Y46195941D01*
X34999519Y44000333D02*
X35029458Y44243083D01*
X63999519Y20000333D02*
X63999519Y5998358D01*
X63857389Y85513934D02*
X63923474Y85382646D01*
X53984930Y5141475D02*
X53827631Y5258136D01*
X23510331Y85146929D02*
X23542535Y85290340D01*
X44882819Y44923301D02*
X45014107Y44857216D01*
X6098438Y20994535D02*
X6290513Y20956329D01*
X54116218Y44923301D02*
X54255781Y44969406D01*
X15488706Y85146929D02*
X15498315Y84949327D01*
X45014107Y85857216D02*
X45171406Y85740555D01*
X24255781Y46029285D02*
X24071391Y46095260D01*
X45302923Y84403242D02*
X45171406Y84258136D01*
X6098438Y70004156D02*
X5900599Y70004156D01*
X45272756Y44634104D02*
X45381558Y44471271D01*
X45171406Y84258136D02*
X45092136Y84199345D01*
X32258309Y61671233D02*
X32364760Y61772583D01*
X31999519Y42999345D02*
X31999519Y6999345D01*
X6800117Y61598544D02*
X6799882Y70405184D01*
X33740728Y20671233D02*
X33881558Y20471271D01*
X45331156Y5443331D02*
X45240728Y5327458D01*
X53500722Y43949327D02*
X53510331Y44146929D01*
X35000722Y20049364D02*
X35029458Y20243083D01*
X5000722Y61049364D02*
X5029458Y61243083D01*
X53557916Y46661793D02*
X53510331Y46851762D01*
X33555533Y20830983D02*
X33740728Y20671233D01*
X33098438Y29004156D02*
X32900599Y29004156D01*
X63923474Y44382646D02*
X63969579Y44243083D01*
X35167881Y29443331D02*
X35095433Y29571218D01*
X36671406Y61740555D02*
X36800117Y61598544D01*
X5708524Y85956329D02*
X5949500Y85998142D01*
X35075563Y44382646D02*
X35141648Y44513934D01*
X63998315Y29949327D02*
X63969579Y29755608D01*
X53595433Y84571218D02*
X53529458Y84755608D01*
X35141648Y85513934D02*
X35292119Y85706745D01*
X33290513Y61956329D02*
X33427646Y61903431D01*
X63969579Y20243083D02*
X63999519Y20000333D01*
X53758309Y46327458D02*
X53641648Y46484757D01*
X45171406Y44740555D02*
X45272756Y44634104D01*
X5167881Y29443331D02*
X5075563Y29616045D01*
X35484930Y61857216D02*
X35661966Y61940948D01*
X23557916Y47336898D02*
X23641648Y47513934D01*
X33969579Y29755608D02*
X33903604Y29571218D01*
X35292119Y44706745D02*
X35484930Y44857216D01*
X33999519Y61000333D02*
X33999519Y46998358D01*
X6999519Y83999345D02*
X31999519Y83999345D01*
X35029458Y20243083D02*
X35095433Y20427473D01*
X33740728Y61671233D02*
X33881558Y61471271D01*
X5196114Y61595449D02*
X5327631Y61740555D01*
X35258309Y70327458D02*
X35167881Y70443331D01*
X44500506Y45999345D02*
X35949500Y46000549D01*
X45096277Y6799345D02*
X45134277Y6772583D01*
X33969579Y61243083D02*
X33999519Y61000333D01*
X63471444Y46117306D02*
X63243256Y46029285D01*
X5029458Y61243083D02*
X5095433Y61427473D01*
X53827631Y44740555D02*
X53943504Y44830983D01*
X53557916Y47336898D02*
X53641648Y47513934D01*
X23595433Y43571218D02*
X23529458Y43755608D01*
X31999519Y6999345D02*
X6999519Y6999345D01*
X15240728Y6671233D02*
X15331156Y6555360D01*
X5141648Y85513934D02*
X5292119Y85706745D01*
X45488706Y47146929D02*
X45499519Y47000333D01*
X63969579Y70755608D02*
X63903604Y70571218D01*
X6471444Y20881385D02*
X6634277Y20772583D01*
X23557916Y46661793D02*
X23510331Y46851762D01*
X15331156Y46443331D02*
X15240728Y46327458D01*
X45092136Y43199345D02*
X53906901Y43199345D01*
X15488706Y47146929D02*
X15499519Y47000333D01*
M02*
