M48
; DRILL file {KiCad 9.0.0} date 2025-03-16T20:58:34+0100
; FORMAT={-:-/ absolute / inch / decimal}
; #@! TF.CreationDate,2025-03-16T20:58:34+01:00
; #@! TF.GenerationSoftware,Kicad,Pcbnew,9.0.0
; #@! TF.FileFunction,MixedPlating,1,2
FMAT,2
INCH
; #@! TA.AperFunction,Plated,PTH,ComponentDrill
T1C0.0315
; #@! TA.AperFunction,Plated,PTH,ComponentDrill
T2C0.0394
; #@! TA.AperFunction,NonPlated,NPTH,ComponentDrill
T3C0.1260
%
G90
G05
T1
X0.6772Y-0.4295
X0.6772Y-0.5295
X0.6772Y-0.6295
X0.6772Y-0.7295
X0.6772Y-2.0437
X0.6772Y-2.1437
X0.6772Y-2.2437
X0.6772Y-2.3437
X0.8421Y-0.9646
X0.8421Y-2.5787
X0.8465Y-1.2185
X0.8465Y-2.8327
X0.9772Y-0.4295
X0.9772Y-0.5295
X0.9772Y-0.6295
X0.9772Y-0.7295
X0.9772Y-2.0437
X0.9772Y-2.1437
X0.9772Y-2.2437
X0.9772Y-2.3437
X1.1299Y-0.4272
X1.1299Y-0.5256
X1.1299Y-2.0413
X1.1299Y-2.1398
X1.1421Y-0.9646
X1.1421Y-2.5787
X1.1465Y-1.2185
X1.1465Y-2.8327
X1.8583Y-0.4295
X1.8583Y-0.5295
X1.8583Y-0.6295
X1.8583Y-0.7295
X1.8583Y-2.0437
X1.8583Y-2.1437
X1.8583Y-2.2437
X1.8583Y-2.3437
X2.0232Y-0.9646
X2.0232Y-2.5787
X2.0276Y-1.2185
X2.0276Y-2.8327
X2.1583Y-0.4295
X2.1583Y-0.5295
X2.1583Y-0.6295
X2.1583Y-0.7295
X2.1583Y-2.0437
X2.1583Y-2.1437
X2.1583Y-2.2437
X2.1583Y-2.3437
X2.311Y-0.4272
X2.311Y-0.5256
X2.311Y-2.0413
X2.311Y-2.1398
X2.3232Y-0.9646
X2.3232Y-2.5787
X2.3276Y-1.2185
X2.3276Y-2.8327
T2
X0.4055Y-0.4437
X0.4055Y-0.5437
X0.4055Y-0.6437
X0.4055Y-0.8959
X0.4055Y-0.9959
X0.4055Y-1.0959
X0.4055Y-1.3295
X0.4055Y-1.4295
X0.4055Y-1.5295
X0.4055Y-2.0579
X0.4055Y-2.1579
X0.4055Y-2.2579
X0.4055Y-2.51
X0.4055Y-2.61
X0.4055Y-2.71
X0.4055Y-2.9437
X0.4055Y-3.0437
X0.4055Y-3.1437
X0.8197Y-1.565
X0.8197Y-3.1791
X0.9197Y-1.565
X0.9197Y-3.1791
X1.0197Y-1.565
X1.0197Y-3.1791
X1.1197Y-1.565
X1.1197Y-3.1791
X1.5866Y-0.4437
X1.5866Y-0.5437
X1.5866Y-0.6437
X1.5866Y-0.8959
X1.5866Y-0.9959
X1.5866Y-1.0959
X1.5866Y-1.3295
X1.5866Y-1.4295
X1.5866Y-1.5295
X1.5866Y-2.0579
X1.5866Y-2.1579
X1.5866Y-2.2579
X1.5866Y-2.51
X1.5866Y-2.61
X1.5866Y-2.71
X1.5866Y-2.9437
X1.5866Y-3.0437
X1.5866Y-3.1437
X2.0008Y-1.565
X2.0008Y-3.1791
X2.1008Y-1.565
X2.1008Y-3.1791
X2.2008Y-1.565
X2.2008Y-3.1791
X2.3008Y-1.565
X2.3008Y-3.1791
T3
X0.6713Y-1.0945
X0.6713Y-2.7087
X1.8524Y-1.0945
X1.8524Y-2.7087
M30
