M48
; DRILL file {KiCad 9.0.0} date 2025-03-15T22:42:12+0100
; FORMAT={-:-/ absolute / metric / decimal}
; #@! TF.CreationDate,2025-03-15T22:42:12+01:00
; #@! TF.GenerationSoftware,Kicad,Pcbnew,9.0.0
; #@! TF.FileFunction,MixedPlating,1,2
FMAT,2
METRIC
; #@! TA.AperFunction,Plated,PTH,ComponentDrill
T1C0.800
; #@! TA.AperFunction,Plated,PTH,ComponentDrill
T2C1.000
; #@! TA.AperFunction,NonPlated,NPTH,ComponentDrill
T3C3.200
%
G90
G05
T1
X21.33Y80.09
X21.33Y77.55
X21.33Y75.01
X21.33Y72.47
X21.33Y39.09
X21.33Y36.55
X21.33Y34.01
X21.33Y31.47
X21.39Y66.5
X21.39Y25.5
X21.5Y60.05
X21.5Y19.05
X25.9Y55.75
X25.9Y14.75
X28.4Y55.75
X28.4Y14.75
X28.95Y80.09
X28.95Y77.55
X28.95Y75.01
X28.95Y72.47
X28.95Y39.09
X28.95Y36.55
X28.95Y34.01
X28.95Y31.47
X29.01Y66.5
X29.01Y25.5
X29.12Y60.05
X29.12Y19.05
X51.33Y80.09
X51.33Y77.55
X51.33Y75.01
X51.33Y72.47
X51.33Y39.09
X51.33Y36.55
X51.33Y34.01
X51.33Y31.47
X51.39Y66.5
X51.39Y25.5
X51.5Y60.05
X51.5Y19.05
X55.9Y55.75
X55.9Y14.75
X58.4Y55.75
X58.4Y14.75
X58.95Y80.09
X58.95Y77.55
X58.95Y75.01
X58.95Y72.47
X58.95Y39.09
X58.95Y36.55
X58.95Y34.01
X58.95Y31.47
X59.01Y66.5
X59.01Y25.5
X59.12Y60.05
X59.12Y19.05
T2
X10.3Y79.73
X10.3Y77.19
X10.3Y74.65
X10.3Y68.245
X10.3Y65.705
X10.3Y63.165
X10.3Y57.23
X10.3Y54.69
X10.3Y52.15
X10.3Y38.73
X10.3Y36.19
X10.3Y33.65
X10.3Y27.245
X10.3Y24.705
X10.3Y22.165
X10.3Y16.23
X10.3Y13.69
X10.3Y11.15
X20.82Y51.25
X20.82Y10.25
X23.36Y51.25
X23.36Y10.25
X25.9Y51.25
X25.9Y10.25
X28.44Y51.25
X28.44Y10.25
X40.3Y79.73
X40.3Y77.19
X40.3Y74.65
X40.3Y68.245
X40.3Y65.705
X40.3Y63.165
X40.3Y57.23
X40.3Y54.69
X40.3Y52.15
X40.3Y38.73
X40.3Y36.19
X40.3Y33.65
X40.3Y27.245
X40.3Y24.705
X40.3Y22.165
X40.3Y16.23
X40.3Y13.69
X40.3Y11.15
X50.82Y51.25
X50.82Y10.25
X53.36Y51.25
X53.36Y10.25
X55.9Y51.25
X55.9Y10.25
X58.44Y51.25
X58.44Y10.25
T3
X17.05Y63.2
X17.05Y22.2
X47.05Y63.2
X47.05Y22.2
M30
