M48
; DRILL file {KiCad 9.0.0} date 2025-03-02T09:40:59+0100
; FORMAT={-:-/ absolute / metric / decimal}
; #@! TF.CreationDate,2025-03-02T09:40:59+01:00
; #@! TF.GenerationSoftware,Kicad,Pcbnew,9.0.0
; #@! TF.FileFunction,Plated,1,2,PTH
FMAT,2
METRIC
; #@! TA.AperFunction,Plated,PTH,ComponentDrill
T1C0.800
; #@! TA.AperFunction,Plated,PTH,ComponentDrill
T2C1.000
%
G90
G05
T1
X19.88Y79.039
X19.88Y76.499
X19.88Y73.959
X19.88Y71.419
X19.88Y38.039
X19.88Y35.499
X19.88Y32.959
X19.88Y30.419
X20.88Y63.499
X20.88Y57.499
X20.88Y22.499
X20.88Y16.499
X27.5Y79.039
X27.5Y76.499
X27.5Y73.959
X27.5Y71.419
X27.5Y38.039
X27.5Y35.499
X27.5Y32.959
X27.5Y30.419
X28.5Y63.499
X28.5Y57.499
X28.5Y22.499
X28.5Y16.499
X49.88Y79.039
X49.88Y76.499
X49.88Y73.959
X49.88Y71.419
X49.88Y38.039
X49.88Y35.499
X49.88Y32.959
X49.88Y30.419
X50.88Y63.499
X50.88Y57.499
X50.88Y22.499
X50.88Y16.499
X57.5Y79.039
X57.5Y76.499
X57.5Y73.959
X57.5Y71.419
X57.5Y38.039
X57.5Y35.499
X57.5Y32.959
X57.5Y30.419
X58.5Y63.499
X58.5Y57.499
X58.5Y22.499
X58.5Y16.499
T2
X11.0Y79.024
X11.0Y76.484
X11.0Y73.944
X11.0Y67.539
X11.0Y64.999
X11.0Y62.459
X11.0Y56.524
X11.0Y53.984
X11.0Y51.444
X11.0Y38.024
X11.0Y35.484
X11.0Y32.944
X11.0Y26.539
X11.0Y23.999
X11.0Y21.459
X11.0Y15.524
X11.0Y12.984
X11.0Y10.444
X20.88Y50.999
X20.88Y9.999
X23.42Y50.999
X23.42Y9.999
X25.96Y50.999
X25.96Y9.999
X28.5Y50.999
X28.5Y9.999
X41.0Y79.024
X41.0Y76.484
X41.0Y73.944
X41.0Y67.539
X41.0Y64.999
X41.0Y62.459
X41.0Y56.524
X41.0Y53.984
X41.0Y51.444
X41.0Y38.024
X41.0Y35.484
X41.0Y32.944
X41.0Y26.539
X41.0Y23.999
X41.0Y21.459
X41.0Y15.524
X41.0Y12.984
X41.0Y10.444
X50.88Y50.999
X50.88Y9.999
X53.42Y50.999
X53.42Y9.999
X55.96Y50.999
X55.96Y9.999
X58.5Y50.999
X58.5Y9.999
M30
