G04 #@! TF.GenerationSoftware,KiCad,Pcbnew,9.0.0*
G04 #@! TF.CreationDate,2025-03-15T22:42:23+01:00*
G04 #@! TF.ProjectId,eeprom_i2c_panel,65657072-6f6d-45f6-9932-635f70616e65,1.1*
G04 #@! TF.SameCoordinates,PX6cb8080PY69db9c0*
G04 #@! TF.FileFunction,Copper,L1,Top*
G04 #@! TF.FilePolarity,Positive*
%FSLAX46Y46*%
G04 Gerber Fmt 4.6, Leading zero omitted, Abs format (unit mm)*
G04 Created by KiCad (PCBNEW 9.0.0) date 2025-03-15 22:42:23*
%MOMM*%
%LPD*%
G01*
G04 APERTURE LIST*
G04 #@! TA.AperFunction,ComponentPad*
%ADD10R,1.600000X1.600000*%
G04 #@! TD*
G04 #@! TA.AperFunction,ComponentPad*
%ADD11O,1.600000X1.600000*%
G04 #@! TD*
G04 #@! TA.AperFunction,ComponentPad*
%ADD12R,1.700000X1.700000*%
G04 #@! TD*
G04 #@! TA.AperFunction,ComponentPad*
%ADD13O,1.700000X1.700000*%
G04 #@! TD*
G04 #@! TA.AperFunction,ComponentPad*
%ADD14C,1.600000*%
G04 #@! TD*
G04 #@! TA.AperFunction,Conductor*
%ADD15C,1.000000*%
G04 #@! TD*
G04 #@! TA.AperFunction,Conductor*
%ADD16C,0.250000*%
G04 #@! TD*
G04 #@! TA.AperFunction,Profile*
%ADD17C,0.100000*%
G04 #@! TD*
G04 APERTURE END LIST*
D10*
G04 #@! TO.P,U1,1,A0*
G04 #@! TO.N,Board_1-Net-(J1-Pin_2)*
X51330000Y80090000D03*
D11*
G04 #@! TO.P,U1,2,A1*
G04 #@! TO.N,Board_1-Net-(J2-Pin_2)*
X51330000Y77550000D03*
G04 #@! TO.P,U1,3,A2*
G04 #@! TO.N,Board_1-Net-(J3-Pin_2)*
X51330000Y75010000D03*
G04 #@! TO.P,U1,4,GND*
G04 #@! TO.N,Board_1-GND*
X51330000Y72470000D03*
G04 #@! TO.P,U1,5,SDA*
G04 #@! TO.N,Board_1-Net-(J4-SDA)*
X58950000Y72470000D03*
G04 #@! TO.P,U1,6,SCL*
G04 #@! TO.N,Board_1-Net-(J4-SCL)*
X58950000Y75010000D03*
G04 #@! TO.P,U1,7,WP*
G04 #@! TO.N,Board_1-GND*
X58950000Y77550000D03*
G04 #@! TO.P,U1,8,VCC*
G04 #@! TO.N,Board_1-Net-(J1-Pin_1)*
X58950000Y80090000D03*
G04 #@! TD*
D12*
G04 #@! TO.P,J2,1,Pin_1*
G04 #@! TO.N,Board_1-Net-(J1-Pin_1)*
X40300000Y68245000D03*
D13*
G04 #@! TO.P,J2,2,Pin_2*
G04 #@! TO.N,Board_1-Net-(J2-Pin_2)*
X40300000Y65705000D03*
G04 #@! TO.P,J2,3,Pin_3*
G04 #@! TO.N,Board_1-GND*
X40300000Y63165000D03*
G04 #@! TD*
D14*
G04 #@! TO.P,R1,1*
G04 #@! TO.N,Board_2-Net-(J1-Pin_1)*
X29120000Y19050000D03*
D11*
G04 #@! TO.P,R1,2*
G04 #@! TO.N,Board_2-Net-(J4-SDA)*
X21500000Y19050000D03*
G04 #@! TD*
D14*
G04 #@! TO.P,C1,1*
G04 #@! TO.N,Board_2-Net-(J1-Pin_1)*
X28400000Y14750000D03*
G04 #@! TO.P,C1,2*
G04 #@! TO.N,Board_2-GND*
X25900000Y14750000D03*
G04 #@! TD*
G04 #@! TO.P,R2,1*
G04 #@! TO.N,Board_3-Net-(J1-Pin_1)*
X59010000Y25500000D03*
D11*
G04 #@! TO.P,R2,2*
G04 #@! TO.N,Board_3-Net-(J4-SCL)*
X51390000Y25500000D03*
G04 #@! TD*
D14*
G04 #@! TO.P,R2,1*
G04 #@! TO.N,Board_2-Net-(J1-Pin_1)*
X29010000Y25500000D03*
D11*
G04 #@! TO.P,R2,2*
G04 #@! TO.N,Board_2-Net-(J4-SCL)*
X21390000Y25500000D03*
G04 #@! TD*
D12*
G04 #@! TO.P,J2,1,Pin_1*
G04 #@! TO.N,Board_0-Net-(J1-Pin_1)*
X10300000Y68245000D03*
D13*
G04 #@! TO.P,J2,2,Pin_2*
G04 #@! TO.N,Board_0-Net-(J2-Pin_2)*
X10300000Y65705000D03*
G04 #@! TO.P,J2,3,Pin_3*
G04 #@! TO.N,Board_0-GND*
X10300000Y63165000D03*
G04 #@! TD*
D12*
G04 #@! TO.P,J1,1,Pin_1*
G04 #@! TO.N,Board_3-Net-(J1-Pin_1)*
X40300000Y38730000D03*
D13*
G04 #@! TO.P,J1,2,Pin_2*
G04 #@! TO.N,Board_3-Net-(J1-Pin_2)*
X40300000Y36190000D03*
G04 #@! TO.P,J1,3,Pin_3*
G04 #@! TO.N,Board_3-GND*
X40300000Y33650000D03*
G04 #@! TD*
D12*
G04 #@! TO.P,J3,1,Pin_1*
G04 #@! TO.N,Board_1-Net-(J1-Pin_1)*
X40300000Y57230000D03*
D13*
G04 #@! TO.P,J3,2,Pin_2*
G04 #@! TO.N,Board_1-Net-(J3-Pin_2)*
X40300000Y54690000D03*
G04 #@! TO.P,J3,3,Pin_3*
G04 #@! TO.N,Board_1-GND*
X40300000Y52150000D03*
G04 #@! TD*
D12*
G04 #@! TO.P,J3,1,Pin_1*
G04 #@! TO.N,Board_3-Net-(J1-Pin_1)*
X40300000Y16230000D03*
D13*
G04 #@! TO.P,J3,2,Pin_2*
G04 #@! TO.N,Board_3-Net-(J3-Pin_2)*
X40300000Y13690000D03*
G04 #@! TO.P,J3,3,Pin_3*
G04 #@! TO.N,Board_3-GND*
X40300000Y11150000D03*
G04 #@! TD*
D14*
G04 #@! TO.P,R2,1*
G04 #@! TO.N,Board_0-Net-(J1-Pin_1)*
X29010000Y66500000D03*
D11*
G04 #@! TO.P,R2,2*
G04 #@! TO.N,Board_0-Net-(J4-SCL)*
X21390000Y66500000D03*
G04 #@! TD*
D12*
G04 #@! TO.P,J3,1,Pin_1*
G04 #@! TO.N,Board_0-Net-(J1-Pin_1)*
X10300000Y57230000D03*
D13*
G04 #@! TO.P,J3,2,Pin_2*
G04 #@! TO.N,Board_0-Net-(J3-Pin_2)*
X10300000Y54690000D03*
G04 #@! TO.P,J3,3,Pin_3*
G04 #@! TO.N,Board_0-GND*
X10300000Y52150000D03*
G04 #@! TD*
D14*
G04 #@! TO.P,R1,1*
G04 #@! TO.N,Board_0-Net-(J1-Pin_1)*
X29120000Y60050000D03*
D11*
G04 #@! TO.P,R1,2*
G04 #@! TO.N,Board_0-Net-(J4-SDA)*
X21500000Y60050000D03*
G04 #@! TD*
D14*
G04 #@! TO.P,R1,1*
G04 #@! TO.N,Board_1-Net-(J1-Pin_1)*
X59120000Y60050000D03*
D11*
G04 #@! TO.P,R1,2*
G04 #@! TO.N,Board_1-Net-(J4-SDA)*
X51500000Y60050000D03*
G04 #@! TD*
D12*
G04 #@! TO.P,J4,1,VCC*
G04 #@! TO.N,Board_0-Net-(J1-Pin_1)*
X28440000Y51250000D03*
D13*
G04 #@! TO.P,J4,2,GND*
G04 #@! TO.N,Board_0-GND*
X25900000Y51250000D03*
G04 #@! TO.P,J4,3,SCL*
G04 #@! TO.N,Board_0-Net-(J4-SCL)*
X23360000Y51250000D03*
G04 #@! TO.P,J4,4,SDA*
G04 #@! TO.N,Board_0-Net-(J4-SDA)*
X20820000Y51250000D03*
G04 #@! TD*
D12*
G04 #@! TO.P,J2,1,Pin_1*
G04 #@! TO.N,Board_2-Net-(J1-Pin_1)*
X10300000Y27245000D03*
D13*
G04 #@! TO.P,J2,2,Pin_2*
G04 #@! TO.N,Board_2-Net-(J2-Pin_2)*
X10300000Y24705000D03*
G04 #@! TO.P,J2,3,Pin_3*
G04 #@! TO.N,Board_2-GND*
X10300000Y22165000D03*
G04 #@! TD*
D12*
G04 #@! TO.P,J1,1,Pin_1*
G04 #@! TO.N,Board_2-Net-(J1-Pin_1)*
X10300000Y38730000D03*
D13*
G04 #@! TO.P,J1,2,Pin_2*
G04 #@! TO.N,Board_2-Net-(J1-Pin_2)*
X10300000Y36190000D03*
G04 #@! TO.P,J1,3,Pin_3*
G04 #@! TO.N,Board_2-GND*
X10300000Y33650000D03*
G04 #@! TD*
D12*
G04 #@! TO.P,J2,1,Pin_1*
G04 #@! TO.N,Board_3-Net-(J1-Pin_1)*
X40300000Y27245000D03*
D13*
G04 #@! TO.P,J2,2,Pin_2*
G04 #@! TO.N,Board_3-Net-(J2-Pin_2)*
X40300000Y24705000D03*
G04 #@! TO.P,J2,3,Pin_3*
G04 #@! TO.N,Board_3-GND*
X40300000Y22165000D03*
G04 #@! TD*
D12*
G04 #@! TO.P,J4,1,VCC*
G04 #@! TO.N,Board_2-Net-(J1-Pin_1)*
X28440000Y10250000D03*
D13*
G04 #@! TO.P,J4,2,GND*
G04 #@! TO.N,Board_2-GND*
X25900000Y10250000D03*
G04 #@! TO.P,J4,3,SCL*
G04 #@! TO.N,Board_2-Net-(J4-SCL)*
X23360000Y10250000D03*
G04 #@! TO.P,J4,4,SDA*
G04 #@! TO.N,Board_2-Net-(J4-SDA)*
X20820000Y10250000D03*
G04 #@! TD*
D10*
G04 #@! TO.P,U1,1,A0*
G04 #@! TO.N,Board_3-Net-(J1-Pin_2)*
X51330000Y39090000D03*
D11*
G04 #@! TO.P,U1,2,A1*
G04 #@! TO.N,Board_3-Net-(J2-Pin_2)*
X51330000Y36550000D03*
G04 #@! TO.P,U1,3,A2*
G04 #@! TO.N,Board_3-Net-(J3-Pin_2)*
X51330000Y34010000D03*
G04 #@! TO.P,U1,4,GND*
G04 #@! TO.N,Board_3-GND*
X51330000Y31470000D03*
G04 #@! TO.P,U1,5,SDA*
G04 #@! TO.N,Board_3-Net-(J4-SDA)*
X58950000Y31470000D03*
G04 #@! TO.P,U1,6,SCL*
G04 #@! TO.N,Board_3-Net-(J4-SCL)*
X58950000Y34010000D03*
G04 #@! TO.P,U1,7,WP*
G04 #@! TO.N,Board_3-GND*
X58950000Y36550000D03*
G04 #@! TO.P,U1,8,VCC*
G04 #@! TO.N,Board_3-Net-(J1-Pin_1)*
X58950000Y39090000D03*
G04 #@! TD*
D10*
G04 #@! TO.P,U1,1,A0*
G04 #@! TO.N,Board_2-Net-(J1-Pin_2)*
X21330000Y39090000D03*
D11*
G04 #@! TO.P,U1,2,A1*
G04 #@! TO.N,Board_2-Net-(J2-Pin_2)*
X21330000Y36550000D03*
G04 #@! TO.P,U1,3,A2*
G04 #@! TO.N,Board_2-Net-(J3-Pin_2)*
X21330000Y34010000D03*
G04 #@! TO.P,U1,4,GND*
G04 #@! TO.N,Board_2-GND*
X21330000Y31470000D03*
G04 #@! TO.P,U1,5,SDA*
G04 #@! TO.N,Board_2-Net-(J4-SDA)*
X28950000Y31470000D03*
G04 #@! TO.P,U1,6,SCL*
G04 #@! TO.N,Board_2-Net-(J4-SCL)*
X28950000Y34010000D03*
G04 #@! TO.P,U1,7,WP*
G04 #@! TO.N,Board_2-GND*
X28950000Y36550000D03*
G04 #@! TO.P,U1,8,VCC*
G04 #@! TO.N,Board_2-Net-(J1-Pin_1)*
X28950000Y39090000D03*
G04 #@! TD*
D14*
G04 #@! TO.P,C1,1*
G04 #@! TO.N,Board_0-Net-(J1-Pin_1)*
X28400000Y55750000D03*
G04 #@! TO.P,C1,2*
G04 #@! TO.N,Board_0-GND*
X25900000Y55750000D03*
G04 #@! TD*
D12*
G04 #@! TO.P,J1,1,Pin_1*
G04 #@! TO.N,Board_0-Net-(J1-Pin_1)*
X10300000Y79730000D03*
D13*
G04 #@! TO.P,J1,2,Pin_2*
G04 #@! TO.N,Board_0-Net-(J1-Pin_2)*
X10300000Y77190000D03*
G04 #@! TO.P,J1,3,Pin_3*
G04 #@! TO.N,Board_0-GND*
X10300000Y74650000D03*
G04 #@! TD*
D12*
G04 #@! TO.P,J4,1,VCC*
G04 #@! TO.N,Board_3-Net-(J1-Pin_1)*
X58440000Y10250000D03*
D13*
G04 #@! TO.P,J4,2,GND*
G04 #@! TO.N,Board_3-GND*
X55900000Y10250000D03*
G04 #@! TO.P,J4,3,SCL*
G04 #@! TO.N,Board_3-Net-(J4-SCL)*
X53360000Y10250000D03*
G04 #@! TO.P,J4,4,SDA*
G04 #@! TO.N,Board_3-Net-(J4-SDA)*
X50820000Y10250000D03*
G04 #@! TD*
D14*
G04 #@! TO.P,C1,1*
G04 #@! TO.N,Board_3-Net-(J1-Pin_1)*
X58400000Y14750000D03*
G04 #@! TO.P,C1,2*
G04 #@! TO.N,Board_3-GND*
X55900000Y14750000D03*
G04 #@! TD*
D12*
G04 #@! TO.P,J4,1,VCC*
G04 #@! TO.N,Board_1-Net-(J1-Pin_1)*
X58440000Y51250000D03*
D13*
G04 #@! TO.P,J4,2,GND*
G04 #@! TO.N,Board_1-GND*
X55900000Y51250000D03*
G04 #@! TO.P,J4,3,SCL*
G04 #@! TO.N,Board_1-Net-(J4-SCL)*
X53360000Y51250000D03*
G04 #@! TO.P,J4,4,SDA*
G04 #@! TO.N,Board_1-Net-(J4-SDA)*
X50820000Y51250000D03*
G04 #@! TD*
D12*
G04 #@! TO.P,J3,1,Pin_1*
G04 #@! TO.N,Board_2-Net-(J1-Pin_1)*
X10300000Y16230000D03*
D13*
G04 #@! TO.P,J3,2,Pin_2*
G04 #@! TO.N,Board_2-Net-(J3-Pin_2)*
X10300000Y13690000D03*
G04 #@! TO.P,J3,3,Pin_3*
G04 #@! TO.N,Board_2-GND*
X10300000Y11150000D03*
G04 #@! TD*
D12*
G04 #@! TO.P,J1,1,Pin_1*
G04 #@! TO.N,Board_1-Net-(J1-Pin_1)*
X40300000Y79730000D03*
D13*
G04 #@! TO.P,J1,2,Pin_2*
G04 #@! TO.N,Board_1-Net-(J1-Pin_2)*
X40300000Y77190000D03*
G04 #@! TO.P,J1,3,Pin_3*
G04 #@! TO.N,Board_1-GND*
X40300000Y74650000D03*
G04 #@! TD*
D10*
G04 #@! TO.P,U1,1,A0*
G04 #@! TO.N,Board_0-Net-(J1-Pin_2)*
X21330000Y80090000D03*
D11*
G04 #@! TO.P,U1,2,A1*
G04 #@! TO.N,Board_0-Net-(J2-Pin_2)*
X21330000Y77550000D03*
G04 #@! TO.P,U1,3,A2*
G04 #@! TO.N,Board_0-Net-(J3-Pin_2)*
X21330000Y75010000D03*
G04 #@! TO.P,U1,4,GND*
G04 #@! TO.N,Board_0-GND*
X21330000Y72470000D03*
G04 #@! TO.P,U1,5,SDA*
G04 #@! TO.N,Board_0-Net-(J4-SDA)*
X28950000Y72470000D03*
G04 #@! TO.P,U1,6,SCL*
G04 #@! TO.N,Board_0-Net-(J4-SCL)*
X28950000Y75010000D03*
G04 #@! TO.P,U1,7,WP*
G04 #@! TO.N,Board_0-GND*
X28950000Y77550000D03*
G04 #@! TO.P,U1,8,VCC*
G04 #@! TO.N,Board_0-Net-(J1-Pin_1)*
X28950000Y80090000D03*
G04 #@! TD*
D14*
G04 #@! TO.P,R1,1*
G04 #@! TO.N,Board_3-Net-(J1-Pin_1)*
X59120000Y19050000D03*
D11*
G04 #@! TO.P,R1,2*
G04 #@! TO.N,Board_3-Net-(J4-SDA)*
X51500000Y19050000D03*
G04 #@! TD*
D14*
G04 #@! TO.P,R2,1*
G04 #@! TO.N,Board_1-Net-(J1-Pin_1)*
X59010000Y66500000D03*
D11*
G04 #@! TO.P,R2,2*
G04 #@! TO.N,Board_1-Net-(J4-SCL)*
X51390000Y66500000D03*
G04 #@! TD*
D14*
G04 #@! TO.P,C1,1*
G04 #@! TO.N,Board_1-Net-(J1-Pin_1)*
X58400000Y55750000D03*
G04 #@! TO.P,C1,2*
G04 #@! TO.N,Board_1-GND*
X55900000Y55750000D03*
G04 #@! TD*
D15*
G04 #@! TO.N,Board_0-Net-(J1-Pin_1)*
X9400000Y82600000D02*
X29450000Y82600000D01*
X10170000Y79600000D02*
X10300000Y79730000D01*
X29450000Y82600000D02*
X30850000Y81200000D01*
X30460000Y80090000D02*
X28950000Y80090000D01*
X8050000Y67750000D02*
X8545000Y68245000D01*
X8050000Y57860000D02*
X8680000Y57230000D01*
D16*
X28440000Y55710000D02*
X28400000Y55750000D01*
D15*
X30200000Y55750000D02*
X30850000Y56400000D01*
X29120000Y60050000D02*
X29120000Y56390000D01*
X30850000Y56400000D02*
X30850000Y79700000D01*
X30850000Y81200000D02*
X30850000Y79700000D01*
X28480000Y55750000D02*
X30200000Y55750000D01*
X8050000Y67750000D02*
X8050000Y79100000D01*
X8545000Y68245000D02*
X10300000Y68245000D01*
D16*
X28440000Y55710000D02*
X28480000Y55750000D01*
D15*
X8050000Y67750000D02*
X8050000Y57860000D01*
X8050000Y81250000D02*
X9400000Y82600000D01*
D16*
X29120000Y56390000D02*
X28480000Y55750000D01*
D15*
X8550000Y79600000D02*
X10170000Y79600000D01*
X30850000Y79700000D02*
X30460000Y80090000D01*
X29010000Y66500000D02*
X29010000Y60160000D01*
X28440000Y51250000D02*
X28440000Y55710000D01*
X8050000Y79100000D02*
X8050000Y81250000D01*
X8680000Y57230000D02*
X10300000Y57230000D01*
D16*
X29010000Y60160000D02*
X29120000Y60050000D01*
D15*
X8050000Y79100000D02*
X8550000Y79600000D01*
D16*
G04 #@! TO.N,Board_0-Net-(J1-Pin_2)*
X10300000Y77190000D02*
X14540000Y77190000D01*
X17440000Y80090000D02*
X21330000Y80090000D01*
X14540000Y77190000D02*
X17440000Y80090000D01*
G04 #@! TO.N,Board_0-Net-(J2-Pin_2)*
X12155000Y65705000D02*
X12600000Y66150000D01*
X12600000Y66150000D02*
X12600000Y70050000D01*
X20100000Y77550000D02*
X21330000Y77550000D01*
X12600000Y70050000D02*
X20100000Y77550000D01*
X10300000Y65705000D02*
X12155000Y65705000D01*
G04 #@! TO.N,Board_0-Net-(J3-Pin_2)*
X21330000Y75010000D02*
X19610000Y75010000D01*
X13300000Y68700000D02*
X13300000Y55050000D01*
X12940000Y54690000D02*
X10300000Y54690000D01*
X19610000Y75010000D02*
X13300000Y68700000D01*
X13300000Y55050000D02*
X12940000Y54690000D01*
G04 #@! TO.N,Board_0-Net-(J4-SCL)*
X23360000Y50560000D02*
X23360000Y51250000D01*
X22600000Y49800000D02*
X23360000Y50560000D01*
X18250000Y53350000D02*
X18250000Y50650000D01*
X20850000Y61500000D02*
X19700000Y60350000D01*
X21390000Y67450000D02*
X21390000Y66500000D01*
X18250000Y50650000D02*
X19100000Y49800000D01*
X20850000Y65960000D02*
X20850000Y61500000D01*
X21390000Y66500000D02*
X20850000Y65960000D01*
X19100000Y49800000D02*
X22600000Y49800000D01*
X19700000Y54800000D02*
X18250000Y53350000D01*
X19700000Y60350000D02*
X19700000Y54800000D01*
X28950000Y75010000D02*
X21390000Y67450000D01*
G04 #@! TO.N,Board_0-Net-(J4-SDA)*
X21500000Y51930000D02*
X20820000Y51250000D01*
X21500000Y63888630D02*
X21500000Y60050000D01*
X28950000Y72470000D02*
X28950000Y71338630D01*
X21500000Y60050000D02*
X21500000Y51930000D01*
X28950000Y71338630D02*
X21500000Y63888630D01*
D15*
G04 #@! TO.N,Board_1-Net-(J1-Pin_1)*
X58440000Y51250000D02*
X58440000Y55710000D01*
X38680000Y57230000D02*
X40300000Y57230000D01*
X38050000Y57860000D02*
X38680000Y57230000D01*
X38050000Y81250000D02*
X39400000Y82600000D01*
D16*
X58440000Y55710000D02*
X58480000Y55750000D01*
D15*
X39400000Y82600000D02*
X59450000Y82600000D01*
X38050000Y67750000D02*
X38050000Y79100000D01*
X60460000Y80090000D02*
X58950000Y80090000D01*
D16*
X58440000Y55710000D02*
X58400000Y55750000D01*
D15*
X60850000Y81200000D02*
X60850000Y79700000D01*
X60850000Y79700000D02*
X60460000Y80090000D01*
X38550000Y79600000D02*
X40170000Y79600000D01*
X60200000Y55750000D02*
X60850000Y56400000D01*
X38050000Y79100000D02*
X38050000Y81250000D01*
X60850000Y56400000D02*
X60850000Y79700000D01*
X38050000Y67750000D02*
X38050000Y57860000D01*
X58480000Y55750000D02*
X60200000Y55750000D01*
X59010000Y66500000D02*
X59010000Y60160000D01*
X38545000Y68245000D02*
X40300000Y68245000D01*
X38050000Y79100000D02*
X38550000Y79600000D01*
X59120000Y60050000D02*
X59120000Y56390000D01*
D16*
X59010000Y60160000D02*
X59120000Y60050000D01*
D15*
X38050000Y67750000D02*
X38545000Y68245000D01*
D16*
X59120000Y56390000D02*
X58480000Y55750000D01*
D15*
X40170000Y79600000D02*
X40300000Y79730000D01*
X59450000Y82600000D02*
X60850000Y81200000D01*
D16*
G04 #@! TO.N,Board_1-Net-(J1-Pin_2)*
X44540000Y77190000D02*
X47440000Y80090000D01*
X47440000Y80090000D02*
X51330000Y80090000D01*
X40300000Y77190000D02*
X44540000Y77190000D01*
G04 #@! TO.N,Board_1-Net-(J2-Pin_2)*
X42600000Y70050000D02*
X50100000Y77550000D01*
X40300000Y65705000D02*
X42155000Y65705000D01*
X42600000Y66150000D02*
X42600000Y70050000D01*
X42155000Y65705000D02*
X42600000Y66150000D01*
X50100000Y77550000D02*
X51330000Y77550000D01*
G04 #@! TO.N,Board_1-Net-(J3-Pin_2)*
X49610000Y75010000D02*
X43300000Y68700000D01*
X43300000Y68700000D02*
X43300000Y55050000D01*
X51330000Y75010000D02*
X49610000Y75010000D01*
X42940000Y54690000D02*
X40300000Y54690000D01*
X43300000Y55050000D02*
X42940000Y54690000D01*
G04 #@! TO.N,Board_1-Net-(J4-SCL)*
X50850000Y61500000D02*
X49700000Y60350000D01*
X48250000Y50650000D02*
X49100000Y49800000D01*
X53360000Y50560000D02*
X53360000Y51250000D01*
X49700000Y54800000D02*
X48250000Y53350000D01*
X48250000Y53350000D02*
X48250000Y50650000D01*
X58950000Y75010000D02*
X51390000Y67450000D01*
X49700000Y60350000D02*
X49700000Y54800000D01*
X51390000Y66500000D02*
X50850000Y65960000D01*
X50850000Y65960000D02*
X50850000Y61500000D01*
X51390000Y67450000D02*
X51390000Y66500000D01*
X52600000Y49800000D02*
X53360000Y50560000D01*
X49100000Y49800000D02*
X52600000Y49800000D01*
G04 #@! TO.N,Board_1-Net-(J4-SDA)*
X58950000Y72470000D02*
X58950000Y71338630D01*
X58950000Y71338630D02*
X51500000Y63888630D01*
X51500000Y60050000D02*
X51500000Y51930000D01*
X51500000Y63888630D02*
X51500000Y60050000D01*
X51500000Y51930000D02*
X50820000Y51250000D01*
D15*
G04 #@! TO.N,Board_2-Net-(J1-Pin_1)*
X8050000Y38100000D02*
X8050000Y40250000D01*
X8545000Y27245000D02*
X10300000Y27245000D01*
X8050000Y38100000D02*
X8550000Y38600000D01*
X9400000Y41600000D02*
X29450000Y41600000D01*
D16*
X29010000Y19160000D02*
X29120000Y19050000D01*
D15*
X10170000Y38600000D02*
X10300000Y38730000D01*
X8050000Y26750000D02*
X8050000Y16860000D01*
X30460000Y39090000D02*
X28950000Y39090000D01*
X29120000Y19050000D02*
X29120000Y15390000D01*
X8050000Y40250000D02*
X9400000Y41600000D01*
X8550000Y38600000D02*
X10170000Y38600000D01*
X30850000Y38700000D02*
X30460000Y39090000D01*
X29450000Y41600000D02*
X30850000Y40200000D01*
D16*
X28440000Y14710000D02*
X28480000Y14750000D01*
D15*
X28440000Y10250000D02*
X28440000Y14710000D01*
X28480000Y14750000D02*
X30200000Y14750000D01*
D16*
X28440000Y14710000D02*
X28400000Y14750000D01*
D15*
X8050000Y26750000D02*
X8050000Y38100000D01*
X8050000Y16860000D02*
X8680000Y16230000D01*
X29010000Y25500000D02*
X29010000Y19160000D01*
X8680000Y16230000D02*
X10300000Y16230000D01*
X30850000Y15400000D02*
X30850000Y38700000D01*
X30200000Y14750000D02*
X30850000Y15400000D01*
X30850000Y40200000D02*
X30850000Y38700000D01*
X8050000Y26750000D02*
X8545000Y27245000D01*
D16*
X29120000Y15390000D02*
X28480000Y14750000D01*
G04 #@! TO.N,Board_2-Net-(J1-Pin_2)*
X14540000Y36190000D02*
X17440000Y39090000D01*
X10300000Y36190000D02*
X14540000Y36190000D01*
X17440000Y39090000D02*
X21330000Y39090000D01*
G04 #@! TO.N,Board_2-Net-(J2-Pin_2)*
X10300000Y24705000D02*
X12155000Y24705000D01*
X12600000Y29050000D02*
X20100000Y36550000D01*
X20100000Y36550000D02*
X21330000Y36550000D01*
X12600000Y25150000D02*
X12600000Y29050000D01*
X12155000Y24705000D02*
X12600000Y25150000D01*
G04 #@! TO.N,Board_2-Net-(J3-Pin_2)*
X19610000Y34010000D02*
X13300000Y27700000D01*
X13300000Y27700000D02*
X13300000Y14050000D01*
X21330000Y34010000D02*
X19610000Y34010000D01*
X12940000Y13690000D02*
X10300000Y13690000D01*
X13300000Y14050000D02*
X12940000Y13690000D01*
G04 #@! TO.N,Board_2-Net-(J4-SCL)*
X19700000Y13800000D02*
X18250000Y12350000D01*
X20850000Y24960000D02*
X20850000Y20500000D01*
X18250000Y9650000D02*
X19100000Y8800000D01*
X18250000Y12350000D02*
X18250000Y9650000D01*
X23360000Y9560000D02*
X23360000Y10250000D01*
X21390000Y26450000D02*
X21390000Y25500000D01*
X28950000Y34010000D02*
X21390000Y26450000D01*
X20850000Y20500000D02*
X19700000Y19350000D01*
X19100000Y8800000D02*
X22600000Y8800000D01*
X21390000Y25500000D02*
X20850000Y24960000D01*
X19700000Y19350000D02*
X19700000Y13800000D01*
X22600000Y8800000D02*
X23360000Y9560000D01*
G04 #@! TO.N,Board_2-Net-(J4-SDA)*
X21500000Y10930000D02*
X20820000Y10250000D01*
X28950000Y30338630D02*
X21500000Y22888630D01*
X21500000Y19050000D02*
X21500000Y10930000D01*
X28950000Y31470000D02*
X28950000Y30338630D01*
X21500000Y22888630D02*
X21500000Y19050000D01*
D15*
G04 #@! TO.N,Board_3-Net-(J1-Pin_1)*
X38050000Y38100000D02*
X38550000Y38600000D01*
X60850000Y38700000D02*
X60460000Y39090000D01*
D16*
X58440000Y14710000D02*
X58400000Y14750000D01*
D15*
X60850000Y15400000D02*
X60850000Y38700000D01*
X38050000Y40250000D02*
X39400000Y41600000D01*
X59120000Y19050000D02*
X59120000Y15390000D01*
X38050000Y16860000D02*
X38680000Y16230000D01*
X38050000Y26750000D02*
X38545000Y27245000D01*
X38545000Y27245000D02*
X40300000Y27245000D01*
X38050000Y26750000D02*
X38050000Y38100000D01*
X59450000Y41600000D02*
X60850000Y40200000D01*
X38050000Y26750000D02*
X38050000Y16860000D01*
X38550000Y38600000D02*
X40170000Y38600000D01*
X38680000Y16230000D02*
X40300000Y16230000D01*
D16*
X59010000Y19160000D02*
X59120000Y19050000D01*
D15*
X58440000Y10250000D02*
X58440000Y14710000D01*
X60200000Y14750000D02*
X60850000Y15400000D01*
X59010000Y25500000D02*
X59010000Y19160000D01*
X60460000Y39090000D02*
X58950000Y39090000D01*
D16*
X58440000Y14710000D02*
X58480000Y14750000D01*
D15*
X58480000Y14750000D02*
X60200000Y14750000D01*
X60850000Y40200000D02*
X60850000Y38700000D01*
X39400000Y41600000D02*
X59450000Y41600000D01*
X40170000Y38600000D02*
X40300000Y38730000D01*
D16*
X59120000Y15390000D02*
X58480000Y14750000D01*
D15*
X38050000Y38100000D02*
X38050000Y40250000D01*
D16*
G04 #@! TO.N,Board_3-Net-(J1-Pin_2)*
X40300000Y36190000D02*
X44540000Y36190000D01*
X47440000Y39090000D02*
X51330000Y39090000D01*
X44540000Y36190000D02*
X47440000Y39090000D01*
G04 #@! TO.N,Board_3-Net-(J2-Pin_2)*
X42600000Y29050000D02*
X50100000Y36550000D01*
X40300000Y24705000D02*
X42155000Y24705000D01*
X50100000Y36550000D02*
X51330000Y36550000D01*
X42155000Y24705000D02*
X42600000Y25150000D01*
X42600000Y25150000D02*
X42600000Y29050000D01*
G04 #@! TO.N,Board_3-Net-(J3-Pin_2)*
X42940000Y13690000D02*
X40300000Y13690000D01*
X43300000Y14050000D02*
X42940000Y13690000D01*
X49610000Y34010000D02*
X43300000Y27700000D01*
X43300000Y27700000D02*
X43300000Y14050000D01*
X51330000Y34010000D02*
X49610000Y34010000D01*
G04 #@! TO.N,Board_3-Net-(J4-SCL)*
X52600000Y8800000D02*
X53360000Y9560000D01*
X51390000Y25500000D02*
X50850000Y24960000D01*
X50850000Y20500000D02*
X49700000Y19350000D01*
X49700000Y19350000D02*
X49700000Y13800000D01*
X49700000Y13800000D02*
X48250000Y12350000D01*
X49100000Y8800000D02*
X52600000Y8800000D01*
X48250000Y12350000D02*
X48250000Y9650000D01*
X58950000Y34010000D02*
X51390000Y26450000D01*
X50850000Y24960000D02*
X50850000Y20500000D01*
X48250000Y9650000D02*
X49100000Y8800000D01*
X53360000Y9560000D02*
X53360000Y10250000D01*
X51390000Y26450000D02*
X51390000Y25500000D01*
G04 #@! TO.N,Board_3-Net-(J4-SDA)*
X51500000Y22888630D02*
X51500000Y19050000D01*
X58950000Y30338630D02*
X51500000Y22888630D01*
X51500000Y10930000D02*
X50820000Y10250000D01*
X51500000Y19050000D02*
X51500000Y10930000D01*
X58950000Y31470000D02*
X58950000Y30338630D01*
G04 #@! TD*
D17*
X35485411Y61857871D02*
X35662447Y61941603D01*
X35709005Y46043017D02*
X35485411Y46142130D01*
X35142129Y85514589D02*
X35292600Y85707400D01*
X45404085Y47428128D02*
X45456983Y47290995D01*
X6471925Y29117961D02*
X6290994Y29043017D01*
X5328112Y61741210D02*
X5485411Y61857871D01*
X63098919Y29004811D02*
X62901080Y29004811D01*
X62000000Y43000000D02*
X62000000Y7000000D01*
X63514588Y44857871D02*
X63707399Y44707400D01*
X54116699Y44923956D02*
X54256262Y44970061D01*
X35168362Y29443986D02*
X35095914Y29571873D01*
X35076044Y85383301D02*
X35142129Y85514589D01*
X33671887Y46258791D02*
X33471925Y46117961D01*
X35662447Y20941603D02*
X35852416Y20989188D01*
X6634758Y29226763D02*
X6471925Y29117961D01*
X32365241Y70226763D02*
X32226762Y70365242D01*
X45092617Y84200000D02*
X53907382Y84200000D01*
X34000000Y46999013D02*
X33989187Y46852417D01*
X36471925Y70117961D02*
X36290994Y70043017D01*
X35292600Y46292601D02*
X35142129Y46485412D01*
X5901080Y70004811D02*
X5709005Y70043017D01*
X23642129Y47514589D02*
X23758790Y47671888D01*
X64000000Y5999013D02*
X63970060Y5756263D01*
X14743737Y46029940D02*
X14500987Y46000000D01*
X7000000Y84000000D02*
X32000000Y84000000D01*
X63290994Y5043017D02*
X63050018Y5001204D01*
X63195895Y61980805D02*
X63337552Y61941603D01*
X5485411Y61857871D02*
X5662447Y61941603D01*
X5571872Y20904086D02*
X5756262Y20970061D01*
X32226762Y70365242D02*
X32200000Y70405295D01*
X35292600Y5292601D02*
X35142129Y5485412D01*
X6634758Y70226763D02*
X6471925Y70117961D01*
X63803404Y20596104D02*
X63882039Y20471926D01*
X15171887Y85741210D02*
X15273237Y85634759D01*
X63671887Y46258791D02*
X63471925Y46117961D01*
X15056014Y5168363D02*
X14928127Y5095915D01*
X23543016Y85290995D02*
X23617960Y85471926D01*
X45014588Y85857871D02*
X45171887Y85741210D01*
X63970060Y44243738D02*
X64000000Y44000988D01*
X37000000Y7000000D02*
X37000000Y43000000D01*
X23943985Y44831638D02*
X24116699Y44923956D01*
X35571872Y70095915D02*
X35403896Y70196596D01*
X32804104Y61980805D02*
X33050018Y61998797D01*
X33923955Y44383301D02*
X33970060Y44243738D01*
X54256262Y46029940D02*
X54071872Y46095915D01*
X36634758Y70226763D02*
X36471925Y70117961D01*
X45489187Y5852417D02*
X45456983Y5709006D01*
X5365241Y70226763D02*
X5258790Y70328113D01*
X63514588Y85857871D02*
X63707399Y85707400D01*
X23510812Y6147584D02*
X23558397Y6337553D01*
X63970060Y70756263D02*
X63904085Y70571873D01*
X23758790Y6671888D02*
X23900140Y6800000D01*
X33290994Y5043017D02*
X33050018Y5001204D01*
X45500000Y47000988D02*
X45489187Y46852417D01*
X53558397Y85337553D02*
X53617960Y85471926D01*
X15092617Y43200000D02*
X23907382Y43200000D01*
X35168362Y70443986D02*
X35076044Y70616700D01*
X481Y655D02*
X68999345Y482D01*
X24449981Y5001204D02*
X24256262Y5029940D01*
X33741209Y70328113D02*
X33596103Y70196596D01*
X33831637Y29443986D02*
X33707399Y29292601D01*
X32200000Y70405295D02*
X32200000Y61596555D01*
X63970060Y5756263D02*
X63923955Y5616700D01*
X23543016Y44290995D02*
X23617960Y44471926D01*
X53828112Y84258791D02*
X53696595Y84403897D01*
X63923955Y85383301D02*
X63970060Y85243738D01*
X15171887Y44741210D02*
X15303404Y44596104D01*
X45470060Y84756263D02*
X45404085Y84571873D01*
X32528074Y29117961D02*
X32365241Y29226763D01*
X45489187Y46852417D02*
X45456983Y46709006D01*
X63098919Y70004811D02*
X62901080Y70004811D01*
X45498796Y43949982D02*
X45470060Y43756263D01*
X36290994Y70043017D02*
X36098919Y70004811D01*
X32000000Y7000000D02*
X7000000Y7000000D01*
X33290994Y70043017D02*
X33098919Y70004811D01*
X5001203Y29949982D02*
X5000000Y44000988D01*
X35001203Y61050019D02*
X35029939Y61243738D01*
X44883300Y44923956D02*
X45014588Y44857871D01*
X53529939Y6243738D02*
X53595914Y6428128D01*
X35076044Y5616700D02*
X35029939Y5756263D01*
X5328112Y5258791D02*
X5168362Y5443986D01*
X35000000Y46999013D02*
X35001203Y61050019D01*
X53828112Y5258791D02*
X53696595Y5403897D01*
X35949981Y85998797D02*
X44550018Y85998797D01*
X14790994Y5043017D02*
X14647583Y5010813D01*
X45171887Y85741210D02*
X45273237Y85634759D01*
X63707399Y85707400D02*
X63857870Y85514589D01*
X33050018Y44998797D02*
X33290994Y44956984D01*
X45092617Y43200000D02*
X53907382Y43200000D01*
X45171887Y44741210D02*
X45273237Y44634759D01*
X33923955Y85383301D02*
X33970060Y85243738D01*
X45241209Y46328113D02*
X45134758Y46226763D01*
X15470060Y84756263D02*
X15404085Y84571873D01*
X63707399Y70292601D02*
X63556014Y70168363D01*
X54352416Y5010813D02*
X54162447Y5058398D01*
X6098919Y70004811D02*
X5901080Y70004811D01*
X36337552Y20941603D02*
X36514588Y20857871D01*
X15303404Y43403897D02*
X15171887Y43258791D01*
X53696595Y84403897D02*
X53595914Y84571873D01*
X23501203Y43949982D02*
X23510812Y44147584D01*
X23758790Y47671888D02*
X23900140Y47800000D01*
X53617960Y85471926D02*
X53696595Y85596104D01*
X63998796Y70949982D02*
X63970060Y70756263D01*
X53510812Y47147584D02*
X53558397Y47337553D01*
X5168362Y5443986D02*
X5095914Y5571873D01*
X53668362Y6556015D02*
X53792600Y6707400D01*
X33428127Y61904086D02*
X33556014Y61831638D01*
X14695895Y85980805D02*
X14883300Y85923956D01*
X33904085Y29571873D02*
X33831637Y29443986D01*
X33904085Y46571873D02*
X33831637Y46443986D01*
X36514588Y61857871D02*
X36671887Y61741210D01*
X36773237Y29365242D02*
X36634758Y29226763D01*
X32258790Y61671888D02*
X32365241Y61773238D01*
X5076044Y29616700D02*
X5019195Y29804105D01*
X33956983Y5709006D02*
X33904085Y5571873D01*
X5142129Y85514589D02*
X5292600Y85707400D01*
X23500000Y6000988D02*
X23510812Y6147584D01*
X45382039Y44471926D02*
X45441602Y44337553D01*
X14550018Y44998797D02*
X14743737Y44970061D01*
X5403896Y20803405D02*
X5571872Y20904086D01*
X5949981Y85998797D02*
X14550018Y85998797D01*
X5029939Y46756263D02*
X5000000Y46999013D01*
X44550018Y85998797D02*
X44743737Y85970061D01*
X45404085Y43571873D02*
X45303404Y43403897D01*
X5485411Y85857871D02*
X5709005Y85956984D01*
X5142129Y44514589D02*
X5292600Y44707400D01*
X15382039Y44471926D02*
X15441602Y44337553D01*
X63803404Y70403897D02*
X63707399Y70292601D01*
X45096758Y47800000D02*
X45134758Y47773238D01*
X33707399Y85707400D02*
X33857870Y85514589D01*
X35292600Y29292601D02*
X35168362Y29443986D01*
X63803404Y29403897D02*
X63707399Y29292601D01*
X36773237Y70365242D02*
X36634758Y70226763D01*
X33290994Y85956984D02*
X33514588Y85857871D01*
X62200000Y29405295D02*
X62200000Y20599679D01*
X64000000Y46999013D02*
X63989187Y46852417D01*
X24116699Y85923956D02*
X24256262Y85970061D01*
X5196595Y61596104D02*
X5328112Y61741210D01*
X63831637Y46443986D02*
X63671887Y46258791D01*
X24256262Y46029940D02*
X24071872Y46095915D01*
X63998796Y29949982D02*
X63970060Y29756263D01*
X33050018Y5001204D02*
X24449981Y5001204D01*
X53758790Y47671888D02*
X53900140Y47800000D01*
X63857870Y85514589D02*
X63923955Y85383301D01*
X35001203Y20050019D02*
X35029939Y20243738D01*
X23529939Y43756263D02*
X23501203Y43949982D01*
X5485411Y44857871D02*
X5709005Y44956984D01*
X15498796Y84949982D02*
X15470060Y84756263D01*
X15441602Y44337553D02*
X15489187Y44147584D01*
X63904085Y70571873D02*
X63803404Y70403897D01*
X45014588Y46142130D02*
X44883300Y46076045D01*
X35709005Y5043017D02*
X35485411Y5142130D01*
X5095914Y5571873D02*
X5043016Y5709006D01*
X63050018Y61998797D02*
X63195895Y61980805D01*
X68999345Y482D02*
X68999518Y90999346D01*
X35852416Y20989188D02*
X36000987Y21000000D01*
X32709005Y29043017D02*
X32528074Y29117961D01*
X62365241Y29226763D02*
X62226762Y29365242D01*
X54499012Y5000000D02*
X54352416Y5010813D01*
X33050018Y20998797D02*
X33195895Y20980805D01*
X24256262Y5029940D02*
X24071872Y5095915D01*
X33428127Y70095915D02*
X33290994Y70043017D01*
X34000000Y61000988D02*
X34000000Y46999013D01*
X5076044Y70616700D02*
X5029939Y70756263D01*
X33098919Y29004811D02*
X32901080Y29004811D01*
X6290994Y20956984D02*
X6471925Y20882040D01*
X53501203Y43949982D02*
X53510812Y44147584D01*
X6337552Y61941603D02*
X6514588Y61857871D01*
X63970060Y29756263D02*
X63904085Y29571873D01*
X36147583Y20989188D02*
X36337552Y20941603D01*
X6800363Y70405839D02*
X6773237Y70365242D01*
X23696595Y84403897D02*
X23595914Y84571873D01*
X35076044Y70616700D02*
X35019195Y70804105D01*
X33596103Y70196596D02*
X33428127Y70095915D01*
X35901080Y29004811D02*
X35756262Y29029940D01*
X33882039Y61471926D02*
X33970060Y61243738D01*
X5076044Y85383301D02*
X5142129Y85514589D01*
X24256262Y85970061D02*
X24449981Y85998797D01*
X64000000Y44000988D02*
X63998796Y29949982D01*
X15470060Y43756263D02*
X15404085Y43571873D01*
X64000000Y20000988D02*
X64000000Y5999013D01*
X33998796Y70949982D02*
X33980804Y70804105D01*
X15331637Y47556015D02*
X15404085Y47428128D01*
X63857870Y44514589D02*
X63923955Y44383301D01*
X45404085Y46571873D02*
X45331637Y46443986D01*
X54449981Y46001204D02*
X54256262Y46029940D01*
X45331637Y5443986D02*
X45241209Y5328113D01*
X62200000Y20599679D02*
X62365241Y20773238D01*
X62365241Y20773238D02*
X62571872Y20904086D01*
X63050018Y46001204D02*
X54449981Y46001204D01*
X23907382Y84200000D02*
X23828112Y84258791D01*
X6098919Y20995190D02*
X6290994Y20956984D01*
X45331637Y46443986D02*
X45241209Y46328113D01*
X33831637Y5443986D02*
X33707399Y5292601D01*
X15489187Y44147584D02*
X15498796Y43949982D01*
X45456983Y47290995D02*
X45489187Y47147584D01*
X45303404Y84403897D02*
X45171887Y84258791D01*
X15495189Y5901081D02*
X15470060Y5756263D01*
X23758790Y5328113D02*
X23642129Y5485412D01*
X5403896Y29196596D02*
X5258790Y29328113D01*
X45134758Y6773238D02*
X45241209Y6671888D01*
X35485411Y46142130D02*
X35292600Y46292601D01*
X5142129Y70485412D02*
X5076044Y70616700D01*
X63904085Y29571873D02*
X63803404Y29403897D01*
X45470060Y43756263D02*
X45404085Y43571873D01*
X23500000Y47000988D02*
X23510812Y47147584D01*
X33970060Y20243738D02*
X34000000Y20000988D01*
X5058397Y20337553D02*
X5142129Y20514589D01*
X53558397Y44337553D02*
X53617960Y44471926D01*
X24071872Y46095915D02*
X23903896Y46196596D01*
X45331637Y47556015D02*
X45404085Y47428128D01*
X23758790Y46328113D02*
X23642129Y46485412D01*
X35142129Y46485412D02*
X35076044Y46616700D01*
X35258790Y70328113D02*
X35168362Y70443986D01*
X7000000Y48000000D02*
X7000000Y84000000D01*
X35000000Y5999013D02*
X35001203Y20050019D01*
X45273237Y85634759D02*
X45382039Y85471926D01*
X15404085Y84571873D02*
X15303404Y84403897D01*
X35029939Y20243738D02*
X35095914Y20428128D01*
X35029939Y29756263D02*
X35001203Y29949982D01*
X36800363Y70405839D02*
X36773237Y70365242D01*
X5709005Y85956984D02*
X5949981Y85998797D01*
X23903896Y46196596D02*
X23758790Y46328113D01*
X36671887Y20741210D02*
X36800598Y20599199D01*
X45273237Y44634759D02*
X45382039Y44471926D01*
X63243737Y46029940D02*
X63050018Y46001204D01*
X15404085Y6428128D02*
X15456983Y6290995D01*
X63556014Y70168363D02*
X63428127Y70095915D01*
X15171887Y43258791D02*
X15092617Y43200000D01*
X5852416Y61989188D02*
X6000987Y62000000D01*
X14500987Y46000000D02*
X5949981Y46001204D01*
X35901080Y70004811D02*
X35709005Y70043017D01*
X53510812Y44147584D02*
X53558397Y44337553D01*
X5029939Y70756263D02*
X5001203Y70949982D01*
X23510812Y44147584D02*
X23543016Y44290995D01*
X35485411Y5142130D02*
X35292600Y5292601D01*
X54449981Y44998797D02*
X63050018Y44998797D01*
X63050018Y85998797D02*
X63290994Y85956984D01*
X45134758Y5226763D02*
X45014588Y5142130D01*
X45014588Y44857871D02*
X45171887Y44741210D01*
X15303404Y44596104D02*
X15382039Y44471926D01*
X44743737Y5029940D02*
X44500987Y5000000D01*
X23558397Y46662448D02*
X23510812Y46852417D01*
X23642129Y6514589D02*
X23758790Y6671888D01*
X33556014Y61831638D02*
X33741209Y61671888D01*
X35029939Y46756263D02*
X35000000Y46999013D01*
X45456983Y46709006D02*
X45404085Y46571873D01*
X63290994Y44956984D02*
X63514588Y44857871D01*
X33428127Y29095915D02*
X33243737Y29029940D01*
X33989187Y46852417D02*
X33956983Y46709006D01*
X63904085Y46571873D02*
X63831637Y46443986D01*
X45441602Y44337553D02*
X45489187Y44147584D01*
X35709005Y44956984D02*
X35949981Y44998797D01*
X33707399Y5292601D02*
X33514588Y5142130D01*
X23510812Y47147584D02*
X23558397Y47337553D01*
X53828112Y44741210D02*
X53943985Y44831638D01*
X15014588Y46142130D02*
X14883300Y46076045D01*
X33337552Y20941603D02*
X33556014Y20831638D01*
X35019195Y70804105D02*
X35001203Y70949982D01*
X14550018Y85998797D02*
X14695895Y85980805D01*
X35709005Y70043017D02*
X35571872Y70095915D01*
X63337552Y61941603D02*
X63556014Y61831638D01*
X35196595Y61596104D02*
X35328112Y61741210D01*
X35571872Y29095915D02*
X35403896Y29196596D01*
X5756262Y20970061D02*
X5949981Y20998797D01*
X23828112Y84258791D02*
X23696595Y84403897D01*
X54449981Y85998797D02*
X63050018Y85998797D01*
X5010812Y5852417D02*
X5000000Y5999013D01*
X33707399Y44707400D02*
X33857870Y44514589D01*
X5528074Y70117961D02*
X5365241Y70226763D01*
X45456983Y6290995D02*
X45489187Y6147584D01*
X36634758Y29226763D02*
X36471925Y29117961D01*
X5000000Y20000988D02*
X5010812Y20147584D01*
X35029939Y5756263D02*
X35000000Y5999013D01*
X63923955Y5616700D02*
X63857870Y5485412D01*
X62901080Y70004811D02*
X62709005Y70043017D01*
X15489187Y47147584D02*
X15500000Y47000988D01*
X33514588Y5142130D02*
X33290994Y5043017D01*
X5709005Y46043017D02*
X5485411Y46142130D01*
X24449981Y46001204D02*
X24256262Y46029940D01*
X36147583Y61989188D02*
X36337552Y61941603D01*
X35485411Y85857871D02*
X35709005Y85956984D01*
X32804104Y20980805D02*
X33050018Y20998797D01*
X23828112Y85741210D02*
X23943985Y85831638D01*
X45241209Y5328113D02*
X45134758Y5226763D01*
X35485411Y44857871D02*
X35709005Y44956984D01*
X23900140Y6800000D02*
X15096758Y6800000D01*
X62226762Y70365242D02*
X62200000Y70405295D01*
X54116699Y85923956D02*
X54304104Y85980805D01*
X6147583Y61989188D02*
X6337552Y61941603D01*
X23943985Y85831638D02*
X24116699Y85923956D01*
X53500000Y47000988D02*
X53510812Y47147584D01*
X53558397Y46662448D02*
X53510812Y46852417D01*
X35076044Y46616700D02*
X35029939Y46756263D01*
X23529939Y84756263D02*
X23501203Y84949982D01*
X5019195Y29804105D02*
X5001203Y29949982D01*
X44500987Y46000000D02*
X35949981Y46001204D01*
X5292600Y44707400D02*
X5485411Y44857871D01*
X33514588Y44857871D02*
X33707399Y44707400D01*
X53828112Y85741210D02*
X53943985Y85831638D01*
X36471925Y29117961D02*
X36290994Y29043017D01*
X63514588Y20857871D02*
X63707399Y20707400D01*
X15500000Y47000988D02*
X15489187Y46852417D01*
X36800598Y61599199D02*
X36800363Y70405839D01*
X35095914Y20428128D02*
X35196595Y20596104D01*
X33970060Y85243738D02*
X34000000Y85000988D01*
X62365241Y61773238D02*
X62571872Y61904086D01*
X37000000Y48000000D02*
X37000000Y84000000D01*
X5292600Y85707400D02*
X5485411Y85857871D01*
X53696595Y44596104D02*
X53828112Y44741210D01*
X35029939Y44243738D02*
X35076044Y44383301D01*
X45441602Y85337553D02*
X45489187Y85147584D01*
X15331637Y6556015D02*
X15404085Y6428128D01*
X62200000Y70405295D02*
X62200000Y61599679D01*
X53943985Y85831638D02*
X54116699Y85923956D01*
X62571872Y20904086D02*
X62804104Y20980805D01*
X53758790Y46328113D02*
X53642129Y46485412D01*
X35142129Y44514589D02*
X35292600Y44707400D01*
X35709005Y85956984D02*
X35949981Y85998797D01*
X15273237Y85634759D02*
X15382039Y85471926D01*
X5043016Y5709006D02*
X5010812Y5852417D01*
X45241209Y47671888D02*
X45331637Y47556015D01*
X5949981Y5001204D02*
X5709005Y5043017D01*
X15404085Y46571873D02*
X15331637Y46443986D01*
X5949981Y46001204D02*
X5709005Y46043017D01*
X63923955Y44383301D02*
X63970060Y44243738D01*
X32571872Y61904086D02*
X32804104Y61980805D01*
X33980804Y70804105D02*
X33923955Y70616700D01*
X5258790Y29328113D02*
X5168362Y29443986D01*
X53792600Y6707400D02*
X53899950Y6800000D01*
X63741209Y61671888D02*
X63882039Y61471926D01*
X53529939Y5756263D02*
X53504810Y5901081D01*
X35949981Y46001204D02*
X35709005Y46043017D01*
X63290994Y85956984D02*
X63514588Y85857871D01*
X35949981Y44998797D02*
X44550018Y44998797D01*
X53510812Y85147584D02*
X53558397Y85337553D01*
X35949981Y5001204D02*
X35709005Y5043017D01*
X6773237Y70365242D02*
X6634758Y70226763D01*
X5571872Y29095915D02*
X5403896Y29196596D01*
X45489187Y6147584D02*
X45500000Y6000988D01*
X63707399Y20707400D02*
X63803404Y20596104D01*
X45489187Y47147584D02*
X45500000Y47000988D01*
X34000000Y5999013D02*
X33989187Y5852417D01*
X63290994Y29043017D02*
X63098919Y29004811D01*
X15404085Y47428128D02*
X15456983Y47290995D01*
X15134758Y47773238D02*
X15241209Y47671888D01*
X32365241Y29226763D02*
X32226762Y29365242D01*
X62804104Y61980805D02*
X63050018Y61998797D01*
X64000000Y61000988D02*
X64000000Y46999013D01*
X23900140Y47800000D02*
X15096758Y47800000D01*
X35001203Y70949982D02*
X35000000Y85000988D01*
X33970060Y61243738D02*
X34000000Y61000988D01*
X53529939Y84756263D02*
X53501203Y84949982D01*
X23726762Y85634759D02*
X23828112Y85741210D01*
X23642129Y46485412D02*
X23558397Y46662448D01*
X45303404Y43403897D02*
X45171887Y43258791D01*
X24449981Y44998797D02*
X33050018Y44998797D01*
X53642129Y46485412D02*
X53558397Y46662448D01*
X15470060Y5756263D02*
X15423955Y5616700D01*
X33290994Y61956984D02*
X33428127Y61904086D01*
X5029939Y85243738D02*
X5076044Y85383301D01*
X63428127Y29095915D02*
X63290994Y29043017D01*
X45404085Y5571873D02*
X45331637Y5443986D01*
X14647583Y5010813D02*
X14500987Y5000000D01*
X53595914Y43571873D02*
X53529939Y43756263D01*
X54162447Y5058398D02*
X53985411Y5142130D01*
X44743737Y46029940D02*
X44500987Y46000000D01*
X15171887Y5258791D02*
X15056014Y5168363D01*
X15056014Y44831638D02*
X15171887Y44741210D01*
X44743737Y85970061D02*
X44883300Y85923956D01*
X32365241Y61773238D02*
X32571872Y61904086D01*
X62528074Y70117961D02*
X62365241Y70226763D01*
X35328112Y20741210D02*
X35485411Y20857871D01*
X45489187Y44147584D02*
X45498796Y43949982D01*
X62000000Y84000000D02*
X62000000Y48000000D01*
X15331637Y46443986D02*
X15241209Y46328113D01*
X45171887Y43258791D02*
X45092617Y43200000D01*
X6290994Y29043017D02*
X6098919Y29004811D01*
X23726762Y44634759D02*
X23828112Y44741210D01*
X53501203Y6050019D02*
X53529939Y6243738D01*
X53903896Y46196596D02*
X53758790Y46328113D01*
X53900140Y47800000D02*
X45096758Y47800000D01*
X15241209Y6671888D02*
X15331637Y6556015D01*
X5949981Y44998797D02*
X14550018Y44998797D01*
X15096758Y6800000D02*
X15134758Y6773238D01*
X45404085Y84571873D02*
X45303404Y84403897D01*
X35029939Y61243738D02*
X35095914Y61428128D01*
X33290994Y44956984D02*
X33514588Y44857871D01*
X63857870Y5485412D02*
X63707399Y5292601D01*
X54304104Y85980805D02*
X54449981Y85998797D01*
X63290994Y20956984D02*
X63514588Y20857871D01*
X53828112Y43258791D02*
X53696595Y43403897D01*
X63989187Y46852417D02*
X63956983Y46709006D01*
X45456983Y5709006D02*
X45404085Y5571873D01*
X33243737Y46029940D02*
X33050018Y46001204D01*
X33707399Y29292601D02*
X33596103Y29196596D01*
X6471925Y20882040D02*
X6634758Y20773238D01*
X14883300Y85923956D02*
X15056014Y85831638D01*
X6671887Y61741210D02*
X6800598Y61599199D01*
X53696595Y5403897D02*
X53595914Y5571873D01*
X15489187Y85147584D02*
X15498796Y84949982D01*
X33989187Y5852417D02*
X33956983Y5709006D01*
X15273237Y5365242D02*
X15171887Y5258791D01*
X14928127Y5095915D02*
X14790994Y5043017D01*
X33741209Y20671888D02*
X33882039Y20471926D01*
X15456983Y46709006D02*
X15404085Y46571873D01*
X33596103Y29196596D02*
X33428127Y29095915D01*
X33831637Y46443986D02*
X33671887Y46258791D01*
X33956983Y46709006D02*
X33904085Y46571873D01*
X44500987Y5000000D02*
X35949981Y5001204D01*
X44883300Y46076045D02*
X44743737Y46029940D01*
X63050018Y20998797D02*
X63290994Y20956984D01*
X33831637Y70443986D02*
X33741209Y70328113D01*
X6800599Y20593809D02*
X6800363Y29405839D01*
X32000000Y48000000D02*
X7000000Y48000000D01*
X45241209Y6671888D02*
X45331637Y6556015D01*
X33050018Y61998797D02*
X33290994Y61956984D01*
X33882039Y20471926D02*
X33970060Y20243738D01*
X63882039Y61471926D02*
X63970060Y61243738D01*
X15456983Y6290995D02*
X15489187Y6147584D01*
X45382039Y85471926D02*
X45441602Y85337553D01*
X23510812Y5852417D02*
X23500000Y6000988D01*
X54256262Y44970061D02*
X54449981Y44998797D01*
X15489187Y6147584D02*
X15495189Y5901081D01*
X6773237Y20634759D02*
X6800599Y20593809D01*
X23595914Y84571873D02*
X23529939Y84756263D01*
X63471925Y46117961D02*
X63243737Y46029940D01*
X5076044Y46616700D02*
X5029939Y46756263D01*
X63428127Y70095915D02*
X63290994Y70043017D01*
X53907382Y43200000D02*
X53828112Y43258791D01*
X5709005Y29043017D02*
X5571872Y29095915D01*
X35095914Y61428128D02*
X35196595Y61596104D01*
X23558397Y5662448D02*
X23510812Y5852417D01*
X14743737Y44970061D02*
X14883300Y44923956D01*
X63707399Y44707400D02*
X63857870Y44514589D01*
X63707399Y29292601D02*
X63596103Y29196596D01*
X36800598Y20599199D02*
X36800363Y29405839D01*
X33514588Y85857871D02*
X33707399Y85707400D01*
X33098919Y70004811D02*
X32901080Y70004811D01*
X32200000Y29405295D02*
X32200000Y20592692D01*
X63956983Y46709006D02*
X63904085Y46571873D01*
X63882039Y20471926D02*
X63970060Y20243738D01*
X36098919Y29004811D02*
X35901080Y29004811D01*
X53617960Y44471926D02*
X53696595Y44596104D01*
X36514588Y20857871D02*
X36671887Y20741210D01*
X33857870Y44514589D02*
X33923955Y44383301D01*
X35196595Y20596104D02*
X35328112Y20741210D01*
X63290994Y70043017D02*
X63098919Y70004811D01*
X5001203Y70949982D02*
X5000000Y85000988D01*
X63514588Y5142130D02*
X63290994Y5043017D01*
X5258790Y70328113D02*
X5142129Y70485412D01*
X23558397Y47337553D02*
X23642129Y47514589D01*
X33195895Y20980805D02*
X33337552Y20941603D01*
X5901080Y29004811D02*
X5709005Y29043017D01*
X23617960Y85471926D02*
X23726762Y85634759D01*
X23510812Y46852417D02*
X23500000Y47000988D01*
X5709005Y5043017D02*
X5485411Y5142130D01*
X24116699Y44923956D02*
X24256262Y44970061D01*
X53642129Y47514589D02*
X53758790Y47671888D01*
X35095914Y29571873D02*
X35029939Y29756263D01*
X23558397Y6337553D02*
X23642129Y6514589D01*
X5001203Y61050019D02*
X5029939Y61243738D01*
X63596103Y29196596D02*
X63428127Y29095915D01*
X15134758Y46226763D02*
X15014588Y46142130D01*
X6514588Y61857871D02*
X6671887Y61741210D01*
X45498796Y84949982D02*
X45470060Y84756263D01*
X15303404Y84403897D02*
X15171887Y84258791D01*
X53595914Y6428128D02*
X53668362Y6556015D01*
X5168362Y29443986D02*
X5076044Y29616700D01*
X15404085Y43571873D02*
X15303404Y43403897D01*
X53504810Y5901081D02*
X53501203Y6050019D01*
X63050018Y44998797D02*
X63290994Y44956984D01*
X32000000Y43000000D02*
X32000000Y7000000D01*
X15056014Y85831638D02*
X15171887Y85741210D01*
X53907382Y84200000D02*
X53828112Y84258791D01*
X6634758Y20773238D02*
X6773237Y20634759D01*
X14883300Y46076045D02*
X14743737Y46029940D01*
X5485411Y5142130D02*
X5328112Y5258791D01*
X5709005Y70043017D02*
X5528074Y70117961D01*
X62804104Y20980805D02*
X63050018Y20998797D01*
X35328112Y61741210D02*
X35485411Y61857871D01*
X15241209Y46328113D02*
X15134758Y46226763D01*
X32200000Y61596555D02*
X32258790Y61671888D01*
X53696595Y85596104D02*
X53828112Y85741210D01*
X36000987Y21000000D02*
X36147583Y20989188D01*
X24256262Y44970061D02*
X24449981Y44998797D01*
X6098919Y29004811D02*
X5901080Y29004811D01*
X1245Y90999730D02*
X481Y655D01*
X35662447Y61941603D02*
X35852416Y61989188D01*
X36671887Y61741210D02*
X36800598Y61599199D01*
X15171887Y84258791D02*
X15092617Y84200000D01*
X5010812Y20147584D02*
X5058397Y20337553D01*
X54071872Y46095915D02*
X53903896Y46196596D01*
X63050018Y5001204D02*
X54499012Y5000000D01*
X33471925Y46117961D02*
X33243737Y46029940D01*
X45489187Y85147584D02*
X45498796Y84949982D01*
X62528074Y29117961D02*
X62365241Y29226763D01*
X45404085Y6428128D02*
X45456983Y6290995D01*
X23907382Y43200000D02*
X23828112Y43258791D01*
X5709005Y44956984D02*
X5949981Y44998797D01*
X5000000Y85000988D02*
X5029939Y85243738D01*
X15096758Y47800000D02*
X15134758Y47773238D01*
X6800363Y29405839D02*
X6773237Y29365242D01*
X23617960Y44471926D02*
X23726762Y44634759D01*
X33050018Y46001204D02*
X24449981Y46001204D01*
X6000987Y62000000D02*
X6147583Y61989188D01*
X45331637Y6556015D02*
X45404085Y6428128D01*
X15092617Y84200000D02*
X23907382Y84200000D01*
X62365241Y70226763D02*
X62226762Y70365242D01*
X33556014Y20831638D02*
X33741209Y20671888D01*
X62709005Y70043017D02*
X62528074Y70117961D01*
X15456983Y47290995D02*
X15489187Y47147584D01*
X36000987Y62000000D02*
X36147583Y61989188D01*
X15441602Y85337553D02*
X15489187Y85147584D01*
X33970060Y44243738D02*
X34000000Y44000988D01*
X15134758Y6773238D02*
X15241209Y6671888D01*
X35852416Y61989188D02*
X36000987Y62000000D01*
X35756262Y29029940D02*
X35571872Y29095915D01*
X36290994Y29043017D02*
X36098919Y29004811D01*
X14500987Y5000000D02*
X5949981Y5001204D01*
X44743737Y44970061D02*
X44883300Y44923956D01*
X34000000Y20000988D02*
X34000000Y5999013D01*
X5142129Y46485412D02*
X5076044Y46616700D01*
X5142129Y20514589D02*
X5258790Y20671888D01*
X15423955Y5616700D02*
X15357870Y5485412D01*
X15498796Y43949982D02*
X15470060Y43756263D01*
X62571872Y61904086D02*
X62804104Y61980805D01*
X45014588Y5142130D02*
X44883300Y5076045D01*
X44883300Y5076045D02*
X44743737Y5029940D01*
X5095914Y61428128D02*
X5196595Y61596104D01*
X33243737Y29029940D02*
X33098919Y29004811D01*
X33998796Y29949982D02*
X33970060Y29756263D01*
X23595914Y43571873D02*
X23529939Y43756263D01*
X15241209Y47671888D02*
X15331637Y47556015D01*
X23828112Y44741210D02*
X23943985Y44831638D01*
X37000000Y84000000D02*
X62000000Y84000000D01*
X63970060Y20243738D02*
X64000000Y20000988D01*
X35403896Y70196596D02*
X35258790Y70328113D01*
X32000000Y84000000D02*
X32000000Y48000000D01*
X15489187Y46852417D02*
X15456983Y46709006D01*
X62901080Y29004811D02*
X62709005Y29043017D01*
X45500000Y6000988D02*
X45489187Y5852417D01*
X53696595Y43403897D02*
X53595914Y43571873D01*
X62000000Y48000000D02*
X37000000Y48000000D01*
X32901080Y29004811D02*
X32709005Y29043017D01*
X53899950Y6800000D02*
X45096758Y6800000D01*
X63970060Y85243738D02*
X64000000Y85000988D01*
X53501203Y84949982D02*
X53510812Y85147584D01*
X32901080Y70004811D02*
X32709005Y70043017D01*
X5000000Y5999013D02*
X5000000Y20000988D01*
X35000000Y85000988D02*
X35029939Y85243738D01*
X6773237Y29365242D02*
X6634758Y29226763D01*
X33741209Y61671888D02*
X33882039Y61471926D01*
X53595914Y5571873D02*
X53529939Y5756263D01*
X44550018Y44998797D02*
X44743737Y44970061D01*
X63707399Y5292601D02*
X63514588Y5142130D01*
X32709005Y70043017D02*
X32528074Y70117961D01*
X15357870Y5485412D02*
X15273237Y5365242D01*
X53985411Y5142130D02*
X53828112Y5258791D01*
X53510812Y46852417D02*
X53500000Y47000988D01*
X5076044Y44383301D02*
X5142129Y44514589D01*
X37000000Y43000000D02*
X62000000Y43000000D01*
X5029939Y44243738D02*
X5076044Y44383301D01*
X23903896Y5196596D02*
X23758790Y5328113D01*
X68999518Y90999346D02*
X1245Y90999730D01*
X36098919Y70004811D02*
X35901080Y70004811D01*
X6800598Y61599199D02*
X6800363Y70405839D01*
X33050018Y85998797D02*
X33290994Y85956984D01*
X23501203Y84949982D02*
X23510812Y85147584D01*
X35001203Y29949982D02*
X35000000Y44000988D01*
X32200000Y20592692D02*
X32328112Y20741210D01*
X23642129Y5485412D02*
X23558397Y5662448D01*
X35292600Y44707400D02*
X35485411Y44857871D01*
X63556014Y61831638D02*
X63741209Y61671888D01*
X5000000Y46999013D02*
X5001203Y61050019D01*
X32571872Y20904086D02*
X32804104Y20980805D01*
X35142129Y5485412D02*
X35076044Y5616700D01*
X23828112Y43258791D02*
X23696595Y43403897D01*
X62000000Y7000000D02*
X37000000Y7000000D01*
X34000000Y85000988D02*
X33998796Y70949982D01*
X62226762Y29365242D02*
X62200000Y29405295D01*
X32328112Y20741210D02*
X32443985Y20831638D01*
X15382039Y85471926D02*
X15441602Y85337553D01*
X63970060Y61243738D02*
X64000000Y61000988D01*
X24449981Y85998797D02*
X33050018Y85998797D01*
X53943985Y44831638D02*
X54116699Y44923956D01*
X23696595Y43403897D02*
X23595914Y43571873D01*
X33904085Y5571873D02*
X33831637Y5443986D01*
X35000000Y44000988D02*
X35029939Y44243738D01*
X14883300Y44923956D02*
X15056014Y44831638D01*
X62709005Y29043017D02*
X62528074Y29117961D01*
X5485411Y46142130D02*
X5292600Y46292601D01*
X23510812Y85147584D02*
X23543016Y85290995D01*
X45096758Y6800000D02*
X45134758Y6773238D01*
X7000000Y7000000D02*
X7000000Y43000000D01*
X36800363Y29405839D02*
X36773237Y29365242D01*
X33923955Y70616700D02*
X33831637Y70443986D01*
X33857870Y85514589D02*
X33923955Y85383301D01*
X32443985Y20831638D02*
X32571872Y20904086D01*
X45134758Y46226763D02*
X45014588Y46142130D01*
X6471925Y70117961D02*
X6290994Y70043017D01*
X33970060Y29756263D02*
X33904085Y29571873D01*
X32528074Y70117961D02*
X32365241Y70226763D01*
X36337552Y61941603D02*
X36514588Y61857871D01*
X5662447Y61941603D02*
X5852416Y61989188D01*
X24071872Y5095915D02*
X23903896Y5196596D01*
X5292600Y46292601D02*
X5142129Y46485412D01*
X35029939Y85243738D02*
X35076044Y85383301D01*
X34000000Y44000988D02*
X33998796Y29949982D01*
X5258790Y20671888D02*
X5403896Y20803405D01*
X35076044Y44383301D02*
X35142129Y44514589D01*
X53595914Y84571873D02*
X53529939Y84756263D01*
X5000000Y44000988D02*
X5029939Y44243738D01*
X45171887Y84258791D02*
X45092617Y84200000D01*
X35292600Y85707400D02*
X35485411Y85857871D01*
X6290994Y70043017D02*
X6098919Y70004811D01*
X32226762Y29365242D02*
X32200000Y29405295D01*
X5949981Y20998797D02*
X6098919Y20995190D01*
X5029939Y61243738D02*
X5095914Y61428128D01*
X35403896Y29196596D02*
X35292600Y29292601D01*
X7000000Y43000000D02*
X32000000Y43000000D01*
X62200000Y61599679D02*
X62365241Y61773238D01*
X53558397Y47337553D02*
X53642129Y47514589D01*
X44883300Y85923956D02*
X45014588Y85857871D01*
X64000000Y85000988D02*
X63998796Y70949982D01*
X45134758Y47773238D02*
X45241209Y47671888D01*
X53529939Y43756263D02*
X53501203Y43949982D01*
X35485411Y20857871D02*
X35662447Y20941603D01*
M02*
