%TF.GenerationSoftware,KiCad,Pcbnew,9.0.0*%
%TF.CreationDate,2025-03-16T20:58:48+01:00*%
%TF.ProjectId,eeprom_i2c_panel,65657072-6f6d-45f6-9932-635f70616e65,1.1*%
%TF.SameCoordinates,PX6cb8080PY1312d00*%
%TF.FileFunction,Soldermask,Top*%
%TF.FilePolarity,Negative*%
%FSLAX46Y46*%
G04 Gerber Fmt 4.6, Leading zero omitted, Abs format (unit mm)*
G04 Created by KiCad (PCBNEW 9.0.0) date 2025-03-16 20:58:48*
%MOMM*%
%LPD*%
G01*
G04 APERTURE LIST*
%ADD10C,1.600000*%
%ADD11O,1.600000X1.600000*%
%ADD12R,1.600000X1.600000*%
%ADD13R,1.700000X1.700000*%
%ADD14O,1.700000X1.700000*%
%ADD15C,3.200000*%
%TA.AperFunction,Profile*%
%ADD16C,0.100000*%
%TD*%
G04 APERTURE END LIST*
D10*
%TO.C,R2*%
X29010000Y-65500000D03*
D11*
X21390000Y-65500000D03*
%TD*%
D10*
%TO.C,R1*%
X29120000Y-30950000D03*
D11*
X21500000Y-30950000D03*
%TD*%
D12*
%TO.C,U1*%
X17200000Y-51910000D03*
D11*
X17200000Y-54450000D03*
X17200000Y-56990000D03*
X17200000Y-59530000D03*
X24820000Y-59530000D03*
X24820000Y-56990000D03*
X24820000Y-54450000D03*
X24820000Y-51910000D03*
%TD*%
D13*
%TO.C,J3*%
X40300000Y-74770000D03*
D14*
X40300000Y-77310000D03*
X40300000Y-79850000D03*
%TD*%
D10*
%TO.C,R2*%
X29010000Y-24500000D03*
D11*
X21390000Y-24500000D03*
%TD*%
D10*
%TO.C,C1*%
X28700000Y-51850000D03*
X28700000Y-54350000D03*
%TD*%
D13*
%TO.C,J1*%
X40300000Y-11270000D03*
D14*
X40300000Y-13810000D03*
X40300000Y-16350000D03*
%TD*%
D13*
%TO.C,J4*%
X58440000Y-39750000D03*
D14*
X55900000Y-39750000D03*
X53360000Y-39750000D03*
X50820000Y-39750000D03*
%TD*%
D10*
%TO.C,R1*%
X59120000Y-30950000D03*
D11*
X51500000Y-30950000D03*
%TD*%
D15*
%TO.C,H1*%
X47050000Y-68800000D03*
%TD*%
D13*
%TO.C,J2*%
X40300000Y-63755000D03*
D14*
X40300000Y-66295000D03*
X40300000Y-68835000D03*
%TD*%
D13*
%TO.C,J2*%
X10300000Y-22755000D03*
D14*
X10300000Y-25295000D03*
X10300000Y-27835000D03*
%TD*%
D15*
%TO.C,H1*%
X17050000Y-27800000D03*
%TD*%
D10*
%TO.C,R2*%
X59010000Y-65500000D03*
D11*
X51390000Y-65500000D03*
%TD*%
D13*
%TO.C,J2*%
X40300000Y-22755000D03*
D14*
X40300000Y-25295000D03*
X40300000Y-27835000D03*
%TD*%
D10*
%TO.C,R1*%
X59120000Y-71950000D03*
D11*
X51500000Y-71950000D03*
%TD*%
D12*
%TO.C,U1*%
X17200000Y-10910000D03*
D11*
X17200000Y-13450000D03*
X17200000Y-15990000D03*
X17200000Y-18530000D03*
X24820000Y-18530000D03*
X24820000Y-15990000D03*
X24820000Y-13450000D03*
X24820000Y-10910000D03*
%TD*%
D10*
%TO.C,C1*%
X28700000Y-10850000D03*
X28700000Y-13350000D03*
%TD*%
D13*
%TO.C,J1*%
X40300000Y-52270000D03*
D14*
X40300000Y-54810000D03*
X40300000Y-57350000D03*
%TD*%
D13*
%TO.C,J4*%
X28440000Y-80750000D03*
D14*
X25900000Y-80750000D03*
X23360000Y-80750000D03*
X20820000Y-80750000D03*
%TD*%
D15*
%TO.C,H1*%
X47050000Y-27800000D03*
%TD*%
%TO.C,H1*%
X17050000Y-68800000D03*
%TD*%
D13*
%TO.C,J2*%
X10300000Y-63755000D03*
D14*
X10300000Y-66295000D03*
X10300000Y-68835000D03*
%TD*%
D12*
%TO.C,U1*%
X47200000Y-51910000D03*
D11*
X47200000Y-54450000D03*
X47200000Y-56990000D03*
X47200000Y-59530000D03*
X54820000Y-59530000D03*
X54820000Y-56990000D03*
X54820000Y-54450000D03*
X54820000Y-51910000D03*
%TD*%
D10*
%TO.C,R2*%
X59010000Y-24500000D03*
D11*
X51390000Y-24500000D03*
%TD*%
D13*
%TO.C,J4*%
X58440000Y-80750000D03*
D14*
X55900000Y-80750000D03*
X53360000Y-80750000D03*
X50820000Y-80750000D03*
%TD*%
D10*
%TO.C,R1*%
X29120000Y-71950000D03*
D11*
X21500000Y-71950000D03*
%TD*%
D10*
%TO.C,C1*%
X58700000Y-10850000D03*
X58700000Y-13350000D03*
%TD*%
D13*
%TO.C,J4*%
X28440000Y-39750000D03*
D14*
X25900000Y-39750000D03*
X23360000Y-39750000D03*
X20820000Y-39750000D03*
%TD*%
D13*
%TO.C,J3*%
X40300000Y-33770000D03*
D14*
X40300000Y-36310000D03*
X40300000Y-38850000D03*
%TD*%
D13*
%TO.C,J3*%
X10300000Y-74770000D03*
D14*
X10300000Y-77310000D03*
X10300000Y-79850000D03*
%TD*%
D12*
%TO.C,U1*%
X47200000Y-10910000D03*
D11*
X47200000Y-13450000D03*
X47200000Y-15990000D03*
X47200000Y-18530000D03*
X54820000Y-18530000D03*
X54820000Y-15990000D03*
X54820000Y-13450000D03*
X54820000Y-10910000D03*
%TD*%
D13*
%TO.C,J3*%
X10300000Y-33770000D03*
D14*
X10300000Y-36310000D03*
X10300000Y-38850000D03*
%TD*%
D10*
%TO.C,C1*%
X58700000Y-51850000D03*
X58700000Y-54350000D03*
%TD*%
D13*
%TO.C,J1*%
X10300000Y-52270000D03*
D14*
X10300000Y-54810000D03*
X10300000Y-57350000D03*
%TD*%
D13*
%TO.C,J1*%
X10300000Y-11270000D03*
D14*
X10300000Y-13810000D03*
X10300000Y-16350000D03*
%TD*%
D16*
X34000000Y-46999012D02*
X33998796Y-61050018D01*
X14883300Y-44923955D02*
X14743737Y-44970060D01*
X33970060Y-5756262D02*
X34000000Y-5999012D01*
X36147583Y-70010812D02*
X36337552Y-70058397D01*
X15171887Y-6741209D02*
X15092617Y-6800000D01*
X23726762Y-46365241D02*
X23828112Y-46258790D01*
X35000000Y-44000987D02*
X35001203Y-29949981D01*
X63803404Y-20596103D02*
X63707399Y-20707399D01*
X63514588Y-70142129D02*
X63707399Y-70292600D01*
X33989187Y-44147583D02*
X33956983Y-44290994D01*
X23501203Y-47050018D02*
X23510812Y-46852416D01*
X33707399Y-61707399D02*
X33596103Y-61803404D01*
X45489187Y-84852416D02*
X45500000Y-84999012D01*
X45404085Y-6428127D02*
X45303404Y-6596103D01*
X62226762Y-20634758D02*
X62200000Y-20594705D01*
X53696595Y-5403896D02*
X53828112Y-5258790D01*
X23617960Y-46528074D02*
X23726762Y-46365241D01*
X63904085Y-61428127D02*
X63803404Y-61596103D01*
X33707399Y-85707399D02*
X33514588Y-85857870D01*
X5949981Y-46001203D02*
X14550018Y-46001203D01*
X5365241Y-20773237D02*
X5258790Y-20671887D01*
X63970060Y-61243737D02*
X63904085Y-61428127D01*
X45404085Y-47428127D02*
X45303404Y-47596103D01*
X62000000Y-84000000D02*
X37000000Y-84000000D01*
X45404085Y-43571872D02*
X45456983Y-43709005D01*
X63882039Y-70528074D02*
X63970060Y-70756262D01*
X23510812Y-85147583D02*
X23500000Y-84999012D01*
X32365241Y-61773237D02*
X32226762Y-61634758D01*
X63050018Y-5001203D02*
X63290994Y-5043016D01*
X33428127Y-29095914D02*
X33556014Y-29168362D01*
X23696595Y-47596103D02*
X23595914Y-47428127D01*
X5709005Y-61956983D02*
X5571872Y-61904085D01*
X7000000Y-84000000D02*
X7000000Y-48000000D01*
X34000000Y-85000987D02*
X33989187Y-85147583D01*
X33831637Y-44556014D02*
X33671887Y-44741209D01*
X45489187Y-5852416D02*
X45498796Y-6050018D01*
X32571872Y-29095914D02*
X32804104Y-29019195D01*
X54352416Y-85989187D02*
X54162447Y-85941602D01*
X5485411Y-46142129D02*
X5709005Y-46043016D01*
X5709005Y-44956983D02*
X5485411Y-44857870D01*
X53501203Y-47050018D02*
X53510812Y-46852416D01*
X35901080Y-61995189D02*
X35756262Y-61970060D01*
X63098919Y-20995189D02*
X62901080Y-20995189D01*
X35571872Y-20904085D02*
X35403896Y-20803404D01*
X6800598Y-29400801D02*
X6800363Y-20594161D01*
X34000000Y-70999012D02*
X34000000Y-85000987D01*
X32528074Y-20882039D02*
X32365241Y-20773237D01*
X53595914Y-84571872D02*
X53668362Y-84443985D01*
X63803404Y-70403896D02*
X63882039Y-70528074D01*
X5076044Y-61383300D02*
X5019195Y-61195895D01*
X35949981Y-5001203D02*
X44550018Y-5001203D01*
X45500000Y-43999012D02*
X45489187Y-44147583D01*
X35076044Y-85383300D02*
X35029939Y-85243737D01*
X15489187Y-44147583D02*
X15456983Y-44290994D01*
X6000987Y-29000000D02*
X6147583Y-29010812D01*
X53558397Y-5662447D02*
X53617960Y-5528074D01*
X33904085Y-44428127D02*
X33831637Y-44556014D01*
X23558397Y-84662447D02*
X23642129Y-84485411D01*
X5001203Y-20050018D02*
X5000000Y-5999012D01*
X54449981Y-5001203D02*
X63050018Y-5001203D01*
X33556014Y-70168362D02*
X33741209Y-70328112D01*
X33514588Y-5142129D02*
X33707399Y-5292600D01*
X62528074Y-61882039D02*
X62365241Y-61773237D01*
X63050018Y-85998796D02*
X54499012Y-86000000D01*
X23558397Y-85337552D02*
X23510812Y-85147583D01*
X33428127Y-61904085D02*
X33243737Y-61970060D01*
X53696595Y-47596103D02*
X53595914Y-47428127D01*
X54256262Y-46029939D02*
X54449981Y-46001203D01*
X35076044Y-46616699D02*
X35142129Y-46485411D01*
X15092617Y-47800000D02*
X23907382Y-47800000D01*
X23642129Y-43485411D02*
X23758790Y-43328112D01*
X53828112Y-85741209D02*
X53696595Y-85596103D01*
X32709005Y-61956983D02*
X32528074Y-61882039D01*
X53943985Y-5168362D02*
X54116699Y-5076044D01*
X33970060Y-70756262D02*
X34000000Y-70999012D01*
X45404085Y-44428127D02*
X45331637Y-44556014D01*
X53529939Y-6243737D02*
X53501203Y-6050018D01*
X5756262Y-70029939D02*
X5949981Y-70001203D01*
X63803404Y-61596103D02*
X63707399Y-61707399D01*
X6337552Y-29058397D02*
X6514588Y-29142129D01*
X53510812Y-5852416D02*
X53558397Y-5662447D01*
X23500000Y-43999012D02*
X23510812Y-43852416D01*
X45171887Y-47741209D02*
X45092617Y-47800000D01*
X14790994Y-85956983D02*
X14647583Y-85989187D01*
X62365241Y-20773237D02*
X62226762Y-20634758D01*
X63050018Y-44998796D02*
X54449981Y-44998796D01*
X33707399Y-5292600D02*
X33857870Y-5485411D01*
X15456983Y-44290994D02*
X15404085Y-44428127D01*
X1245Y-270D02*
X481Y-90999345D01*
X33471925Y-44882039D02*
X33243737Y-44970060D01*
X45171887Y-6741209D02*
X45092617Y-6800000D01*
X35076044Y-20383300D02*
X35019195Y-20195895D01*
X481Y-90999345D02*
X68999345Y-90999518D01*
X63514588Y-85857870D02*
X63290994Y-85956983D01*
X15331637Y-44556014D02*
X15241209Y-44671887D01*
X32226762Y-20634758D02*
X32200000Y-20594705D01*
X5010812Y-85147583D02*
X5000000Y-85000987D01*
X37000000Y-43000000D02*
X37000000Y-7000000D01*
X14883300Y-5076044D02*
X15056014Y-5168362D01*
X33970060Y-46756262D02*
X34000000Y-46999012D01*
X15470060Y-85243737D02*
X15423955Y-85383300D01*
X35001203Y-70949981D02*
X35029939Y-70756262D01*
X44500987Y-45000000D02*
X35949981Y-44998796D01*
X44883300Y-44923955D02*
X44743737Y-44970060D01*
X5571872Y-61904085D02*
X5403896Y-61803404D01*
X33831637Y-61556014D02*
X33707399Y-61707399D01*
X63707399Y-20707399D02*
X63556014Y-20831637D01*
X36800363Y-20594161D02*
X36773237Y-20634758D01*
X15382039Y-46528074D02*
X15441602Y-46662447D01*
X5095914Y-85428127D02*
X5043016Y-85290994D01*
X23510812Y-84852416D02*
X23558397Y-84662447D01*
X53828112Y-5258790D02*
X53943985Y-5168362D01*
X5029939Y-44243737D02*
X5000000Y-44000987D01*
X32365241Y-29226762D02*
X32571872Y-29095914D01*
X63243737Y-44970060D02*
X63050018Y-44998796D01*
X33556014Y-29168362D02*
X33741209Y-29328112D01*
X23642129Y-44514588D02*
X23558397Y-44337552D01*
X63050018Y-70001203D02*
X63290994Y-70043016D01*
X64000000Y-85000987D02*
X63970060Y-85243737D01*
X32328112Y-70258790D02*
X32443985Y-70168362D01*
X14500987Y-45000000D02*
X5949981Y-44998796D01*
X45441602Y-46662447D02*
X45489187Y-46852416D01*
X15423955Y-85383300D02*
X15357870Y-85514588D01*
X6471925Y-61882039D02*
X6290994Y-61956983D01*
X45241209Y-84328112D02*
X45331637Y-84443985D01*
X5949981Y-85998796D02*
X5709005Y-85956983D01*
X5058397Y-70662447D02*
X5142129Y-70485411D01*
X15096758Y-84200000D02*
X15134758Y-84226762D01*
X63707399Y-61707399D02*
X63596103Y-61803404D01*
X36000987Y-70000000D02*
X36147583Y-70010812D01*
X5010812Y-70852416D02*
X5058397Y-70662447D01*
X5142129Y-46485411D02*
X5292600Y-46292600D01*
X5709005Y-85956983D02*
X5485411Y-85857870D01*
X6671887Y-29258790D02*
X6800598Y-29400801D01*
X35001203Y-61050018D02*
X35000000Y-46999012D01*
X23943985Y-5168362D02*
X24116699Y-5076044D01*
X6098919Y-20995189D02*
X5901080Y-20995189D01*
X45470060Y-6243737D02*
X45404085Y-6428127D01*
X23758790Y-44671887D02*
X23642129Y-44514588D01*
X5258790Y-61671887D02*
X5168362Y-61556014D01*
X62365241Y-61773237D02*
X62226762Y-61634758D01*
X6773237Y-61634758D02*
X6634758Y-61773237D01*
X6634758Y-20773237D02*
X6471925Y-20882039D01*
X35168362Y-61556014D02*
X35095914Y-61428127D01*
X44743737Y-85970060D02*
X44500987Y-86000000D01*
X32365241Y-20773237D02*
X32226762Y-20634758D01*
X24256262Y-5029939D02*
X24449981Y-5001203D01*
X37000000Y-84000000D02*
X37000000Y-48000000D01*
X32200000Y-61594705D02*
X32200000Y-70407308D01*
X45096758Y-43200000D02*
X45134758Y-43226762D01*
X35142129Y-46485411D02*
X35292600Y-46292600D01*
X5258790Y-20671887D02*
X5142129Y-20514588D01*
X36000987Y-29000000D02*
X36147583Y-29010812D01*
X33671887Y-44741209D02*
X33471925Y-44882039D01*
X63904085Y-20428127D02*
X63803404Y-20596103D01*
X63471925Y-44882039D02*
X63243737Y-44970060D01*
X45404085Y-85428127D02*
X45331637Y-85556014D01*
X5000000Y-70999012D02*
X5010812Y-70852416D01*
X36098919Y-20995189D02*
X35901080Y-20995189D01*
X53758790Y-43328112D02*
X53900140Y-43200000D01*
X24256262Y-46029939D02*
X24449981Y-46001203D01*
X63970060Y-70756262D02*
X64000000Y-70999012D01*
X45456983Y-84709005D02*
X45489187Y-84852416D01*
X53985411Y-85857870D02*
X53828112Y-85741209D01*
X63050018Y-46001203D02*
X63290994Y-46043016D01*
X23595914Y-6428127D02*
X23529939Y-6243737D01*
X15056014Y-46168362D02*
X15171887Y-46258790D01*
X24116699Y-46076044D02*
X24256262Y-46029939D01*
X5043016Y-85290994D02*
X5010812Y-85147583D01*
X63998796Y-20050018D02*
X63970060Y-20243737D01*
X45456983Y-85290994D02*
X45404085Y-85428127D01*
X45092617Y-6800000D02*
X53907382Y-6800000D01*
X24256262Y-44970060D02*
X24071872Y-44904085D01*
X54256262Y-44970060D02*
X54071872Y-44904085D01*
X5142129Y-44514588D02*
X5076044Y-44383300D01*
X35095914Y-70571872D02*
X35196595Y-70403896D01*
X45456983Y-43709005D02*
X45489187Y-43852416D01*
X63989187Y-44147583D02*
X63956983Y-44290994D01*
X33882039Y-29528074D02*
X33970060Y-29756262D01*
X36800363Y-61594161D02*
X36773237Y-61634758D01*
X53595914Y-47428127D02*
X53529939Y-47243737D01*
X5662447Y-29058397D02*
X5852416Y-29010812D01*
X5001203Y-29949981D02*
X5029939Y-29756262D01*
X33050018Y-44998796D02*
X24449981Y-44998796D01*
X35095914Y-29571872D02*
X35196595Y-29403896D01*
X53529939Y-47243737D02*
X53501203Y-47050018D01*
X35485411Y-29142129D02*
X35662447Y-29058397D01*
X5029939Y-20243737D02*
X5001203Y-20050018D01*
X33050018Y-5001203D02*
X33290994Y-5043016D01*
X5029939Y-46756262D02*
X5076044Y-46616699D01*
X23900140Y-43200000D02*
X15096758Y-43200000D01*
X6800363Y-20594161D02*
X6773237Y-20634758D01*
X63923955Y-5616699D02*
X63970060Y-5756262D01*
X33857870Y-46485411D02*
X33923955Y-46616699D01*
X64000000Y-5999012D02*
X63998796Y-20050018D01*
X5709005Y-46043016D02*
X5949981Y-46001203D01*
X33050018Y-29001203D02*
X33290994Y-29043016D01*
X15470060Y-47243737D02*
X15404085Y-47428127D01*
X24256262Y-85970060D02*
X24071872Y-85904085D01*
X33098919Y-20995189D02*
X32901080Y-20995189D01*
X63556014Y-20831637D02*
X63428127Y-20904085D01*
X36800598Y-70400801D02*
X36800363Y-61594161D01*
X63195895Y-29019195D02*
X63337552Y-29058397D01*
X15171887Y-46258790D02*
X15303404Y-46403896D01*
X63596103Y-61803404D02*
X63428127Y-61904085D01*
X45456983Y-44290994D02*
X45404085Y-44428127D01*
X5029939Y-5756262D02*
X5076044Y-5616699D01*
X23500000Y-84999012D02*
X23510812Y-84852416D01*
X15134758Y-84226762D02*
X15241209Y-84328112D01*
X24449981Y-5001203D02*
X33050018Y-5001203D01*
X62804104Y-29019195D02*
X63050018Y-29001203D01*
X15404085Y-84571872D02*
X15456983Y-84709005D01*
X33050018Y-46001203D02*
X33290994Y-46043016D01*
X53907382Y-47800000D02*
X53828112Y-47741209D01*
X23828112Y-5258790D02*
X23943985Y-5168362D01*
X35949981Y-44998796D02*
X35709005Y-44956983D01*
X32901080Y-61995189D02*
X32709005Y-61956983D01*
X15498796Y-6050018D02*
X15470060Y-6243737D01*
X35001203Y-29949981D02*
X35029939Y-29756262D01*
X35709005Y-46043016D02*
X35949981Y-46001203D01*
X45441602Y-5662447D02*
X45489187Y-5852416D01*
X44743737Y-5029939D02*
X44883300Y-5076044D01*
X15056014Y-5168362D02*
X15171887Y-5258790D01*
X45331637Y-84443985D02*
X45404085Y-84571872D01*
X45134758Y-85773237D02*
X45014588Y-85857870D01*
X5019195Y-61195895D02*
X5001203Y-61050018D01*
X62709005Y-61956983D02*
X62528074Y-61882039D01*
X14743737Y-44970060D02*
X14500987Y-45000000D01*
X45092617Y-47800000D02*
X53907382Y-47800000D01*
X33923955Y-20383300D02*
X33831637Y-20556014D01*
X15404085Y-47428127D02*
X15303404Y-47596103D01*
X15092617Y-6800000D02*
X23907382Y-6800000D01*
X33831637Y-85556014D02*
X33707399Y-85707399D01*
X35142129Y-85514588D02*
X35076044Y-85383300D01*
X32200000Y-70407308D02*
X32328112Y-70258790D01*
X6290994Y-20956983D02*
X6098919Y-20995189D01*
X15456983Y-84709005D02*
X15489187Y-84852416D01*
X7000000Y-43000000D02*
X7000000Y-7000000D01*
X53899950Y-84200000D02*
X45096758Y-84200000D01*
X32571872Y-70095914D02*
X32804104Y-70019195D01*
X62365241Y-29226762D02*
X62571872Y-29095914D01*
X5029939Y-29756262D02*
X5095914Y-29571872D01*
X35852416Y-70010812D02*
X36000987Y-70000000D01*
X33098919Y-61995189D02*
X32901080Y-61995189D01*
X15303404Y-47596103D02*
X15171887Y-47741209D01*
X63707399Y-70292600D02*
X63803404Y-70403896D01*
X44550018Y-5001203D02*
X44743737Y-5029939D01*
X15456983Y-43709005D02*
X15489187Y-43852416D01*
X32226762Y-61634758D02*
X32200000Y-61594705D01*
X53529939Y-85243737D02*
X53504810Y-85098919D01*
X45498796Y-6050018D02*
X45470060Y-6243737D01*
X35328112Y-29258790D02*
X35485411Y-29142129D01*
X35029939Y-29756262D02*
X35095914Y-29571872D01*
X44883300Y-85923955D02*
X44743737Y-85970060D01*
X35019195Y-20195895D02*
X35001203Y-20050018D01*
X15171887Y-85741209D02*
X15056014Y-85831637D01*
X6471925Y-20882039D02*
X6290994Y-20956983D01*
X7000000Y-48000000D02*
X32000000Y-48000000D01*
X45273237Y-46365241D02*
X45382039Y-46528074D01*
X23903896Y-44803404D02*
X23758790Y-44671887D01*
X6800599Y-70406191D02*
X6800363Y-61594161D01*
X23642129Y-85514588D02*
X23558397Y-85337552D01*
X23510812Y-43852416D02*
X23558397Y-43662447D01*
X63428127Y-20904085D02*
X63290994Y-20956983D01*
X23510812Y-46852416D02*
X23543016Y-46709005D01*
X36290994Y-20956983D02*
X36098919Y-20995189D01*
X63514588Y-5142129D02*
X63707399Y-5292600D01*
X44883300Y-46076044D02*
X45014588Y-46142129D01*
X64000000Y-46999012D02*
X63998796Y-61050018D01*
X33831637Y-20556014D02*
X33741209Y-20671887D01*
X54116699Y-46076044D02*
X54256262Y-46029939D01*
X45134758Y-84226762D02*
X45241209Y-84328112D01*
X5709005Y-20956983D02*
X5528074Y-20882039D01*
X33514588Y-85857870D02*
X33290994Y-85956983D01*
X32000000Y-7000000D02*
X32000000Y-43000000D01*
X15241209Y-84328112D02*
X15331637Y-84443985D01*
X35292600Y-61707399D02*
X35168362Y-61556014D01*
X33741209Y-70328112D02*
X33882039Y-70528074D01*
X63514588Y-46142129D02*
X63707399Y-46292600D01*
X45014588Y-46142129D02*
X45171887Y-46258790D01*
X35485411Y-70142129D02*
X35662447Y-70058397D01*
X5292600Y-5292600D02*
X5485411Y-5142129D01*
X35168362Y-20556014D02*
X35076044Y-20383300D01*
X63956983Y-44290994D02*
X63904085Y-44428127D01*
X6634758Y-70226762D02*
X6773237Y-70365241D01*
X33195895Y-70019195D02*
X33337552Y-70058397D01*
X5142129Y-70485411D02*
X5258790Y-70328112D01*
X45382039Y-46528074D02*
X45441602Y-46662447D01*
X35709005Y-44956983D02*
X35485411Y-44857870D01*
X5000000Y-44000987D02*
X5001203Y-29949981D01*
X45096758Y-84200000D02*
X45134758Y-84226762D01*
X33998796Y-20050018D02*
X33980804Y-20195895D01*
X15498796Y-47050018D02*
X15470060Y-47243737D01*
X44550018Y-46001203D02*
X44743737Y-46029939D01*
X14500987Y-86000000D02*
X5949981Y-85998796D01*
X15357870Y-85514588D02*
X15273237Y-85634758D01*
X5485411Y-44857870D02*
X5292600Y-44707399D01*
X34000000Y-29999012D02*
X34000000Y-44000987D01*
X68999518Y-654D02*
X1245Y-270D01*
X35901080Y-20995189D02*
X35709005Y-20956983D01*
X33290994Y-20956983D02*
X33098919Y-20995189D01*
X62000000Y-43000000D02*
X37000000Y-43000000D01*
X35709005Y-20956983D02*
X35571872Y-20904085D01*
X15404085Y-43571872D02*
X15456983Y-43709005D01*
X62571872Y-70095914D02*
X62804104Y-70019195D01*
X5949981Y-70001203D02*
X6098919Y-70004810D01*
X45331637Y-43443985D02*
X45404085Y-43571872D01*
X35852416Y-29010812D02*
X36000987Y-29000000D01*
X68999345Y-90999518D02*
X68999518Y-654D01*
X35292600Y-5292600D02*
X35485411Y-5142129D01*
X62528074Y-20882039D02*
X62365241Y-20773237D01*
X15441602Y-5662447D02*
X15489187Y-5852416D01*
X6290994Y-61956983D02*
X6098919Y-61995189D01*
X35292600Y-85707399D02*
X35142129Y-85514588D01*
X34000000Y-44000987D02*
X33989187Y-44147583D01*
X63290994Y-61956983D02*
X63098919Y-61995189D01*
X62000000Y-48000000D02*
X62000000Y-84000000D01*
X35029939Y-44243737D02*
X35000000Y-44000987D01*
X6800363Y-61594161D02*
X6773237Y-61634758D01*
X23617960Y-5528074D02*
X23726762Y-5365241D01*
X45171887Y-46258790D02*
X45273237Y-46365241D01*
X63337552Y-29058397D02*
X63556014Y-29168362D01*
X5403896Y-70196595D02*
X5571872Y-70095914D01*
X35485411Y-5142129D02*
X35709005Y-5043016D01*
X23543016Y-46709005D02*
X23617960Y-46528074D01*
X64000000Y-44000987D02*
X63989187Y-44147583D01*
X45489187Y-43852416D02*
X45500000Y-43999012D01*
X35095914Y-61428127D02*
X35029939Y-61243737D01*
X33707399Y-46292600D02*
X33857870Y-46485411D01*
X6098919Y-61995189D02*
X5901080Y-61995189D01*
X53504810Y-85098919D02*
X53501203Y-84949981D01*
X63970060Y-46756262D02*
X64000000Y-46999012D01*
X33956983Y-44290994D02*
X33904085Y-44428127D01*
X33596103Y-61803404D02*
X33428127Y-61904085D01*
X33998796Y-61050018D02*
X33970060Y-61243737D01*
X23903896Y-85803404D02*
X23758790Y-85671887D01*
X5852416Y-29010812D02*
X6000987Y-29000000D01*
X45382039Y-5528074D02*
X45441602Y-5662447D01*
X5142129Y-20514588D02*
X5076044Y-20383300D01*
X35292600Y-44707399D02*
X35142129Y-44514588D01*
X5709005Y-5043016D02*
X5949981Y-5001203D01*
X36514588Y-29142129D02*
X36671887Y-29258790D01*
X33989187Y-85147583D02*
X33956983Y-85290994D01*
X36671887Y-29258790D02*
X36800598Y-29400801D01*
X53501203Y-6050018D02*
X53510812Y-5852416D01*
X35662447Y-70058397D02*
X35852416Y-70010812D01*
X5076044Y-46616699D02*
X5142129Y-46485411D01*
X45241209Y-44671887D02*
X45134758Y-44773237D01*
X63857870Y-5485411D02*
X63923955Y-5616699D01*
X5901080Y-61995189D02*
X5709005Y-61956983D01*
X35076044Y-5616699D02*
X35142129Y-5485411D01*
X53668362Y-84443985D02*
X53792600Y-84292600D01*
X36773237Y-61634758D02*
X36634758Y-61773237D01*
X34000000Y-5999012D02*
X33998796Y-20050018D01*
X32258790Y-29328112D02*
X32365241Y-29226762D01*
X63290994Y-20956983D02*
X63098919Y-20995189D01*
X5901080Y-20995189D02*
X5709005Y-20956983D01*
X63923955Y-85383300D02*
X63857870Y-85514588D01*
X23943985Y-46168362D02*
X24116699Y-46076044D01*
X5000000Y-5999012D02*
X5029939Y-5756262D01*
X6290994Y-70043016D02*
X6471925Y-70117960D01*
X15014588Y-44857870D02*
X14883300Y-44923955D01*
X35403896Y-61803404D02*
X35292600Y-61707399D01*
X5001203Y-61050018D02*
X5000000Y-46999012D01*
X44743737Y-46029939D02*
X44883300Y-46076044D01*
X36800598Y-29400801D02*
X36800363Y-20594161D01*
X62901080Y-20995189D02*
X62709005Y-20956983D01*
X45303404Y-47596103D02*
X45171887Y-47741209D01*
X45014588Y-85857870D02*
X44883300Y-85923955D01*
X63707399Y-46292600D02*
X63857870Y-46485411D01*
X45500000Y-84999012D02*
X45489187Y-85147583D01*
X23758790Y-85671887D02*
X23642129Y-85514588D01*
X6773237Y-70365241D02*
X6800599Y-70406191D01*
X33741209Y-20671887D02*
X33596103Y-20803404D01*
X15303404Y-6596103D02*
X15171887Y-6741209D01*
X35258790Y-20671887D02*
X35168362Y-20556014D01*
X33243737Y-44970060D02*
X33050018Y-44998796D01*
X15489187Y-84852416D02*
X15495189Y-85098919D01*
X62200000Y-29400321D02*
X62365241Y-29226762D01*
X32443985Y-70168362D02*
X32571872Y-70095914D01*
X24071872Y-44904085D02*
X23903896Y-44803404D01*
X15489187Y-5852416D02*
X15498796Y-6050018D01*
X23828112Y-6741209D02*
X23696595Y-6596103D01*
X23529939Y-47243737D02*
X23501203Y-47050018D01*
X33243737Y-61970060D02*
X33098919Y-61995189D01*
X15303404Y-46403896D02*
X15382039Y-46528074D01*
X14928127Y-85904085D02*
X14790994Y-85956983D01*
X35485411Y-44857870D02*
X35292600Y-44707399D01*
X15331637Y-84443985D02*
X15404085Y-84571872D01*
X5328112Y-85741209D02*
X5168362Y-85556014D01*
X14883300Y-46076044D02*
X15056014Y-46168362D01*
X45331637Y-85556014D02*
X45241209Y-85671887D01*
X24116699Y-5076044D02*
X24256262Y-5029939D01*
X5292600Y-46292600D02*
X5485411Y-46142129D01*
X33904085Y-85428127D02*
X33831637Y-85556014D01*
X63707399Y-5292600D02*
X63857870Y-5485411D01*
X7000000Y-7000000D02*
X32000000Y-7000000D01*
X35000000Y-5999012D02*
X35029939Y-5756262D01*
X35029939Y-61243737D02*
X35001203Y-61050018D01*
X63857870Y-46485411D02*
X63923955Y-46616699D01*
X33596103Y-20803404D02*
X33428127Y-20904085D01*
X35029939Y-46756262D02*
X35076044Y-46616699D01*
X53828112Y-6741209D02*
X53696595Y-6596103D01*
X14550018Y-5001203D02*
X14695895Y-5019195D01*
X33741209Y-29328112D02*
X33882039Y-29528074D01*
X24449981Y-85998796D02*
X24256262Y-85970060D01*
X32528074Y-61882039D02*
X32365241Y-61773237D01*
X53696595Y-6596103D02*
X53595914Y-6428127D01*
X53558397Y-46662447D02*
X53617960Y-46528074D01*
X5076044Y-5616699D02*
X5142129Y-5485411D01*
X53510812Y-43852416D02*
X53558397Y-43662447D01*
X63882039Y-29528074D02*
X63970060Y-29756262D01*
X63556014Y-29168362D02*
X63741209Y-29328112D01*
X53595914Y-85428127D02*
X53529939Y-85243737D01*
X6098919Y-70004810D02*
X6290994Y-70043016D01*
X53500000Y-43999012D02*
X53510812Y-43852416D01*
X35571872Y-61904085D02*
X35403896Y-61803404D01*
X53696595Y-85596103D02*
X53595914Y-85428127D01*
X36147583Y-29010812D02*
X36337552Y-29058397D01*
X5485411Y-85857870D02*
X5328112Y-85741209D01*
X23558397Y-43662447D02*
X23642129Y-43485411D01*
X62200000Y-61594705D02*
X62200000Y-70400321D01*
X54162447Y-85941602D02*
X53985411Y-85857870D01*
X15171887Y-47741209D02*
X15092617Y-47800000D01*
X5000000Y-46999012D02*
X5029939Y-46756262D01*
X24071872Y-85904085D02*
X23903896Y-85803404D01*
X33290994Y-29043016D02*
X33428127Y-29095914D01*
X64000000Y-29999012D02*
X64000000Y-44000987D01*
X54116699Y-5076044D02*
X54304104Y-5019195D01*
X63050018Y-29001203D02*
X63195895Y-29019195D01*
X63290994Y-46043016D02*
X63514588Y-46142129D01*
X53828112Y-47741209D02*
X53696595Y-47596103D01*
X63970060Y-5756262D02*
X64000000Y-5999012D01*
X23907382Y-47800000D02*
X23828112Y-47741209D01*
X15500000Y-43999012D02*
X15489187Y-44147583D01*
X15441602Y-46662447D02*
X15489187Y-46852416D01*
X37000000Y-7000000D02*
X62000000Y-7000000D01*
X53510812Y-44147583D02*
X53500000Y-43999012D01*
X33337552Y-70058397D02*
X33556014Y-70168362D01*
X5076044Y-44383300D02*
X5029939Y-44243737D01*
X33970060Y-61243737D02*
X33904085Y-61428127D01*
X6634758Y-61773237D02*
X6471925Y-61882039D01*
X63098919Y-61995189D02*
X62901080Y-61995189D01*
X32000000Y-43000000D02*
X7000000Y-43000000D01*
X35709005Y-85956983D02*
X35485411Y-85857870D01*
X53529939Y-84756262D02*
X53595914Y-84571872D01*
X23595914Y-47428127D02*
X23529939Y-47243737D01*
X5168362Y-61556014D02*
X5076044Y-61383300D01*
X45134758Y-43226762D02*
X45241209Y-43328112D01*
X5485411Y-29142129D02*
X5662447Y-29058397D01*
X35000000Y-46999012D02*
X35029939Y-46756262D01*
X45241209Y-85671887D02*
X45134758Y-85773237D01*
X45331637Y-44556014D02*
X45241209Y-44671887D01*
X53595914Y-6428127D02*
X53529939Y-6243737D01*
X33050018Y-85998796D02*
X24449981Y-85998796D01*
X63428127Y-61904085D02*
X63290994Y-61956983D01*
X5949981Y-5001203D02*
X14550018Y-5001203D01*
X45171887Y-5258790D02*
X45273237Y-5365241D01*
X5142129Y-5485411D02*
X5292600Y-5292600D01*
X15331637Y-43443985D02*
X15404085Y-43571872D01*
X63290994Y-85956983D02*
X63050018Y-85998796D01*
X35485411Y-46142129D02*
X35709005Y-46043016D01*
X14550018Y-46001203D02*
X14743737Y-46029939D01*
X15241209Y-44671887D02*
X15134758Y-44773237D01*
X36634758Y-61773237D02*
X36471925Y-61882039D01*
X35403896Y-20803404D02*
X35258790Y-20671887D01*
X23558397Y-44337552D02*
X23510812Y-44147583D01*
X5292600Y-44707399D02*
X5142129Y-44514588D01*
X63970060Y-85243737D02*
X63923955Y-85383300D01*
X15470060Y-6243737D02*
X15404085Y-6428127D01*
X63998796Y-61050018D02*
X63970060Y-61243737D01*
X23501203Y-6050018D02*
X23510812Y-5852416D01*
X23907382Y-6800000D02*
X23828112Y-6741209D01*
X35709005Y-5043016D02*
X35949981Y-5001203D01*
X15489187Y-43852416D02*
X15500000Y-43999012D01*
X33923955Y-46616699D02*
X33970060Y-46756262D01*
X36337552Y-70058397D02*
X36514588Y-70142129D01*
X15134758Y-44773237D02*
X15014588Y-44857870D01*
X45489187Y-46852416D02*
X45498796Y-47050018D01*
X5328112Y-29258790D02*
X5485411Y-29142129D01*
X35662447Y-29058397D02*
X35852416Y-29010812D01*
X33290994Y-46043016D02*
X33514588Y-46142129D01*
X32000000Y-48000000D02*
X32000000Y-84000000D01*
X23900140Y-84200000D02*
X15096758Y-84200000D01*
X63290994Y-5043016D02*
X63514588Y-5142129D01*
X5076044Y-20383300D02*
X5029939Y-20243737D01*
X45303404Y-6596103D02*
X45171887Y-6741209D01*
X53696595Y-46403896D02*
X53828112Y-46258790D01*
X36634758Y-20773237D02*
X36471925Y-20882039D01*
X5258790Y-70328112D02*
X5403896Y-70196595D01*
X53828112Y-46258790D02*
X53943985Y-46168362D01*
X32901080Y-20995189D02*
X32709005Y-20956983D01*
X23642129Y-84485411D02*
X23758790Y-84328112D01*
X35076044Y-44383300D02*
X35029939Y-44243737D01*
X15489187Y-46852416D02*
X15498796Y-47050018D01*
X23726762Y-5365241D02*
X23828112Y-5258790D01*
X15273237Y-85634758D02*
X15171887Y-85741209D01*
X36337552Y-29058397D02*
X36514588Y-29142129D01*
X62804104Y-70019195D02*
X63050018Y-70001203D01*
X44743737Y-44970060D02*
X44500987Y-45000000D01*
X35756262Y-61970060D02*
X35571872Y-61904085D01*
X53642129Y-44514588D02*
X53558397Y-44337552D01*
X36671887Y-70258790D02*
X36800598Y-70400801D01*
X62709005Y-20956983D02*
X62528074Y-20882039D01*
X53558397Y-44337552D02*
X53510812Y-44147583D01*
X15404085Y-6428127D02*
X15303404Y-6596103D01*
X45014588Y-5142129D02*
X45171887Y-5258790D01*
X33904085Y-61428127D02*
X33831637Y-61556014D01*
X63970060Y-29756262D02*
X64000000Y-29999012D01*
X15273237Y-5365241D02*
X15382039Y-5528074D01*
X45273237Y-5365241D02*
X45382039Y-5528074D01*
X62200000Y-70400321D02*
X62365241Y-70226762D01*
X35029939Y-5756262D02*
X35076044Y-5616699D01*
X23758790Y-84328112D02*
X23900140Y-84200000D01*
X53617960Y-5528074D02*
X53696595Y-5403896D01*
X54499012Y-86000000D02*
X54352416Y-85989187D01*
X62901080Y-61995189D02*
X62709005Y-61956983D01*
X35001203Y-20050018D02*
X35000000Y-5999012D01*
X23828112Y-46258790D02*
X23943985Y-46168362D01*
X23543016Y-5709005D02*
X23617960Y-5528074D01*
X53907382Y-6800000D02*
X53828112Y-6741209D01*
X33290994Y-5043016D02*
X33514588Y-5142129D01*
X36290994Y-61956983D02*
X36098919Y-61995189D01*
X32804104Y-29019195D02*
X33050018Y-29001203D01*
X35949981Y-85998796D02*
X35709005Y-85956983D01*
X36514588Y-70142129D02*
X36671887Y-70258790D01*
X54449981Y-46001203D02*
X63050018Y-46001203D01*
X23529939Y-6243737D02*
X23501203Y-6050018D01*
X15096758Y-43200000D02*
X15134758Y-43226762D01*
X23696595Y-6596103D02*
X23595914Y-6428127D01*
X15241209Y-43328112D02*
X15331637Y-43443985D01*
X5949981Y-44998796D02*
X5709005Y-44956983D01*
X53501203Y-84949981D02*
X53529939Y-84756262D01*
X36471925Y-20882039D02*
X36290994Y-20956983D01*
X53943985Y-46168362D02*
X54116699Y-46076044D01*
X45489187Y-85147583D02*
X45456983Y-85290994D01*
X32000000Y-84000000D02*
X7000000Y-84000000D01*
X37000000Y-48000000D02*
X62000000Y-48000000D01*
X14647583Y-85989187D02*
X14500987Y-86000000D01*
X53617960Y-46528074D02*
X53696595Y-46403896D01*
X62365241Y-70226762D02*
X62571872Y-70095914D01*
X35000000Y-85000987D02*
X35001203Y-70949981D01*
X33923955Y-5616699D02*
X33970060Y-5756262D01*
X33857870Y-5485411D02*
X33923955Y-5616699D01*
X35292600Y-46292600D02*
X35485411Y-46142129D01*
X6147583Y-29010812D02*
X6337552Y-29058397D01*
X35029939Y-85243737D02*
X35000000Y-85000987D01*
X63290994Y-70043016D02*
X63514588Y-70142129D01*
X14743737Y-46029939D02*
X14883300Y-46076044D01*
X45498796Y-47050018D02*
X45470060Y-47243737D01*
X14695895Y-5019195D02*
X14883300Y-5076044D01*
X62226762Y-61634758D02*
X62200000Y-61594705D01*
X5528074Y-20882039D02*
X5365241Y-20773237D01*
X63831637Y-44556014D02*
X63671887Y-44741209D01*
X5095914Y-29571872D02*
X5196595Y-29403896D01*
X35328112Y-70258790D02*
X35485411Y-70142129D01*
X45489187Y-44147583D02*
X45456983Y-44290994D01*
X45470060Y-47243737D02*
X45404085Y-47428127D01*
X63741209Y-29328112D02*
X63882039Y-29528074D01*
X45241209Y-43328112D02*
X45331637Y-43443985D01*
X63904085Y-44428127D02*
X63831637Y-44556014D01*
X23758790Y-43328112D02*
X23900140Y-43200000D01*
X24449981Y-44998796D02*
X24256262Y-44970060D01*
X53758790Y-44671887D02*
X53642129Y-44514588D01*
X15134758Y-43226762D02*
X15241209Y-43328112D01*
X35029939Y-70756262D02*
X35095914Y-70571872D01*
X5168362Y-85556014D02*
X5095914Y-85428127D01*
X5485411Y-5142129D02*
X5709005Y-5043016D01*
X23510812Y-5852416D02*
X23543016Y-5709005D01*
X63707399Y-85707399D02*
X63514588Y-85857870D01*
X45014588Y-44857870D02*
X44883300Y-44923955D01*
X33290994Y-85956983D02*
X33050018Y-85998796D01*
X35142129Y-5485411D02*
X35292600Y-5292600D01*
X44883300Y-5076044D02*
X45014588Y-5142129D01*
X54304104Y-5019195D02*
X54449981Y-5001203D01*
X53903896Y-44803404D02*
X53758790Y-44671887D01*
X24449981Y-46001203D02*
X33050018Y-46001203D01*
X36471925Y-61882039D02*
X36290994Y-61956983D01*
X23828112Y-47741209D02*
X23696595Y-47596103D01*
X33514588Y-46142129D02*
X33707399Y-46292600D01*
X35949981Y-46001203D02*
X44550018Y-46001203D01*
X53510812Y-46852416D02*
X53558397Y-46662447D01*
X63923955Y-46616699D02*
X63970060Y-46756262D01*
X15382039Y-5528074D02*
X15441602Y-5662447D01*
X6514588Y-29142129D02*
X6671887Y-29258790D01*
X35196595Y-29403896D02*
X35328112Y-29258790D01*
X54071872Y-44904085D02*
X53903896Y-44803404D01*
X33882039Y-70528074D02*
X33970060Y-70756262D01*
X33428127Y-20904085D02*
X33290994Y-20956983D01*
X45134758Y-44773237D02*
X45014588Y-44857870D01*
X63671887Y-44741209D02*
X63471925Y-44882039D01*
X62571872Y-29095914D02*
X62804104Y-29019195D01*
X64000000Y-70999012D02*
X64000000Y-85000987D01*
X15404085Y-44428127D02*
X15331637Y-44556014D01*
X15171887Y-5258790D02*
X15273237Y-5365241D01*
X35485411Y-85857870D02*
X35292600Y-85707399D01*
X33956983Y-85290994D02*
X33904085Y-85428127D01*
X15056014Y-85831637D02*
X14928127Y-85904085D01*
X5571872Y-70095914D02*
X5756262Y-70029939D01*
X32709005Y-20956983D02*
X32528074Y-20882039D01*
X23510812Y-44147583D02*
X23500000Y-43999012D01*
X32200000Y-29403445D02*
X32258790Y-29328112D01*
X62000000Y-7000000D02*
X62000000Y-43000000D01*
X32200000Y-20594705D02*
X32200000Y-29403445D01*
X54449981Y-44998796D02*
X54256262Y-44970060D01*
X53642129Y-43485411D02*
X53758790Y-43328112D01*
X36773237Y-20634758D02*
X36634758Y-20773237D01*
X53900140Y-43200000D02*
X45096758Y-43200000D01*
X63970060Y-20243737D02*
X63904085Y-20428127D01*
X53792600Y-84292600D02*
X53899950Y-84200000D01*
X36098919Y-61995189D02*
X35901080Y-61995189D01*
X53558397Y-43662447D02*
X53642129Y-43485411D01*
X62200000Y-20594705D02*
X62200000Y-29400321D01*
X33970060Y-29756262D02*
X34000000Y-29999012D01*
X5000000Y-85000987D02*
X5000000Y-70999012D01*
X5403896Y-61803404D02*
X5258790Y-61671887D01*
X44500987Y-86000000D02*
X35949981Y-85998796D01*
X32804104Y-70019195D02*
X33050018Y-70001203D01*
X15495189Y-85098919D02*
X15470060Y-85243737D01*
X33050018Y-70001203D02*
X33195895Y-70019195D01*
X6773237Y-20634758D02*
X6634758Y-20773237D01*
X5196595Y-29403896D02*
X5328112Y-29258790D01*
X45404085Y-84571872D02*
X45456983Y-84709005D01*
X33980804Y-20195895D02*
X33923955Y-20383300D01*
X63857870Y-85514588D02*
X63707399Y-85707399D01*
X6471925Y-70117960D02*
X6634758Y-70226762D01*
X35196595Y-70403896D02*
X35328112Y-70258790D01*
X35142129Y-44514588D02*
X35076044Y-44383300D01*
M02*
