G04 #@! TF.GenerationSoftware,KiCad,Pcbnew,9.0.0*
G04 #@! TF.CreationDate,2025-03-15T22:42:23+01:00*
G04 #@! TF.ProjectId,eeprom_i2c_panel,65657072-6f6d-45f6-9932-635f70616e65,1.1*
G04 #@! TF.SameCoordinates,PX6cb8080PY69db9c0*
G04 #@! TF.FileFunction,Copper,L2,Bot*
G04 #@! TF.FilePolarity,Positive*
%FSLAX46Y46*%
G04 Gerber Fmt 4.6, Leading zero omitted, Abs format (unit mm)*
G04 Created by KiCad (PCBNEW 9.0.0) date 2025-03-15 22:42:23*
%MOMM*%
%LPD*%
G01*
G04 APERTURE LIST*
G04 #@! TA.AperFunction,ComponentPad*
%ADD10R,1.600000X1.600000*%
G04 #@! TD*
G04 #@! TA.AperFunction,ComponentPad*
%ADD11O,1.600000X1.600000*%
G04 #@! TD*
G04 #@! TA.AperFunction,ComponentPad*
%ADD12R,1.700000X1.700000*%
G04 #@! TD*
G04 #@! TA.AperFunction,ComponentPad*
%ADD13O,1.700000X1.700000*%
G04 #@! TD*
G04 #@! TA.AperFunction,ComponentPad*
%ADD14C,1.600000*%
G04 #@! TD*
G04 #@! TA.AperFunction,Profile*
%ADD15C,0.100000*%
G04 #@! TD*
G04 APERTURE END LIST*
D10*
G04 #@! TO.P,U1,1,A0*
G04 #@! TO.N,Board_1-Net-(J1-Pin_2)*
X51330000Y80090000D03*
D11*
G04 #@! TO.P,U1,2,A1*
G04 #@! TO.N,Board_1-Net-(J2-Pin_2)*
X51330000Y77550000D03*
G04 #@! TO.P,U1,3,A2*
G04 #@! TO.N,Board_1-Net-(J3-Pin_2)*
X51330000Y75010000D03*
G04 #@! TO.P,U1,4,GND*
G04 #@! TO.N,Board_1-GND*
X51330000Y72470000D03*
G04 #@! TO.P,U1,5,SDA*
G04 #@! TO.N,Board_1-Net-(J4-SDA)*
X58950000Y72470000D03*
G04 #@! TO.P,U1,6,SCL*
G04 #@! TO.N,Board_1-Net-(J4-SCL)*
X58950000Y75010000D03*
G04 #@! TO.P,U1,7,WP*
G04 #@! TO.N,Board_1-GND*
X58950000Y77550000D03*
G04 #@! TO.P,U1,8,VCC*
G04 #@! TO.N,Board_1-Net-(J1-Pin_1)*
X58950000Y80090000D03*
G04 #@! TD*
D12*
G04 #@! TO.P,J2,1,Pin_1*
G04 #@! TO.N,Board_1-Net-(J1-Pin_1)*
X40300000Y68245000D03*
D13*
G04 #@! TO.P,J2,2,Pin_2*
G04 #@! TO.N,Board_1-Net-(J2-Pin_2)*
X40300000Y65705000D03*
G04 #@! TO.P,J2,3,Pin_3*
G04 #@! TO.N,Board_1-GND*
X40300000Y63165000D03*
G04 #@! TD*
D14*
G04 #@! TO.P,R1,1*
G04 #@! TO.N,Board_2-Net-(J1-Pin_1)*
X29120000Y19050000D03*
D11*
G04 #@! TO.P,R1,2*
G04 #@! TO.N,Board_2-Net-(J4-SDA)*
X21500000Y19050000D03*
G04 #@! TD*
D14*
G04 #@! TO.P,C1,1*
G04 #@! TO.N,Board_2-Net-(J1-Pin_1)*
X28400000Y14750000D03*
G04 #@! TO.P,C1,2*
G04 #@! TO.N,Board_2-GND*
X25900000Y14750000D03*
G04 #@! TD*
G04 #@! TO.P,R2,1*
G04 #@! TO.N,Board_3-Net-(J1-Pin_1)*
X59010000Y25500000D03*
D11*
G04 #@! TO.P,R2,2*
G04 #@! TO.N,Board_3-Net-(J4-SCL)*
X51390000Y25500000D03*
G04 #@! TD*
D14*
G04 #@! TO.P,R2,1*
G04 #@! TO.N,Board_2-Net-(J1-Pin_1)*
X29010000Y25500000D03*
D11*
G04 #@! TO.P,R2,2*
G04 #@! TO.N,Board_2-Net-(J4-SCL)*
X21390000Y25500000D03*
G04 #@! TD*
D12*
G04 #@! TO.P,J2,1,Pin_1*
G04 #@! TO.N,Board_0-Net-(J1-Pin_1)*
X10300000Y68245000D03*
D13*
G04 #@! TO.P,J2,2,Pin_2*
G04 #@! TO.N,Board_0-Net-(J2-Pin_2)*
X10300000Y65705000D03*
G04 #@! TO.P,J2,3,Pin_3*
G04 #@! TO.N,Board_0-GND*
X10300000Y63165000D03*
G04 #@! TD*
D12*
G04 #@! TO.P,J1,1,Pin_1*
G04 #@! TO.N,Board_3-Net-(J1-Pin_1)*
X40300000Y38730000D03*
D13*
G04 #@! TO.P,J1,2,Pin_2*
G04 #@! TO.N,Board_3-Net-(J1-Pin_2)*
X40300000Y36190000D03*
G04 #@! TO.P,J1,3,Pin_3*
G04 #@! TO.N,Board_3-GND*
X40300000Y33650000D03*
G04 #@! TD*
D12*
G04 #@! TO.P,J3,1,Pin_1*
G04 #@! TO.N,Board_1-Net-(J1-Pin_1)*
X40300000Y57230000D03*
D13*
G04 #@! TO.P,J3,2,Pin_2*
G04 #@! TO.N,Board_1-Net-(J3-Pin_2)*
X40300000Y54690000D03*
G04 #@! TO.P,J3,3,Pin_3*
G04 #@! TO.N,Board_1-GND*
X40300000Y52150000D03*
G04 #@! TD*
D12*
G04 #@! TO.P,J3,1,Pin_1*
G04 #@! TO.N,Board_3-Net-(J1-Pin_1)*
X40300000Y16230000D03*
D13*
G04 #@! TO.P,J3,2,Pin_2*
G04 #@! TO.N,Board_3-Net-(J3-Pin_2)*
X40300000Y13690000D03*
G04 #@! TO.P,J3,3,Pin_3*
G04 #@! TO.N,Board_3-GND*
X40300000Y11150000D03*
G04 #@! TD*
D14*
G04 #@! TO.P,R2,1*
G04 #@! TO.N,Board_0-Net-(J1-Pin_1)*
X29010000Y66500000D03*
D11*
G04 #@! TO.P,R2,2*
G04 #@! TO.N,Board_0-Net-(J4-SCL)*
X21390000Y66500000D03*
G04 #@! TD*
D12*
G04 #@! TO.P,J3,1,Pin_1*
G04 #@! TO.N,Board_0-Net-(J1-Pin_1)*
X10300000Y57230000D03*
D13*
G04 #@! TO.P,J3,2,Pin_2*
G04 #@! TO.N,Board_0-Net-(J3-Pin_2)*
X10300000Y54690000D03*
G04 #@! TO.P,J3,3,Pin_3*
G04 #@! TO.N,Board_0-GND*
X10300000Y52150000D03*
G04 #@! TD*
D14*
G04 #@! TO.P,R1,1*
G04 #@! TO.N,Board_0-Net-(J1-Pin_1)*
X29120000Y60050000D03*
D11*
G04 #@! TO.P,R1,2*
G04 #@! TO.N,Board_0-Net-(J4-SDA)*
X21500000Y60050000D03*
G04 #@! TD*
D14*
G04 #@! TO.P,R1,1*
G04 #@! TO.N,Board_1-Net-(J1-Pin_1)*
X59120000Y60050000D03*
D11*
G04 #@! TO.P,R1,2*
G04 #@! TO.N,Board_1-Net-(J4-SDA)*
X51500000Y60050000D03*
G04 #@! TD*
D12*
G04 #@! TO.P,J4,1,VCC*
G04 #@! TO.N,Board_0-Net-(J1-Pin_1)*
X28440000Y51250000D03*
D13*
G04 #@! TO.P,J4,2,GND*
G04 #@! TO.N,Board_0-GND*
X25900000Y51250000D03*
G04 #@! TO.P,J4,3,SCL*
G04 #@! TO.N,Board_0-Net-(J4-SCL)*
X23360000Y51250000D03*
G04 #@! TO.P,J4,4,SDA*
G04 #@! TO.N,Board_0-Net-(J4-SDA)*
X20820000Y51250000D03*
G04 #@! TD*
D12*
G04 #@! TO.P,J2,1,Pin_1*
G04 #@! TO.N,Board_2-Net-(J1-Pin_1)*
X10300000Y27245000D03*
D13*
G04 #@! TO.P,J2,2,Pin_2*
G04 #@! TO.N,Board_2-Net-(J2-Pin_2)*
X10300000Y24705000D03*
G04 #@! TO.P,J2,3,Pin_3*
G04 #@! TO.N,Board_2-GND*
X10300000Y22165000D03*
G04 #@! TD*
D12*
G04 #@! TO.P,J1,1,Pin_1*
G04 #@! TO.N,Board_2-Net-(J1-Pin_1)*
X10300000Y38730000D03*
D13*
G04 #@! TO.P,J1,2,Pin_2*
G04 #@! TO.N,Board_2-Net-(J1-Pin_2)*
X10300000Y36190000D03*
G04 #@! TO.P,J1,3,Pin_3*
G04 #@! TO.N,Board_2-GND*
X10300000Y33650000D03*
G04 #@! TD*
D12*
G04 #@! TO.P,J2,1,Pin_1*
G04 #@! TO.N,Board_3-Net-(J1-Pin_1)*
X40300000Y27245000D03*
D13*
G04 #@! TO.P,J2,2,Pin_2*
G04 #@! TO.N,Board_3-Net-(J2-Pin_2)*
X40300000Y24705000D03*
G04 #@! TO.P,J2,3,Pin_3*
G04 #@! TO.N,Board_3-GND*
X40300000Y22165000D03*
G04 #@! TD*
D12*
G04 #@! TO.P,J4,1,VCC*
G04 #@! TO.N,Board_2-Net-(J1-Pin_1)*
X28440000Y10250000D03*
D13*
G04 #@! TO.P,J4,2,GND*
G04 #@! TO.N,Board_2-GND*
X25900000Y10250000D03*
G04 #@! TO.P,J4,3,SCL*
G04 #@! TO.N,Board_2-Net-(J4-SCL)*
X23360000Y10250000D03*
G04 #@! TO.P,J4,4,SDA*
G04 #@! TO.N,Board_2-Net-(J4-SDA)*
X20820000Y10250000D03*
G04 #@! TD*
D10*
G04 #@! TO.P,U1,1,A0*
G04 #@! TO.N,Board_3-Net-(J1-Pin_2)*
X51330000Y39090000D03*
D11*
G04 #@! TO.P,U1,2,A1*
G04 #@! TO.N,Board_3-Net-(J2-Pin_2)*
X51330000Y36550000D03*
G04 #@! TO.P,U1,3,A2*
G04 #@! TO.N,Board_3-Net-(J3-Pin_2)*
X51330000Y34010000D03*
G04 #@! TO.P,U1,4,GND*
G04 #@! TO.N,Board_3-GND*
X51330000Y31470000D03*
G04 #@! TO.P,U1,5,SDA*
G04 #@! TO.N,Board_3-Net-(J4-SDA)*
X58950000Y31470000D03*
G04 #@! TO.P,U1,6,SCL*
G04 #@! TO.N,Board_3-Net-(J4-SCL)*
X58950000Y34010000D03*
G04 #@! TO.P,U1,7,WP*
G04 #@! TO.N,Board_3-GND*
X58950000Y36550000D03*
G04 #@! TO.P,U1,8,VCC*
G04 #@! TO.N,Board_3-Net-(J1-Pin_1)*
X58950000Y39090000D03*
G04 #@! TD*
D10*
G04 #@! TO.P,U1,1,A0*
G04 #@! TO.N,Board_2-Net-(J1-Pin_2)*
X21330000Y39090000D03*
D11*
G04 #@! TO.P,U1,2,A1*
G04 #@! TO.N,Board_2-Net-(J2-Pin_2)*
X21330000Y36550000D03*
G04 #@! TO.P,U1,3,A2*
G04 #@! TO.N,Board_2-Net-(J3-Pin_2)*
X21330000Y34010000D03*
G04 #@! TO.P,U1,4,GND*
G04 #@! TO.N,Board_2-GND*
X21330000Y31470000D03*
G04 #@! TO.P,U1,5,SDA*
G04 #@! TO.N,Board_2-Net-(J4-SDA)*
X28950000Y31470000D03*
G04 #@! TO.P,U1,6,SCL*
G04 #@! TO.N,Board_2-Net-(J4-SCL)*
X28950000Y34010000D03*
G04 #@! TO.P,U1,7,WP*
G04 #@! TO.N,Board_2-GND*
X28950000Y36550000D03*
G04 #@! TO.P,U1,8,VCC*
G04 #@! TO.N,Board_2-Net-(J1-Pin_1)*
X28950000Y39090000D03*
G04 #@! TD*
D14*
G04 #@! TO.P,C1,1*
G04 #@! TO.N,Board_0-Net-(J1-Pin_1)*
X28400000Y55750000D03*
G04 #@! TO.P,C1,2*
G04 #@! TO.N,Board_0-GND*
X25900000Y55750000D03*
G04 #@! TD*
D12*
G04 #@! TO.P,J1,1,Pin_1*
G04 #@! TO.N,Board_0-Net-(J1-Pin_1)*
X10300000Y79730000D03*
D13*
G04 #@! TO.P,J1,2,Pin_2*
G04 #@! TO.N,Board_0-Net-(J1-Pin_2)*
X10300000Y77190000D03*
G04 #@! TO.P,J1,3,Pin_3*
G04 #@! TO.N,Board_0-GND*
X10300000Y74650000D03*
G04 #@! TD*
D12*
G04 #@! TO.P,J4,1,VCC*
G04 #@! TO.N,Board_3-Net-(J1-Pin_1)*
X58440000Y10250000D03*
D13*
G04 #@! TO.P,J4,2,GND*
G04 #@! TO.N,Board_3-GND*
X55900000Y10250000D03*
G04 #@! TO.P,J4,3,SCL*
G04 #@! TO.N,Board_3-Net-(J4-SCL)*
X53360000Y10250000D03*
G04 #@! TO.P,J4,4,SDA*
G04 #@! TO.N,Board_3-Net-(J4-SDA)*
X50820000Y10250000D03*
G04 #@! TD*
D14*
G04 #@! TO.P,C1,1*
G04 #@! TO.N,Board_3-Net-(J1-Pin_1)*
X58400000Y14750000D03*
G04 #@! TO.P,C1,2*
G04 #@! TO.N,Board_3-GND*
X55900000Y14750000D03*
G04 #@! TD*
D12*
G04 #@! TO.P,J4,1,VCC*
G04 #@! TO.N,Board_1-Net-(J1-Pin_1)*
X58440000Y51250000D03*
D13*
G04 #@! TO.P,J4,2,GND*
G04 #@! TO.N,Board_1-GND*
X55900000Y51250000D03*
G04 #@! TO.P,J4,3,SCL*
G04 #@! TO.N,Board_1-Net-(J4-SCL)*
X53360000Y51250000D03*
G04 #@! TO.P,J4,4,SDA*
G04 #@! TO.N,Board_1-Net-(J4-SDA)*
X50820000Y51250000D03*
G04 #@! TD*
D12*
G04 #@! TO.P,J3,1,Pin_1*
G04 #@! TO.N,Board_2-Net-(J1-Pin_1)*
X10300000Y16230000D03*
D13*
G04 #@! TO.P,J3,2,Pin_2*
G04 #@! TO.N,Board_2-Net-(J3-Pin_2)*
X10300000Y13690000D03*
G04 #@! TO.P,J3,3,Pin_3*
G04 #@! TO.N,Board_2-GND*
X10300000Y11150000D03*
G04 #@! TD*
D12*
G04 #@! TO.P,J1,1,Pin_1*
G04 #@! TO.N,Board_1-Net-(J1-Pin_1)*
X40300000Y79730000D03*
D13*
G04 #@! TO.P,J1,2,Pin_2*
G04 #@! TO.N,Board_1-Net-(J1-Pin_2)*
X40300000Y77190000D03*
G04 #@! TO.P,J1,3,Pin_3*
G04 #@! TO.N,Board_1-GND*
X40300000Y74650000D03*
G04 #@! TD*
D10*
G04 #@! TO.P,U1,1,A0*
G04 #@! TO.N,Board_0-Net-(J1-Pin_2)*
X21330000Y80090000D03*
D11*
G04 #@! TO.P,U1,2,A1*
G04 #@! TO.N,Board_0-Net-(J2-Pin_2)*
X21330000Y77550000D03*
G04 #@! TO.P,U1,3,A2*
G04 #@! TO.N,Board_0-Net-(J3-Pin_2)*
X21330000Y75010000D03*
G04 #@! TO.P,U1,4,GND*
G04 #@! TO.N,Board_0-GND*
X21330000Y72470000D03*
G04 #@! TO.P,U1,5,SDA*
G04 #@! TO.N,Board_0-Net-(J4-SDA)*
X28950000Y72470000D03*
G04 #@! TO.P,U1,6,SCL*
G04 #@! TO.N,Board_0-Net-(J4-SCL)*
X28950000Y75010000D03*
G04 #@! TO.P,U1,7,WP*
G04 #@! TO.N,Board_0-GND*
X28950000Y77550000D03*
G04 #@! TO.P,U1,8,VCC*
G04 #@! TO.N,Board_0-Net-(J1-Pin_1)*
X28950000Y80090000D03*
G04 #@! TD*
D14*
G04 #@! TO.P,R1,1*
G04 #@! TO.N,Board_3-Net-(J1-Pin_1)*
X59120000Y19050000D03*
D11*
G04 #@! TO.P,R1,2*
G04 #@! TO.N,Board_3-Net-(J4-SDA)*
X51500000Y19050000D03*
G04 #@! TD*
D14*
G04 #@! TO.P,R2,1*
G04 #@! TO.N,Board_1-Net-(J1-Pin_1)*
X59010000Y66500000D03*
D11*
G04 #@! TO.P,R2,2*
G04 #@! TO.N,Board_1-Net-(J4-SCL)*
X51390000Y66500000D03*
G04 #@! TD*
D14*
G04 #@! TO.P,C1,1*
G04 #@! TO.N,Board_1-Net-(J1-Pin_1)*
X58400000Y55750000D03*
G04 #@! TO.P,C1,2*
G04 #@! TO.N,Board_1-GND*
X55900000Y55750000D03*
G04 #@! TD*
G04 #@! TA.AperFunction,Conductor*
G04 #@! TO.N,Board_3-GND*
G36*
X61442539Y42479815D02*
G01*
X61488294Y42427011D01*
X61499500Y42375500D01*
X61499500Y7624500D01*
X61479815Y7557461D01*
X61427011Y7511706D01*
X61375500Y7500500D01*
X37624500Y7500500D01*
X37557461Y7520185D01*
X37511706Y7572989D01*
X37500500Y7624500D01*
X37500500Y17127865D01*
X38949500Y17127865D01*
X38949500Y15332130D01*
X38949501Y15332124D01*
X38955908Y15272517D01*
X39006202Y15137672D01*
X39006206Y15137665D01*
X39092452Y15022456D01*
X39092455Y15022453D01*
X39207664Y14936207D01*
X39207671Y14936203D01*
X39339082Y14887190D01*
X39395016Y14845319D01*
X39419433Y14779855D01*
X39404582Y14711582D01*
X39383431Y14683327D01*
X39269889Y14569785D01*
X39144951Y14397821D01*
X39048444Y14208415D01*
X38982753Y14006240D01*
X38949500Y13796287D01*
X38949500Y13583714D01*
X38982753Y13373761D01*
X39048444Y13171586D01*
X39144951Y12982180D01*
X39269890Y12810214D01*
X39420213Y12659891D01*
X39592179Y12534952D01*
X39592181Y12534951D01*
X39592184Y12534949D01*
X39601493Y12530206D01*
X39652290Y12482234D01*
X39669087Y12414413D01*
X39646552Y12348278D01*
X39601502Y12309238D01*
X39592443Y12304622D01*
X39420540Y12179728D01*
X39420535Y12179724D01*
X39270276Y12029465D01*
X39270272Y12029460D01*
X39145379Y11857558D01*
X39048904Y11668218D01*
X38983242Y11466130D01*
X38983242Y11466127D01*
X38972769Y11400000D01*
X39866988Y11400000D01*
X39834075Y11342993D01*
X39800000Y11215826D01*
X39800000Y11084174D01*
X39834075Y10957007D01*
X39866988Y10900000D01*
X38972769Y10900000D01*
X38983242Y10833874D01*
X38983242Y10833871D01*
X39048904Y10631783D01*
X39145379Y10442443D01*
X39270272Y10270541D01*
X39270276Y10270536D01*
X39420535Y10120277D01*
X39420540Y10120273D01*
X39592442Y9995380D01*
X39781782Y9898905D01*
X39983871Y9833243D01*
X40050000Y9822769D01*
X40050000Y10716988D01*
X40107007Y10684075D01*
X40234174Y10650000D01*
X40365826Y10650000D01*
X40492993Y10684075D01*
X40550000Y10716988D01*
X40550000Y9822770D01*
X40616126Y9833243D01*
X40616129Y9833243D01*
X40818217Y9898905D01*
X41007557Y9995380D01*
X41179459Y10120273D01*
X41179464Y10120277D01*
X41329723Y10270536D01*
X41329727Y10270541D01*
X41392025Y10356287D01*
X49469500Y10356287D01*
X49469500Y10143713D01*
X49502754Y9933757D01*
X49538816Y9822769D01*
X49568444Y9731586D01*
X49664951Y9542180D01*
X49789890Y9370214D01*
X49940213Y9219891D01*
X50112179Y9094952D01*
X50112181Y9094951D01*
X50112184Y9094949D01*
X50301588Y8998443D01*
X50503757Y8932754D01*
X50713713Y8899500D01*
X50713714Y8899500D01*
X50926286Y8899500D01*
X50926287Y8899500D01*
X51136243Y8932754D01*
X51338412Y8998443D01*
X51527816Y9094949D01*
X51614138Y9157665D01*
X51699786Y9219891D01*
X51699788Y9219894D01*
X51699792Y9219896D01*
X51850104Y9370208D01*
X51850106Y9370212D01*
X51850109Y9370214D01*
X51975048Y9542180D01*
X51975047Y9542180D01*
X51975051Y9542184D01*
X51979514Y9550946D01*
X52027488Y9601741D01*
X52095308Y9618537D01*
X52161444Y9596001D01*
X52200486Y9550944D01*
X52204951Y9542180D01*
X52329890Y9370214D01*
X52480213Y9219891D01*
X52652179Y9094952D01*
X52652181Y9094951D01*
X52652184Y9094949D01*
X52841588Y8998443D01*
X53043757Y8932754D01*
X53253713Y8899500D01*
X53253714Y8899500D01*
X53466286Y8899500D01*
X53466287Y8899500D01*
X53676243Y8932754D01*
X53878412Y8998443D01*
X54067816Y9094949D01*
X54154138Y9157665D01*
X54239786Y9219891D01*
X54239788Y9219894D01*
X54239792Y9219896D01*
X54390104Y9370208D01*
X54390106Y9370212D01*
X54390109Y9370214D01*
X54515048Y9542180D01*
X54515051Y9542184D01*
X54519793Y9551492D01*
X54567763Y9602289D01*
X54635583Y9619089D01*
X54701719Y9596555D01*
X54740763Y9551500D01*
X54745377Y9542445D01*
X54870272Y9370541D01*
X54870276Y9370536D01*
X55020535Y9220277D01*
X55020540Y9220273D01*
X55192442Y9095380D01*
X55381782Y8998905D01*
X55583871Y8933243D01*
X55650000Y8922769D01*
X55650000Y9816988D01*
X55707007Y9784075D01*
X55834174Y9750000D01*
X55965826Y9750000D01*
X56092993Y9784075D01*
X56150000Y9816988D01*
X56150000Y8922770D01*
X56216126Y8933243D01*
X56216129Y8933243D01*
X56418217Y8998905D01*
X56607557Y9095380D01*
X56779458Y9220272D01*
X56893133Y9333947D01*
X56954456Y9367432D01*
X57024148Y9362448D01*
X57080082Y9320577D01*
X57096997Y9289599D01*
X57146202Y9157672D01*
X57146206Y9157665D01*
X57232452Y9042456D01*
X57232455Y9042453D01*
X57347664Y8956207D01*
X57347671Y8956203D01*
X57482517Y8905909D01*
X57482516Y8905909D01*
X57489444Y8905165D01*
X57542127Y8899500D01*
X59337872Y8899501D01*
X59397483Y8905909D01*
X59532331Y8956204D01*
X59647546Y9042454D01*
X59733796Y9157669D01*
X59784091Y9292517D01*
X59790500Y9352127D01*
X59790499Y11147872D01*
X59784091Y11207483D01*
X59783002Y11210402D01*
X59733797Y11342329D01*
X59733793Y11342336D01*
X59647547Y11457545D01*
X59647544Y11457548D01*
X59532335Y11543794D01*
X59532328Y11543798D01*
X59397482Y11594092D01*
X59397483Y11594092D01*
X59337883Y11600499D01*
X59337881Y11600500D01*
X59337873Y11600500D01*
X59337864Y11600500D01*
X57542129Y11600500D01*
X57542123Y11600499D01*
X57482516Y11594092D01*
X57347671Y11543798D01*
X57347664Y11543794D01*
X57232455Y11457548D01*
X57232452Y11457545D01*
X57146206Y11342336D01*
X57146202Y11342329D01*
X57096997Y11210402D01*
X57055126Y11154468D01*
X56989661Y11130051D01*
X56921388Y11144903D01*
X56893134Y11166054D01*
X56779464Y11279724D01*
X56779459Y11279728D01*
X56607557Y11404621D01*
X56418215Y11501097D01*
X56216124Y11566759D01*
X56150000Y11577232D01*
X56150000Y10683012D01*
X56092993Y10715925D01*
X55965826Y10750000D01*
X55834174Y10750000D01*
X55707007Y10715925D01*
X55650000Y10683012D01*
X55650000Y11577232D01*
X55649999Y11577232D01*
X55583875Y11566759D01*
X55381784Y11501097D01*
X55192442Y11404621D01*
X55020540Y11279728D01*
X55020535Y11279724D01*
X54870276Y11129465D01*
X54870272Y11129460D01*
X54745378Y10957557D01*
X54740762Y10948498D01*
X54692784Y10897705D01*
X54624963Y10880913D01*
X54558829Y10903454D01*
X54519794Y10948507D01*
X54515051Y10957816D01*
X54515049Y10957819D01*
X54515048Y10957821D01*
X54390109Y11129787D01*
X54239786Y11280110D01*
X54067820Y11405049D01*
X53878414Y11501556D01*
X53878413Y11501557D01*
X53878412Y11501557D01*
X53676243Y11567246D01*
X53676241Y11567247D01*
X53676240Y11567247D01*
X53514957Y11592792D01*
X53466287Y11600500D01*
X53253713Y11600500D01*
X53205042Y11592792D01*
X53043760Y11567247D01*
X52841585Y11501556D01*
X52652179Y11405049D01*
X52480213Y11280110D01*
X52329890Y11129787D01*
X52204949Y10957818D01*
X52200484Y10949054D01*
X52152509Y10898258D01*
X52084688Y10881464D01*
X52018553Y10904002D01*
X51979516Y10949054D01*
X51975050Y10957818D01*
X51850109Y11129787D01*
X51699786Y11280110D01*
X51527820Y11405049D01*
X51338414Y11501556D01*
X51338413Y11501557D01*
X51338412Y11501557D01*
X51136243Y11567246D01*
X51136241Y11567247D01*
X51136240Y11567247D01*
X50974957Y11592792D01*
X50926287Y11600500D01*
X50713713Y11600500D01*
X50665042Y11592792D01*
X50503760Y11567247D01*
X50301585Y11501556D01*
X50112179Y11405049D01*
X49940213Y11280110D01*
X49789890Y11129787D01*
X49664951Y10957821D01*
X49568444Y10768415D01*
X49502753Y10566240D01*
X49469500Y10356287D01*
X41392025Y10356287D01*
X41448519Y10434044D01*
X41448519Y10434045D01*
X41448520Y10434046D01*
X41454622Y10442445D01*
X41551095Y10631783D01*
X41616757Y10833871D01*
X41616757Y10833874D01*
X41627231Y10900000D01*
X40733012Y10900000D01*
X40765925Y10957007D01*
X40800000Y11084174D01*
X40800000Y11215826D01*
X40765925Y11342993D01*
X40733012Y11400000D01*
X41627231Y11400000D01*
X41616757Y11466127D01*
X41616757Y11466130D01*
X41551095Y11668218D01*
X41454620Y11857558D01*
X41329727Y12029460D01*
X41329723Y12029465D01*
X41179464Y12179724D01*
X41179459Y12179728D01*
X41007555Y12304623D01*
X40998500Y12309237D01*
X40947706Y12357212D01*
X40930912Y12425034D01*
X40953451Y12491168D01*
X40998508Y12530207D01*
X41007816Y12534949D01*
X41087007Y12592485D01*
X41179786Y12659891D01*
X41179788Y12659894D01*
X41179792Y12659896D01*
X41330104Y12810208D01*
X41330106Y12810212D01*
X41330109Y12810214D01*
X41455048Y12982180D01*
X41455047Y12982180D01*
X41455051Y12982184D01*
X41551557Y13171588D01*
X41617246Y13373757D01*
X41650500Y13583713D01*
X41650500Y13796287D01*
X41617246Y14006243D01*
X41551557Y14208412D01*
X41455051Y14397816D01*
X41455049Y14397819D01*
X41455048Y14397821D01*
X41330109Y14569787D01*
X41216569Y14683327D01*
X41201823Y14710331D01*
X41185221Y14736249D01*
X41185227Y14740725D01*
X41183084Y14744650D01*
X41185279Y14775346D01*
X41185325Y14806118D01*
X41187748Y14809878D01*
X41188068Y14814342D01*
X41206513Y14838982D01*
X41215112Y14852318D01*
X54600000Y14852318D01*
X54600000Y14647683D01*
X54632009Y14445583D01*
X54695244Y14250969D01*
X54788141Y14068650D01*
X54788147Y14068641D01*
X54820523Y14024079D01*
X54820524Y14024078D01*
X55500000Y14703554D01*
X55500000Y14697339D01*
X55527259Y14595606D01*
X55579920Y14504394D01*
X55654394Y14429920D01*
X55745606Y14377259D01*
X55847339Y14350000D01*
X55853553Y14350000D01*
X55174076Y13670526D01*
X55218650Y13638141D01*
X55400968Y13545245D01*
X55595582Y13482010D01*
X55797683Y13450000D01*
X56002317Y13450000D01*
X56204417Y13482010D01*
X56399031Y13545245D01*
X56581349Y13638141D01*
X56625921Y13670526D01*
X55946447Y14350000D01*
X55952661Y14350000D01*
X56054394Y14377259D01*
X56145606Y14429920D01*
X56220080Y14504394D01*
X56272741Y14595606D01*
X56300000Y14697339D01*
X56300000Y14703553D01*
X56979474Y14024079D01*
X57011859Y14068651D01*
X57039233Y14122376D01*
X57087207Y14173173D01*
X57155028Y14189969D01*
X57221163Y14167433D01*
X57260203Y14122379D01*
X57287713Y14068389D01*
X57408028Y13902787D01*
X57552786Y13758029D01*
X57673226Y13670526D01*
X57718390Y13637713D01*
X57824369Y13583714D01*
X57900776Y13544782D01*
X57900778Y13544782D01*
X57900781Y13544780D01*
X58005137Y13510873D01*
X58095465Y13481523D01*
X58196557Y13465512D01*
X58297648Y13449500D01*
X58297649Y13449500D01*
X58502351Y13449500D01*
X58502352Y13449500D01*
X58704534Y13481523D01*
X58899219Y13544780D01*
X59081610Y13637713D01*
X59174590Y13705268D01*
X59247213Y13758029D01*
X59247215Y13758032D01*
X59247219Y13758034D01*
X59391966Y13902781D01*
X59391968Y13902785D01*
X59391971Y13902787D01*
X59444732Y13975410D01*
X59512287Y14068390D01*
X59605220Y14250781D01*
X59668477Y14445466D01*
X59700500Y14647648D01*
X59700500Y14852352D01*
X59687219Y14936204D01*
X59668477Y15054535D01*
X59637458Y15150000D01*
X59605220Y15249219D01*
X59605218Y15249222D01*
X59605218Y15249224D01*
X59562975Y15332130D01*
X59512287Y15431610D01*
X59480092Y15475923D01*
X59391971Y15597214D01*
X59247213Y15741972D01*
X59081613Y15862285D01*
X59081612Y15862286D01*
X59081610Y15862287D01*
X59024653Y15891309D01*
X58899223Y15955219D01*
X58704534Y16018478D01*
X58529995Y16046122D01*
X58502352Y16050500D01*
X58297648Y16050500D01*
X58273329Y16046649D01*
X58095465Y16018478D01*
X57900776Y15955219D01*
X57718386Y15862285D01*
X57552786Y15741972D01*
X57408028Y15597214D01*
X57287714Y15431614D01*
X57260203Y15377621D01*
X57212227Y15326826D01*
X57144406Y15310032D01*
X57078272Y15332571D01*
X57039234Y15377624D01*
X57011861Y15431348D01*
X56979474Y15475923D01*
X56979474Y15475924D01*
X56300000Y14796449D01*
X56300000Y14802661D01*
X56272741Y14904394D01*
X56220080Y14995606D01*
X56145606Y15070080D01*
X56054394Y15122741D01*
X55952661Y15150000D01*
X55946446Y15150000D01*
X56625922Y15829476D01*
X56625921Y15829477D01*
X56581359Y15861853D01*
X56581350Y15861859D01*
X56399031Y15954756D01*
X56204417Y16017991D01*
X56002317Y16050000D01*
X55797683Y16050000D01*
X55595582Y16017991D01*
X55400968Y15954756D01*
X55218644Y15861857D01*
X55174077Y15829477D01*
X55174077Y15829476D01*
X55853554Y15150000D01*
X55847339Y15150000D01*
X55745606Y15122741D01*
X55654394Y15070080D01*
X55579920Y14995606D01*
X55527259Y14904394D01*
X55500000Y14802661D01*
X55500000Y14796447D01*
X54820524Y15475923D01*
X54820523Y15475923D01*
X54788143Y15431356D01*
X54695244Y15249032D01*
X54632009Y15054418D01*
X54600000Y14852318D01*
X41215112Y14852318D01*
X41223186Y14864841D01*
X41228011Y14867700D01*
X41229940Y14870275D01*
X41252905Y14883878D01*
X41257334Y14885894D01*
X41257483Y14885909D01*
X41392331Y14936204D01*
X41507546Y15022454D01*
X41593796Y15137669D01*
X41644091Y15272517D01*
X41650500Y15332127D01*
X41650499Y17127872D01*
X41644091Y17187483D01*
X41593796Y17322331D01*
X41593795Y17322332D01*
X41593793Y17322336D01*
X41507547Y17437545D01*
X41507544Y17437548D01*
X41392335Y17523794D01*
X41392328Y17523798D01*
X41257482Y17574092D01*
X41257483Y17574092D01*
X41197883Y17580499D01*
X41197881Y17580500D01*
X41197873Y17580500D01*
X41197864Y17580500D01*
X39402129Y17580500D01*
X39402123Y17580499D01*
X39342516Y17574092D01*
X39207671Y17523798D01*
X39207664Y17523794D01*
X39092455Y17437548D01*
X39092452Y17437545D01*
X39006206Y17322336D01*
X39006202Y17322329D01*
X38955908Y17187483D01*
X38949501Y17127884D01*
X38949501Y17127877D01*
X38949500Y17127865D01*
X37500500Y17127865D01*
X37500500Y19152352D01*
X50199500Y19152352D01*
X50199500Y18947649D01*
X50231522Y18745466D01*
X50294781Y18550777D01*
X50387715Y18368387D01*
X50508028Y18202787D01*
X50652786Y18058029D01*
X50807749Y17945444D01*
X50818390Y17937713D01*
X50934607Y17878497D01*
X51000776Y17844782D01*
X51000778Y17844782D01*
X51000781Y17844780D01*
X51105137Y17810873D01*
X51195465Y17781523D01*
X51296557Y17765512D01*
X51397648Y17749500D01*
X51397649Y17749500D01*
X51602351Y17749500D01*
X51602352Y17749500D01*
X51804534Y17781523D01*
X51999219Y17844780D01*
X52181610Y17937713D01*
X52274590Y18005268D01*
X52347213Y18058029D01*
X52347215Y18058032D01*
X52347219Y18058034D01*
X52491966Y18202781D01*
X52491968Y18202785D01*
X52491971Y18202787D01*
X52544732Y18275410D01*
X52612287Y18368390D01*
X52705220Y18550781D01*
X52768477Y18745466D01*
X52800500Y18947648D01*
X52800500Y19152352D01*
X57819500Y19152352D01*
X57819500Y18947649D01*
X57851522Y18745466D01*
X57914781Y18550777D01*
X58007715Y18368387D01*
X58128028Y18202787D01*
X58272786Y18058029D01*
X58427749Y17945444D01*
X58438390Y17937713D01*
X58554607Y17878497D01*
X58620776Y17844782D01*
X58620778Y17844782D01*
X58620781Y17844780D01*
X58725137Y17810873D01*
X58815465Y17781523D01*
X58916557Y17765512D01*
X59017648Y17749500D01*
X59017649Y17749500D01*
X59222351Y17749500D01*
X59222352Y17749500D01*
X59424534Y17781523D01*
X59619219Y17844780D01*
X59801610Y17937713D01*
X59894590Y18005268D01*
X59967213Y18058029D01*
X59967215Y18058032D01*
X59967219Y18058034D01*
X60111966Y18202781D01*
X60111968Y18202785D01*
X60111971Y18202787D01*
X60164732Y18275410D01*
X60232287Y18368390D01*
X60325220Y18550781D01*
X60388477Y18745466D01*
X60420500Y18947648D01*
X60420500Y19152352D01*
X60388477Y19354534D01*
X60325220Y19549219D01*
X60325218Y19549222D01*
X60325218Y19549224D01*
X60291503Y19615393D01*
X60232287Y19731610D01*
X60224556Y19742251D01*
X60111971Y19897214D01*
X59967213Y20041972D01*
X59801613Y20162285D01*
X59801612Y20162286D01*
X59801610Y20162287D01*
X59737193Y20195109D01*
X59619223Y20255219D01*
X59424534Y20318478D01*
X59249995Y20346122D01*
X59222352Y20350500D01*
X59017648Y20350500D01*
X58993329Y20346649D01*
X58815465Y20318478D01*
X58620776Y20255219D01*
X58438386Y20162285D01*
X58272786Y20041972D01*
X58128028Y19897214D01*
X58007715Y19731614D01*
X57914781Y19549224D01*
X57851522Y19354535D01*
X57819500Y19152352D01*
X52800500Y19152352D01*
X52768477Y19354534D01*
X52705220Y19549219D01*
X52705218Y19549222D01*
X52705218Y19549224D01*
X52671503Y19615393D01*
X52612287Y19731610D01*
X52604556Y19742251D01*
X52491971Y19897214D01*
X52347213Y20041972D01*
X52181613Y20162285D01*
X52181612Y20162286D01*
X52181610Y20162287D01*
X52117193Y20195109D01*
X51999223Y20255219D01*
X51804534Y20318478D01*
X51629995Y20346122D01*
X51602352Y20350500D01*
X51397648Y20350500D01*
X51373329Y20346649D01*
X51195465Y20318478D01*
X51000776Y20255219D01*
X50818386Y20162285D01*
X50652786Y20041972D01*
X50508028Y19897214D01*
X50387715Y19731614D01*
X50294781Y19549224D01*
X50231522Y19354535D01*
X50199500Y19152352D01*
X37500500Y19152352D01*
X37500500Y28142865D01*
X38949500Y28142865D01*
X38949500Y26347130D01*
X38949501Y26347124D01*
X38955908Y26287517D01*
X39006202Y26152672D01*
X39006206Y26152665D01*
X39092452Y26037456D01*
X39092455Y26037453D01*
X39207664Y25951207D01*
X39207671Y25951203D01*
X39339082Y25902190D01*
X39395016Y25860319D01*
X39419433Y25794855D01*
X39404582Y25726582D01*
X39383431Y25698327D01*
X39269889Y25584785D01*
X39144951Y25412821D01*
X39048444Y25223415D01*
X38982753Y25021240D01*
X38979513Y25000781D01*
X38949500Y24811287D01*
X38949500Y24598713D01*
X38982754Y24388757D01*
X39013288Y24294782D01*
X39048444Y24186586D01*
X39144951Y23997180D01*
X39269890Y23825214D01*
X39420213Y23674891D01*
X39592179Y23549952D01*
X39592181Y23549951D01*
X39592184Y23549949D01*
X39601493Y23545206D01*
X39652290Y23497234D01*
X39669087Y23429413D01*
X39646552Y23363278D01*
X39601502Y23324238D01*
X39592443Y23319622D01*
X39420540Y23194728D01*
X39420535Y23194724D01*
X39270276Y23044465D01*
X39270272Y23044460D01*
X39145379Y22872558D01*
X39048904Y22683218D01*
X38983242Y22481130D01*
X38983242Y22481127D01*
X38972769Y22415000D01*
X39866988Y22415000D01*
X39834075Y22357993D01*
X39800000Y22230826D01*
X39800000Y22099174D01*
X39834075Y21972007D01*
X39866988Y21915000D01*
X38972769Y21915000D01*
X38983242Y21848874D01*
X38983242Y21848871D01*
X39048904Y21646783D01*
X39145379Y21457443D01*
X39270272Y21285541D01*
X39270276Y21285536D01*
X39420535Y21135277D01*
X39420540Y21135273D01*
X39592442Y21010380D01*
X39781782Y20913905D01*
X39983871Y20848243D01*
X40050000Y20837769D01*
X40050000Y21731988D01*
X40107007Y21699075D01*
X40234174Y21665000D01*
X40365826Y21665000D01*
X40492993Y21699075D01*
X40550000Y21731988D01*
X40550000Y20837770D01*
X40616126Y20848243D01*
X40616129Y20848243D01*
X40818217Y20913905D01*
X41007557Y21010380D01*
X41179459Y21135273D01*
X41179464Y21135277D01*
X41329723Y21285536D01*
X41329727Y21285541D01*
X41454620Y21457443D01*
X41551095Y21646783D01*
X41616757Y21848871D01*
X41616757Y21848874D01*
X41627231Y21915000D01*
X40733012Y21915000D01*
X40765925Y21972007D01*
X40800000Y22099174D01*
X40800000Y22230826D01*
X40775760Y22321289D01*
X45199500Y22321289D01*
X45199500Y22078712D01*
X45231161Y21838215D01*
X45293947Y21603896D01*
X45354610Y21457443D01*
X45386776Y21379788D01*
X45508064Y21169711D01*
X45508066Y21169708D01*
X45508067Y21169707D01*
X45655733Y20977264D01*
X45655739Y20977257D01*
X45827256Y20805740D01*
X45827262Y20805735D01*
X46019711Y20658064D01*
X46229788Y20536776D01*
X46453900Y20443946D01*
X46688211Y20381162D01*
X46868586Y20357416D01*
X46928711Y20349500D01*
X46928712Y20349500D01*
X47171289Y20349500D01*
X47219388Y20355833D01*
X47411789Y20381162D01*
X47646100Y20443946D01*
X47870212Y20536776D01*
X48080289Y20658064D01*
X48272738Y20805735D01*
X48444265Y20977262D01*
X48591936Y21169711D01*
X48713224Y21379788D01*
X48806054Y21603900D01*
X48868838Y21838211D01*
X48900500Y22078712D01*
X48900500Y22321288D01*
X48868838Y22561789D01*
X48806054Y22796100D01*
X48713224Y23020212D01*
X48591936Y23230289D01*
X48444265Y23422738D01*
X48444260Y23422744D01*
X48272743Y23594261D01*
X48272736Y23594267D01*
X48080293Y23741933D01*
X48080292Y23741934D01*
X48080289Y23741936D01*
X47870212Y23863224D01*
X47870205Y23863227D01*
X47646104Y23956053D01*
X47411785Y24018839D01*
X47171289Y24050500D01*
X47171288Y24050500D01*
X46928712Y24050500D01*
X46928711Y24050500D01*
X46688214Y24018839D01*
X46453895Y23956053D01*
X46229794Y23863227D01*
X46229785Y23863223D01*
X46019706Y23741933D01*
X45827263Y23594267D01*
X45827256Y23594261D01*
X45655739Y23422744D01*
X45655733Y23422737D01*
X45508067Y23230294D01*
X45386777Y23020215D01*
X45386773Y23020206D01*
X45293947Y22796105D01*
X45231161Y22561786D01*
X45199500Y22321289D01*
X40775760Y22321289D01*
X40765925Y22357993D01*
X40733012Y22415000D01*
X41627231Y22415000D01*
X41627231Y22415001D01*
X41616757Y22481127D01*
X41616757Y22481130D01*
X41551095Y22683218D01*
X41454620Y22872558D01*
X41329727Y23044460D01*
X41329723Y23044465D01*
X41179464Y23194724D01*
X41179459Y23194728D01*
X41007555Y23319623D01*
X40998500Y23324237D01*
X40947706Y23372212D01*
X40930912Y23440034D01*
X40953451Y23506168D01*
X40998508Y23545207D01*
X41007816Y23549949D01*
X41087007Y23607485D01*
X41179786Y23674891D01*
X41179788Y23674894D01*
X41179792Y23674896D01*
X41330104Y23825208D01*
X41330106Y23825212D01*
X41330109Y23825214D01*
X41455048Y23997180D01*
X41455047Y23997180D01*
X41455051Y23997184D01*
X41551557Y24186588D01*
X41617246Y24388757D01*
X41650500Y24598713D01*
X41650500Y24811287D01*
X41617246Y25021243D01*
X41551557Y25223412D01*
X41455051Y25412816D01*
X41455049Y25412819D01*
X41455048Y25412821D01*
X41370788Y25528797D01*
X41370780Y25528806D01*
X41330104Y25584792D01*
X41312544Y25602352D01*
X50089500Y25602352D01*
X50089500Y25397649D01*
X50121522Y25195466D01*
X50184781Y25000777D01*
X50277715Y24818387D01*
X50398028Y24652787D01*
X50542786Y24508029D01*
X50697749Y24395444D01*
X50708390Y24387713D01*
X50824607Y24328497D01*
X50890776Y24294782D01*
X50890778Y24294782D01*
X50890781Y24294780D01*
X50995137Y24260873D01*
X51085465Y24231523D01*
X51186557Y24215512D01*
X51287648Y24199500D01*
X51287649Y24199500D01*
X51492351Y24199500D01*
X51492352Y24199500D01*
X51694534Y24231523D01*
X51889219Y24294780D01*
X52071610Y24387713D01*
X52164590Y24455268D01*
X52237213Y24508029D01*
X52237215Y24508032D01*
X52237219Y24508034D01*
X52381966Y24652781D01*
X52381968Y24652785D01*
X52381971Y24652787D01*
X52497126Y24811287D01*
X52502287Y24818390D01*
X52595220Y25000781D01*
X52658477Y25195466D01*
X52690500Y25397648D01*
X52690500Y25602352D01*
X57709500Y25602352D01*
X57709500Y25397649D01*
X57741522Y25195466D01*
X57804781Y25000777D01*
X57897715Y24818387D01*
X58018028Y24652787D01*
X58162786Y24508029D01*
X58317749Y24395444D01*
X58328390Y24387713D01*
X58444607Y24328497D01*
X58510776Y24294782D01*
X58510778Y24294782D01*
X58510781Y24294780D01*
X58615137Y24260873D01*
X58705465Y24231523D01*
X58806557Y24215512D01*
X58907648Y24199500D01*
X58907649Y24199500D01*
X59112351Y24199500D01*
X59112352Y24199500D01*
X59314534Y24231523D01*
X59509219Y24294780D01*
X59691610Y24387713D01*
X59784590Y24455268D01*
X59857213Y24508029D01*
X59857215Y24508032D01*
X59857219Y24508034D01*
X60001966Y24652781D01*
X60001968Y24652785D01*
X60001971Y24652787D01*
X60117126Y24811287D01*
X60122287Y24818390D01*
X60215220Y25000781D01*
X60278477Y25195466D01*
X60310500Y25397648D01*
X60310500Y25602352D01*
X60278477Y25804534D01*
X60270416Y25829342D01*
X60215218Y25999224D01*
X60137035Y26152665D01*
X60122287Y26181610D01*
X60114556Y26192251D01*
X60001971Y26347214D01*
X59857213Y26491972D01*
X59691613Y26612285D01*
X59691612Y26612286D01*
X59691610Y26612287D01*
X59634653Y26641309D01*
X59509223Y26705219D01*
X59314534Y26768478D01*
X59139995Y26796122D01*
X59112352Y26800500D01*
X58907648Y26800500D01*
X58883329Y26796649D01*
X58705465Y26768478D01*
X58510776Y26705219D01*
X58328386Y26612285D01*
X58162786Y26491972D01*
X58018028Y26347214D01*
X57897715Y26181614D01*
X57804781Y25999224D01*
X57741522Y25804535D01*
X57709500Y25602352D01*
X52690500Y25602352D01*
X52658477Y25804534D01*
X52650416Y25829342D01*
X52595218Y25999224D01*
X52517035Y26152665D01*
X52502287Y26181610D01*
X52494556Y26192251D01*
X52381971Y26347214D01*
X52237213Y26491972D01*
X52071613Y26612285D01*
X52071612Y26612286D01*
X52071610Y26612287D01*
X52014653Y26641309D01*
X51889223Y26705219D01*
X51694534Y26768478D01*
X51519995Y26796122D01*
X51492352Y26800500D01*
X51287648Y26800500D01*
X51263329Y26796649D01*
X51085465Y26768478D01*
X50890776Y26705219D01*
X50708386Y26612285D01*
X50542786Y26491972D01*
X50398028Y26347214D01*
X50277715Y26181614D01*
X50184781Y25999224D01*
X50121522Y25804535D01*
X50089500Y25602352D01*
X41312544Y25602352D01*
X41214523Y25700373D01*
X41212574Y25702513D01*
X41198494Y25731429D01*
X41183084Y25759650D01*
X41183297Y25762638D01*
X41181986Y25765331D01*
X41185774Y25797269D01*
X41188068Y25829342D01*
X41189863Y25831740D01*
X41190216Y25834715D01*
X41210670Y25859535D01*
X41229940Y25885275D01*
X41233474Y25887205D01*
X41234652Y25888634D01*
X41238139Y25889753D01*
X41260915Y25902190D01*
X41392331Y25951204D01*
X41507546Y26037454D01*
X41593796Y26152669D01*
X41644091Y26287517D01*
X41650500Y26347127D01*
X41650499Y28142872D01*
X41644091Y28202483D01*
X41593796Y28337331D01*
X41593795Y28337332D01*
X41593793Y28337336D01*
X41507547Y28452545D01*
X41507544Y28452548D01*
X41392335Y28538794D01*
X41392328Y28538798D01*
X41257482Y28589092D01*
X41257483Y28589092D01*
X41197883Y28595499D01*
X41197881Y28595500D01*
X41197873Y28595500D01*
X41197864Y28595500D01*
X39402129Y28595500D01*
X39402123Y28595499D01*
X39342516Y28589092D01*
X39207671Y28538798D01*
X39207664Y28538794D01*
X39092455Y28452548D01*
X39092452Y28452545D01*
X39006206Y28337336D01*
X39006202Y28337329D01*
X38955908Y28202483D01*
X38949501Y28142884D01*
X38949501Y28142877D01*
X38949500Y28142865D01*
X37500500Y28142865D01*
X37500500Y39627865D01*
X38949500Y39627865D01*
X38949500Y37832130D01*
X38949501Y37832124D01*
X38955908Y37772517D01*
X39006202Y37637672D01*
X39006206Y37637665D01*
X39092452Y37522456D01*
X39092455Y37522453D01*
X39207664Y37436207D01*
X39207671Y37436203D01*
X39339082Y37387190D01*
X39395016Y37345319D01*
X39419433Y37279855D01*
X39404582Y37211582D01*
X39383431Y37183327D01*
X39269889Y37069785D01*
X39144951Y36897821D01*
X39048444Y36708415D01*
X38982753Y36506240D01*
X38950784Y36304394D01*
X38949500Y36296287D01*
X38949500Y36083713D01*
X38982754Y35873757D01*
X39038202Y35703105D01*
X39048444Y35671586D01*
X39144951Y35482180D01*
X39269890Y35310214D01*
X39420213Y35159891D01*
X39592179Y35034952D01*
X39592181Y35034951D01*
X39592184Y35034949D01*
X39601493Y35030206D01*
X39652290Y34982234D01*
X39669087Y34914413D01*
X39646552Y34848278D01*
X39601502Y34809238D01*
X39592443Y34804622D01*
X39420540Y34679728D01*
X39420535Y34679724D01*
X39270276Y34529465D01*
X39270272Y34529460D01*
X39145379Y34357558D01*
X39048904Y34168218D01*
X38983242Y33966130D01*
X38983242Y33966127D01*
X38972769Y33900000D01*
X39866988Y33900000D01*
X39834075Y33842993D01*
X39800000Y33715826D01*
X39800000Y33584174D01*
X39834075Y33457007D01*
X39866988Y33400000D01*
X38972769Y33400000D01*
X38983242Y33333874D01*
X38983242Y33333871D01*
X39048904Y33131783D01*
X39145379Y32942443D01*
X39270272Y32770541D01*
X39270276Y32770536D01*
X39420535Y32620277D01*
X39420540Y32620273D01*
X39592442Y32495380D01*
X39781782Y32398905D01*
X39983871Y32333243D01*
X40050000Y32322769D01*
X40050000Y33216988D01*
X40107007Y33184075D01*
X40234174Y33150000D01*
X40365826Y33150000D01*
X40492993Y33184075D01*
X40550000Y33216988D01*
X40550000Y32322770D01*
X40616126Y32333243D01*
X40616129Y32333243D01*
X40818217Y32398905D01*
X41007557Y32495380D01*
X41179459Y32620273D01*
X41179464Y32620277D01*
X41329723Y32770536D01*
X41329727Y32770541D01*
X41454620Y32942443D01*
X41551095Y33131783D01*
X41616757Y33333871D01*
X41616757Y33333874D01*
X41627231Y33400000D01*
X40733012Y33400000D01*
X40765925Y33457007D01*
X40800000Y33584174D01*
X40800000Y33715826D01*
X40765925Y33842993D01*
X40733012Y33900000D01*
X41627231Y33900000D01*
X41616757Y33966127D01*
X41616757Y33966130D01*
X41551095Y34168218D01*
X41454620Y34357558D01*
X41329727Y34529460D01*
X41329723Y34529465D01*
X41179464Y34679724D01*
X41179459Y34679728D01*
X41007555Y34804623D01*
X40998500Y34809237D01*
X40947706Y34857212D01*
X40930912Y34925034D01*
X40953451Y34991168D01*
X40998508Y35030207D01*
X41007816Y35034949D01*
X41128025Y35122285D01*
X41179786Y35159891D01*
X41179788Y35159894D01*
X41179792Y35159896D01*
X41330104Y35310208D01*
X41330106Y35310212D01*
X41330109Y35310214D01*
X41455048Y35482180D01*
X41455047Y35482180D01*
X41455051Y35482184D01*
X41551557Y35671588D01*
X41617246Y35873757D01*
X41650500Y36083713D01*
X41650500Y36296287D01*
X41617246Y36506243D01*
X41551557Y36708412D01*
X41455051Y36897816D01*
X41455049Y36897819D01*
X41455048Y36897821D01*
X41330109Y37069787D01*
X41216569Y37183327D01*
X41183084Y37244650D01*
X41188068Y37314342D01*
X41229940Y37370275D01*
X41260915Y37387190D01*
X41392331Y37436204D01*
X41507546Y37522454D01*
X41593796Y37637669D01*
X41644091Y37772517D01*
X41650500Y37832127D01*
X41650499Y39627872D01*
X41644091Y39687483D01*
X41593796Y39822331D01*
X41593795Y39822332D01*
X41593793Y39822336D01*
X41560445Y39866883D01*
X41507547Y39937545D01*
X41507544Y39937548D01*
X41507121Y39937865D01*
X50029500Y39937865D01*
X50029500Y38242130D01*
X50029501Y38242124D01*
X50035908Y38182517D01*
X50086202Y38047672D01*
X50086206Y38047665D01*
X50172452Y37932456D01*
X50172455Y37932453D01*
X50287664Y37846207D01*
X50287671Y37846203D01*
X50325387Y37832136D01*
X50422517Y37795909D01*
X50459441Y37791940D01*
X50523989Y37765204D01*
X50563838Y37707812D01*
X50566333Y37637987D01*
X50530681Y37577898D01*
X50519071Y37568334D01*
X50482784Y37541970D01*
X50338028Y37397214D01*
X50217715Y37231614D01*
X50124781Y37049224D01*
X50061522Y36854535D01*
X50029500Y36652352D01*
X50029500Y36447649D01*
X50061522Y36245466D01*
X50124781Y36050777D01*
X50188691Y35925347D01*
X50214978Y35873757D01*
X50217715Y35868387D01*
X50338028Y35702787D01*
X50482786Y35558029D01*
X50637749Y35445444D01*
X50648390Y35437713D01*
X50739840Y35391117D01*
X50741080Y35390485D01*
X50791876Y35342510D01*
X50808671Y35274689D01*
X50786134Y35208554D01*
X50741080Y35169515D01*
X50648386Y35122285D01*
X50482786Y35001972D01*
X50338028Y34857214D01*
X50217715Y34691614D01*
X50124781Y34509224D01*
X50061522Y34314535D01*
X50029500Y34112352D01*
X50029500Y33907649D01*
X50061522Y33705466D01*
X50124781Y33510777D01*
X50152179Y33457007D01*
X50214920Y33333871D01*
X50217715Y33328387D01*
X50338028Y33162787D01*
X50482786Y33018029D01*
X50637749Y32905444D01*
X50648390Y32897713D01*
X50720424Y32861010D01*
X50741629Y32850205D01*
X50792425Y32802230D01*
X50809220Y32734409D01*
X50786682Y32668274D01*
X50741629Y32629235D01*
X50648650Y32581860D01*
X50483105Y32461583D01*
X50483104Y32461583D01*
X50338417Y32316896D01*
X50338417Y32316895D01*
X50218140Y32151350D01*
X50125244Y31969030D01*
X50062009Y31774414D01*
X50053391Y31720000D01*
X51014314Y31720000D01*
X51009920Y31715606D01*
X50957259Y31624394D01*
X50930000Y31522661D01*
X50930000Y31417339D01*
X50957259Y31315606D01*
X51009920Y31224394D01*
X51014314Y31220000D01*
X50053391Y31220000D01*
X50062009Y31165587D01*
X50125244Y30970971D01*
X50218140Y30788651D01*
X50338417Y30623106D01*
X50338417Y30623105D01*
X50483104Y30478418D01*
X50648650Y30358141D01*
X50830968Y30265246D01*
X51025578Y30202012D01*
X51080000Y30193393D01*
X51080000Y31154314D01*
X51084394Y31149920D01*
X51175606Y31097259D01*
X51277339Y31070000D01*
X51382661Y31070000D01*
X51484394Y31097259D01*
X51575606Y31149920D01*
X51580000Y31154314D01*
X51580000Y30193394D01*
X51634421Y30202012D01*
X51829031Y30265246D01*
X52011349Y30358141D01*
X52176894Y30478418D01*
X52176895Y30478418D01*
X52321582Y30623105D01*
X52321582Y30623106D01*
X52441859Y30788651D01*
X52534755Y30970971D01*
X52597990Y31165587D01*
X52606609Y31220000D01*
X51645686Y31220000D01*
X51650080Y31224394D01*
X51702741Y31315606D01*
X51730000Y31417339D01*
X51730000Y31522661D01*
X51702741Y31624394D01*
X51650080Y31715606D01*
X51645686Y31720000D01*
X52606609Y31720000D01*
X52597990Y31774414D01*
X52534755Y31969030D01*
X52441859Y32151350D01*
X52321582Y32316895D01*
X52321582Y32316896D01*
X52176895Y32461583D01*
X52011349Y32581860D01*
X51918370Y32629235D01*
X51867574Y32677210D01*
X51850779Y32745031D01*
X51873316Y32811165D01*
X51918370Y32850205D01*
X51918920Y32850485D01*
X52011610Y32897713D01*
X52073176Y32942443D01*
X52177213Y33018029D01*
X52177215Y33018032D01*
X52177219Y33018034D01*
X52321966Y33162781D01*
X52321968Y33162785D01*
X52321971Y33162787D01*
X52385262Y33249901D01*
X52442287Y33328390D01*
X52535220Y33510781D01*
X52598477Y33705466D01*
X52630500Y33907648D01*
X52630500Y34112352D01*
X52598477Y34314534D01*
X52535220Y34509219D01*
X52535218Y34509222D01*
X52535218Y34509224D01*
X52501503Y34575393D01*
X52442287Y34691610D01*
X52434556Y34702251D01*
X52321971Y34857214D01*
X52177213Y35001972D01*
X52011614Y35122285D01*
X52005006Y35125652D01*
X51918917Y35169517D01*
X51868123Y35217489D01*
X51851328Y35285310D01*
X51873865Y35351445D01*
X51918917Y35390484D01*
X52011610Y35437713D01*
X52072820Y35482184D01*
X52177213Y35558029D01*
X52177215Y35558032D01*
X52177219Y35558034D01*
X52321966Y35702781D01*
X52321968Y35702785D01*
X52321971Y35702787D01*
X52374732Y35775410D01*
X52442287Y35868390D01*
X52535220Y36050781D01*
X52598477Y36245466D01*
X52630500Y36447648D01*
X52630500Y36652352D01*
X52621620Y36708415D01*
X52598477Y36854535D01*
X52535218Y37049224D01*
X52466888Y37183327D01*
X52442287Y37231610D01*
X52432813Y37244650D01*
X52321971Y37397214D01*
X52177219Y37541966D01*
X52140930Y37568331D01*
X52098264Y37623661D01*
X52092285Y37693274D01*
X52124890Y37755069D01*
X52185728Y37789427D01*
X52200562Y37791940D01*
X52237483Y37795909D01*
X52334562Y37832117D01*
X52372331Y37846204D01*
X52487546Y37932454D01*
X52573796Y38047669D01*
X52624091Y38182517D01*
X52630500Y38242127D01*
X52630499Y39192352D01*
X57649500Y39192352D01*
X57649500Y38987649D01*
X57681522Y38785466D01*
X57744781Y38590777D01*
X57837715Y38408387D01*
X57958028Y38242787D01*
X58102786Y38098029D01*
X58257749Y37985444D01*
X58268390Y37977713D01*
X58340424Y37941010D01*
X58361629Y37930205D01*
X58412425Y37882230D01*
X58429220Y37814409D01*
X58406682Y37748274D01*
X58361629Y37709235D01*
X58268650Y37661860D01*
X58103105Y37541583D01*
X58103104Y37541583D01*
X57958417Y37396896D01*
X57958417Y37396895D01*
X57838140Y37231350D01*
X57745244Y37049030D01*
X57682009Y36854414D01*
X57673391Y36800000D01*
X58634314Y36800000D01*
X58629920Y36795606D01*
X58577259Y36704394D01*
X58550000Y36602661D01*
X58550000Y36497339D01*
X58577259Y36395606D01*
X58629920Y36304394D01*
X58634314Y36300000D01*
X57673391Y36300000D01*
X57682009Y36245587D01*
X57745244Y36050971D01*
X57838140Y35868651D01*
X57958417Y35703106D01*
X57958417Y35703105D01*
X58103104Y35558418D01*
X58268652Y35438139D01*
X58361628Y35390766D01*
X58412425Y35342792D01*
X58429220Y35274971D01*
X58406683Y35208836D01*
X58361630Y35169797D01*
X58268388Y35122287D01*
X58102786Y35001972D01*
X57958028Y34857214D01*
X57837715Y34691614D01*
X57744781Y34509224D01*
X57681522Y34314535D01*
X57649500Y34112352D01*
X57649500Y33907649D01*
X57681522Y33705466D01*
X57744781Y33510777D01*
X57772179Y33457007D01*
X57834920Y33333871D01*
X57837715Y33328387D01*
X57958028Y33162787D01*
X58102786Y33018029D01*
X58257749Y32905444D01*
X58268390Y32897713D01*
X58359840Y32851117D01*
X58361080Y32850485D01*
X58411876Y32802510D01*
X58428671Y32734689D01*
X58406134Y32668554D01*
X58361080Y32629515D01*
X58268386Y32582285D01*
X58102786Y32461972D01*
X57958028Y32317214D01*
X57837715Y32151614D01*
X57744781Y31969224D01*
X57681522Y31774535D01*
X57649500Y31572352D01*
X57649500Y31367649D01*
X57681522Y31165466D01*
X57744781Y30970777D01*
X57837715Y30788387D01*
X57958028Y30622787D01*
X58102786Y30478029D01*
X58257749Y30365444D01*
X58268390Y30357713D01*
X58384607Y30298497D01*
X58450776Y30264782D01*
X58450778Y30264782D01*
X58450781Y30264780D01*
X58555137Y30230873D01*
X58645465Y30201523D01*
X58746557Y30185512D01*
X58847648Y30169500D01*
X58847649Y30169500D01*
X59052351Y30169500D01*
X59052352Y30169500D01*
X59254534Y30201523D01*
X59449219Y30264780D01*
X59631610Y30357713D01*
X59724590Y30425268D01*
X59797213Y30478029D01*
X59797215Y30478032D01*
X59797219Y30478034D01*
X59941966Y30622781D01*
X59941968Y30622785D01*
X59941971Y30622787D01*
X59994732Y30695410D01*
X60062287Y30788390D01*
X60155220Y30970781D01*
X60218477Y31165466D01*
X60250500Y31367648D01*
X60250500Y31572352D01*
X60242257Y31624394D01*
X60218477Y31774535D01*
X60155218Y31969224D01*
X60062419Y32151350D01*
X60062287Y32151610D01*
X60054556Y32162251D01*
X59941971Y32317214D01*
X59797213Y32461972D01*
X59631614Y32582285D01*
X59557058Y32620273D01*
X59538917Y32629517D01*
X59488123Y32677489D01*
X59471328Y32745310D01*
X59493865Y32811445D01*
X59538917Y32850484D01*
X59631610Y32897713D01*
X59693176Y32942443D01*
X59797213Y33018029D01*
X59797215Y33018032D01*
X59797219Y33018034D01*
X59941966Y33162781D01*
X59941968Y33162785D01*
X59941971Y33162787D01*
X60005262Y33249901D01*
X60062287Y33328390D01*
X60155220Y33510781D01*
X60218477Y33705466D01*
X60250500Y33907648D01*
X60250500Y34112352D01*
X60218477Y34314534D01*
X60155220Y34509219D01*
X60155218Y34509222D01*
X60155218Y34509224D01*
X60121503Y34575393D01*
X60062287Y34691610D01*
X60054556Y34702251D01*
X59941971Y34857214D01*
X59797213Y35001972D01*
X59631611Y35122287D01*
X59538369Y35169797D01*
X59487574Y35217771D01*
X59470779Y35285593D01*
X59493317Y35351727D01*
X59538371Y35390766D01*
X59631347Y35438139D01*
X59796894Y35558418D01*
X59796895Y35558418D01*
X59941582Y35703105D01*
X59941582Y35703106D01*
X60061859Y35868651D01*
X60154755Y36050971D01*
X60217990Y36245587D01*
X60226609Y36300000D01*
X59265686Y36300000D01*
X59270080Y36304394D01*
X59322741Y36395606D01*
X59350000Y36497339D01*
X59350000Y36602661D01*
X59322741Y36704394D01*
X59270080Y36795606D01*
X59265686Y36800000D01*
X60226609Y36800000D01*
X60217990Y36854414D01*
X60154755Y37049030D01*
X60061859Y37231350D01*
X59941582Y37396895D01*
X59941582Y37396896D01*
X59796895Y37541583D01*
X59631349Y37661860D01*
X59538370Y37709235D01*
X59487574Y37757210D01*
X59470779Y37825031D01*
X59493316Y37891165D01*
X59538370Y37930205D01*
X59542788Y37932456D01*
X59631610Y37977713D01*
X59652770Y37993087D01*
X59797213Y38098029D01*
X59797215Y38098032D01*
X59797219Y38098034D01*
X59941966Y38242781D01*
X59941968Y38242785D01*
X59941971Y38242787D01*
X59994732Y38315410D01*
X60062287Y38408390D01*
X60155220Y38590781D01*
X60218477Y38785466D01*
X60250500Y38987648D01*
X60250500Y39192352D01*
X60218477Y39394534D01*
X60155220Y39589219D01*
X60155218Y39589222D01*
X60155218Y39589224D01*
X60105151Y39687484D01*
X60062287Y39771610D01*
X60025438Y39822329D01*
X59941971Y39937214D01*
X59797213Y40081972D01*
X59631613Y40202285D01*
X59631612Y40202286D01*
X59631610Y40202287D01*
X59574653Y40231309D01*
X59449223Y40295219D01*
X59254534Y40358478D01*
X59079995Y40386122D01*
X59052352Y40390500D01*
X58847648Y40390500D01*
X58823329Y40386649D01*
X58645465Y40358478D01*
X58450776Y40295219D01*
X58268386Y40202285D01*
X58102786Y40081972D01*
X57958028Y39937214D01*
X57837715Y39771614D01*
X57744781Y39589224D01*
X57681522Y39394535D01*
X57649500Y39192352D01*
X52630499Y39192352D01*
X52630499Y39937872D01*
X52624091Y39997483D01*
X52573796Y40132331D01*
X52573795Y40132332D01*
X52573793Y40132336D01*
X52487547Y40247545D01*
X52487544Y40247548D01*
X52372335Y40333794D01*
X52372328Y40333798D01*
X52237482Y40384092D01*
X52237483Y40384092D01*
X52177883Y40390499D01*
X52177881Y40390500D01*
X52177873Y40390500D01*
X52177864Y40390500D01*
X50482129Y40390500D01*
X50482123Y40390499D01*
X50422516Y40384092D01*
X50287671Y40333798D01*
X50287664Y40333794D01*
X50172455Y40247548D01*
X50172452Y40247545D01*
X50086206Y40132336D01*
X50086202Y40132329D01*
X50035908Y39997483D01*
X50029501Y39937884D01*
X50029501Y39937877D01*
X50029500Y39937865D01*
X41507121Y39937865D01*
X41392335Y40023794D01*
X41392328Y40023798D01*
X41257482Y40074092D01*
X41257483Y40074092D01*
X41197883Y40080499D01*
X41197881Y40080500D01*
X41197873Y40080500D01*
X41197864Y40080500D01*
X39402129Y40080500D01*
X39402123Y40080499D01*
X39342516Y40074092D01*
X39207671Y40023798D01*
X39207664Y40023794D01*
X39092455Y39937548D01*
X39092452Y39937545D01*
X39006206Y39822336D01*
X39006202Y39822329D01*
X38955908Y39687483D01*
X38949501Y39627884D01*
X38949501Y39627877D01*
X38949500Y39627865D01*
X37500500Y39627865D01*
X37500500Y42375500D01*
X37520185Y42442539D01*
X37572989Y42488294D01*
X37624500Y42499500D01*
X61375500Y42499500D01*
X61442539Y42479815D01*
G37*
G04 #@! TD.AperFunction*
G04 #@! TD*
G04 #@! TA.AperFunction,Conductor*
G04 #@! TO.N,Board_1-GND*
G36*
X61442539Y83479815D02*
G01*
X61488294Y83427011D01*
X61499500Y83375500D01*
X61499500Y48624500D01*
X61479815Y48557461D01*
X61427011Y48511706D01*
X61375500Y48500500D01*
X37624500Y48500500D01*
X37557461Y48520185D01*
X37511706Y48572989D01*
X37500500Y48624500D01*
X37500500Y58127865D01*
X38949500Y58127865D01*
X38949500Y56332130D01*
X38949501Y56332124D01*
X38955908Y56272517D01*
X39006202Y56137672D01*
X39006206Y56137665D01*
X39092452Y56022456D01*
X39092455Y56022453D01*
X39207664Y55936207D01*
X39207671Y55936203D01*
X39339082Y55887190D01*
X39395016Y55845319D01*
X39419433Y55779855D01*
X39404582Y55711582D01*
X39383431Y55683327D01*
X39269889Y55569785D01*
X39144951Y55397821D01*
X39048444Y55208415D01*
X38982753Y55006240D01*
X38949500Y54796287D01*
X38949500Y54583714D01*
X38982753Y54373761D01*
X39048444Y54171586D01*
X39144951Y53982180D01*
X39269890Y53810214D01*
X39420213Y53659891D01*
X39592179Y53534952D01*
X39592181Y53534951D01*
X39592184Y53534949D01*
X39601493Y53530206D01*
X39652290Y53482234D01*
X39669087Y53414413D01*
X39646552Y53348278D01*
X39601502Y53309238D01*
X39592443Y53304622D01*
X39420540Y53179728D01*
X39420535Y53179724D01*
X39270276Y53029465D01*
X39270272Y53029460D01*
X39145379Y52857558D01*
X39048904Y52668218D01*
X38983242Y52466130D01*
X38983242Y52466127D01*
X38972769Y52400000D01*
X39866988Y52400000D01*
X39834075Y52342993D01*
X39800000Y52215826D01*
X39800000Y52084174D01*
X39834075Y51957007D01*
X39866988Y51900000D01*
X38972769Y51900000D01*
X38983242Y51833874D01*
X38983242Y51833871D01*
X39048904Y51631783D01*
X39145379Y51442443D01*
X39270272Y51270541D01*
X39270276Y51270536D01*
X39420535Y51120277D01*
X39420540Y51120273D01*
X39592442Y50995380D01*
X39781782Y50898905D01*
X39983871Y50833243D01*
X40050000Y50822769D01*
X40050000Y51716988D01*
X40107007Y51684075D01*
X40234174Y51650000D01*
X40365826Y51650000D01*
X40492993Y51684075D01*
X40550000Y51716988D01*
X40550000Y50822770D01*
X40616126Y50833243D01*
X40616129Y50833243D01*
X40818217Y50898905D01*
X41007557Y50995380D01*
X41179459Y51120273D01*
X41179464Y51120277D01*
X41329723Y51270536D01*
X41329727Y51270541D01*
X41392025Y51356287D01*
X49469500Y51356287D01*
X49469500Y51143713D01*
X49502754Y50933757D01*
X49538816Y50822769D01*
X49568444Y50731586D01*
X49664951Y50542180D01*
X49789890Y50370214D01*
X49940213Y50219891D01*
X50112179Y50094952D01*
X50112181Y50094951D01*
X50112184Y50094949D01*
X50301588Y49998443D01*
X50503757Y49932754D01*
X50713713Y49899500D01*
X50713714Y49899500D01*
X50926286Y49899500D01*
X50926287Y49899500D01*
X51136243Y49932754D01*
X51338412Y49998443D01*
X51527816Y50094949D01*
X51614138Y50157665D01*
X51699786Y50219891D01*
X51699788Y50219894D01*
X51699792Y50219896D01*
X51850104Y50370208D01*
X51850106Y50370212D01*
X51850109Y50370214D01*
X51975048Y50542180D01*
X51975047Y50542180D01*
X51975051Y50542184D01*
X51979514Y50550946D01*
X52027488Y50601741D01*
X52095308Y50618537D01*
X52161444Y50596001D01*
X52200486Y50550944D01*
X52204951Y50542180D01*
X52329890Y50370214D01*
X52480213Y50219891D01*
X52652179Y50094952D01*
X52652181Y50094951D01*
X52652184Y50094949D01*
X52841588Y49998443D01*
X53043757Y49932754D01*
X53253713Y49899500D01*
X53253714Y49899500D01*
X53466286Y49899500D01*
X53466287Y49899500D01*
X53676243Y49932754D01*
X53878412Y49998443D01*
X54067816Y50094949D01*
X54154138Y50157665D01*
X54239786Y50219891D01*
X54239788Y50219894D01*
X54239792Y50219896D01*
X54390104Y50370208D01*
X54390106Y50370212D01*
X54390109Y50370214D01*
X54515048Y50542180D01*
X54515051Y50542184D01*
X54519793Y50551492D01*
X54567763Y50602289D01*
X54635583Y50619089D01*
X54701719Y50596555D01*
X54740763Y50551500D01*
X54745377Y50542445D01*
X54870272Y50370541D01*
X54870276Y50370536D01*
X55020535Y50220277D01*
X55020540Y50220273D01*
X55192442Y50095380D01*
X55381782Y49998905D01*
X55583871Y49933243D01*
X55650000Y49922769D01*
X55650000Y50816988D01*
X55707007Y50784075D01*
X55834174Y50750000D01*
X55965826Y50750000D01*
X56092993Y50784075D01*
X56150000Y50816988D01*
X56150000Y49922770D01*
X56216126Y49933243D01*
X56216129Y49933243D01*
X56418217Y49998905D01*
X56607557Y50095380D01*
X56779458Y50220272D01*
X56893133Y50333947D01*
X56954456Y50367432D01*
X57024148Y50362448D01*
X57080082Y50320577D01*
X57096997Y50289599D01*
X57146202Y50157672D01*
X57146206Y50157665D01*
X57232452Y50042456D01*
X57232455Y50042453D01*
X57347664Y49956207D01*
X57347671Y49956203D01*
X57482517Y49905909D01*
X57482516Y49905909D01*
X57489444Y49905165D01*
X57542127Y49899500D01*
X59337872Y49899501D01*
X59397483Y49905909D01*
X59532331Y49956204D01*
X59647546Y50042454D01*
X59733796Y50157669D01*
X59784091Y50292517D01*
X59790500Y50352127D01*
X59790499Y52147872D01*
X59784091Y52207483D01*
X59783002Y52210402D01*
X59733797Y52342329D01*
X59733793Y52342336D01*
X59647547Y52457545D01*
X59647544Y52457548D01*
X59532335Y52543794D01*
X59532328Y52543798D01*
X59397482Y52594092D01*
X59397483Y52594092D01*
X59337883Y52600499D01*
X59337881Y52600500D01*
X59337873Y52600500D01*
X59337864Y52600500D01*
X57542129Y52600500D01*
X57542123Y52600499D01*
X57482516Y52594092D01*
X57347671Y52543798D01*
X57347664Y52543794D01*
X57232455Y52457548D01*
X57232452Y52457545D01*
X57146206Y52342336D01*
X57146202Y52342329D01*
X57096997Y52210402D01*
X57055126Y52154468D01*
X56989661Y52130051D01*
X56921388Y52144903D01*
X56893134Y52166054D01*
X56779464Y52279724D01*
X56779459Y52279728D01*
X56607557Y52404621D01*
X56418215Y52501097D01*
X56216124Y52566759D01*
X56150000Y52577232D01*
X56150000Y51683012D01*
X56092993Y51715925D01*
X55965826Y51750000D01*
X55834174Y51750000D01*
X55707007Y51715925D01*
X55650000Y51683012D01*
X55650000Y52577232D01*
X55649999Y52577232D01*
X55583875Y52566759D01*
X55381784Y52501097D01*
X55192442Y52404621D01*
X55020540Y52279728D01*
X55020535Y52279724D01*
X54870276Y52129465D01*
X54870272Y52129460D01*
X54745378Y51957557D01*
X54740762Y51948498D01*
X54692784Y51897705D01*
X54624963Y51880913D01*
X54558829Y51903454D01*
X54519794Y51948507D01*
X54515051Y51957816D01*
X54515049Y51957819D01*
X54515048Y51957821D01*
X54390109Y52129787D01*
X54239786Y52280110D01*
X54067820Y52405049D01*
X53878414Y52501556D01*
X53878413Y52501557D01*
X53878412Y52501557D01*
X53676243Y52567246D01*
X53676241Y52567247D01*
X53676240Y52567247D01*
X53514957Y52592792D01*
X53466287Y52600500D01*
X53253713Y52600500D01*
X53205042Y52592792D01*
X53043760Y52567247D01*
X52841585Y52501556D01*
X52652179Y52405049D01*
X52480213Y52280110D01*
X52329890Y52129787D01*
X52204949Y51957818D01*
X52200484Y51949054D01*
X52152509Y51898258D01*
X52084688Y51881464D01*
X52018553Y51904002D01*
X51979516Y51949054D01*
X51975050Y51957818D01*
X51850109Y52129787D01*
X51699786Y52280110D01*
X51527820Y52405049D01*
X51338414Y52501556D01*
X51338413Y52501557D01*
X51338412Y52501557D01*
X51136243Y52567246D01*
X51136241Y52567247D01*
X51136240Y52567247D01*
X50974957Y52592792D01*
X50926287Y52600500D01*
X50713713Y52600500D01*
X50665042Y52592792D01*
X50503760Y52567247D01*
X50301585Y52501556D01*
X50112179Y52405049D01*
X49940213Y52280110D01*
X49789890Y52129787D01*
X49664951Y51957821D01*
X49568444Y51768415D01*
X49502753Y51566240D01*
X49469500Y51356287D01*
X41392025Y51356287D01*
X41448519Y51434044D01*
X41448519Y51434045D01*
X41448520Y51434046D01*
X41454622Y51442445D01*
X41551095Y51631783D01*
X41616757Y51833871D01*
X41616757Y51833874D01*
X41627231Y51900000D01*
X40733012Y51900000D01*
X40765925Y51957007D01*
X40800000Y52084174D01*
X40800000Y52215826D01*
X40765925Y52342993D01*
X40733012Y52400000D01*
X41627231Y52400000D01*
X41616757Y52466127D01*
X41616757Y52466130D01*
X41551095Y52668218D01*
X41454620Y52857558D01*
X41329727Y53029460D01*
X41329723Y53029465D01*
X41179464Y53179724D01*
X41179459Y53179728D01*
X41007555Y53304623D01*
X40998500Y53309237D01*
X40947706Y53357212D01*
X40930912Y53425034D01*
X40953451Y53491168D01*
X40998508Y53530207D01*
X41007816Y53534949D01*
X41087007Y53592485D01*
X41179786Y53659891D01*
X41179788Y53659894D01*
X41179792Y53659896D01*
X41330104Y53810208D01*
X41330106Y53810212D01*
X41330109Y53810214D01*
X41455048Y53982180D01*
X41455047Y53982180D01*
X41455051Y53982184D01*
X41551557Y54171588D01*
X41617246Y54373757D01*
X41650500Y54583713D01*
X41650500Y54796287D01*
X41617246Y55006243D01*
X41551557Y55208412D01*
X41455051Y55397816D01*
X41455049Y55397819D01*
X41455048Y55397821D01*
X41330109Y55569787D01*
X41216569Y55683327D01*
X41201823Y55710331D01*
X41185221Y55736249D01*
X41185227Y55740725D01*
X41183084Y55744650D01*
X41185279Y55775346D01*
X41185325Y55806118D01*
X41187748Y55809878D01*
X41188068Y55814342D01*
X41206513Y55838982D01*
X41215112Y55852318D01*
X54600000Y55852318D01*
X54600000Y55647683D01*
X54632009Y55445583D01*
X54695244Y55250969D01*
X54788141Y55068650D01*
X54788147Y55068641D01*
X54820523Y55024079D01*
X54820524Y55024078D01*
X55500000Y55703554D01*
X55500000Y55697339D01*
X55527259Y55595606D01*
X55579920Y55504394D01*
X55654394Y55429920D01*
X55745606Y55377259D01*
X55847339Y55350000D01*
X55853553Y55350000D01*
X55174076Y54670526D01*
X55218650Y54638141D01*
X55400968Y54545245D01*
X55595582Y54482010D01*
X55797683Y54450000D01*
X56002317Y54450000D01*
X56204417Y54482010D01*
X56399031Y54545245D01*
X56581349Y54638141D01*
X56625921Y54670526D01*
X55946447Y55350000D01*
X55952661Y55350000D01*
X56054394Y55377259D01*
X56145606Y55429920D01*
X56220080Y55504394D01*
X56272741Y55595606D01*
X56300000Y55697339D01*
X56300000Y55703553D01*
X56979474Y55024079D01*
X57011859Y55068651D01*
X57039233Y55122376D01*
X57087207Y55173173D01*
X57155028Y55189969D01*
X57221163Y55167433D01*
X57260203Y55122379D01*
X57287713Y55068389D01*
X57408028Y54902787D01*
X57552786Y54758029D01*
X57673226Y54670526D01*
X57718390Y54637713D01*
X57824369Y54583714D01*
X57900776Y54544782D01*
X57900778Y54544782D01*
X57900781Y54544780D01*
X58005137Y54510873D01*
X58095465Y54481523D01*
X58196557Y54465512D01*
X58297648Y54449500D01*
X58297649Y54449500D01*
X58502351Y54449500D01*
X58502352Y54449500D01*
X58704534Y54481523D01*
X58899219Y54544780D01*
X59081610Y54637713D01*
X59174590Y54705268D01*
X59247213Y54758029D01*
X59247215Y54758032D01*
X59247219Y54758034D01*
X59391966Y54902781D01*
X59391968Y54902785D01*
X59391971Y54902787D01*
X59444732Y54975410D01*
X59512287Y55068390D01*
X59605220Y55250781D01*
X59668477Y55445466D01*
X59700500Y55647648D01*
X59700500Y55852352D01*
X59687219Y55936204D01*
X59668477Y56054535D01*
X59637458Y56150000D01*
X59605220Y56249219D01*
X59605218Y56249222D01*
X59605218Y56249224D01*
X59562975Y56332130D01*
X59512287Y56431610D01*
X59480092Y56475923D01*
X59391971Y56597214D01*
X59247213Y56741972D01*
X59081613Y56862285D01*
X59081612Y56862286D01*
X59081610Y56862287D01*
X59024653Y56891309D01*
X58899223Y56955219D01*
X58704534Y57018478D01*
X58529995Y57046122D01*
X58502352Y57050500D01*
X58297648Y57050500D01*
X58273329Y57046649D01*
X58095465Y57018478D01*
X57900776Y56955219D01*
X57718386Y56862285D01*
X57552786Y56741972D01*
X57408028Y56597214D01*
X57287714Y56431614D01*
X57260203Y56377621D01*
X57212227Y56326826D01*
X57144406Y56310032D01*
X57078272Y56332571D01*
X57039234Y56377624D01*
X57011861Y56431348D01*
X56979474Y56475923D01*
X56979474Y56475924D01*
X56300000Y55796449D01*
X56300000Y55802661D01*
X56272741Y55904394D01*
X56220080Y55995606D01*
X56145606Y56070080D01*
X56054394Y56122741D01*
X55952661Y56150000D01*
X55946446Y56150000D01*
X56625922Y56829476D01*
X56625921Y56829477D01*
X56581359Y56861853D01*
X56581350Y56861859D01*
X56399031Y56954756D01*
X56204417Y57017991D01*
X56002317Y57050000D01*
X55797683Y57050000D01*
X55595582Y57017991D01*
X55400968Y56954756D01*
X55218644Y56861857D01*
X55174077Y56829477D01*
X55174077Y56829476D01*
X55853554Y56150000D01*
X55847339Y56150000D01*
X55745606Y56122741D01*
X55654394Y56070080D01*
X55579920Y55995606D01*
X55527259Y55904394D01*
X55500000Y55802661D01*
X55500000Y55796447D01*
X54820524Y56475923D01*
X54820523Y56475923D01*
X54788143Y56431356D01*
X54695244Y56249032D01*
X54632009Y56054418D01*
X54600000Y55852318D01*
X41215112Y55852318D01*
X41223186Y55864841D01*
X41228011Y55867700D01*
X41229940Y55870275D01*
X41252905Y55883878D01*
X41257334Y55885894D01*
X41257483Y55885909D01*
X41392331Y55936204D01*
X41507546Y56022454D01*
X41593796Y56137669D01*
X41644091Y56272517D01*
X41650500Y56332127D01*
X41650499Y58127872D01*
X41644091Y58187483D01*
X41593796Y58322331D01*
X41593795Y58322332D01*
X41593793Y58322336D01*
X41507547Y58437545D01*
X41507544Y58437548D01*
X41392335Y58523794D01*
X41392328Y58523798D01*
X41257482Y58574092D01*
X41257483Y58574092D01*
X41197883Y58580499D01*
X41197881Y58580500D01*
X41197873Y58580500D01*
X41197864Y58580500D01*
X39402129Y58580500D01*
X39402123Y58580499D01*
X39342516Y58574092D01*
X39207671Y58523798D01*
X39207664Y58523794D01*
X39092455Y58437548D01*
X39092452Y58437545D01*
X39006206Y58322336D01*
X39006202Y58322329D01*
X38955908Y58187483D01*
X38949501Y58127884D01*
X38949501Y58127877D01*
X38949500Y58127865D01*
X37500500Y58127865D01*
X37500500Y60152352D01*
X50199500Y60152352D01*
X50199500Y59947649D01*
X50231522Y59745466D01*
X50294781Y59550777D01*
X50387715Y59368387D01*
X50508028Y59202787D01*
X50652786Y59058029D01*
X50807749Y58945444D01*
X50818390Y58937713D01*
X50934607Y58878497D01*
X51000776Y58844782D01*
X51000778Y58844782D01*
X51000781Y58844780D01*
X51105137Y58810873D01*
X51195465Y58781523D01*
X51296557Y58765512D01*
X51397648Y58749500D01*
X51397649Y58749500D01*
X51602351Y58749500D01*
X51602352Y58749500D01*
X51804534Y58781523D01*
X51999219Y58844780D01*
X52181610Y58937713D01*
X52274590Y59005268D01*
X52347213Y59058029D01*
X52347215Y59058032D01*
X52347219Y59058034D01*
X52491966Y59202781D01*
X52491968Y59202785D01*
X52491971Y59202787D01*
X52544732Y59275410D01*
X52612287Y59368390D01*
X52705220Y59550781D01*
X52768477Y59745466D01*
X52800500Y59947648D01*
X52800500Y60152352D01*
X57819500Y60152352D01*
X57819500Y59947649D01*
X57851522Y59745466D01*
X57914781Y59550777D01*
X58007715Y59368387D01*
X58128028Y59202787D01*
X58272786Y59058029D01*
X58427749Y58945444D01*
X58438390Y58937713D01*
X58554607Y58878497D01*
X58620776Y58844782D01*
X58620778Y58844782D01*
X58620781Y58844780D01*
X58725137Y58810873D01*
X58815465Y58781523D01*
X58916557Y58765512D01*
X59017648Y58749500D01*
X59017649Y58749500D01*
X59222351Y58749500D01*
X59222352Y58749500D01*
X59424534Y58781523D01*
X59619219Y58844780D01*
X59801610Y58937713D01*
X59894590Y59005268D01*
X59967213Y59058029D01*
X59967215Y59058032D01*
X59967219Y59058034D01*
X60111966Y59202781D01*
X60111968Y59202785D01*
X60111971Y59202787D01*
X60164732Y59275410D01*
X60232287Y59368390D01*
X60325220Y59550781D01*
X60388477Y59745466D01*
X60420500Y59947648D01*
X60420500Y60152352D01*
X60388477Y60354534D01*
X60325220Y60549219D01*
X60325218Y60549222D01*
X60325218Y60549224D01*
X60291503Y60615393D01*
X60232287Y60731610D01*
X60224556Y60742251D01*
X60111971Y60897214D01*
X59967213Y61041972D01*
X59801613Y61162285D01*
X59801612Y61162286D01*
X59801610Y61162287D01*
X59737193Y61195109D01*
X59619223Y61255219D01*
X59424534Y61318478D01*
X59249995Y61346122D01*
X59222352Y61350500D01*
X59017648Y61350500D01*
X58993329Y61346649D01*
X58815465Y61318478D01*
X58620776Y61255219D01*
X58438386Y61162285D01*
X58272786Y61041972D01*
X58128028Y60897214D01*
X58007715Y60731614D01*
X57914781Y60549224D01*
X57851522Y60354535D01*
X57819500Y60152352D01*
X52800500Y60152352D01*
X52768477Y60354534D01*
X52705220Y60549219D01*
X52705218Y60549222D01*
X52705218Y60549224D01*
X52671503Y60615393D01*
X52612287Y60731610D01*
X52604556Y60742251D01*
X52491971Y60897214D01*
X52347213Y61041972D01*
X52181613Y61162285D01*
X52181612Y61162286D01*
X52181610Y61162287D01*
X52117193Y61195109D01*
X51999223Y61255219D01*
X51804534Y61318478D01*
X51629995Y61346122D01*
X51602352Y61350500D01*
X51397648Y61350500D01*
X51373329Y61346649D01*
X51195465Y61318478D01*
X51000776Y61255219D01*
X50818386Y61162285D01*
X50652786Y61041972D01*
X50508028Y60897214D01*
X50387715Y60731614D01*
X50294781Y60549224D01*
X50231522Y60354535D01*
X50199500Y60152352D01*
X37500500Y60152352D01*
X37500500Y69142865D01*
X38949500Y69142865D01*
X38949500Y67347130D01*
X38949501Y67347124D01*
X38955908Y67287517D01*
X39006202Y67152672D01*
X39006206Y67152665D01*
X39092452Y67037456D01*
X39092455Y67037453D01*
X39207664Y66951207D01*
X39207671Y66951203D01*
X39339082Y66902190D01*
X39395016Y66860319D01*
X39419433Y66794855D01*
X39404582Y66726582D01*
X39383431Y66698327D01*
X39269889Y66584785D01*
X39144951Y66412821D01*
X39048444Y66223415D01*
X38982753Y66021240D01*
X38979513Y66000781D01*
X38949500Y65811287D01*
X38949500Y65598713D01*
X38982754Y65388757D01*
X39013288Y65294782D01*
X39048444Y65186586D01*
X39144951Y64997180D01*
X39269890Y64825214D01*
X39420213Y64674891D01*
X39592179Y64549952D01*
X39592181Y64549951D01*
X39592184Y64549949D01*
X39601493Y64545206D01*
X39652290Y64497234D01*
X39669087Y64429413D01*
X39646552Y64363278D01*
X39601502Y64324238D01*
X39592443Y64319622D01*
X39420540Y64194728D01*
X39420535Y64194724D01*
X39270276Y64044465D01*
X39270272Y64044460D01*
X39145379Y63872558D01*
X39048904Y63683218D01*
X38983242Y63481130D01*
X38983242Y63481127D01*
X38972769Y63415000D01*
X39866988Y63415000D01*
X39834075Y63357993D01*
X39800000Y63230826D01*
X39800000Y63099174D01*
X39834075Y62972007D01*
X39866988Y62915000D01*
X38972769Y62915000D01*
X38983242Y62848874D01*
X38983242Y62848871D01*
X39048904Y62646783D01*
X39145379Y62457443D01*
X39270272Y62285541D01*
X39270276Y62285536D01*
X39420535Y62135277D01*
X39420540Y62135273D01*
X39592442Y62010380D01*
X39781782Y61913905D01*
X39983871Y61848243D01*
X40050000Y61837769D01*
X40050000Y62731988D01*
X40107007Y62699075D01*
X40234174Y62665000D01*
X40365826Y62665000D01*
X40492993Y62699075D01*
X40550000Y62731988D01*
X40550000Y61837770D01*
X40616126Y61848243D01*
X40616129Y61848243D01*
X40818217Y61913905D01*
X41007557Y62010380D01*
X41179459Y62135273D01*
X41179464Y62135277D01*
X41329723Y62285536D01*
X41329727Y62285541D01*
X41454620Y62457443D01*
X41551095Y62646783D01*
X41616757Y62848871D01*
X41616757Y62848874D01*
X41627231Y62915000D01*
X40733012Y62915000D01*
X40765925Y62972007D01*
X40800000Y63099174D01*
X40800000Y63230826D01*
X40775760Y63321289D01*
X45199500Y63321289D01*
X45199500Y63078712D01*
X45231161Y62838215D01*
X45293947Y62603896D01*
X45354610Y62457443D01*
X45386776Y62379788D01*
X45508064Y62169711D01*
X45508066Y62169708D01*
X45508067Y62169707D01*
X45655733Y61977264D01*
X45655739Y61977257D01*
X45827256Y61805740D01*
X45827262Y61805735D01*
X46019711Y61658064D01*
X46229788Y61536776D01*
X46453900Y61443946D01*
X46688211Y61381162D01*
X46868586Y61357416D01*
X46928711Y61349500D01*
X46928712Y61349500D01*
X47171289Y61349500D01*
X47219388Y61355833D01*
X47411789Y61381162D01*
X47646100Y61443946D01*
X47870212Y61536776D01*
X48080289Y61658064D01*
X48272738Y61805735D01*
X48444265Y61977262D01*
X48591936Y62169711D01*
X48713224Y62379788D01*
X48806054Y62603900D01*
X48868838Y62838211D01*
X48900500Y63078712D01*
X48900500Y63321288D01*
X48868838Y63561789D01*
X48806054Y63796100D01*
X48713224Y64020212D01*
X48591936Y64230289D01*
X48444265Y64422738D01*
X48444260Y64422744D01*
X48272743Y64594261D01*
X48272736Y64594267D01*
X48080293Y64741933D01*
X48080292Y64741934D01*
X48080289Y64741936D01*
X47870212Y64863224D01*
X47870205Y64863227D01*
X47646104Y64956053D01*
X47411785Y65018839D01*
X47171289Y65050500D01*
X47171288Y65050500D01*
X46928712Y65050500D01*
X46928711Y65050500D01*
X46688214Y65018839D01*
X46453895Y64956053D01*
X46229794Y64863227D01*
X46229785Y64863223D01*
X46019706Y64741933D01*
X45827263Y64594267D01*
X45827256Y64594261D01*
X45655739Y64422744D01*
X45655733Y64422737D01*
X45508067Y64230294D01*
X45386777Y64020215D01*
X45386773Y64020206D01*
X45293947Y63796105D01*
X45231161Y63561786D01*
X45199500Y63321289D01*
X40775760Y63321289D01*
X40765925Y63357993D01*
X40733012Y63415000D01*
X41627231Y63415000D01*
X41627231Y63415001D01*
X41616757Y63481127D01*
X41616757Y63481130D01*
X41551095Y63683218D01*
X41454620Y63872558D01*
X41329727Y64044460D01*
X41329723Y64044465D01*
X41179464Y64194724D01*
X41179459Y64194728D01*
X41007555Y64319623D01*
X40998500Y64324237D01*
X40947706Y64372212D01*
X40930912Y64440034D01*
X40953451Y64506168D01*
X40998508Y64545207D01*
X41007816Y64549949D01*
X41087007Y64607485D01*
X41179786Y64674891D01*
X41179788Y64674894D01*
X41179792Y64674896D01*
X41330104Y64825208D01*
X41330106Y64825212D01*
X41330109Y64825214D01*
X41455048Y64997180D01*
X41455047Y64997180D01*
X41455051Y64997184D01*
X41551557Y65186588D01*
X41617246Y65388757D01*
X41650500Y65598713D01*
X41650500Y65811287D01*
X41617246Y66021243D01*
X41551557Y66223412D01*
X41455051Y66412816D01*
X41455049Y66412819D01*
X41455048Y66412821D01*
X41370788Y66528797D01*
X41370780Y66528806D01*
X41330104Y66584792D01*
X41312544Y66602352D01*
X50089500Y66602352D01*
X50089500Y66397649D01*
X50121522Y66195466D01*
X50184781Y66000777D01*
X50277715Y65818387D01*
X50398028Y65652787D01*
X50542786Y65508029D01*
X50697749Y65395444D01*
X50708390Y65387713D01*
X50824607Y65328497D01*
X50890776Y65294782D01*
X50890778Y65294782D01*
X50890781Y65294780D01*
X50995137Y65260873D01*
X51085465Y65231523D01*
X51186557Y65215512D01*
X51287648Y65199500D01*
X51287649Y65199500D01*
X51492351Y65199500D01*
X51492352Y65199500D01*
X51694534Y65231523D01*
X51889219Y65294780D01*
X52071610Y65387713D01*
X52164590Y65455268D01*
X52237213Y65508029D01*
X52237215Y65508032D01*
X52237219Y65508034D01*
X52381966Y65652781D01*
X52381968Y65652785D01*
X52381971Y65652787D01*
X52497126Y65811287D01*
X52502287Y65818390D01*
X52595220Y66000781D01*
X52658477Y66195466D01*
X52690500Y66397648D01*
X52690500Y66602352D01*
X57709500Y66602352D01*
X57709500Y66397649D01*
X57741522Y66195466D01*
X57804781Y66000777D01*
X57897715Y65818387D01*
X58018028Y65652787D01*
X58162786Y65508029D01*
X58317749Y65395444D01*
X58328390Y65387713D01*
X58444607Y65328497D01*
X58510776Y65294782D01*
X58510778Y65294782D01*
X58510781Y65294780D01*
X58615137Y65260873D01*
X58705465Y65231523D01*
X58806557Y65215512D01*
X58907648Y65199500D01*
X58907649Y65199500D01*
X59112351Y65199500D01*
X59112352Y65199500D01*
X59314534Y65231523D01*
X59509219Y65294780D01*
X59691610Y65387713D01*
X59784590Y65455268D01*
X59857213Y65508029D01*
X59857215Y65508032D01*
X59857219Y65508034D01*
X60001966Y65652781D01*
X60001968Y65652785D01*
X60001971Y65652787D01*
X60117126Y65811287D01*
X60122287Y65818390D01*
X60215220Y66000781D01*
X60278477Y66195466D01*
X60310500Y66397648D01*
X60310500Y66602352D01*
X60278477Y66804534D01*
X60270416Y66829342D01*
X60215218Y66999224D01*
X60137035Y67152665D01*
X60122287Y67181610D01*
X60114556Y67192251D01*
X60001971Y67347214D01*
X59857213Y67491972D01*
X59691613Y67612285D01*
X59691612Y67612286D01*
X59691610Y67612287D01*
X59634653Y67641309D01*
X59509223Y67705219D01*
X59314534Y67768478D01*
X59139995Y67796122D01*
X59112352Y67800500D01*
X58907648Y67800500D01*
X58883329Y67796649D01*
X58705465Y67768478D01*
X58510776Y67705219D01*
X58328386Y67612285D01*
X58162786Y67491972D01*
X58018028Y67347214D01*
X57897715Y67181614D01*
X57804781Y66999224D01*
X57741522Y66804535D01*
X57709500Y66602352D01*
X52690500Y66602352D01*
X52658477Y66804534D01*
X52650416Y66829342D01*
X52595218Y66999224D01*
X52517035Y67152665D01*
X52502287Y67181610D01*
X52494556Y67192251D01*
X52381971Y67347214D01*
X52237213Y67491972D01*
X52071613Y67612285D01*
X52071612Y67612286D01*
X52071610Y67612287D01*
X52014653Y67641309D01*
X51889223Y67705219D01*
X51694534Y67768478D01*
X51519995Y67796122D01*
X51492352Y67800500D01*
X51287648Y67800500D01*
X51263329Y67796649D01*
X51085465Y67768478D01*
X50890776Y67705219D01*
X50708386Y67612285D01*
X50542786Y67491972D01*
X50398028Y67347214D01*
X50277715Y67181614D01*
X50184781Y66999224D01*
X50121522Y66804535D01*
X50089500Y66602352D01*
X41312544Y66602352D01*
X41214523Y66700373D01*
X41212574Y66702513D01*
X41198494Y66731429D01*
X41183084Y66759650D01*
X41183297Y66762638D01*
X41181986Y66765331D01*
X41185774Y66797269D01*
X41188068Y66829342D01*
X41189863Y66831740D01*
X41190216Y66834715D01*
X41210670Y66859535D01*
X41229940Y66885275D01*
X41233474Y66887205D01*
X41234652Y66888634D01*
X41238139Y66889753D01*
X41260915Y66902190D01*
X41392331Y66951204D01*
X41507546Y67037454D01*
X41593796Y67152669D01*
X41644091Y67287517D01*
X41650500Y67347127D01*
X41650499Y69142872D01*
X41644091Y69202483D01*
X41593796Y69337331D01*
X41593795Y69337332D01*
X41593793Y69337336D01*
X41507547Y69452545D01*
X41507544Y69452548D01*
X41392335Y69538794D01*
X41392328Y69538798D01*
X41257482Y69589092D01*
X41257483Y69589092D01*
X41197883Y69595499D01*
X41197881Y69595500D01*
X41197873Y69595500D01*
X41197864Y69595500D01*
X39402129Y69595500D01*
X39402123Y69595499D01*
X39342516Y69589092D01*
X39207671Y69538798D01*
X39207664Y69538794D01*
X39092455Y69452548D01*
X39092452Y69452545D01*
X39006206Y69337336D01*
X39006202Y69337329D01*
X38955908Y69202483D01*
X38949501Y69142884D01*
X38949501Y69142877D01*
X38949500Y69142865D01*
X37500500Y69142865D01*
X37500500Y80627865D01*
X38949500Y80627865D01*
X38949500Y78832130D01*
X38949501Y78832124D01*
X38955908Y78772517D01*
X39006202Y78637672D01*
X39006206Y78637665D01*
X39092452Y78522456D01*
X39092455Y78522453D01*
X39207664Y78436207D01*
X39207671Y78436203D01*
X39339082Y78387190D01*
X39395016Y78345319D01*
X39419433Y78279855D01*
X39404582Y78211582D01*
X39383431Y78183327D01*
X39269889Y78069785D01*
X39144951Y77897821D01*
X39048444Y77708415D01*
X38982753Y77506240D01*
X38950784Y77304394D01*
X38949500Y77296287D01*
X38949500Y77083713D01*
X38982754Y76873757D01*
X39038202Y76703105D01*
X39048444Y76671586D01*
X39144951Y76482180D01*
X39269890Y76310214D01*
X39420213Y76159891D01*
X39592179Y76034952D01*
X39592181Y76034951D01*
X39592184Y76034949D01*
X39601493Y76030206D01*
X39652290Y75982234D01*
X39669087Y75914413D01*
X39646552Y75848278D01*
X39601502Y75809238D01*
X39592443Y75804622D01*
X39420540Y75679728D01*
X39420535Y75679724D01*
X39270276Y75529465D01*
X39270272Y75529460D01*
X39145379Y75357558D01*
X39048904Y75168218D01*
X38983242Y74966130D01*
X38983242Y74966127D01*
X38972769Y74900000D01*
X39866988Y74900000D01*
X39834075Y74842993D01*
X39800000Y74715826D01*
X39800000Y74584174D01*
X39834075Y74457007D01*
X39866988Y74400000D01*
X38972769Y74400000D01*
X38983242Y74333874D01*
X38983242Y74333871D01*
X39048904Y74131783D01*
X39145379Y73942443D01*
X39270272Y73770541D01*
X39270276Y73770536D01*
X39420535Y73620277D01*
X39420540Y73620273D01*
X39592442Y73495380D01*
X39781782Y73398905D01*
X39983871Y73333243D01*
X40050000Y73322769D01*
X40050000Y74216988D01*
X40107007Y74184075D01*
X40234174Y74150000D01*
X40365826Y74150000D01*
X40492993Y74184075D01*
X40550000Y74216988D01*
X40550000Y73322770D01*
X40616126Y73333243D01*
X40616129Y73333243D01*
X40818217Y73398905D01*
X41007557Y73495380D01*
X41179459Y73620273D01*
X41179464Y73620277D01*
X41329723Y73770536D01*
X41329727Y73770541D01*
X41454620Y73942443D01*
X41551095Y74131783D01*
X41616757Y74333871D01*
X41616757Y74333874D01*
X41627231Y74400000D01*
X40733012Y74400000D01*
X40765925Y74457007D01*
X40800000Y74584174D01*
X40800000Y74715826D01*
X40765925Y74842993D01*
X40733012Y74900000D01*
X41627231Y74900000D01*
X41616757Y74966127D01*
X41616757Y74966130D01*
X41551095Y75168218D01*
X41454620Y75357558D01*
X41329727Y75529460D01*
X41329723Y75529465D01*
X41179464Y75679724D01*
X41179459Y75679728D01*
X41007555Y75804623D01*
X40998500Y75809237D01*
X40947706Y75857212D01*
X40930912Y75925034D01*
X40953451Y75991168D01*
X40998508Y76030207D01*
X41007816Y76034949D01*
X41128025Y76122285D01*
X41179786Y76159891D01*
X41179788Y76159894D01*
X41179792Y76159896D01*
X41330104Y76310208D01*
X41330106Y76310212D01*
X41330109Y76310214D01*
X41455048Y76482180D01*
X41455047Y76482180D01*
X41455051Y76482184D01*
X41551557Y76671588D01*
X41617246Y76873757D01*
X41650500Y77083713D01*
X41650500Y77296287D01*
X41617246Y77506243D01*
X41551557Y77708412D01*
X41455051Y77897816D01*
X41455049Y77897819D01*
X41455048Y77897821D01*
X41330109Y78069787D01*
X41216569Y78183327D01*
X41183084Y78244650D01*
X41188068Y78314342D01*
X41229940Y78370275D01*
X41260915Y78387190D01*
X41392331Y78436204D01*
X41507546Y78522454D01*
X41593796Y78637669D01*
X41644091Y78772517D01*
X41650500Y78832127D01*
X41650499Y80627872D01*
X41644091Y80687483D01*
X41593796Y80822331D01*
X41593795Y80822332D01*
X41593793Y80822336D01*
X41560445Y80866883D01*
X41507547Y80937545D01*
X41507544Y80937548D01*
X41507121Y80937865D01*
X50029500Y80937865D01*
X50029500Y79242130D01*
X50029501Y79242124D01*
X50035908Y79182517D01*
X50086202Y79047672D01*
X50086206Y79047665D01*
X50172452Y78932456D01*
X50172455Y78932453D01*
X50287664Y78846207D01*
X50287671Y78846203D01*
X50325387Y78832136D01*
X50422517Y78795909D01*
X50459441Y78791940D01*
X50523989Y78765204D01*
X50563838Y78707812D01*
X50566333Y78637987D01*
X50530681Y78577898D01*
X50519071Y78568334D01*
X50482784Y78541970D01*
X50338028Y78397214D01*
X50217715Y78231614D01*
X50124781Y78049224D01*
X50061522Y77854535D01*
X50029500Y77652352D01*
X50029500Y77447649D01*
X50061522Y77245466D01*
X50124781Y77050777D01*
X50188691Y76925347D01*
X50214978Y76873757D01*
X50217715Y76868387D01*
X50338028Y76702787D01*
X50482786Y76558029D01*
X50637749Y76445444D01*
X50648390Y76437713D01*
X50739840Y76391117D01*
X50741080Y76390485D01*
X50791876Y76342510D01*
X50808671Y76274689D01*
X50786134Y76208554D01*
X50741080Y76169515D01*
X50648386Y76122285D01*
X50482786Y76001972D01*
X50338028Y75857214D01*
X50217715Y75691614D01*
X50124781Y75509224D01*
X50061522Y75314535D01*
X50029500Y75112352D01*
X50029500Y74907649D01*
X50061522Y74705466D01*
X50124781Y74510777D01*
X50152179Y74457007D01*
X50214920Y74333871D01*
X50217715Y74328387D01*
X50338028Y74162787D01*
X50482786Y74018029D01*
X50637749Y73905444D01*
X50648390Y73897713D01*
X50720424Y73861010D01*
X50741629Y73850205D01*
X50792425Y73802230D01*
X50809220Y73734409D01*
X50786682Y73668274D01*
X50741629Y73629235D01*
X50648650Y73581860D01*
X50483105Y73461583D01*
X50483104Y73461583D01*
X50338417Y73316896D01*
X50338417Y73316895D01*
X50218140Y73151350D01*
X50125244Y72969030D01*
X50062009Y72774414D01*
X50053391Y72720000D01*
X51014314Y72720000D01*
X51009920Y72715606D01*
X50957259Y72624394D01*
X50930000Y72522661D01*
X50930000Y72417339D01*
X50957259Y72315606D01*
X51009920Y72224394D01*
X51014314Y72220000D01*
X50053391Y72220000D01*
X50062009Y72165587D01*
X50125244Y71970971D01*
X50218140Y71788651D01*
X50338417Y71623106D01*
X50338417Y71623105D01*
X50483104Y71478418D01*
X50648650Y71358141D01*
X50830968Y71265246D01*
X51025578Y71202012D01*
X51080000Y71193393D01*
X51080000Y72154314D01*
X51084394Y72149920D01*
X51175606Y72097259D01*
X51277339Y72070000D01*
X51382661Y72070000D01*
X51484394Y72097259D01*
X51575606Y72149920D01*
X51580000Y72154314D01*
X51580000Y71193394D01*
X51634421Y71202012D01*
X51829031Y71265246D01*
X52011349Y71358141D01*
X52176894Y71478418D01*
X52176895Y71478418D01*
X52321582Y71623105D01*
X52321582Y71623106D01*
X52441859Y71788651D01*
X52534755Y71970971D01*
X52597990Y72165587D01*
X52606609Y72220000D01*
X51645686Y72220000D01*
X51650080Y72224394D01*
X51702741Y72315606D01*
X51730000Y72417339D01*
X51730000Y72522661D01*
X51702741Y72624394D01*
X51650080Y72715606D01*
X51645686Y72720000D01*
X52606609Y72720000D01*
X52597990Y72774414D01*
X52534755Y72969030D01*
X52441859Y73151350D01*
X52321582Y73316895D01*
X52321582Y73316896D01*
X52176895Y73461583D01*
X52011349Y73581860D01*
X51918370Y73629235D01*
X51867574Y73677210D01*
X51850779Y73745031D01*
X51873316Y73811165D01*
X51918370Y73850205D01*
X51918920Y73850485D01*
X52011610Y73897713D01*
X52073176Y73942443D01*
X52177213Y74018029D01*
X52177215Y74018032D01*
X52177219Y74018034D01*
X52321966Y74162781D01*
X52321968Y74162785D01*
X52321971Y74162787D01*
X52385262Y74249901D01*
X52442287Y74328390D01*
X52535220Y74510781D01*
X52598477Y74705466D01*
X52630500Y74907648D01*
X52630500Y75112352D01*
X52598477Y75314534D01*
X52535220Y75509219D01*
X52535218Y75509222D01*
X52535218Y75509224D01*
X52501503Y75575393D01*
X52442287Y75691610D01*
X52434556Y75702251D01*
X52321971Y75857214D01*
X52177213Y76001972D01*
X52011614Y76122285D01*
X52005006Y76125652D01*
X51918917Y76169517D01*
X51868123Y76217489D01*
X51851328Y76285310D01*
X51873865Y76351445D01*
X51918917Y76390484D01*
X52011610Y76437713D01*
X52072820Y76482184D01*
X52177213Y76558029D01*
X52177215Y76558032D01*
X52177219Y76558034D01*
X52321966Y76702781D01*
X52321968Y76702785D01*
X52321971Y76702787D01*
X52374732Y76775410D01*
X52442287Y76868390D01*
X52535220Y77050781D01*
X52598477Y77245466D01*
X52630500Y77447648D01*
X52630500Y77652352D01*
X52621620Y77708415D01*
X52598477Y77854535D01*
X52535218Y78049224D01*
X52466888Y78183327D01*
X52442287Y78231610D01*
X52432813Y78244650D01*
X52321971Y78397214D01*
X52177219Y78541966D01*
X52140930Y78568331D01*
X52098264Y78623661D01*
X52092285Y78693274D01*
X52124890Y78755069D01*
X52185728Y78789427D01*
X52200562Y78791940D01*
X52237483Y78795909D01*
X52334562Y78832117D01*
X52372331Y78846204D01*
X52487546Y78932454D01*
X52573796Y79047669D01*
X52624091Y79182517D01*
X52630500Y79242127D01*
X52630499Y80192352D01*
X57649500Y80192352D01*
X57649500Y79987649D01*
X57681522Y79785466D01*
X57744781Y79590777D01*
X57837715Y79408387D01*
X57958028Y79242787D01*
X58102786Y79098029D01*
X58257749Y78985444D01*
X58268390Y78977713D01*
X58340424Y78941010D01*
X58361629Y78930205D01*
X58412425Y78882230D01*
X58429220Y78814409D01*
X58406682Y78748274D01*
X58361629Y78709235D01*
X58268650Y78661860D01*
X58103105Y78541583D01*
X58103104Y78541583D01*
X57958417Y78396896D01*
X57958417Y78396895D01*
X57838140Y78231350D01*
X57745244Y78049030D01*
X57682009Y77854414D01*
X57673391Y77800000D01*
X58634314Y77800000D01*
X58629920Y77795606D01*
X58577259Y77704394D01*
X58550000Y77602661D01*
X58550000Y77497339D01*
X58577259Y77395606D01*
X58629920Y77304394D01*
X58634314Y77300000D01*
X57673391Y77300000D01*
X57682009Y77245587D01*
X57745244Y77050971D01*
X57838140Y76868651D01*
X57958417Y76703106D01*
X57958417Y76703105D01*
X58103104Y76558418D01*
X58268652Y76438139D01*
X58361628Y76390766D01*
X58412425Y76342792D01*
X58429220Y76274971D01*
X58406683Y76208836D01*
X58361630Y76169797D01*
X58268388Y76122287D01*
X58102786Y76001972D01*
X57958028Y75857214D01*
X57837715Y75691614D01*
X57744781Y75509224D01*
X57681522Y75314535D01*
X57649500Y75112352D01*
X57649500Y74907649D01*
X57681522Y74705466D01*
X57744781Y74510777D01*
X57772179Y74457007D01*
X57834920Y74333871D01*
X57837715Y74328387D01*
X57958028Y74162787D01*
X58102786Y74018029D01*
X58257749Y73905444D01*
X58268390Y73897713D01*
X58359840Y73851117D01*
X58361080Y73850485D01*
X58411876Y73802510D01*
X58428671Y73734689D01*
X58406134Y73668554D01*
X58361080Y73629515D01*
X58268386Y73582285D01*
X58102786Y73461972D01*
X57958028Y73317214D01*
X57837715Y73151614D01*
X57744781Y72969224D01*
X57681522Y72774535D01*
X57649500Y72572352D01*
X57649500Y72367649D01*
X57681522Y72165466D01*
X57744781Y71970777D01*
X57837715Y71788387D01*
X57958028Y71622787D01*
X58102786Y71478029D01*
X58257749Y71365444D01*
X58268390Y71357713D01*
X58384607Y71298497D01*
X58450776Y71264782D01*
X58450778Y71264782D01*
X58450781Y71264780D01*
X58555137Y71230873D01*
X58645465Y71201523D01*
X58746557Y71185512D01*
X58847648Y71169500D01*
X58847649Y71169500D01*
X59052351Y71169500D01*
X59052352Y71169500D01*
X59254534Y71201523D01*
X59449219Y71264780D01*
X59631610Y71357713D01*
X59724590Y71425268D01*
X59797213Y71478029D01*
X59797215Y71478032D01*
X59797219Y71478034D01*
X59941966Y71622781D01*
X59941968Y71622785D01*
X59941971Y71622787D01*
X59994732Y71695410D01*
X60062287Y71788390D01*
X60155220Y71970781D01*
X60218477Y72165466D01*
X60250500Y72367648D01*
X60250500Y72572352D01*
X60242257Y72624394D01*
X60218477Y72774535D01*
X60155218Y72969224D01*
X60062419Y73151350D01*
X60062287Y73151610D01*
X60054556Y73162251D01*
X59941971Y73317214D01*
X59797213Y73461972D01*
X59631614Y73582285D01*
X59557058Y73620273D01*
X59538917Y73629517D01*
X59488123Y73677489D01*
X59471328Y73745310D01*
X59493865Y73811445D01*
X59538917Y73850484D01*
X59631610Y73897713D01*
X59693176Y73942443D01*
X59797213Y74018029D01*
X59797215Y74018032D01*
X59797219Y74018034D01*
X59941966Y74162781D01*
X59941968Y74162785D01*
X59941971Y74162787D01*
X60005262Y74249901D01*
X60062287Y74328390D01*
X60155220Y74510781D01*
X60218477Y74705466D01*
X60250500Y74907648D01*
X60250500Y75112352D01*
X60218477Y75314534D01*
X60155220Y75509219D01*
X60155218Y75509222D01*
X60155218Y75509224D01*
X60121503Y75575393D01*
X60062287Y75691610D01*
X60054556Y75702251D01*
X59941971Y75857214D01*
X59797213Y76001972D01*
X59631611Y76122287D01*
X59538369Y76169797D01*
X59487574Y76217771D01*
X59470779Y76285593D01*
X59493317Y76351727D01*
X59538371Y76390766D01*
X59631347Y76438139D01*
X59796894Y76558418D01*
X59796895Y76558418D01*
X59941582Y76703105D01*
X59941582Y76703106D01*
X60061859Y76868651D01*
X60154755Y77050971D01*
X60217990Y77245587D01*
X60226609Y77300000D01*
X59265686Y77300000D01*
X59270080Y77304394D01*
X59322741Y77395606D01*
X59350000Y77497339D01*
X59350000Y77602661D01*
X59322741Y77704394D01*
X59270080Y77795606D01*
X59265686Y77800000D01*
X60226609Y77800000D01*
X60217990Y77854414D01*
X60154755Y78049030D01*
X60061859Y78231350D01*
X59941582Y78396895D01*
X59941582Y78396896D01*
X59796895Y78541583D01*
X59631349Y78661860D01*
X59538370Y78709235D01*
X59487574Y78757210D01*
X59470779Y78825031D01*
X59493316Y78891165D01*
X59538370Y78930205D01*
X59542788Y78932456D01*
X59631610Y78977713D01*
X59652770Y78993087D01*
X59797213Y79098029D01*
X59797215Y79098032D01*
X59797219Y79098034D01*
X59941966Y79242781D01*
X59941968Y79242785D01*
X59941971Y79242787D01*
X59994732Y79315410D01*
X60062287Y79408390D01*
X60155220Y79590781D01*
X60218477Y79785466D01*
X60250500Y79987648D01*
X60250500Y80192352D01*
X60218477Y80394534D01*
X60155220Y80589219D01*
X60155218Y80589222D01*
X60155218Y80589224D01*
X60105151Y80687484D01*
X60062287Y80771610D01*
X60025438Y80822329D01*
X59941971Y80937214D01*
X59797213Y81081972D01*
X59631613Y81202285D01*
X59631612Y81202286D01*
X59631610Y81202287D01*
X59574653Y81231309D01*
X59449223Y81295219D01*
X59254534Y81358478D01*
X59079995Y81386122D01*
X59052352Y81390500D01*
X58847648Y81390500D01*
X58823329Y81386649D01*
X58645465Y81358478D01*
X58450776Y81295219D01*
X58268386Y81202285D01*
X58102786Y81081972D01*
X57958028Y80937214D01*
X57837715Y80771614D01*
X57744781Y80589224D01*
X57681522Y80394535D01*
X57649500Y80192352D01*
X52630499Y80192352D01*
X52630499Y80937872D01*
X52624091Y80997483D01*
X52573796Y81132331D01*
X52573795Y81132332D01*
X52573793Y81132336D01*
X52487547Y81247545D01*
X52487544Y81247548D01*
X52372335Y81333794D01*
X52372328Y81333798D01*
X52237482Y81384092D01*
X52237483Y81384092D01*
X52177883Y81390499D01*
X52177881Y81390500D01*
X52177873Y81390500D01*
X52177864Y81390500D01*
X50482129Y81390500D01*
X50482123Y81390499D01*
X50422516Y81384092D01*
X50287671Y81333798D01*
X50287664Y81333794D01*
X50172455Y81247548D01*
X50172452Y81247545D01*
X50086206Y81132336D01*
X50086202Y81132329D01*
X50035908Y80997483D01*
X50029501Y80937884D01*
X50029501Y80937877D01*
X50029500Y80937865D01*
X41507121Y80937865D01*
X41392335Y81023794D01*
X41392328Y81023798D01*
X41257482Y81074092D01*
X41257483Y81074092D01*
X41197883Y81080499D01*
X41197881Y81080500D01*
X41197873Y81080500D01*
X41197864Y81080500D01*
X39402129Y81080500D01*
X39402123Y81080499D01*
X39342516Y81074092D01*
X39207671Y81023798D01*
X39207664Y81023794D01*
X39092455Y80937548D01*
X39092452Y80937545D01*
X39006206Y80822336D01*
X39006202Y80822329D01*
X38955908Y80687483D01*
X38949501Y80627884D01*
X38949501Y80627877D01*
X38949500Y80627865D01*
X37500500Y80627865D01*
X37500500Y83375500D01*
X37520185Y83442539D01*
X37572989Y83488294D01*
X37624500Y83499500D01*
X61375500Y83499500D01*
X61442539Y83479815D01*
G37*
G04 #@! TD.AperFunction*
G04 #@! TD*
G04 #@! TA.AperFunction,Conductor*
G04 #@! TO.N,Board_0-GND*
G36*
X31442539Y83479815D02*
G01*
X31488294Y83427011D01*
X31499500Y83375500D01*
X31499500Y48624500D01*
X31479815Y48557461D01*
X31427011Y48511706D01*
X31375500Y48500500D01*
X7624500Y48500500D01*
X7557461Y48520185D01*
X7511706Y48572989D01*
X7500500Y48624500D01*
X7500500Y58127865D01*
X8949500Y58127865D01*
X8949500Y56332130D01*
X8949501Y56332124D01*
X8955908Y56272517D01*
X9006202Y56137672D01*
X9006206Y56137665D01*
X9092452Y56022456D01*
X9092455Y56022453D01*
X9207664Y55936207D01*
X9207671Y55936203D01*
X9339082Y55887190D01*
X9395016Y55845319D01*
X9419433Y55779855D01*
X9404582Y55711582D01*
X9383431Y55683327D01*
X9269889Y55569785D01*
X9144951Y55397821D01*
X9048444Y55208415D01*
X8982753Y55006240D01*
X8949500Y54796287D01*
X8949500Y54583714D01*
X8982753Y54373761D01*
X9048444Y54171586D01*
X9144951Y53982180D01*
X9269890Y53810214D01*
X9420213Y53659891D01*
X9592179Y53534952D01*
X9592181Y53534951D01*
X9592184Y53534949D01*
X9601493Y53530206D01*
X9652290Y53482234D01*
X9669087Y53414413D01*
X9646552Y53348278D01*
X9601502Y53309238D01*
X9592443Y53304622D01*
X9420540Y53179728D01*
X9420535Y53179724D01*
X9270276Y53029465D01*
X9270272Y53029460D01*
X9145379Y52857558D01*
X9048904Y52668218D01*
X8983242Y52466130D01*
X8983242Y52466127D01*
X8972769Y52400000D01*
X9866988Y52400000D01*
X9834075Y52342993D01*
X9800000Y52215826D01*
X9800000Y52084174D01*
X9834075Y51957007D01*
X9866988Y51900000D01*
X8972769Y51900000D01*
X8983242Y51833874D01*
X8983242Y51833871D01*
X9048904Y51631783D01*
X9145379Y51442443D01*
X9270272Y51270541D01*
X9270276Y51270536D01*
X9420535Y51120277D01*
X9420540Y51120273D01*
X9592442Y50995380D01*
X9781782Y50898905D01*
X9983871Y50833243D01*
X10050000Y50822769D01*
X10050000Y51716988D01*
X10107007Y51684075D01*
X10234174Y51650000D01*
X10365826Y51650000D01*
X10492993Y51684075D01*
X10550000Y51716988D01*
X10550000Y50822770D01*
X10616126Y50833243D01*
X10616129Y50833243D01*
X10818217Y50898905D01*
X11007557Y50995380D01*
X11179459Y51120273D01*
X11179464Y51120277D01*
X11329723Y51270536D01*
X11329727Y51270541D01*
X11392025Y51356287D01*
X19469500Y51356287D01*
X19469500Y51143713D01*
X19502754Y50933757D01*
X19538816Y50822769D01*
X19568444Y50731586D01*
X19664951Y50542180D01*
X19789890Y50370214D01*
X19940213Y50219891D01*
X20112179Y50094952D01*
X20112181Y50094951D01*
X20112184Y50094949D01*
X20301588Y49998443D01*
X20503757Y49932754D01*
X20713713Y49899500D01*
X20713714Y49899500D01*
X20926286Y49899500D01*
X20926287Y49899500D01*
X21136243Y49932754D01*
X21338412Y49998443D01*
X21527816Y50094949D01*
X21614138Y50157665D01*
X21699786Y50219891D01*
X21699788Y50219894D01*
X21699792Y50219896D01*
X21850104Y50370208D01*
X21850106Y50370212D01*
X21850109Y50370214D01*
X21975048Y50542180D01*
X21975047Y50542180D01*
X21975051Y50542184D01*
X21979514Y50550946D01*
X22027488Y50601741D01*
X22095308Y50618537D01*
X22161444Y50596001D01*
X22200486Y50550944D01*
X22204951Y50542180D01*
X22329890Y50370214D01*
X22480213Y50219891D01*
X22652179Y50094952D01*
X22652181Y50094951D01*
X22652184Y50094949D01*
X22841588Y49998443D01*
X23043757Y49932754D01*
X23253713Y49899500D01*
X23253714Y49899500D01*
X23466286Y49899500D01*
X23466287Y49899500D01*
X23676243Y49932754D01*
X23878412Y49998443D01*
X24067816Y50094949D01*
X24154138Y50157665D01*
X24239786Y50219891D01*
X24239788Y50219894D01*
X24239792Y50219896D01*
X24390104Y50370208D01*
X24390106Y50370212D01*
X24390109Y50370214D01*
X24515048Y50542180D01*
X24515051Y50542184D01*
X24519793Y50551492D01*
X24567763Y50602289D01*
X24635583Y50619089D01*
X24701719Y50596555D01*
X24740763Y50551500D01*
X24745377Y50542445D01*
X24870272Y50370541D01*
X24870276Y50370536D01*
X25020535Y50220277D01*
X25020540Y50220273D01*
X25192442Y50095380D01*
X25381782Y49998905D01*
X25583871Y49933243D01*
X25650000Y49922769D01*
X25650000Y50816988D01*
X25707007Y50784075D01*
X25834174Y50750000D01*
X25965826Y50750000D01*
X26092993Y50784075D01*
X26150000Y50816988D01*
X26150000Y49922770D01*
X26216126Y49933243D01*
X26216129Y49933243D01*
X26418217Y49998905D01*
X26607557Y50095380D01*
X26779458Y50220272D01*
X26893133Y50333947D01*
X26954456Y50367432D01*
X27024148Y50362448D01*
X27080082Y50320577D01*
X27096997Y50289599D01*
X27146202Y50157672D01*
X27146206Y50157665D01*
X27232452Y50042456D01*
X27232455Y50042453D01*
X27347664Y49956207D01*
X27347671Y49956203D01*
X27482517Y49905909D01*
X27482516Y49905909D01*
X27489444Y49905165D01*
X27542127Y49899500D01*
X29337872Y49899501D01*
X29397483Y49905909D01*
X29532331Y49956204D01*
X29647546Y50042454D01*
X29733796Y50157669D01*
X29784091Y50292517D01*
X29790500Y50352127D01*
X29790499Y52147872D01*
X29784091Y52207483D01*
X29783002Y52210402D01*
X29733797Y52342329D01*
X29733793Y52342336D01*
X29647547Y52457545D01*
X29647544Y52457548D01*
X29532335Y52543794D01*
X29532328Y52543798D01*
X29397482Y52594092D01*
X29397483Y52594092D01*
X29337883Y52600499D01*
X29337881Y52600500D01*
X29337873Y52600500D01*
X29337864Y52600500D01*
X27542129Y52600500D01*
X27542123Y52600499D01*
X27482516Y52594092D01*
X27347671Y52543798D01*
X27347664Y52543794D01*
X27232455Y52457548D01*
X27232452Y52457545D01*
X27146206Y52342336D01*
X27146202Y52342329D01*
X27096997Y52210402D01*
X27055126Y52154468D01*
X26989661Y52130051D01*
X26921388Y52144903D01*
X26893134Y52166054D01*
X26779464Y52279724D01*
X26779459Y52279728D01*
X26607557Y52404621D01*
X26418215Y52501097D01*
X26216124Y52566759D01*
X26150000Y52577232D01*
X26150000Y51683012D01*
X26092993Y51715925D01*
X25965826Y51750000D01*
X25834174Y51750000D01*
X25707007Y51715925D01*
X25650000Y51683012D01*
X25650000Y52577232D01*
X25649999Y52577232D01*
X25583875Y52566759D01*
X25381784Y52501097D01*
X25192442Y52404621D01*
X25020540Y52279728D01*
X25020535Y52279724D01*
X24870276Y52129465D01*
X24870272Y52129460D01*
X24745378Y51957557D01*
X24740762Y51948498D01*
X24692784Y51897705D01*
X24624963Y51880913D01*
X24558829Y51903454D01*
X24519794Y51948507D01*
X24515051Y51957816D01*
X24515049Y51957819D01*
X24515048Y51957821D01*
X24390109Y52129787D01*
X24239786Y52280110D01*
X24067820Y52405049D01*
X23878414Y52501556D01*
X23878413Y52501557D01*
X23878412Y52501557D01*
X23676243Y52567246D01*
X23676241Y52567247D01*
X23676240Y52567247D01*
X23514957Y52592792D01*
X23466287Y52600500D01*
X23253713Y52600500D01*
X23205042Y52592792D01*
X23043760Y52567247D01*
X22841585Y52501556D01*
X22652179Y52405049D01*
X22480213Y52280110D01*
X22329890Y52129787D01*
X22204949Y51957818D01*
X22200484Y51949054D01*
X22152509Y51898258D01*
X22084688Y51881464D01*
X22018553Y51904002D01*
X21979516Y51949054D01*
X21975050Y51957818D01*
X21850109Y52129787D01*
X21699786Y52280110D01*
X21527820Y52405049D01*
X21338414Y52501556D01*
X21338413Y52501557D01*
X21338412Y52501557D01*
X21136243Y52567246D01*
X21136241Y52567247D01*
X21136240Y52567247D01*
X20974957Y52592792D01*
X20926287Y52600500D01*
X20713713Y52600500D01*
X20665042Y52592792D01*
X20503760Y52567247D01*
X20301585Y52501556D01*
X20112179Y52405049D01*
X19940213Y52280110D01*
X19789890Y52129787D01*
X19664951Y51957821D01*
X19568444Y51768415D01*
X19502753Y51566240D01*
X19469500Y51356287D01*
X11392025Y51356287D01*
X11448519Y51434044D01*
X11448519Y51434045D01*
X11448520Y51434046D01*
X11454622Y51442445D01*
X11551095Y51631783D01*
X11616757Y51833871D01*
X11616757Y51833874D01*
X11627231Y51900000D01*
X10733012Y51900000D01*
X10765925Y51957007D01*
X10800000Y52084174D01*
X10800000Y52215826D01*
X10765925Y52342993D01*
X10733012Y52400000D01*
X11627231Y52400000D01*
X11616757Y52466127D01*
X11616757Y52466130D01*
X11551095Y52668218D01*
X11454620Y52857558D01*
X11329727Y53029460D01*
X11329723Y53029465D01*
X11179464Y53179724D01*
X11179459Y53179728D01*
X11007555Y53304623D01*
X10998500Y53309237D01*
X10947706Y53357212D01*
X10930912Y53425034D01*
X10953451Y53491168D01*
X10998508Y53530207D01*
X11007816Y53534949D01*
X11087007Y53592485D01*
X11179786Y53659891D01*
X11179788Y53659894D01*
X11179792Y53659896D01*
X11330104Y53810208D01*
X11330106Y53810212D01*
X11330109Y53810214D01*
X11455048Y53982180D01*
X11455047Y53982180D01*
X11455051Y53982184D01*
X11551557Y54171588D01*
X11617246Y54373757D01*
X11650500Y54583713D01*
X11650500Y54796287D01*
X11617246Y55006243D01*
X11551557Y55208412D01*
X11455051Y55397816D01*
X11455049Y55397819D01*
X11455048Y55397821D01*
X11330109Y55569787D01*
X11216569Y55683327D01*
X11201823Y55710331D01*
X11185221Y55736249D01*
X11185227Y55740725D01*
X11183084Y55744650D01*
X11185279Y55775346D01*
X11185325Y55806118D01*
X11187748Y55809878D01*
X11188068Y55814342D01*
X11206513Y55838982D01*
X11215112Y55852318D01*
X24600000Y55852318D01*
X24600000Y55647683D01*
X24632009Y55445583D01*
X24695244Y55250969D01*
X24788141Y55068650D01*
X24788147Y55068641D01*
X24820523Y55024079D01*
X24820524Y55024078D01*
X25500000Y55703554D01*
X25500000Y55697339D01*
X25527259Y55595606D01*
X25579920Y55504394D01*
X25654394Y55429920D01*
X25745606Y55377259D01*
X25847339Y55350000D01*
X25853553Y55350000D01*
X25174076Y54670526D01*
X25218650Y54638141D01*
X25400968Y54545245D01*
X25595582Y54482010D01*
X25797683Y54450000D01*
X26002317Y54450000D01*
X26204417Y54482010D01*
X26399031Y54545245D01*
X26581349Y54638141D01*
X26625921Y54670526D01*
X25946447Y55350000D01*
X25952661Y55350000D01*
X26054394Y55377259D01*
X26145606Y55429920D01*
X26220080Y55504394D01*
X26272741Y55595606D01*
X26300000Y55697339D01*
X26300000Y55703552D01*
X26979474Y55024078D01*
X26979474Y55024079D01*
X27011859Y55068651D01*
X27039233Y55122376D01*
X27087207Y55173173D01*
X27155028Y55189969D01*
X27221163Y55167433D01*
X27260203Y55122379D01*
X27287713Y55068389D01*
X27408028Y54902787D01*
X27552786Y54758029D01*
X27673226Y54670526D01*
X27718390Y54637713D01*
X27824369Y54583714D01*
X27900776Y54544782D01*
X27900778Y54544782D01*
X27900781Y54544780D01*
X28005137Y54510873D01*
X28095465Y54481523D01*
X28196557Y54465512D01*
X28297648Y54449500D01*
X28297649Y54449500D01*
X28502351Y54449500D01*
X28502352Y54449500D01*
X28704534Y54481523D01*
X28899219Y54544780D01*
X29081610Y54637713D01*
X29174590Y54705268D01*
X29247213Y54758029D01*
X29247215Y54758032D01*
X29247219Y54758034D01*
X29391966Y54902781D01*
X29391968Y54902785D01*
X29391971Y54902787D01*
X29444732Y54975410D01*
X29512287Y55068390D01*
X29605220Y55250781D01*
X29668477Y55445466D01*
X29700500Y55647648D01*
X29700500Y55852352D01*
X29687219Y55936204D01*
X29668477Y56054535D01*
X29637458Y56150000D01*
X29605220Y56249219D01*
X29605218Y56249222D01*
X29605218Y56249224D01*
X29562975Y56332130D01*
X29512287Y56431610D01*
X29480092Y56475923D01*
X29391971Y56597214D01*
X29247213Y56741972D01*
X29081613Y56862285D01*
X29081612Y56862286D01*
X29081610Y56862287D01*
X29024653Y56891309D01*
X28899223Y56955219D01*
X28704534Y57018478D01*
X28529995Y57046122D01*
X28502352Y57050500D01*
X28297648Y57050500D01*
X28273329Y57046649D01*
X28095465Y57018478D01*
X27900776Y56955219D01*
X27718386Y56862285D01*
X27552786Y56741972D01*
X27408028Y56597214D01*
X27287714Y56431614D01*
X27260203Y56377621D01*
X27212227Y56326826D01*
X27144406Y56310032D01*
X27078272Y56332571D01*
X27039234Y56377624D01*
X27011861Y56431348D01*
X26979474Y56475923D01*
X26979474Y56475924D01*
X26300000Y55796449D01*
X26300000Y55802661D01*
X26272741Y55904394D01*
X26220080Y55995606D01*
X26145606Y56070080D01*
X26054394Y56122741D01*
X25952661Y56150000D01*
X25946446Y56150000D01*
X26625922Y56829476D01*
X26625921Y56829477D01*
X26581359Y56861853D01*
X26581350Y56861859D01*
X26399031Y56954756D01*
X26204417Y57017991D01*
X26002317Y57050000D01*
X25797683Y57050000D01*
X25595582Y57017991D01*
X25400968Y56954756D01*
X25218644Y56861857D01*
X25174077Y56829477D01*
X25174077Y56829476D01*
X25853554Y56150000D01*
X25847339Y56150000D01*
X25745606Y56122741D01*
X25654394Y56070080D01*
X25579920Y55995606D01*
X25527259Y55904394D01*
X25500000Y55802661D01*
X25500000Y55796447D01*
X24820524Y56475923D01*
X24820523Y56475923D01*
X24788143Y56431356D01*
X24695244Y56249032D01*
X24632009Y56054418D01*
X24600000Y55852318D01*
X11215112Y55852318D01*
X11223186Y55864841D01*
X11228011Y55867700D01*
X11229940Y55870275D01*
X11252905Y55883878D01*
X11257334Y55885894D01*
X11257483Y55885909D01*
X11392331Y55936204D01*
X11507546Y56022454D01*
X11593796Y56137669D01*
X11644091Y56272517D01*
X11650500Y56332127D01*
X11650499Y58127872D01*
X11644091Y58187483D01*
X11593796Y58322331D01*
X11593795Y58322332D01*
X11593793Y58322336D01*
X11507547Y58437545D01*
X11507544Y58437548D01*
X11392335Y58523794D01*
X11392328Y58523798D01*
X11257482Y58574092D01*
X11257483Y58574092D01*
X11197883Y58580499D01*
X11197881Y58580500D01*
X11197873Y58580500D01*
X11197864Y58580500D01*
X9402129Y58580500D01*
X9402123Y58580499D01*
X9342516Y58574092D01*
X9207671Y58523798D01*
X9207664Y58523794D01*
X9092455Y58437548D01*
X9092452Y58437545D01*
X9006206Y58322336D01*
X9006202Y58322329D01*
X8955908Y58187483D01*
X8949501Y58127884D01*
X8949501Y58127877D01*
X8949500Y58127865D01*
X7500500Y58127865D01*
X7500500Y60152352D01*
X20199500Y60152352D01*
X20199500Y59947649D01*
X20231522Y59745466D01*
X20294781Y59550777D01*
X20387715Y59368387D01*
X20508028Y59202787D01*
X20652786Y59058029D01*
X20807749Y58945444D01*
X20818390Y58937713D01*
X20934607Y58878497D01*
X21000776Y58844782D01*
X21000778Y58844782D01*
X21000781Y58844780D01*
X21105137Y58810873D01*
X21195465Y58781523D01*
X21296557Y58765512D01*
X21397648Y58749500D01*
X21397649Y58749500D01*
X21602351Y58749500D01*
X21602352Y58749500D01*
X21804534Y58781523D01*
X21999219Y58844780D01*
X22181610Y58937713D01*
X22274590Y59005268D01*
X22347213Y59058029D01*
X22347215Y59058032D01*
X22347219Y59058034D01*
X22491966Y59202781D01*
X22491968Y59202785D01*
X22491971Y59202787D01*
X22544732Y59275410D01*
X22612287Y59368390D01*
X22705220Y59550781D01*
X22768477Y59745466D01*
X22800500Y59947648D01*
X22800500Y60152352D01*
X27819500Y60152352D01*
X27819500Y59947649D01*
X27851522Y59745466D01*
X27914781Y59550777D01*
X28007715Y59368387D01*
X28128028Y59202787D01*
X28272786Y59058029D01*
X28427749Y58945444D01*
X28438390Y58937713D01*
X28554607Y58878497D01*
X28620776Y58844782D01*
X28620778Y58844782D01*
X28620781Y58844780D01*
X28725137Y58810873D01*
X28815465Y58781523D01*
X28916557Y58765512D01*
X29017648Y58749500D01*
X29017649Y58749500D01*
X29222351Y58749500D01*
X29222352Y58749500D01*
X29424534Y58781523D01*
X29619219Y58844780D01*
X29801610Y58937713D01*
X29894590Y59005268D01*
X29967213Y59058029D01*
X29967215Y59058032D01*
X29967219Y59058034D01*
X30111966Y59202781D01*
X30111968Y59202785D01*
X30111971Y59202787D01*
X30164732Y59275410D01*
X30232287Y59368390D01*
X30325220Y59550781D01*
X30388477Y59745466D01*
X30420500Y59947648D01*
X30420500Y60152352D01*
X30388477Y60354534D01*
X30325220Y60549219D01*
X30325218Y60549222D01*
X30325218Y60549224D01*
X30291503Y60615393D01*
X30232287Y60731610D01*
X30224556Y60742251D01*
X30111971Y60897214D01*
X29967213Y61041972D01*
X29801613Y61162285D01*
X29801612Y61162286D01*
X29801610Y61162287D01*
X29712861Y61207507D01*
X29619223Y61255219D01*
X29424534Y61318478D01*
X29249995Y61346122D01*
X29222352Y61350500D01*
X29017648Y61350500D01*
X28993329Y61346649D01*
X28815465Y61318478D01*
X28620776Y61255219D01*
X28438386Y61162285D01*
X28272786Y61041972D01*
X28128028Y60897214D01*
X28007715Y60731614D01*
X27914781Y60549224D01*
X27851522Y60354535D01*
X27819500Y60152352D01*
X22800500Y60152352D01*
X22768477Y60354534D01*
X22705220Y60549219D01*
X22705218Y60549222D01*
X22705218Y60549224D01*
X22671503Y60615393D01*
X22612287Y60731610D01*
X22604556Y60742251D01*
X22491971Y60897214D01*
X22347213Y61041972D01*
X22181613Y61162285D01*
X22181612Y61162286D01*
X22181610Y61162287D01*
X22092861Y61207507D01*
X21999223Y61255219D01*
X21804534Y61318478D01*
X21629995Y61346122D01*
X21602352Y61350500D01*
X21397648Y61350500D01*
X21373329Y61346649D01*
X21195465Y61318478D01*
X21000776Y61255219D01*
X20818386Y61162285D01*
X20652786Y61041972D01*
X20508028Y60897214D01*
X20387715Y60731614D01*
X20294781Y60549224D01*
X20231522Y60354535D01*
X20199500Y60152352D01*
X7500500Y60152352D01*
X7500500Y69142865D01*
X8949500Y69142865D01*
X8949500Y67347130D01*
X8949501Y67347124D01*
X8955908Y67287517D01*
X9006202Y67152672D01*
X9006206Y67152665D01*
X9092452Y67037456D01*
X9092455Y67037453D01*
X9207664Y66951207D01*
X9207671Y66951203D01*
X9339082Y66902190D01*
X9395016Y66860319D01*
X9419433Y66794855D01*
X9404582Y66726582D01*
X9383431Y66698327D01*
X9269889Y66584785D01*
X9144951Y66412821D01*
X9048444Y66223415D01*
X8982753Y66021240D01*
X8979513Y66000781D01*
X8949500Y65811287D01*
X8949500Y65598713D01*
X8982754Y65388757D01*
X9013288Y65294782D01*
X9048444Y65186586D01*
X9144951Y64997180D01*
X9269890Y64825214D01*
X9420213Y64674891D01*
X9592179Y64549952D01*
X9592181Y64549951D01*
X9592184Y64549949D01*
X9601493Y64545206D01*
X9652290Y64497234D01*
X9669087Y64429413D01*
X9646552Y64363278D01*
X9601502Y64324238D01*
X9592443Y64319622D01*
X9420540Y64194728D01*
X9420535Y64194724D01*
X9270276Y64044465D01*
X9270272Y64044460D01*
X9145379Y63872558D01*
X9048904Y63683218D01*
X8983242Y63481130D01*
X8983242Y63481127D01*
X8972769Y63415000D01*
X9866988Y63415000D01*
X9834075Y63357993D01*
X9800000Y63230826D01*
X9800000Y63099174D01*
X9834075Y62972007D01*
X9866988Y62915000D01*
X8972769Y62915000D01*
X8983242Y62848874D01*
X8983242Y62848871D01*
X9048904Y62646783D01*
X9145379Y62457443D01*
X9270272Y62285541D01*
X9270276Y62285536D01*
X9420535Y62135277D01*
X9420540Y62135273D01*
X9592442Y62010380D01*
X9781782Y61913905D01*
X9983871Y61848243D01*
X10050000Y61837769D01*
X10050000Y62731988D01*
X10107007Y62699075D01*
X10234174Y62665000D01*
X10365826Y62665000D01*
X10492993Y62699075D01*
X10550000Y62731988D01*
X10550000Y61837770D01*
X10616126Y61848243D01*
X10616129Y61848243D01*
X10818217Y61913905D01*
X11007557Y62010380D01*
X11179459Y62135273D01*
X11179464Y62135277D01*
X11329723Y62285536D01*
X11329727Y62285541D01*
X11454620Y62457443D01*
X11551095Y62646783D01*
X11616757Y62848871D01*
X11616757Y62848874D01*
X11627231Y62915000D01*
X10733012Y62915000D01*
X10765925Y62972007D01*
X10800000Y63099174D01*
X10800000Y63230826D01*
X10775760Y63321289D01*
X15199500Y63321289D01*
X15199500Y63078712D01*
X15231161Y62838215D01*
X15293947Y62603896D01*
X15354610Y62457443D01*
X15386776Y62379788D01*
X15508064Y62169711D01*
X15508066Y62169708D01*
X15508067Y62169707D01*
X15655733Y61977264D01*
X15655739Y61977257D01*
X15827256Y61805740D01*
X15827262Y61805735D01*
X16019711Y61658064D01*
X16229788Y61536776D01*
X16453900Y61443946D01*
X16688211Y61381162D01*
X16868586Y61357416D01*
X16928711Y61349500D01*
X16928712Y61349500D01*
X17171289Y61349500D01*
X17219388Y61355833D01*
X17411789Y61381162D01*
X17646100Y61443946D01*
X17870212Y61536776D01*
X18080289Y61658064D01*
X18272738Y61805735D01*
X18444265Y61977262D01*
X18591936Y62169711D01*
X18713224Y62379788D01*
X18806054Y62603900D01*
X18868838Y62838211D01*
X18900500Y63078712D01*
X18900500Y63321288D01*
X18868838Y63561789D01*
X18806054Y63796100D01*
X18713224Y64020212D01*
X18591936Y64230289D01*
X18444265Y64422738D01*
X18444260Y64422744D01*
X18272743Y64594261D01*
X18272736Y64594267D01*
X18080293Y64741933D01*
X18080292Y64741934D01*
X18080289Y64741936D01*
X17870212Y64863224D01*
X17870205Y64863227D01*
X17646104Y64956053D01*
X17411785Y65018839D01*
X17171289Y65050500D01*
X17171288Y65050500D01*
X16928712Y65050500D01*
X16928711Y65050500D01*
X16688214Y65018839D01*
X16453895Y64956053D01*
X16229794Y64863227D01*
X16229785Y64863223D01*
X16019706Y64741933D01*
X15827263Y64594267D01*
X15827256Y64594261D01*
X15655739Y64422744D01*
X15655733Y64422737D01*
X15508067Y64230294D01*
X15386777Y64020215D01*
X15386773Y64020206D01*
X15293947Y63796105D01*
X15231161Y63561786D01*
X15199500Y63321289D01*
X10775760Y63321289D01*
X10765925Y63357993D01*
X10733012Y63415000D01*
X11627231Y63415000D01*
X11627231Y63415001D01*
X11616757Y63481127D01*
X11616757Y63481130D01*
X11551095Y63683218D01*
X11454620Y63872558D01*
X11329727Y64044460D01*
X11329723Y64044465D01*
X11179464Y64194724D01*
X11179459Y64194728D01*
X11007555Y64319623D01*
X10998500Y64324237D01*
X10947706Y64372212D01*
X10930912Y64440034D01*
X10953451Y64506168D01*
X10998508Y64545207D01*
X11007816Y64549949D01*
X11087007Y64607485D01*
X11179786Y64674891D01*
X11179788Y64674894D01*
X11179792Y64674896D01*
X11330104Y64825208D01*
X11330106Y64825212D01*
X11330109Y64825214D01*
X11455048Y64997180D01*
X11455047Y64997180D01*
X11455051Y64997184D01*
X11551557Y65186588D01*
X11617246Y65388757D01*
X11650500Y65598713D01*
X11650500Y65811287D01*
X11617246Y66021243D01*
X11551557Y66223412D01*
X11455051Y66412816D01*
X11455049Y66412819D01*
X11455048Y66412821D01*
X11370788Y66528797D01*
X11370780Y66528806D01*
X11330104Y66584792D01*
X11312544Y66602352D01*
X20089500Y66602352D01*
X20089500Y66397649D01*
X20121522Y66195466D01*
X20184781Y66000777D01*
X20277715Y65818387D01*
X20398028Y65652787D01*
X20542786Y65508029D01*
X20697749Y65395444D01*
X20708390Y65387713D01*
X20824607Y65328497D01*
X20890776Y65294782D01*
X20890778Y65294782D01*
X20890781Y65294780D01*
X20995137Y65260873D01*
X21085465Y65231523D01*
X21186557Y65215512D01*
X21287648Y65199500D01*
X21287649Y65199500D01*
X21492351Y65199500D01*
X21492352Y65199500D01*
X21694534Y65231523D01*
X21889219Y65294780D01*
X22071610Y65387713D01*
X22164590Y65455268D01*
X22237213Y65508029D01*
X22237215Y65508032D01*
X22237219Y65508034D01*
X22381966Y65652781D01*
X22381968Y65652785D01*
X22381971Y65652787D01*
X22497126Y65811287D01*
X22502287Y65818390D01*
X22595220Y66000781D01*
X22658477Y66195466D01*
X22690500Y66397648D01*
X22690500Y66602352D01*
X27709500Y66602352D01*
X27709500Y66397649D01*
X27741522Y66195466D01*
X27804781Y66000777D01*
X27897715Y65818387D01*
X28018028Y65652787D01*
X28162786Y65508029D01*
X28317749Y65395444D01*
X28328390Y65387713D01*
X28444607Y65328497D01*
X28510776Y65294782D01*
X28510778Y65294782D01*
X28510781Y65294780D01*
X28615137Y65260873D01*
X28705465Y65231523D01*
X28806557Y65215512D01*
X28907648Y65199500D01*
X28907649Y65199500D01*
X29112351Y65199500D01*
X29112352Y65199500D01*
X29314534Y65231523D01*
X29509219Y65294780D01*
X29691610Y65387713D01*
X29784590Y65455268D01*
X29857213Y65508029D01*
X29857215Y65508032D01*
X29857219Y65508034D01*
X30001966Y65652781D01*
X30001968Y65652785D01*
X30001971Y65652787D01*
X30117126Y65811287D01*
X30122287Y65818390D01*
X30215220Y66000781D01*
X30278477Y66195466D01*
X30310500Y66397648D01*
X30310500Y66602352D01*
X30278477Y66804534D01*
X30270416Y66829342D01*
X30215218Y66999224D01*
X30137035Y67152665D01*
X30122287Y67181610D01*
X30114556Y67192251D01*
X30001971Y67347214D01*
X29857213Y67491972D01*
X29691613Y67612285D01*
X29691612Y67612286D01*
X29691610Y67612287D01*
X29634653Y67641309D01*
X29509223Y67705219D01*
X29314534Y67768478D01*
X29139995Y67796122D01*
X29112352Y67800500D01*
X28907648Y67800500D01*
X28883329Y67796649D01*
X28705465Y67768478D01*
X28510776Y67705219D01*
X28328386Y67612285D01*
X28162786Y67491972D01*
X28018028Y67347214D01*
X27897715Y67181614D01*
X27804781Y66999224D01*
X27741522Y66804535D01*
X27709500Y66602352D01*
X22690500Y66602352D01*
X22658477Y66804534D01*
X22650416Y66829342D01*
X22595218Y66999224D01*
X22517035Y67152665D01*
X22502287Y67181610D01*
X22494556Y67192251D01*
X22381971Y67347214D01*
X22237213Y67491972D01*
X22071613Y67612285D01*
X22071612Y67612286D01*
X22071610Y67612287D01*
X22014653Y67641309D01*
X21889223Y67705219D01*
X21694534Y67768478D01*
X21519995Y67796122D01*
X21492352Y67800500D01*
X21287648Y67800500D01*
X21263329Y67796649D01*
X21085465Y67768478D01*
X20890776Y67705219D01*
X20708386Y67612285D01*
X20542786Y67491972D01*
X20398028Y67347214D01*
X20277715Y67181614D01*
X20184781Y66999224D01*
X20121522Y66804535D01*
X20089500Y66602352D01*
X11312544Y66602352D01*
X11214523Y66700373D01*
X11212574Y66702513D01*
X11198494Y66731429D01*
X11183084Y66759650D01*
X11183297Y66762638D01*
X11181986Y66765331D01*
X11185774Y66797269D01*
X11188068Y66829342D01*
X11189863Y66831740D01*
X11190216Y66834715D01*
X11210670Y66859535D01*
X11229940Y66885275D01*
X11233474Y66887205D01*
X11234652Y66888634D01*
X11238139Y66889753D01*
X11260915Y66902190D01*
X11392331Y66951204D01*
X11507546Y67037454D01*
X11593796Y67152669D01*
X11644091Y67287517D01*
X11650500Y67347127D01*
X11650499Y69142872D01*
X11644091Y69202483D01*
X11593796Y69337331D01*
X11593795Y69337332D01*
X11593793Y69337336D01*
X11507547Y69452545D01*
X11507544Y69452548D01*
X11392335Y69538794D01*
X11392328Y69538798D01*
X11257482Y69589092D01*
X11257483Y69589092D01*
X11197883Y69595499D01*
X11197881Y69595500D01*
X11197873Y69595500D01*
X11197864Y69595500D01*
X9402129Y69595500D01*
X9402123Y69595499D01*
X9342516Y69589092D01*
X9207671Y69538798D01*
X9207664Y69538794D01*
X9092455Y69452548D01*
X9092452Y69452545D01*
X9006206Y69337336D01*
X9006202Y69337329D01*
X8955908Y69202483D01*
X8949501Y69142884D01*
X8949501Y69142877D01*
X8949500Y69142865D01*
X7500500Y69142865D01*
X7500500Y80627865D01*
X8949500Y80627865D01*
X8949500Y78832130D01*
X8949501Y78832124D01*
X8955908Y78772517D01*
X9006202Y78637672D01*
X9006206Y78637665D01*
X9092452Y78522456D01*
X9092455Y78522453D01*
X9207664Y78436207D01*
X9207671Y78436203D01*
X9339082Y78387190D01*
X9395016Y78345319D01*
X9419433Y78279855D01*
X9404582Y78211582D01*
X9383431Y78183327D01*
X9269889Y78069785D01*
X9144951Y77897821D01*
X9048444Y77708415D01*
X8982753Y77506240D01*
X8950784Y77304394D01*
X8949500Y77296287D01*
X8949500Y77083713D01*
X8982754Y76873757D01*
X9038202Y76703105D01*
X9048444Y76671586D01*
X9144951Y76482180D01*
X9269890Y76310214D01*
X9420213Y76159891D01*
X9592179Y76034952D01*
X9592181Y76034951D01*
X9592184Y76034949D01*
X9601493Y76030206D01*
X9652290Y75982234D01*
X9669087Y75914413D01*
X9646552Y75848278D01*
X9601502Y75809238D01*
X9592443Y75804622D01*
X9420540Y75679728D01*
X9420535Y75679724D01*
X9270276Y75529465D01*
X9270272Y75529460D01*
X9145379Y75357558D01*
X9048904Y75168218D01*
X8983242Y74966130D01*
X8983242Y74966127D01*
X8972769Y74900000D01*
X9866988Y74900000D01*
X9834075Y74842993D01*
X9800000Y74715826D01*
X9800000Y74584174D01*
X9834075Y74457007D01*
X9866988Y74400000D01*
X8972769Y74400000D01*
X8983242Y74333874D01*
X8983242Y74333871D01*
X9048904Y74131783D01*
X9145379Y73942443D01*
X9270272Y73770541D01*
X9270276Y73770536D01*
X9420535Y73620277D01*
X9420540Y73620273D01*
X9592442Y73495380D01*
X9781782Y73398905D01*
X9983871Y73333243D01*
X10050000Y73322769D01*
X10050000Y74216988D01*
X10107007Y74184075D01*
X10234174Y74150000D01*
X10365826Y74150000D01*
X10492993Y74184075D01*
X10550000Y74216988D01*
X10550000Y73322770D01*
X10616126Y73333243D01*
X10616129Y73333243D01*
X10818217Y73398905D01*
X11007557Y73495380D01*
X11179459Y73620273D01*
X11179464Y73620277D01*
X11329723Y73770536D01*
X11329727Y73770541D01*
X11454620Y73942443D01*
X11551095Y74131783D01*
X11616757Y74333871D01*
X11616757Y74333874D01*
X11627231Y74400000D01*
X10733012Y74400000D01*
X10765925Y74457007D01*
X10800000Y74584174D01*
X10800000Y74715826D01*
X10765925Y74842993D01*
X10733012Y74900000D01*
X11627231Y74900000D01*
X11616757Y74966127D01*
X11616757Y74966130D01*
X11551095Y75168218D01*
X11454620Y75357558D01*
X11329727Y75529460D01*
X11329723Y75529465D01*
X11179464Y75679724D01*
X11179459Y75679728D01*
X11007555Y75804623D01*
X10998500Y75809237D01*
X10947706Y75857212D01*
X10930912Y75925034D01*
X10953451Y75991168D01*
X10998508Y76030207D01*
X11007816Y76034949D01*
X11128025Y76122285D01*
X11179786Y76159891D01*
X11179788Y76159894D01*
X11179792Y76159896D01*
X11330104Y76310208D01*
X11330106Y76310212D01*
X11330109Y76310214D01*
X11455048Y76482180D01*
X11455047Y76482180D01*
X11455051Y76482184D01*
X11551557Y76671588D01*
X11617246Y76873757D01*
X11650500Y77083713D01*
X11650500Y77296287D01*
X11617246Y77506243D01*
X11551557Y77708412D01*
X11455051Y77897816D01*
X11455049Y77897819D01*
X11455048Y77897821D01*
X11330109Y78069787D01*
X11216569Y78183327D01*
X11183084Y78244650D01*
X11188068Y78314342D01*
X11229940Y78370275D01*
X11260915Y78387190D01*
X11392331Y78436204D01*
X11507546Y78522454D01*
X11593796Y78637669D01*
X11644091Y78772517D01*
X11650500Y78832127D01*
X11650499Y80627872D01*
X11644091Y80687483D01*
X11593796Y80822331D01*
X11593795Y80822332D01*
X11593793Y80822336D01*
X11560445Y80866883D01*
X11507547Y80937545D01*
X11507544Y80937548D01*
X11507121Y80937865D01*
X20029500Y80937865D01*
X20029500Y79242130D01*
X20029501Y79242124D01*
X20035908Y79182517D01*
X20086202Y79047672D01*
X20086206Y79047665D01*
X20172452Y78932456D01*
X20172455Y78932453D01*
X20287664Y78846207D01*
X20287671Y78846203D01*
X20325387Y78832136D01*
X20422517Y78795909D01*
X20459441Y78791940D01*
X20523989Y78765204D01*
X20563838Y78707812D01*
X20566333Y78637987D01*
X20530681Y78577898D01*
X20519071Y78568334D01*
X20482784Y78541970D01*
X20338028Y78397214D01*
X20217715Y78231614D01*
X20124781Y78049224D01*
X20061522Y77854535D01*
X20029500Y77652352D01*
X20029500Y77447649D01*
X20061522Y77245466D01*
X20124781Y77050777D01*
X20188691Y76925347D01*
X20214978Y76873757D01*
X20217715Y76868387D01*
X20338028Y76702787D01*
X20482786Y76558029D01*
X20637749Y76445444D01*
X20648390Y76437713D01*
X20739840Y76391117D01*
X20741080Y76390485D01*
X20791876Y76342510D01*
X20808671Y76274689D01*
X20786134Y76208554D01*
X20741080Y76169515D01*
X20648386Y76122285D01*
X20482786Y76001972D01*
X20338028Y75857214D01*
X20217715Y75691614D01*
X20124781Y75509224D01*
X20061522Y75314535D01*
X20029500Y75112352D01*
X20029500Y74907649D01*
X20061522Y74705466D01*
X20124781Y74510777D01*
X20152179Y74457007D01*
X20214920Y74333871D01*
X20217715Y74328387D01*
X20338028Y74162787D01*
X20482786Y74018029D01*
X20637749Y73905444D01*
X20648390Y73897713D01*
X20720424Y73861010D01*
X20741629Y73850205D01*
X20792425Y73802230D01*
X20809220Y73734409D01*
X20786682Y73668274D01*
X20741629Y73629235D01*
X20648650Y73581860D01*
X20483105Y73461583D01*
X20483104Y73461583D01*
X20338417Y73316896D01*
X20338417Y73316895D01*
X20218140Y73151350D01*
X20125244Y72969030D01*
X20062009Y72774414D01*
X20053391Y72720000D01*
X21014314Y72720000D01*
X21009920Y72715606D01*
X20957259Y72624394D01*
X20930000Y72522661D01*
X20930000Y72417339D01*
X20957259Y72315606D01*
X21009920Y72224394D01*
X21014314Y72220000D01*
X20053391Y72220000D01*
X20062009Y72165587D01*
X20125244Y71970971D01*
X20218140Y71788651D01*
X20338417Y71623106D01*
X20338417Y71623105D01*
X20483104Y71478418D01*
X20648650Y71358141D01*
X20830968Y71265246D01*
X21025578Y71202012D01*
X21080000Y71193393D01*
X21080000Y72154314D01*
X21084394Y72149920D01*
X21175606Y72097259D01*
X21277339Y72070000D01*
X21382661Y72070000D01*
X21484394Y72097259D01*
X21575606Y72149920D01*
X21580000Y72154314D01*
X21580000Y71193394D01*
X21634421Y71202012D01*
X21829031Y71265246D01*
X22011349Y71358141D01*
X22176894Y71478418D01*
X22176895Y71478418D01*
X22321582Y71623105D01*
X22321582Y71623106D01*
X22441859Y71788651D01*
X22534755Y71970971D01*
X22597990Y72165587D01*
X22606609Y72220000D01*
X21645686Y72220000D01*
X21650080Y72224394D01*
X21702741Y72315606D01*
X21730000Y72417339D01*
X21730000Y72522661D01*
X21702741Y72624394D01*
X21650080Y72715606D01*
X21645686Y72720000D01*
X22606609Y72720000D01*
X22597990Y72774414D01*
X22534755Y72969030D01*
X22441859Y73151350D01*
X22321582Y73316895D01*
X22321582Y73316896D01*
X22176895Y73461583D01*
X22011349Y73581860D01*
X21918370Y73629235D01*
X21867574Y73677210D01*
X21850779Y73745031D01*
X21873316Y73811165D01*
X21918370Y73850205D01*
X21918920Y73850485D01*
X22011610Y73897713D01*
X22073176Y73942443D01*
X22177213Y74018029D01*
X22177215Y74018032D01*
X22177219Y74018034D01*
X22321966Y74162781D01*
X22321968Y74162785D01*
X22321971Y74162787D01*
X22385262Y74249901D01*
X22442287Y74328390D01*
X22535220Y74510781D01*
X22598477Y74705466D01*
X22630500Y74907648D01*
X22630500Y75112352D01*
X22598477Y75314534D01*
X22535220Y75509219D01*
X22535218Y75509222D01*
X22535218Y75509224D01*
X22501503Y75575393D01*
X22442287Y75691610D01*
X22434556Y75702251D01*
X22321971Y75857214D01*
X22177213Y76001972D01*
X22011614Y76122285D01*
X22005006Y76125652D01*
X21918917Y76169517D01*
X21868123Y76217489D01*
X21851328Y76285310D01*
X21873865Y76351445D01*
X21918917Y76390484D01*
X22011610Y76437713D01*
X22072820Y76482184D01*
X22177213Y76558029D01*
X22177215Y76558032D01*
X22177219Y76558034D01*
X22321966Y76702781D01*
X22321968Y76702785D01*
X22321971Y76702787D01*
X22374732Y76775410D01*
X22442287Y76868390D01*
X22535220Y77050781D01*
X22598477Y77245466D01*
X22630500Y77447648D01*
X22630500Y77652352D01*
X22621620Y77708415D01*
X22598477Y77854535D01*
X22535218Y78049224D01*
X22466888Y78183327D01*
X22442287Y78231610D01*
X22432813Y78244650D01*
X22321971Y78397214D01*
X22177219Y78541966D01*
X22140930Y78568331D01*
X22098264Y78623661D01*
X22092285Y78693274D01*
X22124890Y78755069D01*
X22185728Y78789427D01*
X22200562Y78791940D01*
X22237483Y78795909D01*
X22334562Y78832117D01*
X22372331Y78846204D01*
X22487546Y78932454D01*
X22573796Y79047669D01*
X22624091Y79182517D01*
X22630500Y79242127D01*
X22630499Y80192352D01*
X27649500Y80192352D01*
X27649500Y79987649D01*
X27681522Y79785466D01*
X27744781Y79590777D01*
X27837715Y79408387D01*
X27958028Y79242787D01*
X28102786Y79098029D01*
X28257749Y78985444D01*
X28268390Y78977713D01*
X28340424Y78941010D01*
X28361629Y78930205D01*
X28412425Y78882230D01*
X28429220Y78814409D01*
X28406682Y78748274D01*
X28361629Y78709235D01*
X28268650Y78661860D01*
X28103105Y78541583D01*
X28103104Y78541583D01*
X27958417Y78396896D01*
X27958417Y78396895D01*
X27838140Y78231350D01*
X27745244Y78049030D01*
X27682009Y77854414D01*
X27673391Y77800000D01*
X28634314Y77800000D01*
X28629920Y77795606D01*
X28577259Y77704394D01*
X28550000Y77602661D01*
X28550000Y77497339D01*
X28577259Y77395606D01*
X28629920Y77304394D01*
X28634314Y77300000D01*
X27673391Y77300000D01*
X27682009Y77245587D01*
X27745244Y77050971D01*
X27838140Y76868651D01*
X27958417Y76703106D01*
X27958417Y76703105D01*
X28103104Y76558418D01*
X28268652Y76438139D01*
X28361628Y76390766D01*
X28412425Y76342792D01*
X28429220Y76274971D01*
X28406683Y76208836D01*
X28361630Y76169797D01*
X28268388Y76122287D01*
X28102786Y76001972D01*
X27958028Y75857214D01*
X27837715Y75691614D01*
X27744781Y75509224D01*
X27681522Y75314535D01*
X27649500Y75112352D01*
X27649500Y74907649D01*
X27681522Y74705466D01*
X27744781Y74510777D01*
X27772179Y74457007D01*
X27834920Y74333871D01*
X27837715Y74328387D01*
X27958028Y74162787D01*
X28102786Y74018029D01*
X28257749Y73905444D01*
X28268390Y73897713D01*
X28359840Y73851117D01*
X28361080Y73850485D01*
X28411876Y73802510D01*
X28428671Y73734689D01*
X28406134Y73668554D01*
X28361080Y73629515D01*
X28268386Y73582285D01*
X28102786Y73461972D01*
X27958028Y73317214D01*
X27837715Y73151614D01*
X27744781Y72969224D01*
X27681522Y72774535D01*
X27649500Y72572352D01*
X27649500Y72367649D01*
X27681522Y72165466D01*
X27744781Y71970777D01*
X27837715Y71788387D01*
X27958028Y71622787D01*
X28102786Y71478029D01*
X28257749Y71365444D01*
X28268390Y71357713D01*
X28384607Y71298497D01*
X28450776Y71264782D01*
X28450778Y71264782D01*
X28450781Y71264780D01*
X28555137Y71230873D01*
X28645465Y71201523D01*
X28746557Y71185512D01*
X28847648Y71169500D01*
X28847649Y71169500D01*
X29052351Y71169500D01*
X29052352Y71169500D01*
X29254534Y71201523D01*
X29449219Y71264780D01*
X29631610Y71357713D01*
X29724590Y71425268D01*
X29797213Y71478029D01*
X29797215Y71478032D01*
X29797219Y71478034D01*
X29941966Y71622781D01*
X29941968Y71622785D01*
X29941971Y71622787D01*
X29994732Y71695410D01*
X30062287Y71788390D01*
X30155220Y71970781D01*
X30218477Y72165466D01*
X30250500Y72367648D01*
X30250500Y72572352D01*
X30242257Y72624394D01*
X30218477Y72774535D01*
X30155218Y72969224D01*
X30062419Y73151350D01*
X30062287Y73151610D01*
X30054556Y73162251D01*
X29941971Y73317214D01*
X29797213Y73461972D01*
X29631614Y73582285D01*
X29557058Y73620273D01*
X29538917Y73629517D01*
X29488123Y73677489D01*
X29471328Y73745310D01*
X29493865Y73811445D01*
X29538917Y73850484D01*
X29631610Y73897713D01*
X29693176Y73942443D01*
X29797213Y74018029D01*
X29797215Y74018032D01*
X29797219Y74018034D01*
X29941966Y74162781D01*
X29941968Y74162785D01*
X29941971Y74162787D01*
X30005262Y74249901D01*
X30062287Y74328390D01*
X30155220Y74510781D01*
X30218477Y74705466D01*
X30250500Y74907648D01*
X30250500Y75112352D01*
X30218477Y75314534D01*
X30155220Y75509219D01*
X30155218Y75509222D01*
X30155218Y75509224D01*
X30121503Y75575393D01*
X30062287Y75691610D01*
X30054556Y75702251D01*
X29941971Y75857214D01*
X29797213Y76001972D01*
X29631611Y76122287D01*
X29538369Y76169797D01*
X29487574Y76217771D01*
X29470779Y76285593D01*
X29493317Y76351727D01*
X29538371Y76390766D01*
X29631347Y76438139D01*
X29796894Y76558418D01*
X29796895Y76558418D01*
X29941582Y76703105D01*
X29941582Y76703106D01*
X30061859Y76868651D01*
X30154755Y77050971D01*
X30217990Y77245587D01*
X30226609Y77300000D01*
X29265686Y77300000D01*
X29270080Y77304394D01*
X29322741Y77395606D01*
X29350000Y77497339D01*
X29350000Y77602661D01*
X29322741Y77704394D01*
X29270080Y77795606D01*
X29265686Y77800000D01*
X30226609Y77800000D01*
X30217990Y77854414D01*
X30154755Y78049030D01*
X30061859Y78231350D01*
X29941582Y78396895D01*
X29941582Y78396896D01*
X29796895Y78541583D01*
X29631349Y78661860D01*
X29538370Y78709235D01*
X29487574Y78757210D01*
X29470779Y78825031D01*
X29493316Y78891165D01*
X29538370Y78930205D01*
X29542788Y78932456D01*
X29631610Y78977713D01*
X29652770Y78993087D01*
X29797213Y79098029D01*
X29797215Y79098032D01*
X29797219Y79098034D01*
X29941966Y79242781D01*
X29941968Y79242785D01*
X29941971Y79242787D01*
X29994732Y79315410D01*
X30062287Y79408390D01*
X30155220Y79590781D01*
X30218477Y79785466D01*
X30250500Y79987648D01*
X30250500Y80192352D01*
X30218477Y80394534D01*
X30155220Y80589219D01*
X30155218Y80589222D01*
X30155218Y80589224D01*
X30105151Y80687484D01*
X30062287Y80771610D01*
X30025438Y80822329D01*
X29941971Y80937214D01*
X29797213Y81081972D01*
X29631613Y81202285D01*
X29631612Y81202286D01*
X29631610Y81202287D01*
X29574653Y81231309D01*
X29449223Y81295219D01*
X29254534Y81358478D01*
X29079995Y81386122D01*
X29052352Y81390500D01*
X28847648Y81390500D01*
X28823329Y81386649D01*
X28645465Y81358478D01*
X28450776Y81295219D01*
X28268386Y81202285D01*
X28102786Y81081972D01*
X27958028Y80937214D01*
X27837715Y80771614D01*
X27744781Y80589224D01*
X27681522Y80394535D01*
X27649500Y80192352D01*
X22630499Y80192352D01*
X22630499Y80937872D01*
X22624091Y80997483D01*
X22573796Y81132331D01*
X22573795Y81132332D01*
X22573793Y81132336D01*
X22487547Y81247545D01*
X22487544Y81247548D01*
X22372335Y81333794D01*
X22372328Y81333798D01*
X22237482Y81384092D01*
X22237483Y81384092D01*
X22177883Y81390499D01*
X22177881Y81390500D01*
X22177873Y81390500D01*
X22177864Y81390500D01*
X20482129Y81390500D01*
X20482123Y81390499D01*
X20422516Y81384092D01*
X20287671Y81333798D01*
X20287664Y81333794D01*
X20172455Y81247548D01*
X20172452Y81247545D01*
X20086206Y81132336D01*
X20086202Y81132329D01*
X20035908Y80997483D01*
X20029501Y80937884D01*
X20029501Y80937877D01*
X20029500Y80937865D01*
X11507121Y80937865D01*
X11392335Y81023794D01*
X11392328Y81023798D01*
X11257482Y81074092D01*
X11257483Y81074092D01*
X11197883Y81080499D01*
X11197881Y81080500D01*
X11197873Y81080500D01*
X11197864Y81080500D01*
X9402129Y81080500D01*
X9402123Y81080499D01*
X9342516Y81074092D01*
X9207671Y81023798D01*
X9207664Y81023794D01*
X9092455Y80937548D01*
X9092452Y80937545D01*
X9006206Y80822336D01*
X9006202Y80822329D01*
X8955908Y80687483D01*
X8949501Y80627884D01*
X8949501Y80627877D01*
X8949500Y80627865D01*
X7500500Y80627865D01*
X7500500Y83375500D01*
X7520185Y83442539D01*
X7572989Y83488294D01*
X7624500Y83499500D01*
X31375500Y83499500D01*
X31442539Y83479815D01*
G37*
G04 #@! TD.AperFunction*
G04 #@! TD*
G04 #@! TA.AperFunction,Conductor*
G04 #@! TO.N,Board_2-GND*
G36*
X31442539Y42479815D02*
G01*
X31488294Y42427011D01*
X31499500Y42375500D01*
X31499500Y7624500D01*
X31479815Y7557461D01*
X31427011Y7511706D01*
X31375500Y7500500D01*
X7624500Y7500500D01*
X7557461Y7520185D01*
X7511706Y7572989D01*
X7500500Y7624500D01*
X7500500Y17127865D01*
X8949500Y17127865D01*
X8949500Y15332130D01*
X8949501Y15332124D01*
X8955908Y15272517D01*
X9006202Y15137672D01*
X9006206Y15137665D01*
X9092452Y15022456D01*
X9092455Y15022453D01*
X9207664Y14936207D01*
X9207671Y14936203D01*
X9339082Y14887190D01*
X9395016Y14845319D01*
X9419433Y14779855D01*
X9404582Y14711582D01*
X9383431Y14683327D01*
X9269889Y14569785D01*
X9144951Y14397821D01*
X9048444Y14208415D01*
X8982753Y14006240D01*
X8949500Y13796287D01*
X8949500Y13583714D01*
X8982753Y13373761D01*
X9048444Y13171586D01*
X9144951Y12982180D01*
X9269890Y12810214D01*
X9420213Y12659891D01*
X9592179Y12534952D01*
X9592181Y12534951D01*
X9592184Y12534949D01*
X9601493Y12530206D01*
X9652290Y12482234D01*
X9669087Y12414413D01*
X9646552Y12348278D01*
X9601502Y12309238D01*
X9592443Y12304622D01*
X9420540Y12179728D01*
X9420535Y12179724D01*
X9270276Y12029465D01*
X9270272Y12029460D01*
X9145379Y11857558D01*
X9048904Y11668218D01*
X8983242Y11466130D01*
X8983242Y11466127D01*
X8972769Y11400000D01*
X9866988Y11400000D01*
X9834075Y11342993D01*
X9800000Y11215826D01*
X9800000Y11084174D01*
X9834075Y10957007D01*
X9866988Y10900000D01*
X8972769Y10900000D01*
X8983242Y10833874D01*
X8983242Y10833871D01*
X9048904Y10631783D01*
X9145379Y10442443D01*
X9270272Y10270541D01*
X9270276Y10270536D01*
X9420535Y10120277D01*
X9420540Y10120273D01*
X9592442Y9995380D01*
X9781782Y9898905D01*
X9983871Y9833243D01*
X10050000Y9822769D01*
X10050000Y10716988D01*
X10107007Y10684075D01*
X10234174Y10650000D01*
X10365826Y10650000D01*
X10492993Y10684075D01*
X10550000Y10716988D01*
X10550000Y9822770D01*
X10616126Y9833243D01*
X10616129Y9833243D01*
X10818217Y9898905D01*
X11007557Y9995380D01*
X11179459Y10120273D01*
X11179464Y10120277D01*
X11329723Y10270536D01*
X11329727Y10270541D01*
X11392025Y10356287D01*
X19469500Y10356287D01*
X19469500Y10143713D01*
X19502754Y9933757D01*
X19538816Y9822769D01*
X19568444Y9731586D01*
X19664951Y9542180D01*
X19789890Y9370214D01*
X19940213Y9219891D01*
X20112179Y9094952D01*
X20112181Y9094951D01*
X20112184Y9094949D01*
X20301588Y8998443D01*
X20503757Y8932754D01*
X20713713Y8899500D01*
X20713714Y8899500D01*
X20926286Y8899500D01*
X20926287Y8899500D01*
X21136243Y8932754D01*
X21338412Y8998443D01*
X21527816Y9094949D01*
X21614138Y9157665D01*
X21699786Y9219891D01*
X21699788Y9219894D01*
X21699792Y9219896D01*
X21850104Y9370208D01*
X21850106Y9370212D01*
X21850109Y9370214D01*
X21975048Y9542180D01*
X21975047Y9542180D01*
X21975051Y9542184D01*
X21979514Y9550946D01*
X22027488Y9601741D01*
X22095308Y9618537D01*
X22161444Y9596001D01*
X22200486Y9550944D01*
X22204951Y9542180D01*
X22329890Y9370214D01*
X22480213Y9219891D01*
X22652179Y9094952D01*
X22652181Y9094951D01*
X22652184Y9094949D01*
X22841588Y8998443D01*
X23043757Y8932754D01*
X23253713Y8899500D01*
X23253714Y8899500D01*
X23466286Y8899500D01*
X23466287Y8899500D01*
X23676243Y8932754D01*
X23878412Y8998443D01*
X24067816Y9094949D01*
X24154138Y9157665D01*
X24239786Y9219891D01*
X24239788Y9219894D01*
X24239792Y9219896D01*
X24390104Y9370208D01*
X24390106Y9370212D01*
X24390109Y9370214D01*
X24515048Y9542180D01*
X24515051Y9542184D01*
X24519793Y9551492D01*
X24567763Y9602289D01*
X24635583Y9619089D01*
X24701719Y9596555D01*
X24740763Y9551500D01*
X24745377Y9542445D01*
X24870272Y9370541D01*
X24870276Y9370536D01*
X25020535Y9220277D01*
X25020540Y9220273D01*
X25192442Y9095380D01*
X25381782Y8998905D01*
X25583871Y8933243D01*
X25650000Y8922769D01*
X25650000Y9816988D01*
X25707007Y9784075D01*
X25834174Y9750000D01*
X25965826Y9750000D01*
X26092993Y9784075D01*
X26150000Y9816988D01*
X26150000Y8922770D01*
X26216126Y8933243D01*
X26216129Y8933243D01*
X26418217Y8998905D01*
X26607557Y9095380D01*
X26779458Y9220272D01*
X26893133Y9333947D01*
X26954456Y9367432D01*
X27024148Y9362448D01*
X27080082Y9320577D01*
X27096997Y9289599D01*
X27146202Y9157672D01*
X27146206Y9157665D01*
X27232452Y9042456D01*
X27232455Y9042453D01*
X27347664Y8956207D01*
X27347671Y8956203D01*
X27482517Y8905909D01*
X27482516Y8905909D01*
X27489444Y8905165D01*
X27542127Y8899500D01*
X29337872Y8899501D01*
X29397483Y8905909D01*
X29532331Y8956204D01*
X29647546Y9042454D01*
X29733796Y9157669D01*
X29784091Y9292517D01*
X29790500Y9352127D01*
X29790499Y11147872D01*
X29784091Y11207483D01*
X29783002Y11210402D01*
X29733797Y11342329D01*
X29733793Y11342336D01*
X29647547Y11457545D01*
X29647544Y11457548D01*
X29532335Y11543794D01*
X29532328Y11543798D01*
X29397482Y11594092D01*
X29397483Y11594092D01*
X29337883Y11600499D01*
X29337881Y11600500D01*
X29337873Y11600500D01*
X29337864Y11600500D01*
X27542129Y11600500D01*
X27542123Y11600499D01*
X27482516Y11594092D01*
X27347671Y11543798D01*
X27347664Y11543794D01*
X27232455Y11457548D01*
X27232452Y11457545D01*
X27146206Y11342336D01*
X27146202Y11342329D01*
X27096997Y11210402D01*
X27055126Y11154468D01*
X26989661Y11130051D01*
X26921388Y11144903D01*
X26893134Y11166054D01*
X26779464Y11279724D01*
X26779459Y11279728D01*
X26607557Y11404621D01*
X26418215Y11501097D01*
X26216124Y11566759D01*
X26150000Y11577232D01*
X26150000Y10683012D01*
X26092993Y10715925D01*
X25965826Y10750000D01*
X25834174Y10750000D01*
X25707007Y10715925D01*
X25650000Y10683012D01*
X25650000Y11577232D01*
X25649999Y11577232D01*
X25583875Y11566759D01*
X25381784Y11501097D01*
X25192442Y11404621D01*
X25020540Y11279728D01*
X25020535Y11279724D01*
X24870276Y11129465D01*
X24870272Y11129460D01*
X24745378Y10957557D01*
X24740762Y10948498D01*
X24692784Y10897705D01*
X24624963Y10880913D01*
X24558829Y10903454D01*
X24519794Y10948507D01*
X24515051Y10957816D01*
X24515049Y10957819D01*
X24515048Y10957821D01*
X24390109Y11129787D01*
X24239786Y11280110D01*
X24067820Y11405049D01*
X23878414Y11501556D01*
X23878413Y11501557D01*
X23878412Y11501557D01*
X23676243Y11567246D01*
X23676241Y11567247D01*
X23676240Y11567247D01*
X23514957Y11592792D01*
X23466287Y11600500D01*
X23253713Y11600500D01*
X23205042Y11592792D01*
X23043760Y11567247D01*
X22841585Y11501556D01*
X22652179Y11405049D01*
X22480213Y11280110D01*
X22329890Y11129787D01*
X22204949Y10957818D01*
X22200484Y10949054D01*
X22152509Y10898258D01*
X22084688Y10881464D01*
X22018553Y10904002D01*
X21979516Y10949054D01*
X21975050Y10957818D01*
X21850109Y11129787D01*
X21699786Y11280110D01*
X21527820Y11405049D01*
X21338414Y11501556D01*
X21338413Y11501557D01*
X21338412Y11501557D01*
X21136243Y11567246D01*
X21136241Y11567247D01*
X21136240Y11567247D01*
X20974957Y11592792D01*
X20926287Y11600500D01*
X20713713Y11600500D01*
X20665042Y11592792D01*
X20503760Y11567247D01*
X20301585Y11501556D01*
X20112179Y11405049D01*
X19940213Y11280110D01*
X19789890Y11129787D01*
X19664951Y10957821D01*
X19568444Y10768415D01*
X19502753Y10566240D01*
X19469500Y10356287D01*
X11392025Y10356287D01*
X11448519Y10434044D01*
X11448519Y10434045D01*
X11448520Y10434046D01*
X11454622Y10442445D01*
X11551095Y10631783D01*
X11616757Y10833871D01*
X11616757Y10833874D01*
X11627231Y10900000D01*
X10733012Y10900000D01*
X10765925Y10957007D01*
X10800000Y11084174D01*
X10800000Y11215826D01*
X10765925Y11342993D01*
X10733012Y11400000D01*
X11627231Y11400000D01*
X11616757Y11466127D01*
X11616757Y11466130D01*
X11551095Y11668218D01*
X11454620Y11857558D01*
X11329727Y12029460D01*
X11329723Y12029465D01*
X11179464Y12179724D01*
X11179459Y12179728D01*
X11007555Y12304623D01*
X10998500Y12309237D01*
X10947706Y12357212D01*
X10930912Y12425034D01*
X10953451Y12491168D01*
X10998508Y12530207D01*
X11007816Y12534949D01*
X11087007Y12592485D01*
X11179786Y12659891D01*
X11179788Y12659894D01*
X11179792Y12659896D01*
X11330104Y12810208D01*
X11330106Y12810212D01*
X11330109Y12810214D01*
X11455048Y12982180D01*
X11455047Y12982180D01*
X11455051Y12982184D01*
X11551557Y13171588D01*
X11617246Y13373757D01*
X11650500Y13583713D01*
X11650500Y13796287D01*
X11617246Y14006243D01*
X11551557Y14208412D01*
X11455051Y14397816D01*
X11455049Y14397819D01*
X11455048Y14397821D01*
X11330109Y14569787D01*
X11216569Y14683327D01*
X11201823Y14710331D01*
X11185221Y14736249D01*
X11185227Y14740725D01*
X11183084Y14744650D01*
X11185279Y14775346D01*
X11185325Y14806118D01*
X11187748Y14809878D01*
X11188068Y14814342D01*
X11206513Y14838982D01*
X11215112Y14852318D01*
X24600000Y14852318D01*
X24600000Y14647683D01*
X24632009Y14445583D01*
X24695244Y14250969D01*
X24788141Y14068650D01*
X24788147Y14068641D01*
X24820523Y14024079D01*
X24820524Y14024078D01*
X25500000Y14703554D01*
X25500000Y14697339D01*
X25527259Y14595606D01*
X25579920Y14504394D01*
X25654394Y14429920D01*
X25745606Y14377259D01*
X25847339Y14350000D01*
X25853553Y14350000D01*
X25174076Y13670526D01*
X25218650Y13638141D01*
X25400968Y13545245D01*
X25595582Y13482010D01*
X25797683Y13450000D01*
X26002317Y13450000D01*
X26204417Y13482010D01*
X26399031Y13545245D01*
X26581349Y13638141D01*
X26625921Y13670526D01*
X25946447Y14350000D01*
X25952661Y14350000D01*
X26054394Y14377259D01*
X26145606Y14429920D01*
X26220080Y14504394D01*
X26272741Y14595606D01*
X26300000Y14697339D01*
X26300000Y14703553D01*
X26979474Y14024079D01*
X27011859Y14068651D01*
X27039233Y14122376D01*
X27087207Y14173173D01*
X27155028Y14189969D01*
X27221163Y14167433D01*
X27260203Y14122379D01*
X27287713Y14068389D01*
X27408028Y13902787D01*
X27552786Y13758029D01*
X27673226Y13670526D01*
X27718390Y13637713D01*
X27824369Y13583714D01*
X27900776Y13544782D01*
X27900778Y13544782D01*
X27900781Y13544780D01*
X28005137Y13510873D01*
X28095465Y13481523D01*
X28196557Y13465512D01*
X28297648Y13449500D01*
X28297649Y13449500D01*
X28502351Y13449500D01*
X28502352Y13449500D01*
X28704534Y13481523D01*
X28899219Y13544780D01*
X29081610Y13637713D01*
X29174590Y13705268D01*
X29247213Y13758029D01*
X29247215Y13758032D01*
X29247219Y13758034D01*
X29391966Y13902781D01*
X29391968Y13902785D01*
X29391971Y13902787D01*
X29444732Y13975410D01*
X29512287Y14068390D01*
X29605220Y14250781D01*
X29668477Y14445466D01*
X29700500Y14647648D01*
X29700500Y14852352D01*
X29687219Y14936204D01*
X29668477Y15054535D01*
X29637458Y15150000D01*
X29605220Y15249219D01*
X29605218Y15249222D01*
X29605218Y15249224D01*
X29562975Y15332130D01*
X29512287Y15431610D01*
X29480092Y15475923D01*
X29391971Y15597214D01*
X29247213Y15741972D01*
X29081613Y15862285D01*
X29081612Y15862286D01*
X29081610Y15862287D01*
X29024653Y15891309D01*
X28899223Y15955219D01*
X28704534Y16018478D01*
X28529995Y16046122D01*
X28502352Y16050500D01*
X28297648Y16050500D01*
X28273329Y16046649D01*
X28095465Y16018478D01*
X27900776Y15955219D01*
X27718386Y15862285D01*
X27552786Y15741972D01*
X27408028Y15597214D01*
X27287714Y15431614D01*
X27260203Y15377621D01*
X27212227Y15326826D01*
X27144406Y15310032D01*
X27078272Y15332571D01*
X27039234Y15377624D01*
X27011861Y15431348D01*
X26979474Y15475923D01*
X26979474Y15475924D01*
X26300000Y14796449D01*
X26300000Y14802661D01*
X26272741Y14904394D01*
X26220080Y14995606D01*
X26145606Y15070080D01*
X26054394Y15122741D01*
X25952661Y15150000D01*
X25946446Y15150000D01*
X26625922Y15829476D01*
X26625921Y15829477D01*
X26581359Y15861853D01*
X26581350Y15861859D01*
X26399031Y15954756D01*
X26204417Y16017991D01*
X26002317Y16050000D01*
X25797683Y16050000D01*
X25595582Y16017991D01*
X25400968Y15954756D01*
X25218644Y15861857D01*
X25174077Y15829477D01*
X25174077Y15829476D01*
X25853554Y15150000D01*
X25847339Y15150000D01*
X25745606Y15122741D01*
X25654394Y15070080D01*
X25579920Y14995606D01*
X25527259Y14904394D01*
X25500000Y14802661D01*
X25500000Y14796447D01*
X24820524Y15475923D01*
X24820523Y15475923D01*
X24788143Y15431356D01*
X24695244Y15249032D01*
X24632009Y15054418D01*
X24600000Y14852318D01*
X11215112Y14852318D01*
X11223186Y14864841D01*
X11228011Y14867700D01*
X11229940Y14870275D01*
X11252905Y14883878D01*
X11257334Y14885894D01*
X11257483Y14885909D01*
X11392331Y14936204D01*
X11507546Y15022454D01*
X11593796Y15137669D01*
X11644091Y15272517D01*
X11650500Y15332127D01*
X11650499Y17127872D01*
X11644091Y17187483D01*
X11593796Y17322331D01*
X11593795Y17322332D01*
X11593793Y17322336D01*
X11507547Y17437545D01*
X11507544Y17437548D01*
X11392335Y17523794D01*
X11392328Y17523798D01*
X11257482Y17574092D01*
X11257483Y17574092D01*
X11197883Y17580499D01*
X11197881Y17580500D01*
X11197873Y17580500D01*
X11197864Y17580500D01*
X9402129Y17580500D01*
X9402123Y17580499D01*
X9342516Y17574092D01*
X9207671Y17523798D01*
X9207664Y17523794D01*
X9092455Y17437548D01*
X9092452Y17437545D01*
X9006206Y17322336D01*
X9006202Y17322329D01*
X8955908Y17187483D01*
X8949501Y17127884D01*
X8949501Y17127877D01*
X8949500Y17127865D01*
X7500500Y17127865D01*
X7500500Y19152352D01*
X20199500Y19152352D01*
X20199500Y18947649D01*
X20231522Y18745466D01*
X20294781Y18550777D01*
X20387715Y18368387D01*
X20508028Y18202787D01*
X20652786Y18058029D01*
X20807749Y17945444D01*
X20818390Y17937713D01*
X20934607Y17878497D01*
X21000776Y17844782D01*
X21000778Y17844782D01*
X21000781Y17844780D01*
X21105137Y17810873D01*
X21195465Y17781523D01*
X21296557Y17765512D01*
X21397648Y17749500D01*
X21397649Y17749500D01*
X21602351Y17749500D01*
X21602352Y17749500D01*
X21804534Y17781523D01*
X21999219Y17844780D01*
X22181610Y17937713D01*
X22274590Y18005268D01*
X22347213Y18058029D01*
X22347215Y18058032D01*
X22347219Y18058034D01*
X22491966Y18202781D01*
X22491968Y18202785D01*
X22491971Y18202787D01*
X22544732Y18275410D01*
X22612287Y18368390D01*
X22705220Y18550781D01*
X22768477Y18745466D01*
X22800500Y18947648D01*
X22800500Y19152352D01*
X27819500Y19152352D01*
X27819500Y18947649D01*
X27851522Y18745466D01*
X27914781Y18550777D01*
X28007715Y18368387D01*
X28128028Y18202787D01*
X28272786Y18058029D01*
X28427749Y17945444D01*
X28438390Y17937713D01*
X28554607Y17878497D01*
X28620776Y17844782D01*
X28620778Y17844782D01*
X28620781Y17844780D01*
X28725137Y17810873D01*
X28815465Y17781523D01*
X28916557Y17765512D01*
X29017648Y17749500D01*
X29017649Y17749500D01*
X29222351Y17749500D01*
X29222352Y17749500D01*
X29424534Y17781523D01*
X29619219Y17844780D01*
X29801610Y17937713D01*
X29894590Y18005268D01*
X29967213Y18058029D01*
X29967215Y18058032D01*
X29967219Y18058034D01*
X30111966Y18202781D01*
X30111968Y18202785D01*
X30111971Y18202787D01*
X30164732Y18275410D01*
X30232287Y18368390D01*
X30325220Y18550781D01*
X30388477Y18745466D01*
X30420500Y18947648D01*
X30420500Y19152352D01*
X30388477Y19354534D01*
X30325220Y19549219D01*
X30325218Y19549222D01*
X30325218Y19549224D01*
X30291503Y19615393D01*
X30232287Y19731610D01*
X30224556Y19742251D01*
X30111971Y19897214D01*
X29967213Y20041972D01*
X29801613Y20162285D01*
X29801612Y20162286D01*
X29801610Y20162287D01*
X29717014Y20205391D01*
X29619223Y20255219D01*
X29424534Y20318478D01*
X29249995Y20346122D01*
X29222352Y20350500D01*
X29017648Y20350500D01*
X28993329Y20346649D01*
X28815465Y20318478D01*
X28620776Y20255219D01*
X28438386Y20162285D01*
X28272786Y20041972D01*
X28128028Y19897214D01*
X28007715Y19731614D01*
X27914781Y19549224D01*
X27851522Y19354535D01*
X27819500Y19152352D01*
X22800500Y19152352D01*
X22768477Y19354534D01*
X22705220Y19549219D01*
X22705218Y19549222D01*
X22705218Y19549224D01*
X22671503Y19615393D01*
X22612287Y19731610D01*
X22604556Y19742251D01*
X22491971Y19897214D01*
X22347213Y20041972D01*
X22181613Y20162285D01*
X22181612Y20162286D01*
X22181610Y20162287D01*
X22097014Y20205391D01*
X21999223Y20255219D01*
X21804534Y20318478D01*
X21629995Y20346122D01*
X21602352Y20350500D01*
X21397648Y20350500D01*
X21373329Y20346649D01*
X21195465Y20318478D01*
X21000776Y20255219D01*
X20818386Y20162285D01*
X20652786Y20041972D01*
X20508028Y19897214D01*
X20387715Y19731614D01*
X20294781Y19549224D01*
X20231522Y19354535D01*
X20199500Y19152352D01*
X7500500Y19152352D01*
X7500500Y28142865D01*
X8949500Y28142865D01*
X8949500Y26347130D01*
X8949501Y26347124D01*
X8955908Y26287517D01*
X9006202Y26152672D01*
X9006206Y26152665D01*
X9092452Y26037456D01*
X9092455Y26037453D01*
X9207664Y25951207D01*
X9207671Y25951203D01*
X9339082Y25902190D01*
X9395016Y25860319D01*
X9419433Y25794855D01*
X9404582Y25726582D01*
X9383431Y25698327D01*
X9269889Y25584785D01*
X9144951Y25412821D01*
X9048444Y25223415D01*
X8982753Y25021240D01*
X8979513Y25000781D01*
X8949500Y24811287D01*
X8949500Y24598713D01*
X8982754Y24388757D01*
X9013288Y24294782D01*
X9048444Y24186586D01*
X9144951Y23997180D01*
X9269890Y23825214D01*
X9420213Y23674891D01*
X9592179Y23549952D01*
X9592181Y23549951D01*
X9592184Y23549949D01*
X9601493Y23545206D01*
X9652290Y23497234D01*
X9669087Y23429413D01*
X9646552Y23363278D01*
X9601502Y23324238D01*
X9592443Y23319622D01*
X9420540Y23194728D01*
X9420535Y23194724D01*
X9270276Y23044465D01*
X9270272Y23044460D01*
X9145379Y22872558D01*
X9048904Y22683218D01*
X8983242Y22481130D01*
X8983242Y22481127D01*
X8972769Y22415000D01*
X9866988Y22415000D01*
X9834075Y22357993D01*
X9800000Y22230826D01*
X9800000Y22099174D01*
X9834075Y21972007D01*
X9866988Y21915000D01*
X8972769Y21915000D01*
X8983242Y21848874D01*
X8983242Y21848871D01*
X9048904Y21646783D01*
X9145379Y21457443D01*
X9270272Y21285541D01*
X9270276Y21285536D01*
X9420535Y21135277D01*
X9420540Y21135273D01*
X9592442Y21010380D01*
X9781782Y20913905D01*
X9983871Y20848243D01*
X10050000Y20837769D01*
X10050000Y21731988D01*
X10107007Y21699075D01*
X10234174Y21665000D01*
X10365826Y21665000D01*
X10492993Y21699075D01*
X10550000Y21731988D01*
X10550000Y20837770D01*
X10616126Y20848243D01*
X10616129Y20848243D01*
X10818217Y20913905D01*
X11007557Y21010380D01*
X11179459Y21135273D01*
X11179464Y21135277D01*
X11329723Y21285536D01*
X11329727Y21285541D01*
X11454620Y21457443D01*
X11551095Y21646783D01*
X11616757Y21848871D01*
X11616757Y21848874D01*
X11627231Y21915000D01*
X10733012Y21915000D01*
X10765925Y21972007D01*
X10800000Y22099174D01*
X10800000Y22230826D01*
X10775760Y22321289D01*
X15199500Y22321289D01*
X15199500Y22078712D01*
X15231161Y21838215D01*
X15293947Y21603896D01*
X15386773Y21379795D01*
X15386776Y21379788D01*
X15508064Y21169711D01*
X15508066Y21169708D01*
X15508067Y21169707D01*
X15655733Y20977264D01*
X15655739Y20977257D01*
X15827256Y20805740D01*
X15827262Y20805735D01*
X16019711Y20658064D01*
X16229788Y20536776D01*
X16453900Y20443946D01*
X16688211Y20381162D01*
X16868586Y20357416D01*
X16928711Y20349500D01*
X16928712Y20349500D01*
X17171289Y20349500D01*
X17219388Y20355833D01*
X17411789Y20381162D01*
X17646100Y20443946D01*
X17870212Y20536776D01*
X18080289Y20658064D01*
X18272738Y20805735D01*
X18444265Y20977262D01*
X18591936Y21169711D01*
X18713224Y21379788D01*
X18806054Y21603900D01*
X18868838Y21838211D01*
X18900500Y22078712D01*
X18900500Y22321288D01*
X18868838Y22561789D01*
X18806054Y22796100D01*
X18713224Y23020212D01*
X18591936Y23230289D01*
X18444265Y23422738D01*
X18444260Y23422744D01*
X18272743Y23594261D01*
X18272736Y23594267D01*
X18080293Y23741933D01*
X18080292Y23741934D01*
X18080289Y23741936D01*
X17870212Y23863224D01*
X17870205Y23863227D01*
X17646104Y23956053D01*
X17411785Y24018839D01*
X17171289Y24050500D01*
X17171288Y24050500D01*
X16928712Y24050500D01*
X16928711Y24050500D01*
X16688214Y24018839D01*
X16453895Y23956053D01*
X16229794Y23863227D01*
X16229785Y23863223D01*
X16019706Y23741933D01*
X15827263Y23594267D01*
X15827256Y23594261D01*
X15655739Y23422744D01*
X15655733Y23422737D01*
X15508067Y23230294D01*
X15386777Y23020215D01*
X15386773Y23020206D01*
X15293947Y22796105D01*
X15231161Y22561786D01*
X15199500Y22321289D01*
X10775760Y22321289D01*
X10765925Y22357993D01*
X10733012Y22415000D01*
X11627231Y22415000D01*
X11627231Y22415001D01*
X11616757Y22481127D01*
X11616757Y22481130D01*
X11551095Y22683218D01*
X11454620Y22872558D01*
X11329727Y23044460D01*
X11329723Y23044465D01*
X11179464Y23194724D01*
X11179459Y23194728D01*
X11007555Y23319623D01*
X10998500Y23324237D01*
X10947706Y23372212D01*
X10930912Y23440034D01*
X10953451Y23506168D01*
X10998508Y23545207D01*
X11007816Y23549949D01*
X11087007Y23607485D01*
X11179786Y23674891D01*
X11179788Y23674894D01*
X11179792Y23674896D01*
X11330104Y23825208D01*
X11330106Y23825212D01*
X11330109Y23825214D01*
X11455048Y23997180D01*
X11455047Y23997180D01*
X11455051Y23997184D01*
X11551557Y24186588D01*
X11617246Y24388757D01*
X11650500Y24598713D01*
X11650500Y24811287D01*
X11617246Y25021243D01*
X11551557Y25223412D01*
X11455051Y25412816D01*
X11455049Y25412819D01*
X11455048Y25412821D01*
X11370788Y25528797D01*
X11370780Y25528806D01*
X11330104Y25584792D01*
X11312544Y25602352D01*
X20089500Y25602352D01*
X20089500Y25397649D01*
X20121522Y25195466D01*
X20184781Y25000777D01*
X20277715Y24818387D01*
X20398028Y24652787D01*
X20542786Y24508029D01*
X20697749Y24395444D01*
X20708390Y24387713D01*
X20824607Y24328497D01*
X20890776Y24294782D01*
X20890778Y24294782D01*
X20890781Y24294780D01*
X20995137Y24260873D01*
X21085465Y24231523D01*
X21186557Y24215512D01*
X21287648Y24199500D01*
X21287649Y24199500D01*
X21492351Y24199500D01*
X21492352Y24199500D01*
X21694534Y24231523D01*
X21889219Y24294780D01*
X22071610Y24387713D01*
X22164590Y24455268D01*
X22237213Y24508029D01*
X22237215Y24508032D01*
X22237219Y24508034D01*
X22381966Y24652781D01*
X22381968Y24652785D01*
X22381971Y24652787D01*
X22497126Y24811287D01*
X22502287Y24818390D01*
X22595220Y25000781D01*
X22658477Y25195466D01*
X22690500Y25397648D01*
X22690500Y25602352D01*
X27709500Y25602352D01*
X27709500Y25397649D01*
X27741522Y25195466D01*
X27804781Y25000777D01*
X27897715Y24818387D01*
X28018028Y24652787D01*
X28162786Y24508029D01*
X28317749Y24395444D01*
X28328390Y24387713D01*
X28444607Y24328497D01*
X28510776Y24294782D01*
X28510778Y24294782D01*
X28510781Y24294780D01*
X28615137Y24260873D01*
X28705465Y24231523D01*
X28806557Y24215512D01*
X28907648Y24199500D01*
X28907649Y24199500D01*
X29112351Y24199500D01*
X29112352Y24199500D01*
X29314534Y24231523D01*
X29509219Y24294780D01*
X29691610Y24387713D01*
X29784590Y24455268D01*
X29857213Y24508029D01*
X29857215Y24508032D01*
X29857219Y24508034D01*
X30001966Y24652781D01*
X30001968Y24652785D01*
X30001971Y24652787D01*
X30117126Y24811287D01*
X30122287Y24818390D01*
X30215220Y25000781D01*
X30278477Y25195466D01*
X30310500Y25397648D01*
X30310500Y25602352D01*
X30278477Y25804534D01*
X30270416Y25829342D01*
X30215218Y25999224D01*
X30137035Y26152665D01*
X30122287Y26181610D01*
X30114556Y26192251D01*
X30001971Y26347214D01*
X29857213Y26491972D01*
X29691613Y26612285D01*
X29691612Y26612286D01*
X29691610Y26612287D01*
X29634653Y26641309D01*
X29509223Y26705219D01*
X29314534Y26768478D01*
X29139995Y26796122D01*
X29112352Y26800500D01*
X28907648Y26800500D01*
X28883329Y26796649D01*
X28705465Y26768478D01*
X28510776Y26705219D01*
X28328386Y26612285D01*
X28162786Y26491972D01*
X28018028Y26347214D01*
X27897715Y26181614D01*
X27804781Y25999224D01*
X27741522Y25804535D01*
X27709500Y25602352D01*
X22690500Y25602352D01*
X22658477Y25804534D01*
X22650416Y25829342D01*
X22595218Y25999224D01*
X22517035Y26152665D01*
X22502287Y26181610D01*
X22494556Y26192251D01*
X22381971Y26347214D01*
X22237213Y26491972D01*
X22071613Y26612285D01*
X22071612Y26612286D01*
X22071610Y26612287D01*
X22014653Y26641309D01*
X21889223Y26705219D01*
X21694534Y26768478D01*
X21519995Y26796122D01*
X21492352Y26800500D01*
X21287648Y26800500D01*
X21263329Y26796649D01*
X21085465Y26768478D01*
X20890776Y26705219D01*
X20708386Y26612285D01*
X20542786Y26491972D01*
X20398028Y26347214D01*
X20277715Y26181614D01*
X20184781Y25999224D01*
X20121522Y25804535D01*
X20089500Y25602352D01*
X11312544Y25602352D01*
X11214523Y25700373D01*
X11212574Y25702513D01*
X11198494Y25731429D01*
X11183084Y25759650D01*
X11183297Y25762638D01*
X11181986Y25765331D01*
X11185774Y25797269D01*
X11188068Y25829342D01*
X11189863Y25831740D01*
X11190216Y25834715D01*
X11210670Y25859535D01*
X11229940Y25885275D01*
X11233474Y25887205D01*
X11234652Y25888634D01*
X11238139Y25889753D01*
X11260915Y25902190D01*
X11392331Y25951204D01*
X11507546Y26037454D01*
X11593796Y26152669D01*
X11644091Y26287517D01*
X11650500Y26347127D01*
X11650499Y28142872D01*
X11644091Y28202483D01*
X11593796Y28337331D01*
X11593795Y28337332D01*
X11593793Y28337336D01*
X11507547Y28452545D01*
X11507544Y28452548D01*
X11392335Y28538794D01*
X11392328Y28538798D01*
X11257482Y28589092D01*
X11257483Y28589092D01*
X11197883Y28595499D01*
X11197881Y28595500D01*
X11197873Y28595500D01*
X11197864Y28595500D01*
X9402129Y28595500D01*
X9402123Y28595499D01*
X9342516Y28589092D01*
X9207671Y28538798D01*
X9207664Y28538794D01*
X9092455Y28452548D01*
X9092452Y28452545D01*
X9006206Y28337336D01*
X9006202Y28337329D01*
X8955908Y28202483D01*
X8949501Y28142884D01*
X8949501Y28142877D01*
X8949500Y28142865D01*
X7500500Y28142865D01*
X7500500Y39627865D01*
X8949500Y39627865D01*
X8949500Y37832130D01*
X8949501Y37832124D01*
X8955908Y37772517D01*
X9006202Y37637672D01*
X9006206Y37637665D01*
X9092452Y37522456D01*
X9092455Y37522453D01*
X9207664Y37436207D01*
X9207671Y37436203D01*
X9339082Y37387190D01*
X9395016Y37345319D01*
X9419433Y37279855D01*
X9404582Y37211582D01*
X9383431Y37183327D01*
X9269889Y37069785D01*
X9144951Y36897821D01*
X9048444Y36708415D01*
X8982753Y36506240D01*
X8950784Y36304394D01*
X8949500Y36296287D01*
X8949500Y36083713D01*
X8982754Y35873757D01*
X9038202Y35703105D01*
X9048444Y35671586D01*
X9144951Y35482180D01*
X9269890Y35310214D01*
X9420213Y35159891D01*
X9592179Y35034952D01*
X9592181Y35034951D01*
X9592184Y35034949D01*
X9601493Y35030206D01*
X9652290Y34982234D01*
X9669087Y34914413D01*
X9646552Y34848278D01*
X9601502Y34809238D01*
X9592443Y34804622D01*
X9420540Y34679728D01*
X9420535Y34679724D01*
X9270276Y34529465D01*
X9270272Y34529460D01*
X9145379Y34357558D01*
X9048904Y34168218D01*
X8983242Y33966130D01*
X8983242Y33966127D01*
X8972769Y33900000D01*
X9866988Y33900000D01*
X9834075Y33842993D01*
X9800000Y33715826D01*
X9800000Y33584174D01*
X9834075Y33457007D01*
X9866988Y33400000D01*
X8972769Y33400000D01*
X8983242Y33333874D01*
X8983242Y33333871D01*
X9048904Y33131783D01*
X9145379Y32942443D01*
X9270272Y32770541D01*
X9270276Y32770536D01*
X9420535Y32620277D01*
X9420540Y32620273D01*
X9592442Y32495380D01*
X9781782Y32398905D01*
X9983871Y32333243D01*
X10050000Y32322769D01*
X10050000Y33216988D01*
X10107007Y33184075D01*
X10234174Y33150000D01*
X10365826Y33150000D01*
X10492993Y33184075D01*
X10550000Y33216988D01*
X10550000Y32322770D01*
X10616126Y32333243D01*
X10616129Y32333243D01*
X10818217Y32398905D01*
X11007557Y32495380D01*
X11179459Y32620273D01*
X11179464Y32620277D01*
X11329723Y32770536D01*
X11329727Y32770541D01*
X11454620Y32942443D01*
X11551095Y33131783D01*
X11616757Y33333871D01*
X11616757Y33333874D01*
X11627231Y33400000D01*
X10733012Y33400000D01*
X10765925Y33457007D01*
X10800000Y33584174D01*
X10800000Y33715826D01*
X10765925Y33842993D01*
X10733012Y33900000D01*
X11627231Y33900000D01*
X11616757Y33966127D01*
X11616757Y33966130D01*
X11551095Y34168218D01*
X11454620Y34357558D01*
X11329727Y34529460D01*
X11329723Y34529465D01*
X11179464Y34679724D01*
X11179459Y34679728D01*
X11007555Y34804623D01*
X10998500Y34809237D01*
X10947706Y34857212D01*
X10930912Y34925034D01*
X10953451Y34991168D01*
X10998508Y35030207D01*
X11007816Y35034949D01*
X11128025Y35122285D01*
X11179786Y35159891D01*
X11179788Y35159894D01*
X11179792Y35159896D01*
X11330104Y35310208D01*
X11330106Y35310212D01*
X11330109Y35310214D01*
X11455048Y35482180D01*
X11455047Y35482180D01*
X11455051Y35482184D01*
X11551557Y35671588D01*
X11617246Y35873757D01*
X11650500Y36083713D01*
X11650500Y36296287D01*
X11617246Y36506243D01*
X11551557Y36708412D01*
X11455051Y36897816D01*
X11455049Y36897819D01*
X11455048Y36897821D01*
X11330109Y37069787D01*
X11216569Y37183327D01*
X11183084Y37244650D01*
X11188068Y37314342D01*
X11229940Y37370275D01*
X11260915Y37387190D01*
X11392331Y37436204D01*
X11507546Y37522454D01*
X11593796Y37637669D01*
X11644091Y37772517D01*
X11650500Y37832127D01*
X11650499Y39627872D01*
X11644091Y39687483D01*
X11593796Y39822331D01*
X11593795Y39822332D01*
X11593793Y39822336D01*
X11560445Y39866883D01*
X11507547Y39937545D01*
X11507544Y39937548D01*
X11507121Y39937865D01*
X20029500Y39937865D01*
X20029500Y38242130D01*
X20029501Y38242124D01*
X20035908Y38182517D01*
X20086202Y38047672D01*
X20086206Y38047665D01*
X20172452Y37932456D01*
X20172455Y37932453D01*
X20287664Y37846207D01*
X20287671Y37846203D01*
X20325387Y37832136D01*
X20422517Y37795909D01*
X20459441Y37791940D01*
X20523989Y37765204D01*
X20563838Y37707812D01*
X20566333Y37637987D01*
X20530681Y37577898D01*
X20519071Y37568334D01*
X20482784Y37541970D01*
X20338028Y37397214D01*
X20217715Y37231614D01*
X20124781Y37049224D01*
X20061522Y36854535D01*
X20029500Y36652352D01*
X20029500Y36447649D01*
X20061522Y36245466D01*
X20124781Y36050777D01*
X20188691Y35925347D01*
X20214978Y35873757D01*
X20217715Y35868387D01*
X20338028Y35702787D01*
X20482786Y35558029D01*
X20637749Y35445444D01*
X20648390Y35437713D01*
X20739840Y35391117D01*
X20741080Y35390485D01*
X20791876Y35342510D01*
X20808671Y35274689D01*
X20786134Y35208554D01*
X20741080Y35169515D01*
X20648386Y35122285D01*
X20482786Y35001972D01*
X20338028Y34857214D01*
X20217715Y34691614D01*
X20124781Y34509224D01*
X20061522Y34314535D01*
X20029500Y34112352D01*
X20029500Y33907649D01*
X20061522Y33705466D01*
X20124781Y33510777D01*
X20152179Y33457007D01*
X20214920Y33333871D01*
X20217715Y33328387D01*
X20338028Y33162787D01*
X20482786Y33018029D01*
X20637749Y32905444D01*
X20648390Y32897713D01*
X20720424Y32861010D01*
X20741629Y32850205D01*
X20792425Y32802230D01*
X20809220Y32734409D01*
X20786682Y32668274D01*
X20741629Y32629235D01*
X20648650Y32581860D01*
X20483105Y32461583D01*
X20483104Y32461583D01*
X20338417Y32316896D01*
X20338417Y32316895D01*
X20218140Y32151350D01*
X20125244Y31969030D01*
X20062009Y31774414D01*
X20053391Y31720000D01*
X21014314Y31720000D01*
X21009920Y31715606D01*
X20957259Y31624394D01*
X20930000Y31522661D01*
X20930000Y31417339D01*
X20957259Y31315606D01*
X21009920Y31224394D01*
X21014314Y31220000D01*
X20053391Y31220000D01*
X20062009Y31165587D01*
X20125244Y30970971D01*
X20218140Y30788651D01*
X20338417Y30623106D01*
X20338417Y30623105D01*
X20483104Y30478418D01*
X20648650Y30358141D01*
X20830968Y30265246D01*
X21025578Y30202012D01*
X21080000Y30193393D01*
X21080000Y31154314D01*
X21084394Y31149920D01*
X21175606Y31097259D01*
X21277339Y31070000D01*
X21382661Y31070000D01*
X21484394Y31097259D01*
X21575606Y31149920D01*
X21580000Y31154314D01*
X21580000Y30193394D01*
X21634421Y30202012D01*
X21829031Y30265246D01*
X22011349Y30358141D01*
X22176894Y30478418D01*
X22176895Y30478418D01*
X22321582Y30623105D01*
X22321582Y30623106D01*
X22441859Y30788651D01*
X22534755Y30970971D01*
X22597990Y31165587D01*
X22606609Y31220000D01*
X21645686Y31220000D01*
X21650080Y31224394D01*
X21702741Y31315606D01*
X21730000Y31417339D01*
X21730000Y31522661D01*
X21702741Y31624394D01*
X21650080Y31715606D01*
X21645686Y31720000D01*
X22606609Y31720000D01*
X22597990Y31774414D01*
X22534755Y31969030D01*
X22441859Y32151350D01*
X22321582Y32316895D01*
X22321582Y32316896D01*
X22176895Y32461583D01*
X22011349Y32581860D01*
X21918370Y32629235D01*
X21867574Y32677210D01*
X21850779Y32745031D01*
X21873316Y32811165D01*
X21918370Y32850205D01*
X21918920Y32850485D01*
X22011610Y32897713D01*
X22073176Y32942443D01*
X22177213Y33018029D01*
X22177215Y33018032D01*
X22177219Y33018034D01*
X22321966Y33162781D01*
X22321968Y33162785D01*
X22321971Y33162787D01*
X22385262Y33249901D01*
X22442287Y33328390D01*
X22535220Y33510781D01*
X22598477Y33705466D01*
X22630500Y33907648D01*
X22630500Y34112352D01*
X22598477Y34314534D01*
X22535220Y34509219D01*
X22535218Y34509222D01*
X22535218Y34509224D01*
X22501503Y34575393D01*
X22442287Y34691610D01*
X22434556Y34702251D01*
X22321971Y34857214D01*
X22177213Y35001972D01*
X22011614Y35122285D01*
X22005006Y35125652D01*
X21918917Y35169517D01*
X21868123Y35217489D01*
X21851328Y35285310D01*
X21873865Y35351445D01*
X21918917Y35390484D01*
X22011610Y35437713D01*
X22072820Y35482184D01*
X22177213Y35558029D01*
X22177215Y35558032D01*
X22177219Y35558034D01*
X22321966Y35702781D01*
X22321968Y35702785D01*
X22321971Y35702787D01*
X22374732Y35775410D01*
X22442287Y35868390D01*
X22535220Y36050781D01*
X22598477Y36245466D01*
X22630500Y36447648D01*
X22630500Y36652352D01*
X22621620Y36708415D01*
X22598477Y36854535D01*
X22535218Y37049224D01*
X22466888Y37183327D01*
X22442287Y37231610D01*
X22432813Y37244650D01*
X22321971Y37397214D01*
X22177219Y37541966D01*
X22140930Y37568331D01*
X22098264Y37623661D01*
X22092285Y37693274D01*
X22124890Y37755069D01*
X22185728Y37789427D01*
X22200562Y37791940D01*
X22237483Y37795909D01*
X22334562Y37832117D01*
X22372331Y37846204D01*
X22487546Y37932454D01*
X22573796Y38047669D01*
X22624091Y38182517D01*
X22630500Y38242127D01*
X22630499Y39192352D01*
X27649500Y39192352D01*
X27649500Y38987649D01*
X27681522Y38785466D01*
X27744781Y38590777D01*
X27837715Y38408387D01*
X27958028Y38242787D01*
X28102786Y38098029D01*
X28257749Y37985444D01*
X28268390Y37977713D01*
X28340424Y37941010D01*
X28361629Y37930205D01*
X28412425Y37882230D01*
X28429220Y37814409D01*
X28406682Y37748274D01*
X28361629Y37709235D01*
X28268650Y37661860D01*
X28103105Y37541583D01*
X28103104Y37541583D01*
X27958417Y37396896D01*
X27958417Y37396895D01*
X27838140Y37231350D01*
X27745244Y37049030D01*
X27682009Y36854414D01*
X27673391Y36800000D01*
X28634314Y36800000D01*
X28629920Y36795606D01*
X28577259Y36704394D01*
X28550000Y36602661D01*
X28550000Y36497339D01*
X28577259Y36395606D01*
X28629920Y36304394D01*
X28634314Y36300000D01*
X27673391Y36300000D01*
X27682009Y36245587D01*
X27745244Y36050971D01*
X27838140Y35868651D01*
X27958417Y35703106D01*
X27958417Y35703105D01*
X28103104Y35558418D01*
X28268652Y35438139D01*
X28361628Y35390766D01*
X28412425Y35342792D01*
X28429220Y35274971D01*
X28406683Y35208836D01*
X28361630Y35169797D01*
X28268388Y35122287D01*
X28102786Y35001972D01*
X27958028Y34857214D01*
X27837715Y34691614D01*
X27744781Y34509224D01*
X27681522Y34314535D01*
X27649500Y34112352D01*
X27649500Y33907649D01*
X27681522Y33705466D01*
X27744781Y33510777D01*
X27772179Y33457007D01*
X27834920Y33333871D01*
X27837715Y33328387D01*
X27958028Y33162787D01*
X28102786Y33018029D01*
X28257749Y32905444D01*
X28268390Y32897713D01*
X28359840Y32851117D01*
X28361080Y32850485D01*
X28411876Y32802510D01*
X28428671Y32734689D01*
X28406134Y32668554D01*
X28361080Y32629515D01*
X28268386Y32582285D01*
X28102786Y32461972D01*
X27958028Y32317214D01*
X27837715Y32151614D01*
X27744781Y31969224D01*
X27681522Y31774535D01*
X27649500Y31572352D01*
X27649500Y31367649D01*
X27681522Y31165466D01*
X27744781Y30970777D01*
X27837715Y30788387D01*
X27958028Y30622787D01*
X28102786Y30478029D01*
X28257749Y30365444D01*
X28268390Y30357713D01*
X28384607Y30298497D01*
X28450776Y30264782D01*
X28450778Y30264782D01*
X28450781Y30264780D01*
X28555137Y30230873D01*
X28645465Y30201523D01*
X28746557Y30185512D01*
X28847648Y30169500D01*
X28847649Y30169500D01*
X29052351Y30169500D01*
X29052352Y30169500D01*
X29254534Y30201523D01*
X29449219Y30264780D01*
X29631610Y30357713D01*
X29724590Y30425268D01*
X29797213Y30478029D01*
X29797215Y30478032D01*
X29797219Y30478034D01*
X29941966Y30622781D01*
X29941968Y30622785D01*
X29941971Y30622787D01*
X29994732Y30695410D01*
X30062287Y30788390D01*
X30155220Y30970781D01*
X30218477Y31165466D01*
X30250500Y31367648D01*
X30250500Y31572352D01*
X30242257Y31624394D01*
X30218477Y31774535D01*
X30155218Y31969224D01*
X30062419Y32151350D01*
X30062287Y32151610D01*
X30054556Y32162251D01*
X29941971Y32317214D01*
X29797213Y32461972D01*
X29631614Y32582285D01*
X29557058Y32620273D01*
X29538917Y32629517D01*
X29488123Y32677489D01*
X29471328Y32745310D01*
X29493865Y32811445D01*
X29538917Y32850484D01*
X29631610Y32897713D01*
X29693176Y32942443D01*
X29797213Y33018029D01*
X29797215Y33018032D01*
X29797219Y33018034D01*
X29941966Y33162781D01*
X29941968Y33162785D01*
X29941971Y33162787D01*
X30005262Y33249901D01*
X30062287Y33328390D01*
X30155220Y33510781D01*
X30218477Y33705466D01*
X30250500Y33907648D01*
X30250500Y34112352D01*
X30218477Y34314534D01*
X30155220Y34509219D01*
X30155218Y34509222D01*
X30155218Y34509224D01*
X30121503Y34575393D01*
X30062287Y34691610D01*
X30054556Y34702251D01*
X29941971Y34857214D01*
X29797213Y35001972D01*
X29631611Y35122287D01*
X29538369Y35169797D01*
X29487574Y35217771D01*
X29470779Y35285593D01*
X29493317Y35351727D01*
X29538371Y35390766D01*
X29631347Y35438139D01*
X29796894Y35558418D01*
X29796895Y35558418D01*
X29941582Y35703105D01*
X29941582Y35703106D01*
X30061859Y35868651D01*
X30154755Y36050971D01*
X30217990Y36245587D01*
X30226609Y36300000D01*
X29265686Y36300000D01*
X29270080Y36304394D01*
X29322741Y36395606D01*
X29350000Y36497339D01*
X29350000Y36602661D01*
X29322741Y36704394D01*
X29270080Y36795606D01*
X29265686Y36800000D01*
X30226609Y36800000D01*
X30217990Y36854414D01*
X30154755Y37049030D01*
X30061859Y37231350D01*
X29941582Y37396895D01*
X29941582Y37396896D01*
X29796895Y37541583D01*
X29631349Y37661860D01*
X29538370Y37709235D01*
X29487574Y37757210D01*
X29470779Y37825031D01*
X29493316Y37891165D01*
X29538370Y37930205D01*
X29542788Y37932456D01*
X29631610Y37977713D01*
X29652770Y37993087D01*
X29797213Y38098029D01*
X29797215Y38098032D01*
X29797219Y38098034D01*
X29941966Y38242781D01*
X29941968Y38242785D01*
X29941971Y38242787D01*
X29994732Y38315410D01*
X30062287Y38408390D01*
X30155220Y38590781D01*
X30218477Y38785466D01*
X30250500Y38987648D01*
X30250500Y39192352D01*
X30218477Y39394534D01*
X30155220Y39589219D01*
X30155218Y39589222D01*
X30155218Y39589224D01*
X30105151Y39687484D01*
X30062287Y39771610D01*
X30025438Y39822329D01*
X29941971Y39937214D01*
X29797213Y40081972D01*
X29631613Y40202285D01*
X29631612Y40202286D01*
X29631610Y40202287D01*
X29574653Y40231309D01*
X29449223Y40295219D01*
X29254534Y40358478D01*
X29079995Y40386122D01*
X29052352Y40390500D01*
X28847648Y40390500D01*
X28823329Y40386649D01*
X28645465Y40358478D01*
X28450776Y40295219D01*
X28268386Y40202285D01*
X28102786Y40081972D01*
X27958028Y39937214D01*
X27837715Y39771614D01*
X27744781Y39589224D01*
X27681522Y39394535D01*
X27649500Y39192352D01*
X22630499Y39192352D01*
X22630499Y39937872D01*
X22624091Y39997483D01*
X22573796Y40132331D01*
X22573795Y40132332D01*
X22573793Y40132336D01*
X22487547Y40247545D01*
X22487544Y40247548D01*
X22372335Y40333794D01*
X22372328Y40333798D01*
X22237482Y40384092D01*
X22237483Y40384092D01*
X22177883Y40390499D01*
X22177881Y40390500D01*
X22177873Y40390500D01*
X22177864Y40390500D01*
X20482129Y40390500D01*
X20482123Y40390499D01*
X20422516Y40384092D01*
X20287671Y40333798D01*
X20287664Y40333794D01*
X20172455Y40247548D01*
X20172452Y40247545D01*
X20086206Y40132336D01*
X20086202Y40132329D01*
X20035908Y39997483D01*
X20029501Y39937884D01*
X20029501Y39937877D01*
X20029500Y39937865D01*
X11507121Y39937865D01*
X11392335Y40023794D01*
X11392328Y40023798D01*
X11257482Y40074092D01*
X11257483Y40074092D01*
X11197883Y40080499D01*
X11197881Y40080500D01*
X11197873Y40080500D01*
X11197864Y40080500D01*
X9402129Y40080500D01*
X9402123Y40080499D01*
X9342516Y40074092D01*
X9207671Y40023798D01*
X9207664Y40023794D01*
X9092455Y39937548D01*
X9092452Y39937545D01*
X9006206Y39822336D01*
X9006202Y39822329D01*
X8955908Y39687483D01*
X8949501Y39627884D01*
X8949501Y39627877D01*
X8949500Y39627865D01*
X7500500Y39627865D01*
X7500500Y42375500D01*
X7520185Y42442539D01*
X7572989Y42488294D01*
X7624500Y42499500D01*
X31375500Y42499500D01*
X31442539Y42479815D01*
G37*
G04 #@! TD.AperFunction*
G04 #@! TD*
D15*
X35485411Y61857871D02*
X35662447Y61941603D01*
X35709005Y46043017D02*
X35485411Y46142130D01*
X35142129Y85514589D02*
X35292600Y85707400D01*
X45404085Y47428128D02*
X45456983Y47290995D01*
X6471925Y29117961D02*
X6290994Y29043017D01*
X5328112Y61741210D02*
X5485411Y61857871D01*
X63098919Y29004811D02*
X62901080Y29004811D01*
X62000000Y43000000D02*
X62000000Y7000000D01*
X63514588Y44857871D02*
X63707399Y44707400D01*
X54116699Y44923956D02*
X54256262Y44970061D01*
X35168362Y29443986D02*
X35095914Y29571873D01*
X35076044Y85383301D02*
X35142129Y85514589D01*
X33671887Y46258791D02*
X33471925Y46117961D01*
X35662447Y20941603D02*
X35852416Y20989188D01*
X6634758Y29226763D02*
X6471925Y29117961D01*
X32365241Y70226763D02*
X32226762Y70365242D01*
X45092617Y84200000D02*
X53907382Y84200000D01*
X34000000Y46999013D02*
X33989187Y46852417D01*
X36471925Y70117961D02*
X36290994Y70043017D01*
X35292600Y46292601D02*
X35142129Y46485412D01*
X5901080Y70004811D02*
X5709005Y70043017D01*
X23642129Y47514589D02*
X23758790Y47671888D01*
X64000000Y5999013D02*
X63970060Y5756263D01*
X14743737Y46029940D02*
X14500987Y46000000D01*
X7000000Y84000000D02*
X32000000Y84000000D01*
X63290994Y5043017D02*
X63050018Y5001204D01*
X63195895Y61980805D02*
X63337552Y61941603D01*
X5485411Y61857871D02*
X5662447Y61941603D01*
X5571872Y20904086D02*
X5756262Y20970061D01*
X32226762Y70365242D02*
X32200000Y70405295D01*
X35292600Y5292601D02*
X35142129Y5485412D01*
X6634758Y70226763D02*
X6471925Y70117961D01*
X63803404Y20596104D02*
X63882039Y20471926D01*
X15171887Y85741210D02*
X15273237Y85634759D01*
X63671887Y46258791D02*
X63471925Y46117961D01*
X15056014Y5168363D02*
X14928127Y5095915D01*
X23543016Y85290995D02*
X23617960Y85471926D01*
X45014588Y85857871D02*
X45171887Y85741210D01*
X63970060Y44243738D02*
X64000000Y44000988D01*
X37000000Y7000000D02*
X37000000Y43000000D01*
X23943985Y44831638D02*
X24116699Y44923956D01*
X35571872Y70095915D02*
X35403896Y70196596D01*
X32804104Y61980805D02*
X33050018Y61998797D01*
X33923955Y44383301D02*
X33970060Y44243738D01*
X54256262Y46029940D02*
X54071872Y46095915D01*
X36634758Y70226763D02*
X36471925Y70117961D01*
X45489187Y5852417D02*
X45456983Y5709006D01*
X5365241Y70226763D02*
X5258790Y70328113D01*
X63514588Y85857871D02*
X63707399Y85707400D01*
X23510812Y6147584D02*
X23558397Y6337553D01*
X63970060Y70756263D02*
X63904085Y70571873D01*
X23758790Y6671888D02*
X23900140Y6800000D01*
X33290994Y5043017D02*
X33050018Y5001204D01*
X45500000Y47000988D02*
X45489187Y46852417D01*
X53558397Y85337553D02*
X53617960Y85471926D01*
X15092617Y43200000D02*
X23907382Y43200000D01*
X35168362Y70443986D02*
X35076044Y70616700D01*
X481Y655D02*
X68999345Y482D01*
X24449981Y5001204D02*
X24256262Y5029940D01*
X33741209Y70328113D02*
X33596103Y70196596D01*
X33831637Y29443986D02*
X33707399Y29292601D01*
X32200000Y70405295D02*
X32200000Y61596555D01*
X63970060Y5756263D02*
X63923955Y5616700D01*
X23543016Y44290995D02*
X23617960Y44471926D01*
X53828112Y84258791D02*
X53696595Y84403897D01*
X63923955Y85383301D02*
X63970060Y85243738D01*
X15171887Y44741210D02*
X15303404Y44596104D01*
X45470060Y84756263D02*
X45404085Y84571873D01*
X32528074Y29117961D02*
X32365241Y29226763D01*
X45489187Y46852417D02*
X45456983Y46709006D01*
X63098919Y70004811D02*
X62901080Y70004811D01*
X45498796Y43949982D02*
X45470060Y43756263D01*
X36290994Y70043017D02*
X36098919Y70004811D01*
X32000000Y7000000D02*
X7000000Y7000000D01*
X33290994Y70043017D02*
X33098919Y70004811D01*
X5001203Y29949982D02*
X5000000Y44000988D01*
X35001203Y61050019D02*
X35029939Y61243738D01*
X44883300Y44923956D02*
X45014588Y44857871D01*
X53529939Y6243738D02*
X53595914Y6428128D01*
X35076044Y5616700D02*
X35029939Y5756263D01*
X5328112Y5258791D02*
X5168362Y5443986D01*
X35000000Y46999013D02*
X35001203Y61050019D01*
X53828112Y5258791D02*
X53696595Y5403897D01*
X35949981Y85998797D02*
X44550018Y85998797D01*
X14790994Y5043017D02*
X14647583Y5010813D01*
X45171887Y85741210D02*
X45273237Y85634759D01*
X63707399Y85707400D02*
X63857870Y85514589D01*
X33050018Y44998797D02*
X33290994Y44956984D01*
X45092617Y43200000D02*
X53907382Y43200000D01*
X45171887Y44741210D02*
X45273237Y44634759D01*
X33923955Y85383301D02*
X33970060Y85243738D01*
X45241209Y46328113D02*
X45134758Y46226763D01*
X15470060Y84756263D02*
X15404085Y84571873D01*
X63707399Y70292601D02*
X63556014Y70168363D01*
X54352416Y5010813D02*
X54162447Y5058398D01*
X6098919Y70004811D02*
X5901080Y70004811D01*
X36337552Y20941603D02*
X36514588Y20857871D01*
X15303404Y43403897D02*
X15171887Y43258791D01*
X53696595Y84403897D02*
X53595914Y84571873D01*
X23501203Y43949982D02*
X23510812Y44147584D01*
X23758790Y47671888D02*
X23900140Y47800000D01*
X53617960Y85471926D02*
X53696595Y85596104D01*
X63998796Y70949982D02*
X63970060Y70756263D01*
X53510812Y47147584D02*
X53558397Y47337553D01*
X5168362Y5443986D02*
X5095914Y5571873D01*
X53668362Y6556015D02*
X53792600Y6707400D01*
X33428127Y61904086D02*
X33556014Y61831638D01*
X14695895Y85980805D02*
X14883300Y85923956D01*
X33904085Y29571873D02*
X33831637Y29443986D01*
X33904085Y46571873D02*
X33831637Y46443986D01*
X36514588Y61857871D02*
X36671887Y61741210D01*
X36773237Y29365242D02*
X36634758Y29226763D01*
X32258790Y61671888D02*
X32365241Y61773238D01*
X5076044Y29616700D02*
X5019195Y29804105D01*
X33956983Y5709006D02*
X33904085Y5571873D01*
X5142129Y85514589D02*
X5292600Y85707400D01*
X23500000Y6000988D02*
X23510812Y6147584D01*
X45382039Y44471926D02*
X45441602Y44337553D01*
X14550018Y44998797D02*
X14743737Y44970061D01*
X5403896Y20803405D02*
X5571872Y20904086D01*
X5949981Y85998797D02*
X14550018Y85998797D01*
X5029939Y46756263D02*
X5000000Y46999013D01*
X44550018Y85998797D02*
X44743737Y85970061D01*
X45404085Y43571873D02*
X45303404Y43403897D01*
X5485411Y85857871D02*
X5709005Y85956984D01*
X5142129Y44514589D02*
X5292600Y44707400D01*
X15382039Y44471926D02*
X15441602Y44337553D01*
X63803404Y70403897D02*
X63707399Y70292601D01*
X45096758Y47800000D02*
X45134758Y47773238D01*
X33707399Y85707400D02*
X33857870Y85514589D01*
X35292600Y29292601D02*
X35168362Y29443986D01*
X63803404Y29403897D02*
X63707399Y29292601D01*
X36773237Y70365242D02*
X36634758Y70226763D01*
X33290994Y85956984D02*
X33514588Y85857871D01*
X62200000Y29405295D02*
X62200000Y20599679D01*
X64000000Y46999013D02*
X63989187Y46852417D01*
X24116699Y85923956D02*
X24256262Y85970061D01*
X5196595Y61596104D02*
X5328112Y61741210D01*
X63831637Y46443986D02*
X63671887Y46258791D01*
X24256262Y46029940D02*
X24071872Y46095915D01*
X63998796Y29949982D02*
X63970060Y29756263D01*
X33050018Y5001204D02*
X24449981Y5001204D01*
X53758790Y47671888D02*
X53900140Y47800000D01*
X63857870Y85514589D02*
X63923955Y85383301D01*
X35001203Y20050019D02*
X35029939Y20243738D01*
X23529939Y43756263D02*
X23501203Y43949982D01*
X5485411Y44857871D02*
X5709005Y44956984D01*
X15498796Y84949982D02*
X15470060Y84756263D01*
X15441602Y44337553D02*
X15489187Y44147584D01*
X63904085Y70571873D02*
X63803404Y70403897D01*
X45014588Y46142130D02*
X44883300Y46076045D01*
X35709005Y5043017D02*
X35485411Y5142130D01*
X5095914Y5571873D02*
X5043016Y5709006D01*
X63050018Y61998797D02*
X63195895Y61980805D01*
X68999345Y482D02*
X68999518Y90999346D01*
X35852416Y20989188D02*
X36000987Y21000000D01*
X32709005Y29043017D02*
X32528074Y29117961D01*
X62365241Y29226763D02*
X62226762Y29365242D01*
X54499012Y5000000D02*
X54352416Y5010813D01*
X33050018Y20998797D02*
X33195895Y20980805D01*
X24256262Y5029940D02*
X24071872Y5095915D01*
X33428127Y70095915D02*
X33290994Y70043017D01*
X34000000Y61000988D02*
X34000000Y46999013D01*
X5076044Y70616700D02*
X5029939Y70756263D01*
X33098919Y29004811D02*
X32901080Y29004811D01*
X6290994Y20956984D02*
X6471925Y20882040D01*
X53501203Y43949982D02*
X53510812Y44147584D01*
X6337552Y61941603D02*
X6514588Y61857871D01*
X63970060Y29756263D02*
X63904085Y29571873D01*
X36147583Y20989188D02*
X36337552Y20941603D01*
X6800363Y70405839D02*
X6773237Y70365242D01*
X23696595Y84403897D02*
X23595914Y84571873D01*
X35076044Y70616700D02*
X35019195Y70804105D01*
X33596103Y70196596D02*
X33428127Y70095915D01*
X35901080Y29004811D02*
X35756262Y29029940D01*
X33882039Y61471926D02*
X33970060Y61243738D01*
X5076044Y85383301D02*
X5142129Y85514589D01*
X24256262Y85970061D02*
X24449981Y85998797D01*
X64000000Y44000988D02*
X63998796Y29949982D01*
X15470060Y43756263D02*
X15404085Y43571873D01*
X64000000Y20000988D02*
X64000000Y5999013D01*
X33998796Y70949982D02*
X33980804Y70804105D01*
X15331637Y47556015D02*
X15404085Y47428128D01*
X63857870Y44514589D02*
X63923955Y44383301D01*
X45404085Y46571873D02*
X45331637Y46443986D01*
X54449981Y46001204D02*
X54256262Y46029940D01*
X45331637Y5443986D02*
X45241209Y5328113D01*
X62200000Y20599679D02*
X62365241Y20773238D01*
X62365241Y20773238D02*
X62571872Y20904086D01*
X63050018Y46001204D02*
X54449981Y46001204D01*
X23907382Y84200000D02*
X23828112Y84258791D01*
X6098919Y20995190D02*
X6290994Y20956984D01*
X45331637Y46443986D02*
X45241209Y46328113D01*
X33831637Y5443986D02*
X33707399Y5292601D01*
X15489187Y44147584D02*
X15498796Y43949982D01*
X45456983Y47290995D02*
X45489187Y47147584D01*
X45303404Y84403897D02*
X45171887Y84258791D01*
X15495189Y5901081D02*
X15470060Y5756263D01*
X23758790Y5328113D02*
X23642129Y5485412D01*
X5403896Y29196596D02*
X5258790Y29328113D01*
X45134758Y6773238D02*
X45241209Y6671888D01*
X35485411Y46142130D02*
X35292600Y46292601D01*
X5142129Y70485412D02*
X5076044Y70616700D01*
X63904085Y29571873D02*
X63803404Y29403897D01*
X45470060Y43756263D02*
X45404085Y43571873D01*
X23500000Y47000988D02*
X23510812Y47147584D01*
X33970060Y20243738D02*
X34000000Y20000988D01*
X5058397Y20337553D02*
X5142129Y20514589D01*
X53558397Y44337553D02*
X53617960Y44471926D01*
X24071872Y46095915D02*
X23903896Y46196596D01*
X45331637Y47556015D02*
X45404085Y47428128D01*
X23758790Y46328113D02*
X23642129Y46485412D01*
X35142129Y46485412D02*
X35076044Y46616700D01*
X35258790Y70328113D02*
X35168362Y70443986D01*
X7000000Y48000000D02*
X7000000Y84000000D01*
X35000000Y5999013D02*
X35001203Y20050019D01*
X45273237Y85634759D02*
X45382039Y85471926D01*
X15404085Y84571873D02*
X15303404Y84403897D01*
X35029939Y20243738D02*
X35095914Y20428128D01*
X35029939Y29756263D02*
X35001203Y29949982D01*
X36800363Y70405839D02*
X36773237Y70365242D01*
X5709005Y85956984D02*
X5949981Y85998797D01*
X23903896Y46196596D02*
X23758790Y46328113D01*
X36671887Y20741210D02*
X36800598Y20599199D01*
X45273237Y44634759D02*
X45382039Y44471926D01*
X63243737Y46029940D02*
X63050018Y46001204D01*
X15404085Y6428128D02*
X15456983Y6290995D01*
X63556014Y70168363D02*
X63428127Y70095915D01*
X15171887Y43258791D02*
X15092617Y43200000D01*
X5852416Y61989188D02*
X6000987Y62000000D01*
X14500987Y46000000D02*
X5949981Y46001204D01*
X35901080Y70004811D02*
X35709005Y70043017D01*
X53510812Y44147584D02*
X53558397Y44337553D01*
X5029939Y70756263D02*
X5001203Y70949982D01*
X23510812Y44147584D02*
X23543016Y44290995D01*
X35485411Y5142130D02*
X35292600Y5292601D01*
X54449981Y44998797D02*
X63050018Y44998797D01*
X63050018Y85998797D02*
X63290994Y85956984D01*
X45134758Y5226763D02*
X45014588Y5142130D01*
X45014588Y44857871D02*
X45171887Y44741210D01*
X15303404Y44596104D02*
X15382039Y44471926D01*
X44743737Y5029940D02*
X44500987Y5000000D01*
X23558397Y46662448D02*
X23510812Y46852417D01*
X23642129Y6514589D02*
X23758790Y6671888D01*
X33556014Y61831638D02*
X33741209Y61671888D01*
X35029939Y46756263D02*
X35000000Y46999013D01*
X45456983Y46709006D02*
X45404085Y46571873D01*
X63290994Y44956984D02*
X63514588Y44857871D01*
X33428127Y29095915D02*
X33243737Y29029940D01*
X33989187Y46852417D02*
X33956983Y46709006D01*
X63904085Y46571873D02*
X63831637Y46443986D01*
X45441602Y44337553D02*
X45489187Y44147584D01*
X35709005Y44956984D02*
X35949981Y44998797D01*
X33707399Y5292601D02*
X33514588Y5142130D01*
X23510812Y47147584D02*
X23558397Y47337553D01*
X53828112Y44741210D02*
X53943985Y44831638D01*
X15014588Y46142130D02*
X14883300Y46076045D01*
X33337552Y20941603D02*
X33556014Y20831638D01*
X35019195Y70804105D02*
X35001203Y70949982D01*
X14550018Y85998797D02*
X14695895Y85980805D01*
X35709005Y70043017D02*
X35571872Y70095915D01*
X63337552Y61941603D02*
X63556014Y61831638D01*
X35196595Y61596104D02*
X35328112Y61741210D01*
X35571872Y29095915D02*
X35403896Y29196596D01*
X5756262Y20970061D02*
X5949981Y20998797D01*
X23828112Y84258791D02*
X23696595Y84403897D01*
X54449981Y85998797D02*
X63050018Y85998797D01*
X5010812Y5852417D02*
X5000000Y5999013D01*
X33707399Y44707400D02*
X33857870Y44514589D01*
X5528074Y70117961D02*
X5365241Y70226763D01*
X45456983Y6290995D02*
X45489187Y6147584D01*
X36634758Y29226763D02*
X36471925Y29117961D01*
X5000000Y20000988D02*
X5010812Y20147584D01*
X35029939Y5756263D02*
X35000000Y5999013D01*
X63923955Y5616700D02*
X63857870Y5485412D01*
X62901080Y70004811D02*
X62709005Y70043017D01*
X15489187Y47147584D02*
X15500000Y47000988D01*
X33514588Y5142130D02*
X33290994Y5043017D01*
X5709005Y46043017D02*
X5485411Y46142130D01*
X24449981Y46001204D02*
X24256262Y46029940D01*
X36147583Y61989188D02*
X36337552Y61941603D01*
X35485411Y85857871D02*
X35709005Y85956984D01*
X32804104Y20980805D02*
X33050018Y20998797D01*
X23828112Y85741210D02*
X23943985Y85831638D01*
X45241209Y5328113D02*
X45134758Y5226763D01*
X35485411Y44857871D02*
X35709005Y44956984D01*
X23900140Y6800000D02*
X15096758Y6800000D01*
X62226762Y70365242D02*
X62200000Y70405295D01*
X54116699Y85923956D02*
X54304104Y85980805D01*
X6147583Y61989188D02*
X6337552Y61941603D01*
X23943985Y85831638D02*
X24116699Y85923956D01*
X53500000Y47000988D02*
X53510812Y47147584D01*
X53558397Y46662448D02*
X53510812Y46852417D01*
X35076044Y46616700D02*
X35029939Y46756263D01*
X23529939Y84756263D02*
X23501203Y84949982D01*
X5019195Y29804105D02*
X5001203Y29949982D01*
X44500987Y46000000D02*
X35949981Y46001204D01*
X5292600Y44707400D02*
X5485411Y44857871D01*
X33514588Y44857871D02*
X33707399Y44707400D01*
X53828112Y85741210D02*
X53943985Y85831638D01*
X36471925Y29117961D02*
X36290994Y29043017D01*
X63514588Y20857871D02*
X63707399Y20707400D01*
X15500000Y47000988D02*
X15489187Y46852417D01*
X36800598Y61599199D02*
X36800363Y70405839D01*
X35095914Y20428128D02*
X35196595Y20596104D01*
X33970060Y85243738D02*
X34000000Y85000988D01*
X62365241Y61773238D02*
X62571872Y61904086D01*
X37000000Y48000000D02*
X37000000Y84000000D01*
X5292600Y85707400D02*
X5485411Y85857871D01*
X53696595Y44596104D02*
X53828112Y44741210D01*
X35029939Y44243738D02*
X35076044Y44383301D01*
X45441602Y85337553D02*
X45489187Y85147584D01*
X15331637Y6556015D02*
X15404085Y6428128D01*
X62200000Y70405295D02*
X62200000Y61599679D01*
X53943985Y85831638D02*
X54116699Y85923956D01*
X62571872Y20904086D02*
X62804104Y20980805D01*
X53758790Y46328113D02*
X53642129Y46485412D01*
X35142129Y44514589D02*
X35292600Y44707400D01*
X35709005Y85956984D02*
X35949981Y85998797D01*
X15273237Y85634759D02*
X15382039Y85471926D01*
X5043016Y5709006D02*
X5010812Y5852417D01*
X45241209Y47671888D02*
X45331637Y47556015D01*
X5949981Y5001204D02*
X5709005Y5043017D01*
X15404085Y46571873D02*
X15331637Y46443986D01*
X5949981Y46001204D02*
X5709005Y46043017D01*
X63923955Y44383301D02*
X63970060Y44243738D01*
X32571872Y61904086D02*
X32804104Y61980805D01*
X33980804Y70804105D02*
X33923955Y70616700D01*
X5258790Y29328113D02*
X5168362Y29443986D01*
X53792600Y6707400D02*
X53899950Y6800000D01*
X63741209Y61671888D02*
X63882039Y61471926D01*
X53529939Y5756263D02*
X53504810Y5901081D01*
X35949981Y46001204D02*
X35709005Y46043017D01*
X63290994Y85956984D02*
X63514588Y85857871D01*
X35949981Y44998797D02*
X44550018Y44998797D01*
X53510812Y85147584D02*
X53558397Y85337553D01*
X35949981Y5001204D02*
X35709005Y5043017D01*
X6773237Y70365242D02*
X6634758Y70226763D01*
X5571872Y29095915D02*
X5403896Y29196596D01*
X45489187Y6147584D02*
X45500000Y6000988D01*
X63707399Y20707400D02*
X63803404Y20596104D01*
X45489187Y47147584D02*
X45500000Y47000988D01*
X34000000Y5999013D02*
X33989187Y5852417D01*
X63290994Y29043017D02*
X63098919Y29004811D01*
X15404085Y47428128D02*
X15456983Y47290995D01*
X15134758Y47773238D02*
X15241209Y47671888D01*
X32365241Y29226763D02*
X32226762Y29365242D01*
X62804104Y61980805D02*
X63050018Y61998797D01*
X64000000Y61000988D02*
X64000000Y46999013D01*
X23900140Y47800000D02*
X15096758Y47800000D01*
X35001203Y70949982D02*
X35000000Y85000988D01*
X33970060Y61243738D02*
X34000000Y61000988D01*
X53529939Y84756263D02*
X53501203Y84949982D01*
X23726762Y85634759D02*
X23828112Y85741210D01*
X23642129Y46485412D02*
X23558397Y46662448D01*
X45303404Y43403897D02*
X45171887Y43258791D01*
X24449981Y44998797D02*
X33050018Y44998797D01*
X53642129Y46485412D02*
X53558397Y46662448D01*
X15470060Y5756263D02*
X15423955Y5616700D01*
X33290994Y61956984D02*
X33428127Y61904086D01*
X5029939Y85243738D02*
X5076044Y85383301D01*
X63428127Y29095915D02*
X63290994Y29043017D01*
X45404085Y5571873D02*
X45331637Y5443986D01*
X14647583Y5010813D02*
X14500987Y5000000D01*
X53595914Y43571873D02*
X53529939Y43756263D01*
X54162447Y5058398D02*
X53985411Y5142130D01*
X44743737Y46029940D02*
X44500987Y46000000D01*
X15171887Y5258791D02*
X15056014Y5168363D01*
X15056014Y44831638D02*
X15171887Y44741210D01*
X44743737Y85970061D02*
X44883300Y85923956D01*
X32365241Y61773238D02*
X32571872Y61904086D01*
X62528074Y70117961D02*
X62365241Y70226763D01*
X35328112Y20741210D02*
X35485411Y20857871D01*
X45489187Y44147584D02*
X45498796Y43949982D01*
X62000000Y84000000D02*
X62000000Y48000000D01*
X15331637Y46443986D02*
X15241209Y46328113D01*
X45171887Y43258791D02*
X45092617Y43200000D01*
X6290994Y29043017D02*
X6098919Y29004811D01*
X23726762Y44634759D02*
X23828112Y44741210D01*
X53501203Y6050019D02*
X53529939Y6243738D01*
X53903896Y46196596D02*
X53758790Y46328113D01*
X53900140Y47800000D02*
X45096758Y47800000D01*
X15241209Y6671888D02*
X15331637Y6556015D01*
X5949981Y44998797D02*
X14550018Y44998797D01*
X15096758Y6800000D02*
X15134758Y6773238D01*
X45404085Y84571873D02*
X45303404Y84403897D01*
X35029939Y61243738D02*
X35095914Y61428128D01*
X33290994Y44956984D02*
X33514588Y44857871D01*
X63857870Y5485412D02*
X63707399Y5292601D01*
X54304104Y85980805D02*
X54449981Y85998797D01*
X63290994Y20956984D02*
X63514588Y20857871D01*
X53828112Y43258791D02*
X53696595Y43403897D01*
X63989187Y46852417D02*
X63956983Y46709006D01*
X45456983Y5709006D02*
X45404085Y5571873D01*
X33243737Y46029940D02*
X33050018Y46001204D01*
X33707399Y29292601D02*
X33596103Y29196596D01*
X6471925Y20882040D02*
X6634758Y20773238D01*
X14883300Y85923956D02*
X15056014Y85831638D01*
X6671887Y61741210D02*
X6800598Y61599199D01*
X53696595Y5403897D02*
X53595914Y5571873D01*
X15489187Y85147584D02*
X15498796Y84949982D01*
X33989187Y5852417D02*
X33956983Y5709006D01*
X15273237Y5365242D02*
X15171887Y5258791D01*
X14928127Y5095915D02*
X14790994Y5043017D01*
X33741209Y20671888D02*
X33882039Y20471926D01*
X15456983Y46709006D02*
X15404085Y46571873D01*
X33596103Y29196596D02*
X33428127Y29095915D01*
X33831637Y46443986D02*
X33671887Y46258791D01*
X33956983Y46709006D02*
X33904085Y46571873D01*
X44500987Y5000000D02*
X35949981Y5001204D01*
X44883300Y46076045D02*
X44743737Y46029940D01*
X63050018Y20998797D02*
X63290994Y20956984D01*
X33831637Y70443986D02*
X33741209Y70328113D01*
X6800599Y20593809D02*
X6800363Y29405839D01*
X32000000Y48000000D02*
X7000000Y48000000D01*
X45241209Y6671888D02*
X45331637Y6556015D01*
X33050018Y61998797D02*
X33290994Y61956984D01*
X33882039Y20471926D02*
X33970060Y20243738D01*
X63882039Y61471926D02*
X63970060Y61243738D01*
X15456983Y6290995D02*
X15489187Y6147584D01*
X45382039Y85471926D02*
X45441602Y85337553D01*
X23510812Y5852417D02*
X23500000Y6000988D01*
X54256262Y44970061D02*
X54449981Y44998797D01*
X15489187Y6147584D02*
X15495189Y5901081D01*
X6773237Y20634759D02*
X6800599Y20593809D01*
X23595914Y84571873D02*
X23529939Y84756263D01*
X63471925Y46117961D02*
X63243737Y46029940D01*
X5076044Y46616700D02*
X5029939Y46756263D01*
X63428127Y70095915D02*
X63290994Y70043017D01*
X53907382Y43200000D02*
X53828112Y43258791D01*
X5709005Y29043017D02*
X5571872Y29095915D01*
X35095914Y61428128D02*
X35196595Y61596104D01*
X23558397Y5662448D02*
X23510812Y5852417D01*
X14743737Y44970061D02*
X14883300Y44923956D01*
X63707399Y44707400D02*
X63857870Y44514589D01*
X63707399Y29292601D02*
X63596103Y29196596D01*
X36800598Y20599199D02*
X36800363Y29405839D01*
X33514588Y85857871D02*
X33707399Y85707400D01*
X33098919Y70004811D02*
X32901080Y70004811D01*
X32200000Y29405295D02*
X32200000Y20592692D01*
X63956983Y46709006D02*
X63904085Y46571873D01*
X63882039Y20471926D02*
X63970060Y20243738D01*
X36098919Y29004811D02*
X35901080Y29004811D01*
X53617960Y44471926D02*
X53696595Y44596104D01*
X36514588Y20857871D02*
X36671887Y20741210D01*
X33857870Y44514589D02*
X33923955Y44383301D01*
X35196595Y20596104D02*
X35328112Y20741210D01*
X63290994Y70043017D02*
X63098919Y70004811D01*
X5001203Y70949982D02*
X5000000Y85000988D01*
X63514588Y5142130D02*
X63290994Y5043017D01*
X5258790Y70328113D02*
X5142129Y70485412D01*
X23558397Y47337553D02*
X23642129Y47514589D01*
X33195895Y20980805D02*
X33337552Y20941603D01*
X5901080Y29004811D02*
X5709005Y29043017D01*
X23617960Y85471926D02*
X23726762Y85634759D01*
X23510812Y46852417D02*
X23500000Y47000988D01*
X5709005Y5043017D02*
X5485411Y5142130D01*
X24116699Y44923956D02*
X24256262Y44970061D01*
X53642129Y47514589D02*
X53758790Y47671888D01*
X35095914Y29571873D02*
X35029939Y29756263D01*
X23558397Y6337553D02*
X23642129Y6514589D01*
X5001203Y61050019D02*
X5029939Y61243738D01*
X63596103Y29196596D02*
X63428127Y29095915D01*
X15134758Y46226763D02*
X15014588Y46142130D01*
X6514588Y61857871D02*
X6671887Y61741210D01*
X45498796Y84949982D02*
X45470060Y84756263D01*
X15303404Y84403897D02*
X15171887Y84258791D01*
X53595914Y6428128D02*
X53668362Y6556015D01*
X5168362Y29443986D02*
X5076044Y29616700D01*
X15404085Y43571873D02*
X15303404Y43403897D01*
X53504810Y5901081D02*
X53501203Y6050019D01*
X63050018Y44998797D02*
X63290994Y44956984D01*
X32000000Y43000000D02*
X32000000Y7000000D01*
X15056014Y85831638D02*
X15171887Y85741210D01*
X53907382Y84200000D02*
X53828112Y84258791D01*
X6634758Y20773238D02*
X6773237Y20634759D01*
X14883300Y46076045D02*
X14743737Y46029940D01*
X5485411Y5142130D02*
X5328112Y5258791D01*
X5709005Y70043017D02*
X5528074Y70117961D01*
X62804104Y20980805D02*
X63050018Y20998797D01*
X35328112Y61741210D02*
X35485411Y61857871D01*
X15241209Y46328113D02*
X15134758Y46226763D01*
X32200000Y61596555D02*
X32258790Y61671888D01*
X53696595Y85596104D02*
X53828112Y85741210D01*
X36000987Y21000000D02*
X36147583Y20989188D01*
X24256262Y44970061D02*
X24449981Y44998797D01*
X6098919Y29004811D02*
X5901080Y29004811D01*
X1245Y90999730D02*
X481Y655D01*
X35662447Y61941603D02*
X35852416Y61989188D01*
X36671887Y61741210D02*
X36800598Y61599199D01*
X15171887Y84258791D02*
X15092617Y84200000D01*
X5010812Y20147584D02*
X5058397Y20337553D01*
X54071872Y46095915D02*
X53903896Y46196596D01*
X63050018Y5001204D02*
X54499012Y5000000D01*
X33471925Y46117961D02*
X33243737Y46029940D01*
X45489187Y85147584D02*
X45498796Y84949982D01*
X62528074Y29117961D02*
X62365241Y29226763D01*
X45404085Y6428128D02*
X45456983Y6290995D01*
X23907382Y43200000D02*
X23828112Y43258791D01*
X5709005Y44956984D02*
X5949981Y44998797D01*
X5000000Y85000988D02*
X5029939Y85243738D01*
X15096758Y47800000D02*
X15134758Y47773238D01*
X6800363Y29405839D02*
X6773237Y29365242D01*
X23617960Y44471926D02*
X23726762Y44634759D01*
X33050018Y46001204D02*
X24449981Y46001204D01*
X6000987Y62000000D02*
X6147583Y61989188D01*
X45331637Y6556015D02*
X45404085Y6428128D01*
X15092617Y84200000D02*
X23907382Y84200000D01*
X62365241Y70226763D02*
X62226762Y70365242D01*
X33556014Y20831638D02*
X33741209Y20671888D01*
X62709005Y70043017D02*
X62528074Y70117961D01*
X15456983Y47290995D02*
X15489187Y47147584D01*
X36000987Y62000000D02*
X36147583Y61989188D01*
X15441602Y85337553D02*
X15489187Y85147584D01*
X33970060Y44243738D02*
X34000000Y44000988D01*
X15134758Y6773238D02*
X15241209Y6671888D01*
X35852416Y61989188D02*
X36000987Y62000000D01*
X35756262Y29029940D02*
X35571872Y29095915D01*
X36290994Y29043017D02*
X36098919Y29004811D01*
X14500987Y5000000D02*
X5949981Y5001204D01*
X44743737Y44970061D02*
X44883300Y44923956D01*
X34000000Y20000988D02*
X34000000Y5999013D01*
X5142129Y46485412D02*
X5076044Y46616700D01*
X5142129Y20514589D02*
X5258790Y20671888D01*
X15423955Y5616700D02*
X15357870Y5485412D01*
X15498796Y43949982D02*
X15470060Y43756263D01*
X62571872Y61904086D02*
X62804104Y61980805D01*
X45014588Y5142130D02*
X44883300Y5076045D01*
X44883300Y5076045D02*
X44743737Y5029940D01*
X5095914Y61428128D02*
X5196595Y61596104D01*
X33243737Y29029940D02*
X33098919Y29004811D01*
X33998796Y29949982D02*
X33970060Y29756263D01*
X23595914Y43571873D02*
X23529939Y43756263D01*
X15241209Y47671888D02*
X15331637Y47556015D01*
X23828112Y44741210D02*
X23943985Y44831638D01*
X37000000Y84000000D02*
X62000000Y84000000D01*
X63970060Y20243738D02*
X64000000Y20000988D01*
X35403896Y70196596D02*
X35258790Y70328113D01*
X32000000Y84000000D02*
X32000000Y48000000D01*
X15489187Y46852417D02*
X15456983Y46709006D01*
X62901080Y29004811D02*
X62709005Y29043017D01*
X45500000Y6000988D02*
X45489187Y5852417D01*
X53696595Y43403897D02*
X53595914Y43571873D01*
X62000000Y48000000D02*
X37000000Y48000000D01*
X32901080Y29004811D02*
X32709005Y29043017D01*
X53899950Y6800000D02*
X45096758Y6800000D01*
X63970060Y85243738D02*
X64000000Y85000988D01*
X53501203Y84949982D02*
X53510812Y85147584D01*
X32901080Y70004811D02*
X32709005Y70043017D01*
X5000000Y5999013D02*
X5000000Y20000988D01*
X35000000Y85000988D02*
X35029939Y85243738D01*
X6773237Y29365242D02*
X6634758Y29226763D01*
X33741209Y61671888D02*
X33882039Y61471926D01*
X53595914Y5571873D02*
X53529939Y5756263D01*
X44550018Y44998797D02*
X44743737Y44970061D01*
X63707399Y5292601D02*
X63514588Y5142130D01*
X32709005Y70043017D02*
X32528074Y70117961D01*
X15357870Y5485412D02*
X15273237Y5365242D01*
X53985411Y5142130D02*
X53828112Y5258791D01*
X53510812Y46852417D02*
X53500000Y47000988D01*
X5076044Y44383301D02*
X5142129Y44514589D01*
X37000000Y43000000D02*
X62000000Y43000000D01*
X5029939Y44243738D02*
X5076044Y44383301D01*
X23903896Y5196596D02*
X23758790Y5328113D01*
X68999518Y90999346D02*
X1245Y90999730D01*
X36098919Y70004811D02*
X35901080Y70004811D01*
X6800598Y61599199D02*
X6800363Y70405839D01*
X33050018Y85998797D02*
X33290994Y85956984D01*
X23501203Y84949982D02*
X23510812Y85147584D01*
X35001203Y29949982D02*
X35000000Y44000988D01*
X32200000Y20592692D02*
X32328112Y20741210D01*
X23642129Y5485412D02*
X23558397Y5662448D01*
X35292600Y44707400D02*
X35485411Y44857871D01*
X63556014Y61831638D02*
X63741209Y61671888D01*
X5000000Y46999013D02*
X5001203Y61050019D01*
X32571872Y20904086D02*
X32804104Y20980805D01*
X35142129Y5485412D02*
X35076044Y5616700D01*
X23828112Y43258791D02*
X23696595Y43403897D01*
X62000000Y7000000D02*
X37000000Y7000000D01*
X34000000Y85000988D02*
X33998796Y70949982D01*
X62226762Y29365242D02*
X62200000Y29405295D01*
X32328112Y20741210D02*
X32443985Y20831638D01*
X15382039Y85471926D02*
X15441602Y85337553D01*
X63970060Y61243738D02*
X64000000Y61000988D01*
X24449981Y85998797D02*
X33050018Y85998797D01*
X53943985Y44831638D02*
X54116699Y44923956D01*
X23696595Y43403897D02*
X23595914Y43571873D01*
X33904085Y5571873D02*
X33831637Y5443986D01*
X35000000Y44000988D02*
X35029939Y44243738D01*
X14883300Y44923956D02*
X15056014Y44831638D01*
X62709005Y29043017D02*
X62528074Y29117961D01*
X5485411Y46142130D02*
X5292600Y46292601D01*
X23510812Y85147584D02*
X23543016Y85290995D01*
X45096758Y6800000D02*
X45134758Y6773238D01*
X7000000Y7000000D02*
X7000000Y43000000D01*
X36800363Y29405839D02*
X36773237Y29365242D01*
X33923955Y70616700D02*
X33831637Y70443986D01*
X33857870Y85514589D02*
X33923955Y85383301D01*
X32443985Y20831638D02*
X32571872Y20904086D01*
X45134758Y46226763D02*
X45014588Y46142130D01*
X6471925Y70117961D02*
X6290994Y70043017D01*
X33970060Y29756263D02*
X33904085Y29571873D01*
X32528074Y70117961D02*
X32365241Y70226763D01*
X36337552Y61941603D02*
X36514588Y61857871D01*
X5662447Y61941603D02*
X5852416Y61989188D01*
X24071872Y5095915D02*
X23903896Y5196596D01*
X5292600Y46292601D02*
X5142129Y46485412D01*
X35029939Y85243738D02*
X35076044Y85383301D01*
X34000000Y44000988D02*
X33998796Y29949982D01*
X5258790Y20671888D02*
X5403896Y20803405D01*
X35076044Y44383301D02*
X35142129Y44514589D01*
X53595914Y84571873D02*
X53529939Y84756263D01*
X5000000Y44000988D02*
X5029939Y44243738D01*
X45171887Y84258791D02*
X45092617Y84200000D01*
X35292600Y85707400D02*
X35485411Y85857871D01*
X6290994Y70043017D02*
X6098919Y70004811D01*
X32226762Y29365242D02*
X32200000Y29405295D01*
X5949981Y20998797D02*
X6098919Y20995190D01*
X5029939Y61243738D02*
X5095914Y61428128D01*
X35403896Y29196596D02*
X35292600Y29292601D01*
X7000000Y43000000D02*
X32000000Y43000000D01*
X62200000Y61599679D02*
X62365241Y61773238D01*
X53558397Y47337553D02*
X53642129Y47514589D01*
X44883300Y85923956D02*
X45014588Y85857871D01*
X64000000Y85000988D02*
X63998796Y70949982D01*
X45134758Y47773238D02*
X45241209Y47671888D01*
X53529939Y43756263D02*
X53501203Y43949982D01*
X35485411Y20857871D02*
X35662447Y20941603D01*
M02*
