G04 #@! TF.GenerationSoftware,KiCad,Pcbnew,9.0.0*
G04 #@! TF.CreationDate,2025-03-02T09:14:39+01:00*
G04 #@! TF.ProjectId,eeprom_i2c,65657072-6f6d-45f6-9932-632e6b696361,rev?*
G04 #@! TF.SameCoordinates,PX7459280PY5b8d800*
G04 #@! TF.FileFunction,Soldermask,Bot*
G04 #@! TF.FilePolarity,Negative*
%FSLAX46Y46*%
G04 Gerber Fmt 4.6, Leading zero omitted, Abs format (unit mm)*
G04 Created by KiCad (PCBNEW 9.0.0) date 2025-03-02 09:14:39*
%MOMM*%
%LPD*%
G01*
G04 APERTURE LIST*
%ADD10C,0.100000*%
%ADD11C,0.150000*%
%ADD12C,0.300000*%
%ADD13C,0.400000*%
%ADD14C,1.600000*%
%ADD15O,1.600000X1.600000*%
%ADD16R,1.700000X1.700000*%
%ADD17O,1.700000X1.700000*%
%ADD18R,1.600000X1.600000*%
G04 #@! TA.AperFunction,Profile*
%ADD19C,0.050000*%
G04 #@! TD*
G04 APERTURE END LIST*
D10*
D11*
X55002200Y-70007200D02*
X163002200Y-70007200D01*
X163002200Y-102007200D01*
X55002200Y-102007200D01*
X55002200Y-70007200D01*
D10*
D11*
X-112000000Y86000000D02*
X165002200Y86000000D01*
X165002200Y-104007200D01*
X-112000000Y-104007200D01*
X-112000000Y86000000D01*
D10*
D11*
X-110000000Y84000000D02*
X163002200Y84000000D01*
X163002200Y-102007200D01*
X-110000000Y-102007200D01*
X-110000000Y84000000D01*
D10*
D11*
X-62000000Y84000000D02*
X-62000000Y86000000D01*
D10*
D11*
X-12000000Y84000000D02*
X-12000000Y86000000D01*
D10*
D11*
X38000000Y84000000D02*
X38000000Y86000000D01*
D10*
D11*
X88000000Y84000000D02*
X88000000Y86000000D01*
D10*
D11*
X138000000Y84000000D02*
X138000000Y86000000D01*
D10*
D11*
X-85910840Y84406396D02*
X-86653697Y84406396D01*
X-86282269Y84406396D02*
X-86282269Y85706396D01*
X-86282269Y85706396D02*
X-86406078Y85520681D01*
X-86406078Y85520681D02*
X-86529888Y85396872D01*
X-86529888Y85396872D02*
X-86653697Y85334967D01*
D10*
D11*
X-36653697Y85582586D02*
X-36591793Y85644491D01*
X-36591793Y85644491D02*
X-36467983Y85706396D01*
X-36467983Y85706396D02*
X-36158459Y85706396D01*
X-36158459Y85706396D02*
X-36034650Y85644491D01*
X-36034650Y85644491D02*
X-35972745Y85582586D01*
X-35972745Y85582586D02*
X-35910840Y85458777D01*
X-35910840Y85458777D02*
X-35910840Y85334967D01*
X-35910840Y85334967D02*
X-35972745Y85149253D01*
X-35972745Y85149253D02*
X-36715602Y84406396D01*
X-36715602Y84406396D02*
X-35910840Y84406396D01*
D10*
D11*
X13284398Y85706396D02*
X14089160Y85706396D01*
X14089160Y85706396D02*
X13655826Y85211158D01*
X13655826Y85211158D02*
X13841541Y85211158D01*
X13841541Y85211158D02*
X13965350Y85149253D01*
X13965350Y85149253D02*
X14027255Y85087348D01*
X14027255Y85087348D02*
X14089160Y84963539D01*
X14089160Y84963539D02*
X14089160Y84654015D01*
X14089160Y84654015D02*
X14027255Y84530205D01*
X14027255Y84530205D02*
X13965350Y84468300D01*
X13965350Y84468300D02*
X13841541Y84406396D01*
X13841541Y84406396D02*
X13470112Y84406396D01*
X13470112Y84406396D02*
X13346303Y84468300D01*
X13346303Y84468300D02*
X13284398Y84530205D01*
D10*
D11*
X63965350Y85273062D02*
X63965350Y84406396D01*
X63655826Y85768300D02*
X63346303Y84839729D01*
X63346303Y84839729D02*
X64151064Y84839729D01*
D10*
D11*
X114027255Y85706396D02*
X113408207Y85706396D01*
X113408207Y85706396D02*
X113346303Y85087348D01*
X113346303Y85087348D02*
X113408207Y85149253D01*
X113408207Y85149253D02*
X113532017Y85211158D01*
X113532017Y85211158D02*
X113841541Y85211158D01*
X113841541Y85211158D02*
X113965350Y85149253D01*
X113965350Y85149253D02*
X114027255Y85087348D01*
X114027255Y85087348D02*
X114089160Y84963539D01*
X114089160Y84963539D02*
X114089160Y84654015D01*
X114089160Y84654015D02*
X114027255Y84530205D01*
X114027255Y84530205D02*
X113965350Y84468300D01*
X113965350Y84468300D02*
X113841541Y84406396D01*
X113841541Y84406396D02*
X113532017Y84406396D01*
X113532017Y84406396D02*
X113408207Y84468300D01*
X113408207Y84468300D02*
X113346303Y84530205D01*
D10*
D11*
X163965350Y85706396D02*
X163717731Y85706396D01*
X163717731Y85706396D02*
X163593922Y85644491D01*
X163593922Y85644491D02*
X163532017Y85582586D01*
X163532017Y85582586D02*
X163408207Y85396872D01*
X163408207Y85396872D02*
X163346303Y85149253D01*
X163346303Y85149253D02*
X163346303Y84654015D01*
X163346303Y84654015D02*
X163408207Y84530205D01*
X163408207Y84530205D02*
X163470112Y84468300D01*
X163470112Y84468300D02*
X163593922Y84406396D01*
X163593922Y84406396D02*
X163841541Y84406396D01*
X163841541Y84406396D02*
X163965350Y84468300D01*
X163965350Y84468300D02*
X164027255Y84530205D01*
X164027255Y84530205D02*
X164089160Y84654015D01*
X164089160Y84654015D02*
X164089160Y84963539D01*
X164089160Y84963539D02*
X164027255Y85087348D01*
X164027255Y85087348D02*
X163965350Y85149253D01*
X163965350Y85149253D02*
X163841541Y85211158D01*
X163841541Y85211158D02*
X163593922Y85211158D01*
X163593922Y85211158D02*
X163470112Y85149253D01*
X163470112Y85149253D02*
X163408207Y85087348D01*
X163408207Y85087348D02*
X163346303Y84963539D01*
D10*
D11*
X-62000000Y-102007200D02*
X-62000000Y-104007200D01*
D10*
D11*
X-12000000Y-102007200D02*
X-12000000Y-104007200D01*
D10*
D11*
X38000000Y-102007200D02*
X38000000Y-104007200D01*
D10*
D11*
X88000000Y-102007200D02*
X88000000Y-104007200D01*
D10*
D11*
X138000000Y-102007200D02*
X138000000Y-104007200D01*
D10*
D11*
X-85910840Y-103600804D02*
X-86653697Y-103600804D01*
X-86282269Y-103600804D02*
X-86282269Y-102300804D01*
X-86282269Y-102300804D02*
X-86406078Y-102486519D01*
X-86406078Y-102486519D02*
X-86529888Y-102610328D01*
X-86529888Y-102610328D02*
X-86653697Y-102672233D01*
D10*
D11*
X-36653697Y-102424614D02*
X-36591793Y-102362709D01*
X-36591793Y-102362709D02*
X-36467983Y-102300804D01*
X-36467983Y-102300804D02*
X-36158459Y-102300804D01*
X-36158459Y-102300804D02*
X-36034650Y-102362709D01*
X-36034650Y-102362709D02*
X-35972745Y-102424614D01*
X-35972745Y-102424614D02*
X-35910840Y-102548423D01*
X-35910840Y-102548423D02*
X-35910840Y-102672233D01*
X-35910840Y-102672233D02*
X-35972745Y-102857947D01*
X-35972745Y-102857947D02*
X-36715602Y-103600804D01*
X-36715602Y-103600804D02*
X-35910840Y-103600804D01*
D10*
D11*
X13284398Y-102300804D02*
X14089160Y-102300804D01*
X14089160Y-102300804D02*
X13655826Y-102796042D01*
X13655826Y-102796042D02*
X13841541Y-102796042D01*
X13841541Y-102796042D02*
X13965350Y-102857947D01*
X13965350Y-102857947D02*
X14027255Y-102919852D01*
X14027255Y-102919852D02*
X14089160Y-103043661D01*
X14089160Y-103043661D02*
X14089160Y-103353185D01*
X14089160Y-103353185D02*
X14027255Y-103476995D01*
X14027255Y-103476995D02*
X13965350Y-103538900D01*
X13965350Y-103538900D02*
X13841541Y-103600804D01*
X13841541Y-103600804D02*
X13470112Y-103600804D01*
X13470112Y-103600804D02*
X13346303Y-103538900D01*
X13346303Y-103538900D02*
X13284398Y-103476995D01*
D10*
D11*
X63965350Y-102734138D02*
X63965350Y-103600804D01*
X63655826Y-102238900D02*
X63346303Y-103167471D01*
X63346303Y-103167471D02*
X64151064Y-103167471D01*
D10*
D11*
X114027255Y-102300804D02*
X113408207Y-102300804D01*
X113408207Y-102300804D02*
X113346303Y-102919852D01*
X113346303Y-102919852D02*
X113408207Y-102857947D01*
X113408207Y-102857947D02*
X113532017Y-102796042D01*
X113532017Y-102796042D02*
X113841541Y-102796042D01*
X113841541Y-102796042D02*
X113965350Y-102857947D01*
X113965350Y-102857947D02*
X114027255Y-102919852D01*
X114027255Y-102919852D02*
X114089160Y-103043661D01*
X114089160Y-103043661D02*
X114089160Y-103353185D01*
X114089160Y-103353185D02*
X114027255Y-103476995D01*
X114027255Y-103476995D02*
X113965350Y-103538900D01*
X113965350Y-103538900D02*
X113841541Y-103600804D01*
X113841541Y-103600804D02*
X113532017Y-103600804D01*
X113532017Y-103600804D02*
X113408207Y-103538900D01*
X113408207Y-103538900D02*
X113346303Y-103476995D01*
D10*
D11*
X163965350Y-102300804D02*
X163717731Y-102300804D01*
X163717731Y-102300804D02*
X163593922Y-102362709D01*
X163593922Y-102362709D02*
X163532017Y-102424614D01*
X163532017Y-102424614D02*
X163408207Y-102610328D01*
X163408207Y-102610328D02*
X163346303Y-102857947D01*
X163346303Y-102857947D02*
X163346303Y-103353185D01*
X163346303Y-103353185D02*
X163408207Y-103476995D01*
X163408207Y-103476995D02*
X163470112Y-103538900D01*
X163470112Y-103538900D02*
X163593922Y-103600804D01*
X163593922Y-103600804D02*
X163841541Y-103600804D01*
X163841541Y-103600804D02*
X163965350Y-103538900D01*
X163965350Y-103538900D02*
X164027255Y-103476995D01*
X164027255Y-103476995D02*
X164089160Y-103353185D01*
X164089160Y-103353185D02*
X164089160Y-103043661D01*
X164089160Y-103043661D02*
X164027255Y-102919852D01*
X164027255Y-102919852D02*
X163965350Y-102857947D01*
X163965350Y-102857947D02*
X163841541Y-102796042D01*
X163841541Y-102796042D02*
X163593922Y-102796042D01*
X163593922Y-102796042D02*
X163470112Y-102857947D01*
X163470112Y-102857947D02*
X163408207Y-102919852D01*
X163408207Y-102919852D02*
X163346303Y-103043661D01*
D10*
D11*
X-112000000Y36000000D02*
X-110000000Y36000000D01*
D10*
D11*
X-112000000Y-14000000D02*
X-110000000Y-14000000D01*
D10*
D11*
X-112000000Y-64000000D02*
X-110000000Y-64000000D01*
D10*
D11*
X-111309524Y60777824D02*
X-110690477Y60777824D01*
X-111433334Y60406396D02*
X-111000001Y61706396D01*
X-111000001Y61706396D02*
X-110566667Y60406396D01*
D10*
D11*
X-110907143Y11087348D02*
X-110721429Y11025443D01*
X-110721429Y11025443D02*
X-110659524Y10963539D01*
X-110659524Y10963539D02*
X-110597620Y10839729D01*
X-110597620Y10839729D02*
X-110597620Y10654015D01*
X-110597620Y10654015D02*
X-110659524Y10530205D01*
X-110659524Y10530205D02*
X-110721429Y10468300D01*
X-110721429Y10468300D02*
X-110845239Y10406396D01*
X-110845239Y10406396D02*
X-111340477Y10406396D01*
X-111340477Y10406396D02*
X-111340477Y11706396D01*
X-111340477Y11706396D02*
X-110907143Y11706396D01*
X-110907143Y11706396D02*
X-110783334Y11644491D01*
X-110783334Y11644491D02*
X-110721429Y11582586D01*
X-110721429Y11582586D02*
X-110659524Y11458777D01*
X-110659524Y11458777D02*
X-110659524Y11334967D01*
X-110659524Y11334967D02*
X-110721429Y11211158D01*
X-110721429Y11211158D02*
X-110783334Y11149253D01*
X-110783334Y11149253D02*
X-110907143Y11087348D01*
X-110907143Y11087348D02*
X-111340477Y11087348D01*
D10*
D11*
X-110597620Y-39469795D02*
X-110659524Y-39531700D01*
X-110659524Y-39531700D02*
X-110845239Y-39593604D01*
X-110845239Y-39593604D02*
X-110969048Y-39593604D01*
X-110969048Y-39593604D02*
X-111154762Y-39531700D01*
X-111154762Y-39531700D02*
X-111278572Y-39407890D01*
X-111278572Y-39407890D02*
X-111340477Y-39284080D01*
X-111340477Y-39284080D02*
X-111402381Y-39036461D01*
X-111402381Y-39036461D02*
X-111402381Y-38850747D01*
X-111402381Y-38850747D02*
X-111340477Y-38603128D01*
X-111340477Y-38603128D02*
X-111278572Y-38479319D01*
X-111278572Y-38479319D02*
X-111154762Y-38355509D01*
X-111154762Y-38355509D02*
X-110969048Y-38293604D01*
X-110969048Y-38293604D02*
X-110845239Y-38293604D01*
X-110845239Y-38293604D02*
X-110659524Y-38355509D01*
X-110659524Y-38355509D02*
X-110597620Y-38417414D01*
D10*
D11*
X-111340477Y-89593604D02*
X-111340477Y-88293604D01*
X-111340477Y-88293604D02*
X-111030953Y-88293604D01*
X-111030953Y-88293604D02*
X-110845239Y-88355509D01*
X-110845239Y-88355509D02*
X-110721429Y-88479319D01*
X-110721429Y-88479319D02*
X-110659524Y-88603128D01*
X-110659524Y-88603128D02*
X-110597620Y-88850747D01*
X-110597620Y-88850747D02*
X-110597620Y-89036461D01*
X-110597620Y-89036461D02*
X-110659524Y-89284080D01*
X-110659524Y-89284080D02*
X-110721429Y-89407890D01*
X-110721429Y-89407890D02*
X-110845239Y-89531700D01*
X-110845239Y-89531700D02*
X-111030953Y-89593604D01*
X-111030953Y-89593604D02*
X-111340477Y-89593604D01*
D10*
D11*
X165002200Y36000000D02*
X163002200Y36000000D01*
D10*
D11*
X165002200Y-14000000D02*
X163002200Y-14000000D01*
D10*
D11*
X165002200Y-64000000D02*
X163002200Y-64000000D01*
D10*
D11*
X163692676Y60777824D02*
X164311723Y60777824D01*
X163568866Y60406396D02*
X164002199Y61706396D01*
X164002199Y61706396D02*
X164435533Y60406396D01*
D10*
D11*
X164095057Y11087348D02*
X164280771Y11025443D01*
X164280771Y11025443D02*
X164342676Y10963539D01*
X164342676Y10963539D02*
X164404580Y10839729D01*
X164404580Y10839729D02*
X164404580Y10654015D01*
X164404580Y10654015D02*
X164342676Y10530205D01*
X164342676Y10530205D02*
X164280771Y10468300D01*
X164280771Y10468300D02*
X164156961Y10406396D01*
X164156961Y10406396D02*
X163661723Y10406396D01*
X163661723Y10406396D02*
X163661723Y11706396D01*
X163661723Y11706396D02*
X164095057Y11706396D01*
X164095057Y11706396D02*
X164218866Y11644491D01*
X164218866Y11644491D02*
X164280771Y11582586D01*
X164280771Y11582586D02*
X164342676Y11458777D01*
X164342676Y11458777D02*
X164342676Y11334967D01*
X164342676Y11334967D02*
X164280771Y11211158D01*
X164280771Y11211158D02*
X164218866Y11149253D01*
X164218866Y11149253D02*
X164095057Y11087348D01*
X164095057Y11087348D02*
X163661723Y11087348D01*
D10*
D11*
X164404580Y-39469795D02*
X164342676Y-39531700D01*
X164342676Y-39531700D02*
X164156961Y-39593604D01*
X164156961Y-39593604D02*
X164033152Y-39593604D01*
X164033152Y-39593604D02*
X163847438Y-39531700D01*
X163847438Y-39531700D02*
X163723628Y-39407890D01*
X163723628Y-39407890D02*
X163661723Y-39284080D01*
X163661723Y-39284080D02*
X163599819Y-39036461D01*
X163599819Y-39036461D02*
X163599819Y-38850747D01*
X163599819Y-38850747D02*
X163661723Y-38603128D01*
X163661723Y-38603128D02*
X163723628Y-38479319D01*
X163723628Y-38479319D02*
X163847438Y-38355509D01*
X163847438Y-38355509D02*
X164033152Y-38293604D01*
X164033152Y-38293604D02*
X164156961Y-38293604D01*
X164156961Y-38293604D02*
X164342676Y-38355509D01*
X164342676Y-38355509D02*
X164404580Y-38417414D01*
D10*
D11*
X163661723Y-89593604D02*
X163661723Y-88293604D01*
X163661723Y-88293604D02*
X163971247Y-88293604D01*
X163971247Y-88293604D02*
X164156961Y-88355509D01*
X164156961Y-88355509D02*
X164280771Y-88479319D01*
X164280771Y-88479319D02*
X164342676Y-88603128D01*
X164342676Y-88603128D02*
X164404580Y-88850747D01*
X164404580Y-88850747D02*
X164404580Y-89036461D01*
X164404580Y-89036461D02*
X164342676Y-89284080D01*
X164342676Y-89284080D02*
X164280771Y-89407890D01*
X164280771Y-89407890D02*
X164156961Y-89531700D01*
X164156961Y-89531700D02*
X163971247Y-89593604D01*
X163971247Y-89593604D02*
X163661723Y-89593604D01*
D10*
D11*
X78458026Y-97793328D02*
X78458026Y-96293328D01*
X78458026Y-96293328D02*
X78815169Y-96293328D01*
X78815169Y-96293328D02*
X79029455Y-96364757D01*
X79029455Y-96364757D02*
X79172312Y-96507614D01*
X79172312Y-96507614D02*
X79243741Y-96650471D01*
X79243741Y-96650471D02*
X79315169Y-96936185D01*
X79315169Y-96936185D02*
X79315169Y-97150471D01*
X79315169Y-97150471D02*
X79243741Y-97436185D01*
X79243741Y-97436185D02*
X79172312Y-97579042D01*
X79172312Y-97579042D02*
X79029455Y-97721900D01*
X79029455Y-97721900D02*
X78815169Y-97793328D01*
X78815169Y-97793328D02*
X78458026Y-97793328D01*
X80600884Y-97793328D02*
X80600884Y-97007614D01*
X80600884Y-97007614D02*
X80529455Y-96864757D01*
X80529455Y-96864757D02*
X80386598Y-96793328D01*
X80386598Y-96793328D02*
X80100884Y-96793328D01*
X80100884Y-96793328D02*
X79958026Y-96864757D01*
X80600884Y-97721900D02*
X80458026Y-97793328D01*
X80458026Y-97793328D02*
X80100884Y-97793328D01*
X80100884Y-97793328D02*
X79958026Y-97721900D01*
X79958026Y-97721900D02*
X79886598Y-97579042D01*
X79886598Y-97579042D02*
X79886598Y-97436185D01*
X79886598Y-97436185D02*
X79958026Y-97293328D01*
X79958026Y-97293328D02*
X80100884Y-97221900D01*
X80100884Y-97221900D02*
X80458026Y-97221900D01*
X80458026Y-97221900D02*
X80600884Y-97150471D01*
X81100884Y-96793328D02*
X81672312Y-96793328D01*
X81315169Y-96293328D02*
X81315169Y-97579042D01*
X81315169Y-97579042D02*
X81386598Y-97721900D01*
X81386598Y-97721900D02*
X81529455Y-97793328D01*
X81529455Y-97793328D02*
X81672312Y-97793328D01*
X82743741Y-97721900D02*
X82600884Y-97793328D01*
X82600884Y-97793328D02*
X82315170Y-97793328D01*
X82315170Y-97793328D02*
X82172312Y-97721900D01*
X82172312Y-97721900D02*
X82100884Y-97579042D01*
X82100884Y-97579042D02*
X82100884Y-97007614D01*
X82100884Y-97007614D02*
X82172312Y-96864757D01*
X82172312Y-96864757D02*
X82315170Y-96793328D01*
X82315170Y-96793328D02*
X82600884Y-96793328D01*
X82600884Y-96793328D02*
X82743741Y-96864757D01*
X82743741Y-96864757D02*
X82815170Y-97007614D01*
X82815170Y-97007614D02*
X82815170Y-97150471D01*
X82815170Y-97150471D02*
X82100884Y-97293328D01*
X83458026Y-97650471D02*
X83529455Y-97721900D01*
X83529455Y-97721900D02*
X83458026Y-97793328D01*
X83458026Y-97793328D02*
X83386598Y-97721900D01*
X83386598Y-97721900D02*
X83458026Y-97650471D01*
X83458026Y-97650471D02*
X83458026Y-97793328D01*
X83458026Y-96864757D02*
X83529455Y-96936185D01*
X83529455Y-96936185D02*
X83458026Y-97007614D01*
X83458026Y-97007614D02*
X83386598Y-96936185D01*
X83386598Y-96936185D02*
X83458026Y-96864757D01*
X83458026Y-96864757D02*
X83458026Y-97007614D01*
D10*
D11*
X55002200Y-98507200D02*
X163002200Y-98507200D01*
D10*
D11*
X56458026Y-100593328D02*
X56458026Y-99093328D01*
X57315169Y-100593328D02*
X56672312Y-99736185D01*
X57315169Y-99093328D02*
X56458026Y-99950471D01*
X57958026Y-100593328D02*
X57958026Y-99593328D01*
X57958026Y-99093328D02*
X57886598Y-99164757D01*
X57886598Y-99164757D02*
X57958026Y-99236185D01*
X57958026Y-99236185D02*
X58029455Y-99164757D01*
X58029455Y-99164757D02*
X57958026Y-99093328D01*
X57958026Y-99093328D02*
X57958026Y-99236185D01*
X59529455Y-100450471D02*
X59458027Y-100521900D01*
X59458027Y-100521900D02*
X59243741Y-100593328D01*
X59243741Y-100593328D02*
X59100884Y-100593328D01*
X59100884Y-100593328D02*
X58886598Y-100521900D01*
X58886598Y-100521900D02*
X58743741Y-100379042D01*
X58743741Y-100379042D02*
X58672312Y-100236185D01*
X58672312Y-100236185D02*
X58600884Y-99950471D01*
X58600884Y-99950471D02*
X58600884Y-99736185D01*
X58600884Y-99736185D02*
X58672312Y-99450471D01*
X58672312Y-99450471D02*
X58743741Y-99307614D01*
X58743741Y-99307614D02*
X58886598Y-99164757D01*
X58886598Y-99164757D02*
X59100884Y-99093328D01*
X59100884Y-99093328D02*
X59243741Y-99093328D01*
X59243741Y-99093328D02*
X59458027Y-99164757D01*
X59458027Y-99164757D02*
X59529455Y-99236185D01*
X60815170Y-100593328D02*
X60815170Y-99807614D01*
X60815170Y-99807614D02*
X60743741Y-99664757D01*
X60743741Y-99664757D02*
X60600884Y-99593328D01*
X60600884Y-99593328D02*
X60315170Y-99593328D01*
X60315170Y-99593328D02*
X60172312Y-99664757D01*
X60815170Y-100521900D02*
X60672312Y-100593328D01*
X60672312Y-100593328D02*
X60315170Y-100593328D01*
X60315170Y-100593328D02*
X60172312Y-100521900D01*
X60172312Y-100521900D02*
X60100884Y-100379042D01*
X60100884Y-100379042D02*
X60100884Y-100236185D01*
X60100884Y-100236185D02*
X60172312Y-100093328D01*
X60172312Y-100093328D02*
X60315170Y-100021900D01*
X60315170Y-100021900D02*
X60672312Y-100021900D01*
X60672312Y-100021900D02*
X60815170Y-99950471D01*
X62172313Y-100593328D02*
X62172313Y-99093328D01*
X62172313Y-100521900D02*
X62029455Y-100593328D01*
X62029455Y-100593328D02*
X61743741Y-100593328D01*
X61743741Y-100593328D02*
X61600884Y-100521900D01*
X61600884Y-100521900D02*
X61529455Y-100450471D01*
X61529455Y-100450471D02*
X61458027Y-100307614D01*
X61458027Y-100307614D02*
X61458027Y-99879042D01*
X61458027Y-99879042D02*
X61529455Y-99736185D01*
X61529455Y-99736185D02*
X61600884Y-99664757D01*
X61600884Y-99664757D02*
X61743741Y-99593328D01*
X61743741Y-99593328D02*
X62029455Y-99593328D01*
X62029455Y-99593328D02*
X62172313Y-99664757D01*
X64029455Y-99807614D02*
X64529455Y-99807614D01*
X64743741Y-100593328D02*
X64029455Y-100593328D01*
X64029455Y-100593328D02*
X64029455Y-99093328D01*
X64029455Y-99093328D02*
X64743741Y-99093328D01*
X65386598Y-100450471D02*
X65458027Y-100521900D01*
X65458027Y-100521900D02*
X65386598Y-100593328D01*
X65386598Y-100593328D02*
X65315170Y-100521900D01*
X65315170Y-100521900D02*
X65386598Y-100450471D01*
X65386598Y-100450471D02*
X65386598Y-100593328D01*
X66100884Y-100593328D02*
X66100884Y-99093328D01*
X66100884Y-99093328D02*
X66458027Y-99093328D01*
X66458027Y-99093328D02*
X66672313Y-99164757D01*
X66672313Y-99164757D02*
X66815170Y-99307614D01*
X66815170Y-99307614D02*
X66886599Y-99450471D01*
X66886599Y-99450471D02*
X66958027Y-99736185D01*
X66958027Y-99736185D02*
X66958027Y-99950471D01*
X66958027Y-99950471D02*
X66886599Y-100236185D01*
X66886599Y-100236185D02*
X66815170Y-100379042D01*
X66815170Y-100379042D02*
X66672313Y-100521900D01*
X66672313Y-100521900D02*
X66458027Y-100593328D01*
X66458027Y-100593328D02*
X66100884Y-100593328D01*
X67600884Y-100450471D02*
X67672313Y-100521900D01*
X67672313Y-100521900D02*
X67600884Y-100593328D01*
X67600884Y-100593328D02*
X67529456Y-100521900D01*
X67529456Y-100521900D02*
X67600884Y-100450471D01*
X67600884Y-100450471D02*
X67600884Y-100593328D01*
X68243742Y-100164757D02*
X68958028Y-100164757D01*
X68100885Y-100593328D02*
X68600885Y-99093328D01*
X68600885Y-99093328D02*
X69100885Y-100593328D01*
X69600884Y-100450471D02*
X69672313Y-100521900D01*
X69672313Y-100521900D02*
X69600884Y-100593328D01*
X69600884Y-100593328D02*
X69529456Y-100521900D01*
X69529456Y-100521900D02*
X69600884Y-100450471D01*
X69600884Y-100450471D02*
X69600884Y-100593328D01*
X71529456Y-100593328D02*
X71815170Y-100593328D01*
X71815170Y-100593328D02*
X71958027Y-100521900D01*
X71958027Y-100521900D02*
X72029456Y-100450471D01*
X72029456Y-100450471D02*
X72172313Y-100236185D01*
X72172313Y-100236185D02*
X72243742Y-99950471D01*
X72243742Y-99950471D02*
X72243742Y-99379042D01*
X72243742Y-99379042D02*
X72172313Y-99236185D01*
X72172313Y-99236185D02*
X72100885Y-99164757D01*
X72100885Y-99164757D02*
X71958027Y-99093328D01*
X71958027Y-99093328D02*
X71672313Y-99093328D01*
X71672313Y-99093328D02*
X71529456Y-99164757D01*
X71529456Y-99164757D02*
X71458027Y-99236185D01*
X71458027Y-99236185D02*
X71386599Y-99379042D01*
X71386599Y-99379042D02*
X71386599Y-99736185D01*
X71386599Y-99736185D02*
X71458027Y-99879042D01*
X71458027Y-99879042D02*
X71529456Y-99950471D01*
X71529456Y-99950471D02*
X71672313Y-100021900D01*
X71672313Y-100021900D02*
X71958027Y-100021900D01*
X71958027Y-100021900D02*
X72100885Y-99950471D01*
X72100885Y-99950471D02*
X72172313Y-99879042D01*
X72172313Y-99879042D02*
X72243742Y-99736185D01*
X72886598Y-100450471D02*
X72958027Y-100521900D01*
X72958027Y-100521900D02*
X72886598Y-100593328D01*
X72886598Y-100593328D02*
X72815170Y-100521900D01*
X72815170Y-100521900D02*
X72886598Y-100450471D01*
X72886598Y-100450471D02*
X72886598Y-100593328D01*
X73886599Y-99093328D02*
X74029456Y-99093328D01*
X74029456Y-99093328D02*
X74172313Y-99164757D01*
X74172313Y-99164757D02*
X74243742Y-99236185D01*
X74243742Y-99236185D02*
X74315170Y-99379042D01*
X74315170Y-99379042D02*
X74386599Y-99664757D01*
X74386599Y-99664757D02*
X74386599Y-100021900D01*
X74386599Y-100021900D02*
X74315170Y-100307614D01*
X74315170Y-100307614D02*
X74243742Y-100450471D01*
X74243742Y-100450471D02*
X74172313Y-100521900D01*
X74172313Y-100521900D02*
X74029456Y-100593328D01*
X74029456Y-100593328D02*
X73886599Y-100593328D01*
X73886599Y-100593328D02*
X73743742Y-100521900D01*
X73743742Y-100521900D02*
X73672313Y-100450471D01*
X73672313Y-100450471D02*
X73600884Y-100307614D01*
X73600884Y-100307614D02*
X73529456Y-100021900D01*
X73529456Y-100021900D02*
X73529456Y-99664757D01*
X73529456Y-99664757D02*
X73600884Y-99379042D01*
X73600884Y-99379042D02*
X73672313Y-99236185D01*
X73672313Y-99236185D02*
X73743742Y-99164757D01*
X73743742Y-99164757D02*
X73886599Y-99093328D01*
X75029455Y-100450471D02*
X75100884Y-100521900D01*
X75100884Y-100521900D02*
X75029455Y-100593328D01*
X75029455Y-100593328D02*
X74958027Y-100521900D01*
X74958027Y-100521900D02*
X75029455Y-100450471D01*
X75029455Y-100450471D02*
X75029455Y-100593328D01*
X76029456Y-99093328D02*
X76172313Y-99093328D01*
X76172313Y-99093328D02*
X76315170Y-99164757D01*
X76315170Y-99164757D02*
X76386599Y-99236185D01*
X76386599Y-99236185D02*
X76458027Y-99379042D01*
X76458027Y-99379042D02*
X76529456Y-99664757D01*
X76529456Y-99664757D02*
X76529456Y-100021900D01*
X76529456Y-100021900D02*
X76458027Y-100307614D01*
X76458027Y-100307614D02*
X76386599Y-100450471D01*
X76386599Y-100450471D02*
X76315170Y-100521900D01*
X76315170Y-100521900D02*
X76172313Y-100593328D01*
X76172313Y-100593328D02*
X76029456Y-100593328D01*
X76029456Y-100593328D02*
X75886599Y-100521900D01*
X75886599Y-100521900D02*
X75815170Y-100450471D01*
X75815170Y-100450471D02*
X75743741Y-100307614D01*
X75743741Y-100307614D02*
X75672313Y-100021900D01*
X75672313Y-100021900D02*
X75672313Y-99664757D01*
X75672313Y-99664757D02*
X75743741Y-99379042D01*
X75743741Y-99379042D02*
X75815170Y-99236185D01*
X75815170Y-99236185D02*
X75886599Y-99164757D01*
X75886599Y-99164757D02*
X76029456Y-99093328D01*
D10*
D11*
X55002200Y-95507200D02*
X163002200Y-95507200D01*
D10*
D12*
X142413853Y-97785528D02*
X141913853Y-97071242D01*
X141556710Y-97785528D02*
X141556710Y-96285528D01*
X141556710Y-96285528D02*
X142128139Y-96285528D01*
X142128139Y-96285528D02*
X142270996Y-96356957D01*
X142270996Y-96356957D02*
X142342425Y-96428385D01*
X142342425Y-96428385D02*
X142413853Y-96571242D01*
X142413853Y-96571242D02*
X142413853Y-96785528D01*
X142413853Y-96785528D02*
X142342425Y-96928385D01*
X142342425Y-96928385D02*
X142270996Y-96999814D01*
X142270996Y-96999814D02*
X142128139Y-97071242D01*
X142128139Y-97071242D02*
X141556710Y-97071242D01*
X143628139Y-97714100D02*
X143485282Y-97785528D01*
X143485282Y-97785528D02*
X143199568Y-97785528D01*
X143199568Y-97785528D02*
X143056710Y-97714100D01*
X143056710Y-97714100D02*
X142985282Y-97571242D01*
X142985282Y-97571242D02*
X142985282Y-96999814D01*
X142985282Y-96999814D02*
X143056710Y-96856957D01*
X143056710Y-96856957D02*
X143199568Y-96785528D01*
X143199568Y-96785528D02*
X143485282Y-96785528D01*
X143485282Y-96785528D02*
X143628139Y-96856957D01*
X143628139Y-96856957D02*
X143699568Y-96999814D01*
X143699568Y-96999814D02*
X143699568Y-97142671D01*
X143699568Y-97142671D02*
X142985282Y-97285528D01*
X144199567Y-96785528D02*
X144556710Y-97785528D01*
X144556710Y-97785528D02*
X144913853Y-96785528D01*
X145485281Y-97642671D02*
X145556710Y-97714100D01*
X145556710Y-97714100D02*
X145485281Y-97785528D01*
X145485281Y-97785528D02*
X145413853Y-97714100D01*
X145413853Y-97714100D02*
X145485281Y-97642671D01*
X145485281Y-97642671D02*
X145485281Y-97785528D01*
X145485281Y-96856957D02*
X145556710Y-96928385D01*
X145556710Y-96928385D02*
X145485281Y-96999814D01*
X145485281Y-96999814D02*
X145413853Y-96928385D01*
X145413853Y-96928385D02*
X145485281Y-96856957D01*
X145485281Y-96856957D02*
X145485281Y-96999814D01*
D10*
D11*
X56386598Y-97721900D02*
X56600884Y-97793328D01*
X56600884Y-97793328D02*
X56958026Y-97793328D01*
X56958026Y-97793328D02*
X57100884Y-97721900D01*
X57100884Y-97721900D02*
X57172312Y-97650471D01*
X57172312Y-97650471D02*
X57243741Y-97507614D01*
X57243741Y-97507614D02*
X57243741Y-97364757D01*
X57243741Y-97364757D02*
X57172312Y-97221900D01*
X57172312Y-97221900D02*
X57100884Y-97150471D01*
X57100884Y-97150471D02*
X56958026Y-97079042D01*
X56958026Y-97079042D02*
X56672312Y-97007614D01*
X56672312Y-97007614D02*
X56529455Y-96936185D01*
X56529455Y-96936185D02*
X56458026Y-96864757D01*
X56458026Y-96864757D02*
X56386598Y-96721900D01*
X56386598Y-96721900D02*
X56386598Y-96579042D01*
X56386598Y-96579042D02*
X56458026Y-96436185D01*
X56458026Y-96436185D02*
X56529455Y-96364757D01*
X56529455Y-96364757D02*
X56672312Y-96293328D01*
X56672312Y-96293328D02*
X57029455Y-96293328D01*
X57029455Y-96293328D02*
X57243741Y-96364757D01*
X57886597Y-97793328D02*
X57886597Y-96793328D01*
X57886597Y-96293328D02*
X57815169Y-96364757D01*
X57815169Y-96364757D02*
X57886597Y-96436185D01*
X57886597Y-96436185D02*
X57958026Y-96364757D01*
X57958026Y-96364757D02*
X57886597Y-96293328D01*
X57886597Y-96293328D02*
X57886597Y-96436185D01*
X58458026Y-96793328D02*
X59243741Y-96793328D01*
X59243741Y-96793328D02*
X58458026Y-97793328D01*
X58458026Y-97793328D02*
X59243741Y-97793328D01*
X60386598Y-97721900D02*
X60243741Y-97793328D01*
X60243741Y-97793328D02*
X59958027Y-97793328D01*
X59958027Y-97793328D02*
X59815169Y-97721900D01*
X59815169Y-97721900D02*
X59743741Y-97579042D01*
X59743741Y-97579042D02*
X59743741Y-97007614D01*
X59743741Y-97007614D02*
X59815169Y-96864757D01*
X59815169Y-96864757D02*
X59958027Y-96793328D01*
X59958027Y-96793328D02*
X60243741Y-96793328D01*
X60243741Y-96793328D02*
X60386598Y-96864757D01*
X60386598Y-96864757D02*
X60458027Y-97007614D01*
X60458027Y-97007614D02*
X60458027Y-97150471D01*
X60458027Y-97150471D02*
X59743741Y-97293328D01*
X61100883Y-97650471D02*
X61172312Y-97721900D01*
X61172312Y-97721900D02*
X61100883Y-97793328D01*
X61100883Y-97793328D02*
X61029455Y-97721900D01*
X61029455Y-97721900D02*
X61100883Y-97650471D01*
X61100883Y-97650471D02*
X61100883Y-97793328D01*
X61100883Y-96864757D02*
X61172312Y-96936185D01*
X61172312Y-96936185D02*
X61100883Y-97007614D01*
X61100883Y-97007614D02*
X61029455Y-96936185D01*
X61029455Y-96936185D02*
X61100883Y-96864757D01*
X61100883Y-96864757D02*
X61100883Y-97007614D01*
X62886598Y-97364757D02*
X63600884Y-97364757D01*
X62743741Y-97793328D02*
X63243741Y-96293328D01*
X63243741Y-96293328D02*
X63743741Y-97793328D01*
X64886598Y-96793328D02*
X64886598Y-97793328D01*
X64529455Y-96221900D02*
X64172312Y-97293328D01*
X64172312Y-97293328D02*
X65100883Y-97293328D01*
D10*
D11*
X141458026Y-100593328D02*
X141458026Y-99093328D01*
X142815170Y-100593328D02*
X142815170Y-99093328D01*
X142815170Y-100521900D02*
X142672312Y-100593328D01*
X142672312Y-100593328D02*
X142386598Y-100593328D01*
X142386598Y-100593328D02*
X142243741Y-100521900D01*
X142243741Y-100521900D02*
X142172312Y-100450471D01*
X142172312Y-100450471D02*
X142100884Y-100307614D01*
X142100884Y-100307614D02*
X142100884Y-99879042D01*
X142100884Y-99879042D02*
X142172312Y-99736185D01*
X142172312Y-99736185D02*
X142243741Y-99664757D01*
X142243741Y-99664757D02*
X142386598Y-99593328D01*
X142386598Y-99593328D02*
X142672312Y-99593328D01*
X142672312Y-99593328D02*
X142815170Y-99664757D01*
X143529455Y-100450471D02*
X143600884Y-100521900D01*
X143600884Y-100521900D02*
X143529455Y-100593328D01*
X143529455Y-100593328D02*
X143458027Y-100521900D01*
X143458027Y-100521900D02*
X143529455Y-100450471D01*
X143529455Y-100450471D02*
X143529455Y-100593328D01*
X143529455Y-99664757D02*
X143600884Y-99736185D01*
X143600884Y-99736185D02*
X143529455Y-99807614D01*
X143529455Y-99807614D02*
X143458027Y-99736185D01*
X143458027Y-99736185D02*
X143529455Y-99664757D01*
X143529455Y-99664757D02*
X143529455Y-99807614D01*
X146100884Y-99093328D02*
X145386598Y-99093328D01*
X145386598Y-99093328D02*
X145315170Y-99807614D01*
X145315170Y-99807614D02*
X145386598Y-99736185D01*
X145386598Y-99736185D02*
X145529456Y-99664757D01*
X145529456Y-99664757D02*
X145886598Y-99664757D01*
X145886598Y-99664757D02*
X146029456Y-99736185D01*
X146029456Y-99736185D02*
X146100884Y-99807614D01*
X146100884Y-99807614D02*
X146172313Y-99950471D01*
X146172313Y-99950471D02*
X146172313Y-100307614D01*
X146172313Y-100307614D02*
X146100884Y-100450471D01*
X146100884Y-100450471D02*
X146029456Y-100521900D01*
X146029456Y-100521900D02*
X145886598Y-100593328D01*
X145886598Y-100593328D02*
X145529456Y-100593328D01*
X145529456Y-100593328D02*
X145386598Y-100521900D01*
X145386598Y-100521900D02*
X145315170Y-100450471D01*
X147886598Y-99021900D02*
X146600884Y-100950471D01*
X149100884Y-99093328D02*
X148386598Y-99093328D01*
X148386598Y-99093328D02*
X148315170Y-99807614D01*
X148315170Y-99807614D02*
X148386598Y-99736185D01*
X148386598Y-99736185D02*
X148529456Y-99664757D01*
X148529456Y-99664757D02*
X148886598Y-99664757D01*
X148886598Y-99664757D02*
X149029456Y-99736185D01*
X149029456Y-99736185D02*
X149100884Y-99807614D01*
X149100884Y-99807614D02*
X149172313Y-99950471D01*
X149172313Y-99950471D02*
X149172313Y-100307614D01*
X149172313Y-100307614D02*
X149100884Y-100450471D01*
X149100884Y-100450471D02*
X149029456Y-100521900D01*
X149029456Y-100521900D02*
X148886598Y-100593328D01*
X148886598Y-100593328D02*
X148529456Y-100593328D01*
X148529456Y-100593328D02*
X148386598Y-100521900D01*
X148386598Y-100521900D02*
X148315170Y-100450471D01*
D10*
D11*
X55002200Y-91507200D02*
X163002200Y-91507200D01*
D10*
D13*
X56693928Y-92211638D02*
X57836785Y-92211638D01*
X57015357Y-94211638D02*
X57265357Y-92211638D01*
X58253452Y-94211638D02*
X58420119Y-92878304D01*
X58503452Y-92211638D02*
X58396309Y-92306876D01*
X58396309Y-92306876D02*
X58479643Y-92402114D01*
X58479643Y-92402114D02*
X58586786Y-92306876D01*
X58586786Y-92306876D02*
X58503452Y-92211638D01*
X58503452Y-92211638D02*
X58479643Y-92402114D01*
X59086786Y-92878304D02*
X59848690Y-92878304D01*
X59455833Y-92211638D02*
X59241548Y-93925923D01*
X59241548Y-93925923D02*
X59312976Y-94116400D01*
X59312976Y-94116400D02*
X59491548Y-94211638D01*
X59491548Y-94211638D02*
X59682024Y-94211638D01*
X60634405Y-94211638D02*
X60455833Y-94116400D01*
X60455833Y-94116400D02*
X60384405Y-93925923D01*
X60384405Y-93925923D02*
X60598690Y-92211638D01*
X62170119Y-94116400D02*
X61967738Y-94211638D01*
X61967738Y-94211638D02*
X61586785Y-94211638D01*
X61586785Y-94211638D02*
X61408214Y-94116400D01*
X61408214Y-94116400D02*
X61336785Y-93925923D01*
X61336785Y-93925923D02*
X61432024Y-93164019D01*
X61432024Y-93164019D02*
X61551071Y-92973542D01*
X61551071Y-92973542D02*
X61753452Y-92878304D01*
X61753452Y-92878304D02*
X62134404Y-92878304D01*
X62134404Y-92878304D02*
X62312976Y-92973542D01*
X62312976Y-92973542D02*
X62384404Y-93164019D01*
X62384404Y-93164019D02*
X62360595Y-93354495D01*
X62360595Y-93354495D02*
X61384404Y-93544971D01*
X63134405Y-94021161D02*
X63217738Y-94116400D01*
X63217738Y-94116400D02*
X63110595Y-94211638D01*
X63110595Y-94211638D02*
X63027262Y-94116400D01*
X63027262Y-94116400D02*
X63134405Y-94021161D01*
X63134405Y-94021161D02*
X63110595Y-94211638D01*
X63265357Y-92973542D02*
X63348690Y-93068780D01*
X63348690Y-93068780D02*
X63241548Y-93164019D01*
X63241548Y-93164019D02*
X63158214Y-93068780D01*
X63158214Y-93068780D02*
X63265357Y-92973542D01*
X63265357Y-92973542D02*
X63241548Y-93164019D01*
D10*
D11*
X56958026Y-89607614D02*
X56458026Y-89607614D01*
X56458026Y-90393328D02*
X56458026Y-88893328D01*
X56458026Y-88893328D02*
X57172312Y-88893328D01*
X57743740Y-90393328D02*
X57743740Y-89393328D01*
X57743740Y-88893328D02*
X57672312Y-88964757D01*
X57672312Y-88964757D02*
X57743740Y-89036185D01*
X57743740Y-89036185D02*
X57815169Y-88964757D01*
X57815169Y-88964757D02*
X57743740Y-88893328D01*
X57743740Y-88893328D02*
X57743740Y-89036185D01*
X58672312Y-90393328D02*
X58529455Y-90321900D01*
X58529455Y-90321900D02*
X58458026Y-90179042D01*
X58458026Y-90179042D02*
X58458026Y-88893328D01*
X59815169Y-90321900D02*
X59672312Y-90393328D01*
X59672312Y-90393328D02*
X59386598Y-90393328D01*
X59386598Y-90393328D02*
X59243740Y-90321900D01*
X59243740Y-90321900D02*
X59172312Y-90179042D01*
X59172312Y-90179042D02*
X59172312Y-89607614D01*
X59172312Y-89607614D02*
X59243740Y-89464757D01*
X59243740Y-89464757D02*
X59386598Y-89393328D01*
X59386598Y-89393328D02*
X59672312Y-89393328D01*
X59672312Y-89393328D02*
X59815169Y-89464757D01*
X59815169Y-89464757D02*
X59886598Y-89607614D01*
X59886598Y-89607614D02*
X59886598Y-89750471D01*
X59886598Y-89750471D02*
X59172312Y-89893328D01*
X60529454Y-90250471D02*
X60600883Y-90321900D01*
X60600883Y-90321900D02*
X60529454Y-90393328D01*
X60529454Y-90393328D02*
X60458026Y-90321900D01*
X60458026Y-90321900D02*
X60529454Y-90250471D01*
X60529454Y-90250471D02*
X60529454Y-90393328D01*
X60529454Y-89464757D02*
X60600883Y-89536185D01*
X60600883Y-89536185D02*
X60529454Y-89607614D01*
X60529454Y-89607614D02*
X60458026Y-89536185D01*
X60458026Y-89536185D02*
X60529454Y-89464757D01*
X60529454Y-89464757D02*
X60529454Y-89607614D01*
X62958026Y-90321900D02*
X62815169Y-90393328D01*
X62815169Y-90393328D02*
X62529455Y-90393328D01*
X62529455Y-90393328D02*
X62386597Y-90321900D01*
X62386597Y-90321900D02*
X62315169Y-90179042D01*
X62315169Y-90179042D02*
X62315169Y-89607614D01*
X62315169Y-89607614D02*
X62386597Y-89464757D01*
X62386597Y-89464757D02*
X62529455Y-89393328D01*
X62529455Y-89393328D02*
X62815169Y-89393328D01*
X62815169Y-89393328D02*
X62958026Y-89464757D01*
X62958026Y-89464757D02*
X63029455Y-89607614D01*
X63029455Y-89607614D02*
X63029455Y-89750471D01*
X63029455Y-89750471D02*
X62315169Y-89893328D01*
X64243740Y-90321900D02*
X64100883Y-90393328D01*
X64100883Y-90393328D02*
X63815169Y-90393328D01*
X63815169Y-90393328D02*
X63672311Y-90321900D01*
X63672311Y-90321900D02*
X63600883Y-90179042D01*
X63600883Y-90179042D02*
X63600883Y-89607614D01*
X63600883Y-89607614D02*
X63672311Y-89464757D01*
X63672311Y-89464757D02*
X63815169Y-89393328D01*
X63815169Y-89393328D02*
X64100883Y-89393328D01*
X64100883Y-89393328D02*
X64243740Y-89464757D01*
X64243740Y-89464757D02*
X64315169Y-89607614D01*
X64315169Y-89607614D02*
X64315169Y-89750471D01*
X64315169Y-89750471D02*
X63600883Y-89893328D01*
X64958025Y-89393328D02*
X64958025Y-90893328D01*
X64958025Y-89464757D02*
X65100883Y-89393328D01*
X65100883Y-89393328D02*
X65386597Y-89393328D01*
X65386597Y-89393328D02*
X65529454Y-89464757D01*
X65529454Y-89464757D02*
X65600883Y-89536185D01*
X65600883Y-89536185D02*
X65672311Y-89679042D01*
X65672311Y-89679042D02*
X65672311Y-90107614D01*
X65672311Y-90107614D02*
X65600883Y-90250471D01*
X65600883Y-90250471D02*
X65529454Y-90321900D01*
X65529454Y-90321900D02*
X65386597Y-90393328D01*
X65386597Y-90393328D02*
X65100883Y-90393328D01*
X65100883Y-90393328D02*
X64958025Y-90321900D01*
X66315168Y-90393328D02*
X66315168Y-89393328D01*
X66315168Y-89679042D02*
X66386597Y-89536185D01*
X66386597Y-89536185D02*
X66458026Y-89464757D01*
X66458026Y-89464757D02*
X66600883Y-89393328D01*
X66600883Y-89393328D02*
X66743740Y-89393328D01*
X67458025Y-90393328D02*
X67315168Y-90321900D01*
X67315168Y-90321900D02*
X67243739Y-90250471D01*
X67243739Y-90250471D02*
X67172311Y-90107614D01*
X67172311Y-90107614D02*
X67172311Y-89679042D01*
X67172311Y-89679042D02*
X67243739Y-89536185D01*
X67243739Y-89536185D02*
X67315168Y-89464757D01*
X67315168Y-89464757D02*
X67458025Y-89393328D01*
X67458025Y-89393328D02*
X67672311Y-89393328D01*
X67672311Y-89393328D02*
X67815168Y-89464757D01*
X67815168Y-89464757D02*
X67886597Y-89536185D01*
X67886597Y-89536185D02*
X67958025Y-89679042D01*
X67958025Y-89679042D02*
X67958025Y-90107614D01*
X67958025Y-90107614D02*
X67886597Y-90250471D01*
X67886597Y-90250471D02*
X67815168Y-90321900D01*
X67815168Y-90321900D02*
X67672311Y-90393328D01*
X67672311Y-90393328D02*
X67458025Y-90393328D01*
X68600882Y-90393328D02*
X68600882Y-89393328D01*
X68600882Y-89536185D02*
X68672311Y-89464757D01*
X68672311Y-89464757D02*
X68815168Y-89393328D01*
X68815168Y-89393328D02*
X69029454Y-89393328D01*
X69029454Y-89393328D02*
X69172311Y-89464757D01*
X69172311Y-89464757D02*
X69243740Y-89607614D01*
X69243740Y-89607614D02*
X69243740Y-90393328D01*
X69243740Y-89607614D02*
X69315168Y-89464757D01*
X69315168Y-89464757D02*
X69458025Y-89393328D01*
X69458025Y-89393328D02*
X69672311Y-89393328D01*
X69672311Y-89393328D02*
X69815168Y-89464757D01*
X69815168Y-89464757D02*
X69886597Y-89607614D01*
X69886597Y-89607614D02*
X69886597Y-90393328D01*
X70243740Y-90536185D02*
X71386597Y-90536185D01*
X71743739Y-90393328D02*
X71743739Y-89393328D01*
X71743739Y-88893328D02*
X71672311Y-88964757D01*
X71672311Y-88964757D02*
X71743739Y-89036185D01*
X71743739Y-89036185D02*
X71815168Y-88964757D01*
X71815168Y-88964757D02*
X71743739Y-88893328D01*
X71743739Y-88893328D02*
X71743739Y-89036185D01*
X72386597Y-89036185D02*
X72458025Y-88964757D01*
X72458025Y-88964757D02*
X72600883Y-88893328D01*
X72600883Y-88893328D02*
X72958025Y-88893328D01*
X72958025Y-88893328D02*
X73100883Y-88964757D01*
X73100883Y-88964757D02*
X73172311Y-89036185D01*
X73172311Y-89036185D02*
X73243740Y-89179042D01*
X73243740Y-89179042D02*
X73243740Y-89321900D01*
X73243740Y-89321900D02*
X73172311Y-89536185D01*
X73172311Y-89536185D02*
X72315168Y-90393328D01*
X72315168Y-90393328D02*
X73243740Y-90393328D01*
X74529454Y-90321900D02*
X74386596Y-90393328D01*
X74386596Y-90393328D02*
X74100882Y-90393328D01*
X74100882Y-90393328D02*
X73958025Y-90321900D01*
X73958025Y-90321900D02*
X73886596Y-90250471D01*
X73886596Y-90250471D02*
X73815168Y-90107614D01*
X73815168Y-90107614D02*
X73815168Y-89679042D01*
X73815168Y-89679042D02*
X73886596Y-89536185D01*
X73886596Y-89536185D02*
X73958025Y-89464757D01*
X73958025Y-89464757D02*
X74100882Y-89393328D01*
X74100882Y-89393328D02*
X74386596Y-89393328D01*
X74386596Y-89393328D02*
X74529454Y-89464757D01*
X75172310Y-90250471D02*
X75243739Y-90321900D01*
X75243739Y-90321900D02*
X75172310Y-90393328D01*
X75172310Y-90393328D02*
X75100882Y-90321900D01*
X75100882Y-90321900D02*
X75172310Y-90250471D01*
X75172310Y-90250471D02*
X75172310Y-90393328D01*
X75886596Y-90393328D02*
X75886596Y-88893328D01*
X76029454Y-89821900D02*
X76458025Y-90393328D01*
X76458025Y-89393328D02*
X75886596Y-89964757D01*
X77100882Y-90393328D02*
X77100882Y-89393328D01*
X77100882Y-88893328D02*
X77029454Y-88964757D01*
X77029454Y-88964757D02*
X77100882Y-89036185D01*
X77100882Y-89036185D02*
X77172311Y-88964757D01*
X77172311Y-88964757D02*
X77100882Y-88893328D01*
X77100882Y-88893328D02*
X77100882Y-89036185D01*
X78458026Y-90321900D02*
X78315168Y-90393328D01*
X78315168Y-90393328D02*
X78029454Y-90393328D01*
X78029454Y-90393328D02*
X77886597Y-90321900D01*
X77886597Y-90321900D02*
X77815168Y-90250471D01*
X77815168Y-90250471D02*
X77743740Y-90107614D01*
X77743740Y-90107614D02*
X77743740Y-89679042D01*
X77743740Y-89679042D02*
X77815168Y-89536185D01*
X77815168Y-89536185D02*
X77886597Y-89464757D01*
X77886597Y-89464757D02*
X78029454Y-89393328D01*
X78029454Y-89393328D02*
X78315168Y-89393328D01*
X78315168Y-89393328D02*
X78458026Y-89464757D01*
X79743740Y-90393328D02*
X79743740Y-89607614D01*
X79743740Y-89607614D02*
X79672311Y-89464757D01*
X79672311Y-89464757D02*
X79529454Y-89393328D01*
X79529454Y-89393328D02*
X79243740Y-89393328D01*
X79243740Y-89393328D02*
X79100882Y-89464757D01*
X79743740Y-90321900D02*
X79600882Y-90393328D01*
X79600882Y-90393328D02*
X79243740Y-90393328D01*
X79243740Y-90393328D02*
X79100882Y-90321900D01*
X79100882Y-90321900D02*
X79029454Y-90179042D01*
X79029454Y-90179042D02*
X79029454Y-90036185D01*
X79029454Y-90036185D02*
X79100882Y-89893328D01*
X79100882Y-89893328D02*
X79243740Y-89821900D01*
X79243740Y-89821900D02*
X79600882Y-89821900D01*
X79600882Y-89821900D02*
X79743740Y-89750471D01*
X81100883Y-90393328D02*
X81100883Y-88893328D01*
X81100883Y-90321900D02*
X80958025Y-90393328D01*
X80958025Y-90393328D02*
X80672311Y-90393328D01*
X80672311Y-90393328D02*
X80529454Y-90321900D01*
X80529454Y-90321900D02*
X80458025Y-90250471D01*
X80458025Y-90250471D02*
X80386597Y-90107614D01*
X80386597Y-90107614D02*
X80386597Y-89679042D01*
X80386597Y-89679042D02*
X80458025Y-89536185D01*
X80458025Y-89536185D02*
X80529454Y-89464757D01*
X80529454Y-89464757D02*
X80672311Y-89393328D01*
X80672311Y-89393328D02*
X80958025Y-89393328D01*
X80958025Y-89393328D02*
X81100883Y-89464757D01*
X81458026Y-90536185D02*
X82600883Y-90536185D01*
X82958025Y-89393328D02*
X82958025Y-90893328D01*
X82958025Y-89464757D02*
X83100883Y-89393328D01*
X83100883Y-89393328D02*
X83386597Y-89393328D01*
X83386597Y-89393328D02*
X83529454Y-89464757D01*
X83529454Y-89464757D02*
X83600883Y-89536185D01*
X83600883Y-89536185D02*
X83672311Y-89679042D01*
X83672311Y-89679042D02*
X83672311Y-90107614D01*
X83672311Y-90107614D02*
X83600883Y-90250471D01*
X83600883Y-90250471D02*
X83529454Y-90321900D01*
X83529454Y-90321900D02*
X83386597Y-90393328D01*
X83386597Y-90393328D02*
X83100883Y-90393328D01*
X83100883Y-90393328D02*
X82958025Y-90321900D01*
X84958026Y-90321900D02*
X84815168Y-90393328D01*
X84815168Y-90393328D02*
X84529454Y-90393328D01*
X84529454Y-90393328D02*
X84386597Y-90321900D01*
X84386597Y-90321900D02*
X84315168Y-90250471D01*
X84315168Y-90250471D02*
X84243740Y-90107614D01*
X84243740Y-90107614D02*
X84243740Y-89679042D01*
X84243740Y-89679042D02*
X84315168Y-89536185D01*
X84315168Y-89536185D02*
X84386597Y-89464757D01*
X84386597Y-89464757D02*
X84529454Y-89393328D01*
X84529454Y-89393328D02*
X84815168Y-89393328D01*
X84815168Y-89393328D02*
X84958026Y-89464757D01*
X85600882Y-90393328D02*
X85600882Y-88893328D01*
X85600882Y-89464757D02*
X85743740Y-89393328D01*
X85743740Y-89393328D02*
X86029454Y-89393328D01*
X86029454Y-89393328D02*
X86172311Y-89464757D01*
X86172311Y-89464757D02*
X86243740Y-89536185D01*
X86243740Y-89536185D02*
X86315168Y-89679042D01*
X86315168Y-89679042D02*
X86315168Y-90107614D01*
X86315168Y-90107614D02*
X86243740Y-90250471D01*
X86243740Y-90250471D02*
X86172311Y-90321900D01*
X86172311Y-90321900D02*
X86029454Y-90393328D01*
X86029454Y-90393328D02*
X85743740Y-90393328D01*
X85743740Y-90393328D02*
X85600882Y-90321900D01*
D10*
D11*
X55002200Y-85507200D02*
X163002200Y-85507200D01*
D10*
D11*
X56386598Y-87621900D02*
X56600884Y-87693328D01*
X56600884Y-87693328D02*
X56958026Y-87693328D01*
X56958026Y-87693328D02*
X57100884Y-87621900D01*
X57100884Y-87621900D02*
X57172312Y-87550471D01*
X57172312Y-87550471D02*
X57243741Y-87407614D01*
X57243741Y-87407614D02*
X57243741Y-87264757D01*
X57243741Y-87264757D02*
X57172312Y-87121900D01*
X57172312Y-87121900D02*
X57100884Y-87050471D01*
X57100884Y-87050471D02*
X56958026Y-86979042D01*
X56958026Y-86979042D02*
X56672312Y-86907614D01*
X56672312Y-86907614D02*
X56529455Y-86836185D01*
X56529455Y-86836185D02*
X56458026Y-86764757D01*
X56458026Y-86764757D02*
X56386598Y-86621900D01*
X56386598Y-86621900D02*
X56386598Y-86479042D01*
X56386598Y-86479042D02*
X56458026Y-86336185D01*
X56458026Y-86336185D02*
X56529455Y-86264757D01*
X56529455Y-86264757D02*
X56672312Y-86193328D01*
X56672312Y-86193328D02*
X57029455Y-86193328D01*
X57029455Y-86193328D02*
X57243741Y-86264757D01*
X57886597Y-87693328D02*
X57886597Y-86193328D01*
X58529455Y-87693328D02*
X58529455Y-86907614D01*
X58529455Y-86907614D02*
X58458026Y-86764757D01*
X58458026Y-86764757D02*
X58315169Y-86693328D01*
X58315169Y-86693328D02*
X58100883Y-86693328D01*
X58100883Y-86693328D02*
X57958026Y-86764757D01*
X57958026Y-86764757D02*
X57886597Y-86836185D01*
X59815169Y-87621900D02*
X59672312Y-87693328D01*
X59672312Y-87693328D02*
X59386598Y-87693328D01*
X59386598Y-87693328D02*
X59243740Y-87621900D01*
X59243740Y-87621900D02*
X59172312Y-87479042D01*
X59172312Y-87479042D02*
X59172312Y-86907614D01*
X59172312Y-86907614D02*
X59243740Y-86764757D01*
X59243740Y-86764757D02*
X59386598Y-86693328D01*
X59386598Y-86693328D02*
X59672312Y-86693328D01*
X59672312Y-86693328D02*
X59815169Y-86764757D01*
X59815169Y-86764757D02*
X59886598Y-86907614D01*
X59886598Y-86907614D02*
X59886598Y-87050471D01*
X59886598Y-87050471D02*
X59172312Y-87193328D01*
X61100883Y-87621900D02*
X60958026Y-87693328D01*
X60958026Y-87693328D02*
X60672312Y-87693328D01*
X60672312Y-87693328D02*
X60529454Y-87621900D01*
X60529454Y-87621900D02*
X60458026Y-87479042D01*
X60458026Y-87479042D02*
X60458026Y-86907614D01*
X60458026Y-86907614D02*
X60529454Y-86764757D01*
X60529454Y-86764757D02*
X60672312Y-86693328D01*
X60672312Y-86693328D02*
X60958026Y-86693328D01*
X60958026Y-86693328D02*
X61100883Y-86764757D01*
X61100883Y-86764757D02*
X61172312Y-86907614D01*
X61172312Y-86907614D02*
X61172312Y-87050471D01*
X61172312Y-87050471D02*
X60458026Y-87193328D01*
X61600883Y-86693328D02*
X62172311Y-86693328D01*
X61815168Y-86193328D02*
X61815168Y-87479042D01*
X61815168Y-87479042D02*
X61886597Y-87621900D01*
X61886597Y-87621900D02*
X62029454Y-87693328D01*
X62029454Y-87693328D02*
X62172311Y-87693328D01*
X62672311Y-87550471D02*
X62743740Y-87621900D01*
X62743740Y-87621900D02*
X62672311Y-87693328D01*
X62672311Y-87693328D02*
X62600883Y-87621900D01*
X62600883Y-87621900D02*
X62672311Y-87550471D01*
X62672311Y-87550471D02*
X62672311Y-87693328D01*
X62672311Y-86764757D02*
X62743740Y-86836185D01*
X62743740Y-86836185D02*
X62672311Y-86907614D01*
X62672311Y-86907614D02*
X62600883Y-86836185D01*
X62600883Y-86836185D02*
X62672311Y-86764757D01*
X62672311Y-86764757D02*
X62672311Y-86907614D01*
D10*
D11*
X75002200Y-95507200D02*
X75002200Y-98507200D01*
D10*
D11*
X139002200Y-95507200D02*
X139002200Y-102007200D01*
D14*
G04 #@! TO.C,R1*
X21500000Y15500000D03*
D15*
X13880000Y15500000D03*
G04 #@! TD*
D16*
G04 #@! TO.C,J1*
X4000000Y31025000D03*
D17*
X4000000Y28485000D03*
X4000000Y25945000D03*
G04 #@! TD*
D16*
G04 #@! TO.C,J4*
X21500000Y3000000D03*
D17*
X18960000Y3000000D03*
X16420000Y3000000D03*
X13880000Y3000000D03*
G04 #@! TD*
D16*
G04 #@! TO.C,J2*
X4000000Y19540000D03*
D17*
X4000000Y17000000D03*
X4000000Y14460000D03*
G04 #@! TD*
D18*
G04 #@! TO.C,U1*
X12880000Y31040000D03*
D15*
X12880000Y28500000D03*
X12880000Y25960000D03*
X12880000Y23420000D03*
X20500000Y23420000D03*
X20500000Y25960000D03*
X20500000Y28500000D03*
X20500000Y31040000D03*
G04 #@! TD*
D14*
G04 #@! TO.C,R2*
X21500000Y9500000D03*
D15*
X13880000Y9500000D03*
G04 #@! TD*
D16*
G04 #@! TO.C,J3*
X4000000Y8525000D03*
D17*
X4000000Y5985000D03*
X4000000Y3445000D03*
G04 #@! TD*
D19*
X0Y36000000D02*
X25000000Y36000000D01*
X25000000Y0D01*
X0Y0D01*
X0Y36000000D01*
M02*
