M48
; DRILL file {KiCad 9.0.0} date 2025-03-15T22:30:31+0100
; FORMAT={-:-/ absolute / metric / decimal}
; #@! TF.CreationDate,2025-03-15T22:30:31+01:00
; #@! TF.GenerationSoftware,Kicad,Pcbnew,9.0.0
; #@! TF.FileFunction,MixedPlating,1,2
FMAT,2
METRIC
; #@! TA.AperFunction,Plated,PTH,ComponentDrill
T1C0.800
; #@! TA.AperFunction,Plated,PTH,ComponentDrill
T2C1.000
; #@! TA.AperFunction,NonPlated,NPTH,ComponentDrill
T3C3.200
%
G90
G05
T1
X14.33Y32.09
X14.33Y29.55
X14.33Y27.01
X14.33Y24.47
X14.39Y18.5
X14.5Y12.05
X18.9Y7.75
X21.4Y7.75
X21.95Y32.09
X21.95Y29.55
X21.95Y27.01
X21.95Y24.47
X22.01Y18.5
X22.12Y12.05
T2
X3.3Y31.73
X3.3Y29.19
X3.3Y26.65
X3.3Y20.245
X3.3Y17.705
X3.3Y15.165
X3.3Y9.23
X3.3Y6.69
X3.3Y4.15
X13.82Y3.25
X16.36Y3.25
X18.9Y3.25
X21.44Y3.25
T3
X10.05Y15.2
M30
