G04 #@! TF.GenerationSoftware,KiCad,Pcbnew,9.0.0*
G04 #@! TF.CreationDate,2025-03-02T09:14:39+01:00*
G04 #@! TF.ProjectId,eeprom_i2c,65657072-6f6d-45f6-9932-632e6b696361,rev?*
G04 #@! TF.SameCoordinates,PX7459280PY5b8d800*
G04 #@! TF.FileFunction,Legend,Top*
G04 #@! TF.FilePolarity,Positive*
%FSLAX46Y46*%
G04 Gerber Fmt 4.6, Leading zero omitted, Abs format (unit mm)*
G04 Created by KiCad (PCBNEW 9.0.0) date 2025-03-02 09:14:39*
%MOMM*%
%LPD*%
G01*
G04 APERTURE LIST*
%ADD10C,0.100000*%
%ADD11C,0.150000*%
%ADD12C,0.300000*%
%ADD13C,0.400000*%
%ADD14C,0.200000*%
%ADD15C,0.125000*%
%ADD16C,0.120000*%
G04 #@! TA.AperFunction,Profile*
%ADD17C,0.050000*%
G04 #@! TD*
G04 APERTURE END LIST*
D10*
D11*
X55002200Y-70007200D02*
X163002200Y-70007200D01*
X163002200Y-102007200D01*
X55002200Y-102007200D01*
X55002200Y-70007200D01*
D10*
D11*
X-112000000Y86000000D02*
X165002200Y86000000D01*
X165002200Y-104007200D01*
X-112000000Y-104007200D01*
X-112000000Y86000000D01*
D10*
D11*
X-110000000Y84000000D02*
X163002200Y84000000D01*
X163002200Y-102007200D01*
X-110000000Y-102007200D01*
X-110000000Y84000000D01*
D10*
D11*
X-62000000Y84000000D02*
X-62000000Y86000000D01*
D10*
D11*
X-12000000Y84000000D02*
X-12000000Y86000000D01*
D10*
D11*
X38000000Y84000000D02*
X38000000Y86000000D01*
D10*
D11*
X88000000Y84000000D02*
X88000000Y86000000D01*
D10*
D11*
X138000000Y84000000D02*
X138000000Y86000000D01*
D10*
D11*
X-85910840Y84406396D02*
X-86653697Y84406396D01*
X-86282269Y84406396D02*
X-86282269Y85706396D01*
X-86282269Y85706396D02*
X-86406078Y85520681D01*
X-86406078Y85520681D02*
X-86529888Y85396872D01*
X-86529888Y85396872D02*
X-86653697Y85334967D01*
D10*
D11*
X-36653697Y85582586D02*
X-36591793Y85644491D01*
X-36591793Y85644491D02*
X-36467983Y85706396D01*
X-36467983Y85706396D02*
X-36158459Y85706396D01*
X-36158459Y85706396D02*
X-36034650Y85644491D01*
X-36034650Y85644491D02*
X-35972745Y85582586D01*
X-35972745Y85582586D02*
X-35910840Y85458777D01*
X-35910840Y85458777D02*
X-35910840Y85334967D01*
X-35910840Y85334967D02*
X-35972745Y85149253D01*
X-35972745Y85149253D02*
X-36715602Y84406396D01*
X-36715602Y84406396D02*
X-35910840Y84406396D01*
D10*
D11*
X13284398Y85706396D02*
X14089160Y85706396D01*
X14089160Y85706396D02*
X13655826Y85211158D01*
X13655826Y85211158D02*
X13841541Y85211158D01*
X13841541Y85211158D02*
X13965350Y85149253D01*
X13965350Y85149253D02*
X14027255Y85087348D01*
X14027255Y85087348D02*
X14089160Y84963539D01*
X14089160Y84963539D02*
X14089160Y84654015D01*
X14089160Y84654015D02*
X14027255Y84530205D01*
X14027255Y84530205D02*
X13965350Y84468300D01*
X13965350Y84468300D02*
X13841541Y84406396D01*
X13841541Y84406396D02*
X13470112Y84406396D01*
X13470112Y84406396D02*
X13346303Y84468300D01*
X13346303Y84468300D02*
X13284398Y84530205D01*
D10*
D11*
X63965350Y85273062D02*
X63965350Y84406396D01*
X63655826Y85768300D02*
X63346303Y84839729D01*
X63346303Y84839729D02*
X64151064Y84839729D01*
D10*
D11*
X114027255Y85706396D02*
X113408207Y85706396D01*
X113408207Y85706396D02*
X113346303Y85087348D01*
X113346303Y85087348D02*
X113408207Y85149253D01*
X113408207Y85149253D02*
X113532017Y85211158D01*
X113532017Y85211158D02*
X113841541Y85211158D01*
X113841541Y85211158D02*
X113965350Y85149253D01*
X113965350Y85149253D02*
X114027255Y85087348D01*
X114027255Y85087348D02*
X114089160Y84963539D01*
X114089160Y84963539D02*
X114089160Y84654015D01*
X114089160Y84654015D02*
X114027255Y84530205D01*
X114027255Y84530205D02*
X113965350Y84468300D01*
X113965350Y84468300D02*
X113841541Y84406396D01*
X113841541Y84406396D02*
X113532017Y84406396D01*
X113532017Y84406396D02*
X113408207Y84468300D01*
X113408207Y84468300D02*
X113346303Y84530205D01*
D10*
D11*
X163965350Y85706396D02*
X163717731Y85706396D01*
X163717731Y85706396D02*
X163593922Y85644491D01*
X163593922Y85644491D02*
X163532017Y85582586D01*
X163532017Y85582586D02*
X163408207Y85396872D01*
X163408207Y85396872D02*
X163346303Y85149253D01*
X163346303Y85149253D02*
X163346303Y84654015D01*
X163346303Y84654015D02*
X163408207Y84530205D01*
X163408207Y84530205D02*
X163470112Y84468300D01*
X163470112Y84468300D02*
X163593922Y84406396D01*
X163593922Y84406396D02*
X163841541Y84406396D01*
X163841541Y84406396D02*
X163965350Y84468300D01*
X163965350Y84468300D02*
X164027255Y84530205D01*
X164027255Y84530205D02*
X164089160Y84654015D01*
X164089160Y84654015D02*
X164089160Y84963539D01*
X164089160Y84963539D02*
X164027255Y85087348D01*
X164027255Y85087348D02*
X163965350Y85149253D01*
X163965350Y85149253D02*
X163841541Y85211158D01*
X163841541Y85211158D02*
X163593922Y85211158D01*
X163593922Y85211158D02*
X163470112Y85149253D01*
X163470112Y85149253D02*
X163408207Y85087348D01*
X163408207Y85087348D02*
X163346303Y84963539D01*
D10*
D11*
X-62000000Y-102007200D02*
X-62000000Y-104007200D01*
D10*
D11*
X-12000000Y-102007200D02*
X-12000000Y-104007200D01*
D10*
D11*
X38000000Y-102007200D02*
X38000000Y-104007200D01*
D10*
D11*
X88000000Y-102007200D02*
X88000000Y-104007200D01*
D10*
D11*
X138000000Y-102007200D02*
X138000000Y-104007200D01*
D10*
D11*
X-85910840Y-103600804D02*
X-86653697Y-103600804D01*
X-86282269Y-103600804D02*
X-86282269Y-102300804D01*
X-86282269Y-102300804D02*
X-86406078Y-102486519D01*
X-86406078Y-102486519D02*
X-86529888Y-102610328D01*
X-86529888Y-102610328D02*
X-86653697Y-102672233D01*
D10*
D11*
X-36653697Y-102424614D02*
X-36591793Y-102362709D01*
X-36591793Y-102362709D02*
X-36467983Y-102300804D01*
X-36467983Y-102300804D02*
X-36158459Y-102300804D01*
X-36158459Y-102300804D02*
X-36034650Y-102362709D01*
X-36034650Y-102362709D02*
X-35972745Y-102424614D01*
X-35972745Y-102424614D02*
X-35910840Y-102548423D01*
X-35910840Y-102548423D02*
X-35910840Y-102672233D01*
X-35910840Y-102672233D02*
X-35972745Y-102857947D01*
X-35972745Y-102857947D02*
X-36715602Y-103600804D01*
X-36715602Y-103600804D02*
X-35910840Y-103600804D01*
D10*
D11*
X13284398Y-102300804D02*
X14089160Y-102300804D01*
X14089160Y-102300804D02*
X13655826Y-102796042D01*
X13655826Y-102796042D02*
X13841541Y-102796042D01*
X13841541Y-102796042D02*
X13965350Y-102857947D01*
X13965350Y-102857947D02*
X14027255Y-102919852D01*
X14027255Y-102919852D02*
X14089160Y-103043661D01*
X14089160Y-103043661D02*
X14089160Y-103353185D01*
X14089160Y-103353185D02*
X14027255Y-103476995D01*
X14027255Y-103476995D02*
X13965350Y-103538900D01*
X13965350Y-103538900D02*
X13841541Y-103600804D01*
X13841541Y-103600804D02*
X13470112Y-103600804D01*
X13470112Y-103600804D02*
X13346303Y-103538900D01*
X13346303Y-103538900D02*
X13284398Y-103476995D01*
D10*
D11*
X63965350Y-102734138D02*
X63965350Y-103600804D01*
X63655826Y-102238900D02*
X63346303Y-103167471D01*
X63346303Y-103167471D02*
X64151064Y-103167471D01*
D10*
D11*
X114027255Y-102300804D02*
X113408207Y-102300804D01*
X113408207Y-102300804D02*
X113346303Y-102919852D01*
X113346303Y-102919852D02*
X113408207Y-102857947D01*
X113408207Y-102857947D02*
X113532017Y-102796042D01*
X113532017Y-102796042D02*
X113841541Y-102796042D01*
X113841541Y-102796042D02*
X113965350Y-102857947D01*
X113965350Y-102857947D02*
X114027255Y-102919852D01*
X114027255Y-102919852D02*
X114089160Y-103043661D01*
X114089160Y-103043661D02*
X114089160Y-103353185D01*
X114089160Y-103353185D02*
X114027255Y-103476995D01*
X114027255Y-103476995D02*
X113965350Y-103538900D01*
X113965350Y-103538900D02*
X113841541Y-103600804D01*
X113841541Y-103600804D02*
X113532017Y-103600804D01*
X113532017Y-103600804D02*
X113408207Y-103538900D01*
X113408207Y-103538900D02*
X113346303Y-103476995D01*
D10*
D11*
X163965350Y-102300804D02*
X163717731Y-102300804D01*
X163717731Y-102300804D02*
X163593922Y-102362709D01*
X163593922Y-102362709D02*
X163532017Y-102424614D01*
X163532017Y-102424614D02*
X163408207Y-102610328D01*
X163408207Y-102610328D02*
X163346303Y-102857947D01*
X163346303Y-102857947D02*
X163346303Y-103353185D01*
X163346303Y-103353185D02*
X163408207Y-103476995D01*
X163408207Y-103476995D02*
X163470112Y-103538900D01*
X163470112Y-103538900D02*
X163593922Y-103600804D01*
X163593922Y-103600804D02*
X163841541Y-103600804D01*
X163841541Y-103600804D02*
X163965350Y-103538900D01*
X163965350Y-103538900D02*
X164027255Y-103476995D01*
X164027255Y-103476995D02*
X164089160Y-103353185D01*
X164089160Y-103353185D02*
X164089160Y-103043661D01*
X164089160Y-103043661D02*
X164027255Y-102919852D01*
X164027255Y-102919852D02*
X163965350Y-102857947D01*
X163965350Y-102857947D02*
X163841541Y-102796042D01*
X163841541Y-102796042D02*
X163593922Y-102796042D01*
X163593922Y-102796042D02*
X163470112Y-102857947D01*
X163470112Y-102857947D02*
X163408207Y-102919852D01*
X163408207Y-102919852D02*
X163346303Y-103043661D01*
D10*
D11*
X-112000000Y36000000D02*
X-110000000Y36000000D01*
D10*
D11*
X-112000000Y-14000000D02*
X-110000000Y-14000000D01*
D10*
D11*
X-112000000Y-64000000D02*
X-110000000Y-64000000D01*
D10*
D11*
X-111309524Y60777824D02*
X-110690477Y60777824D01*
X-111433334Y60406396D02*
X-111000001Y61706396D01*
X-111000001Y61706396D02*
X-110566667Y60406396D01*
D10*
D11*
X-110907143Y11087348D02*
X-110721429Y11025443D01*
X-110721429Y11025443D02*
X-110659524Y10963539D01*
X-110659524Y10963539D02*
X-110597620Y10839729D01*
X-110597620Y10839729D02*
X-110597620Y10654015D01*
X-110597620Y10654015D02*
X-110659524Y10530205D01*
X-110659524Y10530205D02*
X-110721429Y10468300D01*
X-110721429Y10468300D02*
X-110845239Y10406396D01*
X-110845239Y10406396D02*
X-111340477Y10406396D01*
X-111340477Y10406396D02*
X-111340477Y11706396D01*
X-111340477Y11706396D02*
X-110907143Y11706396D01*
X-110907143Y11706396D02*
X-110783334Y11644491D01*
X-110783334Y11644491D02*
X-110721429Y11582586D01*
X-110721429Y11582586D02*
X-110659524Y11458777D01*
X-110659524Y11458777D02*
X-110659524Y11334967D01*
X-110659524Y11334967D02*
X-110721429Y11211158D01*
X-110721429Y11211158D02*
X-110783334Y11149253D01*
X-110783334Y11149253D02*
X-110907143Y11087348D01*
X-110907143Y11087348D02*
X-111340477Y11087348D01*
D10*
D11*
X-110597620Y-39469795D02*
X-110659524Y-39531700D01*
X-110659524Y-39531700D02*
X-110845239Y-39593604D01*
X-110845239Y-39593604D02*
X-110969048Y-39593604D01*
X-110969048Y-39593604D02*
X-111154762Y-39531700D01*
X-111154762Y-39531700D02*
X-111278572Y-39407890D01*
X-111278572Y-39407890D02*
X-111340477Y-39284080D01*
X-111340477Y-39284080D02*
X-111402381Y-39036461D01*
X-111402381Y-39036461D02*
X-111402381Y-38850747D01*
X-111402381Y-38850747D02*
X-111340477Y-38603128D01*
X-111340477Y-38603128D02*
X-111278572Y-38479319D01*
X-111278572Y-38479319D02*
X-111154762Y-38355509D01*
X-111154762Y-38355509D02*
X-110969048Y-38293604D01*
X-110969048Y-38293604D02*
X-110845239Y-38293604D01*
X-110845239Y-38293604D02*
X-110659524Y-38355509D01*
X-110659524Y-38355509D02*
X-110597620Y-38417414D01*
D10*
D11*
X-111340477Y-89593604D02*
X-111340477Y-88293604D01*
X-111340477Y-88293604D02*
X-111030953Y-88293604D01*
X-111030953Y-88293604D02*
X-110845239Y-88355509D01*
X-110845239Y-88355509D02*
X-110721429Y-88479319D01*
X-110721429Y-88479319D02*
X-110659524Y-88603128D01*
X-110659524Y-88603128D02*
X-110597620Y-88850747D01*
X-110597620Y-88850747D02*
X-110597620Y-89036461D01*
X-110597620Y-89036461D02*
X-110659524Y-89284080D01*
X-110659524Y-89284080D02*
X-110721429Y-89407890D01*
X-110721429Y-89407890D02*
X-110845239Y-89531700D01*
X-110845239Y-89531700D02*
X-111030953Y-89593604D01*
X-111030953Y-89593604D02*
X-111340477Y-89593604D01*
D10*
D11*
X165002200Y36000000D02*
X163002200Y36000000D01*
D10*
D11*
X165002200Y-14000000D02*
X163002200Y-14000000D01*
D10*
D11*
X165002200Y-64000000D02*
X163002200Y-64000000D01*
D10*
D11*
X163692676Y60777824D02*
X164311723Y60777824D01*
X163568866Y60406396D02*
X164002199Y61706396D01*
X164002199Y61706396D02*
X164435533Y60406396D01*
D10*
D11*
X164095057Y11087348D02*
X164280771Y11025443D01*
X164280771Y11025443D02*
X164342676Y10963539D01*
X164342676Y10963539D02*
X164404580Y10839729D01*
X164404580Y10839729D02*
X164404580Y10654015D01*
X164404580Y10654015D02*
X164342676Y10530205D01*
X164342676Y10530205D02*
X164280771Y10468300D01*
X164280771Y10468300D02*
X164156961Y10406396D01*
X164156961Y10406396D02*
X163661723Y10406396D01*
X163661723Y10406396D02*
X163661723Y11706396D01*
X163661723Y11706396D02*
X164095057Y11706396D01*
X164095057Y11706396D02*
X164218866Y11644491D01*
X164218866Y11644491D02*
X164280771Y11582586D01*
X164280771Y11582586D02*
X164342676Y11458777D01*
X164342676Y11458777D02*
X164342676Y11334967D01*
X164342676Y11334967D02*
X164280771Y11211158D01*
X164280771Y11211158D02*
X164218866Y11149253D01*
X164218866Y11149253D02*
X164095057Y11087348D01*
X164095057Y11087348D02*
X163661723Y11087348D01*
D10*
D11*
X164404580Y-39469795D02*
X164342676Y-39531700D01*
X164342676Y-39531700D02*
X164156961Y-39593604D01*
X164156961Y-39593604D02*
X164033152Y-39593604D01*
X164033152Y-39593604D02*
X163847438Y-39531700D01*
X163847438Y-39531700D02*
X163723628Y-39407890D01*
X163723628Y-39407890D02*
X163661723Y-39284080D01*
X163661723Y-39284080D02*
X163599819Y-39036461D01*
X163599819Y-39036461D02*
X163599819Y-38850747D01*
X163599819Y-38850747D02*
X163661723Y-38603128D01*
X163661723Y-38603128D02*
X163723628Y-38479319D01*
X163723628Y-38479319D02*
X163847438Y-38355509D01*
X163847438Y-38355509D02*
X164033152Y-38293604D01*
X164033152Y-38293604D02*
X164156961Y-38293604D01*
X164156961Y-38293604D02*
X164342676Y-38355509D01*
X164342676Y-38355509D02*
X164404580Y-38417414D01*
D10*
D11*
X163661723Y-89593604D02*
X163661723Y-88293604D01*
X163661723Y-88293604D02*
X163971247Y-88293604D01*
X163971247Y-88293604D02*
X164156961Y-88355509D01*
X164156961Y-88355509D02*
X164280771Y-88479319D01*
X164280771Y-88479319D02*
X164342676Y-88603128D01*
X164342676Y-88603128D02*
X164404580Y-88850747D01*
X164404580Y-88850747D02*
X164404580Y-89036461D01*
X164404580Y-89036461D02*
X164342676Y-89284080D01*
X164342676Y-89284080D02*
X164280771Y-89407890D01*
X164280771Y-89407890D02*
X164156961Y-89531700D01*
X164156961Y-89531700D02*
X163971247Y-89593604D01*
X163971247Y-89593604D02*
X163661723Y-89593604D01*
D10*
D11*
X78458026Y-97793328D02*
X78458026Y-96293328D01*
X78458026Y-96293328D02*
X78815169Y-96293328D01*
X78815169Y-96293328D02*
X79029455Y-96364757D01*
X79029455Y-96364757D02*
X79172312Y-96507614D01*
X79172312Y-96507614D02*
X79243741Y-96650471D01*
X79243741Y-96650471D02*
X79315169Y-96936185D01*
X79315169Y-96936185D02*
X79315169Y-97150471D01*
X79315169Y-97150471D02*
X79243741Y-97436185D01*
X79243741Y-97436185D02*
X79172312Y-97579042D01*
X79172312Y-97579042D02*
X79029455Y-97721900D01*
X79029455Y-97721900D02*
X78815169Y-97793328D01*
X78815169Y-97793328D02*
X78458026Y-97793328D01*
X80600884Y-97793328D02*
X80600884Y-97007614D01*
X80600884Y-97007614D02*
X80529455Y-96864757D01*
X80529455Y-96864757D02*
X80386598Y-96793328D01*
X80386598Y-96793328D02*
X80100884Y-96793328D01*
X80100884Y-96793328D02*
X79958026Y-96864757D01*
X80600884Y-97721900D02*
X80458026Y-97793328D01*
X80458026Y-97793328D02*
X80100884Y-97793328D01*
X80100884Y-97793328D02*
X79958026Y-97721900D01*
X79958026Y-97721900D02*
X79886598Y-97579042D01*
X79886598Y-97579042D02*
X79886598Y-97436185D01*
X79886598Y-97436185D02*
X79958026Y-97293328D01*
X79958026Y-97293328D02*
X80100884Y-97221900D01*
X80100884Y-97221900D02*
X80458026Y-97221900D01*
X80458026Y-97221900D02*
X80600884Y-97150471D01*
X81100884Y-96793328D02*
X81672312Y-96793328D01*
X81315169Y-96293328D02*
X81315169Y-97579042D01*
X81315169Y-97579042D02*
X81386598Y-97721900D01*
X81386598Y-97721900D02*
X81529455Y-97793328D01*
X81529455Y-97793328D02*
X81672312Y-97793328D01*
X82743741Y-97721900D02*
X82600884Y-97793328D01*
X82600884Y-97793328D02*
X82315170Y-97793328D01*
X82315170Y-97793328D02*
X82172312Y-97721900D01*
X82172312Y-97721900D02*
X82100884Y-97579042D01*
X82100884Y-97579042D02*
X82100884Y-97007614D01*
X82100884Y-97007614D02*
X82172312Y-96864757D01*
X82172312Y-96864757D02*
X82315170Y-96793328D01*
X82315170Y-96793328D02*
X82600884Y-96793328D01*
X82600884Y-96793328D02*
X82743741Y-96864757D01*
X82743741Y-96864757D02*
X82815170Y-97007614D01*
X82815170Y-97007614D02*
X82815170Y-97150471D01*
X82815170Y-97150471D02*
X82100884Y-97293328D01*
X83458026Y-97650471D02*
X83529455Y-97721900D01*
X83529455Y-97721900D02*
X83458026Y-97793328D01*
X83458026Y-97793328D02*
X83386598Y-97721900D01*
X83386598Y-97721900D02*
X83458026Y-97650471D01*
X83458026Y-97650471D02*
X83458026Y-97793328D01*
X83458026Y-96864757D02*
X83529455Y-96936185D01*
X83529455Y-96936185D02*
X83458026Y-97007614D01*
X83458026Y-97007614D02*
X83386598Y-96936185D01*
X83386598Y-96936185D02*
X83458026Y-96864757D01*
X83458026Y-96864757D02*
X83458026Y-97007614D01*
D10*
D11*
X55002200Y-98507200D02*
X163002200Y-98507200D01*
D10*
D11*
X56458026Y-100593328D02*
X56458026Y-99093328D01*
X57315169Y-100593328D02*
X56672312Y-99736185D01*
X57315169Y-99093328D02*
X56458026Y-99950471D01*
X57958026Y-100593328D02*
X57958026Y-99593328D01*
X57958026Y-99093328D02*
X57886598Y-99164757D01*
X57886598Y-99164757D02*
X57958026Y-99236185D01*
X57958026Y-99236185D02*
X58029455Y-99164757D01*
X58029455Y-99164757D02*
X57958026Y-99093328D01*
X57958026Y-99093328D02*
X57958026Y-99236185D01*
X59529455Y-100450471D02*
X59458027Y-100521900D01*
X59458027Y-100521900D02*
X59243741Y-100593328D01*
X59243741Y-100593328D02*
X59100884Y-100593328D01*
X59100884Y-100593328D02*
X58886598Y-100521900D01*
X58886598Y-100521900D02*
X58743741Y-100379042D01*
X58743741Y-100379042D02*
X58672312Y-100236185D01*
X58672312Y-100236185D02*
X58600884Y-99950471D01*
X58600884Y-99950471D02*
X58600884Y-99736185D01*
X58600884Y-99736185D02*
X58672312Y-99450471D01*
X58672312Y-99450471D02*
X58743741Y-99307614D01*
X58743741Y-99307614D02*
X58886598Y-99164757D01*
X58886598Y-99164757D02*
X59100884Y-99093328D01*
X59100884Y-99093328D02*
X59243741Y-99093328D01*
X59243741Y-99093328D02*
X59458027Y-99164757D01*
X59458027Y-99164757D02*
X59529455Y-99236185D01*
X60815170Y-100593328D02*
X60815170Y-99807614D01*
X60815170Y-99807614D02*
X60743741Y-99664757D01*
X60743741Y-99664757D02*
X60600884Y-99593328D01*
X60600884Y-99593328D02*
X60315170Y-99593328D01*
X60315170Y-99593328D02*
X60172312Y-99664757D01*
X60815170Y-100521900D02*
X60672312Y-100593328D01*
X60672312Y-100593328D02*
X60315170Y-100593328D01*
X60315170Y-100593328D02*
X60172312Y-100521900D01*
X60172312Y-100521900D02*
X60100884Y-100379042D01*
X60100884Y-100379042D02*
X60100884Y-100236185D01*
X60100884Y-100236185D02*
X60172312Y-100093328D01*
X60172312Y-100093328D02*
X60315170Y-100021900D01*
X60315170Y-100021900D02*
X60672312Y-100021900D01*
X60672312Y-100021900D02*
X60815170Y-99950471D01*
X62172313Y-100593328D02*
X62172313Y-99093328D01*
X62172313Y-100521900D02*
X62029455Y-100593328D01*
X62029455Y-100593328D02*
X61743741Y-100593328D01*
X61743741Y-100593328D02*
X61600884Y-100521900D01*
X61600884Y-100521900D02*
X61529455Y-100450471D01*
X61529455Y-100450471D02*
X61458027Y-100307614D01*
X61458027Y-100307614D02*
X61458027Y-99879042D01*
X61458027Y-99879042D02*
X61529455Y-99736185D01*
X61529455Y-99736185D02*
X61600884Y-99664757D01*
X61600884Y-99664757D02*
X61743741Y-99593328D01*
X61743741Y-99593328D02*
X62029455Y-99593328D01*
X62029455Y-99593328D02*
X62172313Y-99664757D01*
X64029455Y-99807614D02*
X64529455Y-99807614D01*
X64743741Y-100593328D02*
X64029455Y-100593328D01*
X64029455Y-100593328D02*
X64029455Y-99093328D01*
X64029455Y-99093328D02*
X64743741Y-99093328D01*
X65386598Y-100450471D02*
X65458027Y-100521900D01*
X65458027Y-100521900D02*
X65386598Y-100593328D01*
X65386598Y-100593328D02*
X65315170Y-100521900D01*
X65315170Y-100521900D02*
X65386598Y-100450471D01*
X65386598Y-100450471D02*
X65386598Y-100593328D01*
X66100884Y-100593328D02*
X66100884Y-99093328D01*
X66100884Y-99093328D02*
X66458027Y-99093328D01*
X66458027Y-99093328D02*
X66672313Y-99164757D01*
X66672313Y-99164757D02*
X66815170Y-99307614D01*
X66815170Y-99307614D02*
X66886599Y-99450471D01*
X66886599Y-99450471D02*
X66958027Y-99736185D01*
X66958027Y-99736185D02*
X66958027Y-99950471D01*
X66958027Y-99950471D02*
X66886599Y-100236185D01*
X66886599Y-100236185D02*
X66815170Y-100379042D01*
X66815170Y-100379042D02*
X66672313Y-100521900D01*
X66672313Y-100521900D02*
X66458027Y-100593328D01*
X66458027Y-100593328D02*
X66100884Y-100593328D01*
X67600884Y-100450471D02*
X67672313Y-100521900D01*
X67672313Y-100521900D02*
X67600884Y-100593328D01*
X67600884Y-100593328D02*
X67529456Y-100521900D01*
X67529456Y-100521900D02*
X67600884Y-100450471D01*
X67600884Y-100450471D02*
X67600884Y-100593328D01*
X68243742Y-100164757D02*
X68958028Y-100164757D01*
X68100885Y-100593328D02*
X68600885Y-99093328D01*
X68600885Y-99093328D02*
X69100885Y-100593328D01*
X69600884Y-100450471D02*
X69672313Y-100521900D01*
X69672313Y-100521900D02*
X69600884Y-100593328D01*
X69600884Y-100593328D02*
X69529456Y-100521900D01*
X69529456Y-100521900D02*
X69600884Y-100450471D01*
X69600884Y-100450471D02*
X69600884Y-100593328D01*
X71529456Y-100593328D02*
X71815170Y-100593328D01*
X71815170Y-100593328D02*
X71958027Y-100521900D01*
X71958027Y-100521900D02*
X72029456Y-100450471D01*
X72029456Y-100450471D02*
X72172313Y-100236185D01*
X72172313Y-100236185D02*
X72243742Y-99950471D01*
X72243742Y-99950471D02*
X72243742Y-99379042D01*
X72243742Y-99379042D02*
X72172313Y-99236185D01*
X72172313Y-99236185D02*
X72100885Y-99164757D01*
X72100885Y-99164757D02*
X71958027Y-99093328D01*
X71958027Y-99093328D02*
X71672313Y-99093328D01*
X71672313Y-99093328D02*
X71529456Y-99164757D01*
X71529456Y-99164757D02*
X71458027Y-99236185D01*
X71458027Y-99236185D02*
X71386599Y-99379042D01*
X71386599Y-99379042D02*
X71386599Y-99736185D01*
X71386599Y-99736185D02*
X71458027Y-99879042D01*
X71458027Y-99879042D02*
X71529456Y-99950471D01*
X71529456Y-99950471D02*
X71672313Y-100021900D01*
X71672313Y-100021900D02*
X71958027Y-100021900D01*
X71958027Y-100021900D02*
X72100885Y-99950471D01*
X72100885Y-99950471D02*
X72172313Y-99879042D01*
X72172313Y-99879042D02*
X72243742Y-99736185D01*
X72886598Y-100450471D02*
X72958027Y-100521900D01*
X72958027Y-100521900D02*
X72886598Y-100593328D01*
X72886598Y-100593328D02*
X72815170Y-100521900D01*
X72815170Y-100521900D02*
X72886598Y-100450471D01*
X72886598Y-100450471D02*
X72886598Y-100593328D01*
X73886599Y-99093328D02*
X74029456Y-99093328D01*
X74029456Y-99093328D02*
X74172313Y-99164757D01*
X74172313Y-99164757D02*
X74243742Y-99236185D01*
X74243742Y-99236185D02*
X74315170Y-99379042D01*
X74315170Y-99379042D02*
X74386599Y-99664757D01*
X74386599Y-99664757D02*
X74386599Y-100021900D01*
X74386599Y-100021900D02*
X74315170Y-100307614D01*
X74315170Y-100307614D02*
X74243742Y-100450471D01*
X74243742Y-100450471D02*
X74172313Y-100521900D01*
X74172313Y-100521900D02*
X74029456Y-100593328D01*
X74029456Y-100593328D02*
X73886599Y-100593328D01*
X73886599Y-100593328D02*
X73743742Y-100521900D01*
X73743742Y-100521900D02*
X73672313Y-100450471D01*
X73672313Y-100450471D02*
X73600884Y-100307614D01*
X73600884Y-100307614D02*
X73529456Y-100021900D01*
X73529456Y-100021900D02*
X73529456Y-99664757D01*
X73529456Y-99664757D02*
X73600884Y-99379042D01*
X73600884Y-99379042D02*
X73672313Y-99236185D01*
X73672313Y-99236185D02*
X73743742Y-99164757D01*
X73743742Y-99164757D02*
X73886599Y-99093328D01*
X75029455Y-100450471D02*
X75100884Y-100521900D01*
X75100884Y-100521900D02*
X75029455Y-100593328D01*
X75029455Y-100593328D02*
X74958027Y-100521900D01*
X74958027Y-100521900D02*
X75029455Y-100450471D01*
X75029455Y-100450471D02*
X75029455Y-100593328D01*
X76029456Y-99093328D02*
X76172313Y-99093328D01*
X76172313Y-99093328D02*
X76315170Y-99164757D01*
X76315170Y-99164757D02*
X76386599Y-99236185D01*
X76386599Y-99236185D02*
X76458027Y-99379042D01*
X76458027Y-99379042D02*
X76529456Y-99664757D01*
X76529456Y-99664757D02*
X76529456Y-100021900D01*
X76529456Y-100021900D02*
X76458027Y-100307614D01*
X76458027Y-100307614D02*
X76386599Y-100450471D01*
X76386599Y-100450471D02*
X76315170Y-100521900D01*
X76315170Y-100521900D02*
X76172313Y-100593328D01*
X76172313Y-100593328D02*
X76029456Y-100593328D01*
X76029456Y-100593328D02*
X75886599Y-100521900D01*
X75886599Y-100521900D02*
X75815170Y-100450471D01*
X75815170Y-100450471D02*
X75743741Y-100307614D01*
X75743741Y-100307614D02*
X75672313Y-100021900D01*
X75672313Y-100021900D02*
X75672313Y-99664757D01*
X75672313Y-99664757D02*
X75743741Y-99379042D01*
X75743741Y-99379042D02*
X75815170Y-99236185D01*
X75815170Y-99236185D02*
X75886599Y-99164757D01*
X75886599Y-99164757D02*
X76029456Y-99093328D01*
D10*
D11*
X55002200Y-95507200D02*
X163002200Y-95507200D01*
D10*
D12*
X142413853Y-97785528D02*
X141913853Y-97071242D01*
X141556710Y-97785528D02*
X141556710Y-96285528D01*
X141556710Y-96285528D02*
X142128139Y-96285528D01*
X142128139Y-96285528D02*
X142270996Y-96356957D01*
X142270996Y-96356957D02*
X142342425Y-96428385D01*
X142342425Y-96428385D02*
X142413853Y-96571242D01*
X142413853Y-96571242D02*
X142413853Y-96785528D01*
X142413853Y-96785528D02*
X142342425Y-96928385D01*
X142342425Y-96928385D02*
X142270996Y-96999814D01*
X142270996Y-96999814D02*
X142128139Y-97071242D01*
X142128139Y-97071242D02*
X141556710Y-97071242D01*
X143628139Y-97714100D02*
X143485282Y-97785528D01*
X143485282Y-97785528D02*
X143199568Y-97785528D01*
X143199568Y-97785528D02*
X143056710Y-97714100D01*
X143056710Y-97714100D02*
X142985282Y-97571242D01*
X142985282Y-97571242D02*
X142985282Y-96999814D01*
X142985282Y-96999814D02*
X143056710Y-96856957D01*
X143056710Y-96856957D02*
X143199568Y-96785528D01*
X143199568Y-96785528D02*
X143485282Y-96785528D01*
X143485282Y-96785528D02*
X143628139Y-96856957D01*
X143628139Y-96856957D02*
X143699568Y-96999814D01*
X143699568Y-96999814D02*
X143699568Y-97142671D01*
X143699568Y-97142671D02*
X142985282Y-97285528D01*
X144199567Y-96785528D02*
X144556710Y-97785528D01*
X144556710Y-97785528D02*
X144913853Y-96785528D01*
X145485281Y-97642671D02*
X145556710Y-97714100D01*
X145556710Y-97714100D02*
X145485281Y-97785528D01*
X145485281Y-97785528D02*
X145413853Y-97714100D01*
X145413853Y-97714100D02*
X145485281Y-97642671D01*
X145485281Y-97642671D02*
X145485281Y-97785528D01*
X145485281Y-96856957D02*
X145556710Y-96928385D01*
X145556710Y-96928385D02*
X145485281Y-96999814D01*
X145485281Y-96999814D02*
X145413853Y-96928385D01*
X145413853Y-96928385D02*
X145485281Y-96856957D01*
X145485281Y-96856957D02*
X145485281Y-96999814D01*
D10*
D11*
X56386598Y-97721900D02*
X56600884Y-97793328D01*
X56600884Y-97793328D02*
X56958026Y-97793328D01*
X56958026Y-97793328D02*
X57100884Y-97721900D01*
X57100884Y-97721900D02*
X57172312Y-97650471D01*
X57172312Y-97650471D02*
X57243741Y-97507614D01*
X57243741Y-97507614D02*
X57243741Y-97364757D01*
X57243741Y-97364757D02*
X57172312Y-97221900D01*
X57172312Y-97221900D02*
X57100884Y-97150471D01*
X57100884Y-97150471D02*
X56958026Y-97079042D01*
X56958026Y-97079042D02*
X56672312Y-97007614D01*
X56672312Y-97007614D02*
X56529455Y-96936185D01*
X56529455Y-96936185D02*
X56458026Y-96864757D01*
X56458026Y-96864757D02*
X56386598Y-96721900D01*
X56386598Y-96721900D02*
X56386598Y-96579042D01*
X56386598Y-96579042D02*
X56458026Y-96436185D01*
X56458026Y-96436185D02*
X56529455Y-96364757D01*
X56529455Y-96364757D02*
X56672312Y-96293328D01*
X56672312Y-96293328D02*
X57029455Y-96293328D01*
X57029455Y-96293328D02*
X57243741Y-96364757D01*
X57886597Y-97793328D02*
X57886597Y-96793328D01*
X57886597Y-96293328D02*
X57815169Y-96364757D01*
X57815169Y-96364757D02*
X57886597Y-96436185D01*
X57886597Y-96436185D02*
X57958026Y-96364757D01*
X57958026Y-96364757D02*
X57886597Y-96293328D01*
X57886597Y-96293328D02*
X57886597Y-96436185D01*
X58458026Y-96793328D02*
X59243741Y-96793328D01*
X59243741Y-96793328D02*
X58458026Y-97793328D01*
X58458026Y-97793328D02*
X59243741Y-97793328D01*
X60386598Y-97721900D02*
X60243741Y-97793328D01*
X60243741Y-97793328D02*
X59958027Y-97793328D01*
X59958027Y-97793328D02*
X59815169Y-97721900D01*
X59815169Y-97721900D02*
X59743741Y-97579042D01*
X59743741Y-97579042D02*
X59743741Y-97007614D01*
X59743741Y-97007614D02*
X59815169Y-96864757D01*
X59815169Y-96864757D02*
X59958027Y-96793328D01*
X59958027Y-96793328D02*
X60243741Y-96793328D01*
X60243741Y-96793328D02*
X60386598Y-96864757D01*
X60386598Y-96864757D02*
X60458027Y-97007614D01*
X60458027Y-97007614D02*
X60458027Y-97150471D01*
X60458027Y-97150471D02*
X59743741Y-97293328D01*
X61100883Y-97650471D02*
X61172312Y-97721900D01*
X61172312Y-97721900D02*
X61100883Y-97793328D01*
X61100883Y-97793328D02*
X61029455Y-97721900D01*
X61029455Y-97721900D02*
X61100883Y-97650471D01*
X61100883Y-97650471D02*
X61100883Y-97793328D01*
X61100883Y-96864757D02*
X61172312Y-96936185D01*
X61172312Y-96936185D02*
X61100883Y-97007614D01*
X61100883Y-97007614D02*
X61029455Y-96936185D01*
X61029455Y-96936185D02*
X61100883Y-96864757D01*
X61100883Y-96864757D02*
X61100883Y-97007614D01*
X62886598Y-97364757D02*
X63600884Y-97364757D01*
X62743741Y-97793328D02*
X63243741Y-96293328D01*
X63243741Y-96293328D02*
X63743741Y-97793328D01*
X64886598Y-96793328D02*
X64886598Y-97793328D01*
X64529455Y-96221900D02*
X64172312Y-97293328D01*
X64172312Y-97293328D02*
X65100883Y-97293328D01*
D10*
D11*
X141458026Y-100593328D02*
X141458026Y-99093328D01*
X142815170Y-100593328D02*
X142815170Y-99093328D01*
X142815170Y-100521900D02*
X142672312Y-100593328D01*
X142672312Y-100593328D02*
X142386598Y-100593328D01*
X142386598Y-100593328D02*
X142243741Y-100521900D01*
X142243741Y-100521900D02*
X142172312Y-100450471D01*
X142172312Y-100450471D02*
X142100884Y-100307614D01*
X142100884Y-100307614D02*
X142100884Y-99879042D01*
X142100884Y-99879042D02*
X142172312Y-99736185D01*
X142172312Y-99736185D02*
X142243741Y-99664757D01*
X142243741Y-99664757D02*
X142386598Y-99593328D01*
X142386598Y-99593328D02*
X142672312Y-99593328D01*
X142672312Y-99593328D02*
X142815170Y-99664757D01*
X143529455Y-100450471D02*
X143600884Y-100521900D01*
X143600884Y-100521900D02*
X143529455Y-100593328D01*
X143529455Y-100593328D02*
X143458027Y-100521900D01*
X143458027Y-100521900D02*
X143529455Y-100450471D01*
X143529455Y-100450471D02*
X143529455Y-100593328D01*
X143529455Y-99664757D02*
X143600884Y-99736185D01*
X143600884Y-99736185D02*
X143529455Y-99807614D01*
X143529455Y-99807614D02*
X143458027Y-99736185D01*
X143458027Y-99736185D02*
X143529455Y-99664757D01*
X143529455Y-99664757D02*
X143529455Y-99807614D01*
X145243741Y-99093328D02*
X146172313Y-99093328D01*
X146172313Y-99093328D02*
X145672313Y-99664757D01*
X145672313Y-99664757D02*
X145886598Y-99664757D01*
X145886598Y-99664757D02*
X146029456Y-99736185D01*
X146029456Y-99736185D02*
X146100884Y-99807614D01*
X146100884Y-99807614D02*
X146172313Y-99950471D01*
X146172313Y-99950471D02*
X146172313Y-100307614D01*
X146172313Y-100307614D02*
X146100884Y-100450471D01*
X146100884Y-100450471D02*
X146029456Y-100521900D01*
X146029456Y-100521900D02*
X145886598Y-100593328D01*
X145886598Y-100593328D02*
X145458027Y-100593328D01*
X145458027Y-100593328D02*
X145315170Y-100521900D01*
X145315170Y-100521900D02*
X145243741Y-100450471D01*
X147886598Y-99021900D02*
X146600884Y-100950471D01*
X149100884Y-99093328D02*
X148386598Y-99093328D01*
X148386598Y-99093328D02*
X148315170Y-99807614D01*
X148315170Y-99807614D02*
X148386598Y-99736185D01*
X148386598Y-99736185D02*
X148529456Y-99664757D01*
X148529456Y-99664757D02*
X148886598Y-99664757D01*
X148886598Y-99664757D02*
X149029456Y-99736185D01*
X149029456Y-99736185D02*
X149100884Y-99807614D01*
X149100884Y-99807614D02*
X149172313Y-99950471D01*
X149172313Y-99950471D02*
X149172313Y-100307614D01*
X149172313Y-100307614D02*
X149100884Y-100450471D01*
X149100884Y-100450471D02*
X149029456Y-100521900D01*
X149029456Y-100521900D02*
X148886598Y-100593328D01*
X148886598Y-100593328D02*
X148529456Y-100593328D01*
X148529456Y-100593328D02*
X148386598Y-100521900D01*
X148386598Y-100521900D02*
X148315170Y-100450471D01*
D10*
D11*
X55002200Y-91507200D02*
X163002200Y-91507200D01*
D10*
D13*
X56693928Y-92211638D02*
X57836785Y-92211638D01*
X57015357Y-94211638D02*
X57265357Y-92211638D01*
X58253452Y-94211638D02*
X58420119Y-92878304D01*
X58503452Y-92211638D02*
X58396309Y-92306876D01*
X58396309Y-92306876D02*
X58479643Y-92402114D01*
X58479643Y-92402114D02*
X58586786Y-92306876D01*
X58586786Y-92306876D02*
X58503452Y-92211638D01*
X58503452Y-92211638D02*
X58479643Y-92402114D01*
X59086786Y-92878304D02*
X59848690Y-92878304D01*
X59455833Y-92211638D02*
X59241548Y-93925923D01*
X59241548Y-93925923D02*
X59312976Y-94116400D01*
X59312976Y-94116400D02*
X59491548Y-94211638D01*
X59491548Y-94211638D02*
X59682024Y-94211638D01*
X60634405Y-94211638D02*
X60455833Y-94116400D01*
X60455833Y-94116400D02*
X60384405Y-93925923D01*
X60384405Y-93925923D02*
X60598690Y-92211638D01*
X62170119Y-94116400D02*
X61967738Y-94211638D01*
X61967738Y-94211638D02*
X61586785Y-94211638D01*
X61586785Y-94211638D02*
X61408214Y-94116400D01*
X61408214Y-94116400D02*
X61336785Y-93925923D01*
X61336785Y-93925923D02*
X61432024Y-93164019D01*
X61432024Y-93164019D02*
X61551071Y-92973542D01*
X61551071Y-92973542D02*
X61753452Y-92878304D01*
X61753452Y-92878304D02*
X62134404Y-92878304D01*
X62134404Y-92878304D02*
X62312976Y-92973542D01*
X62312976Y-92973542D02*
X62384404Y-93164019D01*
X62384404Y-93164019D02*
X62360595Y-93354495D01*
X62360595Y-93354495D02*
X61384404Y-93544971D01*
X63134405Y-94021161D02*
X63217738Y-94116400D01*
X63217738Y-94116400D02*
X63110595Y-94211638D01*
X63110595Y-94211638D02*
X63027262Y-94116400D01*
X63027262Y-94116400D02*
X63134405Y-94021161D01*
X63134405Y-94021161D02*
X63110595Y-94211638D01*
X63265357Y-92973542D02*
X63348690Y-93068780D01*
X63348690Y-93068780D02*
X63241548Y-93164019D01*
X63241548Y-93164019D02*
X63158214Y-93068780D01*
X63158214Y-93068780D02*
X63265357Y-92973542D01*
X63265357Y-92973542D02*
X63241548Y-93164019D01*
D10*
D11*
X56958026Y-89607614D02*
X56458026Y-89607614D01*
X56458026Y-90393328D02*
X56458026Y-88893328D01*
X56458026Y-88893328D02*
X57172312Y-88893328D01*
X57743740Y-90393328D02*
X57743740Y-89393328D01*
X57743740Y-88893328D02*
X57672312Y-88964757D01*
X57672312Y-88964757D02*
X57743740Y-89036185D01*
X57743740Y-89036185D02*
X57815169Y-88964757D01*
X57815169Y-88964757D02*
X57743740Y-88893328D01*
X57743740Y-88893328D02*
X57743740Y-89036185D01*
X58672312Y-90393328D02*
X58529455Y-90321900D01*
X58529455Y-90321900D02*
X58458026Y-90179042D01*
X58458026Y-90179042D02*
X58458026Y-88893328D01*
X59815169Y-90321900D02*
X59672312Y-90393328D01*
X59672312Y-90393328D02*
X59386598Y-90393328D01*
X59386598Y-90393328D02*
X59243740Y-90321900D01*
X59243740Y-90321900D02*
X59172312Y-90179042D01*
X59172312Y-90179042D02*
X59172312Y-89607614D01*
X59172312Y-89607614D02*
X59243740Y-89464757D01*
X59243740Y-89464757D02*
X59386598Y-89393328D01*
X59386598Y-89393328D02*
X59672312Y-89393328D01*
X59672312Y-89393328D02*
X59815169Y-89464757D01*
X59815169Y-89464757D02*
X59886598Y-89607614D01*
X59886598Y-89607614D02*
X59886598Y-89750471D01*
X59886598Y-89750471D02*
X59172312Y-89893328D01*
X60529454Y-90250471D02*
X60600883Y-90321900D01*
X60600883Y-90321900D02*
X60529454Y-90393328D01*
X60529454Y-90393328D02*
X60458026Y-90321900D01*
X60458026Y-90321900D02*
X60529454Y-90250471D01*
X60529454Y-90250471D02*
X60529454Y-90393328D01*
X60529454Y-89464757D02*
X60600883Y-89536185D01*
X60600883Y-89536185D02*
X60529454Y-89607614D01*
X60529454Y-89607614D02*
X60458026Y-89536185D01*
X60458026Y-89536185D02*
X60529454Y-89464757D01*
X60529454Y-89464757D02*
X60529454Y-89607614D01*
X62958026Y-90321900D02*
X62815169Y-90393328D01*
X62815169Y-90393328D02*
X62529455Y-90393328D01*
X62529455Y-90393328D02*
X62386597Y-90321900D01*
X62386597Y-90321900D02*
X62315169Y-90179042D01*
X62315169Y-90179042D02*
X62315169Y-89607614D01*
X62315169Y-89607614D02*
X62386597Y-89464757D01*
X62386597Y-89464757D02*
X62529455Y-89393328D01*
X62529455Y-89393328D02*
X62815169Y-89393328D01*
X62815169Y-89393328D02*
X62958026Y-89464757D01*
X62958026Y-89464757D02*
X63029455Y-89607614D01*
X63029455Y-89607614D02*
X63029455Y-89750471D01*
X63029455Y-89750471D02*
X62315169Y-89893328D01*
X64243740Y-90321900D02*
X64100883Y-90393328D01*
X64100883Y-90393328D02*
X63815169Y-90393328D01*
X63815169Y-90393328D02*
X63672311Y-90321900D01*
X63672311Y-90321900D02*
X63600883Y-90179042D01*
X63600883Y-90179042D02*
X63600883Y-89607614D01*
X63600883Y-89607614D02*
X63672311Y-89464757D01*
X63672311Y-89464757D02*
X63815169Y-89393328D01*
X63815169Y-89393328D02*
X64100883Y-89393328D01*
X64100883Y-89393328D02*
X64243740Y-89464757D01*
X64243740Y-89464757D02*
X64315169Y-89607614D01*
X64315169Y-89607614D02*
X64315169Y-89750471D01*
X64315169Y-89750471D02*
X63600883Y-89893328D01*
X64958025Y-89393328D02*
X64958025Y-90893328D01*
X64958025Y-89464757D02*
X65100883Y-89393328D01*
X65100883Y-89393328D02*
X65386597Y-89393328D01*
X65386597Y-89393328D02*
X65529454Y-89464757D01*
X65529454Y-89464757D02*
X65600883Y-89536185D01*
X65600883Y-89536185D02*
X65672311Y-89679042D01*
X65672311Y-89679042D02*
X65672311Y-90107614D01*
X65672311Y-90107614D02*
X65600883Y-90250471D01*
X65600883Y-90250471D02*
X65529454Y-90321900D01*
X65529454Y-90321900D02*
X65386597Y-90393328D01*
X65386597Y-90393328D02*
X65100883Y-90393328D01*
X65100883Y-90393328D02*
X64958025Y-90321900D01*
X66315168Y-90393328D02*
X66315168Y-89393328D01*
X66315168Y-89679042D02*
X66386597Y-89536185D01*
X66386597Y-89536185D02*
X66458026Y-89464757D01*
X66458026Y-89464757D02*
X66600883Y-89393328D01*
X66600883Y-89393328D02*
X66743740Y-89393328D01*
X67458025Y-90393328D02*
X67315168Y-90321900D01*
X67315168Y-90321900D02*
X67243739Y-90250471D01*
X67243739Y-90250471D02*
X67172311Y-90107614D01*
X67172311Y-90107614D02*
X67172311Y-89679042D01*
X67172311Y-89679042D02*
X67243739Y-89536185D01*
X67243739Y-89536185D02*
X67315168Y-89464757D01*
X67315168Y-89464757D02*
X67458025Y-89393328D01*
X67458025Y-89393328D02*
X67672311Y-89393328D01*
X67672311Y-89393328D02*
X67815168Y-89464757D01*
X67815168Y-89464757D02*
X67886597Y-89536185D01*
X67886597Y-89536185D02*
X67958025Y-89679042D01*
X67958025Y-89679042D02*
X67958025Y-90107614D01*
X67958025Y-90107614D02*
X67886597Y-90250471D01*
X67886597Y-90250471D02*
X67815168Y-90321900D01*
X67815168Y-90321900D02*
X67672311Y-90393328D01*
X67672311Y-90393328D02*
X67458025Y-90393328D01*
X68600882Y-90393328D02*
X68600882Y-89393328D01*
X68600882Y-89536185D02*
X68672311Y-89464757D01*
X68672311Y-89464757D02*
X68815168Y-89393328D01*
X68815168Y-89393328D02*
X69029454Y-89393328D01*
X69029454Y-89393328D02*
X69172311Y-89464757D01*
X69172311Y-89464757D02*
X69243740Y-89607614D01*
X69243740Y-89607614D02*
X69243740Y-90393328D01*
X69243740Y-89607614D02*
X69315168Y-89464757D01*
X69315168Y-89464757D02*
X69458025Y-89393328D01*
X69458025Y-89393328D02*
X69672311Y-89393328D01*
X69672311Y-89393328D02*
X69815168Y-89464757D01*
X69815168Y-89464757D02*
X69886597Y-89607614D01*
X69886597Y-89607614D02*
X69886597Y-90393328D01*
X70243740Y-90536185D02*
X71386597Y-90536185D01*
X71743739Y-90393328D02*
X71743739Y-89393328D01*
X71743739Y-88893328D02*
X71672311Y-88964757D01*
X71672311Y-88964757D02*
X71743739Y-89036185D01*
X71743739Y-89036185D02*
X71815168Y-88964757D01*
X71815168Y-88964757D02*
X71743739Y-88893328D01*
X71743739Y-88893328D02*
X71743739Y-89036185D01*
X72386597Y-89036185D02*
X72458025Y-88964757D01*
X72458025Y-88964757D02*
X72600883Y-88893328D01*
X72600883Y-88893328D02*
X72958025Y-88893328D01*
X72958025Y-88893328D02*
X73100883Y-88964757D01*
X73100883Y-88964757D02*
X73172311Y-89036185D01*
X73172311Y-89036185D02*
X73243740Y-89179042D01*
X73243740Y-89179042D02*
X73243740Y-89321900D01*
X73243740Y-89321900D02*
X73172311Y-89536185D01*
X73172311Y-89536185D02*
X72315168Y-90393328D01*
X72315168Y-90393328D02*
X73243740Y-90393328D01*
X74529454Y-90321900D02*
X74386596Y-90393328D01*
X74386596Y-90393328D02*
X74100882Y-90393328D01*
X74100882Y-90393328D02*
X73958025Y-90321900D01*
X73958025Y-90321900D02*
X73886596Y-90250471D01*
X73886596Y-90250471D02*
X73815168Y-90107614D01*
X73815168Y-90107614D02*
X73815168Y-89679042D01*
X73815168Y-89679042D02*
X73886596Y-89536185D01*
X73886596Y-89536185D02*
X73958025Y-89464757D01*
X73958025Y-89464757D02*
X74100882Y-89393328D01*
X74100882Y-89393328D02*
X74386596Y-89393328D01*
X74386596Y-89393328D02*
X74529454Y-89464757D01*
X75172310Y-90250471D02*
X75243739Y-90321900D01*
X75243739Y-90321900D02*
X75172310Y-90393328D01*
X75172310Y-90393328D02*
X75100882Y-90321900D01*
X75100882Y-90321900D02*
X75172310Y-90250471D01*
X75172310Y-90250471D02*
X75172310Y-90393328D01*
X75886596Y-90393328D02*
X75886596Y-88893328D01*
X76029454Y-89821900D02*
X76458025Y-90393328D01*
X76458025Y-89393328D02*
X75886596Y-89964757D01*
X77100882Y-90393328D02*
X77100882Y-89393328D01*
X77100882Y-88893328D02*
X77029454Y-88964757D01*
X77029454Y-88964757D02*
X77100882Y-89036185D01*
X77100882Y-89036185D02*
X77172311Y-88964757D01*
X77172311Y-88964757D02*
X77100882Y-88893328D01*
X77100882Y-88893328D02*
X77100882Y-89036185D01*
X78458026Y-90321900D02*
X78315168Y-90393328D01*
X78315168Y-90393328D02*
X78029454Y-90393328D01*
X78029454Y-90393328D02*
X77886597Y-90321900D01*
X77886597Y-90321900D02*
X77815168Y-90250471D01*
X77815168Y-90250471D02*
X77743740Y-90107614D01*
X77743740Y-90107614D02*
X77743740Y-89679042D01*
X77743740Y-89679042D02*
X77815168Y-89536185D01*
X77815168Y-89536185D02*
X77886597Y-89464757D01*
X77886597Y-89464757D02*
X78029454Y-89393328D01*
X78029454Y-89393328D02*
X78315168Y-89393328D01*
X78315168Y-89393328D02*
X78458026Y-89464757D01*
X79743740Y-90393328D02*
X79743740Y-89607614D01*
X79743740Y-89607614D02*
X79672311Y-89464757D01*
X79672311Y-89464757D02*
X79529454Y-89393328D01*
X79529454Y-89393328D02*
X79243740Y-89393328D01*
X79243740Y-89393328D02*
X79100882Y-89464757D01*
X79743740Y-90321900D02*
X79600882Y-90393328D01*
X79600882Y-90393328D02*
X79243740Y-90393328D01*
X79243740Y-90393328D02*
X79100882Y-90321900D01*
X79100882Y-90321900D02*
X79029454Y-90179042D01*
X79029454Y-90179042D02*
X79029454Y-90036185D01*
X79029454Y-90036185D02*
X79100882Y-89893328D01*
X79100882Y-89893328D02*
X79243740Y-89821900D01*
X79243740Y-89821900D02*
X79600882Y-89821900D01*
X79600882Y-89821900D02*
X79743740Y-89750471D01*
X81100883Y-90393328D02*
X81100883Y-88893328D01*
X81100883Y-90321900D02*
X80958025Y-90393328D01*
X80958025Y-90393328D02*
X80672311Y-90393328D01*
X80672311Y-90393328D02*
X80529454Y-90321900D01*
X80529454Y-90321900D02*
X80458025Y-90250471D01*
X80458025Y-90250471D02*
X80386597Y-90107614D01*
X80386597Y-90107614D02*
X80386597Y-89679042D01*
X80386597Y-89679042D02*
X80458025Y-89536185D01*
X80458025Y-89536185D02*
X80529454Y-89464757D01*
X80529454Y-89464757D02*
X80672311Y-89393328D01*
X80672311Y-89393328D02*
X80958025Y-89393328D01*
X80958025Y-89393328D02*
X81100883Y-89464757D01*
X81458026Y-90536185D02*
X82600883Y-90536185D01*
X82958025Y-89393328D02*
X82958025Y-90893328D01*
X82958025Y-89464757D02*
X83100883Y-89393328D01*
X83100883Y-89393328D02*
X83386597Y-89393328D01*
X83386597Y-89393328D02*
X83529454Y-89464757D01*
X83529454Y-89464757D02*
X83600883Y-89536185D01*
X83600883Y-89536185D02*
X83672311Y-89679042D01*
X83672311Y-89679042D02*
X83672311Y-90107614D01*
X83672311Y-90107614D02*
X83600883Y-90250471D01*
X83600883Y-90250471D02*
X83529454Y-90321900D01*
X83529454Y-90321900D02*
X83386597Y-90393328D01*
X83386597Y-90393328D02*
X83100883Y-90393328D01*
X83100883Y-90393328D02*
X82958025Y-90321900D01*
X84958026Y-90321900D02*
X84815168Y-90393328D01*
X84815168Y-90393328D02*
X84529454Y-90393328D01*
X84529454Y-90393328D02*
X84386597Y-90321900D01*
X84386597Y-90321900D02*
X84315168Y-90250471D01*
X84315168Y-90250471D02*
X84243740Y-90107614D01*
X84243740Y-90107614D02*
X84243740Y-89679042D01*
X84243740Y-89679042D02*
X84315168Y-89536185D01*
X84315168Y-89536185D02*
X84386597Y-89464757D01*
X84386597Y-89464757D02*
X84529454Y-89393328D01*
X84529454Y-89393328D02*
X84815168Y-89393328D01*
X84815168Y-89393328D02*
X84958026Y-89464757D01*
X85600882Y-90393328D02*
X85600882Y-88893328D01*
X85600882Y-89464757D02*
X85743740Y-89393328D01*
X85743740Y-89393328D02*
X86029454Y-89393328D01*
X86029454Y-89393328D02*
X86172311Y-89464757D01*
X86172311Y-89464757D02*
X86243740Y-89536185D01*
X86243740Y-89536185D02*
X86315168Y-89679042D01*
X86315168Y-89679042D02*
X86315168Y-90107614D01*
X86315168Y-90107614D02*
X86243740Y-90250471D01*
X86243740Y-90250471D02*
X86172311Y-90321900D01*
X86172311Y-90321900D02*
X86029454Y-90393328D01*
X86029454Y-90393328D02*
X85743740Y-90393328D01*
X85743740Y-90393328D02*
X85600882Y-90321900D01*
D10*
D11*
X55002200Y-85507200D02*
X163002200Y-85507200D01*
D10*
D11*
X56386598Y-87621900D02*
X56600884Y-87693328D01*
X56600884Y-87693328D02*
X56958026Y-87693328D01*
X56958026Y-87693328D02*
X57100884Y-87621900D01*
X57100884Y-87621900D02*
X57172312Y-87550471D01*
X57172312Y-87550471D02*
X57243741Y-87407614D01*
X57243741Y-87407614D02*
X57243741Y-87264757D01*
X57243741Y-87264757D02*
X57172312Y-87121900D01*
X57172312Y-87121900D02*
X57100884Y-87050471D01*
X57100884Y-87050471D02*
X56958026Y-86979042D01*
X56958026Y-86979042D02*
X56672312Y-86907614D01*
X56672312Y-86907614D02*
X56529455Y-86836185D01*
X56529455Y-86836185D02*
X56458026Y-86764757D01*
X56458026Y-86764757D02*
X56386598Y-86621900D01*
X56386598Y-86621900D02*
X56386598Y-86479042D01*
X56386598Y-86479042D02*
X56458026Y-86336185D01*
X56458026Y-86336185D02*
X56529455Y-86264757D01*
X56529455Y-86264757D02*
X56672312Y-86193328D01*
X56672312Y-86193328D02*
X57029455Y-86193328D01*
X57029455Y-86193328D02*
X57243741Y-86264757D01*
X57886597Y-87693328D02*
X57886597Y-86193328D01*
X58529455Y-87693328D02*
X58529455Y-86907614D01*
X58529455Y-86907614D02*
X58458026Y-86764757D01*
X58458026Y-86764757D02*
X58315169Y-86693328D01*
X58315169Y-86693328D02*
X58100883Y-86693328D01*
X58100883Y-86693328D02*
X57958026Y-86764757D01*
X57958026Y-86764757D02*
X57886597Y-86836185D01*
X59815169Y-87621900D02*
X59672312Y-87693328D01*
X59672312Y-87693328D02*
X59386598Y-87693328D01*
X59386598Y-87693328D02*
X59243740Y-87621900D01*
X59243740Y-87621900D02*
X59172312Y-87479042D01*
X59172312Y-87479042D02*
X59172312Y-86907614D01*
X59172312Y-86907614D02*
X59243740Y-86764757D01*
X59243740Y-86764757D02*
X59386598Y-86693328D01*
X59386598Y-86693328D02*
X59672312Y-86693328D01*
X59672312Y-86693328D02*
X59815169Y-86764757D01*
X59815169Y-86764757D02*
X59886598Y-86907614D01*
X59886598Y-86907614D02*
X59886598Y-87050471D01*
X59886598Y-87050471D02*
X59172312Y-87193328D01*
X61100883Y-87621900D02*
X60958026Y-87693328D01*
X60958026Y-87693328D02*
X60672312Y-87693328D01*
X60672312Y-87693328D02*
X60529454Y-87621900D01*
X60529454Y-87621900D02*
X60458026Y-87479042D01*
X60458026Y-87479042D02*
X60458026Y-86907614D01*
X60458026Y-86907614D02*
X60529454Y-86764757D01*
X60529454Y-86764757D02*
X60672312Y-86693328D01*
X60672312Y-86693328D02*
X60958026Y-86693328D01*
X60958026Y-86693328D02*
X61100883Y-86764757D01*
X61100883Y-86764757D02*
X61172312Y-86907614D01*
X61172312Y-86907614D02*
X61172312Y-87050471D01*
X61172312Y-87050471D02*
X60458026Y-87193328D01*
X61600883Y-86693328D02*
X62172311Y-86693328D01*
X61815168Y-86193328D02*
X61815168Y-87479042D01*
X61815168Y-87479042D02*
X61886597Y-87621900D01*
X61886597Y-87621900D02*
X62029454Y-87693328D01*
X62029454Y-87693328D02*
X62172311Y-87693328D01*
X62672311Y-87550471D02*
X62743740Y-87621900D01*
X62743740Y-87621900D02*
X62672311Y-87693328D01*
X62672311Y-87693328D02*
X62600883Y-87621900D01*
X62600883Y-87621900D02*
X62672311Y-87550471D01*
X62672311Y-87550471D02*
X62672311Y-87693328D01*
X62672311Y-86764757D02*
X62743740Y-86836185D01*
X62743740Y-86836185D02*
X62672311Y-86907614D01*
X62672311Y-86907614D02*
X62600883Y-86836185D01*
X62600883Y-86836185D02*
X62672311Y-86764757D01*
X62672311Y-86764757D02*
X62672311Y-86907614D01*
D10*
D11*
X75002200Y-95507200D02*
X75002200Y-98507200D01*
D10*
D11*
X139002200Y-95507200D02*
X139002200Y-102007200D01*
D14*
X13369673Y1013734D02*
X14131578Y1013734D01*
D10*
X708646Y4127581D02*
X1327693Y4127581D01*
X1327693Y4127581D02*
X994360Y3746629D01*
X994360Y3746629D02*
X1137217Y3746629D01*
X1137217Y3746629D02*
X1232455Y3699010D01*
X1232455Y3699010D02*
X1280074Y3651391D01*
X1280074Y3651391D02*
X1327693Y3556153D01*
X1327693Y3556153D02*
X1327693Y3318058D01*
X1327693Y3318058D02*
X1280074Y3222820D01*
X1280074Y3222820D02*
X1232455Y3175200D01*
X1232455Y3175200D02*
X1137217Y3127581D01*
X1137217Y3127581D02*
X851503Y3127581D01*
X851503Y3127581D02*
X756265Y3175200D01*
X756265Y3175200D02*
X708646Y3222820D01*
D14*
X6322054Y4918496D02*
X6798244Y4918496D01*
X6226816Y4632781D02*
X6560149Y5632781D01*
X6560149Y5632781D02*
X6893482Y4632781D01*
X7179197Y5537543D02*
X7226816Y5585162D01*
X7226816Y5585162D02*
X7322054Y5632781D01*
X7322054Y5632781D02*
X7560149Y5632781D01*
X7560149Y5632781D02*
X7655387Y5585162D01*
X7655387Y5585162D02*
X7703006Y5537543D01*
X7703006Y5537543D02*
X7750625Y5442305D01*
X7750625Y5442305D02*
X7750625Y5347067D01*
X7750625Y5347067D02*
X7703006Y5204210D01*
X7703006Y5204210D02*
X7131578Y4632781D01*
X7131578Y4632781D02*
X7750625Y4632781D01*
X21869673Y1013734D02*
X22631578Y1013734D01*
X22250625Y632781D02*
X22250625Y1394686D01*
X18322054Y180400D02*
X18464911Y132781D01*
X18464911Y132781D02*
X18703006Y132781D01*
X18703006Y132781D02*
X18798244Y180400D01*
X18798244Y180400D02*
X18845863Y228020D01*
X18845863Y228020D02*
X18893482Y323258D01*
X18893482Y323258D02*
X18893482Y418496D01*
X18893482Y418496D02*
X18845863Y513734D01*
X18845863Y513734D02*
X18798244Y561353D01*
X18798244Y561353D02*
X18703006Y608972D01*
X18703006Y608972D02*
X18512530Y656591D01*
X18512530Y656591D02*
X18417292Y704210D01*
X18417292Y704210D02*
X18369673Y751829D01*
X18369673Y751829D02*
X18322054Y847067D01*
X18322054Y847067D02*
X18322054Y942305D01*
X18322054Y942305D02*
X18369673Y1037543D01*
X18369673Y1037543D02*
X18417292Y1085162D01*
X18417292Y1085162D02*
X18512530Y1132781D01*
X18512530Y1132781D02*
X18750625Y1132781D01*
X18750625Y1132781D02*
X18893482Y1085162D01*
X19322054Y132781D02*
X19322054Y1132781D01*
X19322054Y1132781D02*
X19560149Y1132781D01*
X19560149Y1132781D02*
X19703006Y1085162D01*
X19703006Y1085162D02*
X19798244Y989924D01*
X19798244Y989924D02*
X19845863Y894686D01*
X19845863Y894686D02*
X19893482Y704210D01*
X19893482Y704210D02*
X19893482Y561353D01*
X19893482Y561353D02*
X19845863Y370877D01*
X19845863Y370877D02*
X19798244Y275639D01*
X19798244Y275639D02*
X19703006Y180400D01*
X19703006Y180400D02*
X19560149Y132781D01*
X19560149Y132781D02*
X19322054Y132781D01*
X20274435Y418496D02*
X20750625Y418496D01*
X20179197Y132781D02*
X20512530Y1132781D01*
X20512530Y1132781D02*
X20845863Y132781D01*
X19822054Y34418496D02*
X20298244Y34418496D01*
X19726816Y34132781D02*
X20060149Y35132781D01*
X20060149Y35132781D02*
X20393482Y34132781D01*
X20726816Y34132781D02*
X20726816Y35132781D01*
X20726816Y35132781D02*
X21060149Y34418496D01*
X21060149Y34418496D02*
X21393482Y35132781D01*
X21393482Y35132781D02*
X21393482Y34132781D01*
X22060149Y35132781D02*
X22155387Y35132781D01*
X22155387Y35132781D02*
X22250625Y35085162D01*
X22250625Y35085162D02*
X22298244Y35037543D01*
X22298244Y35037543D02*
X22345863Y34942305D01*
X22345863Y34942305D02*
X22393482Y34751829D01*
X22393482Y34751829D02*
X22393482Y34513734D01*
X22393482Y34513734D02*
X22345863Y34323258D01*
X22345863Y34323258D02*
X22298244Y34228020D01*
X22298244Y34228020D02*
X22250625Y34180400D01*
X22250625Y34180400D02*
X22155387Y34132781D01*
X22155387Y34132781D02*
X22060149Y34132781D01*
X22060149Y34132781D02*
X21964911Y34180400D01*
X21964911Y34180400D02*
X21917292Y34228020D01*
X21917292Y34228020D02*
X21869673Y34323258D01*
X21869673Y34323258D02*
X21822054Y34513734D01*
X21822054Y34513734D02*
X21822054Y34751829D01*
X21822054Y34751829D02*
X21869673Y34942305D01*
X21869673Y34942305D02*
X21917292Y35037543D01*
X21917292Y35037543D02*
X21964911Y35085162D01*
X21964911Y35085162D02*
X22060149Y35132781D01*
X23012530Y35132781D02*
X23107768Y35132781D01*
X23107768Y35132781D02*
X23203006Y35085162D01*
X23203006Y35085162D02*
X23250625Y35037543D01*
X23250625Y35037543D02*
X23298244Y34942305D01*
X23298244Y34942305D02*
X23345863Y34751829D01*
X23345863Y34751829D02*
X23345863Y34513734D01*
X23345863Y34513734D02*
X23298244Y34323258D01*
X23298244Y34323258D02*
X23250625Y34228020D01*
X23250625Y34228020D02*
X23203006Y34180400D01*
X23203006Y34180400D02*
X23107768Y34132781D01*
X23107768Y34132781D02*
X23012530Y34132781D01*
X23012530Y34132781D02*
X22917292Y34180400D01*
X22917292Y34180400D02*
X22869673Y34228020D01*
X22869673Y34228020D02*
X22822054Y34323258D01*
X22822054Y34323258D02*
X22774435Y34513734D01*
X22774435Y34513734D02*
X22774435Y34751829D01*
X22774435Y34751829D02*
X22822054Y34942305D01*
X22822054Y34942305D02*
X22869673Y35037543D01*
X22869673Y35037543D02*
X22917292Y35085162D01*
X22917292Y35085162D02*
X23012530Y35132781D01*
X24298244Y34132781D02*
X23726816Y34132781D01*
X24012530Y34132781D02*
X24012530Y35132781D01*
X24012530Y35132781D02*
X23917292Y34989924D01*
X23917292Y34989924D02*
X23822054Y34894686D01*
X23822054Y34894686D02*
X23726816Y34847067D01*
D10*
X708646Y15127581D02*
X1327693Y15127581D01*
X1327693Y15127581D02*
X994360Y14746629D01*
X994360Y14746629D02*
X1137217Y14746629D01*
X1137217Y14746629D02*
X1232455Y14699010D01*
X1232455Y14699010D02*
X1280074Y14651391D01*
X1280074Y14651391D02*
X1327693Y14556153D01*
X1327693Y14556153D02*
X1327693Y14318058D01*
X1327693Y14318058D02*
X1280074Y14222820D01*
X1280074Y14222820D02*
X1232455Y14175200D01*
X1232455Y14175200D02*
X1137217Y14127581D01*
X1137217Y14127581D02*
X851503Y14127581D01*
X851503Y14127581D02*
X756265Y14175200D01*
X756265Y14175200D02*
X708646Y14222820D01*
X1327693Y19127581D02*
X756265Y19127581D01*
X1041979Y19127581D02*
X1041979Y20127581D01*
X1041979Y20127581D02*
X946741Y19984724D01*
X946741Y19984724D02*
X851503Y19889486D01*
X851503Y19889486D02*
X756265Y19841867D01*
X756265Y29032343D02*
X803884Y29079962D01*
X803884Y29079962D02*
X899122Y29127581D01*
X899122Y29127581D02*
X1137217Y29127581D01*
X1137217Y29127581D02*
X1232455Y29079962D01*
X1232455Y29079962D02*
X1280074Y29032343D01*
X1280074Y29032343D02*
X1327693Y28937105D01*
X1327693Y28937105D02*
X1327693Y28841867D01*
X1327693Y28841867D02*
X1280074Y28699010D01*
X1280074Y28699010D02*
X708646Y28127581D01*
X708646Y28127581D02*
X1327693Y28127581D01*
X708646Y26627581D02*
X1327693Y26627581D01*
X1327693Y26627581D02*
X994360Y26246629D01*
X994360Y26246629D02*
X1137217Y26246629D01*
X1137217Y26246629D02*
X1232455Y26199010D01*
X1232455Y26199010D02*
X1280074Y26151391D01*
X1280074Y26151391D02*
X1327693Y26056153D01*
X1327693Y26056153D02*
X1327693Y25818058D01*
X1327693Y25818058D02*
X1280074Y25722820D01*
X1280074Y25722820D02*
X1232455Y25675200D01*
X1232455Y25675200D02*
X1137217Y25627581D01*
X1137217Y25627581D02*
X851503Y25627581D01*
X851503Y25627581D02*
X756265Y25675200D01*
X756265Y25675200D02*
X708646Y25722820D01*
X1327693Y30627581D02*
X756265Y30627581D01*
X1041979Y30627581D02*
X1041979Y31627581D01*
X1041979Y31627581D02*
X946741Y31484724D01*
X946741Y31484724D02*
X851503Y31389486D01*
X851503Y31389486D02*
X756265Y31341867D01*
X756265Y6532343D02*
X803884Y6579962D01*
X803884Y6579962D02*
X899122Y6627581D01*
X899122Y6627581D02*
X1137217Y6627581D01*
X1137217Y6627581D02*
X1232455Y6579962D01*
X1232455Y6579962D02*
X1280074Y6532343D01*
X1280074Y6532343D02*
X1327693Y6437105D01*
X1327693Y6437105D02*
X1327693Y6341867D01*
X1327693Y6341867D02*
X1280074Y6199010D01*
X1280074Y6199010D02*
X708646Y5627581D01*
X708646Y5627581D02*
X1327693Y5627581D01*
D14*
X6322054Y30918496D02*
X6798244Y30918496D01*
X6226816Y30632781D02*
X6560149Y31632781D01*
X6560149Y31632781D02*
X6893482Y30632781D01*
X7417292Y31632781D02*
X7512530Y31632781D01*
X7512530Y31632781D02*
X7607768Y31585162D01*
X7607768Y31585162D02*
X7655387Y31537543D01*
X7655387Y31537543D02*
X7703006Y31442305D01*
X7703006Y31442305D02*
X7750625Y31251829D01*
X7750625Y31251829D02*
X7750625Y31013734D01*
X7750625Y31013734D02*
X7703006Y30823258D01*
X7703006Y30823258D02*
X7655387Y30728020D01*
X7655387Y30728020D02*
X7607768Y30680400D01*
X7607768Y30680400D02*
X7512530Y30632781D01*
X7512530Y30632781D02*
X7417292Y30632781D01*
X7417292Y30632781D02*
X7322054Y30680400D01*
X7322054Y30680400D02*
X7274435Y30728020D01*
X7274435Y30728020D02*
X7226816Y30823258D01*
X7226816Y30823258D02*
X7179197Y31013734D01*
X7179197Y31013734D02*
X7179197Y31251829D01*
X7179197Y31251829D02*
X7226816Y31442305D01*
X7226816Y31442305D02*
X7274435Y31537543D01*
X7274435Y31537543D02*
X7322054Y31585162D01*
X7322054Y31585162D02*
X7417292Y31632781D01*
D10*
X756265Y17532343D02*
X803884Y17579962D01*
X803884Y17579962D02*
X899122Y17627581D01*
X899122Y17627581D02*
X1137217Y17627581D01*
X1137217Y17627581D02*
X1232455Y17579962D01*
X1232455Y17579962D02*
X1280074Y17532343D01*
X1280074Y17532343D02*
X1327693Y17437105D01*
X1327693Y17437105D02*
X1327693Y17341867D01*
X1327693Y17341867D02*
X1280074Y17199010D01*
X1280074Y17199010D02*
X708646Y16627581D01*
X708646Y16627581D02*
X1327693Y16627581D01*
D14*
X6322054Y19418496D02*
X6798244Y19418496D01*
X6226816Y19132781D02*
X6560149Y20132781D01*
X6560149Y20132781D02*
X6893482Y19132781D01*
X7750625Y19132781D02*
X7179197Y19132781D01*
X7464911Y19132781D02*
X7464911Y20132781D01*
X7464911Y20132781D02*
X7369673Y19989924D01*
X7369673Y19989924D02*
X7274435Y19894686D01*
X7274435Y19894686D02*
X7179197Y19847067D01*
D15*
X1748902Y34128881D02*
X1748902Y34652691D01*
X1748902Y34652691D02*
X1701283Y34747929D01*
X1701283Y34747929D02*
X1606045Y34795548D01*
X1606045Y34795548D02*
X1415569Y34795548D01*
X1415569Y34795548D02*
X1320331Y34747929D01*
X1748902Y34176500D02*
X1653664Y34128881D01*
X1653664Y34128881D02*
X1415569Y34128881D01*
X1415569Y34128881D02*
X1320331Y34176500D01*
X1320331Y34176500D02*
X1272712Y34271739D01*
X1272712Y34271739D02*
X1272712Y34366977D01*
X1272712Y34366977D02*
X1320331Y34462215D01*
X1320331Y34462215D02*
X1415569Y34509834D01*
X1415569Y34509834D02*
X1653664Y34509834D01*
X1653664Y34509834D02*
X1748902Y34557453D01*
X2653664Y34128881D02*
X2653664Y35128881D01*
X2653664Y34176500D02*
X2558426Y34128881D01*
X2558426Y34128881D02*
X2367950Y34128881D01*
X2367950Y34128881D02*
X2272712Y34176500D01*
X2272712Y34176500D02*
X2225093Y34224120D01*
X2225093Y34224120D02*
X2177474Y34319358D01*
X2177474Y34319358D02*
X2177474Y34605072D01*
X2177474Y34605072D02*
X2225093Y34700310D01*
X2225093Y34700310D02*
X2272712Y34747929D01*
X2272712Y34747929D02*
X2367950Y34795548D01*
X2367950Y34795548D02*
X2558426Y34795548D01*
X2558426Y34795548D02*
X2653664Y34747929D01*
X3558426Y34128881D02*
X3558426Y35128881D01*
X3558426Y34176500D02*
X3463188Y34128881D01*
X3463188Y34128881D02*
X3272712Y34128881D01*
X3272712Y34128881D02*
X3177474Y34176500D01*
X3177474Y34176500D02*
X3129855Y34224120D01*
X3129855Y34224120D02*
X3082236Y34319358D01*
X3082236Y34319358D02*
X3082236Y34605072D01*
X3082236Y34605072D02*
X3129855Y34700310D01*
X3129855Y34700310D02*
X3177474Y34747929D01*
X3177474Y34747929D02*
X3272712Y34795548D01*
X3272712Y34795548D02*
X3463188Y34795548D01*
X3463188Y34795548D02*
X3558426Y34747929D01*
X4034617Y34128881D02*
X4034617Y34795548D01*
X4034617Y34605072D02*
X4082236Y34700310D01*
X4082236Y34700310D02*
X4129855Y34747929D01*
X4129855Y34747929D02*
X4225093Y34795548D01*
X4225093Y34795548D02*
X4320331Y34795548D01*
X4653665Y34224120D02*
X4701284Y34176500D01*
X4701284Y34176500D02*
X4653665Y34128881D01*
X4653665Y34128881D02*
X4606046Y34176500D01*
X4606046Y34176500D02*
X4653665Y34224120D01*
X4653665Y34224120D02*
X4653665Y34128881D01*
X5844141Y34176500D02*
X5939379Y34128881D01*
X5939379Y34128881D02*
X6129855Y34128881D01*
X6129855Y34128881D02*
X6225093Y34176500D01*
X6225093Y34176500D02*
X6272712Y34271739D01*
X6272712Y34271739D02*
X6272712Y34319358D01*
X6272712Y34319358D02*
X6225093Y34414596D01*
X6225093Y34414596D02*
X6129855Y34462215D01*
X6129855Y34462215D02*
X5986998Y34462215D01*
X5986998Y34462215D02*
X5891760Y34509834D01*
X5891760Y34509834D02*
X5844141Y34605072D01*
X5844141Y34605072D02*
X5844141Y34652691D01*
X5844141Y34652691D02*
X5891760Y34747929D01*
X5891760Y34747929D02*
X5986998Y34795548D01*
X5986998Y34795548D02*
X6129855Y34795548D01*
X6129855Y34795548D02*
X6225093Y34747929D01*
X7082236Y34176500D02*
X6986998Y34128881D01*
X6986998Y34128881D02*
X6796522Y34128881D01*
X6796522Y34128881D02*
X6701284Y34176500D01*
X6701284Y34176500D02*
X6653665Y34271739D01*
X6653665Y34271739D02*
X6653665Y34652691D01*
X6653665Y34652691D02*
X6701284Y34747929D01*
X6701284Y34747929D02*
X6796522Y34795548D01*
X6796522Y34795548D02*
X6986998Y34795548D01*
X6986998Y34795548D02*
X7082236Y34747929D01*
X7082236Y34747929D02*
X7129855Y34652691D01*
X7129855Y34652691D02*
X7129855Y34557453D01*
X7129855Y34557453D02*
X6653665Y34462215D01*
X7701284Y34128881D02*
X7606046Y34176500D01*
X7606046Y34176500D02*
X7558427Y34271739D01*
X7558427Y34271739D02*
X7558427Y35128881D01*
X8082237Y34224120D02*
X8129856Y34176500D01*
X8129856Y34176500D02*
X8082237Y34128881D01*
X8082237Y34128881D02*
X8034618Y34176500D01*
X8034618Y34176500D02*
X8082237Y34224120D01*
X8082237Y34224120D02*
X8082237Y34128881D01*
D10*
X1327693Y8127581D02*
X756265Y8127581D01*
X1041979Y8127581D02*
X1041979Y9127581D01*
X1041979Y9127581D02*
X946741Y8984724D01*
X946741Y8984724D02*
X851503Y8889486D01*
X851503Y8889486D02*
X756265Y8841867D01*
D14*
X14822054Y180400D02*
X14964911Y132781D01*
X14964911Y132781D02*
X15203006Y132781D01*
X15203006Y132781D02*
X15298244Y180400D01*
X15298244Y180400D02*
X15345863Y228020D01*
X15345863Y228020D02*
X15393482Y323258D01*
X15393482Y323258D02*
X15393482Y418496D01*
X15393482Y418496D02*
X15345863Y513734D01*
X15345863Y513734D02*
X15298244Y561353D01*
X15298244Y561353D02*
X15203006Y608972D01*
X15203006Y608972D02*
X15012530Y656591D01*
X15012530Y656591D02*
X14917292Y704210D01*
X14917292Y704210D02*
X14869673Y751829D01*
X14869673Y751829D02*
X14822054Y847067D01*
X14822054Y847067D02*
X14822054Y942305D01*
X14822054Y942305D02*
X14869673Y1037543D01*
X14869673Y1037543D02*
X14917292Y1085162D01*
X14917292Y1085162D02*
X15012530Y1132781D01*
X15012530Y1132781D02*
X15250625Y1132781D01*
X15250625Y1132781D02*
X15393482Y1085162D01*
X16393482Y228020D02*
X16345863Y180400D01*
X16345863Y180400D02*
X16203006Y132781D01*
X16203006Y132781D02*
X16107768Y132781D01*
X16107768Y132781D02*
X15964911Y180400D01*
X15964911Y180400D02*
X15869673Y275639D01*
X15869673Y275639D02*
X15822054Y370877D01*
X15822054Y370877D02*
X15774435Y561353D01*
X15774435Y561353D02*
X15774435Y704210D01*
X15774435Y704210D02*
X15822054Y894686D01*
X15822054Y894686D02*
X15869673Y989924D01*
X15869673Y989924D02*
X15964911Y1085162D01*
X15964911Y1085162D02*
X16107768Y1132781D01*
X16107768Y1132781D02*
X16203006Y1132781D01*
X16203006Y1132781D02*
X16345863Y1085162D01*
X16345863Y1085162D02*
X16393482Y1037543D01*
X17298244Y132781D02*
X16822054Y132781D01*
X16822054Y132781D02*
X16822054Y1132781D01*
D10*
X11327693Y31627581D02*
X10756265Y31627581D01*
X11041979Y31627581D02*
X11041979Y32627581D01*
X11041979Y32627581D02*
X10946741Y32484724D01*
X10946741Y32484724D02*
X10851503Y32389486D01*
X10851503Y32389486D02*
X10756265Y32341867D01*
D11*
X17523333Y12675181D02*
X17190000Y13151372D01*
X16951905Y12675181D02*
X16951905Y13675181D01*
X16951905Y13675181D02*
X17332857Y13675181D01*
X17332857Y13675181D02*
X17428095Y13627562D01*
X17428095Y13627562D02*
X17475714Y13579943D01*
X17475714Y13579943D02*
X17523333Y13484705D01*
X17523333Y13484705D02*
X17523333Y13341848D01*
X17523333Y13341848D02*
X17475714Y13246610D01*
X17475714Y13246610D02*
X17428095Y13198991D01*
X17428095Y13198991D02*
X17332857Y13151372D01*
X17332857Y13151372D02*
X16951905Y13151372D01*
X18475714Y12675181D02*
X17904286Y12675181D01*
X18190000Y12675181D02*
X18190000Y13675181D01*
X18190000Y13675181D02*
X18094762Y13532324D01*
X18094762Y13532324D02*
X17999524Y13437086D01*
X17999524Y13437086D02*
X17904286Y13389467D01*
X3666666Y33900181D02*
X3666666Y33185896D01*
X3666666Y33185896D02*
X3619047Y33043039D01*
X3619047Y33043039D02*
X3523809Y32947800D01*
X3523809Y32947800D02*
X3380952Y32900181D01*
X3380952Y32900181D02*
X3285714Y32900181D01*
X4666666Y32900181D02*
X4095238Y32900181D01*
X4380952Y32900181D02*
X4380952Y33900181D01*
X4380952Y33900181D02*
X4285714Y33757324D01*
X4285714Y33757324D02*
X4190476Y33662086D01*
X4190476Y33662086D02*
X4095238Y33614467D01*
X23724819Y2666667D02*
X24439104Y2666667D01*
X24439104Y2666667D02*
X24581961Y2619048D01*
X24581961Y2619048D02*
X24677200Y2523810D01*
X24677200Y2523810D02*
X24724819Y2380953D01*
X24724819Y2380953D02*
X24724819Y2285715D01*
X24058152Y3571429D02*
X24724819Y3571429D01*
X23677200Y3333334D02*
X24391485Y3095239D01*
X24391485Y3095239D02*
X24391485Y3714286D01*
X3666666Y22415181D02*
X3666666Y21700896D01*
X3666666Y21700896D02*
X3619047Y21558039D01*
X3619047Y21558039D02*
X3523809Y21462800D01*
X3523809Y21462800D02*
X3380952Y21415181D01*
X3380952Y21415181D02*
X3285714Y21415181D01*
X4095238Y22319943D02*
X4142857Y22367562D01*
X4142857Y22367562D02*
X4238095Y22415181D01*
X4238095Y22415181D02*
X4476190Y22415181D01*
X4476190Y22415181D02*
X4571428Y22367562D01*
X4571428Y22367562D02*
X4619047Y22319943D01*
X4619047Y22319943D02*
X4666666Y22224705D01*
X4666666Y22224705D02*
X4666666Y22129467D01*
X4666666Y22129467D02*
X4619047Y21986610D01*
X4619047Y21986610D02*
X4047619Y21415181D01*
X4047619Y21415181D02*
X4666666Y21415181D01*
X15928095Y33915181D02*
X15928095Y33105658D01*
X15928095Y33105658D02*
X15975714Y33010420D01*
X15975714Y33010420D02*
X16023333Y32962800D01*
X16023333Y32962800D02*
X16118571Y32915181D01*
X16118571Y32915181D02*
X16309047Y32915181D01*
X16309047Y32915181D02*
X16404285Y32962800D01*
X16404285Y32962800D02*
X16451904Y33010420D01*
X16451904Y33010420D02*
X16499523Y33105658D01*
X16499523Y33105658D02*
X16499523Y33915181D01*
X17499523Y32915181D02*
X16928095Y32915181D01*
X17213809Y32915181D02*
X17213809Y33915181D01*
X17213809Y33915181D02*
X17118571Y33772324D01*
X17118571Y33772324D02*
X17023333Y33677086D01*
X17023333Y33677086D02*
X16928095Y33629467D01*
X17523333Y6675181D02*
X17190000Y7151372D01*
X16951905Y6675181D02*
X16951905Y7675181D01*
X16951905Y7675181D02*
X17332857Y7675181D01*
X17332857Y7675181D02*
X17428095Y7627562D01*
X17428095Y7627562D02*
X17475714Y7579943D01*
X17475714Y7579943D02*
X17523333Y7484705D01*
X17523333Y7484705D02*
X17523333Y7341848D01*
X17523333Y7341848D02*
X17475714Y7246610D01*
X17475714Y7246610D02*
X17428095Y7198991D01*
X17428095Y7198991D02*
X17332857Y7151372D01*
X17332857Y7151372D02*
X16951905Y7151372D01*
X17904286Y7579943D02*
X17951905Y7627562D01*
X17951905Y7627562D02*
X18047143Y7675181D01*
X18047143Y7675181D02*
X18285238Y7675181D01*
X18285238Y7675181D02*
X18380476Y7627562D01*
X18380476Y7627562D02*
X18428095Y7579943D01*
X18428095Y7579943D02*
X18475714Y7484705D01*
X18475714Y7484705D02*
X18475714Y7389467D01*
X18475714Y7389467D02*
X18428095Y7246610D01*
X18428095Y7246610D02*
X17856667Y6675181D01*
X17856667Y6675181D02*
X18475714Y6675181D01*
X3666666Y11400181D02*
X3666666Y10685896D01*
X3666666Y10685896D02*
X3619047Y10543039D01*
X3619047Y10543039D02*
X3523809Y10447800D01*
X3523809Y10447800D02*
X3380952Y10400181D01*
X3380952Y10400181D02*
X3285714Y10400181D01*
X4047619Y11400181D02*
X4666666Y11400181D01*
X4666666Y11400181D02*
X4333333Y11019229D01*
X4333333Y11019229D02*
X4476190Y11019229D01*
X4476190Y11019229D02*
X4571428Y10971610D01*
X4571428Y10971610D02*
X4619047Y10923991D01*
X4619047Y10923991D02*
X4666666Y10828753D01*
X4666666Y10828753D02*
X4666666Y10590658D01*
X4666666Y10590658D02*
X4619047Y10495420D01*
X4619047Y10495420D02*
X4571428Y10447800D01*
X4571428Y10447800D02*
X4476190Y10400181D01*
X4476190Y10400181D02*
X4190476Y10400181D01*
X4190476Y10400181D02*
X4095238Y10447800D01*
X4095238Y10447800D02*
X4047619Y10495420D01*
D16*
G04 #@! TO.C,R1*
X14420000Y16870000D02*
X14420000Y16540000D01*
X14420000Y14130000D02*
X14420000Y14460000D01*
X20960000Y16870000D02*
X14420000Y16870000D01*
X20960000Y16540000D02*
X20960000Y16870000D01*
X20960000Y14460000D02*
X20960000Y14130000D01*
X20960000Y14130000D02*
X14420000Y14130000D01*
G04 #@! TO.C,J1*
X2670000Y32355000D02*
X4000000Y32355000D01*
X2670000Y31025000D02*
X2670000Y32355000D01*
X2670000Y29755000D02*
X2670000Y24615000D01*
X2670000Y29755000D02*
X5330000Y29755000D01*
X2670000Y24615000D02*
X5330000Y24615000D01*
X5330000Y29755000D02*
X5330000Y24615000D01*
G04 #@! TO.C,J4*
X12550000Y4330000D02*
X12550000Y1670000D01*
X20230000Y4330000D02*
X12550000Y4330000D01*
X20230000Y4330000D02*
X20230000Y1670000D01*
X20230000Y1670000D02*
X12550000Y1670000D01*
X22830000Y3000000D02*
X22830000Y1670000D01*
X22830000Y1670000D02*
X21500000Y1670000D01*
G04 #@! TO.C,J2*
X2670000Y20870000D02*
X4000000Y20870000D01*
X2670000Y19540000D02*
X2670000Y20870000D01*
X2670000Y18270000D02*
X2670000Y13130000D01*
X2670000Y18270000D02*
X5330000Y18270000D01*
X2670000Y13130000D02*
X5330000Y13130000D01*
X5330000Y18270000D02*
X5330000Y13130000D01*
G04 #@! TO.C,U1*
X14040000Y32370000D02*
X14040000Y22090000D01*
X14040000Y22090000D02*
X19340000Y22090000D01*
X15690000Y32370000D02*
X14040000Y32370000D01*
X19340000Y32370000D02*
X17690000Y32370000D01*
X19340000Y22090000D02*
X19340000Y32370000D01*
X17690000Y32370000D02*
G75*
G02*
X15690000Y32370000I-1000000J0D01*
G01*
G04 #@! TO.C,R2*
X14420000Y10870000D02*
X14420000Y10540000D01*
X14420000Y8130000D02*
X14420000Y8460000D01*
X20960000Y10870000D02*
X14420000Y10870000D01*
X20960000Y10540000D02*
X20960000Y10870000D01*
X20960000Y8460000D02*
X20960000Y8130000D01*
X20960000Y8130000D02*
X14420000Y8130000D01*
G04 #@! TO.C,J3*
X2670000Y9855000D02*
X4000000Y9855000D01*
X2670000Y8525000D02*
X2670000Y9855000D01*
X2670000Y7255000D02*
X2670000Y2115000D01*
X2670000Y7255000D02*
X5330000Y7255000D01*
X2670000Y2115000D02*
X5330000Y2115000D01*
X5330000Y7255000D02*
X5330000Y2115000D01*
G04 #@! TD*
D17*
X0Y36000000D02*
X25000000Y36000000D01*
X25000000Y0D01*
X0Y0D01*
X0Y36000000D01*
M02*
