M48
; DRILL file {KiCad 9.0.0} date 2025-03-16T17:28:03+0100
; FORMAT={-:-/ absolute / inch / decimal}
; #@! TF.CreationDate,2025-03-16T17:28:03+01:00
; #@! TF.GenerationSoftware,Kicad,Pcbnew,9.0.0
; #@! TF.FileFunction,MixedPlating,1,2
FMAT,2
INCH
; #@! TA.AperFunction,Plated,PTH,ComponentDrill
T1C0.0315
; #@! TA.AperFunction,Plated,PTH,ComponentDrill
T2C0.0394
; #@! TA.AperFunction,NonPlated,NPTH,ComponentDrill
T3C0.1260
%
G90
G05
T1
X0.4016Y1.2634
X0.4016Y1.1634
X0.4016Y1.0634
X0.4016Y0.9634
X0.5665Y0.7283
X0.5709Y0.4744
X0.7016Y1.2634
X0.7016Y1.1634
X0.7016Y1.0634
X0.7016Y0.9634
X0.8543Y1.2657
X0.8543Y1.1673
X0.8665Y0.7283
X0.8709Y0.4744
T2
X0.1299Y1.2492
X0.1299Y1.1492
X0.1299Y1.0492
X0.1299Y0.797
X0.1299Y0.697
X0.1299Y0.597
X0.1299Y0.3634
X0.1299Y0.2634
X0.1299Y0.1634
X0.5441Y0.128
X0.6441Y0.128
X0.7441Y0.128
X0.8441Y0.128
T3
X0.3957Y0.5984
M30
