G04 #@! TF.GenerationSoftware,KiCad,Pcbnew,9.0.0*
G04 #@! TF.CreationDate,2025-03-15T22:30:26+01:00*
G04 #@! TF.ProjectId,eeprom_i2c,65657072-6f6d-45f6-9932-632e6b696361,1.1*
G04 #@! TF.SameCoordinates,PX7459280PY5b8d800*
G04 #@! TF.FileFunction,Copper,L2,Bot*
G04 #@! TF.FilePolarity,Positive*
%FSLAX46Y46*%
G04 Gerber Fmt 4.6, Leading zero omitted, Abs format (unit mm)*
G04 Created by KiCad (PCBNEW 9.0.0) date 2025-03-15 22:30:26*
%MOMM*%
%LPD*%
G01*
G04 APERTURE LIST*
%ADD10C,0.100000*%
%ADD11C,0.150000*%
%ADD12C,0.300000*%
%ADD13C,0.400000*%
G04 #@! TA.AperFunction,ComponentPad*
%ADD14R,1.700000X1.700000*%
G04 #@! TD*
G04 #@! TA.AperFunction,ComponentPad*
%ADD15O,1.700000X1.700000*%
G04 #@! TD*
G04 #@! TA.AperFunction,ComponentPad*
%ADD16C,1.600000*%
G04 #@! TD*
G04 #@! TA.AperFunction,ComponentPad*
%ADD17O,1.600000X1.600000*%
G04 #@! TD*
G04 #@! TA.AperFunction,ComponentPad*
%ADD18R,1.600000X1.600000*%
G04 #@! TD*
G04 #@! TA.AperFunction,Profile*
%ADD19C,0.050000*%
G04 #@! TD*
G04 APERTURE END LIST*
D10*
D11*
X55002200Y-70007200D02*
X163002200Y-70007200D01*
X163002200Y-102007200D01*
X55002200Y-102007200D01*
X55002200Y-70007200D01*
D10*
D11*
X-112000000Y86000000D02*
X165002200Y86000000D01*
X165002200Y-104007200D01*
X-112000000Y-104007200D01*
X-112000000Y86000000D01*
D10*
D11*
X-110000000Y84000000D02*
X163002200Y84000000D01*
X163002200Y-102007200D01*
X-110000000Y-102007200D01*
X-110000000Y84000000D01*
D10*
D11*
X-62000000Y84000000D02*
X-62000000Y86000000D01*
D10*
D11*
X-12000000Y84000000D02*
X-12000000Y86000000D01*
D10*
D11*
X38000000Y84000000D02*
X38000000Y86000000D01*
D10*
D11*
X88000000Y84000000D02*
X88000000Y86000000D01*
D10*
D11*
X138000000Y84000000D02*
X138000000Y86000000D01*
D10*
D11*
X-85910840Y84406396D02*
X-86653697Y84406396D01*
X-86282269Y84406396D02*
X-86282269Y85706396D01*
X-86282269Y85706396D02*
X-86406078Y85520681D01*
X-86406078Y85520681D02*
X-86529888Y85396872D01*
X-86529888Y85396872D02*
X-86653697Y85334967D01*
D10*
D11*
X-36653697Y85582586D02*
X-36591793Y85644491D01*
X-36591793Y85644491D02*
X-36467983Y85706396D01*
X-36467983Y85706396D02*
X-36158459Y85706396D01*
X-36158459Y85706396D02*
X-36034650Y85644491D01*
X-36034650Y85644491D02*
X-35972745Y85582586D01*
X-35972745Y85582586D02*
X-35910840Y85458777D01*
X-35910840Y85458777D02*
X-35910840Y85334967D01*
X-35910840Y85334967D02*
X-35972745Y85149253D01*
X-35972745Y85149253D02*
X-36715602Y84406396D01*
X-36715602Y84406396D02*
X-35910840Y84406396D01*
D10*
D11*
X13284398Y85706396D02*
X14089160Y85706396D01*
X14089160Y85706396D02*
X13655826Y85211158D01*
X13655826Y85211158D02*
X13841541Y85211158D01*
X13841541Y85211158D02*
X13965350Y85149253D01*
X13965350Y85149253D02*
X14027255Y85087348D01*
X14027255Y85087348D02*
X14089160Y84963539D01*
X14089160Y84963539D02*
X14089160Y84654015D01*
X14089160Y84654015D02*
X14027255Y84530205D01*
X14027255Y84530205D02*
X13965350Y84468300D01*
X13965350Y84468300D02*
X13841541Y84406396D01*
X13841541Y84406396D02*
X13470112Y84406396D01*
X13470112Y84406396D02*
X13346303Y84468300D01*
X13346303Y84468300D02*
X13284398Y84530205D01*
D10*
D11*
X63965350Y85273062D02*
X63965350Y84406396D01*
X63655826Y85768300D02*
X63346303Y84839729D01*
X63346303Y84839729D02*
X64151064Y84839729D01*
D10*
D11*
X114027255Y85706396D02*
X113408207Y85706396D01*
X113408207Y85706396D02*
X113346303Y85087348D01*
X113346303Y85087348D02*
X113408207Y85149253D01*
X113408207Y85149253D02*
X113532017Y85211158D01*
X113532017Y85211158D02*
X113841541Y85211158D01*
X113841541Y85211158D02*
X113965350Y85149253D01*
X113965350Y85149253D02*
X114027255Y85087348D01*
X114027255Y85087348D02*
X114089160Y84963539D01*
X114089160Y84963539D02*
X114089160Y84654015D01*
X114089160Y84654015D02*
X114027255Y84530205D01*
X114027255Y84530205D02*
X113965350Y84468300D01*
X113965350Y84468300D02*
X113841541Y84406396D01*
X113841541Y84406396D02*
X113532017Y84406396D01*
X113532017Y84406396D02*
X113408207Y84468300D01*
X113408207Y84468300D02*
X113346303Y84530205D01*
D10*
D11*
X163965350Y85706396D02*
X163717731Y85706396D01*
X163717731Y85706396D02*
X163593922Y85644491D01*
X163593922Y85644491D02*
X163532017Y85582586D01*
X163532017Y85582586D02*
X163408207Y85396872D01*
X163408207Y85396872D02*
X163346303Y85149253D01*
X163346303Y85149253D02*
X163346303Y84654015D01*
X163346303Y84654015D02*
X163408207Y84530205D01*
X163408207Y84530205D02*
X163470112Y84468300D01*
X163470112Y84468300D02*
X163593922Y84406396D01*
X163593922Y84406396D02*
X163841541Y84406396D01*
X163841541Y84406396D02*
X163965350Y84468300D01*
X163965350Y84468300D02*
X164027255Y84530205D01*
X164027255Y84530205D02*
X164089160Y84654015D01*
X164089160Y84654015D02*
X164089160Y84963539D01*
X164089160Y84963539D02*
X164027255Y85087348D01*
X164027255Y85087348D02*
X163965350Y85149253D01*
X163965350Y85149253D02*
X163841541Y85211158D01*
X163841541Y85211158D02*
X163593922Y85211158D01*
X163593922Y85211158D02*
X163470112Y85149253D01*
X163470112Y85149253D02*
X163408207Y85087348D01*
X163408207Y85087348D02*
X163346303Y84963539D01*
D10*
D11*
X-62000000Y-102007200D02*
X-62000000Y-104007200D01*
D10*
D11*
X-12000000Y-102007200D02*
X-12000000Y-104007200D01*
D10*
D11*
X38000000Y-102007200D02*
X38000000Y-104007200D01*
D10*
D11*
X88000000Y-102007200D02*
X88000000Y-104007200D01*
D10*
D11*
X138000000Y-102007200D02*
X138000000Y-104007200D01*
D10*
D11*
X-85910840Y-103600804D02*
X-86653697Y-103600804D01*
X-86282269Y-103600804D02*
X-86282269Y-102300804D01*
X-86282269Y-102300804D02*
X-86406078Y-102486519D01*
X-86406078Y-102486519D02*
X-86529888Y-102610328D01*
X-86529888Y-102610328D02*
X-86653697Y-102672233D01*
D10*
D11*
X-36653697Y-102424614D02*
X-36591793Y-102362709D01*
X-36591793Y-102362709D02*
X-36467983Y-102300804D01*
X-36467983Y-102300804D02*
X-36158459Y-102300804D01*
X-36158459Y-102300804D02*
X-36034650Y-102362709D01*
X-36034650Y-102362709D02*
X-35972745Y-102424614D01*
X-35972745Y-102424614D02*
X-35910840Y-102548423D01*
X-35910840Y-102548423D02*
X-35910840Y-102672233D01*
X-35910840Y-102672233D02*
X-35972745Y-102857947D01*
X-35972745Y-102857947D02*
X-36715602Y-103600804D01*
X-36715602Y-103600804D02*
X-35910840Y-103600804D01*
D10*
D11*
X13284398Y-102300804D02*
X14089160Y-102300804D01*
X14089160Y-102300804D02*
X13655826Y-102796042D01*
X13655826Y-102796042D02*
X13841541Y-102796042D01*
X13841541Y-102796042D02*
X13965350Y-102857947D01*
X13965350Y-102857947D02*
X14027255Y-102919852D01*
X14027255Y-102919852D02*
X14089160Y-103043661D01*
X14089160Y-103043661D02*
X14089160Y-103353185D01*
X14089160Y-103353185D02*
X14027255Y-103476995D01*
X14027255Y-103476995D02*
X13965350Y-103538900D01*
X13965350Y-103538900D02*
X13841541Y-103600804D01*
X13841541Y-103600804D02*
X13470112Y-103600804D01*
X13470112Y-103600804D02*
X13346303Y-103538900D01*
X13346303Y-103538900D02*
X13284398Y-103476995D01*
D10*
D11*
X63965350Y-102734138D02*
X63965350Y-103600804D01*
X63655826Y-102238900D02*
X63346303Y-103167471D01*
X63346303Y-103167471D02*
X64151064Y-103167471D01*
D10*
D11*
X114027255Y-102300804D02*
X113408207Y-102300804D01*
X113408207Y-102300804D02*
X113346303Y-102919852D01*
X113346303Y-102919852D02*
X113408207Y-102857947D01*
X113408207Y-102857947D02*
X113532017Y-102796042D01*
X113532017Y-102796042D02*
X113841541Y-102796042D01*
X113841541Y-102796042D02*
X113965350Y-102857947D01*
X113965350Y-102857947D02*
X114027255Y-102919852D01*
X114027255Y-102919852D02*
X114089160Y-103043661D01*
X114089160Y-103043661D02*
X114089160Y-103353185D01*
X114089160Y-103353185D02*
X114027255Y-103476995D01*
X114027255Y-103476995D02*
X113965350Y-103538900D01*
X113965350Y-103538900D02*
X113841541Y-103600804D01*
X113841541Y-103600804D02*
X113532017Y-103600804D01*
X113532017Y-103600804D02*
X113408207Y-103538900D01*
X113408207Y-103538900D02*
X113346303Y-103476995D01*
D10*
D11*
X163965350Y-102300804D02*
X163717731Y-102300804D01*
X163717731Y-102300804D02*
X163593922Y-102362709D01*
X163593922Y-102362709D02*
X163532017Y-102424614D01*
X163532017Y-102424614D02*
X163408207Y-102610328D01*
X163408207Y-102610328D02*
X163346303Y-102857947D01*
X163346303Y-102857947D02*
X163346303Y-103353185D01*
X163346303Y-103353185D02*
X163408207Y-103476995D01*
X163408207Y-103476995D02*
X163470112Y-103538900D01*
X163470112Y-103538900D02*
X163593922Y-103600804D01*
X163593922Y-103600804D02*
X163841541Y-103600804D01*
X163841541Y-103600804D02*
X163965350Y-103538900D01*
X163965350Y-103538900D02*
X164027255Y-103476995D01*
X164027255Y-103476995D02*
X164089160Y-103353185D01*
X164089160Y-103353185D02*
X164089160Y-103043661D01*
X164089160Y-103043661D02*
X164027255Y-102919852D01*
X164027255Y-102919852D02*
X163965350Y-102857947D01*
X163965350Y-102857947D02*
X163841541Y-102796042D01*
X163841541Y-102796042D02*
X163593922Y-102796042D01*
X163593922Y-102796042D02*
X163470112Y-102857947D01*
X163470112Y-102857947D02*
X163408207Y-102919852D01*
X163408207Y-102919852D02*
X163346303Y-103043661D01*
D10*
D11*
X-112000000Y36000000D02*
X-110000000Y36000000D01*
D10*
D11*
X-112000000Y-14000000D02*
X-110000000Y-14000000D01*
D10*
D11*
X-112000000Y-64000000D02*
X-110000000Y-64000000D01*
D10*
D11*
X-111309524Y60777824D02*
X-110690477Y60777824D01*
X-111433334Y60406396D02*
X-111000001Y61706396D01*
X-111000001Y61706396D02*
X-110566667Y60406396D01*
D10*
D11*
X-110907143Y11087348D02*
X-110721429Y11025443D01*
X-110721429Y11025443D02*
X-110659524Y10963539D01*
X-110659524Y10963539D02*
X-110597620Y10839729D01*
X-110597620Y10839729D02*
X-110597620Y10654015D01*
X-110597620Y10654015D02*
X-110659524Y10530205D01*
X-110659524Y10530205D02*
X-110721429Y10468300D01*
X-110721429Y10468300D02*
X-110845239Y10406396D01*
X-110845239Y10406396D02*
X-111340477Y10406396D01*
X-111340477Y10406396D02*
X-111340477Y11706396D01*
X-111340477Y11706396D02*
X-110907143Y11706396D01*
X-110907143Y11706396D02*
X-110783334Y11644491D01*
X-110783334Y11644491D02*
X-110721429Y11582586D01*
X-110721429Y11582586D02*
X-110659524Y11458777D01*
X-110659524Y11458777D02*
X-110659524Y11334967D01*
X-110659524Y11334967D02*
X-110721429Y11211158D01*
X-110721429Y11211158D02*
X-110783334Y11149253D01*
X-110783334Y11149253D02*
X-110907143Y11087348D01*
X-110907143Y11087348D02*
X-111340477Y11087348D01*
D10*
D11*
X-110597620Y-39469795D02*
X-110659524Y-39531700D01*
X-110659524Y-39531700D02*
X-110845239Y-39593604D01*
X-110845239Y-39593604D02*
X-110969048Y-39593604D01*
X-110969048Y-39593604D02*
X-111154762Y-39531700D01*
X-111154762Y-39531700D02*
X-111278572Y-39407890D01*
X-111278572Y-39407890D02*
X-111340477Y-39284080D01*
X-111340477Y-39284080D02*
X-111402381Y-39036461D01*
X-111402381Y-39036461D02*
X-111402381Y-38850747D01*
X-111402381Y-38850747D02*
X-111340477Y-38603128D01*
X-111340477Y-38603128D02*
X-111278572Y-38479319D01*
X-111278572Y-38479319D02*
X-111154762Y-38355509D01*
X-111154762Y-38355509D02*
X-110969048Y-38293604D01*
X-110969048Y-38293604D02*
X-110845239Y-38293604D01*
X-110845239Y-38293604D02*
X-110659524Y-38355509D01*
X-110659524Y-38355509D02*
X-110597620Y-38417414D01*
D10*
D11*
X-111340477Y-89593604D02*
X-111340477Y-88293604D01*
X-111340477Y-88293604D02*
X-111030953Y-88293604D01*
X-111030953Y-88293604D02*
X-110845239Y-88355509D01*
X-110845239Y-88355509D02*
X-110721429Y-88479319D01*
X-110721429Y-88479319D02*
X-110659524Y-88603128D01*
X-110659524Y-88603128D02*
X-110597620Y-88850747D01*
X-110597620Y-88850747D02*
X-110597620Y-89036461D01*
X-110597620Y-89036461D02*
X-110659524Y-89284080D01*
X-110659524Y-89284080D02*
X-110721429Y-89407890D01*
X-110721429Y-89407890D02*
X-110845239Y-89531700D01*
X-110845239Y-89531700D02*
X-111030953Y-89593604D01*
X-111030953Y-89593604D02*
X-111340477Y-89593604D01*
D10*
D11*
X165002200Y36000000D02*
X163002200Y36000000D01*
D10*
D11*
X165002200Y-14000000D02*
X163002200Y-14000000D01*
D10*
D11*
X165002200Y-64000000D02*
X163002200Y-64000000D01*
D10*
D11*
X163692676Y60777824D02*
X164311723Y60777824D01*
X163568866Y60406396D02*
X164002199Y61706396D01*
X164002199Y61706396D02*
X164435533Y60406396D01*
D10*
D11*
X164095057Y11087348D02*
X164280771Y11025443D01*
X164280771Y11025443D02*
X164342676Y10963539D01*
X164342676Y10963539D02*
X164404580Y10839729D01*
X164404580Y10839729D02*
X164404580Y10654015D01*
X164404580Y10654015D02*
X164342676Y10530205D01*
X164342676Y10530205D02*
X164280771Y10468300D01*
X164280771Y10468300D02*
X164156961Y10406396D01*
X164156961Y10406396D02*
X163661723Y10406396D01*
X163661723Y10406396D02*
X163661723Y11706396D01*
X163661723Y11706396D02*
X164095057Y11706396D01*
X164095057Y11706396D02*
X164218866Y11644491D01*
X164218866Y11644491D02*
X164280771Y11582586D01*
X164280771Y11582586D02*
X164342676Y11458777D01*
X164342676Y11458777D02*
X164342676Y11334967D01*
X164342676Y11334967D02*
X164280771Y11211158D01*
X164280771Y11211158D02*
X164218866Y11149253D01*
X164218866Y11149253D02*
X164095057Y11087348D01*
X164095057Y11087348D02*
X163661723Y11087348D01*
D10*
D11*
X164404580Y-39469795D02*
X164342676Y-39531700D01*
X164342676Y-39531700D02*
X164156961Y-39593604D01*
X164156961Y-39593604D02*
X164033152Y-39593604D01*
X164033152Y-39593604D02*
X163847438Y-39531700D01*
X163847438Y-39531700D02*
X163723628Y-39407890D01*
X163723628Y-39407890D02*
X163661723Y-39284080D01*
X163661723Y-39284080D02*
X163599819Y-39036461D01*
X163599819Y-39036461D02*
X163599819Y-38850747D01*
X163599819Y-38850747D02*
X163661723Y-38603128D01*
X163661723Y-38603128D02*
X163723628Y-38479319D01*
X163723628Y-38479319D02*
X163847438Y-38355509D01*
X163847438Y-38355509D02*
X164033152Y-38293604D01*
X164033152Y-38293604D02*
X164156961Y-38293604D01*
X164156961Y-38293604D02*
X164342676Y-38355509D01*
X164342676Y-38355509D02*
X164404580Y-38417414D01*
D10*
D11*
X163661723Y-89593604D02*
X163661723Y-88293604D01*
X163661723Y-88293604D02*
X163971247Y-88293604D01*
X163971247Y-88293604D02*
X164156961Y-88355509D01*
X164156961Y-88355509D02*
X164280771Y-88479319D01*
X164280771Y-88479319D02*
X164342676Y-88603128D01*
X164342676Y-88603128D02*
X164404580Y-88850747D01*
X164404580Y-88850747D02*
X164404580Y-89036461D01*
X164404580Y-89036461D02*
X164342676Y-89284080D01*
X164342676Y-89284080D02*
X164280771Y-89407890D01*
X164280771Y-89407890D02*
X164156961Y-89531700D01*
X164156961Y-89531700D02*
X163971247Y-89593604D01*
X163971247Y-89593604D02*
X163661723Y-89593604D01*
D10*
D11*
X78458026Y-97793328D02*
X78458026Y-96293328D01*
X78458026Y-96293328D02*
X78815169Y-96293328D01*
X78815169Y-96293328D02*
X79029455Y-96364757D01*
X79029455Y-96364757D02*
X79172312Y-96507614D01*
X79172312Y-96507614D02*
X79243741Y-96650471D01*
X79243741Y-96650471D02*
X79315169Y-96936185D01*
X79315169Y-96936185D02*
X79315169Y-97150471D01*
X79315169Y-97150471D02*
X79243741Y-97436185D01*
X79243741Y-97436185D02*
X79172312Y-97579042D01*
X79172312Y-97579042D02*
X79029455Y-97721900D01*
X79029455Y-97721900D02*
X78815169Y-97793328D01*
X78815169Y-97793328D02*
X78458026Y-97793328D01*
X80600884Y-97793328D02*
X80600884Y-97007614D01*
X80600884Y-97007614D02*
X80529455Y-96864757D01*
X80529455Y-96864757D02*
X80386598Y-96793328D01*
X80386598Y-96793328D02*
X80100884Y-96793328D01*
X80100884Y-96793328D02*
X79958026Y-96864757D01*
X80600884Y-97721900D02*
X80458026Y-97793328D01*
X80458026Y-97793328D02*
X80100884Y-97793328D01*
X80100884Y-97793328D02*
X79958026Y-97721900D01*
X79958026Y-97721900D02*
X79886598Y-97579042D01*
X79886598Y-97579042D02*
X79886598Y-97436185D01*
X79886598Y-97436185D02*
X79958026Y-97293328D01*
X79958026Y-97293328D02*
X80100884Y-97221900D01*
X80100884Y-97221900D02*
X80458026Y-97221900D01*
X80458026Y-97221900D02*
X80600884Y-97150471D01*
X81100884Y-96793328D02*
X81672312Y-96793328D01*
X81315169Y-96293328D02*
X81315169Y-97579042D01*
X81315169Y-97579042D02*
X81386598Y-97721900D01*
X81386598Y-97721900D02*
X81529455Y-97793328D01*
X81529455Y-97793328D02*
X81672312Y-97793328D01*
X82743741Y-97721900D02*
X82600884Y-97793328D01*
X82600884Y-97793328D02*
X82315170Y-97793328D01*
X82315170Y-97793328D02*
X82172312Y-97721900D01*
X82172312Y-97721900D02*
X82100884Y-97579042D01*
X82100884Y-97579042D02*
X82100884Y-97007614D01*
X82100884Y-97007614D02*
X82172312Y-96864757D01*
X82172312Y-96864757D02*
X82315170Y-96793328D01*
X82315170Y-96793328D02*
X82600884Y-96793328D01*
X82600884Y-96793328D02*
X82743741Y-96864757D01*
X82743741Y-96864757D02*
X82815170Y-97007614D01*
X82815170Y-97007614D02*
X82815170Y-97150471D01*
X82815170Y-97150471D02*
X82100884Y-97293328D01*
X83458026Y-97650471D02*
X83529455Y-97721900D01*
X83529455Y-97721900D02*
X83458026Y-97793328D01*
X83458026Y-97793328D02*
X83386598Y-97721900D01*
X83386598Y-97721900D02*
X83458026Y-97650471D01*
X83458026Y-97650471D02*
X83458026Y-97793328D01*
X83458026Y-96864757D02*
X83529455Y-96936185D01*
X83529455Y-96936185D02*
X83458026Y-97007614D01*
X83458026Y-97007614D02*
X83386598Y-96936185D01*
X83386598Y-96936185D02*
X83458026Y-96864757D01*
X83458026Y-96864757D02*
X83458026Y-97007614D01*
X85243741Y-96436185D02*
X85315169Y-96364757D01*
X85315169Y-96364757D02*
X85458027Y-96293328D01*
X85458027Y-96293328D02*
X85815169Y-96293328D01*
X85815169Y-96293328D02*
X85958027Y-96364757D01*
X85958027Y-96364757D02*
X86029455Y-96436185D01*
X86029455Y-96436185D02*
X86100884Y-96579042D01*
X86100884Y-96579042D02*
X86100884Y-96721900D01*
X86100884Y-96721900D02*
X86029455Y-96936185D01*
X86029455Y-96936185D02*
X85172312Y-97793328D01*
X85172312Y-97793328D02*
X86100884Y-97793328D01*
X87029455Y-96293328D02*
X87172312Y-96293328D01*
X87172312Y-96293328D02*
X87315169Y-96364757D01*
X87315169Y-96364757D02*
X87386598Y-96436185D01*
X87386598Y-96436185D02*
X87458026Y-96579042D01*
X87458026Y-96579042D02*
X87529455Y-96864757D01*
X87529455Y-96864757D02*
X87529455Y-97221900D01*
X87529455Y-97221900D02*
X87458026Y-97507614D01*
X87458026Y-97507614D02*
X87386598Y-97650471D01*
X87386598Y-97650471D02*
X87315169Y-97721900D01*
X87315169Y-97721900D02*
X87172312Y-97793328D01*
X87172312Y-97793328D02*
X87029455Y-97793328D01*
X87029455Y-97793328D02*
X86886598Y-97721900D01*
X86886598Y-97721900D02*
X86815169Y-97650471D01*
X86815169Y-97650471D02*
X86743740Y-97507614D01*
X86743740Y-97507614D02*
X86672312Y-97221900D01*
X86672312Y-97221900D02*
X86672312Y-96864757D01*
X86672312Y-96864757D02*
X86743740Y-96579042D01*
X86743740Y-96579042D02*
X86815169Y-96436185D01*
X86815169Y-96436185D02*
X86886598Y-96364757D01*
X86886598Y-96364757D02*
X87029455Y-96293328D01*
X88100883Y-96436185D02*
X88172311Y-96364757D01*
X88172311Y-96364757D02*
X88315169Y-96293328D01*
X88315169Y-96293328D02*
X88672311Y-96293328D01*
X88672311Y-96293328D02*
X88815169Y-96364757D01*
X88815169Y-96364757D02*
X88886597Y-96436185D01*
X88886597Y-96436185D02*
X88958026Y-96579042D01*
X88958026Y-96579042D02*
X88958026Y-96721900D01*
X88958026Y-96721900D02*
X88886597Y-96936185D01*
X88886597Y-96936185D02*
X88029454Y-97793328D01*
X88029454Y-97793328D02*
X88958026Y-97793328D01*
X90315168Y-96293328D02*
X89600882Y-96293328D01*
X89600882Y-96293328D02*
X89529454Y-97007614D01*
X89529454Y-97007614D02*
X89600882Y-96936185D01*
X89600882Y-96936185D02*
X89743740Y-96864757D01*
X89743740Y-96864757D02*
X90100882Y-96864757D01*
X90100882Y-96864757D02*
X90243740Y-96936185D01*
X90243740Y-96936185D02*
X90315168Y-97007614D01*
X90315168Y-97007614D02*
X90386597Y-97150471D01*
X90386597Y-97150471D02*
X90386597Y-97507614D01*
X90386597Y-97507614D02*
X90315168Y-97650471D01*
X90315168Y-97650471D02*
X90243740Y-97721900D01*
X90243740Y-97721900D02*
X90100882Y-97793328D01*
X90100882Y-97793328D02*
X89743740Y-97793328D01*
X89743740Y-97793328D02*
X89600882Y-97721900D01*
X89600882Y-97721900D02*
X89529454Y-97650471D01*
X91029453Y-97221900D02*
X92172311Y-97221900D01*
X93172311Y-96293328D02*
X93315168Y-96293328D01*
X93315168Y-96293328D02*
X93458025Y-96364757D01*
X93458025Y-96364757D02*
X93529454Y-96436185D01*
X93529454Y-96436185D02*
X93600882Y-96579042D01*
X93600882Y-96579042D02*
X93672311Y-96864757D01*
X93672311Y-96864757D02*
X93672311Y-97221900D01*
X93672311Y-97221900D02*
X93600882Y-97507614D01*
X93600882Y-97507614D02*
X93529454Y-97650471D01*
X93529454Y-97650471D02*
X93458025Y-97721900D01*
X93458025Y-97721900D02*
X93315168Y-97793328D01*
X93315168Y-97793328D02*
X93172311Y-97793328D01*
X93172311Y-97793328D02*
X93029454Y-97721900D01*
X93029454Y-97721900D02*
X92958025Y-97650471D01*
X92958025Y-97650471D02*
X92886596Y-97507614D01*
X92886596Y-97507614D02*
X92815168Y-97221900D01*
X92815168Y-97221900D02*
X92815168Y-96864757D01*
X92815168Y-96864757D02*
X92886596Y-96579042D01*
X92886596Y-96579042D02*
X92958025Y-96436185D01*
X92958025Y-96436185D02*
X93029454Y-96364757D01*
X93029454Y-96364757D02*
X93172311Y-96293328D01*
X94172310Y-96293328D02*
X95100882Y-96293328D01*
X95100882Y-96293328D02*
X94600882Y-96864757D01*
X94600882Y-96864757D02*
X94815167Y-96864757D01*
X94815167Y-96864757D02*
X94958025Y-96936185D01*
X94958025Y-96936185D02*
X95029453Y-97007614D01*
X95029453Y-97007614D02*
X95100882Y-97150471D01*
X95100882Y-97150471D02*
X95100882Y-97507614D01*
X95100882Y-97507614D02*
X95029453Y-97650471D01*
X95029453Y-97650471D02*
X94958025Y-97721900D01*
X94958025Y-97721900D02*
X94815167Y-97793328D01*
X94815167Y-97793328D02*
X94386596Y-97793328D01*
X94386596Y-97793328D02*
X94243739Y-97721900D01*
X94243739Y-97721900D02*
X94172310Y-97650471D01*
X95743738Y-97221900D02*
X96886596Y-97221900D01*
X98386596Y-97793328D02*
X97529453Y-97793328D01*
X97958024Y-97793328D02*
X97958024Y-96293328D01*
X97958024Y-96293328D02*
X97815167Y-96507614D01*
X97815167Y-96507614D02*
X97672310Y-96650471D01*
X97672310Y-96650471D02*
X97529453Y-96721900D01*
X99743738Y-96293328D02*
X99029452Y-96293328D01*
X99029452Y-96293328D02*
X98958024Y-97007614D01*
X98958024Y-97007614D02*
X99029452Y-96936185D01*
X99029452Y-96936185D02*
X99172310Y-96864757D01*
X99172310Y-96864757D02*
X99529452Y-96864757D01*
X99529452Y-96864757D02*
X99672310Y-96936185D01*
X99672310Y-96936185D02*
X99743738Y-97007614D01*
X99743738Y-97007614D02*
X99815167Y-97150471D01*
X99815167Y-97150471D02*
X99815167Y-97507614D01*
X99815167Y-97507614D02*
X99743738Y-97650471D01*
X99743738Y-97650471D02*
X99672310Y-97721900D01*
X99672310Y-97721900D02*
X99529452Y-97793328D01*
X99529452Y-97793328D02*
X99172310Y-97793328D01*
X99172310Y-97793328D02*
X99029452Y-97721900D01*
X99029452Y-97721900D02*
X98958024Y-97650471D01*
D10*
D11*
X55002200Y-98507200D02*
X163002200Y-98507200D01*
D10*
D11*
X56458026Y-100593328D02*
X56458026Y-99093328D01*
X57315169Y-100593328D02*
X56672312Y-99736185D01*
X57315169Y-99093328D02*
X56458026Y-99950471D01*
X57958026Y-100593328D02*
X57958026Y-99593328D01*
X57958026Y-99093328D02*
X57886598Y-99164757D01*
X57886598Y-99164757D02*
X57958026Y-99236185D01*
X57958026Y-99236185D02*
X58029455Y-99164757D01*
X58029455Y-99164757D02*
X57958026Y-99093328D01*
X57958026Y-99093328D02*
X57958026Y-99236185D01*
X59529455Y-100450471D02*
X59458027Y-100521900D01*
X59458027Y-100521900D02*
X59243741Y-100593328D01*
X59243741Y-100593328D02*
X59100884Y-100593328D01*
X59100884Y-100593328D02*
X58886598Y-100521900D01*
X58886598Y-100521900D02*
X58743741Y-100379042D01*
X58743741Y-100379042D02*
X58672312Y-100236185D01*
X58672312Y-100236185D02*
X58600884Y-99950471D01*
X58600884Y-99950471D02*
X58600884Y-99736185D01*
X58600884Y-99736185D02*
X58672312Y-99450471D01*
X58672312Y-99450471D02*
X58743741Y-99307614D01*
X58743741Y-99307614D02*
X58886598Y-99164757D01*
X58886598Y-99164757D02*
X59100884Y-99093328D01*
X59100884Y-99093328D02*
X59243741Y-99093328D01*
X59243741Y-99093328D02*
X59458027Y-99164757D01*
X59458027Y-99164757D02*
X59529455Y-99236185D01*
X60815170Y-100593328D02*
X60815170Y-99807614D01*
X60815170Y-99807614D02*
X60743741Y-99664757D01*
X60743741Y-99664757D02*
X60600884Y-99593328D01*
X60600884Y-99593328D02*
X60315170Y-99593328D01*
X60315170Y-99593328D02*
X60172312Y-99664757D01*
X60815170Y-100521900D02*
X60672312Y-100593328D01*
X60672312Y-100593328D02*
X60315170Y-100593328D01*
X60315170Y-100593328D02*
X60172312Y-100521900D01*
X60172312Y-100521900D02*
X60100884Y-100379042D01*
X60100884Y-100379042D02*
X60100884Y-100236185D01*
X60100884Y-100236185D02*
X60172312Y-100093328D01*
X60172312Y-100093328D02*
X60315170Y-100021900D01*
X60315170Y-100021900D02*
X60672312Y-100021900D01*
X60672312Y-100021900D02*
X60815170Y-99950471D01*
X62172313Y-100593328D02*
X62172313Y-99093328D01*
X62172313Y-100521900D02*
X62029455Y-100593328D01*
X62029455Y-100593328D02*
X61743741Y-100593328D01*
X61743741Y-100593328D02*
X61600884Y-100521900D01*
X61600884Y-100521900D02*
X61529455Y-100450471D01*
X61529455Y-100450471D02*
X61458027Y-100307614D01*
X61458027Y-100307614D02*
X61458027Y-99879042D01*
X61458027Y-99879042D02*
X61529455Y-99736185D01*
X61529455Y-99736185D02*
X61600884Y-99664757D01*
X61600884Y-99664757D02*
X61743741Y-99593328D01*
X61743741Y-99593328D02*
X62029455Y-99593328D01*
X62029455Y-99593328D02*
X62172313Y-99664757D01*
X64029455Y-99807614D02*
X64529455Y-99807614D01*
X64743741Y-100593328D02*
X64029455Y-100593328D01*
X64029455Y-100593328D02*
X64029455Y-99093328D01*
X64029455Y-99093328D02*
X64743741Y-99093328D01*
X65386598Y-100450471D02*
X65458027Y-100521900D01*
X65458027Y-100521900D02*
X65386598Y-100593328D01*
X65386598Y-100593328D02*
X65315170Y-100521900D01*
X65315170Y-100521900D02*
X65386598Y-100450471D01*
X65386598Y-100450471D02*
X65386598Y-100593328D01*
X66100884Y-100593328D02*
X66100884Y-99093328D01*
X66100884Y-99093328D02*
X66458027Y-99093328D01*
X66458027Y-99093328D02*
X66672313Y-99164757D01*
X66672313Y-99164757D02*
X66815170Y-99307614D01*
X66815170Y-99307614D02*
X66886599Y-99450471D01*
X66886599Y-99450471D02*
X66958027Y-99736185D01*
X66958027Y-99736185D02*
X66958027Y-99950471D01*
X66958027Y-99950471D02*
X66886599Y-100236185D01*
X66886599Y-100236185D02*
X66815170Y-100379042D01*
X66815170Y-100379042D02*
X66672313Y-100521900D01*
X66672313Y-100521900D02*
X66458027Y-100593328D01*
X66458027Y-100593328D02*
X66100884Y-100593328D01*
X67600884Y-100450471D02*
X67672313Y-100521900D01*
X67672313Y-100521900D02*
X67600884Y-100593328D01*
X67600884Y-100593328D02*
X67529456Y-100521900D01*
X67529456Y-100521900D02*
X67600884Y-100450471D01*
X67600884Y-100450471D02*
X67600884Y-100593328D01*
X68243742Y-100164757D02*
X68958028Y-100164757D01*
X68100885Y-100593328D02*
X68600885Y-99093328D01*
X68600885Y-99093328D02*
X69100885Y-100593328D01*
X69600884Y-100450471D02*
X69672313Y-100521900D01*
X69672313Y-100521900D02*
X69600884Y-100593328D01*
X69600884Y-100593328D02*
X69529456Y-100521900D01*
X69529456Y-100521900D02*
X69600884Y-100450471D01*
X69600884Y-100450471D02*
X69600884Y-100593328D01*
X71529456Y-100593328D02*
X71815170Y-100593328D01*
X71815170Y-100593328D02*
X71958027Y-100521900D01*
X71958027Y-100521900D02*
X72029456Y-100450471D01*
X72029456Y-100450471D02*
X72172313Y-100236185D01*
X72172313Y-100236185D02*
X72243742Y-99950471D01*
X72243742Y-99950471D02*
X72243742Y-99379042D01*
X72243742Y-99379042D02*
X72172313Y-99236185D01*
X72172313Y-99236185D02*
X72100885Y-99164757D01*
X72100885Y-99164757D02*
X71958027Y-99093328D01*
X71958027Y-99093328D02*
X71672313Y-99093328D01*
X71672313Y-99093328D02*
X71529456Y-99164757D01*
X71529456Y-99164757D02*
X71458027Y-99236185D01*
X71458027Y-99236185D02*
X71386599Y-99379042D01*
X71386599Y-99379042D02*
X71386599Y-99736185D01*
X71386599Y-99736185D02*
X71458027Y-99879042D01*
X71458027Y-99879042D02*
X71529456Y-99950471D01*
X71529456Y-99950471D02*
X71672313Y-100021900D01*
X71672313Y-100021900D02*
X71958027Y-100021900D01*
X71958027Y-100021900D02*
X72100885Y-99950471D01*
X72100885Y-99950471D02*
X72172313Y-99879042D01*
X72172313Y-99879042D02*
X72243742Y-99736185D01*
X72886598Y-100450471D02*
X72958027Y-100521900D01*
X72958027Y-100521900D02*
X72886598Y-100593328D01*
X72886598Y-100593328D02*
X72815170Y-100521900D01*
X72815170Y-100521900D02*
X72886598Y-100450471D01*
X72886598Y-100450471D02*
X72886598Y-100593328D01*
X73886599Y-99093328D02*
X74029456Y-99093328D01*
X74029456Y-99093328D02*
X74172313Y-99164757D01*
X74172313Y-99164757D02*
X74243742Y-99236185D01*
X74243742Y-99236185D02*
X74315170Y-99379042D01*
X74315170Y-99379042D02*
X74386599Y-99664757D01*
X74386599Y-99664757D02*
X74386599Y-100021900D01*
X74386599Y-100021900D02*
X74315170Y-100307614D01*
X74315170Y-100307614D02*
X74243742Y-100450471D01*
X74243742Y-100450471D02*
X74172313Y-100521900D01*
X74172313Y-100521900D02*
X74029456Y-100593328D01*
X74029456Y-100593328D02*
X73886599Y-100593328D01*
X73886599Y-100593328D02*
X73743742Y-100521900D01*
X73743742Y-100521900D02*
X73672313Y-100450471D01*
X73672313Y-100450471D02*
X73600884Y-100307614D01*
X73600884Y-100307614D02*
X73529456Y-100021900D01*
X73529456Y-100021900D02*
X73529456Y-99664757D01*
X73529456Y-99664757D02*
X73600884Y-99379042D01*
X73600884Y-99379042D02*
X73672313Y-99236185D01*
X73672313Y-99236185D02*
X73743742Y-99164757D01*
X73743742Y-99164757D02*
X73886599Y-99093328D01*
X75029455Y-100450471D02*
X75100884Y-100521900D01*
X75100884Y-100521900D02*
X75029455Y-100593328D01*
X75029455Y-100593328D02*
X74958027Y-100521900D01*
X74958027Y-100521900D02*
X75029455Y-100450471D01*
X75029455Y-100450471D02*
X75029455Y-100593328D01*
X76029456Y-99093328D02*
X76172313Y-99093328D01*
X76172313Y-99093328D02*
X76315170Y-99164757D01*
X76315170Y-99164757D02*
X76386599Y-99236185D01*
X76386599Y-99236185D02*
X76458027Y-99379042D01*
X76458027Y-99379042D02*
X76529456Y-99664757D01*
X76529456Y-99664757D02*
X76529456Y-100021900D01*
X76529456Y-100021900D02*
X76458027Y-100307614D01*
X76458027Y-100307614D02*
X76386599Y-100450471D01*
X76386599Y-100450471D02*
X76315170Y-100521900D01*
X76315170Y-100521900D02*
X76172313Y-100593328D01*
X76172313Y-100593328D02*
X76029456Y-100593328D01*
X76029456Y-100593328D02*
X75886599Y-100521900D01*
X75886599Y-100521900D02*
X75815170Y-100450471D01*
X75815170Y-100450471D02*
X75743741Y-100307614D01*
X75743741Y-100307614D02*
X75672313Y-100021900D01*
X75672313Y-100021900D02*
X75672313Y-99664757D01*
X75672313Y-99664757D02*
X75743741Y-99379042D01*
X75743741Y-99379042D02*
X75815170Y-99236185D01*
X75815170Y-99236185D02*
X75886599Y-99164757D01*
X75886599Y-99164757D02*
X76029456Y-99093328D01*
D10*
D11*
X55002200Y-95507200D02*
X163002200Y-95507200D01*
D10*
D12*
X142413853Y-97785528D02*
X141913853Y-97071242D01*
X141556710Y-97785528D02*
X141556710Y-96285528D01*
X141556710Y-96285528D02*
X142128139Y-96285528D01*
X142128139Y-96285528D02*
X142270996Y-96356957D01*
X142270996Y-96356957D02*
X142342425Y-96428385D01*
X142342425Y-96428385D02*
X142413853Y-96571242D01*
X142413853Y-96571242D02*
X142413853Y-96785528D01*
X142413853Y-96785528D02*
X142342425Y-96928385D01*
X142342425Y-96928385D02*
X142270996Y-96999814D01*
X142270996Y-96999814D02*
X142128139Y-97071242D01*
X142128139Y-97071242D02*
X141556710Y-97071242D01*
X143628139Y-97714100D02*
X143485282Y-97785528D01*
X143485282Y-97785528D02*
X143199568Y-97785528D01*
X143199568Y-97785528D02*
X143056710Y-97714100D01*
X143056710Y-97714100D02*
X142985282Y-97571242D01*
X142985282Y-97571242D02*
X142985282Y-96999814D01*
X142985282Y-96999814D02*
X143056710Y-96856957D01*
X143056710Y-96856957D02*
X143199568Y-96785528D01*
X143199568Y-96785528D02*
X143485282Y-96785528D01*
X143485282Y-96785528D02*
X143628139Y-96856957D01*
X143628139Y-96856957D02*
X143699568Y-96999814D01*
X143699568Y-96999814D02*
X143699568Y-97142671D01*
X143699568Y-97142671D02*
X142985282Y-97285528D01*
X144199567Y-96785528D02*
X144556710Y-97785528D01*
X144556710Y-97785528D02*
X144913853Y-96785528D01*
X145485281Y-97642671D02*
X145556710Y-97714100D01*
X145556710Y-97714100D02*
X145485281Y-97785528D01*
X145485281Y-97785528D02*
X145413853Y-97714100D01*
X145413853Y-97714100D02*
X145485281Y-97642671D01*
X145485281Y-97642671D02*
X145485281Y-97785528D01*
X145485281Y-96856957D02*
X145556710Y-96928385D01*
X145556710Y-96928385D02*
X145485281Y-96999814D01*
X145485281Y-96999814D02*
X145413853Y-96928385D01*
X145413853Y-96928385D02*
X145485281Y-96856957D01*
X145485281Y-96856957D02*
X145485281Y-96999814D01*
X148128139Y-97785528D02*
X147270996Y-97785528D01*
X147699567Y-97785528D02*
X147699567Y-96285528D01*
X147699567Y-96285528D02*
X147556710Y-96499814D01*
X147556710Y-96499814D02*
X147413853Y-96642671D01*
X147413853Y-96642671D02*
X147270996Y-96714100D01*
X148770995Y-97642671D02*
X148842424Y-97714100D01*
X148842424Y-97714100D02*
X148770995Y-97785528D01*
X148770995Y-97785528D02*
X148699567Y-97714100D01*
X148699567Y-97714100D02*
X148770995Y-97642671D01*
X148770995Y-97642671D02*
X148770995Y-97785528D01*
X150270996Y-97785528D02*
X149413853Y-97785528D01*
X149842424Y-97785528D02*
X149842424Y-96285528D01*
X149842424Y-96285528D02*
X149699567Y-96499814D01*
X149699567Y-96499814D02*
X149556710Y-96642671D01*
X149556710Y-96642671D02*
X149413853Y-96714100D01*
D10*
D11*
X56386598Y-97721900D02*
X56600884Y-97793328D01*
X56600884Y-97793328D02*
X56958026Y-97793328D01*
X56958026Y-97793328D02*
X57100884Y-97721900D01*
X57100884Y-97721900D02*
X57172312Y-97650471D01*
X57172312Y-97650471D02*
X57243741Y-97507614D01*
X57243741Y-97507614D02*
X57243741Y-97364757D01*
X57243741Y-97364757D02*
X57172312Y-97221900D01*
X57172312Y-97221900D02*
X57100884Y-97150471D01*
X57100884Y-97150471D02*
X56958026Y-97079042D01*
X56958026Y-97079042D02*
X56672312Y-97007614D01*
X56672312Y-97007614D02*
X56529455Y-96936185D01*
X56529455Y-96936185D02*
X56458026Y-96864757D01*
X56458026Y-96864757D02*
X56386598Y-96721900D01*
X56386598Y-96721900D02*
X56386598Y-96579042D01*
X56386598Y-96579042D02*
X56458026Y-96436185D01*
X56458026Y-96436185D02*
X56529455Y-96364757D01*
X56529455Y-96364757D02*
X56672312Y-96293328D01*
X56672312Y-96293328D02*
X57029455Y-96293328D01*
X57029455Y-96293328D02*
X57243741Y-96364757D01*
X57886597Y-97793328D02*
X57886597Y-96793328D01*
X57886597Y-96293328D02*
X57815169Y-96364757D01*
X57815169Y-96364757D02*
X57886597Y-96436185D01*
X57886597Y-96436185D02*
X57958026Y-96364757D01*
X57958026Y-96364757D02*
X57886597Y-96293328D01*
X57886597Y-96293328D02*
X57886597Y-96436185D01*
X58458026Y-96793328D02*
X59243741Y-96793328D01*
X59243741Y-96793328D02*
X58458026Y-97793328D01*
X58458026Y-97793328D02*
X59243741Y-97793328D01*
X60386598Y-97721900D02*
X60243741Y-97793328D01*
X60243741Y-97793328D02*
X59958027Y-97793328D01*
X59958027Y-97793328D02*
X59815169Y-97721900D01*
X59815169Y-97721900D02*
X59743741Y-97579042D01*
X59743741Y-97579042D02*
X59743741Y-97007614D01*
X59743741Y-97007614D02*
X59815169Y-96864757D01*
X59815169Y-96864757D02*
X59958027Y-96793328D01*
X59958027Y-96793328D02*
X60243741Y-96793328D01*
X60243741Y-96793328D02*
X60386598Y-96864757D01*
X60386598Y-96864757D02*
X60458027Y-97007614D01*
X60458027Y-97007614D02*
X60458027Y-97150471D01*
X60458027Y-97150471D02*
X59743741Y-97293328D01*
X61100883Y-97650471D02*
X61172312Y-97721900D01*
X61172312Y-97721900D02*
X61100883Y-97793328D01*
X61100883Y-97793328D02*
X61029455Y-97721900D01*
X61029455Y-97721900D02*
X61100883Y-97650471D01*
X61100883Y-97650471D02*
X61100883Y-97793328D01*
X61100883Y-96864757D02*
X61172312Y-96936185D01*
X61172312Y-96936185D02*
X61100883Y-97007614D01*
X61100883Y-97007614D02*
X61029455Y-96936185D01*
X61029455Y-96936185D02*
X61100883Y-96864757D01*
X61100883Y-96864757D02*
X61100883Y-97007614D01*
X62886598Y-97364757D02*
X63600884Y-97364757D01*
X62743741Y-97793328D02*
X63243741Y-96293328D01*
X63243741Y-96293328D02*
X63743741Y-97793328D01*
X64886598Y-96793328D02*
X64886598Y-97793328D01*
X64529455Y-96221900D02*
X64172312Y-97293328D01*
X64172312Y-97293328D02*
X65100883Y-97293328D01*
D10*
D11*
X141458026Y-100593328D02*
X141458026Y-99093328D01*
X142815170Y-100593328D02*
X142815170Y-99093328D01*
X142815170Y-100521900D02*
X142672312Y-100593328D01*
X142672312Y-100593328D02*
X142386598Y-100593328D01*
X142386598Y-100593328D02*
X142243741Y-100521900D01*
X142243741Y-100521900D02*
X142172312Y-100450471D01*
X142172312Y-100450471D02*
X142100884Y-100307614D01*
X142100884Y-100307614D02*
X142100884Y-99879042D01*
X142100884Y-99879042D02*
X142172312Y-99736185D01*
X142172312Y-99736185D02*
X142243741Y-99664757D01*
X142243741Y-99664757D02*
X142386598Y-99593328D01*
X142386598Y-99593328D02*
X142672312Y-99593328D01*
X142672312Y-99593328D02*
X142815170Y-99664757D01*
X143529455Y-100450471D02*
X143600884Y-100521900D01*
X143600884Y-100521900D02*
X143529455Y-100593328D01*
X143529455Y-100593328D02*
X143458027Y-100521900D01*
X143458027Y-100521900D02*
X143529455Y-100450471D01*
X143529455Y-100450471D02*
X143529455Y-100593328D01*
X143529455Y-99664757D02*
X143600884Y-99736185D01*
X143600884Y-99736185D02*
X143529455Y-99807614D01*
X143529455Y-99807614D02*
X143458027Y-99736185D01*
X143458027Y-99736185D02*
X143529455Y-99664757D01*
X143529455Y-99664757D02*
X143529455Y-99807614D01*
X145315170Y-99236185D02*
X145386598Y-99164757D01*
X145386598Y-99164757D02*
X145529456Y-99093328D01*
X145529456Y-99093328D02*
X145886598Y-99093328D01*
X145886598Y-99093328D02*
X146029456Y-99164757D01*
X146029456Y-99164757D02*
X146100884Y-99236185D01*
X146100884Y-99236185D02*
X146172313Y-99379042D01*
X146172313Y-99379042D02*
X146172313Y-99521900D01*
X146172313Y-99521900D02*
X146100884Y-99736185D01*
X146100884Y-99736185D02*
X145243741Y-100593328D01*
X145243741Y-100593328D02*
X146172313Y-100593328D01*
X147886598Y-99021900D02*
X146600884Y-100950471D01*
X148243741Y-99093328D02*
X149172313Y-99093328D01*
X149172313Y-99093328D02*
X148672313Y-99664757D01*
X148672313Y-99664757D02*
X148886598Y-99664757D01*
X148886598Y-99664757D02*
X149029456Y-99736185D01*
X149029456Y-99736185D02*
X149100884Y-99807614D01*
X149100884Y-99807614D02*
X149172313Y-99950471D01*
X149172313Y-99950471D02*
X149172313Y-100307614D01*
X149172313Y-100307614D02*
X149100884Y-100450471D01*
X149100884Y-100450471D02*
X149029456Y-100521900D01*
X149029456Y-100521900D02*
X148886598Y-100593328D01*
X148886598Y-100593328D02*
X148458027Y-100593328D01*
X148458027Y-100593328D02*
X148315170Y-100521900D01*
X148315170Y-100521900D02*
X148243741Y-100450471D01*
D10*
D11*
X55002200Y-91507200D02*
X163002200Y-91507200D01*
D10*
D13*
X56693928Y-92211638D02*
X57836785Y-92211638D01*
X57015357Y-94211638D02*
X57265357Y-92211638D01*
X58253452Y-94211638D02*
X58420119Y-92878304D01*
X58503452Y-92211638D02*
X58396309Y-92306876D01*
X58396309Y-92306876D02*
X58479643Y-92402114D01*
X58479643Y-92402114D02*
X58586786Y-92306876D01*
X58586786Y-92306876D02*
X58503452Y-92211638D01*
X58503452Y-92211638D02*
X58479643Y-92402114D01*
X59086786Y-92878304D02*
X59848690Y-92878304D01*
X59455833Y-92211638D02*
X59241548Y-93925923D01*
X59241548Y-93925923D02*
X59312976Y-94116400D01*
X59312976Y-94116400D02*
X59491548Y-94211638D01*
X59491548Y-94211638D02*
X59682024Y-94211638D01*
X60634405Y-94211638D02*
X60455833Y-94116400D01*
X60455833Y-94116400D02*
X60384405Y-93925923D01*
X60384405Y-93925923D02*
X60598690Y-92211638D01*
X62170119Y-94116400D02*
X61967738Y-94211638D01*
X61967738Y-94211638D02*
X61586785Y-94211638D01*
X61586785Y-94211638D02*
X61408214Y-94116400D01*
X61408214Y-94116400D02*
X61336785Y-93925923D01*
X61336785Y-93925923D02*
X61432024Y-93164019D01*
X61432024Y-93164019D02*
X61551071Y-92973542D01*
X61551071Y-92973542D02*
X61753452Y-92878304D01*
X61753452Y-92878304D02*
X62134404Y-92878304D01*
X62134404Y-92878304D02*
X62312976Y-92973542D01*
X62312976Y-92973542D02*
X62384404Y-93164019D01*
X62384404Y-93164019D02*
X62360595Y-93354495D01*
X62360595Y-93354495D02*
X61384404Y-93544971D01*
X63134405Y-94021161D02*
X63217738Y-94116400D01*
X63217738Y-94116400D02*
X63110595Y-94211638D01*
X63110595Y-94211638D02*
X63027262Y-94116400D01*
X63027262Y-94116400D02*
X63134405Y-94021161D01*
X63134405Y-94021161D02*
X63110595Y-94211638D01*
X63265357Y-92973542D02*
X63348690Y-93068780D01*
X63348690Y-93068780D02*
X63241548Y-93164019D01*
X63241548Y-93164019D02*
X63158214Y-93068780D01*
X63158214Y-93068780D02*
X63265357Y-92973542D01*
X63265357Y-92973542D02*
X63241548Y-93164019D01*
X65562977Y-93640209D02*
X66515358Y-93640209D01*
X65301072Y-94211638D02*
X66217739Y-92211638D01*
X66217739Y-92211638D02*
X66634405Y-94211638D01*
X68158215Y-94211638D02*
X68408215Y-92211638D01*
X68170120Y-94116400D02*
X67967739Y-94211638D01*
X67967739Y-94211638D02*
X67586787Y-94211638D01*
X67586787Y-94211638D02*
X67408215Y-94116400D01*
X67408215Y-94116400D02*
X67324882Y-94021161D01*
X67324882Y-94021161D02*
X67253453Y-93830685D01*
X67253453Y-93830685D02*
X67324882Y-93259257D01*
X67324882Y-93259257D02*
X67443929Y-93068780D01*
X67443929Y-93068780D02*
X67551072Y-92973542D01*
X67551072Y-92973542D02*
X67753453Y-92878304D01*
X67753453Y-92878304D02*
X68134406Y-92878304D01*
X68134406Y-92878304D02*
X68312977Y-92973542D01*
X69967739Y-94211638D02*
X70217739Y-92211638D01*
X69979644Y-94116400D02*
X69777263Y-94211638D01*
X69777263Y-94211638D02*
X69396311Y-94211638D01*
X69396311Y-94211638D02*
X69217739Y-94116400D01*
X69217739Y-94116400D02*
X69134406Y-94021161D01*
X69134406Y-94021161D02*
X69062977Y-93830685D01*
X69062977Y-93830685D02*
X69134406Y-93259257D01*
X69134406Y-93259257D02*
X69253453Y-93068780D01*
X69253453Y-93068780D02*
X69360596Y-92973542D01*
X69360596Y-92973542D02*
X69562977Y-92878304D01*
X69562977Y-92878304D02*
X69943930Y-92878304D01*
X69943930Y-92878304D02*
X70122501Y-92973542D01*
X71015358Y-93449733D02*
X72539168Y-93449733D01*
X73682025Y-94211638D02*
X73503453Y-94116400D01*
X73503453Y-94116400D02*
X73420120Y-94021161D01*
X73420120Y-94021161D02*
X73348691Y-93830685D01*
X73348691Y-93830685D02*
X73420120Y-93259257D01*
X73420120Y-93259257D02*
X73539167Y-93068780D01*
X73539167Y-93068780D02*
X73646310Y-92973542D01*
X73646310Y-92973542D02*
X73848691Y-92878304D01*
X73848691Y-92878304D02*
X74134405Y-92878304D01*
X74134405Y-92878304D02*
X74312977Y-92973542D01*
X74312977Y-92973542D02*
X74396310Y-93068780D01*
X74396310Y-93068780D02*
X74467739Y-93259257D01*
X74467739Y-93259257D02*
X74396310Y-93830685D01*
X74396310Y-93830685D02*
X74277263Y-94021161D01*
X74277263Y-94021161D02*
X74170120Y-94116400D01*
X74170120Y-94116400D02*
X73967739Y-94211638D01*
X73967739Y-94211638D02*
X73682025Y-94211638D01*
X75372501Y-92878304D02*
X75205834Y-94211638D01*
X75348691Y-93068780D02*
X75455834Y-92973542D01*
X75455834Y-92973542D02*
X75658215Y-92878304D01*
X75658215Y-92878304D02*
X75943929Y-92878304D01*
X75943929Y-92878304D02*
X76122501Y-92973542D01*
X76122501Y-92973542D02*
X76193929Y-93164019D01*
X76193929Y-93164019D02*
X76062977Y-94211638D01*
X78420121Y-92878304D02*
X79182025Y-92878304D01*
X78539168Y-94211638D02*
X78753454Y-92497352D01*
X78753454Y-92497352D02*
X78872502Y-92306876D01*
X78872502Y-92306876D02*
X79074883Y-92211638D01*
X79074883Y-92211638D02*
X79265359Y-92211638D01*
X79967740Y-94211638D02*
X79789168Y-94116400D01*
X79789168Y-94116400D02*
X79705835Y-94021161D01*
X79705835Y-94021161D02*
X79634406Y-93830685D01*
X79634406Y-93830685D02*
X79705835Y-93259257D01*
X79705835Y-93259257D02*
X79824882Y-93068780D01*
X79824882Y-93068780D02*
X79932025Y-92973542D01*
X79932025Y-92973542D02*
X80134406Y-92878304D01*
X80134406Y-92878304D02*
X80420120Y-92878304D01*
X80420120Y-92878304D02*
X80598692Y-92973542D01*
X80598692Y-92973542D02*
X80682025Y-93068780D01*
X80682025Y-93068780D02*
X80753454Y-93259257D01*
X80753454Y-93259257D02*
X80682025Y-93830685D01*
X80682025Y-93830685D02*
X80562978Y-94021161D01*
X80562978Y-94021161D02*
X80455835Y-94116400D01*
X80455835Y-94116400D02*
X80253454Y-94211638D01*
X80253454Y-94211638D02*
X79967740Y-94211638D01*
X81491549Y-94211638D02*
X81658216Y-92878304D01*
X81610597Y-93259257D02*
X81729644Y-93068780D01*
X81729644Y-93068780D02*
X81836787Y-92973542D01*
X81836787Y-92973542D02*
X82039168Y-92878304D01*
X82039168Y-92878304D02*
X82229644Y-92878304D01*
X84253454Y-94211638D02*
X84503454Y-92211638D01*
X85336788Y-92402114D02*
X85443930Y-92306876D01*
X85443930Y-92306876D02*
X85646311Y-92211638D01*
X85646311Y-92211638D02*
X86122502Y-92211638D01*
X86122502Y-92211638D02*
X86301073Y-92306876D01*
X86301073Y-92306876D02*
X86384407Y-92402114D01*
X86384407Y-92402114D02*
X86455835Y-92592590D01*
X86455835Y-92592590D02*
X86432026Y-92783066D01*
X86432026Y-92783066D02*
X86301073Y-93068780D01*
X86301073Y-93068780D02*
X85015359Y-94211638D01*
X85015359Y-94211638D02*
X86253454Y-94211638D01*
X88277264Y-94021161D02*
X88170121Y-94116400D01*
X88170121Y-94116400D02*
X87872502Y-94211638D01*
X87872502Y-94211638D02*
X87682026Y-94211638D01*
X87682026Y-94211638D02*
X87408216Y-94116400D01*
X87408216Y-94116400D02*
X87241550Y-93925923D01*
X87241550Y-93925923D02*
X87170121Y-93735447D01*
X87170121Y-93735447D02*
X87122502Y-93354495D01*
X87122502Y-93354495D02*
X87158216Y-93068780D01*
X87158216Y-93068780D02*
X87301073Y-92687828D01*
X87301073Y-92687828D02*
X87420121Y-92497352D01*
X87420121Y-92497352D02*
X87634407Y-92306876D01*
X87634407Y-92306876D02*
X87932026Y-92211638D01*
X87932026Y-92211638D02*
X88122502Y-92211638D01*
X88122502Y-92211638D02*
X88396312Y-92306876D01*
X88396312Y-92306876D02*
X88479645Y-92402114D01*
X90765360Y-93164019D02*
X91432026Y-93164019D01*
X91586788Y-94211638D02*
X90634407Y-94211638D01*
X90634407Y-94211638D02*
X90884407Y-92211638D01*
X90884407Y-92211638D02*
X91836788Y-92211638D01*
X92574884Y-93164019D02*
X93241550Y-93164019D01*
X93396312Y-94211638D02*
X92443931Y-94211638D01*
X92443931Y-94211638D02*
X92693931Y-92211638D01*
X92693931Y-92211638D02*
X93646312Y-92211638D01*
X94253455Y-94211638D02*
X94503455Y-92211638D01*
X94503455Y-92211638D02*
X95265360Y-92211638D01*
X95265360Y-92211638D02*
X95443931Y-92306876D01*
X95443931Y-92306876D02*
X95527265Y-92402114D01*
X95527265Y-92402114D02*
X95598693Y-92592590D01*
X95598693Y-92592590D02*
X95562979Y-92878304D01*
X95562979Y-92878304D02*
X95443931Y-93068780D01*
X95443931Y-93068780D02*
X95336789Y-93164019D01*
X95336789Y-93164019D02*
X95134408Y-93259257D01*
X95134408Y-93259257D02*
X94372503Y-93259257D01*
X97396312Y-94211638D02*
X96848693Y-93259257D01*
X96253455Y-94211638D02*
X96503455Y-92211638D01*
X96503455Y-92211638D02*
X97265360Y-92211638D01*
X97265360Y-92211638D02*
X97443931Y-92306876D01*
X97443931Y-92306876D02*
X97527265Y-92402114D01*
X97527265Y-92402114D02*
X97598693Y-92592590D01*
X97598693Y-92592590D02*
X97562979Y-92878304D01*
X97562979Y-92878304D02*
X97443931Y-93068780D01*
X97443931Y-93068780D02*
X97336789Y-93164019D01*
X97336789Y-93164019D02*
X97134408Y-93259257D01*
X97134408Y-93259257D02*
X96372503Y-93259257D01*
X98884408Y-92211638D02*
X99265360Y-92211638D01*
X99265360Y-92211638D02*
X99443931Y-92306876D01*
X99443931Y-92306876D02*
X99610598Y-92497352D01*
X99610598Y-92497352D02*
X99658217Y-92878304D01*
X99658217Y-92878304D02*
X99574884Y-93544971D01*
X99574884Y-93544971D02*
X99432027Y-93925923D01*
X99432027Y-93925923D02*
X99217741Y-94116400D01*
X99217741Y-94116400D02*
X99015360Y-94211638D01*
X99015360Y-94211638D02*
X98634408Y-94211638D01*
X98634408Y-94211638D02*
X98455836Y-94116400D01*
X98455836Y-94116400D02*
X98289170Y-93925923D01*
X98289170Y-93925923D02*
X98241550Y-93544971D01*
X98241550Y-93544971D02*
X98324884Y-92878304D01*
X98324884Y-92878304D02*
X98467741Y-92497352D01*
X98467741Y-92497352D02*
X98682027Y-92306876D01*
X98682027Y-92306876D02*
X98884408Y-92211638D01*
X100348693Y-94211638D02*
X100598693Y-92211638D01*
X100598693Y-92211638D02*
X101086788Y-93640209D01*
X101086788Y-93640209D02*
X101932027Y-92211638D01*
X101932027Y-92211638D02*
X101682027Y-94211638D01*
D10*
D11*
X56958026Y-89607614D02*
X56458026Y-89607614D01*
X56458026Y-90393328D02*
X56458026Y-88893328D01*
X56458026Y-88893328D02*
X57172312Y-88893328D01*
X57743740Y-90393328D02*
X57743740Y-89393328D01*
X57743740Y-88893328D02*
X57672312Y-88964757D01*
X57672312Y-88964757D02*
X57743740Y-89036185D01*
X57743740Y-89036185D02*
X57815169Y-88964757D01*
X57815169Y-88964757D02*
X57743740Y-88893328D01*
X57743740Y-88893328D02*
X57743740Y-89036185D01*
X58672312Y-90393328D02*
X58529455Y-90321900D01*
X58529455Y-90321900D02*
X58458026Y-90179042D01*
X58458026Y-90179042D02*
X58458026Y-88893328D01*
X59815169Y-90321900D02*
X59672312Y-90393328D01*
X59672312Y-90393328D02*
X59386598Y-90393328D01*
X59386598Y-90393328D02*
X59243740Y-90321900D01*
X59243740Y-90321900D02*
X59172312Y-90179042D01*
X59172312Y-90179042D02*
X59172312Y-89607614D01*
X59172312Y-89607614D02*
X59243740Y-89464757D01*
X59243740Y-89464757D02*
X59386598Y-89393328D01*
X59386598Y-89393328D02*
X59672312Y-89393328D01*
X59672312Y-89393328D02*
X59815169Y-89464757D01*
X59815169Y-89464757D02*
X59886598Y-89607614D01*
X59886598Y-89607614D02*
X59886598Y-89750471D01*
X59886598Y-89750471D02*
X59172312Y-89893328D01*
X60529454Y-90250471D02*
X60600883Y-90321900D01*
X60600883Y-90321900D02*
X60529454Y-90393328D01*
X60529454Y-90393328D02*
X60458026Y-90321900D01*
X60458026Y-90321900D02*
X60529454Y-90250471D01*
X60529454Y-90250471D02*
X60529454Y-90393328D01*
X60529454Y-89464757D02*
X60600883Y-89536185D01*
X60600883Y-89536185D02*
X60529454Y-89607614D01*
X60529454Y-89607614D02*
X60458026Y-89536185D01*
X60458026Y-89536185D02*
X60529454Y-89464757D01*
X60529454Y-89464757D02*
X60529454Y-89607614D01*
X62958026Y-90321900D02*
X62815169Y-90393328D01*
X62815169Y-90393328D02*
X62529455Y-90393328D01*
X62529455Y-90393328D02*
X62386597Y-90321900D01*
X62386597Y-90321900D02*
X62315169Y-90179042D01*
X62315169Y-90179042D02*
X62315169Y-89607614D01*
X62315169Y-89607614D02*
X62386597Y-89464757D01*
X62386597Y-89464757D02*
X62529455Y-89393328D01*
X62529455Y-89393328D02*
X62815169Y-89393328D01*
X62815169Y-89393328D02*
X62958026Y-89464757D01*
X62958026Y-89464757D02*
X63029455Y-89607614D01*
X63029455Y-89607614D02*
X63029455Y-89750471D01*
X63029455Y-89750471D02*
X62315169Y-89893328D01*
X64243740Y-90321900D02*
X64100883Y-90393328D01*
X64100883Y-90393328D02*
X63815169Y-90393328D01*
X63815169Y-90393328D02*
X63672311Y-90321900D01*
X63672311Y-90321900D02*
X63600883Y-90179042D01*
X63600883Y-90179042D02*
X63600883Y-89607614D01*
X63600883Y-89607614D02*
X63672311Y-89464757D01*
X63672311Y-89464757D02*
X63815169Y-89393328D01*
X63815169Y-89393328D02*
X64100883Y-89393328D01*
X64100883Y-89393328D02*
X64243740Y-89464757D01*
X64243740Y-89464757D02*
X64315169Y-89607614D01*
X64315169Y-89607614D02*
X64315169Y-89750471D01*
X64315169Y-89750471D02*
X63600883Y-89893328D01*
X64958025Y-89393328D02*
X64958025Y-90893328D01*
X64958025Y-89464757D02*
X65100883Y-89393328D01*
X65100883Y-89393328D02*
X65386597Y-89393328D01*
X65386597Y-89393328D02*
X65529454Y-89464757D01*
X65529454Y-89464757D02*
X65600883Y-89536185D01*
X65600883Y-89536185D02*
X65672311Y-89679042D01*
X65672311Y-89679042D02*
X65672311Y-90107614D01*
X65672311Y-90107614D02*
X65600883Y-90250471D01*
X65600883Y-90250471D02*
X65529454Y-90321900D01*
X65529454Y-90321900D02*
X65386597Y-90393328D01*
X65386597Y-90393328D02*
X65100883Y-90393328D01*
X65100883Y-90393328D02*
X64958025Y-90321900D01*
X66315168Y-90393328D02*
X66315168Y-89393328D01*
X66315168Y-89679042D02*
X66386597Y-89536185D01*
X66386597Y-89536185D02*
X66458026Y-89464757D01*
X66458026Y-89464757D02*
X66600883Y-89393328D01*
X66600883Y-89393328D02*
X66743740Y-89393328D01*
X67458025Y-90393328D02*
X67315168Y-90321900D01*
X67315168Y-90321900D02*
X67243739Y-90250471D01*
X67243739Y-90250471D02*
X67172311Y-90107614D01*
X67172311Y-90107614D02*
X67172311Y-89679042D01*
X67172311Y-89679042D02*
X67243739Y-89536185D01*
X67243739Y-89536185D02*
X67315168Y-89464757D01*
X67315168Y-89464757D02*
X67458025Y-89393328D01*
X67458025Y-89393328D02*
X67672311Y-89393328D01*
X67672311Y-89393328D02*
X67815168Y-89464757D01*
X67815168Y-89464757D02*
X67886597Y-89536185D01*
X67886597Y-89536185D02*
X67958025Y-89679042D01*
X67958025Y-89679042D02*
X67958025Y-90107614D01*
X67958025Y-90107614D02*
X67886597Y-90250471D01*
X67886597Y-90250471D02*
X67815168Y-90321900D01*
X67815168Y-90321900D02*
X67672311Y-90393328D01*
X67672311Y-90393328D02*
X67458025Y-90393328D01*
X68600882Y-90393328D02*
X68600882Y-89393328D01*
X68600882Y-89536185D02*
X68672311Y-89464757D01*
X68672311Y-89464757D02*
X68815168Y-89393328D01*
X68815168Y-89393328D02*
X69029454Y-89393328D01*
X69029454Y-89393328D02*
X69172311Y-89464757D01*
X69172311Y-89464757D02*
X69243740Y-89607614D01*
X69243740Y-89607614D02*
X69243740Y-90393328D01*
X69243740Y-89607614D02*
X69315168Y-89464757D01*
X69315168Y-89464757D02*
X69458025Y-89393328D01*
X69458025Y-89393328D02*
X69672311Y-89393328D01*
X69672311Y-89393328D02*
X69815168Y-89464757D01*
X69815168Y-89464757D02*
X69886597Y-89607614D01*
X69886597Y-89607614D02*
X69886597Y-90393328D01*
X70243740Y-90536185D02*
X71386597Y-90536185D01*
X71743739Y-90393328D02*
X71743739Y-89393328D01*
X71743739Y-88893328D02*
X71672311Y-88964757D01*
X71672311Y-88964757D02*
X71743739Y-89036185D01*
X71743739Y-89036185D02*
X71815168Y-88964757D01*
X71815168Y-88964757D02*
X71743739Y-88893328D01*
X71743739Y-88893328D02*
X71743739Y-89036185D01*
X72386597Y-89036185D02*
X72458025Y-88964757D01*
X72458025Y-88964757D02*
X72600883Y-88893328D01*
X72600883Y-88893328D02*
X72958025Y-88893328D01*
X72958025Y-88893328D02*
X73100883Y-88964757D01*
X73100883Y-88964757D02*
X73172311Y-89036185D01*
X73172311Y-89036185D02*
X73243740Y-89179042D01*
X73243740Y-89179042D02*
X73243740Y-89321900D01*
X73243740Y-89321900D02*
X73172311Y-89536185D01*
X73172311Y-89536185D02*
X72315168Y-90393328D01*
X72315168Y-90393328D02*
X73243740Y-90393328D01*
X74529454Y-90321900D02*
X74386596Y-90393328D01*
X74386596Y-90393328D02*
X74100882Y-90393328D01*
X74100882Y-90393328D02*
X73958025Y-90321900D01*
X73958025Y-90321900D02*
X73886596Y-90250471D01*
X73886596Y-90250471D02*
X73815168Y-90107614D01*
X73815168Y-90107614D02*
X73815168Y-89679042D01*
X73815168Y-89679042D02*
X73886596Y-89536185D01*
X73886596Y-89536185D02*
X73958025Y-89464757D01*
X73958025Y-89464757D02*
X74100882Y-89393328D01*
X74100882Y-89393328D02*
X74386596Y-89393328D01*
X74386596Y-89393328D02*
X74529454Y-89464757D01*
X75172310Y-90250471D02*
X75243739Y-90321900D01*
X75243739Y-90321900D02*
X75172310Y-90393328D01*
X75172310Y-90393328D02*
X75100882Y-90321900D01*
X75100882Y-90321900D02*
X75172310Y-90250471D01*
X75172310Y-90250471D02*
X75172310Y-90393328D01*
X75886596Y-90393328D02*
X75886596Y-88893328D01*
X76029454Y-89821900D02*
X76458025Y-90393328D01*
X76458025Y-89393328D02*
X75886596Y-89964757D01*
X77100882Y-90393328D02*
X77100882Y-89393328D01*
X77100882Y-88893328D02*
X77029454Y-88964757D01*
X77029454Y-88964757D02*
X77100882Y-89036185D01*
X77100882Y-89036185D02*
X77172311Y-88964757D01*
X77172311Y-88964757D02*
X77100882Y-88893328D01*
X77100882Y-88893328D02*
X77100882Y-89036185D01*
X78458026Y-90321900D02*
X78315168Y-90393328D01*
X78315168Y-90393328D02*
X78029454Y-90393328D01*
X78029454Y-90393328D02*
X77886597Y-90321900D01*
X77886597Y-90321900D02*
X77815168Y-90250471D01*
X77815168Y-90250471D02*
X77743740Y-90107614D01*
X77743740Y-90107614D02*
X77743740Y-89679042D01*
X77743740Y-89679042D02*
X77815168Y-89536185D01*
X77815168Y-89536185D02*
X77886597Y-89464757D01*
X77886597Y-89464757D02*
X78029454Y-89393328D01*
X78029454Y-89393328D02*
X78315168Y-89393328D01*
X78315168Y-89393328D02*
X78458026Y-89464757D01*
X79743740Y-90393328D02*
X79743740Y-89607614D01*
X79743740Y-89607614D02*
X79672311Y-89464757D01*
X79672311Y-89464757D02*
X79529454Y-89393328D01*
X79529454Y-89393328D02*
X79243740Y-89393328D01*
X79243740Y-89393328D02*
X79100882Y-89464757D01*
X79743740Y-90321900D02*
X79600882Y-90393328D01*
X79600882Y-90393328D02*
X79243740Y-90393328D01*
X79243740Y-90393328D02*
X79100882Y-90321900D01*
X79100882Y-90321900D02*
X79029454Y-90179042D01*
X79029454Y-90179042D02*
X79029454Y-90036185D01*
X79029454Y-90036185D02*
X79100882Y-89893328D01*
X79100882Y-89893328D02*
X79243740Y-89821900D01*
X79243740Y-89821900D02*
X79600882Y-89821900D01*
X79600882Y-89821900D02*
X79743740Y-89750471D01*
X81100883Y-90393328D02*
X81100883Y-88893328D01*
X81100883Y-90321900D02*
X80958025Y-90393328D01*
X80958025Y-90393328D02*
X80672311Y-90393328D01*
X80672311Y-90393328D02*
X80529454Y-90321900D01*
X80529454Y-90321900D02*
X80458025Y-90250471D01*
X80458025Y-90250471D02*
X80386597Y-90107614D01*
X80386597Y-90107614D02*
X80386597Y-89679042D01*
X80386597Y-89679042D02*
X80458025Y-89536185D01*
X80458025Y-89536185D02*
X80529454Y-89464757D01*
X80529454Y-89464757D02*
X80672311Y-89393328D01*
X80672311Y-89393328D02*
X80958025Y-89393328D01*
X80958025Y-89393328D02*
X81100883Y-89464757D01*
X81458026Y-90536185D02*
X82600883Y-90536185D01*
X82958025Y-89393328D02*
X82958025Y-90893328D01*
X82958025Y-89464757D02*
X83100883Y-89393328D01*
X83100883Y-89393328D02*
X83386597Y-89393328D01*
X83386597Y-89393328D02*
X83529454Y-89464757D01*
X83529454Y-89464757D02*
X83600883Y-89536185D01*
X83600883Y-89536185D02*
X83672311Y-89679042D01*
X83672311Y-89679042D02*
X83672311Y-90107614D01*
X83672311Y-90107614D02*
X83600883Y-90250471D01*
X83600883Y-90250471D02*
X83529454Y-90321900D01*
X83529454Y-90321900D02*
X83386597Y-90393328D01*
X83386597Y-90393328D02*
X83100883Y-90393328D01*
X83100883Y-90393328D02*
X82958025Y-90321900D01*
X84958026Y-90321900D02*
X84815168Y-90393328D01*
X84815168Y-90393328D02*
X84529454Y-90393328D01*
X84529454Y-90393328D02*
X84386597Y-90321900D01*
X84386597Y-90321900D02*
X84315168Y-90250471D01*
X84315168Y-90250471D02*
X84243740Y-90107614D01*
X84243740Y-90107614D02*
X84243740Y-89679042D01*
X84243740Y-89679042D02*
X84315168Y-89536185D01*
X84315168Y-89536185D02*
X84386597Y-89464757D01*
X84386597Y-89464757D02*
X84529454Y-89393328D01*
X84529454Y-89393328D02*
X84815168Y-89393328D01*
X84815168Y-89393328D02*
X84958026Y-89464757D01*
X85600882Y-90393328D02*
X85600882Y-88893328D01*
X85600882Y-89464757D02*
X85743740Y-89393328D01*
X85743740Y-89393328D02*
X86029454Y-89393328D01*
X86029454Y-89393328D02*
X86172311Y-89464757D01*
X86172311Y-89464757D02*
X86243740Y-89536185D01*
X86243740Y-89536185D02*
X86315168Y-89679042D01*
X86315168Y-89679042D02*
X86315168Y-90107614D01*
X86315168Y-90107614D02*
X86243740Y-90250471D01*
X86243740Y-90250471D02*
X86172311Y-90321900D01*
X86172311Y-90321900D02*
X86029454Y-90393328D01*
X86029454Y-90393328D02*
X85743740Y-90393328D01*
X85743740Y-90393328D02*
X85600882Y-90321900D01*
D10*
D11*
X55002200Y-85507200D02*
X163002200Y-85507200D01*
D10*
D11*
X56386598Y-87621900D02*
X56600884Y-87693328D01*
X56600884Y-87693328D02*
X56958026Y-87693328D01*
X56958026Y-87693328D02*
X57100884Y-87621900D01*
X57100884Y-87621900D02*
X57172312Y-87550471D01*
X57172312Y-87550471D02*
X57243741Y-87407614D01*
X57243741Y-87407614D02*
X57243741Y-87264757D01*
X57243741Y-87264757D02*
X57172312Y-87121900D01*
X57172312Y-87121900D02*
X57100884Y-87050471D01*
X57100884Y-87050471D02*
X56958026Y-86979042D01*
X56958026Y-86979042D02*
X56672312Y-86907614D01*
X56672312Y-86907614D02*
X56529455Y-86836185D01*
X56529455Y-86836185D02*
X56458026Y-86764757D01*
X56458026Y-86764757D02*
X56386598Y-86621900D01*
X56386598Y-86621900D02*
X56386598Y-86479042D01*
X56386598Y-86479042D02*
X56458026Y-86336185D01*
X56458026Y-86336185D02*
X56529455Y-86264757D01*
X56529455Y-86264757D02*
X56672312Y-86193328D01*
X56672312Y-86193328D02*
X57029455Y-86193328D01*
X57029455Y-86193328D02*
X57243741Y-86264757D01*
X57886597Y-87693328D02*
X57886597Y-86193328D01*
X58529455Y-87693328D02*
X58529455Y-86907614D01*
X58529455Y-86907614D02*
X58458026Y-86764757D01*
X58458026Y-86764757D02*
X58315169Y-86693328D01*
X58315169Y-86693328D02*
X58100883Y-86693328D01*
X58100883Y-86693328D02*
X57958026Y-86764757D01*
X57958026Y-86764757D02*
X57886597Y-86836185D01*
X59815169Y-87621900D02*
X59672312Y-87693328D01*
X59672312Y-87693328D02*
X59386598Y-87693328D01*
X59386598Y-87693328D02*
X59243740Y-87621900D01*
X59243740Y-87621900D02*
X59172312Y-87479042D01*
X59172312Y-87479042D02*
X59172312Y-86907614D01*
X59172312Y-86907614D02*
X59243740Y-86764757D01*
X59243740Y-86764757D02*
X59386598Y-86693328D01*
X59386598Y-86693328D02*
X59672312Y-86693328D01*
X59672312Y-86693328D02*
X59815169Y-86764757D01*
X59815169Y-86764757D02*
X59886598Y-86907614D01*
X59886598Y-86907614D02*
X59886598Y-87050471D01*
X59886598Y-87050471D02*
X59172312Y-87193328D01*
X61100883Y-87621900D02*
X60958026Y-87693328D01*
X60958026Y-87693328D02*
X60672312Y-87693328D01*
X60672312Y-87693328D02*
X60529454Y-87621900D01*
X60529454Y-87621900D02*
X60458026Y-87479042D01*
X60458026Y-87479042D02*
X60458026Y-86907614D01*
X60458026Y-86907614D02*
X60529454Y-86764757D01*
X60529454Y-86764757D02*
X60672312Y-86693328D01*
X60672312Y-86693328D02*
X60958026Y-86693328D01*
X60958026Y-86693328D02*
X61100883Y-86764757D01*
X61100883Y-86764757D02*
X61172312Y-86907614D01*
X61172312Y-86907614D02*
X61172312Y-87050471D01*
X61172312Y-87050471D02*
X60458026Y-87193328D01*
X61600883Y-86693328D02*
X62172311Y-86693328D01*
X61815168Y-86193328D02*
X61815168Y-87479042D01*
X61815168Y-87479042D02*
X61886597Y-87621900D01*
X61886597Y-87621900D02*
X62029454Y-87693328D01*
X62029454Y-87693328D02*
X62172311Y-87693328D01*
X62672311Y-87550471D02*
X62743740Y-87621900D01*
X62743740Y-87621900D02*
X62672311Y-87693328D01*
X62672311Y-87693328D02*
X62600883Y-87621900D01*
X62600883Y-87621900D02*
X62672311Y-87550471D01*
X62672311Y-87550471D02*
X62672311Y-87693328D01*
X62672311Y-86764757D02*
X62743740Y-86836185D01*
X62743740Y-86836185D02*
X62672311Y-86907614D01*
X62672311Y-86907614D02*
X62600883Y-86836185D01*
X62600883Y-86836185D02*
X62672311Y-86764757D01*
X62672311Y-86764757D02*
X62672311Y-86907614D01*
D10*
D12*
X56485282Y-84256957D02*
X57199568Y-84256957D01*
X56342425Y-84685528D02*
X56842425Y-83185528D01*
X56842425Y-83185528D02*
X57342425Y-84685528D01*
X57842424Y-84685528D02*
X57842424Y-83185528D01*
X57842424Y-83185528D02*
X58342424Y-84256957D01*
X58342424Y-84256957D02*
X58842424Y-83185528D01*
X58842424Y-83185528D02*
X58842424Y-84685528D01*
D10*
D11*
X75002200Y-95507200D02*
X75002200Y-98507200D01*
D10*
D11*
X139002200Y-95507200D02*
X139002200Y-102007200D01*
D14*
G04 #@! TO.P,J4,1,VCC*
G04 #@! TO.N,Net-(J1-Pin_1)*
X21440000Y3250000D03*
D15*
G04 #@! TO.P,J4,2,GND*
G04 #@! TO.N,GND*
X18900000Y3250000D03*
G04 #@! TO.P,J4,3,SCL*
G04 #@! TO.N,Net-(J4-SCL)*
X16360000Y3250000D03*
G04 #@! TO.P,J4,4,SDA*
G04 #@! TO.N,Net-(J4-SDA)*
X13820000Y3250000D03*
G04 #@! TD*
D16*
G04 #@! TO.P,R1,1*
G04 #@! TO.N,Net-(J1-Pin_1)*
X22120000Y12050000D03*
D17*
G04 #@! TO.P,R1,2*
G04 #@! TO.N,Net-(J4-SDA)*
X14500000Y12050000D03*
G04 #@! TD*
D14*
G04 #@! TO.P,J1,1,Pin_1*
G04 #@! TO.N,Net-(J1-Pin_1)*
X3300000Y31730000D03*
D15*
G04 #@! TO.P,J1,2,Pin_2*
G04 #@! TO.N,Net-(J1-Pin_2)*
X3300000Y29190000D03*
G04 #@! TO.P,J1,3,Pin_3*
G04 #@! TO.N,GND*
X3300000Y26650000D03*
G04 #@! TD*
D14*
G04 #@! TO.P,J2,1,Pin_1*
G04 #@! TO.N,Net-(J1-Pin_1)*
X3300000Y20245000D03*
D15*
G04 #@! TO.P,J2,2,Pin_2*
G04 #@! TO.N,Net-(J2-Pin_2)*
X3300000Y17705000D03*
G04 #@! TO.P,J2,3,Pin_3*
G04 #@! TO.N,GND*
X3300000Y15165000D03*
G04 #@! TD*
D18*
G04 #@! TO.P,U1,1,A0*
G04 #@! TO.N,Net-(J1-Pin_2)*
X14330000Y32090000D03*
D17*
G04 #@! TO.P,U1,2,A1*
G04 #@! TO.N,Net-(J2-Pin_2)*
X14330000Y29550000D03*
G04 #@! TO.P,U1,3,A2*
G04 #@! TO.N,Net-(J3-Pin_2)*
X14330000Y27010000D03*
G04 #@! TO.P,U1,4,GND*
G04 #@! TO.N,GND*
X14330000Y24470000D03*
G04 #@! TO.P,U1,5,SDA*
G04 #@! TO.N,Net-(J4-SDA)*
X21950000Y24470000D03*
G04 #@! TO.P,U1,6,SCL*
G04 #@! TO.N,Net-(J4-SCL)*
X21950000Y27010000D03*
G04 #@! TO.P,U1,7,WP*
G04 #@! TO.N,GND*
X21950000Y29550000D03*
G04 #@! TO.P,U1,8,VCC*
G04 #@! TO.N,Net-(J1-Pin_1)*
X21950000Y32090000D03*
G04 #@! TD*
D16*
G04 #@! TO.P,C1,1*
G04 #@! TO.N,Net-(J1-Pin_1)*
X21400000Y7750000D03*
G04 #@! TO.P,C1,2*
G04 #@! TO.N,GND*
X18900000Y7750000D03*
G04 #@! TD*
G04 #@! TO.P,R2,1*
G04 #@! TO.N,Net-(J1-Pin_1)*
X22010000Y18500000D03*
D17*
G04 #@! TO.P,R2,2*
G04 #@! TO.N,Net-(J4-SCL)*
X14390000Y18500000D03*
G04 #@! TD*
D14*
G04 #@! TO.P,J3,1,Pin_1*
G04 #@! TO.N,Net-(J1-Pin_1)*
X3300000Y9230000D03*
D15*
G04 #@! TO.P,J3,2,Pin_2*
G04 #@! TO.N,Net-(J3-Pin_2)*
X3300000Y6690000D03*
G04 #@! TO.P,J3,3,Pin_3*
G04 #@! TO.N,GND*
X3300000Y4150000D03*
G04 #@! TD*
G04 #@! TA.AperFunction,Conductor*
G04 #@! TO.N,GND*
G36*
X24442539Y35479815D02*
G01*
X24488294Y35427011D01*
X24499500Y35375500D01*
X24499500Y624500D01*
X24479815Y557461D01*
X24427011Y511706D01*
X24375500Y500500D01*
X624500Y500500D01*
X557461Y520185D01*
X511706Y572989D01*
X500500Y624500D01*
X500500Y10127865D01*
X1949500Y10127865D01*
X1949500Y8332130D01*
X1949501Y8332124D01*
X1955908Y8272517D01*
X2006202Y8137672D01*
X2006206Y8137665D01*
X2092452Y8022456D01*
X2092455Y8022453D01*
X2207664Y7936207D01*
X2207671Y7936203D01*
X2339082Y7887190D01*
X2395016Y7845319D01*
X2419433Y7779855D01*
X2404582Y7711582D01*
X2383431Y7683327D01*
X2269889Y7569785D01*
X2144951Y7397821D01*
X2048444Y7208415D01*
X1982753Y7006240D01*
X1949500Y6796287D01*
X1949500Y6583714D01*
X1982753Y6373761D01*
X2048444Y6171586D01*
X2144951Y5982180D01*
X2269890Y5810214D01*
X2420213Y5659891D01*
X2592179Y5534952D01*
X2592181Y5534951D01*
X2592184Y5534949D01*
X2601493Y5530206D01*
X2652290Y5482234D01*
X2669087Y5414413D01*
X2646552Y5348278D01*
X2601502Y5309238D01*
X2592443Y5304622D01*
X2420540Y5179728D01*
X2420535Y5179724D01*
X2270276Y5029465D01*
X2270272Y5029460D01*
X2145379Y4857558D01*
X2048904Y4668218D01*
X1983242Y4466130D01*
X1983242Y4466127D01*
X1972769Y4400000D01*
X2866988Y4400000D01*
X2834075Y4342993D01*
X2800000Y4215826D01*
X2800000Y4084174D01*
X2834075Y3957007D01*
X2866988Y3900000D01*
X1972769Y3900000D01*
X1983242Y3833874D01*
X1983242Y3833871D01*
X2048904Y3631783D01*
X2145379Y3442443D01*
X2270272Y3270541D01*
X2270276Y3270536D01*
X2420535Y3120277D01*
X2420540Y3120273D01*
X2592442Y2995380D01*
X2781782Y2898905D01*
X2983871Y2833243D01*
X3050000Y2822769D01*
X3050000Y3716988D01*
X3107007Y3684075D01*
X3234174Y3650000D01*
X3365826Y3650000D01*
X3492993Y3684075D01*
X3550000Y3716988D01*
X3550000Y2822770D01*
X3616126Y2833243D01*
X3616129Y2833243D01*
X3818217Y2898905D01*
X4007557Y2995380D01*
X4179459Y3120273D01*
X4179464Y3120277D01*
X4329723Y3270536D01*
X4329727Y3270541D01*
X4392025Y3356287D01*
X12469500Y3356287D01*
X12469500Y3143713D01*
X12502754Y2933757D01*
X12538816Y2822769D01*
X12568444Y2731586D01*
X12664951Y2542180D01*
X12789890Y2370214D01*
X12940213Y2219891D01*
X13112179Y2094952D01*
X13112181Y2094951D01*
X13112184Y2094949D01*
X13301588Y1998443D01*
X13503757Y1932754D01*
X13713713Y1899500D01*
X13713714Y1899500D01*
X13926286Y1899500D01*
X13926287Y1899500D01*
X14136243Y1932754D01*
X14338412Y1998443D01*
X14527816Y2094949D01*
X14614138Y2157665D01*
X14699786Y2219891D01*
X14699788Y2219894D01*
X14699792Y2219896D01*
X14850104Y2370208D01*
X14850106Y2370212D01*
X14850109Y2370214D01*
X14975048Y2542180D01*
X14975047Y2542180D01*
X14975051Y2542184D01*
X14979514Y2550946D01*
X15027488Y2601741D01*
X15095308Y2618537D01*
X15161444Y2596001D01*
X15200486Y2550944D01*
X15204951Y2542180D01*
X15329890Y2370214D01*
X15480213Y2219891D01*
X15652179Y2094952D01*
X15652181Y2094951D01*
X15652184Y2094949D01*
X15841588Y1998443D01*
X16043757Y1932754D01*
X16253713Y1899500D01*
X16253714Y1899500D01*
X16466286Y1899500D01*
X16466287Y1899500D01*
X16676243Y1932754D01*
X16878412Y1998443D01*
X17067816Y2094949D01*
X17154138Y2157665D01*
X17239786Y2219891D01*
X17239788Y2219894D01*
X17239792Y2219896D01*
X17390104Y2370208D01*
X17390106Y2370212D01*
X17390109Y2370214D01*
X17515048Y2542180D01*
X17515051Y2542184D01*
X17519793Y2551492D01*
X17567763Y2602289D01*
X17635583Y2619089D01*
X17701719Y2596555D01*
X17740763Y2551500D01*
X17745377Y2542445D01*
X17870272Y2370541D01*
X17870276Y2370536D01*
X18020535Y2220277D01*
X18020540Y2220273D01*
X18192442Y2095380D01*
X18381782Y1998905D01*
X18583871Y1933243D01*
X18650000Y1922769D01*
X18650000Y2816988D01*
X18707007Y2784075D01*
X18834174Y2750000D01*
X18965826Y2750000D01*
X19092993Y2784075D01*
X19150000Y2816988D01*
X19150000Y1922770D01*
X19216126Y1933243D01*
X19216129Y1933243D01*
X19418217Y1998905D01*
X19607557Y2095380D01*
X19779458Y2220272D01*
X19893133Y2333947D01*
X19954456Y2367432D01*
X20024148Y2362448D01*
X20080082Y2320577D01*
X20096997Y2289599D01*
X20146202Y2157672D01*
X20146206Y2157665D01*
X20232452Y2042456D01*
X20232455Y2042453D01*
X20347664Y1956207D01*
X20347671Y1956203D01*
X20482517Y1905909D01*
X20482516Y1905909D01*
X20489444Y1905165D01*
X20542127Y1899500D01*
X22337872Y1899501D01*
X22397483Y1905909D01*
X22532331Y1956204D01*
X22647546Y2042454D01*
X22733796Y2157669D01*
X22784091Y2292517D01*
X22790500Y2352127D01*
X22790499Y4147872D01*
X22784091Y4207483D01*
X22783002Y4210402D01*
X22733797Y4342329D01*
X22733793Y4342336D01*
X22647547Y4457545D01*
X22647544Y4457548D01*
X22532335Y4543794D01*
X22532328Y4543798D01*
X22397482Y4594092D01*
X22397483Y4594092D01*
X22337883Y4600499D01*
X22337881Y4600500D01*
X22337873Y4600500D01*
X22337864Y4600500D01*
X20542129Y4600500D01*
X20542123Y4600499D01*
X20482516Y4594092D01*
X20347671Y4543798D01*
X20347664Y4543794D01*
X20232455Y4457548D01*
X20232452Y4457545D01*
X20146206Y4342336D01*
X20146202Y4342329D01*
X20096997Y4210402D01*
X20055126Y4154468D01*
X19989661Y4130051D01*
X19921388Y4144903D01*
X19893134Y4166054D01*
X19779464Y4279724D01*
X19779459Y4279728D01*
X19607557Y4404621D01*
X19418215Y4501097D01*
X19216124Y4566759D01*
X19150000Y4577232D01*
X19150000Y3683012D01*
X19092993Y3715925D01*
X18965826Y3750000D01*
X18834174Y3750000D01*
X18707007Y3715925D01*
X18650000Y3683012D01*
X18650000Y4577232D01*
X18649999Y4577232D01*
X18583875Y4566759D01*
X18381784Y4501097D01*
X18192442Y4404621D01*
X18020540Y4279728D01*
X18020535Y4279724D01*
X17870276Y4129465D01*
X17870272Y4129460D01*
X17745378Y3957557D01*
X17740762Y3948498D01*
X17692784Y3897705D01*
X17624963Y3880913D01*
X17558829Y3903454D01*
X17519794Y3948507D01*
X17515051Y3957816D01*
X17515049Y3957819D01*
X17515048Y3957821D01*
X17390109Y4129787D01*
X17239786Y4280110D01*
X17067820Y4405049D01*
X16878414Y4501556D01*
X16878413Y4501557D01*
X16878412Y4501557D01*
X16676243Y4567246D01*
X16676241Y4567247D01*
X16676240Y4567247D01*
X16514957Y4592792D01*
X16466287Y4600500D01*
X16253713Y4600500D01*
X16205042Y4592792D01*
X16043760Y4567247D01*
X15841585Y4501556D01*
X15652179Y4405049D01*
X15480213Y4280110D01*
X15329890Y4129787D01*
X15204949Y3957818D01*
X15200484Y3949054D01*
X15152509Y3898258D01*
X15084688Y3881464D01*
X15018553Y3904002D01*
X14979516Y3949054D01*
X14975050Y3957818D01*
X14850109Y4129787D01*
X14699786Y4280110D01*
X14527820Y4405049D01*
X14338414Y4501556D01*
X14338413Y4501557D01*
X14338412Y4501557D01*
X14136243Y4567246D01*
X14136241Y4567247D01*
X14136240Y4567247D01*
X13974957Y4592792D01*
X13926287Y4600500D01*
X13713713Y4600500D01*
X13665042Y4592792D01*
X13503760Y4567247D01*
X13301585Y4501556D01*
X13112179Y4405049D01*
X12940213Y4280110D01*
X12789890Y4129787D01*
X12664951Y3957821D01*
X12568444Y3768415D01*
X12502753Y3566240D01*
X12469500Y3356287D01*
X4392025Y3356287D01*
X4448519Y3434044D01*
X4448519Y3434045D01*
X4448520Y3434046D01*
X4454622Y3442445D01*
X4551095Y3631783D01*
X4616757Y3833871D01*
X4616757Y3833874D01*
X4627231Y3900000D01*
X3733012Y3900000D01*
X3765925Y3957007D01*
X3800000Y4084174D01*
X3800000Y4215826D01*
X3765925Y4342993D01*
X3733012Y4400000D01*
X4627231Y4400000D01*
X4616757Y4466127D01*
X4616757Y4466130D01*
X4551095Y4668218D01*
X4454620Y4857558D01*
X4329727Y5029460D01*
X4329723Y5029465D01*
X4179464Y5179724D01*
X4179459Y5179728D01*
X4007555Y5304623D01*
X3998500Y5309237D01*
X3947706Y5357212D01*
X3930912Y5425034D01*
X3953451Y5491168D01*
X3998508Y5530207D01*
X4007816Y5534949D01*
X4087007Y5592485D01*
X4179786Y5659891D01*
X4179788Y5659894D01*
X4179792Y5659896D01*
X4330104Y5810208D01*
X4330106Y5810212D01*
X4330109Y5810214D01*
X4455048Y5982180D01*
X4455047Y5982180D01*
X4455051Y5982184D01*
X4551557Y6171588D01*
X4617246Y6373757D01*
X4650500Y6583713D01*
X4650500Y6796287D01*
X4617246Y7006243D01*
X4551557Y7208412D01*
X4455051Y7397816D01*
X4455049Y7397819D01*
X4455048Y7397821D01*
X4330109Y7569787D01*
X4216569Y7683327D01*
X4201823Y7710331D01*
X4185221Y7736249D01*
X4185227Y7740725D01*
X4183084Y7744650D01*
X4185279Y7775346D01*
X4185325Y7806118D01*
X4187748Y7809878D01*
X4188068Y7814342D01*
X4206513Y7838982D01*
X4215112Y7852318D01*
X17600000Y7852318D01*
X17600000Y7647683D01*
X17632009Y7445583D01*
X17695244Y7250969D01*
X17788141Y7068650D01*
X17788147Y7068641D01*
X17820523Y7024079D01*
X17820524Y7024078D01*
X18500000Y7703554D01*
X18500000Y7697339D01*
X18527259Y7595606D01*
X18579920Y7504394D01*
X18654394Y7429920D01*
X18745606Y7377259D01*
X18847339Y7350000D01*
X18853553Y7350000D01*
X18174076Y6670526D01*
X18218650Y6638141D01*
X18400968Y6545245D01*
X18595582Y6482010D01*
X18797683Y6450000D01*
X19002317Y6450000D01*
X19204417Y6482010D01*
X19399031Y6545245D01*
X19581349Y6638141D01*
X19625921Y6670526D01*
X18946447Y7350000D01*
X18952661Y7350000D01*
X19054394Y7377259D01*
X19145606Y7429920D01*
X19220080Y7504394D01*
X19272741Y7595606D01*
X19300000Y7697339D01*
X19300000Y7703552D01*
X19979474Y7024078D01*
X19979474Y7024079D01*
X20011859Y7068651D01*
X20039233Y7122376D01*
X20087207Y7173173D01*
X20155028Y7189969D01*
X20221163Y7167433D01*
X20260203Y7122379D01*
X20287713Y7068389D01*
X20408028Y6902787D01*
X20552786Y6758029D01*
X20673226Y6670526D01*
X20718390Y6637713D01*
X20824369Y6583714D01*
X20900776Y6544782D01*
X20900778Y6544782D01*
X20900781Y6544780D01*
X21005137Y6510873D01*
X21095465Y6481523D01*
X21196557Y6465512D01*
X21297648Y6449500D01*
X21297649Y6449500D01*
X21502351Y6449500D01*
X21502352Y6449500D01*
X21704534Y6481523D01*
X21899219Y6544780D01*
X22081610Y6637713D01*
X22174590Y6705268D01*
X22247213Y6758029D01*
X22247215Y6758032D01*
X22247219Y6758034D01*
X22391966Y6902781D01*
X22391968Y6902785D01*
X22391971Y6902787D01*
X22444732Y6975410D01*
X22512287Y7068390D01*
X22605220Y7250781D01*
X22668477Y7445466D01*
X22700500Y7647648D01*
X22700500Y7852352D01*
X22687219Y7936204D01*
X22668477Y8054535D01*
X22637458Y8150000D01*
X22605220Y8249219D01*
X22605218Y8249222D01*
X22605218Y8249224D01*
X22562975Y8332130D01*
X22512287Y8431610D01*
X22480092Y8475923D01*
X22391971Y8597214D01*
X22247213Y8741972D01*
X22081613Y8862285D01*
X22081612Y8862286D01*
X22081610Y8862287D01*
X22024653Y8891309D01*
X21899223Y8955219D01*
X21704534Y9018478D01*
X21529995Y9046122D01*
X21502352Y9050500D01*
X21297648Y9050500D01*
X21273329Y9046649D01*
X21095465Y9018478D01*
X20900776Y8955219D01*
X20718386Y8862285D01*
X20552786Y8741972D01*
X20408028Y8597214D01*
X20287714Y8431614D01*
X20260203Y8377621D01*
X20212227Y8326826D01*
X20144406Y8310032D01*
X20078272Y8332571D01*
X20039234Y8377624D01*
X20011861Y8431348D01*
X19979474Y8475923D01*
X19979474Y8475924D01*
X19300000Y7796449D01*
X19300000Y7802661D01*
X19272741Y7904394D01*
X19220080Y7995606D01*
X19145606Y8070080D01*
X19054394Y8122741D01*
X18952661Y8150000D01*
X18946446Y8150000D01*
X19625922Y8829476D01*
X19625921Y8829477D01*
X19581359Y8861853D01*
X19581350Y8861859D01*
X19399031Y8954756D01*
X19204417Y9017991D01*
X19002317Y9050000D01*
X18797683Y9050000D01*
X18595582Y9017991D01*
X18400968Y8954756D01*
X18218644Y8861857D01*
X18174077Y8829477D01*
X18174077Y8829476D01*
X18853554Y8150000D01*
X18847339Y8150000D01*
X18745606Y8122741D01*
X18654394Y8070080D01*
X18579920Y7995606D01*
X18527259Y7904394D01*
X18500000Y7802661D01*
X18500000Y7796447D01*
X17820524Y8475923D01*
X17820523Y8475923D01*
X17788143Y8431356D01*
X17695244Y8249032D01*
X17632009Y8054418D01*
X17600000Y7852318D01*
X4215112Y7852318D01*
X4223186Y7864841D01*
X4228011Y7867700D01*
X4229940Y7870275D01*
X4252905Y7883878D01*
X4257334Y7885894D01*
X4257483Y7885909D01*
X4392331Y7936204D01*
X4507546Y8022454D01*
X4593796Y8137669D01*
X4644091Y8272517D01*
X4650500Y8332127D01*
X4650499Y10127872D01*
X4644091Y10187483D01*
X4593796Y10322331D01*
X4593795Y10322332D01*
X4593793Y10322336D01*
X4507547Y10437545D01*
X4507544Y10437548D01*
X4392335Y10523794D01*
X4392328Y10523798D01*
X4257482Y10574092D01*
X4257483Y10574092D01*
X4197883Y10580499D01*
X4197881Y10580500D01*
X4197873Y10580500D01*
X4197864Y10580500D01*
X2402129Y10580500D01*
X2402123Y10580499D01*
X2342516Y10574092D01*
X2207671Y10523798D01*
X2207664Y10523794D01*
X2092455Y10437548D01*
X2092452Y10437545D01*
X2006206Y10322336D01*
X2006202Y10322329D01*
X1955908Y10187483D01*
X1949501Y10127884D01*
X1949501Y10127877D01*
X1949500Y10127865D01*
X500500Y10127865D01*
X500500Y12152352D01*
X13199500Y12152352D01*
X13199500Y11947649D01*
X13231522Y11745466D01*
X13294781Y11550777D01*
X13387715Y11368387D01*
X13508028Y11202787D01*
X13652786Y11058029D01*
X13807749Y10945444D01*
X13818390Y10937713D01*
X13934607Y10878497D01*
X14000776Y10844782D01*
X14000778Y10844782D01*
X14000781Y10844780D01*
X14105137Y10810873D01*
X14195465Y10781523D01*
X14296557Y10765512D01*
X14397648Y10749500D01*
X14397649Y10749500D01*
X14602351Y10749500D01*
X14602352Y10749500D01*
X14804534Y10781523D01*
X14999219Y10844780D01*
X15181610Y10937713D01*
X15274590Y11005268D01*
X15347213Y11058029D01*
X15347215Y11058032D01*
X15347219Y11058034D01*
X15491966Y11202781D01*
X15491968Y11202785D01*
X15491971Y11202787D01*
X15544732Y11275410D01*
X15612287Y11368390D01*
X15705220Y11550781D01*
X15768477Y11745466D01*
X15800500Y11947648D01*
X15800500Y12152352D01*
X20819500Y12152352D01*
X20819500Y11947649D01*
X20851522Y11745466D01*
X20914781Y11550777D01*
X21007715Y11368387D01*
X21128028Y11202787D01*
X21272786Y11058029D01*
X21427749Y10945444D01*
X21438390Y10937713D01*
X21554607Y10878497D01*
X21620776Y10844782D01*
X21620778Y10844782D01*
X21620781Y10844780D01*
X21725137Y10810873D01*
X21815465Y10781523D01*
X21916557Y10765512D01*
X22017648Y10749500D01*
X22017649Y10749500D01*
X22222351Y10749500D01*
X22222352Y10749500D01*
X22424534Y10781523D01*
X22619219Y10844780D01*
X22801610Y10937713D01*
X22894590Y11005268D01*
X22967213Y11058029D01*
X22967215Y11058032D01*
X22967219Y11058034D01*
X23111966Y11202781D01*
X23111968Y11202785D01*
X23111971Y11202787D01*
X23164732Y11275410D01*
X23232287Y11368390D01*
X23325220Y11550781D01*
X23388477Y11745466D01*
X23420500Y11947648D01*
X23420500Y12152352D01*
X23388477Y12354534D01*
X23325220Y12549219D01*
X23325218Y12549222D01*
X23325218Y12549224D01*
X23291503Y12615393D01*
X23232287Y12731610D01*
X23224556Y12742251D01*
X23111971Y12897214D01*
X22967213Y13041972D01*
X22801613Y13162285D01*
X22801612Y13162286D01*
X22801610Y13162287D01*
X22744653Y13191309D01*
X22619223Y13255219D01*
X22424534Y13318478D01*
X22249995Y13346122D01*
X22222352Y13350500D01*
X22017648Y13350500D01*
X21993329Y13346649D01*
X21815465Y13318478D01*
X21620776Y13255219D01*
X21438386Y13162285D01*
X21272786Y13041972D01*
X21128028Y12897214D01*
X21007715Y12731614D01*
X20914781Y12549224D01*
X20851522Y12354535D01*
X20819500Y12152352D01*
X15800500Y12152352D01*
X15768477Y12354534D01*
X15705220Y12549219D01*
X15705218Y12549222D01*
X15705218Y12549224D01*
X15671503Y12615393D01*
X15612287Y12731610D01*
X15604556Y12742251D01*
X15491971Y12897214D01*
X15347213Y13041972D01*
X15181613Y13162285D01*
X15181612Y13162286D01*
X15181610Y13162287D01*
X15124653Y13191309D01*
X14999223Y13255219D01*
X14804534Y13318478D01*
X14629995Y13346122D01*
X14602352Y13350500D01*
X14397648Y13350500D01*
X14373329Y13346649D01*
X14195465Y13318478D01*
X14000776Y13255219D01*
X13818386Y13162285D01*
X13652786Y13041972D01*
X13508028Y12897214D01*
X13387715Y12731614D01*
X13294781Y12549224D01*
X13231522Y12354535D01*
X13199500Y12152352D01*
X500500Y12152352D01*
X500500Y21142865D01*
X1949500Y21142865D01*
X1949500Y19347130D01*
X1949501Y19347124D01*
X1955908Y19287517D01*
X2006202Y19152672D01*
X2006206Y19152665D01*
X2092452Y19037456D01*
X2092455Y19037453D01*
X2207664Y18951207D01*
X2207671Y18951203D01*
X2339082Y18902190D01*
X2395016Y18860319D01*
X2419433Y18794855D01*
X2404582Y18726582D01*
X2383431Y18698327D01*
X2269889Y18584785D01*
X2144951Y18412821D01*
X2048444Y18223415D01*
X1982753Y18021240D01*
X1979513Y18000781D01*
X1949500Y17811287D01*
X1949500Y17598713D01*
X1982754Y17388757D01*
X2013288Y17294782D01*
X2048444Y17186586D01*
X2144951Y16997180D01*
X2269890Y16825214D01*
X2420213Y16674891D01*
X2592179Y16549952D01*
X2592181Y16549951D01*
X2592184Y16549949D01*
X2601493Y16545206D01*
X2652290Y16497234D01*
X2669087Y16429413D01*
X2646552Y16363278D01*
X2601502Y16324238D01*
X2592443Y16319622D01*
X2420540Y16194728D01*
X2420535Y16194724D01*
X2270276Y16044465D01*
X2270272Y16044460D01*
X2145379Y15872558D01*
X2048904Y15683218D01*
X1983242Y15481130D01*
X1983242Y15481127D01*
X1972769Y15415000D01*
X2866988Y15415000D01*
X2834075Y15357993D01*
X2800000Y15230826D01*
X2800000Y15099174D01*
X2834075Y14972007D01*
X2866988Y14915000D01*
X1972769Y14915000D01*
X1983242Y14848874D01*
X1983242Y14848871D01*
X2048904Y14646783D01*
X2145379Y14457443D01*
X2270272Y14285541D01*
X2270276Y14285536D01*
X2420535Y14135277D01*
X2420540Y14135273D01*
X2592442Y14010380D01*
X2781782Y13913905D01*
X2983871Y13848243D01*
X3050000Y13837769D01*
X3050000Y14731988D01*
X3107007Y14699075D01*
X3234174Y14665000D01*
X3365826Y14665000D01*
X3492993Y14699075D01*
X3550000Y14731988D01*
X3550000Y13837770D01*
X3616126Y13848243D01*
X3616129Y13848243D01*
X3818217Y13913905D01*
X4007557Y14010380D01*
X4179459Y14135273D01*
X4179464Y14135277D01*
X4329723Y14285536D01*
X4329727Y14285541D01*
X4454620Y14457443D01*
X4551095Y14646783D01*
X4616757Y14848871D01*
X4616757Y14848874D01*
X4627231Y14915000D01*
X3733012Y14915000D01*
X3765925Y14972007D01*
X3800000Y15099174D01*
X3800000Y15230826D01*
X3775760Y15321289D01*
X8199500Y15321289D01*
X8199500Y15078712D01*
X8231161Y14838215D01*
X8293947Y14603896D01*
X8354610Y14457443D01*
X8386776Y14379788D01*
X8508064Y14169711D01*
X8508066Y14169708D01*
X8508067Y14169707D01*
X8655733Y13977264D01*
X8655739Y13977257D01*
X8827256Y13805740D01*
X8827262Y13805735D01*
X9019711Y13658064D01*
X9229788Y13536776D01*
X9453900Y13443946D01*
X9688211Y13381162D01*
X9868586Y13357416D01*
X9928711Y13349500D01*
X9928712Y13349500D01*
X10171289Y13349500D01*
X10219388Y13355833D01*
X10411789Y13381162D01*
X10646100Y13443946D01*
X10870212Y13536776D01*
X11080289Y13658064D01*
X11272738Y13805735D01*
X11444265Y13977262D01*
X11591936Y14169711D01*
X11713224Y14379788D01*
X11806054Y14603900D01*
X11868838Y14838211D01*
X11900500Y15078712D01*
X11900500Y15321288D01*
X11868838Y15561789D01*
X11806054Y15796100D01*
X11713224Y16020212D01*
X11591936Y16230289D01*
X11444265Y16422738D01*
X11444260Y16422744D01*
X11272743Y16594261D01*
X11272736Y16594267D01*
X11080293Y16741933D01*
X11080292Y16741934D01*
X11080289Y16741936D01*
X10870212Y16863224D01*
X10870205Y16863227D01*
X10646104Y16956053D01*
X10411785Y17018839D01*
X10171289Y17050500D01*
X10171288Y17050500D01*
X9928712Y17050500D01*
X9928711Y17050500D01*
X9688214Y17018839D01*
X9453895Y16956053D01*
X9229794Y16863227D01*
X9229785Y16863223D01*
X9019706Y16741933D01*
X8827263Y16594267D01*
X8827256Y16594261D01*
X8655739Y16422744D01*
X8655733Y16422737D01*
X8508067Y16230294D01*
X8386777Y16020215D01*
X8386773Y16020206D01*
X8293947Y15796105D01*
X8231161Y15561786D01*
X8199500Y15321289D01*
X3775760Y15321289D01*
X3765925Y15357993D01*
X3733012Y15415000D01*
X4627231Y15415000D01*
X4627231Y15415001D01*
X4616757Y15481127D01*
X4616757Y15481130D01*
X4551095Y15683218D01*
X4454620Y15872558D01*
X4329727Y16044460D01*
X4329723Y16044465D01*
X4179464Y16194724D01*
X4179459Y16194728D01*
X4007555Y16319623D01*
X3998500Y16324237D01*
X3947706Y16372212D01*
X3930912Y16440034D01*
X3953451Y16506168D01*
X3998508Y16545207D01*
X4007816Y16549949D01*
X4087007Y16607485D01*
X4179786Y16674891D01*
X4179788Y16674894D01*
X4179792Y16674896D01*
X4330104Y16825208D01*
X4330106Y16825212D01*
X4330109Y16825214D01*
X4455048Y16997180D01*
X4455047Y16997180D01*
X4455051Y16997184D01*
X4551557Y17186588D01*
X4617246Y17388757D01*
X4650500Y17598713D01*
X4650500Y17811287D01*
X4617246Y18021243D01*
X4551557Y18223412D01*
X4455051Y18412816D01*
X4455049Y18412819D01*
X4455048Y18412821D01*
X4370788Y18528797D01*
X4370780Y18528806D01*
X4330104Y18584792D01*
X4312544Y18602352D01*
X13089500Y18602352D01*
X13089500Y18397649D01*
X13121522Y18195466D01*
X13184781Y18000777D01*
X13277715Y17818387D01*
X13398028Y17652787D01*
X13542786Y17508029D01*
X13697749Y17395444D01*
X13708390Y17387713D01*
X13824607Y17328497D01*
X13890776Y17294782D01*
X13890778Y17294782D01*
X13890781Y17294780D01*
X13995137Y17260873D01*
X14085465Y17231523D01*
X14186557Y17215512D01*
X14287648Y17199500D01*
X14287649Y17199500D01*
X14492351Y17199500D01*
X14492352Y17199500D01*
X14694534Y17231523D01*
X14889219Y17294780D01*
X15071610Y17387713D01*
X15164590Y17455268D01*
X15237213Y17508029D01*
X15237215Y17508032D01*
X15237219Y17508034D01*
X15381966Y17652781D01*
X15381968Y17652785D01*
X15381971Y17652787D01*
X15497126Y17811287D01*
X15502287Y17818390D01*
X15595220Y18000781D01*
X15658477Y18195466D01*
X15690500Y18397648D01*
X15690500Y18602352D01*
X20709500Y18602352D01*
X20709500Y18397649D01*
X20741522Y18195466D01*
X20804781Y18000777D01*
X20897715Y17818387D01*
X21018028Y17652787D01*
X21162786Y17508029D01*
X21317749Y17395444D01*
X21328390Y17387713D01*
X21444607Y17328497D01*
X21510776Y17294782D01*
X21510778Y17294782D01*
X21510781Y17294780D01*
X21615137Y17260873D01*
X21705465Y17231523D01*
X21806557Y17215512D01*
X21907648Y17199500D01*
X21907649Y17199500D01*
X22112351Y17199500D01*
X22112352Y17199500D01*
X22314534Y17231523D01*
X22509219Y17294780D01*
X22691610Y17387713D01*
X22784590Y17455268D01*
X22857213Y17508029D01*
X22857215Y17508032D01*
X22857219Y17508034D01*
X23001966Y17652781D01*
X23001968Y17652785D01*
X23001971Y17652787D01*
X23117126Y17811287D01*
X23122287Y17818390D01*
X23215220Y18000781D01*
X23278477Y18195466D01*
X23310500Y18397648D01*
X23310500Y18602352D01*
X23278477Y18804534D01*
X23270416Y18829342D01*
X23215218Y18999224D01*
X23137035Y19152665D01*
X23122287Y19181610D01*
X23114556Y19192251D01*
X23001971Y19347214D01*
X22857213Y19491972D01*
X22691613Y19612285D01*
X22691612Y19612286D01*
X22691610Y19612287D01*
X22634653Y19641309D01*
X22509223Y19705219D01*
X22314534Y19768478D01*
X22139995Y19796122D01*
X22112352Y19800500D01*
X21907648Y19800500D01*
X21883329Y19796649D01*
X21705465Y19768478D01*
X21510776Y19705219D01*
X21328386Y19612285D01*
X21162786Y19491972D01*
X21018028Y19347214D01*
X20897715Y19181614D01*
X20804781Y18999224D01*
X20741522Y18804535D01*
X20709500Y18602352D01*
X15690500Y18602352D01*
X15658477Y18804534D01*
X15650416Y18829342D01*
X15595218Y18999224D01*
X15517035Y19152665D01*
X15502287Y19181610D01*
X15494556Y19192251D01*
X15381971Y19347214D01*
X15237213Y19491972D01*
X15071613Y19612285D01*
X15071612Y19612286D01*
X15071610Y19612287D01*
X15014653Y19641309D01*
X14889223Y19705219D01*
X14694534Y19768478D01*
X14519995Y19796122D01*
X14492352Y19800500D01*
X14287648Y19800500D01*
X14263329Y19796649D01*
X14085465Y19768478D01*
X13890776Y19705219D01*
X13708386Y19612285D01*
X13542786Y19491972D01*
X13398028Y19347214D01*
X13277715Y19181614D01*
X13184781Y18999224D01*
X13121522Y18804535D01*
X13089500Y18602352D01*
X4312544Y18602352D01*
X4214523Y18700373D01*
X4212574Y18702513D01*
X4198494Y18731429D01*
X4183084Y18759650D01*
X4183297Y18762638D01*
X4181986Y18765331D01*
X4185774Y18797269D01*
X4188068Y18829342D01*
X4189863Y18831740D01*
X4190216Y18834715D01*
X4210670Y18859535D01*
X4229940Y18885275D01*
X4233474Y18887205D01*
X4234652Y18888634D01*
X4238139Y18889753D01*
X4260915Y18902190D01*
X4392331Y18951204D01*
X4507546Y19037454D01*
X4593796Y19152669D01*
X4644091Y19287517D01*
X4650500Y19347127D01*
X4650499Y21142872D01*
X4644091Y21202483D01*
X4593796Y21337331D01*
X4593795Y21337332D01*
X4593793Y21337336D01*
X4507547Y21452545D01*
X4507544Y21452548D01*
X4392335Y21538794D01*
X4392328Y21538798D01*
X4257482Y21589092D01*
X4257483Y21589092D01*
X4197883Y21595499D01*
X4197881Y21595500D01*
X4197873Y21595500D01*
X4197864Y21595500D01*
X2402129Y21595500D01*
X2402123Y21595499D01*
X2342516Y21589092D01*
X2207671Y21538798D01*
X2207664Y21538794D01*
X2092455Y21452548D01*
X2092452Y21452545D01*
X2006206Y21337336D01*
X2006202Y21337329D01*
X1955908Y21202483D01*
X1949501Y21142884D01*
X1949501Y21142877D01*
X1949500Y21142865D01*
X500500Y21142865D01*
X500500Y32627865D01*
X1949500Y32627865D01*
X1949500Y30832130D01*
X1949501Y30832124D01*
X1955908Y30772517D01*
X2006202Y30637672D01*
X2006206Y30637665D01*
X2092452Y30522456D01*
X2092455Y30522453D01*
X2207664Y30436207D01*
X2207671Y30436203D01*
X2339082Y30387190D01*
X2395016Y30345319D01*
X2419433Y30279855D01*
X2404582Y30211582D01*
X2383431Y30183327D01*
X2269889Y30069785D01*
X2144951Y29897821D01*
X2048444Y29708415D01*
X1982753Y29506240D01*
X1950784Y29304394D01*
X1949500Y29296287D01*
X1949500Y29083713D01*
X1982754Y28873757D01*
X2038202Y28703105D01*
X2048444Y28671586D01*
X2144951Y28482180D01*
X2269890Y28310214D01*
X2420213Y28159891D01*
X2592179Y28034952D01*
X2592181Y28034951D01*
X2592184Y28034949D01*
X2601493Y28030206D01*
X2652290Y27982234D01*
X2669087Y27914413D01*
X2646552Y27848278D01*
X2601502Y27809238D01*
X2592443Y27804622D01*
X2420540Y27679728D01*
X2420535Y27679724D01*
X2270276Y27529465D01*
X2270272Y27529460D01*
X2145379Y27357558D01*
X2048904Y27168218D01*
X1983242Y26966130D01*
X1983242Y26966127D01*
X1972769Y26900000D01*
X2866988Y26900000D01*
X2834075Y26842993D01*
X2800000Y26715826D01*
X2800000Y26584174D01*
X2834075Y26457007D01*
X2866988Y26400000D01*
X1972769Y26400000D01*
X1983242Y26333874D01*
X1983242Y26333871D01*
X2048904Y26131783D01*
X2145379Y25942443D01*
X2270272Y25770541D01*
X2270276Y25770536D01*
X2420535Y25620277D01*
X2420540Y25620273D01*
X2592442Y25495380D01*
X2781782Y25398905D01*
X2983871Y25333243D01*
X3050000Y25322769D01*
X3050000Y26216988D01*
X3107007Y26184075D01*
X3234174Y26150000D01*
X3365826Y26150000D01*
X3492993Y26184075D01*
X3550000Y26216988D01*
X3550000Y25322770D01*
X3616126Y25333243D01*
X3616129Y25333243D01*
X3818217Y25398905D01*
X4007557Y25495380D01*
X4179459Y25620273D01*
X4179464Y25620277D01*
X4329723Y25770536D01*
X4329727Y25770541D01*
X4454620Y25942443D01*
X4551095Y26131783D01*
X4616757Y26333871D01*
X4616757Y26333874D01*
X4627231Y26400000D01*
X3733012Y26400000D01*
X3765925Y26457007D01*
X3800000Y26584174D01*
X3800000Y26715826D01*
X3765925Y26842993D01*
X3733012Y26900000D01*
X4627231Y26900000D01*
X4616757Y26966127D01*
X4616757Y26966130D01*
X4551095Y27168218D01*
X4454620Y27357558D01*
X4329727Y27529460D01*
X4329723Y27529465D01*
X4179464Y27679724D01*
X4179459Y27679728D01*
X4007555Y27804623D01*
X3998500Y27809237D01*
X3947706Y27857212D01*
X3930912Y27925034D01*
X3953451Y27991168D01*
X3998508Y28030207D01*
X4007816Y28034949D01*
X4128025Y28122285D01*
X4179786Y28159891D01*
X4179788Y28159894D01*
X4179792Y28159896D01*
X4330104Y28310208D01*
X4330106Y28310212D01*
X4330109Y28310214D01*
X4455048Y28482180D01*
X4455047Y28482180D01*
X4455051Y28482184D01*
X4551557Y28671588D01*
X4617246Y28873757D01*
X4650500Y29083713D01*
X4650500Y29296287D01*
X4617246Y29506243D01*
X4551557Y29708412D01*
X4455051Y29897816D01*
X4455049Y29897819D01*
X4455048Y29897821D01*
X4330109Y30069787D01*
X4216569Y30183327D01*
X4183084Y30244650D01*
X4188068Y30314342D01*
X4229940Y30370275D01*
X4260915Y30387190D01*
X4392331Y30436204D01*
X4507546Y30522454D01*
X4593796Y30637669D01*
X4644091Y30772517D01*
X4650500Y30832127D01*
X4650499Y32627872D01*
X4644091Y32687483D01*
X4593796Y32822331D01*
X4593795Y32822332D01*
X4593793Y32822336D01*
X4560445Y32866883D01*
X4507547Y32937545D01*
X4507544Y32937548D01*
X4507121Y32937865D01*
X13029500Y32937865D01*
X13029500Y31242130D01*
X13029501Y31242124D01*
X13035908Y31182517D01*
X13086202Y31047672D01*
X13086206Y31047665D01*
X13172452Y30932456D01*
X13172455Y30932453D01*
X13287664Y30846207D01*
X13287671Y30846203D01*
X13325387Y30832136D01*
X13422517Y30795909D01*
X13459441Y30791940D01*
X13523989Y30765204D01*
X13563838Y30707812D01*
X13566333Y30637987D01*
X13530681Y30577898D01*
X13519071Y30568334D01*
X13482784Y30541970D01*
X13338028Y30397214D01*
X13217715Y30231614D01*
X13124781Y30049224D01*
X13061522Y29854535D01*
X13029500Y29652352D01*
X13029500Y29447649D01*
X13061522Y29245466D01*
X13124781Y29050777D01*
X13188691Y28925347D01*
X13214978Y28873757D01*
X13217715Y28868387D01*
X13338028Y28702787D01*
X13482786Y28558029D01*
X13637749Y28445444D01*
X13648390Y28437713D01*
X13739840Y28391117D01*
X13741080Y28390485D01*
X13791876Y28342510D01*
X13808671Y28274689D01*
X13786134Y28208554D01*
X13741080Y28169515D01*
X13648386Y28122285D01*
X13482786Y28001972D01*
X13338028Y27857214D01*
X13217715Y27691614D01*
X13124781Y27509224D01*
X13061522Y27314535D01*
X13029500Y27112352D01*
X13029500Y26907649D01*
X13061522Y26705466D01*
X13124781Y26510777D01*
X13152179Y26457007D01*
X13214920Y26333871D01*
X13217715Y26328387D01*
X13338028Y26162787D01*
X13482786Y26018029D01*
X13637749Y25905444D01*
X13648390Y25897713D01*
X13720424Y25861010D01*
X13741629Y25850205D01*
X13792425Y25802230D01*
X13809220Y25734409D01*
X13786682Y25668274D01*
X13741629Y25629235D01*
X13648650Y25581860D01*
X13483105Y25461583D01*
X13483104Y25461583D01*
X13338417Y25316896D01*
X13338417Y25316895D01*
X13218140Y25151350D01*
X13125244Y24969030D01*
X13062009Y24774414D01*
X13053391Y24720000D01*
X14014314Y24720000D01*
X14009920Y24715606D01*
X13957259Y24624394D01*
X13930000Y24522661D01*
X13930000Y24417339D01*
X13957259Y24315606D01*
X14009920Y24224394D01*
X14014314Y24220000D01*
X13053391Y24220000D01*
X13062009Y24165587D01*
X13125244Y23970971D01*
X13218140Y23788651D01*
X13338417Y23623106D01*
X13338417Y23623105D01*
X13483104Y23478418D01*
X13648650Y23358141D01*
X13830968Y23265246D01*
X14025578Y23202012D01*
X14080000Y23193393D01*
X14080000Y24154314D01*
X14084394Y24149920D01*
X14175606Y24097259D01*
X14277339Y24070000D01*
X14382661Y24070000D01*
X14484394Y24097259D01*
X14575606Y24149920D01*
X14580000Y24154314D01*
X14580000Y23193394D01*
X14634421Y23202012D01*
X14829031Y23265246D01*
X15011349Y23358141D01*
X15176894Y23478418D01*
X15176895Y23478418D01*
X15321582Y23623105D01*
X15321582Y23623106D01*
X15441859Y23788651D01*
X15534755Y23970971D01*
X15597990Y24165587D01*
X15606609Y24220000D01*
X14645686Y24220000D01*
X14650080Y24224394D01*
X14702741Y24315606D01*
X14730000Y24417339D01*
X14730000Y24522661D01*
X14702741Y24624394D01*
X14650080Y24715606D01*
X14645686Y24720000D01*
X15606609Y24720000D01*
X15597990Y24774414D01*
X15534755Y24969030D01*
X15441859Y25151350D01*
X15321582Y25316895D01*
X15321582Y25316896D01*
X15176895Y25461583D01*
X15011349Y25581860D01*
X14918370Y25629235D01*
X14867574Y25677210D01*
X14850779Y25745031D01*
X14873316Y25811165D01*
X14918370Y25850205D01*
X14918920Y25850485D01*
X15011610Y25897713D01*
X15073176Y25942443D01*
X15177213Y26018029D01*
X15177215Y26018032D01*
X15177219Y26018034D01*
X15321966Y26162781D01*
X15321968Y26162785D01*
X15321971Y26162787D01*
X15385262Y26249901D01*
X15442287Y26328390D01*
X15535220Y26510781D01*
X15598477Y26705466D01*
X15630500Y26907648D01*
X15630500Y27112352D01*
X15598477Y27314534D01*
X15535220Y27509219D01*
X15535218Y27509222D01*
X15535218Y27509224D01*
X15501503Y27575393D01*
X15442287Y27691610D01*
X15434556Y27702251D01*
X15321971Y27857214D01*
X15177213Y28001972D01*
X15011614Y28122285D01*
X15005006Y28125652D01*
X14918917Y28169517D01*
X14868123Y28217489D01*
X14851328Y28285310D01*
X14873865Y28351445D01*
X14918917Y28390484D01*
X15011610Y28437713D01*
X15072820Y28482184D01*
X15177213Y28558029D01*
X15177215Y28558032D01*
X15177219Y28558034D01*
X15321966Y28702781D01*
X15321968Y28702785D01*
X15321971Y28702787D01*
X15374732Y28775410D01*
X15442287Y28868390D01*
X15535220Y29050781D01*
X15598477Y29245466D01*
X15630500Y29447648D01*
X15630500Y29652352D01*
X15621620Y29708415D01*
X15598477Y29854535D01*
X15535218Y30049224D01*
X15466888Y30183327D01*
X15442287Y30231610D01*
X15432813Y30244650D01*
X15321971Y30397214D01*
X15177219Y30541966D01*
X15140930Y30568331D01*
X15098264Y30623661D01*
X15092285Y30693274D01*
X15124890Y30755069D01*
X15185728Y30789427D01*
X15200562Y30791940D01*
X15237483Y30795909D01*
X15334562Y30832117D01*
X15372331Y30846204D01*
X15487546Y30932454D01*
X15573796Y31047669D01*
X15624091Y31182517D01*
X15630500Y31242127D01*
X15630499Y32192352D01*
X20649500Y32192352D01*
X20649500Y31987649D01*
X20681522Y31785466D01*
X20744781Y31590777D01*
X20837715Y31408387D01*
X20958028Y31242787D01*
X21102786Y31098029D01*
X21257749Y30985444D01*
X21268390Y30977713D01*
X21340424Y30941010D01*
X21361629Y30930205D01*
X21412425Y30882230D01*
X21429220Y30814409D01*
X21406682Y30748274D01*
X21361629Y30709235D01*
X21268650Y30661860D01*
X21103105Y30541583D01*
X21103104Y30541583D01*
X20958417Y30396896D01*
X20958417Y30396895D01*
X20838140Y30231350D01*
X20745244Y30049030D01*
X20682009Y29854414D01*
X20673391Y29800000D01*
X21634314Y29800000D01*
X21629920Y29795606D01*
X21577259Y29704394D01*
X21550000Y29602661D01*
X21550000Y29497339D01*
X21577259Y29395606D01*
X21629920Y29304394D01*
X21634314Y29300000D01*
X20673391Y29300000D01*
X20682009Y29245587D01*
X20745244Y29050971D01*
X20838140Y28868651D01*
X20958417Y28703106D01*
X20958417Y28703105D01*
X21103104Y28558418D01*
X21268652Y28438139D01*
X21361628Y28390766D01*
X21412425Y28342792D01*
X21429220Y28274971D01*
X21406683Y28208836D01*
X21361630Y28169797D01*
X21268388Y28122287D01*
X21102786Y28001972D01*
X20958028Y27857214D01*
X20837715Y27691614D01*
X20744781Y27509224D01*
X20681522Y27314535D01*
X20649500Y27112352D01*
X20649500Y26907649D01*
X20681522Y26705466D01*
X20744781Y26510777D01*
X20772179Y26457007D01*
X20834920Y26333871D01*
X20837715Y26328387D01*
X20958028Y26162787D01*
X21102786Y26018029D01*
X21257749Y25905444D01*
X21268390Y25897713D01*
X21359840Y25851117D01*
X21361080Y25850485D01*
X21411876Y25802510D01*
X21428671Y25734689D01*
X21406134Y25668554D01*
X21361080Y25629515D01*
X21268386Y25582285D01*
X21102786Y25461972D01*
X20958028Y25317214D01*
X20837715Y25151614D01*
X20744781Y24969224D01*
X20681522Y24774535D01*
X20649500Y24572352D01*
X20649500Y24367649D01*
X20681522Y24165466D01*
X20744781Y23970777D01*
X20837715Y23788387D01*
X20958028Y23622787D01*
X21102786Y23478029D01*
X21257749Y23365444D01*
X21268390Y23357713D01*
X21384607Y23298497D01*
X21450776Y23264782D01*
X21450778Y23264782D01*
X21450781Y23264780D01*
X21555137Y23230873D01*
X21645465Y23201523D01*
X21746557Y23185512D01*
X21847648Y23169500D01*
X21847649Y23169500D01*
X22052351Y23169500D01*
X22052352Y23169500D01*
X22254534Y23201523D01*
X22449219Y23264780D01*
X22631610Y23357713D01*
X22724590Y23425268D01*
X22797213Y23478029D01*
X22797215Y23478032D01*
X22797219Y23478034D01*
X22941966Y23622781D01*
X22941968Y23622785D01*
X22941971Y23622787D01*
X22994732Y23695410D01*
X23062287Y23788390D01*
X23155220Y23970781D01*
X23218477Y24165466D01*
X23250500Y24367648D01*
X23250500Y24572352D01*
X23242257Y24624394D01*
X23218477Y24774535D01*
X23155218Y24969224D01*
X23062419Y25151350D01*
X23062287Y25151610D01*
X23054556Y25162251D01*
X22941971Y25317214D01*
X22797213Y25461972D01*
X22631614Y25582285D01*
X22557058Y25620273D01*
X22538917Y25629517D01*
X22488123Y25677489D01*
X22471328Y25745310D01*
X22493865Y25811445D01*
X22538917Y25850484D01*
X22631610Y25897713D01*
X22693176Y25942443D01*
X22797213Y26018029D01*
X22797215Y26018032D01*
X22797219Y26018034D01*
X22941966Y26162781D01*
X22941968Y26162785D01*
X22941971Y26162787D01*
X23005262Y26249901D01*
X23062287Y26328390D01*
X23155220Y26510781D01*
X23218477Y26705466D01*
X23250500Y26907648D01*
X23250500Y27112352D01*
X23218477Y27314534D01*
X23155220Y27509219D01*
X23155218Y27509222D01*
X23155218Y27509224D01*
X23121503Y27575393D01*
X23062287Y27691610D01*
X23054556Y27702251D01*
X22941971Y27857214D01*
X22797213Y28001972D01*
X22631611Y28122287D01*
X22538369Y28169797D01*
X22487574Y28217771D01*
X22470779Y28285593D01*
X22493317Y28351727D01*
X22538371Y28390766D01*
X22631347Y28438139D01*
X22796894Y28558418D01*
X22796895Y28558418D01*
X22941582Y28703105D01*
X22941582Y28703106D01*
X23061859Y28868651D01*
X23154755Y29050971D01*
X23217990Y29245587D01*
X23226609Y29300000D01*
X22265686Y29300000D01*
X22270080Y29304394D01*
X22322741Y29395606D01*
X22350000Y29497339D01*
X22350000Y29602661D01*
X22322741Y29704394D01*
X22270080Y29795606D01*
X22265686Y29800000D01*
X23226609Y29800000D01*
X23217990Y29854414D01*
X23154755Y30049030D01*
X23061859Y30231350D01*
X22941582Y30396895D01*
X22941582Y30396896D01*
X22796895Y30541583D01*
X22631349Y30661860D01*
X22538370Y30709235D01*
X22487574Y30757210D01*
X22470779Y30825031D01*
X22493316Y30891165D01*
X22538370Y30930205D01*
X22542788Y30932456D01*
X22631610Y30977713D01*
X22652770Y30993087D01*
X22797213Y31098029D01*
X22797215Y31098032D01*
X22797219Y31098034D01*
X22941966Y31242781D01*
X22941968Y31242785D01*
X22941971Y31242787D01*
X22994732Y31315410D01*
X23062287Y31408390D01*
X23155220Y31590781D01*
X23218477Y31785466D01*
X23250500Y31987648D01*
X23250500Y32192352D01*
X23218477Y32394534D01*
X23155220Y32589219D01*
X23155218Y32589222D01*
X23155218Y32589224D01*
X23105151Y32687484D01*
X23062287Y32771610D01*
X23025438Y32822329D01*
X22941971Y32937214D01*
X22797213Y33081972D01*
X22631613Y33202285D01*
X22631612Y33202286D01*
X22631610Y33202287D01*
X22574653Y33231309D01*
X22449223Y33295219D01*
X22254534Y33358478D01*
X22079995Y33386122D01*
X22052352Y33390500D01*
X21847648Y33390500D01*
X21823329Y33386649D01*
X21645465Y33358478D01*
X21450776Y33295219D01*
X21268386Y33202285D01*
X21102786Y33081972D01*
X20958028Y32937214D01*
X20837715Y32771614D01*
X20744781Y32589224D01*
X20681522Y32394535D01*
X20649500Y32192352D01*
X15630499Y32192352D01*
X15630499Y32937872D01*
X15624091Y32997483D01*
X15573796Y33132331D01*
X15573795Y33132332D01*
X15573793Y33132336D01*
X15487547Y33247545D01*
X15487544Y33247548D01*
X15372335Y33333794D01*
X15372328Y33333798D01*
X15237482Y33384092D01*
X15237483Y33384092D01*
X15177883Y33390499D01*
X15177881Y33390500D01*
X15177873Y33390500D01*
X15177864Y33390500D01*
X13482129Y33390500D01*
X13482123Y33390499D01*
X13422516Y33384092D01*
X13287671Y33333798D01*
X13287664Y33333794D01*
X13172455Y33247548D01*
X13172452Y33247545D01*
X13086206Y33132336D01*
X13086202Y33132329D01*
X13035908Y32997483D01*
X13029501Y32937884D01*
X13029501Y32937877D01*
X13029500Y32937865D01*
X4507121Y32937865D01*
X4392335Y33023794D01*
X4392328Y33023798D01*
X4257482Y33074092D01*
X4257483Y33074092D01*
X4197883Y33080499D01*
X4197881Y33080500D01*
X4197873Y33080500D01*
X4197864Y33080500D01*
X2402129Y33080500D01*
X2402123Y33080499D01*
X2342516Y33074092D01*
X2207671Y33023798D01*
X2207664Y33023794D01*
X2092455Y32937548D01*
X2092452Y32937545D01*
X2006206Y32822336D01*
X2006202Y32822329D01*
X1955908Y32687483D01*
X1949501Y32627884D01*
X1949501Y32627877D01*
X1949500Y32627865D01*
X500500Y32627865D01*
X500500Y35375500D01*
X520185Y35442539D01*
X572989Y35488294D01*
X624500Y35499500D01*
X24375500Y35499500D01*
X24442539Y35479815D01*
G37*
G04 #@! TD.AperFunction*
G04 #@! TD*
D19*
X0Y36000000D02*
X25000000Y36000000D01*
X25000000Y0D01*
X0Y0D01*
X0Y36000000D01*
M02*
